<svg width="24" height="24" viewBox="0 0 24 24" fill="none" xmlns="http://www.w3.org/2000/svg">
<path d="M24 16.125C24 18.4031 22.7351 20.25 20.25 20.25H3.75C1.26488 20.25 0 18.4031 0 16.125V7.875C0 5.59688 1.26488 3.75 3.75 3.75H20.25C22.7351 3.75 24 5.59688 24 7.875V16.125Z" fill="#EC1C24"/>
<path d="M4.86377 6.24599L5.6659 7.87499L7.46402 8.13562L6.1639 9.40124L6.47027 11.1937L4.86377 10.3481L3.2569 11.1937L3.56365 9.40124L2.26465 8.13562L4.05977 7.87499L4.86377 6.24599ZM7.68977 4.87274L7.91215 5.32462L8.4124 5.39699L8.05127 5.74912L8.13565 6.24599L7.68977 6.01124L7.24427 6.24599L7.32865 5.74912L6.9679 5.39699L7.46702 5.32462L7.68977 4.87274ZM9.1339 6.49799L9.35665 6.94949L9.85465 7.02224L9.49502 7.37512L9.57977 7.87124L9.1339 7.63687L8.6884 7.87124L8.77277 7.37512L8.4124 7.02224L8.91077 6.94949L9.1339 6.49799ZM9.1339 9.10649L9.35665 9.55912L9.85465 9.63149L9.49502 9.98362L9.57977 10.4805L9.1339 10.2465L8.6884 10.4805L8.77277 9.98362L8.4124 9.63149L8.91077 9.55912L9.1339 9.10649ZM7.68977 10.9387L7.91215 11.3906L8.4124 11.4626L8.05127 11.8144L8.13565 12.312L7.68977 12.0787L7.24427 12.312L7.32865 11.8144L6.9679 11.4626L7.46702 11.3906L7.68977 10.9387Z" fill="#F9CB38"/>
</svg>
