<svg width="24" height="24" viewBox="0 0 24 24" fill="none" xmlns="http://www.w3.org/2000/svg">
<g clip-path="url(#clip0_355_11259)">
<path d="M14.25 20.25H20.25C20.9914 20.25 21.6214 20.0828 22.1445 19.7914L14.25 15.0821V20.25ZM23.8725 17.3287C23.958 16.9474 24.0015 16.5435 24.0015 16.1246V14.2496H18.7103L23.871 17.3287H23.8725ZM0.131295 6.65963C0.0424209 7.0586 -0.00160214 7.46625 4.45344e-05 7.875V9.75H5.31154L0.131295 6.65963ZM9.75004 3.75H3.75004C3.01392 3.75 2.38804 3.915 1.86717 4.20225L9.75004 8.90475V3.75ZM1.89117 19.8097C2.40717 20.0888 3.02479 20.25 3.75004 20.25H9.75004V15.1215L1.89117 19.8097ZM4.45344e-05 14.25V16.125C4.45344e-05 16.5566 0.0457945 16.9725 0.13617 17.3636L5.35579 14.25H4.45344e-05ZM22.1682 4.22063C21.6409 3.92138 21.0023 3.75 20.25 3.75H14.25V8.94413L22.1682 4.22063ZM24 9.75V7.875C24 7.46475 23.9577 7.06913 23.8755 6.69488L18.7545 9.75H24Z" fill="#2E3192"/>
<path d="M18.7545 9.75L23.8755 6.69488C23.6407 5.62088 23.0693 4.73175 22.1681 4.22063L14.25 8.94413V3.75H13.5V10.5H24V9.75H18.7545ZM0 13.5V14.25H5.35575L0.136125 17.3636C0.384 18.4343 0.97275 19.3133 1.89113 19.8097L9.75 15.1215V20.25H10.5V13.5H0ZM24 13.5H13.5V20.25H14.25V15.0821L22.1445 19.7917C23.0524 19.2863 23.631 18.402 23.871 17.3295L18.7103 14.25H24V13.5ZM9.75 3.75V8.90475L1.86713 4.20225C0.955875 4.70475 0.3735 5.5875 0.130875 6.65963L5.3115 9.75H0V10.5H10.5V3.75H9.75Z" fill="#E6E7E8"/>
<path d="M13.5 10.5V3.75H10.5V10.5H0V13.5H10.5V20.25H13.5V13.5H24V10.5H13.5Z" fill="#BE1E2D"/>
<path d="M8.22694 9.74998L0.708195 5.26161C0.54657 5.50161 0.41682 5.76561 0.30957 6.04686L6.5147 9.74998H8.22582H8.22694ZM23.6589 18.0337L17.3541 14.25H15.6081L23.2254 18.8321C23.4021 18.5853 23.5477 18.3176 23.6589 18.0352V18.0337ZM22.7698 4.64661L14.2386 9.74998L15.9707 9.75111L23.3323 5.34373C23.1681 5.04486 22.9948 4.85211 22.7698 4.64661ZM0.68007 18.7031C0.848757 18.96 1.05176 19.1927 1.28345 19.3946L9.77382 14.25H8.0627L0.68007 18.7031Z" fill="#BE1E2D"/>
</g>
<defs>
<clipPath id="clip0_355_11259">
<rect width="24" height="24" fill="white"/>
</clipPath>
</defs>
</svg>
