<svg width="48" height="48" viewBox="0 0 48 48" fill="none" xmlns="http://www.w3.org/2000/svg">
<circle cx="24" cy="24" r="24" fill="#0052FE"/>
<path fill-rule="evenodd" clip-rule="evenodd" d="M19.1984 18.2V17C19.1984 15.0118 20.8102 13.4 22.7984 13.4H25.1984C27.1867 13.4 28.7984 15.0118 28.7984 17V18.2H31.1984C32.5239 18.2 33.5984 19.2745 33.5984 20.6V24.8849C30.61 25.9937 27.3763 26.5999 23.9985 26.5999C20.6206 26.5999 17.3869 25.9937 14.3984 24.8849V20.6C14.3984 19.2745 15.473 18.2 16.7984 18.2H19.1984ZM21.5984 17C21.5984 16.3373 22.1357 15.8 22.7984 15.8H25.1984C25.8612 15.8 26.3984 16.3373 26.3984 17V18.2H21.5984V17ZM22.7984 23C22.7984 22.3373 23.3357 21.8 23.9984 21.8H24.0104C24.6732 21.8 25.2104 22.3373 25.2104 23C25.2104 23.6627 24.6732 24.2 24.0104 24.2H23.9984C23.3357 24.2 22.7984 23.6627 22.7984 23Z" fill="white"/>
<path d="M14.3984 27.4307V30.2C14.3984 31.5255 15.473 32.6 16.7984 32.6H31.1984C32.5239 32.6 33.5984 31.5255 33.5984 30.2V27.4307C30.5831 28.4485 27.3541 28.9999 23.9985 28.9999C20.6428 28.9999 17.4138 28.4485 14.3984 27.4307Z" fill="white"/>
</svg>