<svg width="594" height="578" viewBox="0 0 594 578" fill="none" xmlns="http://www.w3.org/2000/svg">
<path fill-rule="evenodd" clip-rule="evenodd" d="M536.388 13.4088L545.008 10.4654C559.839 5.40141 576.654 15.2712 582.534 32.492C587.96 48.3811 582.293 65.2531 569.72 71.7075C568.665 72.2493 557.754 75.7931 557.754 75.7931C542.924 80.8571 526.108 70.9873 520.228 53.7666C514.356 36.5682 521.596 18.4994 536.388 13.4088Z" fill="#FDA425"/>
<path d="M557.754 75.7935C572.594 70.7261 579.855 52.6485 573.971 35.416C568.087 18.1835 551.286 8.32173 536.446 13.3891C521.605 18.4565 514.344 36.5342 520.228 53.7667C526.112 70.9992 542.913 80.8609 557.754 75.7935Z" fill="#FFCD80"/>
<path fill-rule="evenodd" clip-rule="evenodd" d="M540.839 26.0412L539.894 26.3064L539.443 24.9146L541.092 24.452C541.483 24.3424 541.899 24.5657 542.024 24.9499L542.787 27.3037C544.251 26.9627 545.711 26.8032 547.163 26.8242C549.019 26.8505 550.865 27.1714 552.699 27.7861C552.906 27.8544 553.074 28.0086 553.16 28.205C553.244 28.4019 553.24 28.6223 553.144 28.8097L551.024 32.9634C550.864 33.2759 550.493 33.4221 550.146 33.3087C548.343 32.7224 546.492 32.5765 544.592 32.8693L547.136 40.7128C554.409 40.227 558.726 42.5284 560.196 47.372C561.005 50.0001 560.721 52.4449 559.353 54.6957C558.122 56.8093 556.117 58.5105 553.321 59.7797L554.632 63.8242C554.757 64.2078 554.542 64.607 554.152 64.7165L552.533 65.1707L552.082 63.7804L552.997 63.5237L551.714 59.567C551.599 59.2146 551.769 58.844 552.111 58.7029C554.892 57.5465 556.883 55.9711 558.068 53.9385C559.228 52.03 559.462 49.9657 558.779 47.7436C557.456 43.3859 553.391 41.6255 546.705 42.2013C546.352 42.2306 546.019 42.0108 545.911 41.6777L542.935 32.5004C542.872 32.3086 542.894 32.1029 542.993 31.9309C543.092 31.7604 543.26 31.6385 543.459 31.5974C545.686 31.1203 547.855 31.1738 549.963 31.7555L551.424 28.8948C550.019 28.5003 548.609 28.2908 547.19 28.2718C545.64 28.2489 544.086 28.4513 542.521 28.8757C542.133 28.9812 541.721 28.7578 541.597 28.3757L540.839 26.0412ZM551.495 54.1517C552.421 53.558 553.03 52.9166 553.291 52.2028C553.449 51.7448 553.516 51.2603 553.493 50.751L554.974 50.7396C555.002 51.4292 554.908 52.085 554.691 52.7169C554.263 53.8865 553.202 54.9628 551.448 55.8845C551.254 55.9859 551.021 55.9962 550.812 55.9104C550.605 55.8242 550.444 55.6519 550.376 55.4422L548.78 50.5235L550.19 50.1281L551.495 54.1517ZM537.397 36.636C537.44 35.9377 537.593 35.3238 537.847 34.7934C537.853 34.7804 537.861 34.7668 537.867 34.7537C538.476 33.6664 539.367 32.8879 540.534 32.4193C540.726 32.3429 540.946 32.3507 541.138 32.4398C541.33 32.5303 541.476 32.6953 541.54 32.8916L542.846 36.9197L541.437 37.3151L540.406 34.139C539.901 34.4722 539.494 34.9124 539.184 35.4601C539.005 35.8412 538.905 36.2829 538.874 36.7832C538.874 36.7961 538.872 36.8096 538.87 36.8231C538.808 37.3498 538.894 37.9438 539.108 38.6025L537.698 38.9979C537.415 38.1251 537.32 37.3374 537.397 36.636Z" fill="#FDA31F"/>
<path fill-rule="evenodd" clip-rule="evenodd" d="M539.698 41.6193C538.75 41.0319 538.079 40.1625 537.701 38.9982L539.111 38.6028C539.37 39.4013 539.815 40.0064 540.467 40.4078L540.49 40.4224C541.01 40.7696 541.728 40.9576 542.641 41.0193L541.44 37.3154L542.85 36.92L544.356 41.5637C544.426 41.7793 544.39 42.0115 544.259 42.1926C544.13 42.3716 543.919 42.4812 543.689 42.4855C541.917 42.5186 540.591 42.2075 539.698 41.6193Z" fill="#FDA31F"/>
<path fill-rule="evenodd" clip-rule="evenodd" d="M549.149 46.7705L550.229 50.0997L548.819 50.4951L547.465 46.3213C547.399 46.1176 547.427 45.8989 547.541 45.7226C547.656 45.5458 547.845 45.4296 548.059 45.4051C550.13 45.1698 551.647 45.4274 552.621 46.0676L552.642 46.0842C553.611 46.7728 554.286 47.693 554.662 48.8499C554.871 49.4967 554.987 50.1181 555.012 50.7112L553.531 50.7226C553.512 50.251 553.418 49.7582 553.252 49.2453C552.982 48.4141 552.503 47.7502 551.811 47.2534C551.201 46.8568 550.312 46.7135 549.149 46.7705Z" fill="#FDA31F"/>
<path fill-rule="evenodd" clip-rule="evenodd" d="M544.675 47.1406C537.66 47.5394 533.533 45.2773 532.179 40.6007C531.329 37.7909 531.528 35.352 532.728 33.2799C533.826 31.3838 535.784 29.785 538.635 28.5183L537.85 26.0991C537.725 25.7148 537.94 25.3148 538.328 25.2057L539.483 24.8818L539.935 26.2736L539.486 26.3996L540.243 28.734C540.358 29.0879 540.186 29.4605 539.842 29.6006C537.017 30.7613 535.065 32.2204 534.021 34.0235C533.005 35.7797 532.878 37.8512 533.601 40.2425C534.813 44.4316 538.693 46.1497 545.115 45.6594C545.464 45.6328 545.795 45.8516 545.902 46.1817L549.022 55.8006C549.085 55.9969 549.061 56.2066 548.958 56.3797C548.854 56.5533 548.679 56.6723 548.475 56.71C546.657 57.0414 545.036 57.071 543.617 56.8088C542.387 56.6347 541.233 56.3143 540.152 55.8468L538.18 58.8495C539.78 59.3967 541.476 59.7615 543.261 59.9469C545.338 60.1429 547.396 59.9681 549.438 59.4248C549.826 59.3222 550.236 59.5447 550.36 59.9253L551.643 63.8821L552.122 63.7476L552.573 65.1379L551.388 65.4703C550.999 65.5793 550.583 65.357 550.459 64.9734L549.168 60.9943C547.182 61.4475 545.182 61.5771 543.162 61.3861C540.897 61.1517 538.779 60.6459 536.801 59.8722C536.593 59.7909 536.429 59.6212 536.357 59.4126C536.284 59.2045 536.311 58.9779 536.429 58.797L539.24 54.5194C539.438 54.2156 539.845 54.1128 540.184 54.2821C541.292 54.833 542.497 55.1973 543.796 55.3798L543.83 55.3847C544.882 55.5811 546.058 55.5887 547.358 55.4139L544.675 47.1406Z" fill="#FDA31F"/>
<path fill-rule="evenodd" clip-rule="evenodd" d="M537.239 20.0483C548.078 16.3472 560.633 24.6472 565.343 38.441C570.053 52.2339 565.196 66.4791 554.357 70.1801C553.962 70.315 553.75 70.7453 553.885 71.1404C554.02 71.5356 554.451 71.7473 554.846 71.6124C566.371 67.6772 571.782 52.6178 566.774 37.9523C561.766 23.286 548.275 14.6815 536.75 18.6168C536.355 18.7517 536.144 19.182 536.279 19.5771C536.413 19.9722 536.844 20.1832 537.239 20.0483Z" fill="#FDA425"/>
<path fill-rule="evenodd" clip-rule="evenodd" d="M554.383 70.1713C543.543 73.8726 530.989 65.5724 526.279 51.7794C521.569 37.9857 526.425 23.7408 537.265 20.0395C537.66 19.9046 537.871 19.4745 537.736 19.0794C537.601 18.6843 537.171 18.4731 536.776 18.608C525.251 22.5432 519.84 37.602 524.848 52.2683C529.855 66.9339 543.347 75.5389 554.872 71.6036C555.267 71.4687 555.478 71.0379 555.343 70.6428C555.208 70.2476 554.778 70.0364 554.383 70.1713Z" fill="#FDA425"/>
<path fill-rule="evenodd" clip-rule="evenodd" d="M576.561 66.5482L566.308 70.0492C565.913 70.184 565.482 69.9724 565.347 69.5778C565.212 69.1823 565.424 68.7522 565.819 68.6175L578.135 64.4121C578.218 64.3837 578.302 64.3708 578.385 64.3714C577.814 65.1312 577.205 65.8575 576.561 66.5482ZM584.142 50.4993C584.049 51.0738 583.943 51.6436 583.821 52.2076L573.975 55.5696C573.58 55.7046 573.15 55.4937 573.015 55.0981C572.88 54.7026 573.091 54.2729 573.486 54.1378L584.142 50.4993ZM584.593 45.4654C584.583 46.0094 584.559 46.5499 584.526 47.0869L573.504 50.8504C573.108 50.9855 572.679 50.7745 572.544 50.379C572.409 49.9844 572.62 49.5537 573.015 49.4187L584.593 45.4654ZM581.679 30.2343C581.872 30.6991 582.055 31.169 582.231 31.6447L572.399 35.0018C572.003 35.1369 571.574 34.9259 571.439 34.5304C571.304 34.1357 571.514 33.7051 571.91 33.57L581.679 30.2343ZM577.237 22.3406C577.547 22.7623 577.851 23.1922 578.145 23.6294L567.433 27.2868C567.039 27.4216 566.608 27.2109 566.473 26.8154C566.338 26.4208 566.55 25.9898 566.945 25.8551L577.237 22.3406ZM574.462 19.0167C574.836 19.4144 575.204 19.8214 575.563 20.2395L565.741 23.593C565.347 23.7278 564.916 23.5171 564.781 23.1216C564.646 22.7269 564.858 22.296 565.253 22.1612L574.462 19.0167ZM560.878 10.3787C561.649 10.6171 562.412 10.889 563.168 11.1954L551.839 15.0638C551.444 15.1985 551.013 14.9869 550.879 14.5923C550.744 14.1968 550.955 13.7667 551.35 13.632L560.878 10.3787Z" fill="#FFCD80"/>
<path fill-rule="evenodd" clip-rule="evenodd" d="M9.39558 87.8967C7.3894 86.5006 13.2112 74.6649 22.3884 61.484C31.5656 48.305 40.6453 38.7375 42.6515 40.1355C42.6618 40.1414 42.6718 40.1492 42.6816 40.157L52.6044 47.4896C54.6107 48.8857 48.7889 60.7214 39.6117 73.9023C30.4345 87.0813 21.3548 96.6488 19.3485 95.2508C19.3383 95.2449 19.3283 95.2371 19.3184 95.2293L9.39558 87.8967Z" fill="#FFCD80"/>
<path fill-rule="evenodd" clip-rule="evenodd" d="M41.4049 40.1758L41.4497 40.1582L41.4941 40.1426L41.5379 40.127L41.541 40.125L41.5811 40.1113H41.5852L41.6237 40.0976L41.6288 40.0957L41.6658 40.0839H41.6718L41.7072 40.0722L41.7141 40.0703L41.7483 40.0624L41.7559 40.0605L41.7886 40.0507L41.797 40.0488L41.8284 40.0429L41.8374 40.0409L41.8675 40.0331L41.8773 40.0311L41.9063 40.0253L41.9164 40.0233L41.9442 40.0194L41.9552 40.0175L41.9817 40.0136H41.9931L42.0185 40.0096L42.0304 40.0077L42.0549 40.0057H42.067L42.0905 40.0038L42.1032 40.0018H42.1255H42.1386L42.1601 39.9999H42.1734H42.1939L42.2074 40.0018H42.2271H42.2408L42.2598 40.0038L42.2737 40.0057L42.2919 40.0077L42.3059 40.0096L42.3233 40.0116L42.3374 40.0136L42.354 40.0155L42.3683 40.0194L42.3843 40.0214L42.3986 40.0253L42.4139 40.0292L42.4281 40.0331L42.4428 40.037L42.4712 40.0468L42.4987 40.0566L42.5259 40.0664L42.5523 40.0781L42.5652 40.0839L42.5781 40.0918L42.5906 40.0976L42.6031 40.1055L42.6155 40.1133L42.6276 40.1192L42.6397 40.127L42.6514 40.1367L43.5143 40.7742L43.5153 40.784C43.5928 41.5583 43.4267 42.6689 43.0073 44.0494C42.6473 45.2363 42.0991 46.6422 41.3836 48.226L50.9918 54.8311C50.7798 55.2907 50.5526 55.7677 50.3103 56.2605L40.7116 49.6612C40.5002 50.0992 40.2779 50.5489 40.0448 51.0084L49.3796 58.0907C49.141 58.5463 48.8921 59.0117 48.6326 59.4888L39.3139 52.4163C37.732 55.4021 35.7542 58.7536 33.4688 62.281L42.4444 69.7172C42.1587 70.1513 41.8689 70.5892 41.5746 71.0292L32.6067 63.5989C31.8668 64.7174 31.0969 65.8515 30.3007 66.9953C27.6207 70.8434 24.9329 74.3768 22.4123 77.4154L31.4882 84.6658L31.4982 84.6736C31.1613 85.0842 30.8277 85.4851 30.4978 85.8761L21.4229 78.6277C21.4172 78.6237 21.4115 78.6179 21.4061 78.614C20.8613 79.2534 20.3259 79.8673 19.8019 80.4539L28.714 87.9058C28.7206 87.9116 28.7271 87.9155 28.7333 87.9214C28.3776 88.3242 28.0282 88.7114 27.6858 89.0848L18.7497 81.6135C16.6374 83.9012 14.7395 85.6982 13.1901 86.8733C12.0404 87.7474 11.0562 88.2871 10.3023 88.4846C10.2735 88.4924 10.245 88.4982 10.2166 88.5061L9.39557 87.8979L9.38403 87.8901L9.37249 87.8823L9.36115 87.8725L9.35001 87.8647L9.33906 87.8549L9.3283 87.8451L9.31774 87.8354L9.30718 87.8256L9.28685 87.8041L9.2673 87.7826L9.24852 87.7611L9.23014 87.7376L9.22135 87.7239L9.21274 87.7122L9.20414 87.7005L9.19593 87.6868L9.18752 87.6731L9.17989 87.6614L9.17168 87.6477L9.16444 87.634L9.15643 87.6183L9.14978 87.6066L9.14196 87.589L9.1359 87.5773L9.12807 87.5597L9.1226 87.5479L9.11517 87.5284L9.10989 87.5167L9.10266 87.4971L9.09816 87.4854L9.09112 87.4639L9.08682 87.4521L9.08017 87.4306L9.07626 87.4189L9.06981 87.3954L9.06648 87.3837L9.06042 87.3602L9.05729 87.3485L9.05143 87.3231L9.04888 87.3133L9.04341 87.2859L9.04106 87.2761L9.03598 87.2488L9.03402 87.237L9.02914 87.2097L9.02757 87.1979L9.02307 87.1686L9.0219 87.1588L9.01779 87.1275L9.01682 87.1197L9.0131 87.0845L9.01232 87.0767L9.00919 87.0415L9.0086 87.0356L9.00606 86.9985L9.00547 86.9926L9.00352 86.9535L9.00313 86.9477L9.00157 86.9066L9.00137 86.9027L9.00039 86.8616V86.8577L9 86.8108L9.0002 86.7638L9.00117 86.715C9.02777 85.6767 9.32341 85.663 9.31696 86.277C9.31501 86.4686 9.3283 86.6387 9.36428 86.7815C9.38657 86.8714 9.40319 86.9516 9.46263 86.9926C9.52208 87.0337 9.60244 87.0219 9.69434 87.0122C9.84178 86.9946 10.005 86.9496 10.1847 86.8812C10.7571 86.6622 11.4483 86.232 12.2447 85.6278C16.2643 82.5775 22.6532 75.241 29.0168 66.1017C35.3807 56.9625 40.0448 48.4235 41.5105 43.5957C41.8011 42.6396 41.9639 41.8418 41.9704 41.2298C41.9724 41.0381 41.9591 40.868 41.9231 40.7233C41.9008 40.6334 41.8842 40.5552 41.8247 40.5141C41.7653 40.4711 41.6849 40.4848 41.593 40.4946C41.4454 40.5102 41.2823 40.5571 41.1026 40.6256C40.5303 40.8446 40.4409 40.561 41.4049 40.1758Z" fill="#FEA424"/>
<path fill-rule="evenodd" clip-rule="evenodd" d="M539.396 527.898C537.389 526.502 543.211 514.666 552.388 501.485C561.566 488.306 570.645 478.738 572.651 480.137C572.662 480.142 572.672 480.15 572.682 480.158L582.604 487.491C584.611 488.887 578.789 500.722 569.612 513.903C560.434 527.082 551.355 536.65 549.348 535.252C549.338 535.246 549.328 535.238 549.318 535.23L539.396 527.898Z" fill="#FFCD80"/>
<path fill-rule="evenodd" clip-rule="evenodd" d="M571.405 480.177L571.45 480.159L571.494 480.144L571.538 480.128L571.541 480.126L571.581 480.112H571.585L571.624 480.099L571.629 480.097L571.666 480.085H571.672L571.707 480.073L571.714 480.071L571.748 480.063L571.756 480.061L571.789 480.052L571.797 480.05L571.828 480.044L571.837 480.042L571.868 480.034L571.877 480.032L571.906 480.026L571.916 480.024L571.944 480.02L571.955 480.018L571.982 480.015H571.993L572.019 480.011L572.03 480.009L572.055 480.007H572.067L572.09 480.005L572.103 480.003H572.125H572.139L572.16 480.001H572.173H572.194L572.207 480.003H572.227H572.241L572.26 480.005L572.274 480.007L572.292 480.009L572.306 480.011L572.323 480.013L572.337 480.015L572.354 480.016L572.368 480.02L572.384 480.022L572.399 480.026L572.414 480.03L572.428 480.034L572.443 480.038L572.471 480.048L572.499 480.058L572.526 480.067L572.552 480.079L572.565 480.085L572.578 480.093L572.591 480.099L572.603 480.106L572.615 480.114L572.628 480.12L572.64 480.128L572.651 480.138L573.514 480.775L573.515 480.785C573.593 481.559 573.427 482.67 573.007 484.05C572.647 485.237 572.099 486.643 571.384 488.227L580.992 494.832C580.78 495.292 580.553 495.769 580.31 496.261L570.712 489.662C570.5 490.1 570.278 490.55 570.045 491.009L579.38 498.092C579.141 498.547 578.892 499.013 578.633 499.49L569.314 492.417C567.732 495.403 565.754 498.755 563.469 502.282L572.444 509.718C572.159 510.152 571.869 510.59 571.575 511.03L562.607 503.6C561.867 504.718 561.097 505.852 560.301 506.996C557.621 510.844 554.933 514.378 552.412 517.416L561.488 524.667L561.498 524.675C561.161 525.085 560.828 525.486 560.498 525.877L551.423 518.629C551.417 518.625 551.412 518.619 551.406 518.615C550.861 519.254 550.326 519.868 549.802 520.455L558.714 527.907C558.721 527.913 558.727 527.917 558.733 527.922C558.378 528.325 558.028 528.712 557.686 529.086L548.75 521.614C546.637 523.902 544.74 525.699 543.19 526.874C542.04 527.748 541.056 528.288 540.302 528.486C540.274 528.493 540.245 528.499 540.217 528.507L539.396 527.899L539.384 527.891L539.372 527.883L539.361 527.874L539.35 527.866L539.339 527.856L539.328 527.846L539.318 527.836L539.307 527.827L539.287 527.805L539.267 527.784L539.249 527.762L539.23 527.739L539.221 527.725L539.213 527.713L539.204 527.701L539.196 527.688L539.188 527.674L539.18 527.662L539.172 527.649L539.164 527.635L539.156 527.619L539.15 527.608L539.142 527.59L539.136 527.578L539.128 527.561L539.123 527.549L539.115 527.529L539.11 527.518L539.103 527.498L539.098 527.486L539.091 527.465L539.087 527.453L539.08 527.432L539.076 527.42L539.07 527.396L539.066 527.385L539.06 527.361L539.057 527.349L539.051 527.324L539.049 527.314L539.043 527.287L539.041 527.277L539.036 527.25L539.034 527.238L539.029 527.211L539.028 527.199L539.023 527.17L539.022 527.16L539.018 527.129L539.017 527.121L539.013 527.085L539.012 527.078L539.009 527.042L539.009 527.037L539.006 526.999L539.005 526.994L539.004 526.955L539.003 526.949L539.002 526.908L539.001 526.904L539 526.863V526.859L539 526.812L539 526.765L539.001 526.716C539.028 525.678 539.323 525.664 539.317 526.278C539.315 526.47 539.328 526.64 539.364 526.782C539.387 526.872 539.403 526.953 539.463 526.994C539.522 527.035 539.602 527.023 539.694 527.013C539.842 526.996 540.005 526.951 540.185 526.882C540.757 526.663 541.448 526.233 542.245 525.629C546.264 522.578 552.653 515.242 559.017 506.103C565.381 496.963 570.045 488.424 571.511 483.597C571.801 482.641 571.964 481.843 571.97 481.231C571.972 481.039 571.959 480.869 571.923 480.724C571.901 480.634 571.884 480.556 571.825 480.515C571.765 480.472 571.685 480.486 571.593 480.496C571.445 480.511 571.282 480.558 571.103 480.627C570.53 480.846 570.441 480.562 571.405 480.177Z" fill="#FEA424"/>
<g filter="url(#filter0_f_323_4014)">
<path fill-rule="evenodd" clip-rule="evenodd" d="M38.344 471.531C54.2725 466.187 75.4205 479.529 86.8757 502.78C98.522 526.422 95.9423 551.762 81.3712 560.757L81.4424 560.907L65.9489 568.954C65.4915 569.224 65.0228 569.479 64.5428 569.715C64.3403 569.813 64.1341 569.91 63.9316 570.004L63.3091 570.326L63.2867 570.285C47.2157 576.978 25.119 563.539 13.3114 539.575C1.1963 514.981 4.47725 488.554 20.6345 480.593C20.6345 480.593 34.6244 473.147 35.6443 472.644C36.4354 472.254 37.2416 471.917 38.0628 471.628L38.3253 471.493L38.344 471.531Z" fill="#FFCD80"/>
<path d="M76.4708 553.187C89.875 547.15 93.254 525.633 84.018 505.128C74.782 484.623 56.4285 472.895 43.0243 478.933C29.6201 484.971 26.2412 506.488 35.4772 526.992C44.7132 547.497 63.0666 559.225 76.4708 553.187Z" fill="#FEA424"/>
<path fill-rule="evenodd" clip-rule="evenodd" d="M45.4125 470.361L45.6412 470.358C43.4889 470.785 41.3929 471.482 39.3868 472.472C32.5962 475.817 27.8379 481.966 25.2807 489.616C21.3548 501.363 22.5922 516.602 29.6678 530.963C36.7433 545.328 48.071 555.598 59.7812 559.64C67.4004 562.273 75.1772 562.25 81.9678 558.905C83.9776 557.912 85.8074 556.678 87.4573 555.231L87.401 555.298L87.3485 555.369L87.296 555.437L87.206 555.549L87.1573 555.613L87.0936 555.688L87.0486 555.744L87.0373 555.759L86.9511 555.861L86.9023 555.921L86.8273 556.011L86.8011 556.044L86.7711 556.074L86.6923 556.172L86.6473 556.224L86.5461 556.341L86.5086 556.382L86.4261 556.476L86.3849 556.524L86.2799 556.641L86.2424 556.682L86.1562 556.776L86.1187 556.817L86.0099 556.937L85.9724 556.978L85.8787 557.076L85.8487 557.106L85.7362 557.226L85.6987 557.263L85.59 557.376L85.5787 557.391L85.5674 557.398L85.455 557.51L85.4175 557.548L85.3012 557.668L85.275 557.69L85.17 557.792L85.1363 557.825L85.0163 557.942L84.9863 557.972L84.8775 558.069L84.8513 558.099L84.7238 558.215L84.6938 558.242L84.5813 558.347L84.5588 558.365L84.4313 558.478L84.3976 558.508L84.2701 558.624L84.2626 558.628L84.1313 558.74L84.0976 558.77L83.9664 558.883L83.9476 558.898L83.8276 558.999L83.7939 559.022L83.6626 559.134L83.6327 559.153L83.5164 559.25L83.4902 559.273L83.3514 559.378L83.3214 559.404L83.1939 559.502L83.1789 559.513L83.0364 559.622L83.0064 559.644L82.864 559.749L82.7177 559.854L82.684 559.88L82.5415 559.981L82.5265 559.993L82.3953 560.087L82.3615 560.109L82.219 560.207L82.1928 560.225L82.0615 560.311L82.0353 560.33L81.8891 560.428L81.859 560.45L81.7241 560.536L81.7053 560.548L81.5553 560.641L81.5216 560.664L81.3716 560.758L81.4428 560.908L75.1847 564.159C72.6387 564.56 70.0252 564.627 67.3854 564.376C67.3742 564.384 67.3592 564.391 67.3442 564.399L53.6393 571.988C51.9782 571.932 50.2908 571.718 48.5922 571.354L62.6196 563.585C61.3448 563.285 60.0699 562.914 58.7987 562.475C54.3741 560.945 49.9946 558.583 45.8512 555.482L32.8662 563.821C32.0338 563.199 31.2051 562.543 30.3839 561.853L43.369 553.513C42.4053 552.703 41.4566 551.852 40.5267 550.964L27.2267 558.988C26.4993 558.279 25.7794 557.544 25.0744 556.787L38.3519 548.77C33.9761 544.136 30.0839 538.594 26.9792 532.29C26.2443 530.798 25.5694 529.298 24.9545 527.791L11.1745 534.84C10.7921 533.903 10.4283 532.965 10.0871 532.028L23.8746 524.975C21.7673 519.088 20.5561 513.171 20.1999 507.49L6.105 513.392C6.03751 512.312 6.00375 511.244 6 510.186L20.0874 504.284C20.0536 499.684 20.5936 495.274 21.6772 491.206L7.73233 497.209C8.12605 495.87 8.58723 494.58 9.11593 493.347L22.5659 487.557L22.7047 487.883C24.362 483.245 26.7843 479.143 29.9228 475.817C29.9228 475.817 34.2836 473.342 35.5172 472.709L35.6447 472.645C36.4358 472.255 37.242 471.917 38.0632 471.629L38.3257 471.494L38.3444 471.531L38.5132 471.475L38.5394 471.467L38.7044 471.415L38.7344 471.404L38.8994 471.355L38.9181 471.347L39.0794 471.299L39.1019 471.291L39.2668 471.246L39.2969 471.235L39.4618 471.19L39.4881 471.182L39.6531 471.137L39.6643 471.134L39.833 471.089L39.863 471.081L40.0318 471.04L40.058 471.032L40.2305 470.991H40.2343L40.4105 470.95L40.433 470.942L40.6017 470.905L40.6317 470.901L40.8042 470.864L40.8192 470.86L40.9917 470.822H41.0029L41.1791 470.785L41.2054 470.781L41.3816 470.747L41.4004 470.744L41.5804 470.71L41.7641 470.68L41.7829 470.676L41.9629 470.65L41.9816 470.646L42.1653 470.616L42.3528 470.59H42.364L42.544 470.564L42.5665 470.56L42.7465 470.538H42.7615L42.9453 470.515H42.949L43.1327 470.496L43.1552 470.493L43.3314 470.474L43.3577 470.47L43.5414 470.455L43.7177 470.44L43.7477 470.436L43.9202 470.425L43.9576 470.421L44.1264 470.41L44.1601 470.406L44.2688 470.403L44.4301 470.391L44.4901 470.388L44.6851 470.38H44.7076L44.9363 470.369L45.1688 470.365H45.1725L45.4012 470.361H45.4125Z" fill="#FEA424"/>
<path d="M54.0126 531.494C59.3561 533.471 64.5204 533.531 69.6399 531.79C75.6679 529.56 77.5238 526.174 75.4032 521.563C73.5677 517.84 70.4386 516.313 66.0158 516.98C63.9868 517.373 61.8273 517.812 59.4377 518.25C55.1148 518.964 51.2543 518.44 47.9561 516.725C44.5581 514.963 41.9912 512.245 40.1904 508.593C38.0432 504.238 37.6154 500.262 39.0374 496.618C40.3291 493.021 43.3869 490.363 48.1112 488.597C53.9824 486.671 59.8678 486.639 65.7329 488.43L64.9037 496.074C60.2365 494.847 55.7323 494.882 51.5254 496.298C49.3742 497.065 47.8259 498.277 46.9804 499.981C46.0698 501.71 46.1879 503.814 47.3002 506.225C48.0275 507.7 49.1724 508.778 50.8042 509.601C52.4359 510.423 54.5118 510.592 57.0359 510.271C58.3784 510.04 60.2771 509.694 62.6321 509.186C67.3116 508.262 71.337 508.809 74.7738 510.805C78.1107 512.754 80.6775 515.473 82.4437 519.055C86.9581 528.676 83.8717 535.472 73.3149 539.398C66.4699 541.836 59.3947 541.632 52.1892 538.832L54.0126 531.494Z" fill="#FFCD80"/>
<path fill-rule="evenodd" clip-rule="evenodd" d="M44.326 482.371L70.24 546.741L78.4846 544.322L51.3257 480.316L44.326 482.371Z" fill="#FFCD80"/>
</g>
<defs>
<filter id="filter0_f_323_4014" x="0" y="464.358" width="100.188" height="113.643" filterUnits="userSpaceOnUse" color-interpolation-filters="sRGB">
<feFlood flood-opacity="0" result="BackgroundImageFix"/>
<feBlend mode="normal" in="SourceGraphic" in2="BackgroundImageFix" result="shape"/>
<feGaussianBlur stdDeviation="3" result="effect1_foregroundBlur_323_4014"/>
</filter>
</defs>
</svg>
