<svg width="167" height="174" viewBox="0 0 167 174" fill="none" xmlns="http://www.w3.org/2000/svg">
<g filter="url(#filter0_f_323_4857)">
<path fill-rule="evenodd" clip-rule="evenodd" d="M55.4041 65.106H69.4728C93.6771 65.106 113.329 87.9243 113.329 116.03C113.329 141.962 96.6258 163.794 75.0269 166.953C73.2159 167.219 55.499 166.953 55.499 166.953C31.2946 166.953 11.6426 144.135 11.6426 116.03C11.6426 87.9608 31.2435 65.1644 55.4041 65.106Z" fill="#FDA425"/>
<path d="M55.4981 166.954C79.7188 166.954 99.3536 144.154 99.3536 116.03C99.3536 87.9053 79.7188 65.106 55.4981 65.106C31.2773 65.106 11.6426 87.9053 11.6426 116.03C11.6426 144.154 31.2773 166.954 55.4981 166.954Z" fill="#FFCD80"/>
<path fill-rule="evenodd" clip-rule="evenodd" d="M55.6074 85.7918L54.093 85.7075L54.1278 83.4479L56.7696 83.595C57.3953 83.6298 57.8923 84.1639 57.8827 84.7877L57.8238 88.6091C60.1346 88.8416 62.3475 89.3369 64.4596 90.0923C67.1584 91.0567 69.6963 92.4471 72.0704 94.2609C72.3396 94.4643 72.5073 94.7733 72.5355 95.1034C72.5606 95.4334 72.4438 95.7531 72.2104 95.9793L67.0387 100.992C66.6487 101.369 66.0341 101.398 65.5825 101.059C63.2408 99.3024 60.6081 98.1653 57.6847 97.645L57.4886 110.379C68.3617 113.299 73.5226 118.817 73.254 126.63C73.1251 130.876 71.4901 134.307 68.3672 136.915C65.5126 139.389 61.7323 140.875 57.0119 141.335L56.9108 147.901C56.9012 148.524 56.3886 149 55.7629 148.965L53.1695 148.821L53.2043 146.564L54.6703 146.645L54.7692 140.222C54.778 139.649 55.2116 139.193 55.7809 139.157C60.4233 138.855 64.1191 137.545 66.8663 135.166C69.5142 132.956 70.887 130.055 70.9967 126.466C71.2381 119.437 66.1751 114.835 56.1152 112.339C55.5848 112.206 55.2081 111.719 55.2164 111.178L55.4459 96.2785C55.4507 95.967 55.5852 95.6774 55.8153 95.4751C56.0452 95.2753 56.3522 95.1813 56.6632 95.2203C60.157 95.6346 63.3006 96.7954 66.0908 98.6975L69.6532 95.245C67.7973 93.9675 65.8403 92.9574 63.7764 92.2215C61.5229 91.4148 59.1494 90.9347 56.65 90.7739C56.0305 90.7346 55.5395 90.2023 55.549 89.5819L55.6074 85.7918ZM57.1526 132.197C58.8016 131.791 60.0124 131.158 60.7495 130.245C61.2093 129.654 61.5495 128.98 61.7698 128.224L63.9399 128.946C63.6368 129.968 63.172 130.88 62.5392 131.695C61.3303 133.191 59.2419 134.235 56.2185 134.707C55.8849 134.758 55.5386 134.657 55.2759 134.427C55.0162 134.197 54.8671 133.865 54.8723 133.525L54.9953 125.539L57.2532 125.665L57.1526 132.197ZM45.288 99.5596C45.6997 98.5605 46.2297 97.7395 46.8659 97.0911C46.8813 97.0751 46.8996 97.0592 46.915 97.0431C48.3476 95.7577 50.0373 95.0642 51.978 94.962C52.2959 94.9458 52.6148 95.0675 52.8503 95.2932C53.0858 95.5213 53.2171 95.8355 53.2121 96.1541L53.1114 102.694L50.8535 102.568L50.9329 97.4117C50.0278 97.6464 49.2133 98.0868 48.4863 98.7325C48.0344 99.2002 47.6683 99.7959 47.3729 100.512C47.3665 100.531 47.3572 100.549 47.3478 100.568C46.9946 101.307 46.8232 102.218 46.8068 103.288L44.5488 103.162C44.5706 101.745 44.8251 100.546 45.288 99.5596Z" fill="#FDA31F"/>
<path fill-rule="evenodd" clip-rule="evenodd" d="M46.1636 107.991C45.0708 106.66 44.5237 105.054 44.5528 103.164L46.8108 103.289C46.7908 104.586 47.1398 105.692 47.8912 106.604L47.9179 106.637C48.5051 107.404 49.4604 108.037 50.7649 108.583L50.8575 102.57L53.1155 102.695L52.9994 110.235C52.994 110.585 52.8257 110.906 52.5443 111.106C52.2659 111.303 51.9021 111.357 51.5649 111.249C48.9579 110.413 47.1751 109.297 46.1636 107.991Z" fill="#FDA31F"/>
<path fill-rule="evenodd" clip-rule="evenodd" d="M57.4049 120.238L57.3217 125.643L55.0638 125.517L55.1681 118.741C55.1732 118.41 55.3232 118.104 55.5774 117.903C55.8346 117.703 56.1685 117.627 56.4941 117.698C59.6388 118.388 61.727 119.521 62.8305 120.943L62.8541 120.978C63.9263 122.468 64.454 124.15 64.4251 126.028C64.4089 127.078 64.267 128.044 64.0084 128.924L61.8383 128.201C62.0457 127.503 62.1544 126.735 62.1672 125.903C62.188 124.553 61.8194 123.344 61.0554 122.272C60.3611 121.388 59.1338 120.735 57.4049 120.238Z" fill="#FDA31F"/>
<path fill-rule="evenodd" clip-rule="evenodd" d="M50.6821 118.547C40.2295 115.628 35.3265 110.262 35.6812 102.751C35.8417 98.22 37.3502 94.7546 40.1376 92.3245C42.6888 90.1011 46.3491 88.7416 51.1477 88.3128L51.2082 84.3852C51.2178 83.7614 51.7304 83.2835 52.3531 83.3181L54.2029 83.4211L54.1681 85.6806L53.4487 85.6406L53.3904 89.4307C53.3815 90.0052 52.9449 90.4641 52.3726 90.4975C47.6639 90.7839 44.0823 91.9424 41.6568 94.0569C39.2957 96.1169 38.0762 99.0813 37.9381 102.937C37.6197 109.665 42.434 114.113 52.0644 116.601C52.5887 116.737 52.9624 117.221 52.9541 117.757L52.7137 133.374C52.7087 133.692 52.5681 133.987 52.332 134.189C52.093 134.39 51.777 134.477 51.4601 134.43C48.638 134.007 46.2538 133.241 44.3102 132.15C42.5992 131.281 41.0724 130.237 39.7268 129.015L35.3453 132.419C37.4111 134.018 39.7072 135.397 42.2245 136.559C45.1628 137.882 48.2579 138.654 51.5126 138.879C52.1321 138.923 52.62 139.452 52.6105 140.07L52.5116 146.494L53.2794 146.537L53.2446 148.794L51.3464 148.688C50.7237 148.654 50.2267 148.121 50.2363 147.498L50.3358 141.038C47.2067 140.71 44.2181 139.901 41.3609 138.613C38.1677 137.14 35.3244 135.344 32.8189 133.226C32.5561 133.003 32.4009 132.673 32.4 132.333C32.3962 131.992 32.5493 131.674 32.8127 131.469L39.0558 126.619C39.4968 126.274 40.1434 126.327 40.5544 126.744C41.8979 128.101 43.4778 129.236 45.2849 130.15L45.3329 130.175C46.7725 130.987 48.4877 131.585 50.4753 131.978L50.6821 118.547Z" fill="#FDA31F"/>
<path fill-rule="evenodd" clip-rule="evenodd" d="M53.335 75.2352C71.0248 75.2352 85.2331 93.6327 85.2331 116.145C85.2331 138.656 71.0248 157.053 53.335 157.053C52.6902 157.053 52.166 157.577 52.166 158.221C52.166 158.866 52.6902 159.391 53.335 159.391C72.1444 159.391 87.5687 140.08 87.5687 116.145C87.5687 92.2086 72.1444 72.8989 53.335 72.8989C52.6902 72.8989 52.166 73.4222 52.166 74.0671C52.166 74.7119 52.6902 75.2352 53.335 75.2352Z" fill="#FDA425"/>
<path fill-rule="evenodd" clip-rule="evenodd" d="M53.3774 157.053C35.6864 157.053 21.4794 138.656 21.4794 116.145C21.4794 93.6327 35.6864 75.2352 53.3774 75.2352C54.0223 75.2352 54.5453 74.7119 54.5453 74.0671C54.5453 73.4222 54.0223 72.8989 53.3774 72.8989C34.568 72.8989 19.1426 92.2086 19.1426 116.145C19.1426 140.08 34.568 159.391 53.3774 159.391C54.0223 159.391 54.5453 158.866 54.5453 158.221C54.5453 157.577 54.0223 157.053 53.3774 157.053Z" fill="#FDA425"/>
<path fill-rule="evenodd" clip-rule="evenodd" d="M87.6026 162.826H70.8686C70.2245 162.826 69.7002 162.302 69.7002 161.657C69.7002 161.012 70.2245 160.489 70.8686 160.489H90.969C91.1048 160.489 91.2348 160.512 91.356 160.555C90.1409 161.38 88.8893 162.138 87.6026 162.826ZM106.694 143.152C106.27 143.945 105.831 144.725 105.372 145.489H89.3026C88.6571 145.489 88.1342 144.966 88.1342 144.32C88.1342 143.675 88.6571 143.152 89.3026 143.152H106.694ZM109.865 136.019C109.578 136.809 109.274 137.587 108.958 138.356H90.969C90.3235 138.356 89.8006 137.833 89.8006 137.187C89.8006 136.543 90.3235 136.019 90.969 136.019H109.865ZM113.208 112.302C113.257 113.078 113.291 113.856 113.31 114.639H97.2636C96.6181 114.639 96.0953 114.116 96.0953 113.471C96.0953 112.827 96.6181 112.302 97.2636 112.302H113.208ZM110.655 98.5477C110.897 99.3188 111.126 100.099 111.338 100.884H93.8563C93.2123 100.884 92.688 100.362 92.688 99.716C92.688 99.072 93.2123 98.5477 93.8563 98.5477H110.655ZM108.257 92.3042C108.606 93.0724 108.94 93.8508 109.256 94.6409H93.2269C92.5828 94.6409 92.0585 94.1181 92.0585 93.4725C92.0585 92.8285 92.5828 92.3042 93.2269 92.3042H108.257ZM92.7128 72.8989C93.7205 73.6321 94.7005 74.4105 95.6527 75.2357H77.1632C76.5191 75.2357 75.9948 74.7114 75.9948 74.0673C75.9948 73.4218 76.5191 72.8989 77.1632 72.8989H92.7128Z" fill="#FFCD80"/>
</g>
<path fill-rule="evenodd" clip-rule="evenodd" d="M62.493 29.2796C61.88 27.56 70.5574 22.8953 81.8582 18.8699C93.158 14.8458 102.83 12.9741 103.443 14.6949C103.446 14.703 103.449 14.712 103.451 14.721L106.298 23.4859C106.911 25.2056 98.2334 29.8703 86.9326 33.8957C75.6328 37.9198 65.9604 39.7915 65.3482 38.0706C65.3445 38.0626 65.3419 38.0536 65.3392 38.0445L62.493 29.2796Z" fill="#FFCD80"/>
<path fill-rule="evenodd" clip-rule="evenodd" d="M102.667 14.1781L102.702 14.1869L102.736 14.1966L102.769 14.2061L102.772 14.2063L102.803 14.2154L102.805 14.2172L102.834 14.2256L102.838 14.2266L102.866 14.2355L102.87 14.2382L102.896 14.2464L102.901 14.2482L102.925 14.2583L102.931 14.2604L102.955 14.2686L102.961 14.2711L102.983 14.2812L102.989 14.2839L103.011 14.2922L103.017 14.2953L103.037 14.3043L103.045 14.3075L103.063 14.3172L103.071 14.3208L103.088 14.33L103.095 14.3349L103.113 14.3435L103.121 14.3475L103.136 14.3569L103.144 14.3622L103.159 14.3712L103.167 14.3756L103.181 14.3852L103.189 14.3909L103.203 14.3991L103.211 14.4048L103.223 14.4138L103.231 14.4208L103.243 14.4294L103.251 14.4353L103.262 14.4447L103.269 14.452L103.279 14.461L103.287 14.4683L103.297 14.4771L103.305 14.4844L103.314 14.4928L103.321 14.5014L103.33 14.5095L103.337 14.5181L103.344 14.5271L103.351 14.5357L103.358 14.5444L103.371 14.5627L103.384 14.5806L103.396 14.5983L103.407 14.6169L103.412 14.6261L103.417 14.6365L103.422 14.6455L103.426 14.6556L103.43 14.6657L103.435 14.6746L103.439 14.6846L103.442 14.6956L103.69 15.4577L103.686 15.4641C103.397 15.9683 102.814 16.5711 101.959 17.2279C101.225 17.7929 100.281 18.4092 99.1589 19.0611L102.13 27.2473C101.801 27.4345 101.456 27.6258 101.095 27.82L98.1273 19.6415C97.8086 19.8159 97.4782 19.9926 97.137 20.1707L99.7347 28.5281C99.3918 28.7014 99.0385 28.8761 98.6736 29.0534L96.0815 20.7089C93.8237 21.8365 91.1664 23.0144 88.2458 24.1657L90.4714 32.5823C90.1093 32.722 89.743 32.8624 89.3732 33.002L87.1496 24.5923C86.2143 24.9507 85.254 25.3056 84.2734 25.655C80.9738 26.8299 77.8061 27.81 74.9548 28.5621L77.322 36.9093L77.3247 36.9184C76.9417 37.0217 76.5649 37.1204 76.1946 37.2148L73.8271 28.8692C73.8253 28.8644 73.8244 28.8583 73.8228 28.8536C73.2141 29.0056 72.6221 29.1463 72.049 29.2752L74.2292 37.6737C74.2307 37.6801 74.2329 37.6853 74.2342 37.6916C73.8431 37.7819 73.4626 37.8655 73.0924 37.9438L70.906 29.523C68.6289 29.996 66.6952 30.264 65.2434 30.3054C64.1651 30.3373 63.3327 30.2379 62.7887 30.0305C62.7679 30.0228 62.748 30.014 62.7273 30.0064L62.4924 29.2803L62.4888 29.2706L62.4852 29.2608L62.4826 29.2499L62.4792 29.2403L62.4768 29.2296L62.4745 29.219L62.4723 29.2085L62.4701 29.198L62.4671 29.1761L62.4646 29.1545L62.4625 29.1333L62.4615 29.111L62.4621 29.0989L62.462 29.0881L62.4619 29.0772L62.4628 29.0653L62.4636 29.0533L62.4641 29.0429L62.4651 29.031L62.4666 29.0195L62.4685 29.0066L62.4696 28.9965L62.4725 28.9825L62.4739 28.9727L62.4768 28.9586L62.4785 28.9491L62.4825 28.934L62.4844 28.9246L62.4885 28.9095L62.4908 28.9004L62.4959 28.8843L62.4984 28.8753L62.5037 28.8594L62.5064 28.8505L62.5127 28.8335L62.5157 28.8249L62.5222 28.808L62.5254 28.7995L62.5329 28.7815L62.5356 28.7745L62.5442 28.7555L62.547 28.7485L62.5558 28.7297L62.5597 28.7217L62.5686 28.7029L62.5728 28.6951L62.5828 28.6753L62.5863 28.6689L62.5974 28.6481L62.6002 28.6429L62.6132 28.6199L62.6161 28.6148L62.6295 28.5921L62.6317 28.5882L62.6463 28.5646L62.6485 28.5608L62.6643 28.5361L62.6666 28.5324L62.6835 28.5068L62.685 28.5043L62.7023 28.4789L62.704 28.4765L62.7241 28.4479L62.7446 28.4194L62.7664 28.3901C63.2335 27.7707 63.4191 27.8908 63.1485 28.2611C63.0641 28.3767 62.9983 28.4859 62.9582 28.5882C62.9327 28.6526 62.908 28.7085 62.9263 28.7593C62.9446 28.81 62.9985 28.8378 63.0586 28.8718C63.1559 28.9251 63.2746 28.9687 63.4135 29.0051C63.8564 29.1205 64.4633 29.1592 65.2097 29.1379C68.977 29.0296 76.0453 27.3453 83.8812 24.5545C91.7172 21.7638 98.2595 18.5997 101.247 16.3023C101.838 15.8474 102.284 15.4333 102.553 15.0641C102.638 14.9485 102.704 14.8394 102.745 14.7358C102.77 14.6715 102.794 14.6167 102.776 14.566C102.758 14.514 102.703 14.4874 102.643 14.4535C102.547 14.3989 102.427 14.3566 102.288 14.3201C101.846 14.2047 101.914 13.9936 102.667 14.1781Z" fill="#FEA424"/>
<path fill-rule="evenodd" clip-rule="evenodd" d="M142.598 81.3749C148.802 79.2937 157.039 84.49 161.501 93.5464C166.037 102.755 165.032 112.625 159.357 116.128L159.384 116.187L153.35 119.321C153.172 119.426 152.989 119.525 152.802 119.617C152.723 119.655 152.643 119.693 152.564 119.73L152.322 119.855L152.313 119.839C146.053 122.446 137.447 117.212 132.848 107.878C128.129 98.2988 129.407 88.0054 135.7 84.9048C135.7 84.9048 141.149 82.0043 141.546 81.8086C141.854 81.6567 142.168 81.5253 142.488 81.4128L142.591 81.3602L142.598 81.3749Z" fill="#FFCD80"/>
<path d="M157.448 113.18C162.669 110.828 163.985 102.447 160.388 94.4609C156.79 86.4744 149.642 81.9064 144.421 84.2581C139.2 86.6097 137.884 94.9905 141.481 102.977C145.079 110.963 152.227 115.531 157.448 113.18Z" fill="#FEA424"/>
<path fill-rule="evenodd" clip-rule="evenodd" d="M145.351 80.9194L145.44 80.918C144.602 81.0845 143.785 81.3561 143.004 81.7417C140.359 83.0444 138.506 85.4396 137.51 88.4189C135.981 92.9946 136.463 98.9299 139.218 104.524C141.974 110.119 146.386 114.119 150.948 115.693C153.915 116.718 156.944 116.71 159.589 115.407C160.372 115.02 161.085 114.539 161.727 113.976L161.705 114.002L161.685 114.03L161.664 114.056L161.629 114.1L161.61 114.125L161.586 114.154L161.568 114.176L161.564 114.182L161.53 114.221L161.511 114.244L161.482 114.279L161.472 114.293L161.46 114.304L161.429 114.342L161.412 114.363L161.372 114.408L161.358 114.424L161.326 114.461L161.31 114.48L161.269 114.525L161.254 114.541L161.22 114.577L161.206 114.593L161.163 114.64L161.149 114.656L161.112 114.694L161.101 114.706L161.057 114.753L161.042 114.767L161 114.811L160.996 114.817L160.991 114.82L160.947 114.864L160.933 114.878L160.887 114.925L160.877 114.934L160.836 114.973L160.823 114.986L160.776 115.032L160.765 115.043L160.722 115.081L160.712 115.093L160.663 115.138L160.651 115.148L160.607 115.189L160.598 115.197L160.549 115.24L160.535 115.252L160.486 115.297L160.483 115.299L160.432 115.343L160.419 115.354L160.368 115.398L160.36 115.404L160.313 115.443L160.3 115.452L160.249 115.496L160.238 115.503L160.192 115.541L160.182 115.55L160.128 115.591L160.116 115.601L160.067 115.639L160.061 115.644L160.005 115.686L159.994 115.695L159.938 115.736L159.881 115.776L159.868 115.787L159.813 115.826L159.807 115.83L159.756 115.867L159.742 115.876L159.687 115.914L159.677 115.921L159.626 115.955L159.615 115.962L159.558 116L159.547 116.009L159.494 116.042L159.487 116.047L159.428 116.083L159.415 116.092L159.357 116.128L159.385 116.187L156.947 117.453C155.955 117.609 154.937 117.636 153.909 117.538C153.905 117.541 153.899 117.544 153.893 117.547L148.555 120.502C147.908 120.481 147.251 120.397 146.589 120.256L152.053 117.23C151.557 117.113 151.06 116.968 150.565 116.797C148.841 116.201 147.136 115.281 145.522 114.074L140.464 117.322C140.14 117.079 139.817 116.824 139.497 116.555L144.555 113.307C144.18 112.991 143.81 112.66 143.448 112.314L138.268 115.439C137.984 115.163 137.704 114.877 137.429 114.582L142.601 111.459C140.897 109.654 139.381 107.496 138.171 105.041C137.885 104.459 137.622 103.875 137.383 103.288L132.015 106.034C131.866 105.669 131.725 105.303 131.592 104.938L136.962 102.191C136.141 99.8982 135.67 97.5936 135.531 95.381L130.041 97.6798C130.015 97.2591 130.001 96.8429 130 96.4311L135.487 94.1323C135.474 92.3403 135.684 90.6228 136.106 89.0382L130.675 91.3764C130.828 90.855 131.008 90.3526 131.214 89.8721L136.452 87.6171L136.506 87.7442C137.152 85.9376 138.095 84.3398 139.318 83.0444C139.318 83.0444 141.016 82.0805 141.497 81.8337L141.546 81.8089C141.855 81.657 142.169 81.5255 142.488 81.4131L142.591 81.3605L142.598 81.3751L142.664 81.3532L142.674 81.3503L142.738 81.3298L142.75 81.3254L142.814 81.3064L142.821 81.3035L142.884 81.2845L142.893 81.2816L142.957 81.2641L142.969 81.2597L143.033 81.2422L143.043 81.2393L143.108 81.2217L143.112 81.2203L143.178 81.2028L143.189 81.1998L143.255 81.1838L143.265 81.1808L143.333 81.1648H143.334L143.403 81.1487L143.411 81.1458L143.477 81.1312L143.489 81.1297L143.556 81.1151L143.562 81.1137L143.629 81.0991H143.633L143.702 81.0844L143.712 81.083L143.781 81.0698L143.788 81.0684L143.858 81.0552L143.93 81.0436L143.937 81.0421L144.007 81.0319L144.015 81.0304L144.086 81.0187L144.159 81.0085H144.164L144.234 80.9983L144.242 80.9968L144.313 80.9881H144.318L144.39 80.9793H144.391L144.463 80.972L144.472 80.9705L144.54 80.9632L144.551 80.9618L144.622 80.9559L144.691 80.9501L144.703 80.9486L144.77 80.9442L144.784 80.9428L144.85 80.9384L144.863 80.937L144.906 80.9355L144.968 80.9311L144.992 80.9296L145.068 80.9267H145.076L145.166 80.9223L145.256 80.9209H145.258L145.347 80.9194H145.351Z" fill="#FEA424"/>
<path d="M148.701 104.73C150.782 105.5 152.794 105.524 154.788 104.845C157.136 103.977 157.859 102.658 157.033 100.862C156.318 99.4123 155.099 98.8173 153.376 99.0772C152.586 99.2301 151.745 99.4011 150.814 99.5718C149.13 99.85 147.627 99.646 146.342 98.978C145.019 98.2917 144.019 97.2328 143.317 95.8104C142.481 94.1144 142.315 92.5658 142.868 91.1464C143.371 89.7452 144.562 88.7099 146.403 88.0223C148.689 87.272 150.982 87.2594 153.266 87.9572L152.943 90.9344C151.125 90.4564 149.371 90.4703 147.732 91.0218C146.894 91.3202 146.291 91.7923 145.962 92.4564C145.607 93.1294 145.653 93.9492 146.087 94.8883C146.37 95.4627 146.816 95.8827 147.451 96.203C148.087 96.5233 148.896 96.5891 149.879 96.464C150.402 96.3742 151.141 96.2394 152.058 96.0413C153.881 95.6815 155.449 95.8948 156.787 96.6722C158.087 97.4313 159.087 98.4902 159.775 99.8852C161.533 103.633 160.331 106.28 156.219 107.809C153.553 108.759 150.797 108.679 147.991 107.588L148.701 104.73Z" fill="#FFCD80"/>
<path fill-rule="evenodd" clip-rule="evenodd" d="M144.928 85.597L155.021 110.669L158.233 109.727L147.654 84.7968L144.928 85.597Z" fill="#FFCD80"/>
<defs>
<filter id="filter0_f_323_4857" x="5.64258" y="59.106" width="113.687" height="113.965" filterUnits="userSpaceOnUse" color-interpolation-filters="sRGB">
<feFlood flood-opacity="0" result="BackgroundImageFix"/>
<feBlend mode="normal" in="SourceGraphic" in2="BackgroundImageFix" result="shape"/>
<feGaussianBlur stdDeviation="3" result="effect1_foregroundBlur_323_4857"/>
</filter>
</defs>
</svg>