<svg width="184" height="210" viewBox="0 0 184 210" fill="none" xmlns="http://www.w3.org/2000/svg">
<g filter="url(#filter0_f_323_4891)">
<path fill-rule="evenodd" clip-rule="evenodd" d="M118.561 148.947L124.104 144.061C133.641 135.655 149.309 137.82 159.07 148.894C168.076 159.111 169.077 173.514 161.664 182.26C161.043 182.994 153.97 189.043 153.97 189.043C144.433 197.449 128.765 195.284 119.004 184.21C109.256 173.151 109.062 157.361 118.561 148.947Z" fill="#FDA425"/>
<path d="M153.97 189.043C163.513 180.631 163.331 164.829 153.563 153.747C143.796 142.666 128.141 140.502 118.598 148.914C109.055 157.326 109.237 173.129 119.004 184.21C128.772 195.291 144.427 197.455 153.97 189.043Z" fill="#FFCD80"/>
<path fill-rule="evenodd" clip-rule="evenodd" d="M125.825 157.027L125.199 157.52L124.428 156.617L125.52 155.758C125.779 155.554 126.16 155.592 126.373 155.841L127.677 157.367C128.668 156.656 129.712 156.083 130.807 155.647C132.205 155.09 133.688 154.756 135.253 154.646C135.43 154.633 135.603 154.696 135.729 154.817C135.854 154.938 135.919 155.105 135.905 155.275L135.609 159.046C135.586 159.33 135.354 159.555 135.058 159.578C133.525 159.699 132.093 160.166 130.76 160.976L135.106 166.061C140.404 163.435 144.354 163.817 146.962 166.989C148.385 168.706 148.933 170.626 148.608 172.738C148.343 174.705 147.369 176.603 145.669 178.424L147.91 181.046C148.122 181.295 148.086 181.66 147.827 181.864L146.755 182.708L145.985 181.806L146.591 181.329L144.399 178.764C144.203 178.535 144.216 178.205 144.428 177.993C146.152 176.262 147.153 174.462 147.409 172.571C147.685 170.78 147.218 169.161 146.015 167.708C143.669 164.855 140.076 164.8 135.245 167.311C134.99 167.442 134.673 167.381 134.488 167.165L129.404 161.215C129.297 161.091 129.25 160.93 129.27 160.77C129.291 160.612 129.38 160.468 129.516 160.375C131.036 159.325 132.678 158.691 134.438 158.471L134.643 155.874C133.468 156.015 132.346 156.296 131.277 156.723C130.109 157.188 129.007 157.823 127.966 158.628C127.709 158.828 127.33 158.788 127.119 158.541L125.825 157.027ZM142.551 174.775C143.06 174.042 143.317 173.372 143.29 172.756C143.266 172.364 143.166 171.98 142.99 171.605L144.096 171.136C144.332 171.644 144.465 172.165 144.499 172.706C144.542 173.715 144.082 174.852 143.054 176.088C142.941 176.224 142.769 176.304 142.586 176.305C142.404 176.305 142.23 176.226 142.114 176.09L139.389 172.9L140.322 172.166L142.551 174.775ZM126.541 166.036C126.356 165.499 126.28 164.991 126.305 164.515C126.306 164.503 126.308 164.491 126.308 164.479C126.426 163.475 126.851 162.615 127.58 161.901C127.7 161.784 127.868 161.721 128.039 161.728C128.211 161.736 128.372 161.815 128.48 161.942L130.712 164.553L129.779 165.288L128.019 163.229C127.744 163.636 127.576 164.092 127.514 164.599C127.498 164.94 127.561 165.302 127.693 165.687C127.697 165.696 127.7 165.707 127.703 165.718C127.82 166.132 128.069 166.55 128.434 166.977L127.501 167.712C127.017 167.146 126.701 166.585 126.541 166.036Z" fill="#FDA31F"/>
<path fill-rule="evenodd" clip-rule="evenodd" d="M129.815 169.054C128.922 168.908 128.149 168.466 127.504 167.711L128.437 166.976C128.879 167.494 129.401 167.809 130.014 167.907L130.036 167.911C130.534 168.009 131.13 167.927 131.834 167.689L129.782 165.287L130.715 164.553L133.288 167.563C133.407 167.703 133.452 167.888 133.411 168.065C133.37 168.239 133.245 168.387 133.075 168.461C131.757 169.037 130.667 169.217 129.815 169.054Z" fill="#FDA31F"/>
<path fill-rule="evenodd" clip-rule="evenodd" d="M138.498 169.975L140.342 172.133L139.409 172.868L137.096 170.162C136.984 170.03 136.937 169.857 136.967 169.69C136.999 169.521 137.104 169.375 137.257 169.29C138.735 168.47 139.952 168.191 140.88 168.368L140.902 168.374C141.842 168.589 142.634 169.068 143.275 169.818C143.633 170.237 143.913 170.667 144.116 171.104L143.01 171.573C142.849 171.225 142.626 170.885 142.342 170.553C141.881 170.014 141.316 169.665 140.643 169.508C140.062 169.401 139.352 169.57 138.498 169.975Z" fill="#FDA31F"/>
<path fill-rule="evenodd" clip-rule="evenodd" d="M135.261 171.643C130.129 174.124 126.334 173.712 123.865 170.629C122.354 168.788 121.745 166.899 122 164.974C122.233 163.211 123.203 161.405 124.944 159.569L123.604 158C123.391 157.751 123.427 157.385 123.685 157.182L124.449 156.581L125.22 157.483L124.923 157.717L126.216 159.231C126.412 159.46 126.4 159.792 126.186 160.004C124.43 161.753 123.421 163.453 123.2 165.128C122.985 166.76 123.534 168.352 124.819 169.919C127.03 172.68 130.472 172.761 135.13 170.396C135.384 170.268 135.699 170.329 135.882 170.543L141.211 176.78C141.32 176.907 141.367 177.072 141.344 177.233C141.32 177.396 141.225 177.539 141.084 177.631C139.825 178.445 138.62 178.971 137.475 179.216C136.499 179.468 135.535 179.587 134.58 179.572L134.036 182.436C135.406 182.348 136.789 182.094 138.185 181.678C139.802 181.178 141.289 180.407 142.65 179.366C142.909 179.168 143.285 179.207 143.496 179.454L145.688 182.019L146.006 181.769L146.776 182.671L145.991 183.289C145.734 183.491 145.353 183.454 145.141 183.205L142.936 180.625C141.589 181.582 140.131 182.302 138.558 182.787C136.788 183.315 135.044 183.595 133.321 183.631C133.14 183.634 132.965 183.558 132.846 183.424C132.726 183.291 132.676 183.113 132.708 182.941L133.484 178.862C133.538 178.572 133.811 178.369 134.118 178.39C135.119 178.459 136.135 178.357 137.165 178.09L137.192 178.082C138.041 177.903 138.925 177.542 139.845 177.007L135.261 171.643Z" fill="#FDA31F"/>
<path fill-rule="evenodd" clip-rule="evenodd" d="M121.263 153.657C128.233 147.513 140.221 149.827 148.039 158.697C155.858 167.567 156.649 179.75 149.679 185.894C149.425 186.118 149.4 186.506 149.624 186.76C149.848 187.014 150.237 187.039 150.491 186.815C157.902 180.282 157.272 167.316 148.96 157.886C140.647 148.455 127.863 146.204 120.452 152.736C120.198 152.96 120.173 153.348 120.397 153.602C120.621 153.856 121.009 153.881 121.263 153.657Z" fill="#FDA425"/>
<path fill-rule="evenodd" clip-rule="evenodd" d="M149.696 185.878C142.726 192.023 130.739 189.708 122.921 180.839C115.102 171.969 114.31 159.786 121.281 153.641C121.535 153.417 121.559 153.03 121.335 152.776C121.111 152.522 120.723 152.497 120.469 152.721C113.058 159.254 113.687 172.219 122 181.65C130.313 191.081 143.097 193.332 150.508 186.799C150.762 186.576 150.786 186.187 150.562 185.933C150.338 185.679 149.951 185.654 149.696 185.878Z" fill="#FDA425"/>
<path fill-rule="evenodd" clip-rule="evenodd" d="M165.186 176.267L158.593 182.078C158.339 182.302 157.95 182.278 157.727 182.024C157.502 181.77 157.527 181.381 157.781 181.158L165.701 174.177C165.754 174.13 165.814 174.094 165.876 174.068C165.684 174.815 165.454 175.549 165.186 176.267ZM165.875 161.884C165.984 162.344 166.082 162.804 166.166 163.264L159.835 168.845C159.58 169.069 159.193 169.045 158.969 168.791C158.744 168.536 158.769 168.149 159.023 167.924L165.875 161.884ZM164.647 157.973C164.809 158.384 164.96 158.796 165.102 159.208L158.014 165.456C157.76 165.68 157.372 165.656 157.148 165.401C156.924 165.148 156.948 164.759 157.202 164.535L164.647 157.973ZM157.728 147.467C158.017 147.756 158.3 148.051 158.579 148.352L152.257 153.925C152.003 154.15 151.615 154.125 151.391 153.871C151.167 153.617 151.191 153.229 151.446 153.005L157.728 147.467ZM151.945 142.934C152.308 143.154 152.669 143.382 153.026 143.618L146.138 149.689C145.884 149.913 145.496 149.889 145.271 149.635C145.048 149.381 145.072 148.992 145.326 148.769L151.945 142.934ZM148.831 141.307C149.236 141.489 149.638 141.679 150.037 141.881L143.721 147.448C143.467 147.672 143.079 147.648 142.855 147.393C142.631 147.14 142.656 146.751 142.91 146.527L148.831 141.307ZM135.968 139.06C136.619 138.999 137.276 138.965 137.937 138.96L130.652 145.381C130.399 145.605 130.01 145.58 129.786 145.326C129.562 145.072 129.587 144.684 129.841 144.46L135.968 139.06Z" fill="#FFCD80"/>
</g>
<path fill-rule="evenodd" clip-rule="evenodd" d="M23.6601 98.3653C21.8449 98.5591 19.3387 89.0314 18.0678 77.1027C16.7978 65.1751 17.2399 55.3332 19.0562 55.1405C19.0649 55.1387 19.0743 55.1383 19.0837 55.1379L28.2711 54.4203C30.0865 54.2264 32.5926 63.7541 33.8636 75.6828C35.1336 87.6104 34.6914 97.4522 32.8751 97.6451C32.8665 97.6467 32.857 97.6472 32.8476 97.6477L23.6601 98.3653Z" fill="#FFCD80"/>
<path fill-rule="evenodd" clip-rule="evenodd" d="M18.3724 55.7732L18.3891 55.7414L18.4065 55.7108L18.4236 55.6805L18.4244 55.6779L18.4403 55.6506L18.4426 55.6486L18.4576 55.622L18.4596 55.6184L18.4747 55.5937L18.4781 55.5907L18.4923 55.5668L18.4952 55.5623L18.5107 55.5412L18.5141 55.5363L18.5277 55.5149L18.5315 55.5096L18.5464 55.4909L18.5505 55.4854L18.5637 55.4663L18.5682 55.4604L18.5817 55.4429L18.5865 55.4368L18.6002 55.421L18.6054 55.4146L18.6185 55.3994L18.6249 55.3938L18.6374 55.3792L18.6431 55.3722L18.656 55.3592L18.6628 55.3532L18.6751 55.3406L18.6813 55.3333L18.6939 55.3224L18.7013 55.316L18.7125 55.3044L18.72 55.2979L18.7316 55.2878L18.7401 55.2823L18.7513 55.2727L18.759 55.266L18.7707 55.2578L18.7794 55.2521L18.7907 55.2443L18.7996 55.2385L18.8103 55.2311L18.8192 55.2253L18.8296 55.2183L18.8396 55.2135L18.8496 55.2068L18.8595 55.202L18.87 55.1967L18.88 55.192L18.8902 55.187L18.911 55.1786L18.9313 55.1707L18.9515 55.1629L18.9721 55.1566L18.9822 55.1536L18.9934 55.1517L19.0033 55.1489L19.0142 55.1471L19.025 55.1455L19.0347 55.1429L19.0453 55.1414L19.0567 55.1412L19.8556 55.0787L19.8609 55.0837C20.2835 55.4828 20.7333 56.1907 21.1721 57.175C21.5497 58.0209 21.9283 59.0825 22.2995 60.3264L30.9535 59.3523C31.0587 59.7153 31.164 60.0957 31.2684 60.4923L22.6226 61.4651C22.7176 61.8157 22.8122 62.1783 22.9055 62.5517L31.6387 61.9805C31.727 62.3543 31.8143 62.7387 31.9013 63.1349L23.182 63.7038C23.7503 66.1627 24.2741 69.0218 24.7105 72.1306L33.4142 71.935C33.4654 72.3197 33.5162 72.7087 33.5654 73.1009L24.8689 73.2962C24.9986 74.2894 25.1192 75.306 25.2296 76.3411C25.6002 79.824 25.8124 83.1331 25.8768 86.0812L34.5462 85.7316L34.5556 85.7312C34.5664 86.1277 34.5743 86.5172 34.5796 86.8993L25.9117 87.2495C25.9066 87.25 25.9005 87.2495 25.8955 87.25C25.901 87.8773 25.8993 88.4858 25.8906 89.0732L34.5661 88.9175C34.5727 88.9175 34.5782 88.9166 34.5846 88.9168C34.581 89.3182 34.5733 89.7076 34.5628 90.0859L25.8642 90.2424C25.7916 92.567 25.6 94.5097 25.3006 95.931C25.0795 96.9868 24.7882 97.7729 24.4594 98.2533C24.447 98.2718 24.4338 98.2891 24.4216 98.3074L23.6607 98.366L23.6504 98.3672L23.64 98.3684L23.6289 98.3684L23.6187 98.3695L23.6078 98.3693L23.5969 98.3691L23.5862 98.3687L23.5754 98.3684L23.5534 98.3662L23.5319 98.3636L23.5108 98.3607L23.4889 98.3564L23.4772 98.353L23.4667 98.3506L23.4561 98.3482L23.4447 98.3445L23.4333 98.3409L23.4232 98.338L23.4119 98.3343L23.4011 98.3301L23.3889 98.3252L23.3795 98.3218L23.3664 98.3157L23.3573 98.3121L23.3442 98.306L23.3354 98.302L23.3217 98.2946L23.3129 98.2906L23.2993 98.2831L23.291 98.2787L23.2765 98.27L23.2683 98.2655L23.2541 98.2566L23.2461 98.2519L23.231 98.2418L23.2234 98.2368L23.2085 98.2265L23.201 98.2214L23.1852 98.2099L23.179 98.2057L23.1625 98.1929L23.1564 98.1885L23.1401 98.1756L23.1333 98.1699L23.1171 98.1569L23.1105 98.151L23.0936 98.1367L23.0882 98.1317L23.0706 98.1161L23.0662 98.1121L23.0469 98.0941L23.0426 98.0901L23.0236 98.0717L23.0204 98.0687L23.0008 98.049L22.9976 98.046L22.9774 98.0248L22.9743 98.0217L22.9533 97.9993L22.9513 97.9972L22.9306 97.9745L22.9287 97.9723L22.9055 97.946L22.8827 97.9194L22.8593 97.8914C22.3662 97.2924 22.5264 97.1401 22.8232 97.4897C22.9158 97.5988 23.0066 97.6883 23.0967 97.7512C23.1533 97.7911 23.2019 97.8282 23.2556 97.8223C23.3092 97.8163 23.3488 97.7704 23.3959 97.7199C23.4705 97.6378 23.5406 97.5326 23.6085 97.406C23.8243 97.0024 24.0039 96.4214 24.1577 95.6908C24.9334 92.0026 24.9488 84.7363 24.0678 76.4651C23.187 68.1938 21.6406 61.0929 20.1054 57.6514C19.8015 56.9696 19.5031 56.4398 19.2073 56.0912C19.1146 55.9821 19.0239 55.8927 18.9327 55.8286C18.8762 55.7888 18.8285 55.7528 18.7749 55.7587C18.7203 55.7635 18.6816 55.8105 18.6345 55.861C18.5589 55.9421 18.4898 56.0483 18.4219 56.1749C18.2061 56.5785 18.0169 56.4623 18.3724 55.7732Z" fill="#FEA424"/>
<path fill-rule="evenodd" clip-rule="evenodd" d="M86.9643 21.8765C102.626 11.4929 129.335 19.7843 148.442 41.5882C167.868 63.758 172.416 91.8812 159.278 105.817L159.399 105.959L144.99 119.137C144.574 119.561 144.141 119.973 143.691 120.367C143.5 120.531 143.306 120.696 143.114 120.856L142.535 121.384L142.499 121.346C127.074 133.229 99.3114 125.107 79.6178 102.636C59.4097 79.5725 55.304 50.0716 70.4552 36.7942C70.4552 36.7942 83.4136 24.6992 84.37 23.8612C85.1118 23.2108 85.8851 22.6128 86.6887 22.0632L86.9332 21.8414L86.9643 21.8765Z" fill="#FFCD80"/>
<path d="M151.795 99.0576C164.528 88.6545 161.95 64.4304 146.036 44.9516C130.122 25.4728 106.899 18.1154 94.1655 28.5185C81.4319 38.9216 84.0102 63.1457 99.9241 82.6245C115.838 102.103 139.061 109.461 151.795 99.0576Z" fill="#FEA424"/>
<path fill-rule="evenodd" clip-rule="evenodd" d="M94.2623 18.567L94.5083 18.4968C92.3068 19.5816 90.2443 20.9418 88.3635 22.592C81.9955 28.1712 78.635 36.1923 78.0865 45.1965C77.2459 59.0246 82.994 75.1295 94.7954 88.5964C106.598 102.067 121.809 109.884 135.63 110.861C144.624 111.499 153.019 109.223 159.387 103.644C161.271 101.989 162.89 100.126 164.254 98.0852L164.213 98.1744L164.176 98.2666L164.139 98.3547L164.075 98.5023L164.04 98.5852L163.993 98.6847L163.961 98.7585L163.953 98.7779L163.889 98.9123L163.854 98.9912L163.799 99.1101L163.78 99.1542L163.757 99.1953L163.7 99.3234L163.666 99.3932L163.591 99.548L163.562 99.6034L163.5 99.7286L163.47 99.7932L163.39 99.9492L163.361 100.005L163.295 100.131L163.267 100.186L163.184 100.347L163.155 100.403L163.082 100.535L163.059 100.576L162.972 100.739L162.942 100.79L162.857 100.943L162.849 100.962L162.839 100.974L162.751 101.128L162.721 101.179L162.63 101.342L162.608 101.374L162.524 101.514L162.497 101.56L162.401 101.721L162.378 101.762L162.288 101.899L162.269 101.939L162.165 102.101L162.14 102.138L162.049 102.284L162.03 102.311L161.925 102.469L161.897 102.511L161.793 102.674L161.786 102.68L161.677 102.84L161.649 102.882L161.54 103.041L161.524 103.063L161.423 103.207L161.393 103.241L161.284 103.401L161.257 103.43L161.16 103.569L161.138 103.601L161.018 103.754L160.994 103.791L160.884 103.933L160.871 103.95L160.749 104.109L160.723 104.142L160.599 104.296L160.472 104.452L160.443 104.49L160.318 104.641L160.305 104.657L160.191 104.797L160.161 104.831L160.035 104.977L160.012 105.005L159.895 105.136L159.872 105.164L159.743 105.312L159.717 105.345L159.596 105.477L159.579 105.495L159.444 105.639L159.414 105.673L159.279 105.818L159.399 105.959L153.579 111.283C150.945 112.454 148.141 113.283 145.216 113.776C145.206 113.787 145.192 113.8 145.178 113.812L132.569 125.979C130.758 126.399 128.873 126.656 126.933 126.755L139.839 114.301C138.374 114.346 136.89 114.314 135.389 114.208C130.166 113.836 124.751 112.551 119.377 110.401L107.763 123.169C106.683 122.737 105.598 122.268 104.511 121.761L116.125 108.993C114.85 108.397 113.579 107.752 112.317 107.061L100.271 119.58C99.2798 119.025 98.2893 118.439 97.3085 117.825L109.332 105.32C103.263 101.58 97.4539 96.7196 92.2751 90.8087C91.0491 89.4091 89.8858 87.9841 88.7851 86.5337L75.9385 98.1385C75.2539 97.2365 74.5896 96.329 73.9496 95.4151L86.8032 83.804C82.8224 78.054 79.8011 72.0122 77.7718 65.9781L64.2528 76.4345C63.8673 75.2874 63.5214 74.1427 63.2113 73.0014L76.7222 62.5472C75.3539 57.5864 74.6607 52.6662 74.6538 47.9572L61.3261 58.4796C61.3639 56.9194 61.4888 55.3924 61.7028 53.9065L74.5577 43.7584L74.8021 44.0706C75.2499 38.5798 76.6793 33.4469 79.1072 28.9452C79.1072 28.9452 83.102 25.0091 84.2513 23.9674L84.3706 23.8617C85.1125 23.2113 85.8857 22.6133 86.6893 22.0637L86.9338 21.8419L86.9649 21.877L87.1309 21.7674L87.1571 21.7517L87.3202 21.6472L87.3493 21.6264L87.5134 21.5259L87.5315 21.5124L87.6916 21.4131L87.7138 21.3985L87.879 21.3021L87.9081 21.2813L88.0733 21.1849L88.0995 21.1692L88.2647 21.0728L88.2758 21.0655L88.4451 20.9681L88.4753 20.9513L88.6457 20.8579L88.6718 20.8422L88.8463 20.7477L88.8503 20.7466L89.0288 20.651L89.0509 20.6364L89.2223 20.5471L89.2536 20.5343L89.4291 20.4439L89.4443 20.4355L89.6197 20.3451L89.6319 20.3418L89.8114 20.2502L89.8387 20.2386L90.0193 20.1511L90.0385 20.1416L90.2232 20.0531L90.413 19.9675L90.4322 19.958L90.619 19.8775L90.6382 19.8681L90.828 19.7825L91.0229 19.6999L91.0351 19.6966L91.2219 19.6161L91.2452 19.6056L91.4331 19.5292L91.4493 19.5248L91.6413 19.4473L91.6454 19.4462L91.8384 19.3728L91.8616 19.3623L92.0466 19.291L92.0739 19.2793L92.268 19.2099L92.4541 19.1427L92.4854 19.13L92.6685 19.0679L92.7079 19.053L92.887 18.992L92.9223 18.9782L93.0387 18.9427L93.2096 18.8838L93.2734 18.8624L93.4819 18.7979L93.5062 18.7913L93.75 18.713L94.0001 18.6416L94.0041 18.6405L94.2501 18.5703L94.2623 18.567Z" fill="#FEA424"/>
<path d="M121.251 82.123C127.596 82.7122 133.193 81.2815 138.22 77.9185C144.087 73.7644 145.112 69.5693 141.486 65.2012C138.425 61.7112 134.602 60.9668 130.017 62.9679C127.939 63.9793 125.733 65.0787 123.278 66.2441C118.815 68.2671 114.492 68.8186 110.433 67.9206C106.251 67.0007 102.691 64.8067 99.6886 61.3826C96.1085 57.2999 94.4953 53.1283 94.9767 48.7798C95.3307 44.5191 97.8648 40.7623 102.458 37.4875C108.243 33.7068 114.592 31.9682 121.447 32.2057L122.764 40.7038C117.366 40.7289 112.511 42.0714 108.376 44.8189C106.273 46.2696 104.951 48.0272 104.532 50.1138C104.048 52.2443 104.785 54.4838 106.684 56.7667C107.897 58.1495 109.446 58.9831 111.447 59.3992C113.448 59.8153 115.74 59.3967 118.374 58.319C119.757 57.6814 121.708 56.7579 124.105 55.5266C128.893 53.174 133.401 52.6004 137.692 53.7618C141.861 54.9013 145.421 57.0953 148.366 60.4536C156.028 69.5409 154.661 77.7771 144.392 85.0741C137.703 89.6899 130 91.5171 121.405 90.5778L121.251 82.123Z" fill="#FFCD80"/>
<path fill-rule="evenodd" clip-rule="evenodd" d="M96.5667 31.8566L143.197 93.898L151.404 88.8976L103.534 27.611L96.5667 31.8566Z" fill="#FFCD80"/>
<defs>
<filter id="filter0_f_323_4891" x="107.558" y="134.938" width="63.04" height="63.2334" filterUnits="userSpaceOnUse" color-interpolation-filters="sRGB">
<feFlood flood-opacity="0" result="BackgroundImageFix"/>
<feBlend mode="normal" in="SourceGraphic" in2="BackgroundImageFix" result="shape"/>
<feGaussianBlur stdDeviation="2" result="effect1_foregroundBlur_323_4891"/>
</filter>
</defs>
</svg>