<svg width="180" height="20" viewBox="0 0 180 20" fill="none" xmlns="http://www.w3.org/2000/svg">
<path fill-rule="evenodd" clip-rule="evenodd" d="M5 9V7C5 4.23858 7.23858 2 10 2C12.7614 2 15 4.23858 15 7V9C16.1046 9 17 9.89543 17 11V16C17 17.1046 16.1046 18 15 18H5C3.89543 18 3 17.1046 3 16V11C3 9.89543 3.89543 9 5 9ZM13 7V9H7V7C7 5.34315 8.34315 4 10 4C11.6569 4 13 5.34315 13 7Z" fill="black"/>
<path fill-rule="evenodd" clip-rule="evenodd" d="M39 2C37.8954 2 37 2.89543 37 4V16C37 17.1046 37.8954 18 39 18H45C46.1046 18 47 17.1046 47 16V4C47 2.89543 46.1046 2 45 2H39ZM42 16C42.5523 16 43 15.5523 43 15C43 14.4477 42.5523 14 42 14C41.4477 14 41 14.4477 41 15C41 15.5523 41.4477 16 42 16Z" fill="black"/>
<path fill-rule="evenodd" clip-rule="evenodd" d="M74.709 10.293C74.514 10.098 74.258 10 74.002 10C73.746 10 73.49 10.098 73.295 10.293L71.295 12.293C71.08 12.508 70.979 12.803 71.006 13.096C71.016 13.194 71.039 13.289 71.078 13.383C71.232 13.756 71.598 14 72.002 14H73V17C73 17.553 73.447 18 74 18C74.553 18 75 17.553 75 17V14H76.002C76.406 14 76.772 13.756 76.926 13.383C76.965 13.289 76.988 13.194 76.996 13.096C77.023 12.803 76.922 12.508 76.709 12.293L74.709 10.293ZM79 7C78.95 7 78.903 7.012 78.854 7.015C78.939 6.689 79 6.353 79 6C79 3.791 77.209 2 75 2C73.076 2 71.472 3.359 71.089 5.169C70.74 5.07 70.381 5 70 5C67.791 5 66 6.791 66 9V10C66 11.917 67.35 13.515 69.149 13.905C69.087 13.707 69.037 13.504 69.015 13.295C68.931 12.389 69.246 11.513 69.88 10.879L71.88 8.879C72.447 8.312 73.201 8 74.002 8C74.803 8 75.557 8.312 76.123 8.879L78.123 10.879C78.758 11.52 79.07 12.393 78.987 13.281C78.968 13.513 78.907 13.759 78.821 14H79C80.657 14 82 12.657 82 11V10C82 8.344 80.657 7 79 7Z" fill="black"/>
<path fill-rule="evenodd" clip-rule="evenodd" d="M100 4C100 2.89543 100.895 2 102 2H106.586C107.116 2 107.625 2.21071 108 2.58579L111.414 6C111.789 6.37507 112 6.88378 112 7.41421V16C112 17.1046 111.105 18 110 18H102C100.895 18 100 17.1046 100 16V4ZM102 10C102 9.44772 102.448 9 103 9H109C109.552 9 110 9.44772 110 10C110 10.5523 109.552 11 109 11H103C102.448 11 102 10.5523 102 10ZM103 13C102.448 13 102 13.4477 102 14C102 14.5523 102.448 15 103 15H109C109.552 15 110 14.5523 110 14C110 13.4477 109.552 13 109 13H103Z" fill="black"/>
<path fill-rule="evenodd" clip-rule="evenodd" d="M130.166 4.99891C133.174 4.95809 135.915 3.81033 138 1.94446C140.085 3.81033 142.826 4.95809 145.834 4.99891C145.943 5.64968 146 6.31821 146 7.00003C146 12.2249 142.661 16.6698 138 18.3172C133.339 16.6698 130 12.2249 130 7.00003C130 6.31821 130.057 5.64968 130.166 4.99891ZM141.707 8.70711C142.098 8.31658 142.098 7.68342 141.707 7.29289C141.317 6.90237 140.683 6.90237 140.293 7.29289L137 10.5858L135.707 9.29289C135.317 8.90237 134.683 8.90237 134.293 9.29289C133.902 9.68342 133.902 10.3166 134.293 10.7071L136.293 12.7071C136.683 13.0976 137.317 13.0976 137.707 12.7071L141.707 8.70711Z" fill="black"/>
<path d="M162.5 4.375C162.5 3.87772 162.698 3.40081 163.049 3.04917C163.401 2.69754 163.878 2.5 164.375 2.5H173.75C174.413 2.5 175.049 2.76339 175.518 3.23223C175.987 3.70107 176.25 4.33696 176.25 5V5.335C176.63 5.55442 176.946 5.87 177.165 6.25004C177.384 6.63007 177.5 7.06117 177.5 7.5V15C177.5 15.663 177.237 16.2989 176.768 16.7678C176.299 17.2366 175.663 17.5 175 17.5H165.625C164.796 17.5 164.001 17.1708 163.415 16.5847C162.829 15.9987 162.5 15.2038 162.5 14.375V4.375ZM163.75 4.375C163.75 4.54076 163.816 4.69973 163.933 4.81694C164.05 4.93415 164.209 5 164.375 5H175C175 4.66848 174.868 4.35054 174.634 4.11612C174.399 3.8817 174.082 3.75 173.75 3.75H164.375C164.209 3.75 164.05 3.81585 163.933 3.93306C163.816 4.05027 163.75 4.20924 163.75 4.375ZM173.125 10C172.959 10 172.8 10.0658 172.683 10.1831C172.566 10.3003 172.5 10.4592 172.5 10.625C172.5 10.7908 172.566 10.9497 172.683 11.0669C172.8 11.1842 172.959 11.25 173.125 11.25H174.375C174.541 11.25 174.7 11.1842 174.817 11.0669C174.934 10.9497 175 10.7908 175 10.625C175 10.4592 174.934 10.3003 174.817 10.1831C174.7 10.0658 174.541 10 174.375 10H173.125Z" fill="black"/>
</svg>