<svg width="205" height="20" viewBox="0 0 205 20" fill="none" xmlns="http://www.w3.org/2000/svg">
<rect x="0.25" y="0.25" width="28.6667" height="19.5" rx="3.75" fill="white" stroke="#D9D9D9" stroke-width="0.5"/>
<path fill-rule="evenodd" clip-rule="evenodd" d="M8.85438 13.5486H7.08745L5.76246 8.49369C5.69957 8.26116 5.56604 8.05559 5.36962 7.95871C4.87943 7.71523 4.33927 7.52146 3.75 7.42373V7.22912H6.59639C6.98924 7.22912 7.28387 7.52146 7.33297 7.86098L8.02045 11.5072L9.78652 7.22912H11.5044L8.85438 13.5486ZM12.4865 13.5486H10.8177L12.1918 7.22912H13.8606L12.4865 13.5486ZM16.0195 8.9798C16.0686 8.63944 16.3632 8.44483 16.707 8.44483C17.2471 8.39596 17.8355 8.49369 18.3266 8.73632L18.6212 7.37572C18.1301 7.1811 17.59 7.08337 17.0998 7.08337C15.4802 7.08337 14.3016 7.95871 14.3016 9.17357C14.3016 10.0978 15.1364 10.583 15.7257 10.8754C16.3632 11.1669 16.6087 11.3615 16.5596 11.653C16.5596 12.0902 16.0686 12.2849 15.5784 12.2849C14.9891 12.2849 14.3999 12.1391 13.8606 11.8956L13.5659 13.2571C14.1552 13.4997 14.7927 13.5974 15.382 13.5974C17.198 13.6455 18.3266 12.771 18.3266 11.4584C18.3266 9.80543 16.0195 9.70855 16.0195 8.9798ZM24.1667 13.5486L22.8417 7.22912H21.4185C21.1239 7.22912 20.8292 7.42373 20.731 7.71523L18.2775 13.5486H19.9953L20.3382 12.6252H22.4488L22.6453 13.5486H24.1667ZM21.664 8.93094L22.1542 11.3126H20.7801L21.664 8.93094Z" fill="#172B85"/>
<rect x="35.417" y="0.25" width="28.6667" height="19.5" rx="3.75" fill="white" stroke="#D9D9D9" stroke-width="0.5"/>
<path fill-rule="evenodd" clip-rule="evenodd" d="M49.959 14.2974C48.966 15.1543 47.678 15.6716 46.2705 15.6716C43.1299 15.6716 40.584 13.0961 40.584 9.91911C40.584 6.7421 43.1299 4.16663 46.2705 4.16663C47.678 4.16663 48.966 4.68392 49.959 5.54082C50.952 4.68392 52.24 4.16663 53.6475 4.16663C56.7881 4.16663 59.334 6.7421 59.334 9.91911C59.334 13.0961 56.7881 15.6716 53.6475 15.6716C52.24 15.6716 50.952 15.1543 49.959 14.2974Z" fill="#ED0006"/>
<path fill-rule="evenodd" clip-rule="evenodd" d="M49.959 14.2974C51.1816 13.2423 51.9569 11.6723 51.9569 9.91911C51.9569 8.16593 51.1816 6.59593 49.959 5.54082C50.952 4.68392 52.24 4.16663 53.6475 4.16663C56.7881 4.16663 59.334 6.7421 59.334 9.91911C59.334 13.0961 56.7881 15.6716 53.6475 15.6716C52.24 15.6716 50.952 15.1543 49.959 14.2974Z" fill="#F9A000"/>
<path fill-rule="evenodd" clip-rule="evenodd" d="M49.9589 5.54089C51.1815 6.59601 51.9568 8.166 51.9568 9.91917C51.9568 11.6723 51.1815 13.2423 49.9589 14.2974C48.7362 13.2423 47.9609 11.6723 47.9609 9.91917C47.9609 8.166 48.7362 6.59601 49.9589 5.54089Z" fill="#FF5E00"/>
<rect x="70.583" y="0.25" width="28.6667" height="19.5" rx="3.75" fill="white" stroke="#D9D9D9" stroke-width="0.5"/>
<path fill-rule="evenodd" clip-rule="evenodd" d="M78.583 12.7007H77.2867C77.198 12.7007 77.1225 12.7652 77.1087 12.8527L76.5844 16.1769C76.5739 16.2425 76.6247 16.3017 76.6913 16.3017H77.3102C77.3989 16.3017 77.4743 16.2372 77.4882 16.1495L77.6296 15.2529C77.6432 15.1651 77.7188 15.1007 77.8074 15.1007H78.2177C79.0717 15.1007 79.5645 14.6874 79.6933 13.8686C79.7513 13.5103 79.6957 13.2288 79.5279 13.0316C79.3437 12.8152 79.0169 12.7007 78.583 12.7007ZM78.7326 13.9148C78.6617 14.38 78.3063 14.38 77.9626 14.38H77.767L77.9042 13.5112C77.9124 13.4588 77.9579 13.4201 78.0109 13.4201H78.1006C78.3347 13.4201 78.5556 13.4201 78.6697 13.5535C78.7377 13.6331 78.7585 13.7514 78.7326 13.9148ZM82.4581 13.8999H81.8373C81.7844 13.8999 81.7387 13.9386 81.7306 13.9911L81.7031 14.1647L81.6597 14.1018C81.5253 13.9067 81.2257 13.8416 80.9265 13.8416C80.2405 13.8416 79.6546 14.3611 79.5405 15.09C79.4812 15.4535 79.5655 15.8011 79.7717 16.0436C79.9609 16.2665 80.2316 16.3594 80.5536 16.3594C81.1064 16.3594 81.4129 16.0039 81.4129 16.0039L81.3852 16.1765C81.3748 16.2424 81.4256 16.3016 81.4917 16.3016H82.0509C82.1399 16.3016 82.2149 16.2371 82.2289 16.1494L82.5644 14.0246C82.575 13.9593 82.5244 13.8999 82.4581 13.8999ZM81.5928 15.1081C81.5328 15.4628 81.2514 15.7009 80.8924 15.7009C80.7121 15.7009 80.568 15.6431 80.4756 15.5335C80.3838 15.4247 80.3489 15.2698 80.3781 15.0974C80.4341 14.7457 80.7203 14.4999 81.0738 14.4999C81.25 14.4999 81.3934 14.5584 81.4878 14.6689C81.5823 14.7806 81.6199 14.9364 81.5928 15.1081ZM85.1405 13.8998H85.7643C85.8517 13.8998 85.9027 13.9978 85.853 14.0695L83.7782 17.0644C83.7446 17.1129 83.6893 17.1417 83.6301 17.1417H83.0071C82.9193 17.1417 82.8681 17.043 82.9189 16.9711L83.565 16.0592L82.8778 14.0427C82.8541 13.9726 82.9058 13.8998 82.9804 13.8998H83.5934C83.673 13.8998 83.7433 13.9521 83.7663 14.0283L84.1309 15.2462L84.9914 13.9788C85.025 13.9294 85.081 13.8998 85.1405 13.8998Z" fill="#253B80"/>
<path fill-rule="evenodd" clip-rule="evenodd" d="M91.9046 16.177L92.4366 12.792C92.4448 12.7394 92.4903 12.7007 92.5432 12.7006H93.1422C93.2083 12.7006 93.2591 12.7599 93.2487 12.8255L92.724 16.1495C92.7103 16.2372 92.6349 16.3017 92.546 16.3017H92.0111C91.945 16.3017 91.8942 16.2426 91.9046 16.177ZM87.8301 12.7007H86.5335C86.445 12.7007 86.3696 12.7652 86.3557 12.8528L85.8314 16.177C85.821 16.2426 85.8718 16.3017 85.938 16.3017H86.6033C86.6651 16.3017 86.718 16.2566 86.7277 16.1952L86.8764 15.2529C86.8901 15.1651 86.9657 15.1007 87.0543 15.1007H87.4644C88.3186 15.1007 88.8113 14.6875 88.9401 13.8686C88.9983 13.5104 88.9424 13.2289 88.7747 13.0317C88.5906 12.8153 88.264 12.7007 87.8301 12.7007ZM87.9797 13.9149C87.909 14.38 87.5536 14.38 87.2097 14.38H87.0143L87.1517 13.5113C87.1599 13.4588 87.205 13.4201 87.2582 13.4201H87.3478C87.5818 13.4201 87.8029 13.4201 87.9169 13.5535C87.985 13.6332 88.0057 13.7514 87.9797 13.9149ZM91.7049 13.9H91.0845C91.0312 13.9 90.9859 13.9386 90.9779 13.9912L90.9505 14.1648L90.9069 14.1019C90.7725 13.9068 90.473 13.8416 90.1739 13.8416C89.4879 13.8416 88.9022 14.3612 88.788 15.09C88.7289 15.4536 88.8129 15.8012 89.0191 16.0436C89.2086 16.2665 89.479 16.3594 89.801 16.3594C90.3537 16.3594 90.6602 16.004 90.6602 16.004L90.6326 16.1765C90.6222 16.2425 90.6729 16.3016 90.7395 16.3016H91.2985C91.387 16.3016 91.4624 16.2371 91.4763 16.1494L91.812 14.0247C91.8222 13.9593 91.7715 13.9 91.7049 13.9ZM90.8396 15.1082C90.7801 15.4628 90.4982 15.7009 90.1392 15.7009C89.9593 15.7009 89.8149 15.6431 89.7223 15.5336C89.6306 15.4248 89.5961 15.2699 89.625 15.0974C89.6812 14.7457 89.9671 14.5 90.3206 14.5C90.4969 14.5 90.6401 14.5585 90.7346 14.669C90.8295 14.7807 90.8671 14.9364 90.8396 15.1082Z" fill="#179BD7"/>
<path d="M83.3801 11.5115L83.5394 10.4992L83.1844 10.491H81.4893L82.6673 3.02112C82.6709 2.99857 82.6829 2.97754 82.7002 2.96261C82.7176 2.94768 82.7399 2.93945 82.763 2.93945H85.6214C86.5703 2.93945 87.2251 3.13692 87.5671 3.52667C87.7273 3.70951 87.8294 3.90057 87.8788 4.11083C87.9306 4.33147 87.9316 4.59505 87.8809 4.91655L87.8773 4.94001V5.146L88.0376 5.23682C88.1726 5.30842 88.2798 5.3904 88.3621 5.48426C88.4993 5.64058 88.588 5.83927 88.6254 6.07482C88.6641 6.31708 88.6513 6.60536 88.588 6.93173C88.5148 7.30716 88.3966 7.63413 88.2369 7.90168C88.09 8.14821 87.9029 8.35264 87.6808 8.51115C87.4687 8.66168 87.2166 8.77598 86.9317 8.84913C86.6556 8.92098 86.3408 8.95729 85.9956 8.95729H85.7731C85.6141 8.95729 85.4595 9.01457 85.3383 9.11729C85.2167 9.22212 85.1362 9.36528 85.1115 9.52194L85.0948 9.61308L84.8132 11.3972L84.8004 11.4627C84.7971 11.4835 84.7913 11.4939 84.7828 11.5009C84.7751 11.5072 84.7642 11.5115 84.7535 11.5115H83.3801Z" fill="#253B80"/>
<path d="M88.1894 4.96387C88.1809 5.01841 88.1712 5.07417 88.1602 5.13146C87.7832 7.06681 86.4936 7.73539 84.8465 7.73539H84.0079C83.8065 7.73539 83.6368 7.88165 83.6054 8.08034L83.176 10.8034L83.0544 11.5753C83.034 11.7057 83.1346 11.8234 83.2662 11.8234H84.7536C84.9298 11.8234 85.0793 11.6954 85.107 11.5217L85.1217 11.4461L85.4018 9.66888L85.4198 9.57142C85.4471 9.39712 85.597 9.26914 85.7732 9.26914H85.9956C87.4367 9.26914 88.5649 8.68405 88.8946 6.99093C89.0323 6.28365 88.961 5.69309 88.5965 5.27774C88.4863 5.15249 88.3494 5.04858 88.1894 4.96387Z" fill="#179BD7"/>
<path d="M87.7952 4.80681C87.7377 4.79004 87.6782 4.77481 87.6172 4.7611C87.556 4.74769 87.4932 4.73581 87.4286 4.72545C87.2025 4.68888 86.9548 4.67151 86.6893 4.67151H84.449C84.3938 4.67151 84.3414 4.684 84.2945 4.70655C84.1912 4.75622 84.1144 4.85404 84.0958 4.9738L83.6192 7.99246L83.6055 8.08052C83.6369 7.88184 83.8066 7.73557 84.008 7.73557H84.8466C86.4937 7.73557 87.7834 7.06669 88.1603 5.13165C88.1715 5.07436 88.181 5.0186 88.1895 4.96405C88.0942 4.91347 87.9908 4.87019 87.8796 4.83332C87.8522 4.82418 87.8239 4.81534 87.7952 4.80681Z" fill="#222D65"/>
<path d="M84.0957 4.97368C84.1143 4.85392 84.1911 4.7561 84.2943 4.70674C84.3416 4.68418 84.3937 4.67169 84.4488 4.67169H86.6893C86.9547 4.67169 87.2024 4.68906 87.4285 4.72563C87.4931 4.73599 87.5559 4.74788 87.6172 4.76128C87.6781 4.775 87.7375 4.79024 87.7951 4.80699C87.8237 4.81552 87.8521 4.82436 87.8798 4.8332C87.991 4.87007 88.0943 4.91365 88.1897 4.96393C88.3019 4.24873 88.1888 3.76177 87.8022 3.32082C87.3758 2.83539 86.6064 2.62756 85.6218 2.62756H82.7634C82.5622 2.62756 82.3907 2.77383 82.3596 2.97282L81.1691 10.5195C81.1456 10.6688 81.2607 10.8035 81.4113 10.8035H83.176L83.6191 7.99234L84.0957 4.97368Z" fill="#253B80"/>
<rect x="176.083" y="0.25" width="28.6667" height="19.5" rx="3.75" fill="white" stroke="#D9D9D9" stroke-width="0.5"/>
<path fill-rule="evenodd" clip-rule="evenodd" d="M182.789 7.44417C183.18 7.47721 183.572 7.24592 183.817 6.95267C184.057 6.65116 184.217 6.2464 184.176 5.83337C183.829 5.8499 183.401 6.06467 183.156 6.36618C182.931 6.62638 182.74 7.04767 182.789 7.44417ZM187.448 12.7639V6.32488H189.835C191.067 6.32488 191.928 7.18398 191.928 8.43957C191.928 9.69517 191.051 10.5625 189.802 10.5625H188.436V12.7639H187.448ZM184.172 7.52265C183.827 7.50255 183.512 7.62771 183.257 7.7288C183.094 7.79385 182.955 7.84894 182.85 7.84894C182.731 7.84894 182.587 7.79091 182.425 7.72575C182.213 7.64036 181.97 7.54275 181.715 7.54743C181.132 7.5557 180.589 7.89025 180.291 8.42305C179.679 9.48865 180.132 11.0664 180.724 11.9338C181.014 12.3633 181.36 12.8342 181.817 12.8176C182.018 12.81 182.163 12.7478 182.313 12.6835C182.485 12.6095 182.664 12.5326 182.944 12.5326C183.213 12.5326 183.385 12.6075 183.549 12.6794C183.705 12.7478 183.855 12.8134 184.078 12.8094C184.551 12.8011 184.849 12.3798 185.139 11.9503C185.451 11.4893 185.589 11.0394 185.61 10.9711L185.61 10.9711L185.612 10.9632C185.611 10.9626 185.608 10.9609 185.601 10.9577C185.496 10.9093 184.698 10.5391 184.69 9.54648C184.682 8.71331 185.323 8.29118 185.424 8.22473L185.424 8.22472C185.431 8.22068 185.435 8.21796 185.437 8.21653C185.029 7.60526 184.392 7.53917 184.172 7.52265ZM193.732 12.8135C194.352 12.8135 194.927 12.4954 195.188 11.9916H195.209V12.7639H196.123V9.55883C196.123 8.62953 195.388 8.03064 194.258 8.03064C193.209 8.03064 192.434 8.63779 192.406 9.4721H193.295C193.369 9.0756 193.732 8.81539 194.229 8.81539C194.833 8.81539 195.172 9.10038 195.172 9.62492V9.98012L193.94 10.0545C192.793 10.1247 192.173 10.5997 192.173 11.4257C192.173 12.26 192.814 12.8135 193.732 12.8135ZM193.997 12.0494C193.471 12.0494 193.136 11.7933 193.136 11.401C193.136 10.9962 193.458 10.7608 194.074 10.7236L195.172 10.6534V11.0168C195.172 11.6199 194.666 12.0494 193.997 12.0494ZM199.154 13.0159C198.758 14.1434 198.306 14.5151 197.343 14.5151C197.269 14.5151 197.024 14.5069 196.967 14.4904V13.718C197.028 13.7263 197.179 13.7345 197.257 13.7345C197.694 13.7345 197.938 13.5487 198.089 13.0654L198.179 12.7804L196.506 8.09261H197.539L198.701 11.8966H198.722L199.885 8.09261H200.888L199.154 13.0159ZM188.435 7.16744H189.574C190.431 7.16744 190.92 7.63002 190.92 8.44368C190.92 9.25734 190.431 9.72406 189.57 9.72406H188.435V7.16744Z" fill="black"/>
<rect x="105.75" y="0.25" width="28.6667" height="19.5" rx="3.75" fill="white" stroke="#D9D9D9" stroke-width="0.5"/>
<path fill-rule="evenodd" clip-rule="evenodd" d="M123.087 14.0374C123.251 13.6205 123.617 12.6862 123.443 12.4598H123.444C123.271 12.2329 122.3 12.352 121.863 12.4056L121.862 12.4057C121.73 12.422 121.709 12.3039 121.829 12.2184C122.604 11.6619 123.875 11.8211 124.023 12.009C124.17 12.1969 123.982 13.4979 123.256 14.119C123.144 14.2142 123.037 14.1634 123.087 14.0374ZM117.868 14.6807C119.557 14.6807 121.525 14.1359 122.88 13.1149V13.1168C123.104 12.9446 122.912 12.6914 122.683 12.7906C121.204 13.4277 119.616 13.7603 118.011 13.7693C115.783 13.7693 113.629 13.1455 111.886 12.1101C111.734 12.0194 111.62 12.1793 111.748 12.296C113.426 13.842 115.608 14.6925 117.868 14.6807Z" fill="#FF9900"/>
<path fill-rule="evenodd" clip-rule="evenodd" d="M128.914 11.6234H129.633H129.634C129.709 11.6249 129.771 11.5645 129.774 11.4877V9.45144C129.774 9.19569 129.788 8.96473 129.889 8.73376C129.958 8.55807 130.121 8.43978 130.306 8.43103C130.767 8.43103 130.762 8.94597 130.759 9.35051C130.758 9.38463 130.758 9.41797 130.758 9.45014V11.5047C130.767 11.5706 130.821 11.6206 130.886 11.6234H131.612C131.681 11.6249 131.74 11.5741 131.75 11.5047V9.12392C131.75 8.7579 131.75 8.24835 131.562 7.94562C131.358 7.6194 131.042 7.5 130.719 7.5C130.221 7.5 129.938 7.74662 129.736 8.26401H129.722V7.68529C129.707 7.62479 129.655 7.5816 129.594 7.5796H128.925C128.854 7.57782 128.794 7.63171 128.786 7.70356V11.4877C128.787 11.5603 128.843 11.6196 128.914 11.6234ZM128.236 9.63873C128.236 8.44477 127.657 7.50525 126.586 7.50525C125.542 7.50525 124.962 8.42911 124.962 9.59893C124.962 10.7688 125.535 11.7083 126.586 11.7083C127.598 11.7083 128.236 10.7929 128.236 9.63873ZM126.027 9.47951C126.027 9.01759 126.06 8.27772 126.593 8.27772C126.821 8.27772 126.983 8.38276 127.064 8.64374C127.159 8.94582 127.172 9.32815 127.172 9.64654C127.172 10.132 127.151 10.9279 126.586 10.9279C126.026 10.9279 126.026 9.96286 126.027 9.49482V9.47951ZM112.527 11.6312H113.248H113.249C113.285 11.6321 113.32 11.6182 113.346 11.5926C113.372 11.567 113.387 11.5318 113.388 11.4948V9.48991L113.388 9.45852C113.388 9.02258 113.387 8.446 113.886 8.446C114.348 8.446 114.341 8.9526 114.335 9.36169C114.334 9.40582 114.334 9.44881 114.334 9.48991V11.4955C114.335 11.5679 114.391 11.6271 114.461 11.6312H115.185C115.221 11.6319 115.256 11.6179 115.282 11.5924C115.308 11.5668 115.323 11.5317 115.323 11.4948V9.48991L115.323 9.44224C115.323 9.22981 115.322 8.94315 115.391 8.76505C115.461 8.58299 115.631 8.46111 115.822 8.45514C116.031 8.45514 116.193 8.52691 116.247 8.78136C116.274 8.90382 116.27 9.18772 116.268 9.37598C116.267 9.42041 116.267 9.45951 116.267 9.48991V11.4955C116.268 11.5681 116.324 11.6274 116.395 11.6312H117.116C117.152 11.6321 117.187 11.6182 117.213 11.5926C117.24 11.567 117.255 11.5318 117.255 11.4948V9.10758C117.255 9.04945 117.256 8.99006 117.257 8.93V8.92994V8.92988V8.92982V8.92976C117.263 8.5733 117.269 8.19387 117.073 7.92144C116.835 7.61242 116.453 7.45843 116.072 7.5186C115.692 7.57877 115.373 7.84374 115.238 8.21178C115.035 7.73354 114.746 7.51106 114.301 7.51106C113.856 7.51106 113.526 7.73354 113.351 8.21178H113.338V7.71788C113.334 7.64749 113.279 7.59128 113.21 7.5874H112.537C112.463 7.58665 112.402 7.64662 112.399 7.72245V11.5066C112.406 11.5747 112.46 11.6277 112.527 11.6312ZM111.272 11.66C111.224 11.7021 111.156 11.7091 111.101 11.6776C110.897 11.5039 110.835 11.41 110.74 11.2659C110.724 11.2411 110.707 11.2148 110.688 11.1863C110.291 11.5987 110.01 11.722 109.497 11.722C108.89 11.722 108.417 11.339 108.417 10.573C108.417 9.97474 108.736 9.56827 109.184 9.36863C109.514 9.22064 109.955 9.1747 110.335 9.13499L110.335 9.13499L110.335 9.13499L110.336 9.13498L110.336 9.13497L110.336 9.13497C110.406 9.12759 110.475 9.12043 110.541 9.11287V9.01761L110.541 8.96213C110.542 8.79971 110.544 8.61888 110.453 8.48261C110.365 8.34691 110.198 8.29145 110.048 8.29145C109.773 8.29145 109.527 8.43564 109.467 8.7338C109.46 8.80336 109.407 8.85902 109.34 8.86951L108.646 8.79187C108.611 8.78681 108.58 8.76747 108.56 8.73837C108.539 8.70928 108.532 8.67296 108.538 8.6379C108.699 7.77146 109.465 7.50983 110.152 7.50983C110.504 7.50983 110.962 7.60508 111.238 7.8765C111.562 8.18628 111.56 8.59181 111.558 9.03499L111.558 9.03509C111.558 9.07165 111.558 9.10846 111.558 9.14549V10.2931C111.558 10.6022 111.67 10.756 111.788 10.9179C111.802 10.9371 111.817 10.9565 111.831 10.9762C111.877 11.0415 111.887 11.123 111.831 11.172C111.683 11.2979 111.421 11.5302 111.277 11.6613L111.272 11.66ZM110.544 9.86314L110.544 9.89886C110.544 10.1702 110.544 10.4004 110.409 10.6461C110.294 10.8535 110.112 10.9814 109.909 10.9814C109.632 10.9814 109.47 10.7661 109.47 10.4464C109.47 9.81877 110.022 9.70459 110.544 9.70459V9.86314ZM121.248 10.9152L121.248 10.9153C121.262 10.9345 121.276 10.9538 121.29 10.9735C121.338 11.0414 121.349 11.121 121.287 11.166C121.139 11.2919 120.877 11.5249 120.733 11.6553C120.686 11.6968 120.618 11.7036 120.563 11.6723C120.358 11.4979 120.297 11.4054 120.201 11.2593L120.201 11.2592C120.185 11.2349 120.168 11.209 120.149 11.181C119.753 11.5934 119.47 11.7167 118.959 11.7167C118.352 11.7167 117.879 11.3337 117.879 10.5684C117.879 9.96944 118.196 9.56297 118.649 9.36332C118.98 9.21477 119.423 9.16905 119.805 9.12963C119.874 9.12248 119.941 9.11554 120.006 9.10822V9.01492L120.006 8.95972C120.007 8.79723 120.009 8.61634 119.918 8.48058C119.832 8.34487 119.661 8.28876 119.513 8.28876C119.237 8.28876 118.993 8.43295 118.932 8.73111C118.925 8.80056 118.872 8.85611 118.805 8.86682L118.105 8.78983C118.07 8.78494 118.039 8.76558 118.018 8.73631C117.998 8.70705 117.99 8.67047 117.997 8.6352C118.158 7.76811 118.925 7.50714 119.612 7.50714C119.962 7.50714 120.421 7.60239 120.698 7.87381C121.022 8.18198 121.02 8.58438 121.018 9.02529L121.018 9.02589V9.02601V9.02613C121.017 9.06474 121.017 9.10364 121.017 9.1428V10.2911C121.017 10.5995 121.129 10.7532 121.248 10.9151L121.248 10.9152ZM119.372 10.9775C119.575 10.9775 119.757 10.8496 119.872 10.6428C120.007 10.3957 120.007 10.1645 120.007 9.88976L120.007 9.8605V9.70131C119.485 9.70131 118.934 9.81483 118.934 10.4431C118.934 10.7622 119.095 10.9775 119.372 10.9775ZM121.901 7.70945V8.24836C121.9 8.28533 121.915 8.32084 121.941 8.34661C121.967 8.37238 122.002 8.38615 122.038 8.38472H123.28L121.856 10.4725C121.791 10.5845 121.76 10.7138 121.768 10.8438V11.3951C121.768 11.4747 121.854 11.5654 121.936 11.5203C122.722 11.1044 123.656 11.1027 124.443 11.5158C124.533 11.5634 124.618 11.4714 124.618 11.3918V10.8124C124.615 10.7239 124.567 10.6434 124.49 10.6017C124.075 10.3636 123.593 10.2938 123.137 10.3048L124.366 8.51325C124.48 8.35275 124.544 8.25097 124.544 8.17333V7.70945C124.545 7.6726 124.53 7.63719 124.505 7.61144C124.479 7.5857 124.444 7.57184 124.408 7.57309H122.035C121.999 7.57102 121.964 7.58467 121.938 7.61066C121.913 7.63665 121.899 7.67255 121.901 7.70945Z" fill="black"/>
<rect x="140.917" y="0.25" width="28.6667" height="19.5" rx="3.75" fill="white" stroke="#D9D9D9" stroke-width="0.5"/>
<path fill-rule="evenodd" clip-rule="evenodd" d="M144.043 11.8109L144.043 11.8109L144.043 11.8109C144.064 11.6906 144.085 11.574 144.108 11.4574C144.208 10.9301 144.309 10.4035 144.409 9.87694L144.409 9.8768L144.409 9.87675L144.409 9.87664C144.51 9.35003 144.61 8.82342 144.71 8.29611C144.724 8.22933 144.744 8.1848 144.81 8.17367C145.329 8.09575 145.851 8.04009 146.369 8.17089C146.822 8.2822 147.138 8.60223 147.191 8.97791C147.299 9.72649 146.863 10.3248 146.217 10.5391C145.876 10.6504 145.529 10.6782 145.176 10.6448C145.093 10.6365 145.068 10.6587 145.054 10.7394C144.979 11.1485 144.902 11.5548 144.821 11.9611C144.816 11.9945 144.785 12.0474 144.766 12.0474C144.577 12.0515 144.392 12.051 144.199 12.0505C144.134 12.0503 144.067 12.0502 144 12.0502C144.015 11.9682 144.029 11.8887 144.043 11.8109ZM145.351 9.98538H145.351H145.351C145.459 9.98833 145.562 9.99112 145.662 9.97978C145.95 9.94917 146.181 9.81837 146.311 9.54287C146.458 9.2312 146.353 8.90004 146.075 8.80264C145.878 8.73307 145.676 8.74699 145.473 8.77481C145.448 8.7776 145.415 8.81656 145.409 8.8416C145.371 9.04548 145.332 9.25024 145.292 9.46268L145.292 9.46288L145.292 9.46294L145.193 9.98256C145.247 9.98256 145.3 9.98399 145.351 9.98538H145.351H145.351H145.351H145.351ZM148.794 11.6526L148.794 11.6526C148.707 11.7499 148.625 11.8423 148.528 11.9165C148.237 12.1419 147.904 12.192 147.568 12.0361C147.235 11.8831 147.099 11.5853 147.085 11.2347C147.055 10.4972 147.313 9.88779 147.931 9.4648C148.32 9.19765 148.766 9.11695 149.23 9.14199C149.383 9.15104 149.535 9.17771 149.688 9.20444C149.77 9.21885 149.852 9.23327 149.934 9.24496C150.029 9.25887 150.043 9.31175 150.026 9.39245C150.004 9.50883 149.981 9.62509 149.959 9.74128L149.959 9.74129L149.959 9.7413L149.959 9.7413L149.959 9.74131L149.959 9.74132C149.875 10.1752 149.791 10.6081 149.721 11.0427C149.681 11.2915 149.665 11.5463 149.649 11.7986L149.64 11.9304C149.635 12.0194 149.613 12.0556 149.521 12.0528C149.349 12.0473 149.177 12.0473 149.005 12.0528C148.916 12.0556 148.886 12.0222 148.894 11.936C148.902 11.8406 148.907 11.7424 148.912 11.6404C148.915 11.5995 148.917 11.558 148.919 11.5157C148.875 11.5615 148.834 11.6076 148.794 11.6526ZM149.113 9.79598C148.844 9.72085 148.619 9.77372 148.431 9.93234C148.076 10.2329 147.915 10.6225 147.945 11.0872C147.954 11.2291 148.009 11.3655 148.159 11.4267C148.309 11.4879 148.445 11.4434 148.561 11.3432C148.631 11.282 148.697 11.2124 148.747 11.1345C148.943 10.8349 148.996 10.497 149.05 10.1537C149.069 10.0347 149.088 9.91495 149.113 9.79598ZM153.045 11.3545C153.197 11.8443 153.616 12.117 154.351 12.117C154.856 12.1031 155.358 11.8164 155.672 11.2265C155.838 10.9092 155.899 10.5697 155.877 10.2135C155.858 9.87123 155.722 9.58182 155.444 9.37589C155.153 9.15883 154.82 9.1143 154.465 9.15326C153.278 9.28684 152.792 10.5475 153.045 11.3545ZM153.835 10.9458C153.835 10.9315 153.835 10.9174 153.835 10.9036C153.844 10.5836 153.921 10.2858 154.113 10.0215C154.199 9.90458 154.307 9.81553 154.451 9.78214C154.745 9.71535 154.987 9.8851 155.014 10.2051C155.048 10.5975 154.953 10.9593 154.706 11.2737C154.612 11.3906 154.493 11.4713 154.34 11.4852C154.066 11.5103 153.857 11.3238 153.835 11.0316C153.833 11.0037 153.834 10.9746 153.835 10.9458V10.9458V10.9458V10.9458V10.9458ZM156.538 9.21158H157.242C157.231 9.36185 157.22 9.50656 157.206 9.65405C157.232 9.63006 157.257 9.60635 157.281 9.5831L157.281 9.58309L157.281 9.58307C157.333 9.53353 157.383 9.48611 157.434 9.44256C157.708 9.20323 158.022 9.09749 158.385 9.15592C158.685 9.20602 158.893 9.42586 158.926 9.73475C158.963 10.0562 158.902 10.3679 158.842 10.679L158.829 10.7477C158.805 10.8741 158.781 11.0004 158.757 11.1267L158.757 11.1268L158.757 11.1269C158.704 11.4038 158.651 11.6803 158.596 11.9555C158.588 11.9916 158.546 12.0445 158.519 12.0473C158.28 12.0528 158.041 12.0501 157.803 12.0473C157.795 12.0473 157.787 12.0429 157.775 12.0364C157.77 12.0338 157.765 12.0309 157.758 12.0278C157.803 11.7968 157.847 11.5631 157.889 11.3293C157.953 10.9703 158.014 10.6141 158.069 10.2551C158.08 10.1939 158.075 10.1299 158.066 10.0687C158.044 9.85441 157.886 9.75702 157.681 9.82102C157.481 9.88503 157.362 10.0409 157.265 10.2134C157.12 10.4666 157.07 10.7477 157.02 11.0288V11.0288L157.02 11.0288L156.983 11.2373L156.983 11.2374L156.983 11.2376L156.983 11.2376C156.941 11.476 156.898 11.7135 156.851 11.9527C156.843 11.9888 156.801 12.0445 156.773 12.0473C156.579 12.0539 156.383 12.0535 156.173 12.0531L156.01 12.0528C156.194 11.0956 156.366 10.1577 156.538 9.21158ZM160.538 11.4686C160.244 11.4324 160.047 11.2265 160.067 10.9371C160.128 10.9371 160.189 10.938 160.25 10.9389L160.25 10.9389C160.37 10.9408 160.49 10.9426 160.608 10.9371C160.893 10.9204 161.174 10.8731 161.434 10.7423C161.767 10.5753 161.923 10.2998 161.898 9.94081C161.873 9.57626 161.676 9.31189 161.323 9.20615C160.796 9.04752 160.311 9.15884 159.897 9.51226C159.395 9.94081 159.207 10.5085 159.279 11.1569C159.329 11.6161 159.578 11.9444 160.033 12.0613C160.522 12.1866 161.002 12.1198 161.465 11.9305C161.498 11.9166 161.537 11.8637 161.534 11.8304C161.528 11.6945 161.514 11.5587 161.5 11.4229L161.49 11.3211C161.481 11.3211 161.474 11.3206 161.469 11.3203C161.461 11.3197 161.457 11.3195 161.454 11.3211C161.423 11.3322 161.393 11.3434 161.365 11.3545C161.099 11.4575 160.824 11.502 160.538 11.4686ZM160.968 10.2358C160.799 10.3248 160.361 10.3777 160.147 10.3332C160.191 9.96306 160.583 9.67364 160.913 9.75435C161.024 9.78217 161.104 9.84061 161.124 9.96028C161.143 10.0772 161.085 10.1746 160.968 10.2358ZM162.838 10.9482C162.813 11.2209 163.008 11.4297 163.304 11.4686C163.582 11.502 163.848 11.4603 164.109 11.3657C164.133 11.3566 164.156 11.3476 164.182 11.3377L164.182 11.3377C164.203 11.3293 164.227 11.3202 164.253 11.31C164.259 11.369 164.265 11.4267 164.271 11.4837C164.283 11.6016 164.295 11.716 164.3 11.8304C164.303 11.8638 164.264 11.9167 164.234 11.9306C163.762 12.1254 163.277 12.1922 162.78 12.0558C162.333 11.9334 162.1 11.6078 162.045 11.1625C161.975 10.592 162.123 10.0772 162.519 9.65421C162.947 9.20061 163.471 9.03921 164.076 9.20618C164.445 9.30914 164.642 9.5763 164.664 9.95198C164.686 10.3193 164.52 10.5948 164.173 10.7562C163.823 10.9176 163.451 10.9427 163.074 10.951C162.999 10.9482 162.922 10.9482 162.838 10.9482ZM162.919 10.3555C162.969 10.3523 163.019 10.3499 163.068 10.3474C163.191 10.3412 163.309 10.3353 163.426 10.3193C163.537 10.3054 163.648 10.272 163.748 10.2247C163.857 10.1774 163.909 10.0772 163.893 9.95479C163.876 9.83791 163.798 9.78225 163.69 9.75442C163.363 9.66537 162.955 9.96592 162.919 10.3555ZM164.816 11.4686C164.78 11.6578 164.747 11.8443 164.711 12.0502C164.767 12.0502 164.821 12.0503 164.875 12.0504C165.089 12.0509 165.293 12.0513 165.496 12.0446C165.516 12.0446 165.546 11.9918 165.552 11.9584C165.58 11.8194 165.606 11.6797 165.632 11.5401C165.681 11.2827 165.729 11.0254 165.79 10.7729C165.926 10.2107 166.156 10.0159 166.703 9.94359C166.725 9.9408 166.761 9.91576 166.767 9.89628C166.802 9.73633 166.833 9.57517 166.865 9.40799C166.882 9.3221 166.899 9.23463 166.917 9.14492C166.39 9.08926 166.095 9.39537 165.84 9.77105L165.844 9.71702C165.857 9.55077 165.87 9.38159 165.885 9.20336C165.827 9.20336 165.77 9.20318 165.714 9.203C165.55 9.20248 165.393 9.20198 165.235 9.20614C165.213 9.20892 165.172 9.25901 165.169 9.28962C165.11 10.0048 164.969 10.7044 164.829 11.4034L164.816 11.4686Z" fill="black"/>
<path fill-rule="evenodd" clip-rule="evenodd" d="M157.471 5.85451C157.442 5.84707 157.414 5.83964 157.386 5.83337C157.3 5.83337 157.214 5.83337 157.123 5.83616C157.091 5.84243 157.06 5.84927 157.029 5.85616C156.99 5.86456 156.951 5.87304 156.912 5.88068C156.487 5.96138 156.088 6.10887 155.702 6.30367C154.867 6.72666 154.118 7.27488 153.447 7.92328C153 8.35183 152.567 8.79987 152.148 9.25904C151.413 10.0661 150.783 10.9538 150.281 11.9278C150.023 12.4315 149.79 12.9463 149.684 13.5056C149.665 13.6086 149.698 13.7283 149.732 13.8312C149.746 13.873 149.823 13.9036 149.876 13.9203C149.89 13.9258 149.931 13.8563 149.951 13.8173C149.958 13.8022 149.965 13.7867 149.972 13.7709C150.092 13.507 150.255 13.1501 150.397 12.9137C150.696 12.4128 150.933 12.0252 151.269 11.5493C151.807 10.784 152.436 10.0332 153.096 9.37086C153.72 8.74472 154.345 8.18486 155.131 7.76187C155.491 7.56986 155.86 7.38063 156.238 7.22479C156.89 6.95485 157.569 6.77119 158.269 6.66822C158.343 6.65709 158.443 6.59865 158.468 6.53743C158.49 6.48177 158.438 6.37603 158.385 6.32315C158.171 6.10331 157.922 5.93634 157.611 5.88625C157.564 5.87929 157.517 5.8669 157.471 5.85451ZM151.119 9.65149C151.252 9.28973 151.319 8.91404 151.327 8.52445C151.323 8.48271 151.32 8.44096 151.317 8.39922C151.311 8.31574 151.305 8.23225 151.294 8.14877C151.219 7.50315 150.941 6.95493 150.5 6.48464C150.447 6.43176 150.375 6.39002 150.303 6.36497C150.231 6.33715 150.184 6.37889 150.189 6.46237C150.19 6.46414 150.19 6.4659 150.19 6.46767C150.195 6.53839 150.201 6.61163 150.214 6.68222C150.234 6.79342 150.253 6.90476 150.273 7.01617C150.341 7.41219 150.41 7.80915 150.486 8.20442C150.561 8.60237 150.644 8.99753 150.733 9.38991C150.764 9.51514 150.814 9.64036 150.875 9.75724C150.922 9.84629 150.988 9.83794 151.049 9.75724L151.049 9.75724C151.077 9.72385 151.105 9.69045 151.119 9.65149Z" fill="#FC461E"/>
</svg>