<svg width="16" height="16" viewBox="0 0 16 16" fill="none" xmlns="http://www.w3.org/2000/svg">
<path d="M8.7999 2.3999C8.35808 2.3999 7.9999 2.75807 7.9999 3.1999C7.9999 3.64173 8.35808 3.9999 8.7999 3.9999H10.8685L5.83422 9.03422C5.5218 9.34664 5.5218 9.85317 5.83422 10.1656C6.14664 10.478 6.65317 10.478 6.96559 10.1656L11.9999 5.13127V7.1999C11.9999 7.64173 12.3581 7.9999 12.7999 7.9999C13.2417 7.9999 13.5999 7.64173 13.5999 7.1999V3.1999C13.5999 2.75807 13.2417 2.3999 12.7999 2.3999H8.7999Z" fill="white"/>
<path d="M3.9999 3.9999C3.11625 3.9999 2.3999 4.71625 2.3999 5.5999V11.9999C2.3999 12.8836 3.11625 13.5999 3.9999 13.5999H10.3999C11.2836 13.5999 11.9999 12.8836 11.9999 11.9999V9.5999C11.9999 9.15808 11.6417 8.7999 11.1999 8.7999C10.7581 8.7999 10.3999 9.15808 10.3999 9.5999V11.9999H3.9999V5.5999L6.3999 5.5999C6.84173 5.5999 7.1999 5.24173 7.1999 4.7999C7.1999 4.35807 6.84173 3.9999 6.3999 3.9999H3.9999Z" fill="white"/>
</svg>
