<svg width="14" height="18" viewBox="0 0 14 18" fill="none" xmlns="http://www.w3.org/2000/svg">
<path d="M0 1C0 0.447716 0.447715 0 1 0H13C13.5523 0 14 0.447715 14 1V15.8258C14 16.6801 12.9979 17.141 12.3492 16.585L7.65079 12.5578C7.2763 12.2368 6.7237 12.2368 6.34921 12.5578L1.65079 16.585C1.00212 17.141 0 16.6801 0 15.8258V1Z" fill="#78592C"/>
<path d="M5.52684 7.904C5.70818 7.76 5.79084 7.69333 5.77484 7.704C6.29751 7.272 6.70818 6.91733 7.00684 6.64C7.31084 6.36267 7.56684 6.072 7.77484 5.768C7.98284 5.464 8.08684 5.168 8.08684 4.88C8.08684 4.66133 8.03618 4.49067 7.93484 4.368C7.83351 4.24533 7.68151 4.184 7.47884 4.184C7.27618 4.184 7.11618 4.26133 6.99884 4.416C6.88684 4.56533 6.83084 4.77867 6.83084 5.056H5.51084C5.52151 4.60267 5.61751 4.224 5.79884 3.92C5.98551 3.616 6.22818 3.392 6.52684 3.248C6.83084 3.104 7.16684 3.032 7.53484 3.032C8.16951 3.032 8.64684 3.19467 8.96684 3.52C9.29218 3.84533 9.45484 4.26933 9.45484 4.792C9.45484 5.36267 9.26018 5.89333 8.87084 6.384C8.48151 6.86933 7.98551 7.344 7.38284 7.808H9.54284V8.92H5.52684V7.904Z" fill="white"/>
</svg>