<svg width="58" height="87" viewBox="0 0 58 87" fill="none" xmlns="http://www.w3.org/2000/svg">
<path d="M0 1C0 0.447718 0.447715 0 1 0H57C57.5523 0 58 0.447715 58 1V85.0956C58 85.9014 57.0956 86.3763 56.4323 85.9188L29.5677 67.3915C29.2259 67.1558 28.7741 67.1558 28.4323 67.3915L1.56773 85.9188C0.904353 86.3763 0 85.9014 0 85.0956V1Z" fill="#23A638"/>
<path d="M24.3484 34.728V29.64H33.2124V53H27.5164V34.728H24.3484Z" fill="white"/>
<path d="M18.6467 18L16.3227 14.01H14.7827V18H13.5087V8.242H16.6587C17.396 8.242 18.0167 8.368 18.5207 8.62C19.034 8.872 19.4167 9.21267 19.6687 9.642C19.9207 10.0713 20.0467 10.5613 20.0467 11.112C20.0467 11.784 19.8507 12.3767 19.4587 12.89C19.076 13.4033 18.4973 13.744 17.7227 13.912L20.1727 18H18.6467ZM14.7827 12.988H16.6587C17.3493 12.988 17.8673 12.82 18.2127 12.484C18.558 12.1387 18.7307 11.6813 18.7307 11.112C18.7307 10.5333 18.558 10.0853 18.2127 9.768C17.8767 9.45067 17.3587 9.292 16.6587 9.292H14.7827V12.988ZM21.5502 14.136C21.5502 13.352 21.7089 12.666 22.0262 12.078C22.3436 11.4807 22.7776 11.0187 23.3282 10.692C23.8882 10.3653 24.5089 10.202 25.1902 10.202C25.8622 10.202 26.4456 10.3467 26.9402 10.636C27.4349 10.9253 27.8036 11.2893 28.0462 11.728V10.328H29.3342V18H28.0462V16.572C27.7942 17.02 27.4162 17.3933 26.9122 17.692C26.4176 17.9813 25.8389 18.126 25.1762 18.126C24.4949 18.126 23.8789 17.958 23.3282 17.622C22.7776 17.286 22.3436 16.8147 22.0262 16.208C21.7089 15.6013 21.5502 14.9107 21.5502 14.136ZM28.0462 14.15C28.0462 13.5713 27.9296 13.0673 27.6962 12.638C27.4629 12.2087 27.1456 11.882 26.7442 11.658C26.3522 11.4247 25.9182 11.308 25.4422 11.308C24.9662 11.308 24.5322 11.42 24.1402 11.644C23.7482 11.868 23.4356 12.1947 23.2022 12.624C22.9689 13.0533 22.8522 13.5573 22.8522 14.136C22.8522 14.724 22.9689 15.2373 23.2022 15.676C23.4356 16.1053 23.7482 16.4367 24.1402 16.67C24.5322 16.894 24.9662 17.006 25.4422 17.006C25.9182 17.006 26.3522 16.894 26.7442 16.67C27.1456 16.4367 27.4629 16.1053 27.6962 15.676C27.9296 15.2373 28.0462 14.7287 28.0462 14.15ZM35.2252 10.188C36.1585 10.188 36.9145 10.4727 37.4932 11.042C38.0718 11.602 38.3612 12.414 38.3612 13.478V18H37.1012V13.66C37.1012 12.8947 36.9098 12.3113 36.5272 11.91C36.1445 11.4993 35.6218 11.294 34.9592 11.294C34.2872 11.294 33.7505 11.504 33.3492 11.924C32.9572 12.344 32.7612 12.9553 32.7612 13.758V18H31.4872V10.328H32.7612V11.42C33.0132 11.028 33.3538 10.7247 33.7832 10.51C34.2218 10.2953 34.7025 10.188 35.2252 10.188ZM44.7263 18L41.7163 14.612V18H40.4423V7.64H41.7163V13.73L44.6703 10.328H46.4483L42.8363 14.15L46.4623 18H44.7263Z" fill="white"/>
</svg>