<svg width="14" height="18" viewBox="0 0 14 18" fill="none" xmlns="http://www.w3.org/2000/svg">
<path d="M0 1C0 0.447716 0.447715 0 1 0H13C13.5523 0 14 0.447715 14 1V15.8258C14 16.6801 12.9979 17.141 12.3492 16.585L7.65079 12.5578C7.2763 12.2368 6.7237 12.2368 6.34921 12.5578L1.65079 16.585C1.00212 17.141 0 16.6801 0 15.8258V1Z" fill="#A0A0A0"/>
<path d="M5.48613 4.808C5.50746 4.23733 5.69413 3.79733 6.04613 3.488C6.39813 3.17867 6.87546 3.024 7.47813 3.024C7.87813 3.024 8.21946 3.09333 8.50213 3.232C8.79013 3.37067 9.00613 3.56 9.15013 3.8C9.29946 4.04 9.37413 4.30933 9.37413 4.608C9.37413 4.96 9.28613 5.248 9.11013 5.472C8.93413 5.69067 8.72879 5.84 8.49413 5.92V5.952C8.79813 6.05333 9.03813 6.22133 9.21413 6.456C9.39013 6.69067 9.47813 6.992 9.47813 7.36C9.47813 7.69067 9.40079 7.984 9.24613 8.24C9.09679 8.49067 8.87546 8.688 8.58213 8.832C8.29413 8.976 7.95013 9.048 7.55013 9.048C6.91013 9.048 6.39813 8.89067 6.01413 8.576C5.63546 8.26133 5.43546 7.78667 5.41413 7.152H6.74213C6.74746 7.38667 6.81413 7.57333 6.94213 7.712C7.07013 7.84533 7.25679 7.912 7.50213 7.912C7.71013 7.912 7.87013 7.85333 7.98213 7.736C8.09946 7.61333 8.15813 7.45333 8.15813 7.256C8.15813 7 8.07546 6.816 7.91013 6.704C7.75013 6.58667 7.49146 6.528 7.13412 6.528H6.87813V5.416H7.13412C7.40613 5.416 7.62479 5.37067 7.79013 5.28C7.96079 5.184 8.04613 5.016 8.04613 4.776C8.04613 4.584 7.99279 4.43467 7.88613 4.328C7.77946 4.22133 7.63279 4.168 7.44613 4.168C7.24346 4.168 7.09146 4.22933 6.99013 4.352C6.89413 4.47467 6.83813 4.62667 6.82213 4.808H5.48613Z" fill="white"/>
</svg>