<svg width="12" height="12" viewBox="0 0 12 12" fill="none" xmlns="http://www.w3.org/2000/svg">
<path fill-rule="evenodd" clip-rule="evenodd" d="M5.99995 10.8002C8.65092 10.8002 10.8 8.65116 10.8 6.0002C10.8 3.34923 8.65092 1.2002 5.99995 1.2002C3.34898 1.2002 1.19995 3.34923 1.19995 6.0002C1.19995 8.65116 3.34898 10.8002 5.99995 10.8002ZM6.59995 4.2002C6.59995 3.86882 6.33132 3.6002 5.99995 3.6002C5.66858 3.6002 5.39995 3.86882 5.39995 4.2002V6.35167L4.62422 5.57593C4.3899 5.34162 4.01 5.34162 3.77569 5.57593C3.54137 5.81025 3.54137 6.19015 3.77569 6.42446L5.57569 8.22446C5.81 8.45877 6.1899 8.45877 6.42422 8.22446L8.22422 6.42446C8.45853 6.19014 8.45853 5.81025 8.22422 5.57593C7.9899 5.34162 7.61 5.34162 7.37569 5.57593L6.59995 6.35167V4.2002Z" fill="#1D9E54"/>
</svg>
