<svg width="20" height="20" viewBox="0 0 20 20" fill="none" xmlns="http://www.w3.org/2000/svg">
<g clip-path="url(#clip0_325_6803)">
<path d="M10 19.375C15.1777 19.375 19.375 15.1777 19.375 10C19.375 4.82233 15.1777 0.625 10 0.625C4.82233 0.625 0.625 4.82233 0.625 10C0.625 15.1777 4.82233 19.375 10 19.375Z" fill="#2A5F9E"/>
<path d="M10 3.6875L10.2188 4.375H10.9375L10.375 4.8125L10.5938 5.5L10 5.0625L9.40625 5.5L9.625 4.8125L9.0625 4.375H9.78125L10 3.6875ZM10 14.3125L10.2188 15H10.9375L10.375 15.4062L10.5938 16.125L10 15.6875L9.40625 16.125L9.625 15.4062L9.0625 15H9.78125L10 14.3125ZM12.625 13.4375L12.8437 14.125H13.5938L13 14.5625L13.2187 15.25L12.625 14.8125L12.0312 15.25L12.2812 14.5625L11.6875 14.125H12.4063L12.625 13.4375ZM14.4375 11.625L14.6563 12.3125H15.4062L14.8125 12.75L15.0312 13.4375L14.4375 13L13.8437 13.4375L14.0937 12.75L13.5 12.3125H14.2188L14.4375 11.625ZM15.3125 9L15.5313 9.6875H16.25L15.6562 10.125L15.875 10.8125L15.3125 10.375L14.7187 10.8125L14.9375 10.125L14.3438 9.6875H15.0625L15.3125 9ZM14.4375 6.34375L14.6563 7.0625H15.4062L14.8125 7.46875L15.0312 8.15625L14.4375 7.75L13.8437 8.15625L14.0937 7.46875L13.5 7.0625H14.2188L14.4375 6.34375ZM12.625 4.53125L12.8437 5.25H13.5938L13 5.65625L13.2187 6.34375L12.625 5.9375L12.0312 6.34375L12.2812 5.65625L11.6875 5.25H12.4063L12.625 4.53125ZM7.375 13.4375L7.15625 14.125H6.40625L7 14.5625L6.78125 15.25L7.375 14.8125L7.96875 15.25L7.71875 14.5625L8.3125 14.125H7.59375L7.375 13.4375ZM5.5625 11.625L5.34375 12.3125H4.59375L5.1875 12.75L4.96875 13.4375L5.5625 13L6.15625 13.4375L5.90625 12.75L6.5 12.3125H5.78125L5.5625 11.625ZM4.6875 9L4.46875 9.6875H3.75L4.34375 10.125L4.125 10.8125L4.6875 10.375L5.28125 10.8125L5.0625 10.125L5.65625 9.6875H4.9375L4.6875 9ZM5.5625 6.34375L5.34375 7.0625H4.59375L5.1875 7.46875L4.96875 8.15625L5.5625 7.75L6.15625 8.15625L5.90625 7.46875L6.5 7.0625H5.78125L5.5625 6.34375ZM7.375 4.53125L7.15625 5.25H6.40625L7 5.65625L6.78125 6.34375L7.375 5.9375L7.96875 6.34375L7.71875 5.65625L8.3125 5.25H7.59375L7.375 4.53125Z" fill="#FFCE31"/>
</g>
<defs>
<clipPath id="clip0_325_6803">
<rect width="20" height="20" fill="white"/>
</clipPath>
</defs>
</svg>