<svg width="19" height="18" viewBox="0 0 19 18" fill="none" xmlns="http://www.w3.org/2000/svg">
<path d="M10.632 14.072C11.544 14.072 12.344 13.872 13.032 13.472C13.72 13.072 14.264 12.488 14.664 11.72H18.504C17.944 13.432 16.96 14.768 15.552 15.728C14.16 16.672 12.528 17.144 10.656 17.144C8.736 17.144 7.048 16.632 5.592 15.608C4.152 14.568 3.152 13.184 2.592 11.456H0.552V9.464H2.208C2.176 9.08 2.16 8.792 2.16 8.6C2.16 8.376 2.176 8.072 2.208 7.688H0.552V5.696H2.616C3.176 3.968 4.176 2.592 5.616 1.568C7.072 0.544 8.752 0.0319996 10.656 0.0319996C12.528 0.0319996 14.16 0.512 15.552 1.472C16.96 2.432 17.944 3.76 18.504 5.456H14.664C14.264 4.688 13.72 4.112 13.032 3.728C12.344 3.328 11.544 3.128 10.632 3.128C9.656 3.128 8.784 3.352 8.016 3.8C7.264 4.248 6.68 4.88 6.264 5.696H10.872V7.688H5.664C5.632 8.072 5.616 8.376 5.616 8.6C5.616 8.792 5.632 9.08 5.664 9.464H10.872V11.456H6.24C6.656 12.272 7.248 12.912 8.016 13.376C8.784 13.84 9.656 14.072 10.632 14.072Z" fill="black"/>
</svg>
