<svg width="34" height="34" viewBox="0 0 34 34" fill="none" xmlns="http://www.w3.org/2000/svg">
<circle cx="17" cy="17" r="13" fill="#0051FF"/>
<circle cx="17" cy="17" r="16.5" stroke="#CBD7F1"/>
<path d="M12.3285 17.656C12.1837 17.6559 12.0427 17.7029 11.927 17.7899C11.8113 17.877 11.7271 17.9994 11.6871 18.1386C11.6471 18.2778 11.6535 18.4262 11.7053 18.5614C11.7572 18.6966 11.8517 18.8113 11.9745 18.888L13.7665 20.68C13.8284 20.7419 13.9019 20.791 13.9828 20.8245C14.0638 20.858 14.1505 20.8752 14.238 20.8751C14.3256 20.8751 14.4123 20.8578 14.4932 20.8243C14.5741 20.7908 14.6476 20.7416 14.7095 20.6797C14.7714 20.6177 14.8205 20.5442 14.8539 20.4633C14.8874 20.3824 14.9046 20.2957 14.9046 20.2081C14.9046 20.1205 14.8873 20.0338 14.8538 19.953C14.8202 19.8721 14.7711 19.7986 14.7091 19.7367L13.9618 18.99H18.9951C19.1719 18.99 19.3415 18.9198 19.4665 18.7948C19.5916 18.6697 19.6618 18.5002 19.6618 18.3233C19.6618 18.1465 19.5916 17.977 19.4665 17.8519C19.3415 17.7269 19.1719 17.6567 18.9951 17.6567H12.3285V17.656ZM21.6711 16.344C21.816 16.3442 21.9569 16.2971 22.0726 16.2101C22.1883 16.123 22.2726 16.0006 22.3125 15.8615C22.3525 15.7223 22.3461 15.5738 22.2943 15.4386C22.2424 15.3034 22.1479 15.1888 22.0251 15.112L20.2331 13.32C20.108 13.195 19.9384 13.1248 19.7616 13.1249C19.5847 13.1249 19.4151 13.1953 19.2901 13.3203C19.1651 13.4454 19.0949 13.6151 19.095 13.7919C19.0951 13.9688 19.1654 14.1383 19.2905 14.2633L20.0378 15.01H15.0045C14.8277 15.01 14.6581 15.0803 14.5331 15.2053C14.408 15.3303 14.3378 15.4999 14.3378 15.6767C14.3378 15.8535 14.408 16.0231 14.5331 16.1481C14.6581 16.2731 14.8277 16.3433 15.0045 16.3433H21.6711V16.344Z" fill="white"/>
</svg>