<svg width="1140" height="420" viewBox="0 0 1140 420" fill="none" xmlns="http://www.w3.org/2000/svg">
<rect width="1140" height="420" rx="50" fill="#002D8E"/>
<mask id="mask0_323_4014" style="mask-type:alpha" maskUnits="userSpaceOnUse" x="0" y="0" width="1140" height="420">
<rect width="1140" height="420" rx="50" fill="#002D8E" fill-opacity="0.18"/>
</mask>
<g mask="url(#mask0_323_4014)">
<path d="M-125.5 97.5C-117.347 105.663 -25.848 151.992 -7.07883 108.356C16.3826 53.8113 196.169 -124.316 299 -12.9999" stroke="white"/>
<path d="M-158 207.4C-149.847 215.563 -58.348 261.892 -39.5788 218.256C-16.1174 163.712 312.169 -108.316 415 3" stroke="white"/>
<path d="M-180 206.467C-168.09 214.968 -34.435 263.217 -7.01829 217.773C27.2526 160.967 506.792 -122.338 657 -6.4075" stroke="white"/>
<path d="M-361 300.608C-342.773 312.968 -138.218 383.117 -96.2574 317.046C-43.807 234.457 690.111 -177.432 920 -8.88396" stroke="white"/>
<path d="M279 419.608C297.227 431.968 501.782 502.117 543.743 436.046C596.193 353.457 1330.11 -58.4322 1560 110.116" stroke="white"/>
<path d="M-361 353.031C-339.713 368.058 -100.826 453.34 -51.8236 373.015C9.42993 272.609 866.527 -228.14 1135 -23.2295" stroke="white"/>
<path d="M279 472.031C300.287 487.058 539.174 572.34 588.176 492.015C649.43 391.609 1506.53 -109.14 1775 95.7705" stroke="white"/>
<path d="M-240 353.031C-218.23 368.058 26.0866 453.34 76.2031 373.015C138.849 272.609 1015.43 -228.14 1290 -23.2295" stroke="white"/>
<path d="M400 472.031C421.77 487.058 666.087 572.34 716.203 492.015C778.849 391.609 1655.43 -109.14 1930 95.7705" stroke="white"/>
<path d="M-67 427.567C-45.2295 445.229 199.087 545.466 249.203 451.055C311.849 333.041 1188.43 -255.521 1463 -14.6768" stroke="white"/>
</g>
</svg>