<svg width="46" height="43" viewBox="0 0 46 43" fill="none" xmlns="http://www.w3.org/2000/svg">
<path fill-rule="evenodd" clip-rule="evenodd" d="M22.0626 0.996216L27.6652 0.996216C37.3039 0.996216 45.1299 10.0831 45.1299 21.2753C45.1299 31.6021 38.4782 40.2963 29.877 41.5543C29.1558 41.6602 22.1005 41.5543 22.1005 41.5543C12.4617 41.5543 4.63574 32.4675 4.63574 21.2753C4.63574 10.0976 12.4413 1.01948 22.0626 0.996216Z" fill="#FDA425"/>
<path d="M22.1001 41.5544C31.7454 41.5544 39.5644 32.4752 39.5644 21.2753C39.5644 10.0755 31.7454 0.996216 22.1001 0.996216C12.4548 0.996216 4.63574 10.0755 4.63574 21.2753C4.63574 32.4752 12.4548 41.5544 22.1001 41.5544Z" fill="#FFCD80"/>
<path fill-rule="evenodd" clip-rule="evenodd" d="M22.144 9.23395L21.5409 9.20038L21.5548 8.30057L22.6068 8.35912C22.856 8.37299 23.0539 8.58568 23.0501 8.83409L23.0266 10.3559C23.9468 10.4485 24.8281 10.6457 25.6692 10.9465C26.7439 11.3306 27.7546 11.8843 28.7 12.6066C28.8072 12.6876 28.8739 12.8106 28.8852 12.9421C28.8952 13.0735 28.8487 13.2008 28.7557 13.2909L26.6962 15.2872C26.5409 15.4373 26.2962 15.4487 26.1163 15.3136C25.1838 14.6142 24.1354 14.1614 22.9712 13.9542L22.8931 19.0252C27.2231 20.188 29.2783 22.3854 29.1713 25.4969C29.12 27.1875 28.4689 28.5541 27.2253 29.5923C26.0885 30.5778 24.5831 31.1694 22.7033 31.3525L22.663 33.9673C22.6592 34.2154 22.4551 34.4051 22.2059 34.3912L21.1732 34.3337L21.187 33.4349L21.7708 33.4674L21.8102 30.9093C21.8137 30.6814 21.9864 30.4996 22.2131 30.4852C24.0618 30.3649 25.5336 29.8435 26.6276 28.8961C27.682 28.0157 28.2287 26.8607 28.2724 25.4315C28.3685 22.6321 26.3523 20.7996 22.3462 19.8059C22.135 19.7528 21.985 19.5587 21.9883 19.3434L22.0797 13.41C22.0816 13.286 22.1352 13.1706 22.2268 13.0901C22.3184 13.0105 22.4406 12.9731 22.5644 12.9886C23.9558 13.1536 25.2076 13.6158 26.3187 14.3733L27.7374 12.9985C26.9983 12.4897 26.219 12.0875 25.3971 11.7944C24.4997 11.4732 23.5545 11.282 22.5592 11.2179C22.3125 11.2023 22.1169 10.9903 22.1207 10.7432L22.144 9.23395ZM22.7593 27.7138C23.416 27.5522 23.8982 27.3 24.1917 26.9362C24.3748 26.7011 24.5103 26.4325 24.598 26.1314L25.4622 26.4191C25.3415 26.8261 25.1564 27.1891 24.9044 27.5138C24.423 28.1095 23.5914 28.525 22.3874 28.713C22.2545 28.7335 22.1166 28.6931 22.012 28.6017C21.9086 28.5103 21.8492 28.378 21.8513 28.2425L21.9002 25.0624L22.7994 25.1124L22.7593 27.7138ZM18.0346 14.7166C18.1985 14.3188 18.4096 13.9918 18.6629 13.7336C18.669 13.7272 18.6764 13.7209 18.6825 13.7145C19.253 13.2026 19.9258 12.9264 20.6987 12.8857C20.8253 12.8793 20.9523 12.9277 21.046 13.0176C21.1398 13.1085 21.1921 13.2336 21.1901 13.3605L21.15 15.9648L20.2509 15.9147L20.2825 13.8613C19.9221 13.9548 19.5977 14.1301 19.3082 14.3873C19.1283 14.5735 18.9824 14.8108 18.8648 15.0957C18.8623 15.1033 18.8586 15.1108 18.8548 15.1183C18.7142 15.4126 18.6459 15.7754 18.6394 16.2012L17.7402 16.1512C17.7489 15.5869 17.8502 15.1095 18.0346 14.7166Z" fill="#FDA31F"/>
<path fill-rule="evenodd" clip-rule="evenodd" d="M18.3837 18.0745C17.9485 17.5442 17.7307 16.9048 17.7423 16.152L18.6414 16.2021C18.6335 16.7183 18.7725 17.159 19.0717 17.5221L19.0823 17.5352C19.3161 17.8407 19.6966 18.0928 20.2161 18.3103L20.2529 15.9156L21.1521 15.9656L21.1059 18.9679C21.1037 19.1073 21.0367 19.2354 20.9246 19.3148C20.8138 19.3933 20.6689 19.415 20.5346 19.372C19.4965 19.039 18.7865 18.5944 18.3837 18.0745Z" fill="#FDA31F"/>
<path fill-rule="evenodd" clip-rule="evenodd" d="M22.8604 22.9509L22.8272 25.1033L21.9281 25.0533L21.9696 22.3548C21.9717 22.2231 22.0314 22.1013 22.1326 22.0213C22.235 21.9414 22.368 21.9113 22.4977 21.9397C23.75 22.2143 24.5815 22.6656 25.021 23.2318L25.0304 23.2458C25.4574 23.8392 25.6675 24.509 25.656 25.2569C25.6495 25.6751 25.593 26.0597 25.49 26.41L24.6259 26.1223C24.7085 25.844 24.7517 25.5385 24.7568 25.2069C24.7651 24.6695 24.6183 24.1879 24.3141 23.7611C24.0376 23.409 23.5488 23.1489 22.8604 22.9509Z" fill="#FDA31F"/>
<path fill-rule="evenodd" clip-rule="evenodd" d="M20.1824 22.2774C16.0199 21.1153 14.0674 18.9784 14.2086 15.9872C14.2726 14.1828 14.8733 12.8029 15.9833 11.8351C16.9993 10.9497 18.4569 10.4083 20.3678 10.2376L20.3919 8.67347C20.3957 8.42506 20.5998 8.23475 20.8478 8.24855L21.5845 8.28955L21.5706 9.18937L21.2841 9.17342L21.2609 10.6827C21.2574 10.9115 21.0835 11.0943 20.8556 11.1076C18.9805 11.2216 17.5542 11.683 16.5883 12.525C15.648 13.3453 15.1624 14.5258 15.1074 16.0613C14.9806 18.7406 16.8978 20.5118 20.7328 21.5027C20.9416 21.5566 21.0904 21.7497 21.0872 21.9631L20.9914 28.182C20.9894 28.3089 20.9334 28.426 20.8394 28.5064C20.7442 28.5868 20.6184 28.6211 20.4922 28.6026C19.3684 28.4342 18.4189 28.1292 17.6449 27.6946C16.9636 27.3487 16.3556 26.9329 15.8197 26.4461L14.0749 27.8018C14.8975 28.4384 15.8119 28.9877 16.8143 29.4505C17.9844 29.9774 19.217 30.2846 20.5131 30.3741C20.7598 30.3917 20.9541 30.6026 20.9503 30.8487L20.9109 33.4068L21.2167 33.4239L21.2028 34.3227L20.4469 34.2806C20.1989 34.2668 20.001 34.0547 20.0048 33.8067L20.0445 31.2342C18.7984 31.1032 17.6082 30.7811 16.4704 30.2684C15.1989 29.6819 14.0666 28.9665 13.0688 28.123C12.9642 28.0344 12.9023 27.903 12.902 27.7673C12.9005 27.6316 12.9615 27.5051 13.0663 27.4234L15.5525 25.4921C15.7281 25.3547 15.9856 25.3758 16.1493 25.5417C16.6843 26.0824 17.3134 26.534 18.0331 26.8983L18.0522 26.908C18.6255 27.2315 19.3085 27.4696 20.1 27.6263L20.1824 22.2774Z" fill="#FDA31F"/>
<path fill-rule="evenodd" clip-rule="evenodd" d="M21.239 5.02992C28.2835 5.02992 33.9415 12.3562 33.9415 21.3212C33.9415 30.2856 28.2835 37.6119 21.239 37.6119C20.9822 37.6119 20.7734 37.8203 20.7734 38.0771C20.7734 38.3339 20.9822 38.5428 21.239 38.5428C28.7293 38.5428 34.8717 30.8527 34.8717 21.3212C34.8717 11.7892 28.7293 4.09955 21.239 4.09955C20.9822 4.09955 20.7734 4.30794 20.7734 4.56474C20.7734 4.82153 20.9822 5.02992 21.239 5.02992Z" fill="#FDA425"/>
<path fill-rule="evenodd" clip-rule="evenodd" d="M21.2562 37.612C14.2112 37.612 8.55362 30.2856 8.55362 21.3212C8.55362 12.3563 14.2112 5.02998 21.2562 5.02998C21.513 5.02998 21.7213 4.82159 21.7213 4.5648C21.7213 4.308 21.513 4.09961 21.2562 4.09961C13.7658 4.09961 7.62305 11.7892 7.62305 21.3212C7.62305 30.8527 13.7658 38.5428 21.2562 38.5428C21.513 38.5428 21.7213 38.3339 21.7213 38.0771C21.7213 37.8204 21.513 37.612 21.2562 37.612Z" fill="#FDA425"/>
<path fill-rule="evenodd" clip-rule="evenodd" d="M34.885 39.9107H28.2211C27.9647 39.9107 27.7559 39.7019 27.7559 39.4455C27.7559 39.1884 27.9647 38.9802 28.2211 38.9802H36.2256C36.2797 38.9802 36.3315 38.9895 36.3797 39.0064C35.8959 39.335 35.3974 39.6368 34.885 39.9107ZM42.4876 32.0761C42.319 32.3919 42.1439 32.7025 41.9613 33.0066H35.562C35.305 33.0066 35.0968 32.7984 35.0968 32.5414C35.0968 32.2843 35.305 32.0761 35.562 32.0761H42.4876ZM43.7503 29.2356C43.6363 29.5502 43.5153 29.8602 43.3891 30.1661H36.2256C35.9686 30.1661 35.7603 29.9579 35.7603 29.7008C35.7603 29.4444 35.9686 29.2356 36.2256 29.2356H43.7503ZM45.0816 19.7911C45.1013 20.0999 45.1147 20.4099 45.1223 20.7216H38.7323C38.4752 20.7216 38.267 20.5134 38.267 20.2563C38.267 19.9998 38.4752 19.7911 38.7323 19.7911H45.0816ZM44.0649 14.3136C44.1615 14.6207 44.2528 14.9312 44.3371 15.2441H37.3754C37.119 15.2441 36.9102 15.0359 36.9102 14.7789C36.9102 14.5224 37.119 14.3136 37.3754 14.3136H44.0649ZM43.11 11.8273C43.249 12.1332 43.3821 12.4432 43.5078 12.7578H37.1248C36.8683 12.7578 36.6595 12.5496 36.6595 12.2925C36.6595 12.0361 36.8683 11.8273 37.1248 11.8273H43.11ZM36.92 4.09962C37.3213 4.39159 37.7116 4.70158 38.0908 5.03018H30.7278C30.4713 5.03018 30.2625 4.82138 30.2625 4.5649C30.2625 4.30784 30.4713 4.09962 30.7278 4.09962H36.92Z" fill="#FFCD80"/>
</svg>