<svg width="212" height="166" viewBox="0 0 212 166" fill="none" xmlns="http://www.w3.org/2000/svg">
<path fill-rule="evenodd" clip-rule="evenodd" d="M58.6032 74.27C58.6032 74.27 38.0453 71.9609 30.0847 86.8188C27.4058 91.818 7.55037 138.178 5.44555 156.449C5.44555 156.449 0.664094 157.961 0 160.416H28.1668C28.4653 160.416 28.7346 160.236 28.8497 159.961C30.9049 155.044 48.9405 111.891 48.9405 111.891C48.9405 111.891 51.2595 151.008 51.733 159C51.7805 159.795 52.4393 160.416 53.2358 160.416C58.5754 160.416 77.1738 160.416 77.1738 160.416C77.1738 160.416 76.5138 157.837 71.6836 156.449C71.6836 156.449 74.2956 95.6004 67.0445 80.3654L58.6032 74.27Z" fill="url(#paint0_linear_323_8563)"/>
<path fill-rule="evenodd" clip-rule="evenodd" d="M44.9434 121.413L47.4858 95.7616C47.5032 95.5833 47.6548 95.449 47.8343 95.4536C48.0126 95.4582 48.1573 95.6006 48.1654 95.7801L48.8902 111.97L44.9434 121.413Z" fill="#13524E"/>
<path fill-rule="evenodd" clip-rule="evenodd" d="M72.1041 132.983C72.1041 133.372 72.1029 133.758 72.1018 134.141H50.2235L50.1551 132.983H72.1041ZM11.5858 132.983H40.0793L39.5955 134.141H11.1973L11.2034 134.123C11.3262 133.754 11.4498 133.387 11.5739 133.019L11.5858 132.983Z" fill="#82B5B2"/>
<path d="M42.7791 38.614C46.9576 38.614 50.3449 35.2267 50.3449 31.0482C50.3449 26.8697 46.9576 23.4824 42.7791 23.4824C38.6007 23.4824 35.2134 26.8697 35.2134 31.0482C35.2134 35.2267 38.6007 38.614 42.7791 38.614Z" fill="#A8CFCC"/>
<path fill-rule="evenodd" clip-rule="evenodd" d="M42.2203 23.4824C42.6024 25.0245 43.1546 28.9132 40.2801 32.3492C39.9754 31.8557 39.4239 31.5258 38.7949 31.5258C37.8362 31.5258 37.0579 32.292 37.0579 33.2356C37.0579 34.1793 37.8362 34.9455 38.7949 34.9455C38.9607 34.9455 39.1212 34.9224 39.2732 34.8796C39.2948 35.4755 39.1407 36.3086 38.41 37.2036C36.4765 35.8328 35.2134 33.5766 35.2134 31.0278C35.2134 27.04 38.3052 23.7687 42.2203 23.4824Z" fill="black"/>
<path fill-rule="evenodd" clip-rule="evenodd" d="M36.5882 34.9114C36.3731 35.0376 35.8314 35.0186 35.585 35.068C34.7769 35.23 33.9734 35.4179 33.1734 35.6156C30.6991 36.2271 28.26 36.9628 25.9518 38.0558C24.2725 38.8509 22.5142 39.8575 21.7196 41.6196C20.5646 44.181 22.6173 46.48 25.286 46.2394C27.8597 46.0074 29.8796 44.1427 31.5945 42.3892C33.6009 40.3375 35.8919 38.126 37.4302 35.6775" fill="black"/>
<path fill-rule="evenodd" clip-rule="evenodd" d="M27.8063 51.8561C26.5258 53.2204 15.2608 65.5361 6.79658 75.0375C3.95681 78.2513 3.69955 82.9958 6.1752 86.498C6.17486 86.4992 6.17497 86.4992 6.17497 86.4992C8.34937 89.5754 12.285 90.8593 15.8552 89.6576C19.7236 88.3539 25.0068 85.3437 31.1552 78.5998C34.2783 75.1738 36.7612 72.0456 38.81 70.1306C38.81 70.1306 47.7982 73.0221 52.4211 68.0659C52.4211 68.0659 63.707 82.4864 74.6294 88.2347C78.949 90.4808 84.2713 88.9733 86.7709 84.795C87.9344 82.8661 88.423 80.5436 87.1136 78.022C81.3803 66.9773 72.3775 58.6203 58.6175 45.3902C55.9465 42.8213 51.2761 39.1522 42.2305 41.2461C38.8223 42.035 34.6681 44.5451 27.8063 51.8561Z" fill="#A8CFCC"/>
<path fill-rule="evenodd" clip-rule="evenodd" d="M47.6292 60.9094C47.6292 60.9094 47.9256 60.833 48.2752 60.8646C48.5716 60.8913 48.9224 60.9961 49.103 61.3691C49.345 61.8708 48.9791 62.2849 48.4211 62.7081C47.29 63.5665 45.2974 64.3171 43.533 65.0355C43.2957 65.1319 43.1822 65.4023 43.2783 65.6391C43.3744 65.8757 43.6453 65.9898 43.8815 65.8933C45.7258 65.143 47.7994 64.3427 48.9815 63.4459C49.9679 62.6977 50.365 61.8541 49.9366 60.9666C49.587 60.2424 48.934 59.9942 48.3586 59.9421C47.8364 59.8949 47.393 60.014 47.393 60.014C47.1452 60.0793 46.9982 60.3329 47.063 60.58C47.129 60.8272 47.3826 60.9748 47.6292 60.9094Z" fill="#82B5B2"/>
<path fill-rule="evenodd" clip-rule="evenodd" d="M51.2134 59.0694C51.2134 59.0694 51.7644 58.5351 52.5147 58.1087C52.9836 57.8425 53.5324 57.6112 54.0707 57.614C54.2907 57.6143 54.4979 57.7098 54.6403 57.8756C54.7827 58.0413 54.8453 58.2608 54.8117 58.4766C54.7214 58.9966 54.4736 59.7025 53.8345 60.3761C52.9558 61.3029 50.7317 64.1011 43.6485 64.998C43.395 65.0301 43.2155 65.2621 43.2479 65.5156C43.2803 65.7692 43.5119 65.949 43.7654 65.9169C51.2411 64.97 53.5787 61.992 54.5072 61.0135C55.306 60.1718 55.6105 59.2879 55.7263 58.6266C55.8016 58.1345 55.6615 57.6436 55.3443 57.2729C55.0259 56.9022 54.5628 56.6885 54.0742 56.6878C53.3795 56.6843 52.6629 56.9594 52.0574 57.3032C51.1971 57.7918 50.5673 58.4053 50.5673 58.4053C50.3844 58.5835 50.3798 58.877 50.5581 59.0603C50.7363 59.2434 51.0293 59.2476 51.2134 59.0694Z" fill="#82B5B2"/>
<path fill-rule="evenodd" clip-rule="evenodd" d="M52.3791 62.077C52.3791 62.077 51.1924 65.1059 50.0207 66.2765C49.8401 66.4573 49.8401 66.7508 50.0207 66.9315C50.2013 67.1123 50.4954 67.1123 50.676 66.9316C51.938 65.67 53.2405 62.4183 53.2405 62.4183C53.3342 62.1807 53.2185 61.9113 52.98 61.8171C52.7426 61.7229 52.4729 61.8394 52.3791 62.077Z" fill="#82B5B2"/>
<path fill-rule="evenodd" clip-rule="evenodd" d="M48.8042 64.1008V65.1908C48.8042 65.4465 49.0114 65.6539 49.2673 65.6539C49.522 65.6539 49.7304 65.4465 49.7304 65.1908V64.1008C49.7304 63.8453 49.522 63.6377 49.2673 63.6377C49.0114 63.6377 48.8042 63.8453 48.8042 64.1008Z" fill="#82B5B2"/>
<path fill-rule="evenodd" clip-rule="evenodd" d="M52.1549 46.6088C52.1549 46.6088 51.4139 46.9158 51.0655 47.7604C50.8513 48.2788 50.7725 49.0156 51.1778 50.0278C51.6455 51.194 52.8484 54.646 51.2136 57.3032C51.0793 57.5208 51.1477 57.8062 51.3642 57.9403C51.583 58.0742 51.8678 58.0063 52.0021 57.7886C53.8244 54.8283 52.5578 50.9826 52.0368 49.6831C51.7566 48.9816 51.7729 48.4732 51.921 48.114C52.1167 47.6422 52.5184 47.4604 52.5184 47.4604C52.7535 47.3599 52.8635 47.0875 52.7627 46.8525C52.662 46.6176 52.3899 46.5083 52.1549 46.6088Z" fill="#82B5B2"/>
<path fill-rule="evenodd" clip-rule="evenodd" d="M34.4641 74.8567C33.4466 76.0272 32.3475 77.2915 31.1552 78.5998C25.0068 85.3437 19.7236 88.3539 15.8552 89.6576C12.285 90.8593 8.34937 89.5754 6.17497 86.4992C6.17497 86.4992 6.17486 86.4992 6.1752 86.498C3.69955 82.9958 3.95681 78.2513 6.79658 75.0375C15.2608 65.5361 26.5258 53.2204 27.8063 51.8561C34.6681 44.5451 38.8223 42.035 42.2305 41.2461C51.2761 39.1522 55.9465 42.8213 58.6175 45.3902C72.3775 58.6203 81.3803 66.9773 87.1136 78.022C88.423 80.5436 87.9344 82.8661 86.7709 84.795C84.7517 88.1699 80.8906 89.8023 77.2043 89.1215L74.0725 87.9348C70.3005 85.8508 66.5076 82.7816 63.1721 79.6742C61.2734 77.7013 59.9721 76.1986 59.9721 76.1986L65.505 62.5352L56.5937 56.2163C56.2186 53.6313 56.0704 51.9791 55.2704 50.2661C55.0527 49.7974 54.7853 49.3243 54.4507 48.8262C52.8958 46.5073 51.9163 47.8876 51.9163 47.8876C51.1939 46.9958 50.5235 46.585 50.0766 46.3964C49.8405 46.3025 49.5753 46.319 49.353 46.4415C49.1319 46.564 48.9768 46.7796 48.9304 47.0289C48.8228 47.6418 49.1979 48.3329 49.4005 48.6501C49.463 48.7462 49.5348 48.8361 49.6147 48.9186C54.0061 53.4584 51.5783 58.5543 51.5783 58.5543C49.4086 61.2249 45.5347 61.1616 45.5347 61.1616C42.7017 61.3896 40.9199 60.5162 39.9094 59.7197C38.4068 58.5389 36.4195 58.1726 34.5947 58.7403C30.1407 60.1597 25.3348 64.388 25.3348 64.388L34.4641 74.8567Z" fill="url(#paint1_linear_323_8563)"/>
<path fill-rule="evenodd" clip-rule="evenodd" d="M38.8423 70.1051L43.3822 65.0277C43.3822 65.0277 48.8527 67.5252 50.5858 65.5713L52.7845 68.4674C52.5587 68.1885 52.4406 68.0364 52.4406 68.0364C47.9195 72.884 39.2211 70.224 38.8423 70.1051Z" fill="#82B5B2"/>
<path fill-rule="evenodd" clip-rule="evenodd" d="M26.3789 63.5278C25.7377 64.037 25.3604 64.3689 25.3604 64.3689L26.1074 65.2255L12.5318 76.4793C12.2858 76.6831 11.9206 76.6484 11.7166 76.4029C11.5127 76.1563 11.5469 75.7916 11.7929 75.5878L26.2363 63.6147C26.2805 63.5781 26.3286 63.5491 26.3789 63.5278ZM64.8637 62.0432C64.9853 62.0508 65.1069 62.097 65.2064 62.1833L78.4269 73.6396C78.6678 73.8489 78.6944 74.2148 78.4848 74.4562C78.2753 74.6977 77.9094 74.7238 77.6686 74.5146L65.0872 63.6121L65.5306 62.5161L64.8637 62.0432ZM27.6957 62.5247C27.7639 61.4099 27.9572 59.2289 28.4816 57.3206C28.5381 57.1447 28.7038 57.0269 28.8886 57.0314C29.0734 57.0359 29.2331 57.1616 29.2809 57.3401C29.5655 58.3961 29.9557 59.8497 30.2185 60.8294C29.287 61.3986 28.4261 61.991 27.6957 62.5247ZM59.6052 58.3149L60.2257 55.3607C60.2489 55.2501 60.338 55.1652 60.4492 55.1469C60.5603 55.1286 60.6714 55.1806 60.7282 55.2779C61.079 56.0528 61.6069 57.5452 61.8628 59.9159L59.6052 58.3149Z" fill="#13524E"/>
<path d="M45.1153 61.386C49.1766 61.386 52.4689 58.1388 52.4689 54.1333C52.4689 50.1277 49.1766 46.8806 45.1153 46.8806C41.054 46.8806 37.7617 50.1277 37.7617 54.1333C37.7617 58.1388 41.054 61.386 45.1153 61.386Z" fill="#FFCD80"/>
<path d="M45.082 60.1939C48.4852 60.1939 51.244 57.4729 51.244 54.1164C51.244 50.7599 48.4852 48.0389 45.082 48.0389C41.6788 48.0389 38.9199 50.7599 38.9199 54.1164C38.9199 57.4729 41.6788 60.1939 45.082 60.1939Z" fill="#FFB000"/>
<path d="M43.0599 56.4501C43.7421 56.9465 44.5205 57.167 45.4078 57.1336C46.4641 57.0691 46.9628 56.6712 46.9379 55.9384C46.8992 55.3418 46.5234 54.9993 45.8106 54.911C45.4781 54.8826 45.1228 54.8553 44.7327 54.8185C44.0321 54.7409 43.481 54.5089 43.0917 54.1332C42.6903 53.7469 42.4762 53.2607 42.4382 52.6754C42.3928 51.9775 42.5835 51.4032 43.0331 50.9513C43.4599 50.5007 44.0938 50.2541 44.9228 50.201C45.9359 50.1726 46.8294 50.4099 47.6026 50.9017L46.9857 51.938C46.3577 51.5743 45.6732 51.3943 44.9451 51.4197C44.57 51.4386 44.2576 51.5447 44.02 51.7486C43.771 51.9532 43.6536 52.2527 43.6671 52.636C43.6825 52.8724 43.7866 53.0705 43.9809 53.2527C44.1752 53.4349 44.4788 53.5438 44.8817 53.6026C45.0999 53.6254 45.4097 53.655 45.7991 53.6806C46.5672 53.7435 47.1417 53.9856 47.5339 54.4063C47.9141 54.8163 48.1282 55.3024 48.1655 55.8765C48.2309 57.4092 47.3267 58.234 45.4755 58.3499C44.282 58.4101 43.2236 58.0907 42.3122 57.4026L43.0599 56.4501Z" fill="#FFCD80"/>
<path fill-rule="evenodd" clip-rule="evenodd" d="M44.6905 49.2175L44.4786 59.2957L45.8828 59.2957L45.8827 49.2175L44.6905 49.2175Z" fill="#FFCD80"/>
<path fill-rule="evenodd" clip-rule="evenodd" d="M16.365 142.89C15.666 142.764 15.1353 142.151 15.1353 141.416V138.42C15.1353 137.593 15.8065 136.922 16.6333 136.922H33.4608C34.2877 136.922 34.959 137.593 34.959 138.42V141.416C34.959 142.151 34.4283 142.764 33.7292 142.89C34.4283 143.018 34.959 143.63 34.959 144.365V147.361C34.959 148.097 34.4283 148.708 33.7292 148.835C34.4283 148.961 34.959 149.574 34.959 150.309V153.305C34.959 154.041 34.4283 154.653 33.7292 154.779C34.4283 154.907 34.959 155.518 34.959 156.253V159.249C34.959 160.076 34.2877 160.748 33.4608 160.748H16.6333C15.8065 160.748 15.1353 160.076 15.1353 159.249V156.253C15.1353 155.518 15.666 154.907 16.365 154.779C15.666 154.653 15.1353 154.041 15.1353 153.305V150.309C15.1353 149.574 15.666 148.961 16.365 148.835C15.666 148.708 15.1353 148.097 15.1353 147.361V144.365C15.1353 143.63 15.666 143.018 16.365 142.89Z" fill="#FFCD80"/>
<path fill-rule="evenodd" clip-rule="evenodd" d="M30.9573 136.922V141.716H34.8434C34.8622 141.716 34.8807 141.717 34.8989 141.718C34.7823 142.288 34.3427 142.74 33.7804 142.874H33.7505V142.881C33.7337 142.884 33.7168 142.888 33.6997 142.89C33.7168 142.894 33.7337 142.897 33.7505 142.901V147.659H34.8434C34.8622 147.659 34.8808 147.66 34.8991 147.661C34.7831 148.23 34.3455 148.681 33.785 148.817H32.5469V153.603H34.8434C34.8623 153.603 34.8809 153.603 34.8994 153.605C34.784 154.171 34.3483 154.623 33.7896 154.761H30.7189V160.748H29.5611V154.761H28.4655V160.748H27.3078V154.761H19.6186V160.748H18.4608V154.761H16.2455C15.6861 154.623 15.2498 154.17 15.1353 153.603H22.4101V148.817H16.2502C15.6888 148.681 15.2506 148.229 15.1355 147.659H16.8032V142.874H16.2548C15.6917 142.74 15.2516 142.286 15.1357 141.716H19.9981V136.922H21.1559V141.716H27.4483V136.922H28.6061V141.716H29.7995V136.922H30.9573ZM23.5678 148.817V153.603H24.443V148.817H23.5678ZM25.6008 148.817V153.603H31.3891V148.817H25.6008ZM17.961 142.874V147.659H26.5927V142.874H17.961ZM27.7505 142.874V147.659H32.5927V142.874H27.7505Z" fill="#FDA425"/>
<path fill-rule="evenodd" clip-rule="evenodd" d="M171.921 63.168C171.129 62.777 170.583 61.9608 170.583 61.0182V56.2264C170.583 54.904 171.657 53.8306 172.979 53.8306H209.363C210.685 53.8306 211.758 54.904 211.758 56.2264V61.0182C211.758 61.9608 211.213 62.777 210.42 63.168C211.213 63.5591 211.758 64.3753 211.758 65.3178V70.1096C211.758 70.9383 211.337 71.6693 210.697 72.0996C211.337 72.5299 211.758 73.2608 211.758 74.0895V78.8815C211.758 79.7105 211.337 80.4411 210.697 80.8717C211.337 81.3013 211.758 82.033 211.758 82.8608V87.6528C211.758 88.4818 211.337 89.2123 210.697 89.643C211.337 90.0737 211.758 90.8042 211.758 91.6332V96.4252C211.758 97.253 211.337 97.9847 210.697 98.4154C211.337 98.8449 211.758 99.5767 211.758 100.404V105.196C211.758 106.025 211.337 106.756 210.697 107.187C211.337 107.617 211.758 108.348 211.758 109.177V113.969C211.758 114.797 211.337 115.528 210.697 115.958C211.337 116.389 211.758 117.119 211.758 117.948V122.74C211.758 123.569 211.337 124.3 210.697 124.73C211.337 125.161 211.758 125.892 211.758 126.721V131.513C211.758 132.34 211.337 133.072 210.697 133.502C211.337 133.932 211.758 134.663 211.758 135.492V140.284C211.758 141.113 211.337 141.843 210.697 142.274C211.337 142.704 211.758 143.435 211.758 144.264V149.055C211.758 149.884 211.337 150.616 210.697 151.045C211.337 151.476 211.758 152.206 211.758 153.035V157.827C211.758 159.15 210.685 160.223 209.363 160.223H172.979C171.657 160.223 170.583 159.15 170.583 157.827V153.035C170.583 152.206 171.005 151.476 171.645 151.045C171.005 150.616 170.583 149.884 170.583 149.055V144.264C170.583 143.435 171.005 142.704 171.645 142.274C171.005 141.843 170.583 141.113 170.583 140.284V135.492C170.583 134.663 171.005 133.932 171.645 133.502C171.005 133.072 170.583 132.34 170.583 131.513V126.721C170.583 125.892 171.005 125.161 171.645 124.73C171.005 124.3 170.583 123.569 170.583 122.74V117.948C170.583 117.119 171.005 116.389 171.645 115.958C171.005 115.528 170.583 114.797 170.583 113.969V109.177C170.583 108.348 171.005 107.617 171.645 107.187C171.005 106.756 170.583 106.025 170.583 105.196V100.404C170.583 99.5767 171.005 98.8449 171.645 98.4154C171.005 97.9847 170.583 97.253 170.583 96.4252V91.6332C170.583 90.8042 171.005 90.0737 171.645 89.643C171.005 89.2123 170.583 88.4818 170.583 87.6528V82.8608C170.583 82.033 171.005 81.3013 171.645 80.8717C171.005 80.4411 170.583 79.7105 170.583 78.8815V74.0895C170.583 73.2608 171.005 72.5299 171.645 72.0996C171.005 71.6693 170.583 70.9383 170.583 70.1096V65.3178C170.583 64.3753 171.129 63.5591 171.921 63.168Z" fill="#FFCD80"/>
<path fill-rule="evenodd" clip-rule="evenodd" d="M200.598 53.8306V61.9523H205.032C205.092 61.6956 205.322 61.5039 205.596 61.5039C205.871 61.5039 206.101 61.6956 206.16 61.9523H211.595C211.386 62.4437 211.019 62.8512 210.557 63.1101H206.175V70.9727H211.624C211.445 71.4344 211.128 71.8273 210.723 72.0996C210.738 72.1096 210.752 72.1199 210.767 72.1305H209.752V79.9374C209.752 79.956 209.75 79.9745 209.749 79.993H211.511C211.325 80.3473 211.053 80.6495 210.723 80.8717C210.846 80.9539 210.96 81.0477 211.066 81.1508H204.956V88.5767H211.599C211.418 89.012 211.11 89.3825 210.723 89.643C210.766 89.6719 210.809 89.7032 210.849 89.7345H208.434V97.3398H211.603C211.421 97.7798 211.112 98.1526 210.723 98.4154C210.762 98.4409 210.8 98.4687 210.839 98.4976H204.324V106.115H211.603C211.42 106.552 211.112 106.925 210.723 107.187C210.763 107.214 210.803 107.242 210.841 107.272H208.194V114.96H211.569C211.385 115.366 211.09 115.711 210.723 115.958C210.796 116.008 210.866 116.061 210.934 116.118H203.187V123.628H211.614C211.434 124.079 211.121 124.463 210.723 124.73C210.75 124.748 210.775 124.766 210.8 124.786H206.554V132.289H211.655C211.494 132.758 211.193 133.161 210.8 133.447H202.82V141.186H211.609C211.428 141.63 211.117 142.009 210.723 142.274C210.755 142.296 210.788 142.319 210.82 142.343H207.272V149.845H211.651C211.487 150.315 211.181 150.718 210.784 151.002H199.073V160.223H197.916V151.002H195.577V160.223H194.419V151.002H179.212V160.223H178.054V151.002H171.61C171.213 150.718 170.907 150.315 170.743 149.845H172.8V142.343H171.574C171.605 142.319 171.638 142.296 171.671 142.274C171.278 142.009 170.966 141.63 170.785 141.186H178.222V133.447H171.594C171.201 133.161 170.899 132.758 170.738 132.289H173.633V124.786H171.593C171.618 124.766 171.645 124.748 171.671 124.73C171.273 124.463 170.959 124.079 170.78 123.628H177.068V116.118H171.46C171.528 116.061 171.597 116.008 171.671 115.958C171.304 115.711 171.009 115.366 170.824 114.96H173.341V107.272H171.552C171.592 107.242 171.631 107.214 171.671 107.187C171.282 106.925 170.973 106.552 170.792 106.115H177.485V98.4976H171.556C171.594 98.4687 171.632 98.4409 171.671 98.4154C171.281 98.1526 170.972 97.7798 170.79 97.3398H172.534V89.7345H171.544C171.586 89.7032 171.629 89.6719 171.671 89.643C171.284 89.3825 170.977 89.012 170.794 88.5767H174.576V81.1508H171.329C171.434 81.0477 171.549 80.9539 171.671 80.8717C171.341 80.6495 171.069 80.3473 170.883 79.993H181.387V72.1305H175.458C175.383 72.166 175.3 72.1858 175.212 72.1858C175.123 72.1858 175.039 72.166 174.964 72.1305H171.626C171.641 72.1199 171.656 72.1096 171.671 72.0996C171.266 71.8273 170.949 71.4344 170.77 70.9727H174.633V63.1101H171.837C171.375 62.8512 171.007 62.4435 170.798 61.9523H174.647C174.707 61.6956 174.936 61.5039 175.212 61.5039C175.486 61.5039 175.717 61.6956 175.776 61.9523H183.051V53.8306H184.209V61.9523H185.465V53.8306H186.623V61.9523H189.95C190.009 61.6956 190.24 61.5039 190.515 61.5039C190.79 61.5039 191.02 61.6956 191.079 61.9523H192.834C192.894 61.6956 193.124 61.5039 193.399 61.5039C193.674 61.5039 193.904 61.6956 193.963 61.9523H199.44V53.8306H200.598ZM173.958 142.343V149.845H184.313V142.343H173.958ZM185.471 142.343V149.845H187.24V142.343H185.471ZM188.398 142.343V149.845H206.114V142.343H188.398ZM179.38 133.447V141.186H190.134V133.447H179.38ZM199.453 133.447H191.292V141.186H199.45V133.509L199.453 133.447ZM200.607 141.186H201.662V133.447H200.604C200.606 133.467 200.607 133.488 200.607 133.509V141.186ZM198.126 124.786V132.289H205.396V124.786H198.126ZM185.503 132.289H196.969V124.786H185.493C185.5 124.821 185.503 124.857 185.503 124.892V132.289ZM184.355 124.786H174.79V132.289H184.346V124.892C184.346 124.858 184.348 124.822 184.355 124.787V124.786ZM193.811 116.118V123.628H202.029V116.118H193.811ZM191.196 116.118V123.628H192.654V116.118H191.196ZM178.226 116.118V123.628H190.038V116.118H178.226ZM183.295 107.272V114.96H197.466V107.272H183.295ZM174.499 107.272V114.96H182.138V107.272H174.499ZM198.624 107.272V114.96H207.037V107.272H198.624ZM188.669 98.4976V106.115H189.817V98.4976H188.669ZM182.817 106.115H187.511V98.4976H178.642V106.115H182.616C182.648 106.109 182.682 106.105 182.717 106.105C182.751 106.105 182.785 106.109 182.817 106.115ZM190.975 98.4976V106.115H203.166V98.4976H190.975ZM203.918 97.3398H207.276V89.7345H197.799V97.3398H203.573C203.627 97.3225 203.685 97.3132 203.745 97.3132C203.805 97.3132 203.863 97.3225 203.918 97.3398ZM195.01 89.7345V97.3398H196.641V89.7345H195.01ZM173.692 89.7345V97.3398H185.036V89.7345H173.692ZM186.193 89.7345V97.3398H193.852V89.7345H186.193ZM175.734 81.1508V88.5767H177.148V81.1508H175.734ZM191.631 81.1508V88.5767H203.798V81.1508H191.631ZM178.305 81.1508V88.5767H190.474V81.1508H178.305ZM184.594 72.1305H182.545V79.993H184.598C184.596 79.9745 184.594 79.956 184.594 79.9374V72.1305ZM198.592 72.1305H193.646C193.572 72.166 193.487 72.1858 193.399 72.1858C193.31 72.1858 193.227 72.166 193.151 72.1305H190.762C190.687 72.166 190.603 72.1858 190.515 72.1858C190.426 72.1858 190.343 72.166 190.267 72.1305H185.752V79.9374C185.752 79.956 185.752 79.9745 185.75 79.993H198.594C198.592 79.9745 198.592 79.956 198.592 79.9374V72.1305ZM208.594 72.1305H205.844C205.769 72.166 205.685 72.1858 205.596 72.1858C205.508 72.1858 205.424 72.166 205.35 72.1305H199.75V79.9374C199.75 79.956 199.748 79.9745 199.746 79.993H208.596C208.595 79.9745 208.594 79.956 208.594 79.9374V72.1305ZM175.791 63.1101V70.9727H189.936V63.1101H175.791ZM191.094 63.1101V70.9727H192.82V63.1101H191.094ZM193.978 63.1101V70.9727H205.017V63.1101H193.978Z" fill="#FDA425"/>
<path fill-rule="evenodd" clip-rule="evenodd" d="M110.408 116.214C109.768 115.785 109.346 115.053 109.346 114.225V109.433C109.346 108.111 110.419 107.037 111.742 107.037H148.124C149.448 107.037 150.521 108.111 150.521 109.433V114.225C150.521 115.053 150.1 115.785 149.459 116.214C150.1 116.645 150.521 117.376 150.521 118.205V122.997C150.521 123.826 150.1 124.556 149.459 124.987C150.1 125.416 150.521 126.148 150.521 126.977V131.768C150.521 132.597 150.1 133.328 149.459 133.758C150.1 134.189 150.521 134.919 150.521 135.748V140.54C150.521 141.369 150.1 142.1 149.459 142.53C150.1 142.96 150.521 143.692 150.521 144.519V149.311C150.521 150.14 150.1 150.871 149.459 151.302C150.1 151.732 150.521 152.463 150.521 153.292V158.084C150.521 159.406 149.448 160.479 148.124 160.479H111.742C110.419 160.479 109.346 159.406 109.346 158.084V153.292C109.346 152.463 109.768 151.732 110.408 151.302C109.768 150.871 109.346 150.14 109.346 149.311V144.519C109.346 143.692 109.768 142.96 110.408 142.53C109.768 142.1 109.346 141.369 109.346 140.54V135.748C109.346 134.919 109.768 134.189 110.408 133.758C109.768 133.328 109.346 132.597 109.346 131.768V126.977C109.346 126.148 109.768 125.416 110.408 124.987C109.768 124.556 109.346 123.826 109.346 122.997V118.205C109.346 117.376 109.768 116.645 110.408 116.214Z" fill="#FFCD80"/>
<path fill-rule="evenodd" clip-rule="evenodd" d="M141.99 115.23H150.319C150.134 115.631 149.841 115.971 149.479 116.214C149.557 116.268 149.633 116.326 149.706 116.388H146.27V123.885V123.886H150.369C150.189 124.336 149.876 124.719 149.479 124.987C149.505 125.005 149.533 125.024 149.56 125.044H142.703V132.49C142.703 132.524 142.701 132.556 142.695 132.588H150.396C150.223 133.061 149.906 133.465 149.497 133.745H147.384V141.242C147.384 141.274 147.381 141.307 147.376 141.338H150.404C150.237 141.809 149.928 142.212 149.527 142.496H143.219V150.124H150.398C150.228 150.598 149.913 151.001 149.506 151.282H147.101V160.479H145.943V151.282H138.474C138.474 151.293 138.475 151.302 138.475 151.311V160.479H137.317V151.311C137.317 151.302 137.317 151.293 137.317 151.282H131.607C131.533 151.317 131.452 151.335 131.367 151.335C131.28 151.335 131.199 151.317 131.125 151.282H123.707V160.479H122.549V151.282H120.525V160.479H119.367V151.282H110.398C109.992 151.001 109.677 150.598 109.507 150.124H117.495V142.496H110.377C109.978 142.212 109.668 141.809 109.501 141.338H112.442V133.745H110.409C109.999 133.465 109.682 133.061 109.509 132.588H116.617V125.044H110.345C110.373 125.024 110.399 125.005 110.427 124.987C110.029 124.719 109.716 124.336 109.536 123.886H112.068V116.388H110.2C110.272 116.326 110.347 116.268 110.427 116.214C110.064 115.971 109.772 115.631 109.585 115.23H114.908V107.037H116.066V115.23H117.251V107.037H118.409V115.23H129.042V107.037H130.2V115.23H140.832V107.037H141.99V115.23ZM118.653 142.496V150.124H130.788V142.496H118.653ZM131.945 142.496V150.124H139.768V142.496H131.945ZM140.926 142.496V150.124H142.061V142.496H140.926ZM113.599 133.745V141.338H122.966V133.745H113.599ZM135.481 133.745H124.124V141.338H135.513C135.493 141.279 135.481 141.215 135.481 141.149V133.745ZM146.226 133.745H136.639V141.149C136.639 141.215 136.629 141.279 136.608 141.338H146.233C146.229 141.307 146.226 141.274 146.226 141.242V133.745ZM117.774 125.044V132.588H126.671V125.044H117.774ZM127.828 125.044V132.588H129.197V125.044H127.828ZM141.546 125.044H130.355V132.588H135.882C135.937 132.569 135.998 132.56 136.06 132.56C136.123 132.56 136.183 132.569 136.24 132.588H141.555C141.549 132.556 141.546 132.524 141.546 132.49V125.044ZM113.226 116.388V123.886H123.421V116.388H113.226ZM124.579 116.388V123.886H133.797V116.388H124.579ZM134.954 116.388V123.886H136.504V116.388H134.954ZM145.113 116.388H137.661V123.886H145.113V123.885V116.388Z" fill="#FDA425"/>
<path fill-rule="evenodd" clip-rule="evenodd" d="M150.524 81.9392H161.677C180.865 81.9392 196.444 100.028 196.444 122.308C196.444 142.865 183.202 160.173 166.08 162.677C164.644 162.888 150.6 162.677 150.6 162.677C131.412 162.677 115.833 144.588 115.833 122.308C115.833 100.057 131.371 81.9855 150.524 81.9392Z" fill="#FDA425"/>
<path d="M150.599 162.677C169.799 162.677 185.365 144.604 185.365 122.308C185.365 100.013 169.799 81.9392 150.599 81.9392C131.398 81.9392 115.833 100.013 115.833 122.308C115.833 144.604 131.398 162.677 150.599 162.677Z" fill="#FFCD80"/>
<path fill-rule="evenodd" clip-rule="evenodd" d="M150.686 98.3374L149.485 98.2706L149.513 96.4793L151.607 96.5959C152.103 96.6235 152.497 97.0469 152.489 97.5414L152.443 100.571C154.274 100.755 156.029 101.148 157.703 101.747C159.842 102.511 161.854 103.613 163.736 105.051C163.95 105.212 164.083 105.457 164.105 105.719C164.125 105.981 164.032 106.234 163.847 106.413L159.748 110.388C159.438 110.686 158.951 110.709 158.593 110.44C156.737 109.048 154.65 108.146 152.332 107.734L152.177 117.829C160.796 120.143 164.888 124.518 164.675 130.712C164.572 134.077 163.276 136.797 160.801 138.864C158.538 140.826 155.541 142.004 151.799 142.368L151.719 147.573C151.711 148.067 151.305 148.445 150.809 148.417L148.753 148.303L148.781 146.514L149.943 146.578L150.021 141.486C150.028 141.032 150.372 140.67 150.823 140.642C154.503 140.402 157.433 139.364 159.611 137.478C161.71 135.726 162.798 133.427 162.885 130.581C163.077 125.009 159.063 121.361 151.088 119.383C150.668 119.277 150.369 118.891 150.376 118.462L150.558 106.651C150.561 106.404 150.668 106.174 150.85 106.014C151.033 105.855 151.276 105.781 151.523 105.812C154.292 106.14 156.784 107.06 158.996 108.568L161.82 105.831C160.349 104.819 158.798 104.018 157.161 103.434C155.375 102.795 153.493 102.414 151.512 102.287C151.021 102.256 150.632 101.834 150.639 101.342L150.686 98.3374ZM151.911 135.125C153.218 134.803 154.178 134.301 154.762 133.577C155.126 133.109 155.396 132.574 155.571 131.975L157.291 132.547C157.051 133.358 156.682 134.08 156.181 134.727C155.222 135.912 153.567 136.74 151.17 137.114C150.906 137.155 150.631 137.074 150.423 136.892C150.217 136.71 150.099 136.447 150.103 136.177L150.2 129.847L151.99 129.946L151.911 135.125ZM142.505 109.252C142.831 108.46 143.252 107.809 143.756 107.295C143.768 107.282 143.783 107.269 143.795 107.257C144.93 106.238 146.27 105.688 147.808 105.607C148.06 105.594 148.313 105.691 148.5 105.869C148.687 106.05 148.791 106.299 148.787 106.552L148.707 111.736L146.917 111.637L146.98 107.549C146.262 107.735 145.617 108.084 145.04 108.596C144.682 108.967 144.392 109.439 144.158 110.006C144.153 110.021 144.145 110.036 144.138 110.051C143.858 110.637 143.722 111.359 143.709 112.207L141.919 112.107C141.936 110.984 142.138 110.034 142.505 109.252Z" fill="#FDA31F"/>
<path fill-rule="evenodd" clip-rule="evenodd" d="M143.2 115.936C142.334 114.88 141.9 113.608 141.923 112.109L143.713 112.209C143.697 113.236 143.974 114.114 144.569 114.836L144.591 114.862C145.056 115.471 145.813 115.972 146.848 116.405L146.921 111.638L148.711 111.738L148.619 117.715C148.615 117.992 148.481 118.247 148.258 118.405C148.037 118.561 147.749 118.605 147.482 118.519C145.415 117.856 144.002 116.971 143.2 115.936Z" fill="#FDA31F"/>
<path fill-rule="evenodd" clip-rule="evenodd" d="M152.111 125.644L152.045 129.929L150.255 129.829L150.338 124.457C150.342 124.195 150.461 123.953 150.662 123.793C150.866 123.634 151.131 123.574 151.389 123.631C153.882 124.178 155.537 125.076 156.412 126.203L156.431 126.231C157.281 127.412 157.699 128.745 157.676 130.234C157.663 131.067 157.551 131.832 157.346 132.53L155.625 131.957C155.79 131.403 155.876 130.795 155.886 130.135C155.903 129.065 155.61 128.106 155.005 127.257C154.454 126.556 153.481 126.038 152.111 125.644Z" fill="#FDA31F"/>
<path fill-rule="evenodd" clip-rule="evenodd" d="M146.781 124.303C138.495 121.99 134.608 117.736 134.889 111.782C135.017 108.19 136.213 105.443 138.422 103.516C140.445 101.754 143.346 100.676 147.15 100.336L147.198 97.2224C147.206 96.7279 147.612 96.349 148.106 96.3765L149.572 96.4581L149.545 98.2494L148.974 98.2176L148.928 101.222C148.921 101.678 148.575 102.041 148.121 102.068C144.389 102.295 141.549 103.213 139.627 104.889C137.755 106.523 136.788 108.873 136.679 111.929C136.426 117.263 140.243 120.789 147.877 122.761C148.293 122.869 148.589 123.253 148.582 123.678L148.392 136.057C148.388 136.31 148.276 136.543 148.089 136.703C147.9 136.863 147.649 136.932 147.398 136.895C145.161 136.56 143.271 135.952 141.73 135.087C140.374 134.399 139.163 133.571 138.097 132.602L134.623 135.301C136.261 136.568 138.081 137.661 140.077 138.583C142.406 139.632 144.859 140.243 147.44 140.421C147.931 140.456 148.317 140.876 148.31 141.366L148.231 146.458L148.84 146.492L148.813 148.282L147.308 148.198C146.814 148.17 146.42 147.748 146.428 147.254L146.507 142.133C144.026 141.873 141.657 141.231 139.392 140.211C136.861 139.043 134.607 137.619 132.62 135.94C132.412 135.764 132.289 135.502 132.288 135.232C132.285 134.962 132.407 134.71 132.615 134.547L137.565 130.703C137.914 130.429 138.427 130.471 138.753 130.802C139.818 131.878 141.07 132.777 142.503 133.502L142.541 133.521C143.682 134.165 145.042 134.639 146.617 134.951L146.781 124.303Z" fill="#FDA31F"/>
<path fill-rule="evenodd" clip-rule="evenodd" d="M148.884 89.969C162.908 89.969 174.171 104.553 174.171 122.4C174.171 140.245 162.908 154.829 148.884 154.829C148.373 154.829 147.958 155.244 147.958 155.755C147.958 156.266 148.373 156.682 148.884 156.682C163.795 156.682 176.023 141.374 176.023 122.4C176.023 103.424 163.795 88.1169 148.884 88.1169C148.373 88.1169 147.958 88.5318 147.958 89.043C147.958 89.5542 148.373 89.969 148.884 89.969Z" fill="#FDA425"/>
<path fill-rule="evenodd" clip-rule="evenodd" d="M148.919 154.829C134.894 154.829 123.632 140.245 123.632 122.4C123.632 104.553 134.894 89.969 148.919 89.969C149.43 89.969 149.844 89.5542 149.844 89.043C149.844 88.5318 149.43 88.1169 148.919 88.1169C134.008 88.1169 121.779 103.424 121.779 122.4C121.779 141.374 134.008 156.682 148.919 156.682C149.43 156.682 149.844 156.266 149.844 155.755C149.844 155.244 149.43 154.829 148.919 154.829Z" fill="#FDA425"/>
<path fill-rule="evenodd" clip-rule="evenodd" d="M176.049 159.405H162.784C162.273 159.405 161.857 158.99 161.857 158.479C161.857 157.967 162.273 157.553 162.784 157.553H178.718C178.826 157.553 178.929 157.571 179.025 157.605C178.062 158.259 177.069 158.86 176.049 159.405ZM191.184 143.809C190.848 144.438 190.499 145.056 190.136 145.661H177.397C176.885 145.661 176.471 145.247 176.471 144.735C176.471 144.223 176.885 143.809 177.397 143.809H191.184ZM193.697 138.154C193.47 138.781 193.229 139.398 192.978 140.007H178.718C178.206 140.007 177.792 139.592 177.792 139.081C177.792 138.57 178.206 138.154 178.718 138.154H193.697ZM196.347 119.353C196.387 119.968 196.413 120.585 196.428 121.206H183.708C183.196 121.206 182.782 120.791 182.782 120.28C182.782 119.769 183.196 119.353 183.708 119.353H196.347ZM194.323 108.45C194.516 109.061 194.697 109.679 194.865 110.302H181.007C180.496 110.302 180.081 109.888 180.081 109.376C180.081 108.865 180.496 108.45 181.007 108.45H194.323ZM192.422 103.5C192.699 104.109 192.964 104.726 193.214 105.353H180.508C179.997 105.353 179.582 104.938 179.582 104.426C179.582 103.916 179.997 103.5 180.508 103.5H192.422ZM180.1 88.1169C180.899 88.6981 181.676 89.3152 182.431 89.9694H167.774C167.263 89.9694 166.847 89.5537 166.847 89.0432C166.847 88.5314 167.263 88.1169 167.774 88.1169H180.1Z" fill="#FFCD80"/>
<path fill-rule="evenodd" clip-rule="evenodd" d="M119.842 15.0628C120.661 12.2364 122.997 4.15746 124.682 0.547317L134.381 5.8094C134.381 5.8094 130.202 20.9077 129.301 25.2375L118.02 22.5547C118.362 20.1956 119.017 17.9062 119.842 15.0628Z" fill="#82B5B2"/>
<path d="M124.987 18.1651C126.844 18.1651 128.35 16.5895 128.35 14.646C128.35 12.7025 126.844 11.127 124.987 11.127C123.13 11.127 121.625 12.7025 121.625 14.646C121.625 16.5895 123.13 18.1651 124.987 18.1651Z" fill="#A8CFCC" fill-opacity="0.63"/>
<path fill-rule="evenodd" clip-rule="evenodd" d="M122.563 19.0124C123.111 17.4859 126.166 9.56803 128.051 7.18848L136.83 12.1226C136.83 12.1226 132.099 24.6955 131.02 28.3157L120.621 25.4865C121.07 23.5066 121.707 21.3998 122.563 19.0124Z" fill="#A8CFCC"/>
<path d="M128.694 21.7944C130.551 21.7944 132.056 20.2188 132.056 18.2753C132.056 16.3318 130.551 14.7562 128.694 14.7562C126.836 14.7562 125.331 16.3318 125.331 18.2753C125.331 20.2188 126.836 21.7944 128.694 21.7944Z" fill="#82B5B2"/>
<path d="M150.354 19.6273C154.45 19.6273 157.771 16.3068 157.771 12.2109C157.771 8.11488 154.45 4.79443 150.354 4.79443C146.258 4.79443 142.938 8.11488 142.938 12.2109C142.938 16.3068 146.258 19.6273 150.354 19.6273Z" fill="#E86135"/>
<path fill-rule="evenodd" clip-rule="evenodd" d="M145.486 6.67511C146.798 5.50565 148.527 4.79443 150.42 4.79443C154.513 4.79443 157.836 8.11769 157.836 12.2109C157.836 13.6152 157.445 14.9291 156.766 16.0487C151.259 13.5745 152.066 7.60491 152.066 7.60491C149.038 8.59399 146.777 7.59229 145.486 6.67511Z" fill="black"/>
<path fill-rule="evenodd" clip-rule="evenodd" d="M118.607 106.479C118.607 106.479 116.438 102.283 118.607 99.1398L114.757 92.3761C114.757 92.3761 112.886 91.1778 110.762 89.8163C105.958 86.7378 103.203 81.2975 103.563 75.6046C103.591 75.1708 103.641 74.773 103.716 74.4251C101.507 72.3409 99.6821 67.6628 100.354 63.1868C100.354 63.1867 100.354 63.1867 100.354 63.1867C101.288 56.9524 106.467 52.2284 112.76 51.8698C122.888 51.2954 140.27 50.9028 150.956 53.9673L148.553 47.9837C148.553 47.9837 131.452 54.0984 127.121 40.0565C117.304 44.0204 106.373 46.9181 95.564 48.486C91.0452 49.1437 86.5866 46.9528 84.3464 42.9735C84.3417 42.9762 84.3417 42.9762 84.3417 42.9762C82.4465 39.6104 83.052 35.3909 85.8167 32.6933C88.5965 30.0113 93.3376 26.542 101.434 22.5505C101.434 22.5505 109.544 18.2619 114.293 15.7506C116.415 14.6287 118.931 14.531 121.133 15.4851C125.812 17.5114 133.541 20.86 133.541 20.86L134.444 18.5807C139.811 19.4745 145.085 21.1005 150.256 23.1127C155.747 25.2565 160.002 29.728 161.869 35.3181C166.468 49.0839 175.151 75.5147 176.29 82.1357H179.546C181.375 82.1357 182.96 83.4046 183.36 85.1899C183.671 86.585 183.972 87.9315 183.972 87.9315C183.972 87.9315 186.046 90.2505 186.652 92.3761C186.899 93.2421 185.518 94.2517 183.972 92.6297C183.515 92.1492 179.074 88.6447 177.079 88.4258C175.553 88.258 174.203 88.0831 172.944 87.9292C169.081 87.4556 165.652 85.2258 163.65 81.8856C162.311 79.6535 161.081 77.5996 161.081 77.5996C161.081 77.5996 156.908 84.2915 145.454 83.0839L147.234 106.216C147.234 106.216 144.948 105.675 144.184 101.94C144.184 101.94 131.276 100.221 123.925 97.1079C123.925 97.1079 121.024 99.9873 118.607 106.479Z" fill="url(#paint2_linear_323_8563)"/>
<path fill-rule="evenodd" clip-rule="evenodd" d="M176.232 81.7848C176.254 81.9006 176.274 82.0106 176.292 82.1159H177.833C178.579 82.6392 179.712 83.4612 180.941 84.4407L181.336 83.9961C181.506 83.8051 181.799 83.7877 181.99 83.9579C182.181 84.127 182.198 84.4199 182.028 84.6109L181.661 85.0242C182.358 85.5996 183.067 86.2156 183.737 86.8477L183.974 87.9117L176.429 82.2734C176.263 82.1645 176.191 81.9666 176.232 81.7848Z" fill="#D7441E"/>
<path fill-rule="evenodd" clip-rule="evenodd" d="M132.224 99.6943L138.637 81.4873C138.744 81.1851 139.075 81.0265 139.376 81.133C139.677 81.2395 139.835 81.5694 139.73 81.8716L133.358 99.9606C132.981 99.8749 132.604 99.7857 132.224 99.6943ZM114.785 92.3853C114.785 92.3853 117.267 93.7202 119.403 94.8247C122.11 96.2268 124.945 97.5374 123.952 97.1171C123.952 97.1171 123.675 97.3926 123.221 97.9634C120.787 96.8728 117.984 95.4024 115.835 94.2308L114.785 92.3853ZM102.86 73.4345C104.718 64.5215 111.665 59.4573 119.746 56.6404C131.168 52.6586 144.845 53.1983 149.123 53.4925C149.752 53.6404 150.665 53.8363 151.253 54.0044C151.287 54.0877 151.545 54.2474 151.536 54.3425C151.502 54.6603 151.943 54.893 151.625 54.8603C151.625 54.8603 133.863 53.7379 120.127 57.7337C111.599 60.2143 105.703 66.3944 103.743 74.4343C103.44 74.1477 103.144 73.8121 102.86 73.4345Z" fill="#D7441E"/>
<path fill-rule="evenodd" clip-rule="evenodd" d="M145.571 84.212C143.438 83.8843 140.731 82.9963 137.876 81.8351C129.51 78.4359 119.825 72.7469 119.825 72.7469C119.549 72.5851 119.458 72.23 119.619 71.9546C119.781 71.6791 120.136 71.5869 120.412 71.7487C120.412 71.7487 130.014 77.3916 138.311 80.763C141.305 81.9798 145.728 83.0936 145.468 83.0669L145.571 84.212Z" fill="#8A2208"/>
<path fill-rule="evenodd" clip-rule="evenodd" d="M150.296 52.3224L148.553 47.9837C148.553 47.9837 131.452 54.0984 127.121 40.0565C117.304 44.0204 106.373 46.9181 95.564 48.486C91.0452 49.1437 86.5866 46.9528 84.3464 42.9735C84.3417 42.9762 84.3417 42.9762 84.3417 42.9762C82.4465 39.6104 83.052 35.3909 85.8167 32.6933C88.5965 30.0113 93.3376 26.542 101.434 22.5505C101.434 22.5505 109.544 18.2619 114.293 15.7506C116.415 14.6287 118.931 14.531 121.133 15.4851C125.812 17.5114 133.541 20.86 133.541 20.86L134.444 18.5807C139.811 19.4745 145.085 21.1005 150.256 23.1127C155.747 25.2565 160.002 29.728 161.869 35.3181C164.632 43.5858 168.867 56.4221 172.055 66.7906L158.727 70.855C155.836 64.7921 152.905 58.7786 150.342 52.3301L150.296 52.3224Z" fill="#D7441E"/>
<path fill-rule="evenodd" clip-rule="evenodd" d="M146.073 48.6421C145.649 46.5253 145.549 44.3035 145.589 42.0371C145.59 41.9124 145.68 41.8064 145.803 41.7835C145.926 41.7605 146.047 41.8267 146.095 41.942C147.225 44.6965 149.992 51.4377 149.992 51.4377H149.949L148.553 47.9625C148.553 47.9625 147.593 48.3054 146.073 48.6421ZM109.429 34.9451L95.2016 42.9599C94.9226 43.1167 94.8242 43.47 94.9805 43.7484C95.1379 44.0267 95.491 44.1254 95.7701 43.9686L109.998 35.9538C110.277 35.7971 110.375 35.4437 110.218 35.1654C110.062 34.8869 109.708 34.7883 109.429 34.9451ZM124.125 41.1992C124.663 37.3053 125.944 34.5748 126.835 33.0685C126.892 32.9854 127.002 32.9568 127.093 33.0014C127.184 33.0459 127.229 33.1501 127.198 33.2465C126.277 36.5553 127.068 39.8248 127.119 40.0256L127.121 40.0353C126.134 40.4341 125.134 40.8221 124.125 41.1992Z" fill="#8A2208"/>
<path fill-rule="evenodd" clip-rule="evenodd" d="M102.087 22.2219L114.325 15.7507C116.447 14.6288 118.963 14.5311 121.165 15.4852L133.236 20.7144C133.317 20.7683 133.391 20.817 133.457 20.8601C135.469 22.1787 133.88 23.4824 133.317 23.2963C134.691 23.9494 134.645 25.0347 134.321 25.505C133.787 26.2808 131.877 25.9977 131.877 25.9977C132.408 26.1872 132.896 27.2243 132.483 27.9935C131.821 29.2301 130.009 28.4788 130.009 28.4788C130.338 30.2033 128.555 30.209 126.38 29.7483C124.695 29.3916 123.923 29.0142 122.49 28.6566C120.173 34.8343 113.255 34.1207 113.255 34.1207L108.697 36.7049L102.087 22.2219Z" fill="url(#paint3_linear_323_8563)"/>
<path fill-rule="evenodd" clip-rule="evenodd" d="M130.053 28.5049L122.306 25.4978C122.068 25.4053 121.95 25.1367 122.042 24.8984C122.135 24.6602 122.404 24.5418 122.642 24.6343L132.228 28.3559C131.439 29.0464 130.046 28.469 130.046 28.469C130.048 28.4811 130.051 28.4931 130.053 28.5049ZM132.03 26.0438L123.223 22.6247C122.985 22.5322 122.867 22.2637 122.959 22.0254C123.052 21.7872 123.32 21.6688 123.559 21.7612L133.654 25.6803C133.746 25.7162 133.82 25.7786 133.871 25.8556C133.107 26.1648 131.913 25.9879 131.913 25.9879C131.953 26.002 131.992 26.0208 132.03 26.0438ZM133.447 23.3034L124.279 19.7441C124.041 19.6516 123.921 19.383 124.014 19.1447C124.107 18.9064 124.375 18.7881 124.614 18.8806L134.371 22.6687C134.169 23.0679 133.732 23.3203 133.447 23.3034Z" fill="#D7441E"/>
<path fill-rule="evenodd" clip-rule="evenodd" d="M105.647 156.596C104.992 156.155 104.559 155.405 104.559 154.557V149.647C104.559 148.292 105.658 147.192 107.014 147.192H144.295C145.65 147.192 146.75 148.292 146.75 149.647V154.557C146.75 155.405 146.318 156.155 145.662 156.596C146.318 157.037 146.75 157.786 146.75 158.634V163.545C146.75 164.9 145.65 166 144.295 166H107.014C105.658 166 104.559 164.9 104.559 163.545V158.634C104.559 157.786 104.992 157.037 105.647 156.596Z" fill="#FFDBA3"/>
<path fill-rule="evenodd" clip-rule="evenodd" d="M135.606 155.601H146.515C146.325 156.005 146.028 156.349 145.66 156.596C145.735 156.646 145.807 156.701 145.876 156.759H142.341V166H141.184V156.759H131.506V166H130.348V156.759H128.871V166H127.713V156.759H112.764V166H111.606V156.759H105.43C105.498 156.701 105.57 156.646 105.645 156.596C105.278 156.349 104.98 156.005 104.791 155.601H118.342V147.192H119.5V155.601H120.977V147.192H122.135V155.601H134.448V147.192H135.606V155.601Z" fill="#FDA425"/>
<defs>
<linearGradient id="paint0_linear_323_8563" x1="38.5868" y1="117.277" x2="38.3519" y2="183.454" gradientUnits="userSpaceOnUse">
<stop stop-color="#A8CFCC"/>
<stop offset="1" stop-color="#59A09B"/>
</linearGradient>
<linearGradient id="paint1_linear_323_8563" x1="46.1865" y1="65.3646" x2="49.2444" y2="124.115" gradientUnits="userSpaceOnUse">
<stop stop-color="#82B5B2"/>
<stop offset="0.45" stop-color="#A7C6C1"/>
<stop offset="1" stop-color="#FFF0E6"/>
</linearGradient>
<linearGradient id="paint2_linear_323_8563" x1="154.595" y1="77.4444" x2="89.2866" y2="19.5733" gradientUnits="userSpaceOnUse">
<stop stop-color="#E86135"/>
<stop offset="0.48" stop-color="#EE734F"/>
<stop offset="1" stop-color="#FFA396"/>
</linearGradient>
<linearGradient id="paint3_linear_323_8563" x1="118.303" y1="27.6888" x2="122.988" y2="-3.07389" gradientUnits="userSpaceOnUse">
<stop stop-color="#E86135"/>
<stop offset="1" stop-color="#FFA396"/>
</linearGradient>
</defs>
</svg>