<svg width="286" height="270" viewBox="0 0 286 270" fill="none" xmlns="http://www.w3.org/2000/svg">
<circle cx="151" cy="135" r="135" fill="#E2EAFD"/>
<circle cx="151" cy="135" r="94" fill="#ADC6FF"/>
<path d="M37.6179 155.977C22.9056 155.977 10.8799 154.612 10.4961 152.906L12.6709 178.621C12.6709 190.817 23.8864 200.753 37.6179 200.753C51.3493 200.753 62.5648 190.774 62.5648 178.621L64.7396 152.906C64.4411 154.612 52.4154 155.977 37.6179 155.977Z" fill="#2F37A8"/>
<path d="M37.6175 155.977C22.6494 155.977 10.5384 154.569 10.4531 152.864V152.821C10.5811 151.073 22.692 149.708 37.6175 149.708C52.543 149.708 64.6114 151.115 64.7819 152.821V152.864C64.6967 154.612 52.543 155.977 37.6175 155.977Z" fill="#4F7FFC"/>
<path d="M37.6168 155.465C24.9941 155.465 14.7594 154.271 14.7168 152.821V152.778C14.8447 151.328 25.0367 150.134 37.6168 150.134C50.1968 150.134 60.4315 151.286 60.5168 152.778V152.821C60.4741 154.271 50.2395 155.465 37.6168 155.465Z" fill="#2F37A8"/>
<path d="M11.4336 163.951C13.182 163.994 14.8878 164.676 16.3803 166.126C19.1522 168.813 20.9006 172.992 23.1608 176.147C24.0137 174.442 24.7386 172.693 25.4209 170.902C26.2312 168.77 29.0883 166.766 31.3485 168.514C33.7366 170.348 35.5276 172.48 37.1055 175.081C38.4274 177.341 39.5362 179.985 41.6258 181.691C43.63 183.312 45.9328 183.781 46.7431 180.881C47.468 178.365 47.2122 175.636 48.0224 173.077C48.7047 170.987 49.7708 168.77 51.9457 167.832C54.5043 166.723 56.9777 168.088 59.2378 169.239C60.6025 169.921 61.9244 170.646 63.2464 171.414L62.7773 176.83C60.4319 175.38 57.6174 173.589 55.2293 173.248C53.7367 173.034 53.822 174.058 53.7367 175.465C53.6515 176.744 53.6514 178.024 53.6088 179.26C53.4809 181.862 53.0971 184.42 51.5619 186.553C48.2783 191.158 42.1375 190.945 37.8304 188.003C35.485 186.425 33.8219 184.378 32.3293 182.032C31.8602 181.265 31.3911 180.455 30.922 179.687C29.0883 183.994 26.2312 187.832 21.5829 186.211C18.6831 185.188 16.8068 182.032 15.0584 179.687C14.504 178.962 13.5232 177.171 12.5423 175.593L11.4336 163.951Z" fill="#4F7FFC"/>
<path d="M0.772326 68.172C1.3267 65.9971 3.928 65.656 5.4632 66.9353C8.36301 69.366 9.85555 72.6922 11.476 76.0185C13.1392 79.5153 15.1861 82.7137 17.5742 85.7414C22.4356 91.9248 27.8514 97.7244 31.4336 104.803C38.3419 118.578 40.0051 134.782 35.2289 149.537C35.101 150.006 35.9965 147.661 34.504 151.755C33.182 155.465 27.8941 153.461 27.9794 149.153C28.022 144.932 26.9133 141.008 25.0369 137.256C21.3269 129.836 16.7213 122.927 13.0965 115.422C9.47175 107.874 6.23079 100.113 3.67213 92.1807C1.11347 84.5047 -1.2746 76.2744 0.772326 68.172Z" fill="#2F37A8"/>
<path d="M34.6323 24.9731C36.466 21.6042 41.9672 23.907 40.8584 27.5744C37.6601 38.4487 39.9629 50.0053 41.9245 60.8796C43.9288 72.0098 46.2742 83.0547 47.6815 94.2701C50.1122 114.185 49.3446 136.573 36.7219 153.205C35.3573 154.996 32.5001 153.503 33.6089 151.371C34.8456 149.025 31.6899 133.503 30.3253 128.513C28.918 123.396 27.4681 118.236 26.1887 113.119C23.6727 103.055 21.6258 92.7775 21.0714 82.3723C20.0053 62.2016 24.9947 42.6279 34.6323 24.9731Z" fill="#2F37A8"/>
<path d="M40.6444 135.721C42.1369 128.94 41.0282 121.776 42.4781 114.995C43.8853 108.386 45.847 101.648 48.9173 95.5922C51.8598 89.8353 56.3375 85.7414 61.5827 82.2019C66.5294 78.833 72.3717 75.5494 74.1201 69.4086C75.1436 65.7839 81.3697 66.2956 80.9859 70.3468C80.1756 78.5772 76.6788 85.8267 72.6702 92.9057C68.3631 100.454 64.6105 107.703 62.4783 116.147C58.8535 130.689 55.7404 149.537 39.1518 153.972C37.1902 154.527 37.4887 150.22 40.6444 135.721Z" fill="#2F37A8"/>
<path d="M228.297 14.4397L227.486 13.6721L235.333 5.22852L241.474 13.7574L240.536 14.397L235.248 7.06224L228.297 14.4397Z" fill="#3664D9"/>
<path d="M200.534 233.034C198.274 233.631 195.843 232.096 194.777 229.409L188.849 214.398C187.527 211.115 188.892 207.49 191.621 206.765L195.289 205.784C198.061 205.059 200.96 207.533 201.472 211.03L203.732 227.021C204.116 229.878 202.751 232.437 200.534 233.034Z" fill="#11398D"/>
<path d="M106.247 233.034C108.507 233.631 110.938 232.096 112.004 229.409L117.931 214.398C119.253 211.115 117.889 207.49 115.159 206.765L111.492 205.784C108.72 205.059 105.82 207.533 105.309 211.03L103.048 227.021C102.622 229.878 103.987 232.437 106.247 233.034Z" fill="#11398D"/>
<path d="M214.564 247.704C211.622 248.472 208.466 246.467 207.101 242.97L199.425 223.482C197.762 219.218 199.468 214.527 203.05 213.589L207.826 212.352C211.408 211.414 215.204 214.612 215.886 219.175L218.786 239.943C219.298 243.61 217.507 246.936 214.564 247.704Z" fill="#6593F5"/>
<path d="M92.1744 247.704C95.1169 248.472 98.2726 246.467 99.6372 242.97L107.313 223.482C108.976 219.218 107.271 214.527 103.688 213.589L98.9122 212.352C95.3301 211.414 91.5347 214.612 90.8524 219.175L87.9526 239.943C87.4835 243.61 89.232 246.936 92.1744 247.704Z" fill="#6593F5"/>
<path d="M223.86 170.262H85.0528C76.7372 170.262 69.9141 163.481 69.9141 155.123V97.6812C69.9141 89.3656 76.6945 82.5425 85.0528 82.5425H223.86C232.176 82.5425 238.999 89.3229 238.999 97.6812V155.123C238.999 163.481 232.176 170.262 223.86 170.262Z" fill="#3664D9"/>
<path d="M229.021 141.989C226.462 142.031 224.33 143.993 224.117 146.552C223.178 156.317 220.406 178.578 214.394 189.665C210.257 197.298 198.061 197.981 194.82 198.023H113.966C110.725 197.981 98.5717 197.298 94.3925 189.665C88.3797 178.578 85.5652 156.36 84.6696 146.552C84.4138 143.993 82.3242 142.074 79.7656 141.989L54.051 141.605C51.1086 141.562 48.7631 144.036 48.9764 146.978C49.8292 159.174 53.1982 189.153 66.2047 208.471C73.2836 218.919 84.2859 222.16 87.0577 222.842C88.6356 223.354 221.345 223.056 222.411 222.8C225.95 221.819 235.972 218.237 242.581 208.514C255.631 189.239 259 159.217 259.81 147.021C260.023 144.078 257.678 141.605 254.735 141.648L229.021 141.989Z" fill="#3664D9"/>
<path d="M113.924 198.151H194.863C198.104 198.109 210.3 197.426 214.436 189.793C220.833 178.023 223.562 153.673 224.372 144.974C224.543 143.14 224.159 141.306 223.306 139.686L217.976 129.579C217.677 129.025 216.824 129.153 216.739 129.75C215.289 136.957 209.873 162.799 207.059 164.676C203.775 166.85 103.604 164.974 99.7658 164.676C96.4822 164.462 93.0707 137.895 92.1325 130.048C92.0472 129.409 91.1517 129.238 90.8532 129.835L85.6932 139.601C84.7977 141.306 84.4139 143.225 84.5844 145.102C85.352 153.759 88.0813 178.108 94.4779 189.793C98.5291 197.384 110.725 198.109 113.924 198.151Z" fill="#4A52BD"/>
<path d="M202.751 198.023H103.987C103.689 198.023 103.433 198.023 103.177 197.981C93.2407 197.597 86.8441 188.087 90.4688 179.558L94.9465 169.025C95.3303 168.13 96.2258 165.784 96.2258 165.784C100.064 157.213 106.162 155.081 114.648 155.081H192.133C200.619 155.081 208.38 159.473 210.726 166.211C210.726 166.211 211.451 168.13 211.834 169.025L216.312 179.558C219.937 188.087 213.54 197.597 203.604 197.981C203.306 198.023 203.007 198.023 202.751 198.023Z" fill="#2F37A8"/>
<path d="M84.6267 145.016C84.4561 143.097 84.8399 141.178 85.7354 139.515L90.8954 129.75C91.1939 129.195 91.9615 129.323 92.1321 129.878C92.1321 129.878 92.0041 128.086 88.2941 127.831H73.7097C71.1937 127.831 68.7204 128.556 66.5881 129.92L53.2405 138.577C50.4259 140.411 48.7628 143.609 48.9334 146.978C48.7202 144.035 51.0656 141.562 54.0081 141.605L79.7226 141.989C82.1107 142.031 84.1149 143.737 84.584 146.04L84.6267 146.082C84.6693 145.741 84.6267 145.357 84.6267 145.016Z" fill="#4F7FFC"/>
<path d="M224.371 145.016C224.542 143.097 223.987 141.221 223.092 139.515L217.932 129.792C217.633 129.238 216.866 129.366 216.695 129.92C216.695 129.92 216.823 128.129 220.533 127.873H235.075C237.591 127.873 240.107 128.598 242.197 129.963L255.544 138.619C258.401 140.453 260.022 143.694 259.851 147.02C260.065 144.078 257.676 141.604 254.777 141.647L229.062 142.031C226.631 142.074 224.755 143.779 224.329 146.082C224.286 146.125 224.329 145.357 224.371 145.016Z" fill="#4F7FFC"/>
<path d="M220.109 164.59C220.109 164.59 224.288 165.059 227.315 168.172C230.343 171.285 229.32 176.488 227.315 178.108C223.819 180.88 217.081 180.88 212.006 180.88C206.931 180.88 203.562 179.729 203.562 179.729L210.044 163.652C210.044 163.652 214.096 162.927 220.109 164.59Z" fill="#2D3F9E"/>
<path d="M160.237 213.247C157.721 217.81 155.247 222.33 152.774 226.851C151.111 229.878 153.414 234.015 156.314 235.166C159.853 236.574 162.966 234.655 164.629 231.627C167.145 227.064 169.619 222.544 172.092 218.023C173.755 214.996 171.452 210.859 168.552 209.708C165.056 208.258 161.9 210.177 160.237 213.247Z" fill="#FCB58A"/>
<path d="M183.562 69.4084C183.562 69.4084 178.061 51.7964 176.185 44.3763C173.328 32.9049 165.481 25.9966 154.436 25.9966C143.221 25.9966 135.374 33.0329 132.261 44.4615C129.106 56.2314 124.969 68.5129 124.969 68.5129C124.5 70.0908 125.268 71.7539 126.76 72.3509C130.3 73.7582 137.762 76.2742 154.436 76.061C169.319 75.8478 176.995 73.7582 180.876 73.3744C182.795 73.1185 184.074 71.2848 183.562 69.4084Z" fill="#110580"/>
<path d="M160.79 63.8643H148.082V85.8261C148.082 87.4892 149.404 88.8112 151.067 88.8112H157.805C159.468 88.8112 160.79 87.4892 160.79 85.8261V63.8643Z" fill="#FCB58A"/>
<path d="M154.266 24.248C158.646 24.248 162.198 20.6967 162.198 16.3161C162.198 11.9355 158.646 8.38428 154.266 8.38428C149.885 8.38428 146.334 11.9355 146.334 16.3161C146.334 20.6967 149.885 24.248 154.266 24.248Z" fill="#110580"/>
<path d="M259.342 50.6872H207.529C207.23 50.6872 206.975 50.4313 206.975 50.1328V13.8425C206.975 13.544 207.23 13.2881 207.529 13.2881H259.342C259.64 13.2881 259.896 13.544 259.896 13.8425V50.1754C259.896 50.4313 259.64 50.6872 259.342 50.6872Z" fill="#668FF8"/>
<path d="M255.506 47H211.494C211.198 47 211 46.7581 211 46.5161V17.4839C211 17.1935 211.247 17 211.494 17H255.506C255.802 17 256 17.2419 256 17.4839V46.5161C256 46.7581 255.753 47 255.506 47Z" fill="#2F37A8"/>
<path d="M87.3574 155.422C87.3574 145.401 97.123 138.407 107.358 135.848C128.211 130.518 164.885 137.469 164.885 137.469L145.524 149.793C145.524 149.793 163.307 154.74 167.742 155.678C172.177 156.616 201.047 164.164 201.516 164.889C201.985 165.614 190.898 180.326 190.898 180.326C190.898 180.326 136.782 180.966 120.151 178.791C103.477 176.574 87.3574 172.522 87.3574 155.422Z" fill="#8AABFF"/>
<path d="M143.05 149.878C151.835 151.925 164.926 155.72 170.811 157.554C176.824 159.43 179.127 161.264 179.127 161.264C179.127 161.264 168.167 170.859 163.349 189.878C160.619 200.582 155.417 214.868 154.521 218.023C154.393 218.493 154.479 219.004 154.82 219.388C155.886 220.54 158.317 223.013 160.918 224.42C164.116 226.169 169.916 228.13 170.513 227.277C170.513 227.277 195.972 202.373 205.865 188.087C215.801 173.801 224.927 162.202 221.004 152.223C217.805 144.078 210.684 139.259 198.871 136.743C180.79 132.948 159.767 134.441 159.767 134.441C159.767 134.441 158.53 137.554 153.754 143.097C149.83 147.746 142.879 149.878 143.05 149.878Z" fill="#8AABFF"/>
<path d="M135.545 64.2481C133.498 64.2481 133.455 58.3205 133.455 57.6382C133.455 56.9559 133.498 51.0283 135.545 51.0283C137.592 51.0283 137.634 56.9559 137.634 57.6382C137.677 58.2779 137.592 64.2481 135.545 64.2481ZM135.545 52.1371C135.161 52.5209 134.564 54.4825 134.564 57.6382C134.564 60.7512 135.161 62.7555 135.545 63.1393C135.928 62.7555 136.525 60.7939 136.525 57.6382C136.525 54.4399 135.928 52.4782 135.545 52.1371Z" fill="white"/>
<path d="M172.943 64.2481C170.896 64.2481 170.854 58.3205 170.854 57.6382C170.854 56.9559 170.896 51.0283 172.943 51.0283C174.99 51.0283 175.033 56.9559 175.033 57.6382C175.033 58.2779 174.99 64.2481 172.943 64.2481ZM172.943 52.1371C172.559 52.5209 171.962 54.4825 171.962 57.6382C171.962 60.7512 172.559 62.7555 172.943 63.1393C173.327 62.7555 173.924 60.7939 173.924 57.6382C173.924 54.4399 173.327 52.4782 172.943 52.1371Z" fill="white"/>
<path d="M154.435 68.5979C166.07 68.5979 175.502 59.1662 175.502 47.5316C175.502 35.897 166.07 26.4653 154.435 26.4653C142.801 26.4653 133.369 35.897 133.369 47.5316C133.369 59.1662 142.801 68.5979 154.435 68.5979Z" fill="#FCB58A"/>
<path d="M132.944 49.0668C132.987 49.408 132.987 49.7492 133.03 50.0477C133.03 50.0903 133.03 50.1329 133.072 50.1756C133.115 50.5594 133.158 50.9005 133.2 51.2417V51.2843C133.243 51.6681 133.328 52.0519 133.413 52.4357C134.821 46.6361 140.066 42.329 146.292 42.329C147.06 42.329 147.827 42.3717 148.552 42.5422C149.107 42.6702 149.704 42.7555 150.258 42.7555C154.181 42.7555 157.422 39.813 157.849 35.9751C157.849 35.9751 157.891 35.975 157.891 35.9324C157.849 36.3162 157.763 36.7426 157.763 37.1691C157.763 41.6467 161.388 45.2715 165.866 45.2715H165.908C170.301 46.167 173.798 49.408 175.077 53.6297C175.333 52.6916 175.546 51.7108 175.717 50.7726C175.717 50.73 175.717 50.6873 175.717 50.6446C175.759 50.2608 175.844 49.8344 175.844 49.408C175.844 49.2801 175.887 49.1948 175.887 49.1095C175.93 48.6404 175.93 48.1713 175.93 47.7022C175.93 47.3184 175.93 46.892 175.887 46.5508C175.887 46.4229 175.844 46.3376 175.844 46.2097C175.802 45.9112 175.802 45.6553 175.802 45.3994C175.802 45.2715 175.759 45.1436 175.759 45.0156C175.717 44.7598 175.717 44.5039 175.631 44.248C175.589 44.1201 175.589 43.9922 175.589 43.8642C175.546 43.6084 175.503 43.3525 175.461 43.0966C175.418 42.9687 175.418 42.8834 175.375 42.7555C175.333 42.4996 175.247 42.2011 175.162 41.9453C175.12 41.86 175.12 41.732 175.077 41.6467C174.992 41.3482 174.906 41.0923 174.821 40.7938C174.778 40.7085 174.778 40.6659 174.736 40.5806C174.608 40.2821 174.523 39.941 174.395 39.6851C174.352 39.6424 174.352 39.5998 174.352 39.5571C174.224 39.216 174.053 38.8749 173.883 38.5337C172.049 34.5678 168.979 31.2841 165.226 29.1093C164.032 28.427 162.795 27.83 161.473 27.3609C161.431 27.3182 161.388 27.3182 161.345 27.3182C160.962 27.1903 160.578 27.0624 160.194 26.9344C160.151 26.8918 160.066 26.8918 159.981 26.8918C159.128 26.6786 158.275 26.508 157.38 26.3374C157.252 26.2948 157.166 26.2948 157.038 26.2948C156.697 26.2521 156.399 26.2095 156.058 26.1669C155.93 26.1669 155.802 26.1242 155.674 26.1242C155.247 26.0815 154.778 26.0815 154.352 26.0815C142.454 26.0815 132.816 35.7192 132.816 47.6169C132.816 48.0007 132.816 48.4272 132.859 48.811C132.944 48.9389 132.944 48.9815 132.944 49.0668Z" fill="#110580"/>
<path d="M149.702 229.623C149.233 230.177 145.395 235.508 145.054 238.322C144.798 240.284 143.647 243.866 142.836 248.642C142.026 253.419 139.553 263.525 146.973 266.254C153.242 268.557 154.734 264.677 156.056 262.843C157.378 261.009 161.088 246.638 161.387 245.103C161.941 241.99 165.395 232.054 165.395 232.054C165.779 231.243 165.992 230.902 165.097 230.646C163.434 230.177 160.918 229.282 159.084 228.429C157.08 227.491 155.075 225.657 153.924 224.719C153.54 224.378 153.284 224.165 153.028 224.591C153.028 224.634 149.745 229.623 149.702 229.623Z" fill="#2D3F9E"/>
<path d="M120.619 97.7667C114.094 103.609 108.892 110.858 108.38 119.899C107.868 129.196 113.455 136.317 121.6 140.07C124.031 141.221 126.93 140.752 128.38 138.279C129.617 136.147 129.02 132.607 126.589 131.498C121.216 129.025 117.506 125.358 118.359 119.046C119.169 113.161 123.391 108.598 127.613 104.846C132.389 100.581 125.353 93.5449 120.619 97.7667Z" fill="#FCB58A"/>
<path d="M178.657 104.76C180.832 107.618 182.709 110.645 184.286 113.844C185.608 116.573 187.399 119.771 187.058 122.927C186.333 129.452 179.169 132.991 174.052 135.763C168.465 138.791 173.412 147.405 179.041 144.334C186.802 140.113 195.118 134.611 196.653 125.187C197.463 120.326 196.056 115.933 194.052 111.541C192.176 107.362 190.001 103.396 187.186 99.7285C185.523 97.6389 182.922 96.4448 180.406 97.9374C178.359 99.2167 176.994 102.628 178.657 104.76Z" fill="#F0A173"/>
<path d="M174.949 82.5001C169.533 79.643 163.478 78.2357 160.791 77.8093C159.981 81.3061 158.147 83.2251 154.224 83.2251C150.215 83.2251 148.851 81.2208 148.083 77.6387C147.273 77.6813 144.8 78.2357 144.203 78.2783C137.166 78.918 132.305 81.7752 128.68 84.2912C123.691 87.7454 118.317 94.5685 116.143 97.4683C115.503 98.2785 115.546 99.4299 116.185 100.24C117.379 101.647 119.384 103.865 121.43 105.23C125.055 107.66 131.111 107.66 131.111 107.66L132.006 99.302C132.006 99.302 130.471 108.385 130.173 114.441C129.789 121.008 130.173 126.893 130.173 126.893L176.143 127.831C176.143 127.831 177.806 121.306 176.825 112.309C176.57 109.963 174.054 99.9843 174.054 99.9843L176.186 106.594C176.186 106.594 179.384 106.722 184.885 104.291C186.548 103.566 188.894 101.775 190.258 100.667C190.898 100.198 190.983 99.2594 190.514 98.6623C188.126 95.2934 180.45 85.3999 174.949 82.5001Z" fill="white"/>
<path d="M154.436 68.5555C152.219 68.5555 150.086 68.2144 148.082 67.5747V71.498C150.086 72.1376 152.304 72.1376 154.521 71.967C157.506 71.6685 158.786 71.1142 160.79 70.2613V67.5747C158.828 68.2144 156.696 68.5555 154.436 68.5555Z" fill="#E3996D"/>
<path d="M234.991 8.5549C234.863 8.5549 234.693 8.51226 234.565 8.34168C234.352 8.12846 234.437 7.78733 234.65 7.61675L238.829 4.24784C239.043 4.07726 239.384 4.11989 239.554 4.33311C239.768 4.54633 239.682 4.88751 239.469 5.05809L235.29 8.42695C235.247 8.51224 235.119 8.5549 234.991 8.5549Z" fill="#3664D9"/>
<path d="M240.679 6.06909C241.297 5.6383 241.285 4.55283 240.653 3.64459C240.02 2.73635 239.006 2.34926 238.387 2.78006C237.769 3.21085 237.781 4.29636 238.413 5.2046C239.046 6.11284 240.06 6.49988 240.679 6.06909Z" fill="#3664D9"/>
<path d="M151.659 145.725C159.519 147.475 167.471 148.831 175.285 150.711C179.17 151.63 183.054 152.679 186.847 153.991C187.715 154.298 188.629 154.604 189.452 154.91C189.863 155.085 190.32 155.216 190.777 155.391C191.097 155.522 191.874 155.697 192.103 155.959C192.468 156.441 191.371 157.403 191.097 157.753C190.412 158.496 189.772 159.24 189.132 159.983C179.444 171.179 170.578 183.032 163.312 195.846C159.291 202.975 155.817 210.322 152.984 217.932C152.573 218.982 154.355 219.463 154.766 218.413C159.93 204.374 167.516 191.21 176.291 179.008C180.724 172.841 185.476 166.893 190.503 161.12C191.097 160.377 191.737 159.677 192.377 158.977C192.971 158.321 193.611 157.709 193.885 156.878C194.113 156.134 194.022 155.303 193.428 154.735C192.834 154.166 191.828 153.904 191.052 153.642C187.258 152.155 183.328 150.974 179.353 149.924C170.395 147.562 161.21 146.032 152.162 144.02C150.973 143.801 150.516 145.463 151.659 145.725Z" fill="#2F37A8"/>
<path d="M127.527 107.447C127.527 107.447 130.299 104.504 131.28 102.5C132.261 100.453 133.455 96.6577 133.455 96.6577C133.455 96.6577 132.602 102.244 132.09 104.675C131.365 108.044 130.555 109.664 130.555 109.664L127.911 109.536C127.911 109.536 127.783 109.067 127.741 108.555C127.655 108.044 127.527 107.447 127.527 107.447Z" fill="#E0E0E0"/>
<path d="M178.658 108.471C178.658 108.471 176.27 105.272 175.502 103.14C174.735 101.008 174.01 97.0845 174.01 97.0845C174.01 97.0845 174.223 102.756 174.436 105.187C174.777 108.641 175.417 110.347 175.417 110.347L178.061 110.475C178.061 110.475 178.232 110.006 178.359 109.494C178.487 109.025 178.658 108.471 178.658 108.471Z" fill="#E0E0E0"/>
<path d="M181.088 145.87H125.651C123.817 145.87 122.196 144.548 121.813 142.714L115.245 109.622C114.776 107.191 116.61 104.974 119.083 104.974H189.788C192.346 104.974 194.223 107.404 193.583 109.878L184.841 142.97C184.414 144.675 182.837 145.87 181.088 145.87Z" fill="#C5C6E3"/>
<path d="M160.107 126.594C159.894 129.537 157.335 131.967 154.435 131.967C151.536 131.967 149.02 129.579 148.764 126.637C148.508 123.694 151.067 121.264 154.435 121.264C157.804 121.221 160.363 123.609 160.107 126.594Z" fill="#E8E9FF"/>
</svg>