<svg width="322" height="253" viewBox="0 0 322 253" fill="none" xmlns="http://www.w3.org/2000/svg">
<path d="M305 26.9998H204V193H305V26.9998Z" fill="#FFD593"/>
<path fill-rule="evenodd" clip-rule="evenodd" d="M282.901 58.005H212V62.9998H282.901V58.005ZM276.973 47.4813H212V52.4761H276.973V47.4813ZM291 36.9998H212V41.9947H291V36.9998Z" fill="#FDA527"/>
<path fill-rule="evenodd" clip-rule="evenodd" d="M276.27 108.671H225.685V112.77H276.27V108.671ZM267.223 100.475H225.685V104.574H267.223V100.475ZM276.27 91.9473H225.685V96.046H276.27V91.9473Z" fill="#FDA527"/>
<path d="M276.27 117.946H225.685V122.045H276.27V117.946Z" fill="#FDA527"/>
<path fill-rule="evenodd" clip-rule="evenodd" d="M278.375 151.841H227.79V155.939H278.375V151.841ZM267.131 143.313H227.79V147.411H267.131V143.313Z" fill="#FDA527"/>
<path d="M291.02 76.4746H211.896V83.8487H291.02V76.4746Z" fill="#FDA527"/>
<path d="M292.704 131.314H213.58V138.688H292.704V131.314Z" fill="#FDA527"/>
<path d="M212 20.9998H111V170H212V20.9998Z" fill="#B5D6D4"/>
<path fill-rule="evenodd" clip-rule="evenodd" d="M191.617 54.005H119V58.9998H191.617V54.005ZM204 43.4813H119V48.4761H204V43.4813ZM186.182 32.9998H119V37.9947H186.182V32.9998Z" fill="#95C0BE"/>
<path fill-rule="evenodd" clip-rule="evenodd" d="M183.854 102.672H133.269V106.771H183.854V102.672ZM183.854 94.4757H133.269V98.5745H183.854V94.4757ZM183.854 85.9478H133.269V90.0465H183.854V85.9478Z" fill="#95C0BE"/>
<path fill-rule="evenodd" clip-rule="evenodd" d="M183.854 143.3H133.269V147.398H183.854V143.3ZM183.854 135.105H133.269V139.203H183.854V135.105ZM183.854 126.577H133.269V130.675H183.854V126.577Z" fill="#95C0BE"/>
<path d="M198.288 72.2642H119.164V79.6383H198.288V72.2642Z" fill="#95C0BE"/>
<path d="M198.288 113.736H119.164V121.11H198.288V113.736Z" fill="#95C0BE"/>
<path d="M121 16.9998H21V183H121V16.9998Z" fill="#FFF3E4"/>
<path fill-rule="evenodd" clip-rule="evenodd" d="M79.5387 49.1971H29V53.9998H79.5387V49.1971ZM108 39.0782H29V43.8808H108V39.0782ZM108 28.9998H29V33.8026H108V28.9998Z" fill="#FFB1A6"/>
<path fill-rule="evenodd" clip-rule="evenodd" d="M93.227 98.3561H42.6416V102.455H93.227V98.3561ZM93.227 90.1601H42.6416V94.2589H93.227V90.1601ZM93.227 81.6321H42.6416V85.7309H93.227V81.6321Z" fill="#FFB1A6"/>
<path fill-rule="evenodd" clip-rule="evenodd" d="M93.227 138.984H42.6416V143.083H93.227V138.984ZM93.227 130.789H42.6416V134.888H93.227V130.789ZM93.227 122.261H42.6416V126.36H93.227V122.261Z" fill="#FFB1A6"/>
<path d="M107.661 67.9487H28.5371V75.3228H107.661V67.9487Z" fill="#FFB1A6"/>
<path d="M107.661 109.42H28.5371V116.794H107.661V109.42Z" fill="#FFB1A6"/>
<path fill-rule="evenodd" clip-rule="evenodd" d="M131.265 81.0086L135.419 109.697C135.563 110.695 136.492 111.389 137.49 111.244C138.489 111.1 139.182 110.171 139.037 109.173L134.884 80.4845C134.738 79.4859 133.811 78.7925 132.812 78.937C131.814 79.0817 131.121 80.0098 131.265 81.0086Z" fill="#DD6140"/>
<path fill-rule="evenodd" clip-rule="evenodd" d="M132.16 87.0073L131.287 80.986C131.144 79.9874 131.837 79.0591 132.835 78.9146C133.834 78.77 134.762 79.4633 134.906 80.462L135.564 85.0073C134.294 86.1192 133.154 86.7241 132.16 87.0073Z" fill="black"/>
<path fill-rule="evenodd" clip-rule="evenodd" d="M131.96 78.5876C128.662 79.0378 125.409 77.7329 122.552 75.2635C117.903 71.2424 114.33 64.1981 113.195 55.8831C112.06 47.5681 113.614 39.8242 117.015 34.7039C119.105 31.5592 121.89 29.43 125.187 28.9798C126.187 28.8433 126.889 27.9207 126.753 26.9209C126.616 25.9212 125.693 25.2203 124.693 25.3569C120.402 25.9427 116.688 28.588 113.97 32.6801C110.159 38.4147 108.301 47.0655 109.572 56.3777C110.844 65.6901 114.953 73.5262 120.161 78.0294C123.876 81.2434 128.163 82.7964 132.454 82.2106C133.454 82.074 134.156 81.1513 134.02 80.1516C133.883 79.1518 132.96 78.4511 131.96 78.5876Z" fill="#DD6140"/>
<path fill-rule="evenodd" clip-rule="evenodd" d="M125.154 29.011C128.454 28.5606 131.707 29.8655 134.563 32.3348C139.213 36.356 142.785 43.4001 143.92 51.7151C145.055 60.0302 143.502 67.7742 140.1 72.8945C138.01 76.0391 135.226 78.1684 131.927 78.6188C130.927 78.7553 130.227 79.6777 130.363 80.6774C130.499 81.6772 131.421 82.3783 132.421 82.2417C136.714 81.6557 140.426 79.0106 143.146 74.9182C146.956 69.1838 148.814 60.5331 147.542 51.2207C146.271 41.9084 142.162 34.0723 136.954 29.5689C133.237 26.3552 128.952 24.802 124.66 25.388C123.66 25.5246 122.959 26.447 123.096 27.4468C123.232 28.4466 124.154 29.1475 125.154 29.011Z" fill="#DD6140"/>
<path fill-rule="evenodd" clip-rule="evenodd" d="M152.817 158.15C152.817 158.15 123.488 213.942 117.111 227.86C117.111 227.86 109.98 228.61 106.743 233.169H155.902L167.77 212.498C167.77 212.498 176.567 224.092 184.5 227.86C184.5 227.86 179.91 230.567 179.332 233.169H224.499L192.26 182.861C192.26 182.861 215.369 139.525 192.26 126.945C185.749 123.4 169.75 124.085 152.817 158.15Z" fill="url(#paint0_linear_323_4975)"/>
<path fill-rule="evenodd" clip-rule="evenodd" d="M164.671 139.103L156.192 158.384C149.884 172.729 151.502 189.324 160.46 202.182L160.506 202.247L195.53 187.973L196.221 189.054L161.246 203.309C165.097 208.823 168.662 213.748 170.516 215.839C170.549 215.876 170.578 215.915 170.603 215.956C168.861 213.947 167.781 212.525 167.781 212.525L166.967 213.942C164.857 211.171 162.062 207.248 159.165 203.084C156.574 199.364 154.576 195.341 153.184 191.152L136.32 189.834L136.603 189.289L136.952 188.617L152.773 189.854C149.639 179.404 150.231 168.02 154.748 157.75L160.344 145.022C161.805 142.829 163.249 140.863 164.671 139.103ZM192.788 183.695L192.781 183.709C192.781 183.709 190.023 179.341 188.41 176.788C188.247 176.532 188.269 176.202 188.462 175.969C188.655 175.735 188.975 175.653 189.256 175.764L194.67 177.88C193.281 180.993 192.272 182.889 192.272 182.889L192.788 183.695Z" fill="#F49387"/>
<path fill-rule="evenodd" clip-rule="evenodd" d="M235.633 47.863C237.464 46.2658 240.08 43.3334 240.599 41.8057C241.355 39.5842 239.771 39.2814 238.92 39.9454C235.381 42.7096 230.537 44.8463 230.537 44.8463C221.43 48.8103 198.955 73.2138 198.955 73.2138C185.746 86.1178 164.862 87.0189 159.069 87.0083C157.085 86.9993 155.124 87.4355 153.331 88.2848C147.181 91.2106 143.46 97.3472 143.46 97.3472C143.46 97.3472 141.113 94.8328 139.059 93.6901C138.202 93.2167 137.137 93.3655 136.442 94.0553C136.442 94.0551 136.442 94.0553 136.442 94.0553C134.462 93.6865 132.503 94.7934 131.798 96.6798C131.64 97.1049 131.509 97.4947 131.444 97.793C131.444 97.793 129.604 98.5308 129.51 100.523C129.51 100.523 127.341 101.423 127.332 103.541C127.332 103.541 124.111 106.857 127.332 110.095C127.332 110.095 129.527 111.385 130.059 108.56C130.059 108.56 130.848 134.201 131.235 146.768C131.369 151.084 133.324 155.141 136.619 157.933C140.678 161.373 146.514 161.739 150.972 158.834C151.27 158.64 151.557 158.454 151.83 158.275C153.809 156.986 155.509 155.31 156.825 153.347C159.004 150.093 161.794 144.738 162.059 138.338V125.034C162.059 125.034 172.361 129.148 179.647 113.448C179.647 113.448 184.527 114.27 191.145 112.669C195.105 111.712 199.687 109.887 204.221 106.501C207.39 104.141 210.122 101.242 212.29 97.9374C216.529 91.483 227.455 74.8252 230.537 70.033C230.537 70.033 234.293 64.5278 237.517 61.7535C237.517 61.7535 240.666 64.7869 243.25 58.3931C243.25 58.3931 244.492 55.3776 241.082 53.9945C241.082 53.9945 241.333 50.6253 238.098 50.5799C238.42 48.2784 237.288 47.757 235.633 47.863Z" fill="#FFCCC5"/>
<path fill-rule="evenodd" clip-rule="evenodd" d="M209.944 61.8438C213.218 63.7839 219.527 68.1886 226.316 76.4862C221.759 83.4667 215.307 93.3 212.276 97.9156C210.108 101.22 207.376 104.119 204.207 106.479C199.673 109.865 195.091 111.69 191.131 112.647C184.513 114.248 179.633 113.426 179.633 113.426C172.347 129.127 162.045 125.012 162.045 125.012V138.316C161.78 144.717 158.99 150.071 156.811 153.325C155.495 155.288 153.795 156.964 151.816 158.253C151.543 158.432 151.256 158.618 150.958 158.812C146.5 161.717 140.664 161.351 136.605 157.911C133.31 155.119 131.355 151.062 131.221 146.746L130.427 120.955H141.191C140.99 118.224 141.158 104.004 142.285 100.372C142.725 98.9499 143.165 97.8995 143.645 97.0151C144.491 95.7328 147.994 90.7952 153.317 88.263C155.11 87.4137 157.071 86.9775 159.055 86.9865C164.848 86.9971 185.733 86.096 198.941 73.192C198.941 73.192 203.816 67.8995 209.944 61.8438Z" fill="#F49387"/>
<path fill-rule="evenodd" clip-rule="evenodd" d="M141.176 120.414H141.216V145.458C141.216 145.643 141.072 145.794 140.887 145.802C140.704 145.81 140.546 145.673 140.531 145.49L138.321 120.941H141.204C141.193 120.797 141.184 120.62 141.176 120.414ZM162.059 125.748L161.137 105.929C161.133 105.808 161.216 105.701 161.336 105.678C161.455 105.656 161.573 105.725 161.611 105.84C162.558 108.925 164.5 115.974 165.753 125.469C163.53 125.585 162.059 124.998 162.059 124.998V125.748ZM179.345 114.046C180.03 112.266 182.371 104.92 178.004 96.9634C177.906 96.7868 177.955 96.5652 178.118 96.4459C178.28 96.3264 178.506 96.3466 178.646 96.4929C180.729 98.6983 184.035 103.538 186.426 113.444C182.334 113.865 179.647 113.412 179.647 113.412C179.547 113.627 179.446 113.838 179.345 114.046Z" fill="#B44335"/>
<path fill-rule="evenodd" clip-rule="evenodd" d="M130.265 107.87C130.166 108.471 129.961 109.137 129.961 109.137L128.078 108.129C127.769 107.969 127.647 107.588 127.806 107.278C127.967 106.969 128.348 106.847 128.657 107.007L130.265 107.87ZM127.87 101.934C128.09 101.883 128.335 101.854 128.603 101.86C129.806 101.888 131.614 102.664 133.772 105.988C133.963 106.28 133.879 106.671 133.587 106.861C133.295 107.051 132.904 106.967 132.713 106.675C130.934 103.934 129.566 103.145 128.573 103.122C127.805 103.104 127.374 103.6 127.374 103.6L127.384 103.538C127.387 102.894 127.589 102.362 127.87 101.934ZM129.989 99.102C130.23 99.0714 130.505 99.0664 130.813 99.1041C131.944 99.243 133.65 100.004 135.814 102.684C136.033 102.955 135.99 103.352 135.719 103.571C135.448 103.79 135.05 103.748 134.832 103.477C131.327 99.1369 129.561 100.519 129.561 100.519C129.588 99.9477 129.759 99.4795 129.989 99.102ZM131.982 96.3607C132.246 96.3274 132.544 96.3147 132.874 96.339C134.092 96.4283 135.803 97.0262 137.69 99.1879C137.919 99.4502 137.892 99.8493 137.63 100.079C137.368 100.308 136.969 100.281 136.74 100.018C134.139 97.0412 132.048 97.5639 131.498 97.7766C131.565 97.4801 131.693 97.0953 131.849 96.6763C131.889 96.5687 131.935 96.4635 131.982 96.3607ZM137.715 93.4368C138.578 94.0026 139.765 94.9897 140.843 96.6072C141.036 96.8973 140.957 97.2894 140.668 97.4826C140.377 97.6758 139.985 97.5972 139.792 97.3071C138.277 95.0325 136.374 94.0294 136.494 94.0518C136.835 93.7133 137.264 93.5052 137.715 93.4368ZM237.569 61.7501C237.217 62.0531 240.581 58.2917 240.581 58.2917C241.241 57.7447 241.986 58.5203 241.511 59.1462L238.579 62.3347C237.959 62.1266 237.569 61.7501 237.569 61.7501ZM241.012 52.789C241.175 53.4447 241.134 53.9911 241.134 53.9911C241.206 54.0203 239.897 54.2205 239.201 54.5877C237.899 55.2747 236.832 56.3298 236.832 56.3298C236.584 56.5747 236.183 56.5723 235.939 56.3244C235.694 56.0767 235.697 55.6766 235.945 55.4317C235.945 55.4317 237.146 54.2445 238.612 53.4712C239.381 53.0654 240.22 52.7867 241.012 52.789ZM238.151 49.2539C238.221 49.607 238.224 50.0394 238.151 50.5649C237.37 50.8092 235.861 51.4663 233.938 53.2006C233.679 53.434 233.28 53.4133 233.046 53.1545C232.813 52.8957 232.833 52.4963 233.092 52.2631C235.468 50.1205 237.316 49.4567 238.151 49.2539ZM237.241 46.3711C236.703 46.9266 236.168 47.4393 235.685 47.8595C235.759 47.8548 232.604 49.0482 230.936 50.1249C230.643 50.3138 230.253 50.2295 230.063 49.9368C229.874 49.6441 229.958 49.2532 230.251 49.0641C232.642 47.5215 235.156 46.4953 237.241 46.3711Z" fill="#F49387"/>
<path d="M159.331 80.392C164.366 80.392 168.447 76.3105 168.447 71.2758C168.447 66.2411 164.366 62.1597 159.331 62.1597C154.296 62.1597 150.215 66.2411 150.215 71.2758C150.215 76.3105 154.296 80.392 159.331 80.392Z" fill="#FFCCC5"/>
<path fill-rule="evenodd" clip-rule="evenodd" d="M161.376 62.3704C165.438 63.2909 168.472 66.9244 168.472 71.2615C168.472 76.2927 164.387 80.3776 159.356 80.3776C159.209 80.3776 159.061 80.374 158.916 80.3671C157.442 77.0442 159.7 75.6883 160.306 75.3939C160.678 75.706 161.16 75.8941 161.685 75.8941C162.867 75.8941 163.827 74.9436 163.827 73.7729C163.827 72.6022 162.867 71.6517 161.685 71.6517C161.21 71.6517 160.77 71.8062 160.413 72.0674C157.004 67.4218 159.832 63.8233 161.376 62.3704Z" fill="black"/>
<path fill-rule="evenodd" clip-rule="evenodd" d="M170.433 72.6689C170.338 72.6427 171.043 72.2683 171.225 72.1485C171.727 71.818 172.221 71.4672 172.686 71.0867C174.094 69.9331 174.982 68.5462 175.959 67.0385C179.276 61.9176 184.615 56.7403 191.05 56.4872C202.433 56.0393 208.742 68.9246 207.085 78.812C205.829 86.3115 197.877 90.2399 190.768 89.1923C186.545 88.5698 182.469 86.1381 179.634 82.9783C177.969 81.1218 176.713 78.9445 175.342 76.873C174.108 75.0061 172.808 72.9381 170.433 72.6689Z" fill="black"/>
<defs>
<linearGradient id="paint0_linear_323_4975" x1="160.04" y1="164.596" x2="154.671" y2="281.583" gradientUnits="userSpaceOnUse">
<stop stop-color="#FFCCC5"/>
<stop offset="1" stop-color="#F49387"/>
</linearGradient>
</defs>
</svg>