<svg width="268" height="210" viewBox="0 0 268 210" fill="none" xmlns="http://www.w3.org/2000/svg">
<path fill-rule="evenodd" clip-rule="evenodd" d="M73.9253 93.6879C73.9253 93.6879 47.9925 90.7752 37.9504 109.518C34.5712 115.824 9.52444 174.306 6.86931 197.353C6.86931 197.353 0.837725 199.261 0 202.357H35.5312C35.9077 202.357 36.2474 202.13 36.3925 201.783C38.9852 195.58 61.7362 141.146 61.7362 141.146C61.7362 141.146 64.6615 190.489 65.2589 200.571C65.3187 201.574 66.1497 202.357 67.1545 202.357C73.8902 202.357 97.3512 202.357 97.3512 202.357C97.3512 202.357 96.5187 199.104 90.4256 197.353C90.4256 197.353 93.7205 120.595 84.5735 101.377L73.9253 93.6879Z" fill="url(#paint0_linear_323_12038)"/>
<path fill-rule="evenodd" clip-rule="evenodd" d="M56.6938 153.157L59.901 120.799C59.9229 120.574 60.1143 120.404 60.3406 120.41C60.5655 120.416 60.7481 120.596 60.7583 120.822L61.6726 141.245L56.6938 153.157Z" fill="#13524E"/>
<path fill-rule="evenodd" clip-rule="evenodd" d="M90.9559 167.752C90.9559 168.243 90.9545 168.729 90.953 169.213H63.3545L63.2683 167.752H90.9559ZM14.6149 167.752H50.5582L49.9479 169.213H14.1248L14.1325 169.189C14.2874 168.725 14.4433 168.262 14.5998 167.797L14.6149 167.752Z" fill="#82B5B2"/>
<path d="M53.9638 48.7096C59.2347 48.7096 63.5077 44.4366 63.5077 39.1657C63.5077 33.8948 59.2347 29.6218 53.9638 29.6218C48.6929 29.6218 44.4199 33.8948 44.4199 39.1657C44.4199 44.4366 48.6929 48.7096 53.9638 48.7096Z" fill="#A8CFCC"/>
<path fill-rule="evenodd" clip-rule="evenodd" d="M53.2588 29.6218C53.7408 31.567 54.4374 36.4724 50.8114 40.8068C50.427 40.1844 49.7314 39.7681 48.9379 39.7681C47.7285 39.7681 46.7467 40.7347 46.7467 41.925C46.7467 43.1154 47.7285 44.0819 48.9379 44.0819C49.147 44.0819 49.3494 44.0529 49.5412 43.9988C49.5685 44.7505 49.3741 45.8015 48.4523 46.9304C46.0133 45.2012 44.4199 42.3552 44.4199 39.14C44.4199 34.1096 48.3201 29.983 53.2588 29.6218Z" fill="black"/>
<path fill-rule="evenodd" clip-rule="evenodd" d="M46.1542 44.0388C45.8828 44.198 45.1995 44.1741 44.8887 44.2364C43.8693 44.4407 42.8557 44.6778 41.8465 44.9272C38.7254 45.6985 35.6486 46.6266 32.7369 48.0053C30.6185 49.0084 28.4005 50.2781 27.3981 52.5009C25.9412 55.7321 28.5306 58.6321 31.897 58.3286C35.1436 58.0359 37.6917 55.6837 39.8549 53.4717C42.3859 50.8836 45.2759 48.094 47.2164 45.0052" fill="black"/>
<path fill-rule="evenodd" clip-rule="evenodd" d="M35.0762 65.4139C33.461 67.1349 19.2506 82.6706 8.57342 94.6562C4.99118 98.7102 4.66666 104.695 7.78958 109.113C7.78914 109.115 7.78929 109.115 7.78929 109.115C10.5322 112.995 15.4968 114.615 20.0004 113.099C24.8803 111.454 31.5448 107.657 39.3007 99.1498C43.2404 94.8281 46.3724 90.8821 48.9568 88.4663C48.9568 88.4663 60.295 92.1139 66.1267 85.8619C66.1267 85.8619 80.3633 104.053 94.1414 111.304C99.5904 114.137 106.304 112.236 109.457 106.965C110.925 104.532 111.541 101.602 109.89 98.421C102.657 84.4886 91.3008 73.9467 73.9431 57.2574C70.5738 54.017 64.6823 49.3886 53.2716 52.0298C48.9725 53.025 43.732 56.1914 35.0762 65.4139Z" fill="#A8CFCC"/>
<path fill-rule="evenodd" clip-rule="evenodd" d="M60.0823 76.8345C60.0823 76.8345 60.4562 76.7381 60.8973 76.778C61.2711 76.8117 61.7137 76.9439 61.9415 77.4144C62.2467 78.0473 61.7852 78.5697 61.0813 79.1035C59.6544 80.1863 57.1409 81.1332 54.9152 82.0395C54.6158 82.161 54.4727 82.5021 54.5939 82.8008C54.7151 83.0993 55.0568 83.2432 55.3548 83.1215C57.6813 82.175 60.297 81.1655 61.7881 80.0342C63.0325 79.0903 63.5334 78.0262 62.993 76.9066C62.552 75.9931 61.7283 75.68 61.0024 75.6143C60.3437 75.5548 59.7844 75.705 59.7844 75.705C59.4718 75.7873 59.2864 76.1073 59.3681 76.419C59.4514 76.7308 59.7712 76.917 60.0823 76.8345Z" fill="#82B5B2"/>
<path fill-rule="evenodd" clip-rule="evenodd" d="M64.6036 74.5134C64.6036 74.5134 65.2988 73.8394 66.2451 73.3015C66.8366 72.9657 67.5289 72.6739 68.208 72.6774C68.4855 72.6779 68.7469 72.7984 68.9266 73.0075C69.1062 73.2165 69.1851 73.4934 69.1427 73.7656C69.0288 74.4215 68.7163 75.312 67.9101 76.1617C66.8016 77.3308 63.996 80.8606 55.0609 81.992C54.741 82.0325 54.5147 82.3252 54.5556 82.645C54.5964 82.9648 54.8885 83.1917 55.2084 83.1512C64.6386 81.9567 67.5873 78.2001 68.7586 76.9658C69.7663 75.9041 70.1504 74.789 70.2965 73.9548C70.3914 73.3341 70.2147 72.7148 69.8145 72.2472C69.4129 71.7795 68.8287 71.51 68.2124 71.5091C67.3361 71.5047 66.4321 71.8517 65.6683 72.2855C64.5831 72.9018 63.7886 73.6757 63.7886 73.6757C63.5579 73.9004 63.552 74.2707 63.7769 74.5019C64.0019 74.7329 64.3714 74.7382 64.6036 74.5134Z" fill="#82B5B2"/>
<path fill-rule="evenodd" clip-rule="evenodd" d="M66.0741 78.3073C66.0741 78.3073 64.5771 82.1281 63.0991 83.6048C62.8713 83.8328 62.8713 84.203 63.0991 84.431C63.3269 84.6591 63.6979 84.6591 63.9257 84.4312C65.5176 82.8397 67.1607 78.7378 67.1607 78.7378C67.2789 78.4381 67.1329 78.0983 66.832 77.9794C66.5326 77.8607 66.1924 78.0076 66.0741 78.3073Z" fill="#82B5B2"/>
<path fill-rule="evenodd" clip-rule="evenodd" d="M61.5645 80.8603V82.2353C61.5645 82.5578 61.8259 82.8195 62.1486 82.8195C62.4699 82.8195 62.7328 82.5578 62.7328 82.2353V80.8603C62.7328 80.538 62.4699 80.2761 62.1486 80.2761C61.8259 80.2761 61.5645 80.538 61.5645 80.8603Z" fill="#82B5B2"/>
<path fill-rule="evenodd" clip-rule="evenodd" d="M65.7913 58.7952C65.7913 58.7952 64.8566 59.1825 64.417 60.2479C64.1468 60.9019 64.0475 61.8313 64.5586 63.1081C65.1487 64.5792 66.6661 68.9337 64.6039 72.2857C64.4345 72.5602 64.5207 72.9202 64.7938 73.0894C65.0698 73.2583 65.4291 73.1726 65.5985 72.898C67.8973 69.1638 66.2995 64.3125 65.6423 62.6733C65.2889 61.7884 65.3093 61.1471 65.4963 60.6939C65.7431 60.0988 66.2498 59.8695 66.2498 59.8695C66.5463 59.7427 66.6851 59.3991 66.558 59.1026C66.4309 58.8063 66.0877 58.6684 65.7913 58.7952Z" fill="#82B5B2"/>
<path fill-rule="evenodd" clip-rule="evenodd" d="M43.4747 94.4281C42.1912 95.9047 40.8048 97.4995 39.3007 99.1498C31.5448 107.657 24.8803 111.454 20.0004 113.099C15.4968 114.615 10.5322 112.995 7.78929 109.115C7.78929 109.115 7.78914 109.115 7.78958 109.113C4.66666 104.695 4.99118 98.7102 8.57342 94.6562C19.2506 82.6706 33.461 67.1349 35.0762 65.4139C43.732 56.1914 48.9725 53.025 53.2716 52.0298C64.6823 49.3886 70.5738 54.017 73.9431 57.2574C91.3008 73.9467 102.657 84.4886 109.89 98.421C111.541 101.602 110.925 104.532 109.457 106.965C106.91 111.222 102.04 113.281 97.3895 112.423L93.4389 110.926C88.6807 108.297 83.8962 104.425 79.6886 100.505C77.2934 98.0165 75.6519 96.1208 75.6519 96.1208L82.6314 78.8851L71.3902 70.9141C70.917 67.6532 70.7301 65.5691 69.7209 63.4082C69.4463 62.817 69.109 62.2201 68.6869 61.5918C66.7255 58.6667 65.4899 60.4078 65.4899 60.4078C64.5786 59.2828 63.733 58.7646 63.1692 58.5267C62.8713 58.4083 62.5368 58.4292 62.2564 58.5837C61.9775 58.7382 61.7818 59.0101 61.7234 59.3246C61.5875 60.0978 62.0607 60.9695 62.3163 61.3697C62.3952 61.4909 62.4857 61.6044 62.5865 61.7084C68.1261 67.4352 65.0635 73.8634 65.0635 73.8634C62.3266 77.2323 57.4398 77.1524 57.4398 77.1524C53.866 77.4399 51.6184 76.3382 50.3437 75.3335C48.4483 73.844 45.9414 73.3819 43.6394 74.098C38.021 75.8885 31.9586 81.2223 31.9586 81.2223L43.4747 94.4281Z" fill="url(#paint1_linear_323_12038)"/>
<path fill-rule="evenodd" clip-rule="evenodd" d="M48.9983 88.4344L54.7252 82.0295C54.7252 82.0295 61.6259 85.1801 63.8122 82.7152L66.5857 86.3686C66.3009 86.0168 66.1519 85.8249 66.1519 85.8249C60.4488 91.9398 49.4762 88.5844 48.9983 88.4344Z" fill="#82B5B2"/>
<path fill-rule="evenodd" clip-rule="evenodd" d="M33.2755 80.1374C32.4667 80.7797 31.9908 81.1984 31.9908 81.1984L32.9331 82.279L15.808 96.4752C15.4977 96.7323 15.0371 96.6885 14.7797 96.3788C14.5225 96.0678 14.5656 95.6077 14.876 95.3505L33.0956 80.2471C33.1514 80.2009 33.2121 80.1643 33.2755 80.1374ZM81.8224 78.2646C81.9757 78.2743 82.1291 78.3326 82.2547 78.4414L98.9318 92.893C99.2355 93.157 99.2691 93.6186 99.0048 93.9231C98.7404 94.2277 98.2789 94.2607 97.9752 93.9968L82.1043 80.2437L82.6636 78.8613L81.8224 78.2646ZM34.9367 78.8721C35.0227 77.4658 35.2664 74.7145 35.928 72.3074C35.9993 72.0854 36.2083 71.9369 36.4414 71.9426C36.6745 71.9483 36.876 72.1067 36.9363 72.3319C37.2953 73.664 37.7875 75.4976 38.119 76.7335C36.9439 77.4516 35.8579 78.1988 34.9367 78.8721ZM75.1889 73.5616L75.9718 69.835C76.001 69.6955 76.1134 69.5884 76.2536 69.5654C76.3938 69.5423 76.534 69.6079 76.6056 69.7305C77.0481 70.708 77.7141 72.5907 78.0369 75.5812L75.1889 73.5616Z" fill="#13524E"/>
<path d="M56.9107 77.4355C62.0338 77.4355 66.1869 73.3394 66.1869 68.2866C66.1869 63.2338 62.0338 59.1377 56.9107 59.1377C51.7876 59.1377 47.6345 63.2338 47.6345 68.2866C47.6345 73.3394 51.7876 77.4355 56.9107 77.4355Z" fill="#FFCD80"/>
<path d="M56.8689 75.9319C61.1619 75.9319 64.642 72.4994 64.642 68.2654C64.642 64.0313 61.1619 60.5989 56.8689 60.5989C52.5759 60.5989 49.0957 64.0313 49.0957 68.2654C49.0957 72.4994 52.5759 75.9319 56.8689 75.9319Z" fill="#FFB000"/>
<path d="M54.3184 71.2089C55.179 71.8351 56.1609 72.1133 57.2802 72.0711C58.6127 71.9897 59.2417 71.4879 59.2104 70.5634C59.1615 69.8108 58.6875 69.3788 57.7884 69.2674C57.3689 69.2316 56.9207 69.1972 56.4286 69.1507C55.5448 69.0528 54.8497 68.7602 54.3585 68.2863C53.8522 67.7989 53.5821 67.1857 53.5341 66.4473C53.4769 65.5669 53.7175 64.8424 54.2846 64.2725C54.823 63.704 55.6227 63.393 56.6684 63.326C57.9463 63.2901 59.0734 63.5895 60.0488 64.2099L59.2707 65.5171C58.4785 65.0584 57.615 64.8312 56.6965 64.8632C56.2233 64.8871 55.8292 65.0209 55.5295 65.2782C55.2154 65.5362 55.0674 65.9141 55.0844 66.3976C55.1038 66.6958 55.2352 66.9457 55.4803 67.1755C55.7254 67.4053 56.1083 67.5428 56.6166 67.6169C56.8918 67.6457 57.2826 67.683 57.7737 67.7153C58.7427 67.7946 59.4674 68.1 59.9622 68.6307C60.4418 69.1479 60.7118 69.7612 60.7589 70.4854C60.8414 72.4188 59.7008 73.4593 57.3656 73.6054C55.8601 73.6813 54.5249 73.2785 53.3752 72.4104L54.3184 71.2089Z" fill="#FFCD80"/>
<path fill-rule="evenodd" clip-rule="evenodd" d="M56.3752 62.0856L56.1079 74.7987L57.8793 74.7987L57.8791 62.0856L56.3752 62.0856Z" fill="#FFCD80"/>
<path fill-rule="evenodd" clip-rule="evenodd" d="M20.6441 180.249C19.7622 180.09 19.0928 179.317 19.0928 178.39V174.61C19.0928 173.567 19.9395 172.72 20.9825 172.72H42.2097C43.2527 172.72 44.0995 173.567 44.0995 174.61V178.39C44.0995 179.317 43.43 180.09 42.5482 180.249C43.43 180.41 44.0995 181.182 44.0995 182.11V185.889C44.0995 186.817 43.43 187.588 42.5482 187.748C43.43 187.908 44.0995 188.68 44.0995 189.608V193.387C44.0995 194.315 43.43 195.087 42.5482 195.246C43.43 195.407 44.0995 196.178 44.0995 197.106V200.885C44.0995 201.928 43.2527 202.775 42.2097 202.775H20.9825C19.9395 202.775 19.0928 201.928 19.0928 200.885V197.106C19.0928 196.178 19.7622 195.407 20.6441 195.246C19.7622 195.087 19.0928 194.315 19.0928 193.387V189.608C19.0928 188.68 19.7622 187.908 20.6441 187.748C19.7622 187.588 19.0928 186.817 19.0928 185.889V182.11C19.0928 181.182 19.7622 180.41 20.6441 180.249Z" fill="#FFCD80"/>
<path fill-rule="evenodd" clip-rule="evenodd" d="M39.0517 172.72V178.768H43.9539C43.9775 178.768 44.0009 178.769 44.0238 178.771C43.8767 179.489 43.3222 180.059 42.6129 180.228H42.5752V180.237C42.554 180.242 42.5327 180.246 42.5111 180.249C42.5327 180.253 42.554 180.258 42.5752 180.262V186.265H43.9539C43.9775 186.265 44.001 186.266 44.0241 186.268C43.8778 186.985 43.3257 187.554 42.6187 187.725H41.0569V193.763H43.9539C43.9777 193.763 44.0012 193.763 44.0244 193.766C43.8789 194.48 43.3292 195.049 42.6245 195.223H38.7509V202.775H37.2905V195.223H35.9084V202.775H34.448V195.223H24.7484V202.775H23.2879V195.223H20.4935C19.7878 195.049 19.2373 194.478 19.0929 193.763H28.2697V187.725H20.4993C19.7911 187.554 19.2384 186.983 19.0932 186.265H21.197V180.228H20.5052C19.7948 180.059 19.2397 179.487 19.0935 178.768H25.2271V172.72H26.6876V178.768H34.6253V172.72H36.0857V178.768H37.5912V172.72H39.0517ZM29.7302 187.725V193.763H30.8342V187.725H29.7302ZM32.2947 187.725V193.763H39.5964V187.725H32.2947ZM22.6575 180.228V186.265H33.546V180.228H22.6575ZM35.0064 180.228V186.265H41.1147V180.228H35.0064Z" fill="#FDA425"/>
<path fill-rule="evenodd" clip-rule="evenodd" d="M216.87 79.6835C215.871 79.1903 215.183 78.1607 215.183 76.9717V70.9271C215.183 69.2589 216.537 67.9048 218.205 67.9048H264.102C265.77 67.9048 267.123 69.2589 267.123 70.9271V76.9717C267.123 78.1607 266.436 79.1903 265.435 79.6835C266.436 80.1768 267.123 81.2065 267.123 82.3954V88.44C267.123 89.4854 266.592 90.4076 265.784 90.9503C266.592 91.4932 267.123 92.4151 267.123 93.4606V99.5055C267.123 100.551 266.592 101.473 265.784 102.016C266.592 102.558 267.123 103.481 267.123 104.525V110.57C267.123 111.616 266.592 112.537 265.784 113.081C266.592 113.624 267.123 114.545 267.123 115.591V121.636C267.123 122.68 266.592 123.603 265.784 124.147C266.592 124.688 267.123 125.611 267.123 126.656V132.701C267.123 133.746 266.592 134.668 265.784 135.211C266.592 135.754 267.123 136.676 267.123 137.722V143.767C267.123 144.811 266.592 145.734 265.784 146.276C266.592 146.819 267.123 147.74 267.123 148.786V154.831C267.123 155.877 266.592 156.798 265.784 157.342C266.592 157.885 267.123 158.806 267.123 159.852V165.897C267.123 166.941 266.592 167.864 265.784 168.406C266.592 168.949 267.123 169.871 267.123 170.917V176.962C267.123 178.007 266.592 178.929 265.784 179.472C266.592 180.014 267.123 180.937 267.123 181.983V188.026C267.123 189.072 266.592 189.995 265.784 190.537C266.592 191.08 267.123 192.002 267.123 193.047V199.092C267.123 200.76 265.77 202.114 264.102 202.114H218.205C216.537 202.114 215.183 200.76 215.183 199.092V193.047C215.183 192.002 215.715 191.08 216.523 190.537C215.715 189.995 215.183 189.072 215.183 188.026V181.983C215.183 180.937 215.715 180.014 216.523 179.472C215.715 178.929 215.183 178.007 215.183 176.962V170.917C215.183 169.871 215.715 168.949 216.523 168.406C215.715 167.864 215.183 166.941 215.183 165.897V159.852C215.183 158.806 215.715 157.885 216.523 157.342C215.715 156.798 215.183 155.877 215.183 154.831V148.786C215.183 147.74 215.715 146.819 216.523 146.276C215.715 145.734 215.183 144.811 215.183 143.767V137.722C215.183 136.676 215.715 135.754 216.523 135.211C215.715 134.668 215.183 133.746 215.183 132.701V126.656C215.183 125.611 215.715 124.688 216.523 124.147C215.715 123.603 215.183 122.68 215.183 121.636V115.591C215.183 114.545 215.715 113.624 216.523 113.081C215.715 112.537 215.183 111.616 215.183 110.57V104.525C215.183 103.481 215.715 102.558 216.523 102.016C215.715 101.473 215.183 100.551 215.183 99.5055V93.4606C215.183 92.4151 215.715 91.4932 216.523 90.9503C215.715 90.4076 215.183 89.4854 215.183 88.44V82.3954C215.183 81.2065 215.871 80.1768 216.87 79.6835Z" fill="#FFCD80"/>
<path fill-rule="evenodd" clip-rule="evenodd" d="M253.045 67.9048V78.15H258.639C258.713 77.8262 259.004 77.5844 259.35 77.5844C259.696 77.5844 259.987 77.8262 260.061 78.15H266.917C266.654 78.7698 266.191 79.2839 265.608 79.6105H260.08V89.5288H266.953C266.728 90.1113 266.328 90.6068 265.817 90.9503C265.836 90.963 265.853 90.976 265.872 90.9893H264.592V100.837C264.592 100.861 264.59 100.884 264.589 100.908H266.812C266.576 101.354 266.233 101.736 265.817 102.016C265.972 102.12 266.116 102.238 266.249 102.368H258.542V111.735H266.923C266.693 112.285 266.305 112.752 265.817 113.081C265.871 113.117 265.925 113.156 265.976 113.196H262.93V122.79H266.927C266.698 123.345 266.308 123.815 265.817 124.147C265.867 124.179 265.915 124.214 265.963 124.25H257.745V133.859H266.927C266.696 134.411 266.308 134.881 265.817 135.211C265.868 135.246 265.918 135.281 265.966 135.319H262.627V145.017H266.885C266.652 145.529 266.28 145.965 265.817 146.276C265.909 146.338 265.998 146.406 266.083 146.477H256.311V155.951H266.941C266.714 156.519 266.319 157.004 265.817 157.342C265.851 157.364 265.883 157.387 265.915 157.412H260.558V166.877H266.993C266.79 167.469 266.41 167.977 265.915 168.338H255.848V178.099H266.934C266.706 178.66 266.313 179.138 265.817 179.472C265.858 179.5 265.899 179.529 265.94 179.56H261.463V189.022H266.988C266.781 189.615 266.395 190.123 265.894 190.483H251.122V202.114H249.661V190.483H246.711V202.114H245.251V190.483H226.067V202.114H224.607V190.483H216.478C215.977 190.123 215.591 189.615 215.384 189.022H217.979V179.56H216.433C216.472 179.529 216.513 179.5 216.555 179.472C216.059 179.138 215.666 178.66 215.437 178.099H224.819V168.338H216.457C215.962 167.977 215.581 167.469 215.378 166.877H219.029V157.412H216.456C216.488 157.387 216.522 157.364 216.555 157.342C216.053 157.004 215.657 156.519 215.431 155.951H223.363V146.477H216.288C216.374 146.406 216.462 146.338 216.555 146.276C216.092 145.965 215.72 145.529 215.486 145.017H218.661V135.319H216.405C216.455 135.281 216.504 135.246 216.555 135.211C216.065 134.881 215.675 134.411 215.445 133.859H223.888V124.25H216.409C216.457 124.214 216.506 124.179 216.555 124.147C216.063 123.815 215.673 123.345 215.444 122.79H217.643V113.196H216.395C216.447 113.156 216.501 113.117 216.555 113.081C216.066 112.752 215.679 112.285 215.448 111.735H220.22V102.368H216.123C216.256 102.238 216.401 102.12 216.555 102.016C216.139 101.736 215.796 101.354 215.561 100.908H228.812V90.9893H221.333C221.238 91.0341 221.132 91.0591 221.021 91.0591C220.909 91.0591 220.804 91.0341 220.709 90.9893H216.498C216.517 90.976 216.536 90.963 216.555 90.9503C216.044 90.6068 215.644 90.1113 215.418 89.5288H220.291V79.6105H216.764C216.181 79.2839 215.717 78.7697 215.454 78.15H220.309C220.385 77.8262 220.674 77.5844 221.021 77.5844C221.368 77.5844 221.658 77.8262 221.733 78.15H230.91V67.9048H232.371V78.15H233.955V67.9048H235.416V78.15H239.613C239.688 77.8262 239.978 77.5844 240.326 77.5844C240.672 77.5844 240.963 77.8262 241.037 78.15H243.251C243.327 77.8262 243.616 77.5844 243.964 77.5844C244.31 77.5844 244.601 77.8262 244.675 78.15H251.585V67.9048H253.045ZM219.44 179.56V189.022H232.502V179.56H219.44ZM233.963 179.56V189.022H236.194V179.56H233.963ZM237.655 179.56V189.022H260.003V179.56H237.655ZM226.279 168.338V178.099H239.845V168.338H226.279ZM251.601 168.338H241.306V178.099H251.596V168.415L251.601 168.338ZM253.057 178.099H254.387V168.338H253.052C253.055 168.362 253.057 168.389 253.057 168.415V178.099ZM249.927 157.412V166.877H259.097V157.412H249.927ZM234.004 166.877H248.467V157.412H233.99C233.999 157.456 234.004 157.501 234.004 157.546V166.877ZM232.555 157.412H220.49V166.877H232.543V157.546C232.543 157.502 232.546 157.457 232.555 157.413V157.412ZM244.484 146.477V155.951H254.85V146.477H244.484ZM241.185 146.477V155.951H243.023V146.477H241.185ZM224.823 146.477V155.951H239.724V146.477H224.823ZM231.218 135.319V145.017H249.095V135.319H231.218ZM220.122 135.319V145.017H229.758V135.319H220.122ZM250.555 135.319V145.017H261.167V135.319H250.555ZM237.996 124.25V133.859H239.445V124.25H237.996ZM230.615 133.859H236.536V124.25H225.349V133.859H230.361C230.402 133.851 230.444 133.847 230.488 133.847C230.532 133.847 230.574 133.851 230.615 133.859ZM240.906 124.25V133.859H256.284V124.25H240.906ZM257.232 122.79H261.469V113.196H249.514V122.79H256.797C256.866 122.768 256.939 122.756 257.015 122.756C257.091 122.756 257.164 122.768 257.232 122.79ZM245.995 113.196V122.79H248.053V113.196H245.995ZM219.104 113.196V122.79H233.413V113.196H219.104ZM234.874 113.196V122.79H244.535V113.196H234.874ZM221.68 102.368V111.735H223.463V102.368H221.68ZM241.734 102.368V111.735H257.082V102.368H241.734ZM224.924 102.368V111.735H240.273V102.368H224.924ZM232.857 90.9893H230.272V100.908H232.861C232.859 100.884 232.857 100.861 232.857 100.837V90.9893ZM250.514 90.9893H244.275C244.182 91.0341 244.075 91.0591 243.964 91.0591C243.851 91.0591 243.746 91.0341 243.651 90.9893H240.637C240.542 91.0341 240.437 91.0591 240.326 91.0591C240.213 91.0591 240.108 91.0341 240.013 90.9893H234.318V100.837C234.318 100.861 234.318 100.884 234.315 100.908H250.517C250.514 100.884 250.514 100.861 250.514 100.837V90.9893ZM263.131 90.9893H259.663C259.568 91.0341 259.462 91.0591 259.35 91.0591C259.239 91.0591 259.132 91.0341 259.039 90.9893H251.975V100.837C251.975 100.861 251.973 100.884 251.97 100.908H263.134C263.133 100.884 263.131 100.861 263.131 100.837V90.9893ZM221.752 79.6105V89.5288H239.596V79.6105H221.752ZM241.056 79.6105V89.5288H243.234V79.6105H241.056ZM244.694 79.6105V89.5288H258.62V79.6105H244.694Z" fill="#FDA425"/>
<path fill-rule="evenodd" clip-rule="evenodd" d="M139.275 146.599C138.467 146.057 137.936 145.134 137.936 144.09V138.045C137.936 136.377 139.289 135.022 140.957 135.022H186.852C188.522 135.022 189.876 136.377 189.876 138.045V144.09C189.876 145.134 189.344 146.057 188.536 146.599C189.344 147.142 189.876 148.064 189.876 149.109V155.154C189.876 156.2 189.344 157.122 188.536 157.665C189.344 158.207 189.876 159.13 189.876 160.175V166.219C189.876 167.265 189.344 168.188 188.536 168.729C189.344 169.273 189.876 170.194 189.876 171.24V177.285C189.876 178.331 189.344 179.252 188.536 179.795C189.344 180.337 189.876 181.26 189.876 182.305V188.349C189.876 189.395 189.344 190.317 188.536 190.86C189.344 191.403 189.876 192.325 189.876 193.37V199.415C189.876 201.083 188.522 202.437 186.852 202.437H140.957C139.289 202.437 137.936 201.083 137.936 199.415V193.37C137.936 192.325 138.467 191.403 139.275 190.86C138.467 190.317 137.936 189.395 137.936 188.349V182.305C137.936 181.26 138.467 180.337 139.275 179.795C138.467 179.252 137.936 178.331 137.936 177.285V171.24C137.936 170.194 138.467 169.273 139.275 168.729C138.467 168.188 137.936 167.265 137.936 166.219V160.175C137.936 159.13 138.467 158.207 139.275 157.665C138.467 157.122 137.936 156.2 137.936 155.154V149.109C137.936 148.064 138.467 147.142 139.275 146.599Z" fill="#FFCD80"/>
<path fill-rule="evenodd" clip-rule="evenodd" d="M179.114 145.357H189.621C189.387 145.863 189.017 146.292 188.56 146.599C188.66 146.666 188.755 146.739 188.847 146.818H184.513V156.275V156.276H189.683C189.457 156.844 189.061 157.328 188.56 157.665C188.594 157.688 188.629 157.712 188.663 157.736H180.014V167.13C180.014 167.173 180.011 167.213 180.003 167.253H189.717C189.499 167.85 189.099 168.36 188.584 168.713H185.918V178.17C185.918 178.211 185.914 178.252 185.908 178.291H189.727C189.517 178.886 189.127 179.394 188.622 179.752H180.664V189.375H189.72C189.505 189.972 189.108 190.48 188.595 190.835H185.561V202.437H184.1V190.835H174.679C174.679 190.848 174.68 190.86 174.68 190.872V202.437H173.22V190.872C173.22 190.86 173.22 190.848 173.22 190.835H166.017C165.923 190.879 165.821 190.902 165.713 190.902C165.603 190.902 165.501 190.879 165.408 190.835H156.05V202.437H154.59V190.835H152.037V202.437H150.576V190.835H139.262C138.75 190.48 138.352 189.972 138.138 189.375H148.215V179.752H139.236C138.732 179.394 138.341 178.886 138.13 178.291H141.84V168.713H139.275C138.758 168.36 138.358 167.85 138.141 167.253H147.106V157.736H139.195C139.23 157.712 139.264 157.688 139.299 157.665C138.796 157.328 138.402 156.844 138.174 156.276H141.368V146.818H139.012C139.103 146.739 139.198 146.666 139.299 146.599C138.84 146.292 138.472 145.863 138.237 145.357H144.951V135.022H146.411V145.357H147.907V135.022H149.367V145.357H162.78V135.022H164.241V145.357H177.654V135.022H179.114V145.357ZM149.675 179.752V189.375H164.983V179.752H149.675ZM166.443 179.752V189.375H176.311V179.752H166.443ZM177.772 179.752V189.375H179.203V179.752H177.772ZM143.3 168.713V178.291H155.116V168.713H143.3ZM170.903 168.713H156.576V178.291H170.943C170.918 178.217 170.903 178.136 170.903 178.053V168.713ZM184.458 168.713H172.364V178.053C172.364 178.136 172.351 178.217 172.324 178.291H184.467C184.461 178.252 184.458 178.211 184.458 178.17V168.713ZM148.567 157.736V167.253H159.789V157.736H148.567ZM161.25 157.736V167.253H162.976V157.736H161.25ZM178.553 157.736H164.436V167.253H171.409C171.479 167.23 171.555 167.218 171.634 167.218C171.712 167.218 171.788 167.23 171.86 167.253H178.565C178.558 167.213 178.553 167.173 178.553 167.13V157.736ZM142.829 146.818V156.276H155.69V146.818H142.829ZM157.15 146.818V156.276H168.778V146.818H157.15ZM170.239 146.818V156.276H172.193V146.818H170.239ZM183.053 146.818H173.653V156.276H183.053V156.275V146.818Z" fill="#FDA425"/>
<path fill-rule="evenodd" clip-rule="evenodd" d="M189.88 103.363H203.948C228.153 103.363 247.805 126.181 247.805 154.287C247.805 180.219 231.101 202.051 209.503 205.21C207.692 205.476 189.975 205.21 189.975 205.21C165.77 205.21 146.118 182.392 146.118 154.287C146.118 126.218 165.719 103.421 189.88 103.363Z" fill="#FDA425"/>
<path d="M189.974 205.211C214.194 205.211 233.829 182.411 233.829 154.287C233.829 126.162 214.194 103.363 189.974 103.363C165.753 103.363 146.118 126.162 146.118 154.287C146.118 182.411 165.753 205.211 189.974 205.211Z" fill="#FFCD80"/>
<path fill-rule="evenodd" clip-rule="evenodd" d="M190.083 124.049L188.568 123.965L188.603 121.705L191.245 121.852C191.871 121.887 192.368 122.421 192.358 123.045L192.299 126.866C194.61 127.099 196.823 127.594 198.935 128.35C201.634 129.314 204.172 130.704 206.546 132.518C206.815 132.722 206.983 133.03 207.011 133.361C207.036 133.691 206.919 134.01 206.686 134.237L201.514 139.25C201.124 139.627 200.509 139.655 200.058 139.316C197.716 137.56 195.083 136.422 192.16 135.902L191.964 148.636C202.837 151.556 207.998 157.074 207.729 164.888C207.6 169.133 205.965 172.565 202.843 175.172C199.988 177.646 196.208 179.132 191.487 179.592L191.386 186.158C191.377 186.781 190.864 187.257 190.238 187.223L187.645 187.078L187.68 184.821L189.146 184.903L189.245 178.479C189.253 177.907 189.687 177.45 190.256 177.414C194.899 177.112 198.594 175.803 201.342 173.423C203.99 171.213 205.362 168.312 205.472 164.723C205.713 157.694 200.65 153.092 190.591 150.597C190.06 150.463 189.683 149.976 189.692 149.435L189.921 134.536C189.926 134.224 190.061 133.935 190.291 133.732C190.521 133.533 190.828 133.438 191.139 133.478C194.632 133.892 197.776 135.053 200.566 136.955L204.129 133.502C202.273 132.225 200.316 131.215 198.252 130.479C195.998 129.672 193.625 129.192 191.125 129.031C190.506 128.992 190.015 128.459 190.024 127.839L190.083 124.049ZM191.628 170.455C193.277 170.049 194.488 169.415 195.225 168.502C195.685 167.912 196.025 167.237 196.245 166.481L198.415 167.203C198.112 168.225 197.647 169.137 197.015 169.952C195.806 171.448 193.717 172.492 190.694 172.964C190.36 173.015 190.014 172.914 189.751 172.684C189.492 172.455 189.342 172.123 189.348 171.782L189.471 163.797L191.729 163.922L191.628 170.455ZM179.763 137.817C180.175 136.818 180.705 135.997 181.341 135.348C181.357 135.332 181.375 135.316 181.39 135.3C182.823 134.015 184.513 133.321 186.453 133.219C186.771 133.203 187.09 133.325 187.326 133.55C187.561 133.779 187.692 134.093 187.687 134.411L187.587 140.951L185.329 140.825L185.408 135.669C184.503 135.904 183.689 136.344 182.962 136.99C182.51 137.457 182.144 138.053 181.848 138.769C181.842 138.788 181.833 138.807 181.823 138.825C181.47 139.564 181.299 140.475 181.282 141.545L179.024 141.419C179.046 140.002 179.3 138.803 179.763 137.817Z" fill="#FDA31F"/>
<path fill-rule="evenodd" clip-rule="evenodd" d="M180.64 146.248C179.547 144.917 179 143.311 179.029 141.421L181.287 141.546C181.267 142.843 181.616 143.95 182.367 144.861L182.394 144.894C182.981 145.661 183.936 146.294 185.241 146.84L185.334 140.827L187.592 140.953L187.475 148.492C187.47 148.842 187.302 149.163 187.02 149.363C186.742 149.56 186.378 149.615 186.041 149.506C183.434 148.67 181.651 147.554 180.64 146.248Z" fill="#FDA31F"/>
<path fill-rule="evenodd" clip-rule="evenodd" d="M191.881 158.495L191.798 163.9L189.54 163.774L189.644 156.998C189.649 156.667 189.799 156.361 190.053 156.161C190.31 155.96 190.644 155.884 190.97 155.955C194.115 156.645 196.203 157.778 197.306 159.2L197.33 159.235C198.402 160.725 198.93 162.407 198.901 164.285C198.885 165.336 198.743 166.301 198.484 167.181L196.314 166.459C196.522 165.76 196.63 164.993 196.643 164.16C196.664 162.81 196.295 161.601 195.531 160.529C194.837 159.645 193.61 158.992 191.881 158.495Z" fill="#FDA31F"/>
<path fill-rule="evenodd" clip-rule="evenodd" d="M185.157 156.803C174.705 153.885 169.802 148.519 170.157 141.008C170.317 136.477 171.826 133.012 174.613 130.581C177.164 128.358 180.824 126.999 185.623 126.57L185.684 122.642C185.693 122.018 186.206 121.54 186.828 121.575L188.678 121.678L188.643 123.938L187.924 123.898L187.866 127.688C187.857 128.262 187.42 128.721 186.848 128.754C182.139 129.041 178.558 130.199 176.132 132.314C173.771 134.374 172.552 137.338 172.413 141.194C172.095 147.922 176.909 152.37 186.54 154.858C187.064 154.994 187.438 155.478 187.429 156.014L187.189 171.631C187.184 171.949 187.043 172.244 186.807 172.446C186.568 172.647 186.252 172.734 185.935 172.687C183.113 172.264 180.729 171.498 178.786 170.407C177.075 169.538 175.548 168.494 174.202 167.272L169.821 170.676C171.886 172.275 174.183 173.654 176.7 174.816C179.638 176.139 182.733 176.911 185.988 177.136C186.607 177.18 187.095 177.709 187.086 178.327L186.987 184.751L187.755 184.794L187.72 187.051L185.822 186.945C185.199 186.911 184.702 186.378 184.712 185.755L184.811 179.295C181.682 178.967 178.693 178.157 175.836 176.87C172.643 175.397 169.8 173.601 167.294 171.483C167.031 171.26 166.876 170.93 166.875 170.59C166.872 170.249 167.025 169.931 167.288 169.726L173.531 164.876C173.972 164.531 174.619 164.584 175.03 165.001C176.373 166.358 177.953 167.493 179.76 168.407L179.808 168.432C181.248 169.244 182.963 169.842 184.951 170.235L185.157 156.803Z" fill="#FDA31F"/>
<path fill-rule="evenodd" clip-rule="evenodd" d="M187.811 113.492C205.5 113.492 219.709 131.89 219.709 154.402C219.709 176.913 205.5 195.31 187.811 195.31C187.166 195.31 186.642 195.834 186.642 196.478C186.642 197.123 187.166 197.648 187.811 197.648C206.62 197.648 222.044 178.337 222.044 154.402C222.044 130.466 206.62 111.156 187.811 111.156C187.166 111.156 186.642 111.679 186.642 112.324C186.642 112.969 187.166 113.492 187.811 113.492Z" fill="#FDA425"/>
<path fill-rule="evenodd" clip-rule="evenodd" d="M187.854 195.31C170.163 195.31 155.956 176.913 155.956 154.402C155.956 131.89 170.163 113.492 187.854 113.492C188.499 113.492 189.022 112.969 189.022 112.324C189.022 111.679 188.499 111.156 187.854 111.156C169.044 111.156 153.619 130.466 153.619 154.402C153.619 178.337 169.044 197.648 187.854 197.648C188.499 197.648 189.022 197.123 189.022 196.478C189.022 195.834 188.499 195.31 187.854 195.31Z" fill="#FDA425"/>
<path fill-rule="evenodd" clip-rule="evenodd" d="M222.078 201.083H205.344C204.7 201.083 204.176 200.558 204.176 199.914C204.176 199.269 204.7 198.746 205.344 198.746H225.445C225.58 198.746 225.71 198.769 225.832 198.812C224.616 199.637 223.365 200.395 222.078 201.083ZM241.169 181.409C240.746 182.202 240.306 182.982 239.848 183.746H223.778C223.133 183.746 222.61 183.223 222.61 182.577C222.61 181.932 223.133 181.409 223.778 181.409H241.169ZM244.34 174.276C244.054 175.066 243.75 175.844 243.433 176.613H225.445C224.799 176.613 224.276 176.09 224.276 175.444C224.276 174.8 224.799 174.276 225.445 174.276H244.34ZM247.683 150.559C247.733 151.335 247.766 152.113 247.785 152.896H231.739C231.094 152.896 230.571 152.373 230.571 151.728C230.571 151.084 231.094 150.559 231.739 150.559H247.683ZM245.13 136.805C245.373 137.576 245.602 138.356 245.814 139.141H228.332C227.688 139.141 227.164 138.619 227.164 137.973C227.164 137.329 227.688 136.805 228.332 136.805H245.13ZM242.732 130.561C243.081 131.329 243.416 132.108 243.731 132.898H227.702C227.058 132.898 226.534 132.375 226.534 131.73C226.534 131.085 227.058 130.561 227.702 130.561H242.732ZM227.188 111.156C228.196 111.889 229.176 112.667 230.128 113.493H211.639C210.995 113.493 210.47 112.968 210.47 112.324C210.47 111.679 210.995 111.156 211.639 111.156H227.188Z" fill="#FFCD80"/>
<path fill-rule="evenodd" clip-rule="evenodd" d="M151.175 19.001C152.209 15.4357 155.155 5.2445 157.28 0.690466L169.516 7.32834C169.516 7.32834 164.244 26.3742 163.108 31.8359L148.877 28.4518C149.309 25.4758 150.135 22.588 151.175 19.001Z" fill="#82B5B2"/>
<path d="M157.666 22.9142C160.008 22.9142 161.907 20.9267 161.907 18.475C161.907 16.0234 160.008 14.0359 157.666 14.0359C155.323 14.0359 153.424 16.0234 153.424 18.475C153.424 20.9267 155.323 22.9142 157.666 22.9142Z" fill="#A8CFCC" fill-opacity="0.63"/>
<path fill-rule="evenodd" clip-rule="evenodd" d="M154.608 23.9832C155.299 22.0576 159.153 12.0696 161.531 9.06787L172.606 15.2921C172.606 15.2921 166.637 31.1522 165.276 35.7189L152.158 32.15C152.724 29.6524 153.528 26.9948 154.608 23.9832Z" fill="#A8CFCC"/>
<path d="M162.341 27.4925C164.684 27.4925 166.583 25.5051 166.583 23.0534C166.583 20.6017 164.684 18.6143 162.341 18.6143C159.999 18.6143 158.1 20.6017 158.1 23.0534C158.1 25.5051 159.999 27.4925 162.341 27.4925Z" fill="#82B5B2"/>
<path d="M189.665 24.7591C194.832 24.7591 199.021 20.5705 199.021 15.4036C199.021 10.2367 194.832 6.0481 189.665 6.0481C184.498 6.0481 180.31 10.2367 180.31 15.4036C180.31 20.5705 184.498 24.7591 189.665 24.7591Z" fill="#E86135"/>
<path fill-rule="evenodd" clip-rule="evenodd" d="M183.524 8.42048C185.179 6.94526 187.36 6.0481 189.747 6.0481C194.912 6.0481 199.103 10.2402 199.103 15.4036C199.103 17.1751 198.61 18.8325 197.754 20.2449C190.806 17.1237 191.824 9.59338 191.824 9.59338C188.005 10.8411 185.153 9.57747 183.524 8.42048Z" fill="black"/>
<path fill-rule="evenodd" clip-rule="evenodd" d="M149.618 134.318C149.618 134.318 146.882 129.026 149.618 125.06L144.762 116.528C144.762 116.528 142.401 115.017 139.721 113.299C133.662 109.416 130.186 102.553 130.64 95.3718C130.675 94.8246 130.738 94.3228 130.833 93.8839C128.046 91.2548 125.745 85.3536 126.592 79.7073C126.592 79.7071 126.592 79.7071 126.592 79.7071C127.77 71.8429 134.303 65.8838 142.242 65.4315C155.018 64.7068 176.944 64.2116 190.425 68.0773L187.393 60.5293C187.393 60.5293 165.822 68.2427 160.358 50.5295C147.975 55.5298 134.185 59.1851 120.55 61.163C114.85 61.9925 109.225 59.2289 106.399 54.2091C106.394 54.2126 106.394 54.2126 106.394 54.2126C104.003 49.9667 104.767 44.6441 108.254 41.2412C111.761 37.858 117.741 33.4815 127.954 28.4464C127.954 28.4464 138.185 23.0366 144.176 19.8687C146.853 18.4535 150.027 18.3302 152.804 19.5338C158.706 22.0899 168.456 26.314 168.456 26.314L169.595 23.4388C176.366 24.5663 183.019 26.6173 189.541 29.1556C196.468 31.86 201.835 37.5006 204.191 44.5522C209.992 61.9172 220.945 95.2583 222.383 103.61H226.489C228.797 103.61 230.796 105.211 231.3 107.463C231.693 109.223 232.073 110.922 232.073 110.922C232.073 110.922 234.688 113.847 235.454 116.528C235.765 117.621 234.022 118.894 232.073 116.848C231.496 116.242 225.894 111.821 223.377 111.545C221.452 111.333 219.749 111.113 218.162 110.919C213.288 110.321 208.962 107.508 206.437 103.295C204.749 100.479 203.196 97.8884 203.196 97.8884C203.196 97.8884 197.933 106.33 183.484 104.807L185.729 133.987C185.729 133.987 182.846 133.305 181.882 128.593C181.882 128.593 165.6 126.424 156.326 122.497C156.326 122.497 152.667 126.129 149.618 134.318Z" fill="url(#paint2_linear_323_12038)"/>
<path fill-rule="evenodd" clip-rule="evenodd" d="M222.309 103.168C222.337 103.314 222.362 103.453 222.385 103.586H224.329C225.269 104.246 226.699 105.283 228.249 106.518L228.747 105.957C228.961 105.716 229.331 105.695 229.572 105.909C229.813 106.122 229.835 106.492 229.62 106.733L229.157 107.254C230.036 107.98 230.93 108.757 231.776 109.555L232.075 110.897L222.557 103.784C222.348 103.647 222.256 103.397 222.309 103.168Z" fill="#D7441E"/>
<path fill-rule="evenodd" clip-rule="evenodd" d="M166.795 125.76L174.884 102.792C175.019 102.411 175.436 102.211 175.816 102.345C176.196 102.48 176.396 102.896 176.263 103.277L168.225 126.096C167.75 125.988 167.274 125.875 166.795 125.76ZM144.796 116.54C144.796 116.54 147.927 118.224 150.622 119.617C154.036 121.386 157.613 123.039 156.36 122.509C156.36 122.509 156.011 122.856 155.438 123.576C152.367 122.201 148.831 120.346 146.12 118.868L144.796 116.54ZM129.753 92.6343C132.097 81.3908 140.86 75.0026 151.054 71.4493C165.463 66.4264 182.715 67.1072 188.112 67.4783C188.905 67.6649 190.057 67.912 190.799 68.1241C190.841 68.2291 191.167 68.4306 191.155 68.5505C191.113 68.9514 191.67 69.245 191.268 69.2037C191.268 69.2037 168.861 67.7879 151.534 72.8284C140.777 75.9576 133.34 83.7534 130.867 93.8954C130.485 93.5339 130.111 93.1105 129.753 92.6343Z" fill="#D7441E"/>
<path fill-rule="evenodd" clip-rule="evenodd" d="M183.632 106.229C180.94 105.816 177.526 104.696 173.924 103.231C163.371 98.9431 151.154 91.7668 151.154 91.7668C150.806 91.5627 150.691 91.1147 150.894 90.7673C151.098 90.4198 151.547 90.3034 151.894 90.5076C151.894 90.5076 164.008 97.6258 174.473 101.879C178.25 103.414 183.829 104.819 183.502 104.785L183.632 106.229Z" fill="#8A2208"/>
<path fill-rule="evenodd" clip-rule="evenodd" d="M189.592 66.0024L187.393 60.5293C187.393 60.5293 165.822 68.2427 160.358 50.5295C147.975 55.5298 134.185 59.1851 120.55 61.163C114.85 61.9925 109.225 59.2289 106.399 54.2091C106.394 54.2126 106.394 54.2126 106.394 54.2126C104.003 49.9667 104.767 44.6441 108.254 41.2412C111.761 37.858 117.741 33.4815 127.954 28.4464C127.954 28.4464 138.185 23.0366 144.176 19.8687C146.853 18.4535 150.027 18.3302 152.804 19.5338C158.706 22.0899 168.456 26.314 168.456 26.314L169.595 23.4388C176.366 24.5663 183.019 26.6173 189.541 29.1556C196.468 31.86 201.835 37.5006 204.191 44.5522C207.676 54.9815 213.018 71.1739 217.04 84.2533L200.227 89.3804C196.58 81.7324 192.883 74.1465 189.651 66.012L189.592 66.0024Z" fill="#D7441E"/>
<path fill-rule="evenodd" clip-rule="evenodd" d="M184.264 61.36C183.729 58.6896 183.603 55.887 183.653 53.028C183.655 52.8707 183.768 52.7371 183.923 52.7081C184.078 52.6791 184.231 52.7626 184.291 52.9081C185.717 56.3827 189.207 64.8864 189.207 64.8864H189.153L187.392 60.5027C187.392 60.5027 186.181 60.9353 184.264 61.36ZM138.04 44.0817L120.092 54.1921C119.74 54.3899 119.616 54.8356 119.813 55.1867C120.012 55.5378 120.457 55.6624 120.809 55.4645L138.757 45.3543C139.109 45.1565 139.233 44.7108 139.034 44.3597C138.837 44.0084 138.392 43.884 138.04 44.0817ZM156.577 51.9711C157.257 47.0591 158.872 43.6147 159.996 41.7146C160.068 41.6098 160.207 41.5737 160.322 41.6299C160.436 41.686 160.493 41.8174 160.454 41.9391C159.293 46.113 160.29 50.2373 160.354 50.4906L160.357 50.5028C159.111 51.006 157.851 51.4954 156.577 51.9711Z" fill="#8A2208"/>
<path fill-rule="evenodd" clip-rule="evenodd" d="M128.779 28.0318L144.216 19.8687C146.893 18.4535 150.067 18.3302 152.844 19.5338L168.071 26.1301C168.173 26.1982 168.267 26.2595 168.35 26.314C170.889 27.9773 168.883 29.6218 168.173 29.3871C169.907 30.211 169.849 31.58 169.44 32.1733C168.766 33.1519 166.357 32.7948 166.357 32.7948C167.027 33.0339 167.642 34.3421 167.122 35.3124C166.287 36.8723 164.001 35.9246 164.001 35.9246C164.416 38.1 162.167 38.1071 159.422 37.526C157.297 37.076 156.323 36.5999 154.515 36.1489C151.593 43.9417 142.866 43.0416 142.866 43.0416L137.117 46.3014L128.779 28.0318Z" fill="url(#paint3_linear_323_12038)"/>
<path fill-rule="evenodd" clip-rule="evenodd" d="M164.056 35.9574L154.284 32.1641C153.983 32.0474 153.834 31.7086 153.951 31.408C154.068 31.1075 154.407 30.9582 154.707 31.0749L166.8 35.7694C165.804 36.6404 164.047 35.9121 164.047 35.9121C164.05 35.9275 164.053 35.9425 164.056 35.9574ZM166.55 32.8529L155.441 28.5398C155.14 28.4231 154.991 28.0844 155.108 27.7839C155.224 27.4833 155.563 27.3341 155.864 27.4506L168.598 32.3943C168.715 32.4396 168.808 32.5183 168.873 32.6154C167.909 33.0055 166.403 32.7823 166.403 32.7823C166.453 32.8001 166.502 32.8238 166.55 32.8529ZM168.338 29.3959L156.773 24.906C156.472 24.7893 156.321 24.4505 156.438 24.1499C156.555 23.8494 156.894 23.7001 157.195 23.8168L169.503 28.5953C169.248 29.0989 168.697 29.4173 168.338 29.3959Z" fill="#D7441E"/>
<path fill-rule="evenodd" clip-rule="evenodd" d="M133.269 197.538C132.442 196.982 131.896 196.037 131.896 194.966V188.772C131.896 187.063 133.283 185.676 134.994 185.676H182.022C183.731 185.676 185.118 187.063 185.118 188.772V194.966C185.118 196.037 184.574 196.982 183.746 197.538C184.574 198.094 185.118 199.039 185.118 200.11V206.304C185.118 208.014 183.731 209.401 182.022 209.401H134.994C133.283 209.401 131.896 208.014 131.896 206.304V200.11C131.896 199.039 132.442 198.094 133.269 197.538Z" fill="#FFDBA3"/>
<path fill-rule="evenodd" clip-rule="evenodd" d="M171.06 196.283H184.822C184.583 196.793 184.207 197.227 183.743 197.538C183.838 197.602 183.928 197.671 184.016 197.744H179.557V209.401H178.097V197.744H165.889V209.401H164.428V197.744H162.565V209.401H161.104V197.744H142.246V209.401H140.786V197.744H132.994C133.081 197.671 133.171 197.602 133.266 197.538C132.803 197.227 132.428 196.793 132.188 196.283H149.283V185.676H150.743V196.283H152.607V185.676H154.068V196.283H169.6V185.676H171.06V196.283Z" fill="#FDA425"/>
<defs>
<linearGradient id="paint0_linear_323_12038" x1="48.6755" y1="147.94" x2="48.3792" y2="231.418" gradientUnits="userSpaceOnUse">
<stop stop-color="#A8CFCC"/>
<stop offset="1" stop-color="#59A09B"/>
</linearGradient>
<linearGradient id="paint1_linear_323_12038" x1="58.2621" y1="82.4543" x2="62.1194" y2="156.565" gradientUnits="userSpaceOnUse">
<stop stop-color="#82B5B2"/>
<stop offset="0.45" stop-color="#A7C6C1"/>
<stop offset="1" stop-color="#FFF0E6"/>
</linearGradient>
<linearGradient id="paint2_linear_323_12038" x1="195.015" y1="97.6926" x2="112.631" y2="24.6908" gradientUnits="userSpaceOnUse">
<stop stop-color="#E86135"/>
<stop offset="0.48" stop-color="#EE734F"/>
<stop offset="1" stop-color="#FFA396"/>
</linearGradient>
<linearGradient id="paint3_linear_323_12038" x1="149.234" y1="34.928" x2="155.144" y2="-3.87768" gradientUnits="userSpaceOnUse">
<stop stop-color="#E86135"/>
<stop offset="1" stop-color="#FFA396"/>
</linearGradient>
</defs>
</svg>