<svg width="324" height="231" viewBox="0 0 324 231" fill="none" xmlns="http://www.w3.org/2000/svg">
<path fill-rule="evenodd" clip-rule="evenodd" d="M177.428 206.013V110.74H172.735V206.013H177.428ZM268.631 206.013V110.74H263.939V206.013H268.631Z" fill="#BABEC2"/>
<path fill-rule="evenodd" clip-rule="evenodd" d="M177.428 118.963L172.735 119.064V110.74H177.428V118.963ZM268.631 111.046V116.994L263.939 117.095V111.03L268.631 111.046Z" fill="black"/>
<path d="M289.602 108.695H152.084V112.297H289.602V108.695Z" fill="#BABEC2"/>
<path fill-rule="evenodd" clip-rule="evenodd" d="M154.032 108.796C155.723 101.68 161.616 96.4209 168.618 96.4209C175.619 96.4209 181.512 101.68 183.204 108.796H154.032Z" fill="#B9D8D6"/>
<path fill-rule="evenodd" clip-rule="evenodd" d="M177.982 108.782C175.655 103.347 171.989 102.242 171.989 102.242C171.68 102.153 171.5 101.829 171.589 101.519C171.68 101.209 172.004 101.03 172.314 101.12C172.314 101.12 176.689 102.336 179.248 108.782H177.982Z" fill="#82B5B2"/>
<path fill-rule="evenodd" clip-rule="evenodd" d="M182.769 108.758C183.203 117.426 184.236 131.077 186.777 138.293C187.336 139.881 187.96 141.147 188.683 141.946C189.273 142.6 189.921 142.915 190.662 142.707C191.376 142.505 192.114 141.984 192.803 141.291C192.771 141.245 192.74 141.198 192.709 141.15C191.807 139.742 191.329 137.532 191.369 135.596C191.389 134.537 191.566 133.56 191.892 132.831C192.181 132.182 192.594 131.717 193.099 131.484C193.625 131.242 194.268 131.229 195.027 131.597C196.895 132.501 197.301 134.525 196.736 136.741C196.334 138.309 195.451 139.968 194.371 141.291C194.539 141.417 194.72 141.509 194.916 141.559C195.398 141.68 195.943 141.518 196.565 141.049C197.081 140.662 197.516 139.964 197.912 139.051C198.564 137.545 199.076 135.482 199.483 133.133C201.1 123.823 201.055 110.129 201.123 108.502C201.136 108.181 201.409 107.93 201.732 107.943C202.053 107.958 202.305 108.231 202.29 108.552C202.221 110.189 202.261 123.966 200.634 133.333C200.207 135.787 199.666 137.942 198.984 139.515C198.49 140.655 197.91 141.5 197.268 141.984C196.282 142.724 195.394 142.883 194.631 142.692C194.259 142.598 193.908 142.416 193.589 142.157C192.75 142.987 191.842 143.587 190.98 143.831C189.809 144.161 188.749 143.762 187.815 142.728C187.014 141.84 186.296 140.446 185.674 138.681C183.1 131.367 182.039 117.518 181.6 108.758H182.769ZM193.606 140.379C194.517 139.217 195.259 137.798 195.603 136.451C196.016 134.835 195.882 133.308 194.519 132.648C194.149 132.47 193.843 132.428 193.587 132.546C193.313 132.673 193.117 132.952 192.958 133.307C192.686 133.916 192.555 134.734 192.537 135.619C192.503 137.262 192.87 139.134 193.606 140.379ZM182.4 106.357C182.559 106.455 182.67 106.627 182.679 106.829L182.693 107.154C182.601 106.886 182.504 106.618 182.4 106.357Z" fill="#82B5B2"/>
<path d="M223.46 168.258C230.008 168.258 235.316 161.357 235.316 152.845C235.316 144.332 230.008 137.431 223.46 137.431C216.912 137.431 211.604 144.332 211.604 152.845C211.604 161.357 216.912 168.258 223.46 168.258Z" fill="white"/>
<path fill-rule="evenodd" clip-rule="evenodd" d="M223.541 135.775V138.446C217.252 138.569 212.327 145.064 212.327 152.895C212.327 160.724 217.252 167.219 223.541 167.342V170.014C215.943 169.895 209.655 162.338 209.655 152.895C209.655 143.45 215.943 135.894 223.541 135.775Z" fill="black"/>
<path fill-rule="evenodd" clip-rule="evenodd" d="M223.585 135.781L223.773 135.775C231.454 135.775 237.846 143.378 237.846 152.901C237.846 162.423 231.454 170.026 223.773 170.026L223.585 170.02V167.348L223.773 167.355C230.153 167.355 235.174 160.809 235.174 152.901C235.174 144.992 230.153 138.446 223.773 138.446L223.585 138.452V135.781Z" fill="black"/>
<path fill-rule="evenodd" clip-rule="evenodd" d="M223.83 152.497C224.502 152.497 225.048 153.042 225.048 153.716C225.048 154.387 224.502 154.934 223.83 154.934C223.157 154.934 222.611 154.387 222.611 153.716C222.611 153.042 223.157 152.497 223.83 152.497ZM225.923 150.9L230.024 142.959C230.171 142.673 230.059 142.319 229.773 142.172C229.485 142.024 229.133 142.137 228.986 142.423L224.885 150.364C224.736 150.65 224.848 151.003 225.136 151.151C225.422 151.298 225.774 151.186 225.923 150.9ZM220.486 144.363L222.045 150.517C222.124 150.83 222.441 151.018 222.755 150.939C223.068 150.86 223.256 150.542 223.177 150.229L221.619 144.076C221.54 143.762 221.222 143.574 220.909 143.653C220.597 143.732 220.407 144.05 220.486 144.363Z" fill="black"/>
<path d="M297.043 144.714L280.961 136.457L270.093 157.624L286.175 165.881L297.043 144.714Z" fill="#A8CFCC"/>
<path fill-rule="evenodd" clip-rule="evenodd" d="M285.759 163.115L288.491 164.516C288.778 164.663 289.13 164.549 289.278 164.263C289.425 163.975 289.311 163.623 289.024 163.476L286.293 162.075C286.005 161.929 285.653 162.042 285.505 162.329C285.359 162.616 285.472 162.969 285.759 163.115ZM287.449 159.819L290.182 161.218C290.468 161.365 290.821 161.251 290.967 160.965C291.115 160.679 291.001 160.326 290.715 160.179L287.982 158.779C287.696 158.631 287.344 158.745 287.197 159.032C287.049 159.318 287.163 159.671 287.449 159.819ZM289.14 156.521L291.872 157.922C292.159 158.068 292.511 157.955 292.659 157.667C292.806 157.381 292.692 157.029 292.405 156.882L289.673 155.481C289.386 155.334 289.034 155.448 288.886 155.734C288.74 156.022 288.854 156.373 289.14 156.521ZM290.832 153.223L293.563 154.624C293.849 154.771 294.202 154.657 294.348 154.37C294.496 154.083 294.382 153.731 294.096 153.584L291.363 152.183C291.077 152.036 290.725 152.15 290.578 152.436C290.43 152.724 290.544 153.076 290.832 153.223ZM292.521 149.926L295.254 151.326C295.54 151.474 295.892 151.36 296.04 151.072C296.187 150.786 296.073 150.434 295.787 150.286L293.054 148.886C292.768 148.738 292.415 148.852 292.269 149.138C292.121 149.426 292.235 149.778 292.521 149.926ZM294.166 146.717L296.898 148.117C297.185 148.265 297.537 148.151 297.684 147.865C297.832 147.579 297.718 147.225 297.432 147.079L294.699 145.678C294.413 145.531 294.059 145.645 293.913 145.931C293.766 146.217 293.88 146.571 294.166 146.717Z" fill="black"/>
<path fill-rule="evenodd" clip-rule="evenodd" d="M244.176 139.863L268.945 145.741L267.627 149.435L244.176 139.863Z" fill="white"/>
<path d="M269.491 148.308L243.652 139.087L231.926 171.946L257.765 181.167L269.491 148.308Z" fill="#F27F71"/>
<path fill-rule="evenodd" clip-rule="evenodd" d="M267.753 145.937L244.008 140.437C243.694 140.364 243.498 140.05 243.569 139.734C243.642 139.42 243.956 139.224 244.27 139.297L268.646 144.944C268.806 144.982 268.944 145.085 269.024 145.228C269.104 145.373 269.12 145.544 269.066 145.702L267.737 149.613C267.634 149.918 267.302 150.082 266.997 149.978C266.692 149.874 266.528 149.541 266.632 149.236L267.753 145.937Z" fill="#F27F71"/>
<path d="M288.671 149.608H256.219V188.393H288.671V149.608Z" fill="white"/>
<path fill-rule="evenodd" clip-rule="evenodd" d="M285.773 183.939H258.945V185.674H285.773V183.939ZM285.773 180.76H258.945V182.495H285.773V180.76ZM285.773 177.58H258.945V179.315H285.773V177.58ZM285.773 174.401H258.945V176.136H285.773V174.401ZM285.773 171.222H258.945V172.957H285.773V171.222ZM285.773 168.042H258.945V169.777H285.773V168.042ZM285.773 164.863H258.945V166.598H285.773V164.863ZM285.773 161.683H258.945V163.418H285.773V161.683ZM285.773 158.504H258.945V160.239H285.773V158.504ZM285.773 155.324H258.945V157.059H285.773V155.324ZM285.773 152.141H258.945V153.876H285.773V152.141Z" fill="black"/>
<path fill-rule="evenodd" clip-rule="evenodd" d="M256.802 187.809H272.558C272.879 187.809 273.142 188.07 273.142 188.393C273.142 188.716 272.879 188.977 272.558 188.977H256.218C255.895 188.977 255.634 188.716 255.634 188.393V149.608C255.634 149.285 255.895 149.023 256.218 149.023H271.733C272.054 149.023 272.317 149.285 272.317 149.608C272.317 149.93 272.054 150.192 271.733 150.192H256.802V187.809Z" fill="black"/>
<path fill-rule="evenodd" clip-rule="evenodd" d="M288.059 150.192H271.706C271.383 150.192 271.122 149.93 271.122 149.608C271.122 149.285 271.383 149.023 271.706 149.023H288.643C288.966 149.023 289.227 149.285 289.227 149.608V188.393C289.227 188.716 288.966 188.977 288.643 188.977H272.531C272.209 188.977 271.947 188.716 271.947 188.393C271.947 188.07 272.209 187.809 272.531 187.809H288.059V150.192Z" fill="black"/>
<path d="M294.442 154.771H207.707V206.602H294.442V154.771Z" fill="#FFD798"/>
<path fill-rule="evenodd" clip-rule="evenodd" d="M260.848 154.771V177.96L258.114 175.809L255.552 177.96L252.953 175.809L250.47 177.96L248.187 175.809L245.795 177.96V154.771H260.848Z" fill="#F8BB61"/>
<path d="M72.0815 43.5707C78.8456 43.5707 84.329 38.0873 84.329 31.3232C84.329 24.5591 78.8456 19.0757 72.0815 19.0757C65.3174 19.0757 59.834 24.5591 59.834 31.3232C59.834 38.0873 65.3174 43.5707 72.0815 43.5707Z" fill="#FFC3BB"/>
<path fill-rule="evenodd" clip-rule="evenodd" d="M65.3654 41.5641C62.0343 39.3737 59.834 35.6034 59.834 31.3232C59.834 24.5637 65.322 19.0757 72.0816 19.0757C73.6058 19.0757 75.0655 19.3548 76.4126 19.8648L70.0129 32.4353C69.5353 31.6248 68.6324 31.0777 67.5984 31.0777C66.0664 31.0777 64.8226 32.2783 64.8226 33.7573C64.8226 35.2362 66.0664 36.437 67.5984 36.437C67.731 36.437 67.8616 36.4279 67.9891 36.4106L65.3654 41.5641Z" fill="black"/>
<path fill-rule="evenodd" clip-rule="evenodd" d="M69.3187 20.4731C69.3187 20.4731 67.5856 25.093 67.6516 27.0457C67.6868 28.0871 68.561 28.9041 69.6024 28.8689C70.6439 28.8337 71.4608 27.9595 71.4256 26.9182C71.3597 24.9654 69.3187 20.4731 69.3187 20.4731Z" fill="white"/>
<path fill-rule="evenodd" clip-rule="evenodd" d="M68.751 167.535C62.4207 168.092 54.5971 168.125 45.4017 166.946C39.1547 166.146 18.2968 159.591 23.5651 132.337C24.6066 126.95 29.8486 113.634 52.13 112.476C58.6328 112.137 104.075 106.909 122.28 126.974C122.636 127.369 123.096 127.894 123.613 128.574C129.795 131.379 147.67 141.065 146.988 159.038C146.988 159.038 145.576 179.169 119.451 187.847C117.52 192.171 115.253 196.786 112.605 201.701C112.605 201.701 118.558 203.293 120.067 206.639H74.1334L76.883 197.936L74.0259 198.61C73.9987 201.636 71.1669 204.657 68.751 206.836V167.535Z" fill="url(#paint0_linear_323_4418)"/>
<path fill-rule="evenodd" clip-rule="evenodd" d="M74.8359 198.47L77.3754 166.316C77.4008 165.995 77.6822 165.755 78.0037 165.78C78.3251 165.805 78.5655 166.087 78.5401 166.408L76.0303 198.188L74.8359 198.47Z" fill="#F27F71"/>
<path fill-rule="evenodd" clip-rule="evenodd" d="M82.5312 164.71L88.1431 163.624C88.1431 163.624 90.2048 156.97 91.6195 152.403C91.7053 152.126 91.5724 151.828 91.309 151.706C91.0455 151.585 90.733 151.679 90.5786 151.924C87.5144 156.793 82.5312 164.71 82.5312 164.71Z" fill="#F27F71"/>
<path fill-rule="evenodd" clip-rule="evenodd" d="M68.7096 167.534C67.298 167.658 80.0489 165.16 87.4777 162.927C87.9423 162.787 88.4742 162.708 88.4742 162.708C88.4742 162.708 88.2656 163.462 88.1981 163.668L79.2462 191.075L118.178 190.546C117.996 190.936 117.812 191.328 117.625 191.722L78.9566 192.248C78.9255 192.248 78.895 192.245 78.8652 192.24L76.8417 197.935L75.687 198.208L86.7437 164.359C80.9049 166.053 75.0027 167.528 68.7096 168.448V167.534ZM119.43 187.839C136.812 150.919 123.247 128.146 123.572 128.573C124.019 128.776 124.528 129.015 125.089 129.291C128.683 136.287 135.432 155.859 120.968 187.304C120.467 187.487 119.953 187.665 119.43 187.839Z" fill="#F27F71"/>
<path fill-rule="evenodd" clip-rule="evenodd" d="M58.1611 46.7445C85.1843 47.0328 104.468 50.7177 127.009 52.5481C133.819 53.1012 149.423 57.0062 145.773 71.0255C144.388 76.3446 139.566 80.0422 134.07 79.9997C124.548 79.9261 111.541 79.8254 111.541 79.8254C111.541 79.8254 121.858 88.6023 143.337 88.9135C143.337 88.9135 167.015 90.9208 169.235 91.0106C173.158 91.1695 175.505 91.2302 177.658 91.3534C178.121 91.3808 178.53 91.6642 178.718 92.0877C178.907 92.5114 178.844 93.0047 178.555 93.367C178.108 93.9232 177.208 94.5515 175.518 95.1874C172.434 96.3483 170.02 96.4491 167.648 97.1476C167.826 96.7511 171.499 100.211 173.65 102.432C174.078 102.88 174.232 103.523 174.053 104.116C173.874 104.709 173.389 105.159 172.784 105.295C172.32 105.401 171.759 105.424 171.089 105.305C172.365 106.549 170.874 108.613 166.858 106.586C165.803 106.054 165.44 105.907 162.728 104.231C162.728 104.231 163.594 105.787 164.102 106.701C164.236 106.944 164.265 107.231 164.179 107.496C164.095 107.76 163.903 107.978 163.652 108.096C163.094 108.356 162.213 108.439 160.905 107.754C158.916 106.716 157.563 106.145 156.322 105.634C155.177 105.163 153.876 105.27 152.824 105.921C148.488 108.598 134.947 114.829 109.304 108.977C109.304 108.977 93.9406 106.945 73.8523 93.948C73.3179 91.8311 48.3466 121.291 26.1958 96.4467C17.4711 86.6607 15.6664 46.2912 58.1611 46.7445Z" fill="#FFC3BB"/>
<path fill-rule="evenodd" clip-rule="evenodd" d="M162.738 104.251C158.827 99.0622 156.068 98.9447 156.068 98.9447C155.747 98.9396 155.488 98.6736 155.494 98.3513C155.499 98.0288 155.764 97.7713 156.087 97.7764C156.087 97.7764 159.816 97.748 164.708 105.004C164.8 105.142 164.827 105.306 164.794 105.456C164.294 105.164 163.638 104.768 162.705 104.192L162.738 104.251ZM171.066 105.266C171.11 105.309 165.716 100.61 165.038 99.8725C162.731 97.3587 161.043 96.1825 159.924 95.643C159.087 95.239 158.558 95.231 158.538 95.2308C158.545 95.2301 158.552 95.2291 158.558 95.2279L158.538 95.2308C158.228 95.271 157.939 95.0576 157.888 94.7463C157.835 94.4282 158.052 94.1275 158.37 94.075C158.37 94.075 160.828 93.5611 165.9 99.0821C166.654 99.9033 170.34 103.395 172.894 105.221C172.85 105.235 172.807 105.246 172.761 105.257C172.297 105.362 171.736 105.385 171.066 105.266ZM160.225 90.2839C161.297 90.3714 162.331 90.455 163.293 90.5321C164.123 91.1252 164.973 91.9252 165.742 93.0041C166.278 93.7555 167.325 95.2812 169.196 96.7186C168.717 96.8208 168.244 96.9323 167.774 97.0659C166.214 95.716 165.293 94.3848 164.792 93.6824C163.286 91.5715 161.437 90.6677 160.225 90.2839Z" fill="#F27F71"/>
<path fill-rule="evenodd" clip-rule="evenodd" d="M104.344 107.899C98.2403 106.291 87.0848 102.485 73.8908 93.9481C73.6488 92.1583 48.0147 122.176 26.2342 96.4468C17.6427 86.2974 15.7048 46.2912 58.1995 46.7445C85.2227 47.0328 104.506 50.7178 127.047 52.5482C133.857 53.1012 149.461 57.0062 145.811 71.0256C144.427 76.3446 139.604 80.0422 134.109 79.9997C124.586 79.9261 111.58 79.8255 111.58 79.8255C111.58 79.8255 118.929 86.0776 134.134 88.2151L130.722 111.388C126.878 111.47 122.526 111.233 117.64 110.529C113.617 109.73 109.003 108.816 104.344 107.899Z" fill="url(#paint1_linear_323_4418)"/>
<path fill-rule="evenodd" clip-rule="evenodd" d="M69.8513 96.8604C66.5407 92.8951 64.815 88.5119 64.0405 86.0855C63.9832 85.8822 64.0736 85.6662 64.2585 85.5643C64.4434 85.4623 64.6743 85.5012 64.8156 85.658C68.4908 89.6284 73.049 93.3266 73.7655 93.9013C73.3976 93.9248 72.0098 95.1594 69.8513 96.8604ZM111.571 79.8724L111.572 79.874L111.578 79.8787L111.588 79.8871L111.594 79.8916L111.598 79.8962L111.606 79.902L111.617 79.9108L111.628 79.9191L111.636 79.9267L111.644 79.9328L111.654 79.941L111.671 79.9544L111.685 79.9655L111.692 79.9709L111.701 79.9774L111.727 79.998L111.745 80.0123L111.749 80.0161L111.755 80.02L111.799 80.0546L111.815 80.0668L111.816 80.0679C111.839 80.086 111.864 80.1052 111.891 80.1253L111.896 80.1288L111.921 80.148L111.967 80.1826L111.977 80.1899C112 80.2077 112.026 80.2262 112.051 80.2454L112.056 80.2479L112.06 80.2516C112.12 80.2955 112.184 80.3426 112.253 80.3927L112.266 80.4015L112.295 80.4231L112.311 80.4341L112.316 80.4377L112.329 80.4471L112.355 80.4652L112.368 80.4751L112.377 80.4812L112.396 80.4942L112.416 80.5094L112.428 80.5173L112.44 80.5259L112.465 80.543L112.482 80.5551L112.489 80.5607L112.505 80.5715L112.536 80.5933L112.549 80.6023L112.554 80.6052L112.57 80.6168L112.611 80.645L112.619 80.6509C105.767 76.3471 93.5193 67.2306 85.4508 60.9692C85.1324 60.7221 85.0745 60.2629 85.3216 59.9446C85.5687 59.6262 86.0277 59.5684 86.3462 59.8155C94.6903 66.2907 107.53 75.8485 114.137 79.876L111.55 79.856L111.566 79.8699L111.571 79.8724ZM115.207 57.8447L135.322 58.4156C135.724 58.427 136.061 58.1092 136.073 57.7064C136.083 57.3035 135.766 56.9671 135.363 56.9557L115.248 56.3848C114.845 56.3733 114.509 56.6911 114.497 57.094C114.486 57.4968 114.804 57.8332 115.207 57.8447Z" fill="#AC2310"/>
<path fill-rule="evenodd" clip-rule="evenodd" d="M94.9018 59.9853C91.9607 53.2458 78.1484 47.52 78.1484 47.52L83.7501 47.9728C89.9791 50.8031 94.5771 55.7236 96.3856 57.8685C97.0751 57.9609 98.7907 58.2225 98.8187 58.5388C98.8539 58.9349 99.093 65.5853 99.093 65.5853C99.0711 65.5961 99.0493 65.6068 99.0277 65.6171L99.2208 65.6297C102.671 72.016 101.416 81.0684 106.341 86.5091C107.901 88.2317 109.941 89.8507 112.173 90.592C114.765 91.453 117.457 91.4135 120.147 91.2555C120.858 91.2137 122.586 91.0878 123.455 91.0237C123.778 91.0002 124.089 91.1442 124.28 91.4051C125.025 92.4217 126.931 95.0248 127.858 96.29C128.159 96.7003 128.118 97.268 127.762 97.6309C126.484 98.9317 123.589 101.879 122.605 102.88C122.392 103.097 122.086 103.197 121.786 103.147C121.216 103.059 120.309 102.912 119.969 102.814C117.99 102.242 116.039 101.572 114.136 100.783C108.691 98.5278 102.934 94.9722 100.564 89.3515C99.1787 86.0682 98.9692 82.564 98.9844 79.0488C98.9976 75.9499 99.36 72.6891 98.7131 69.6302C98.4617 68.4405 97.9026 67.3263 97.3511 66.252C97.3384 66.2272 97.2874 66.1445 97.223 66.0366C94.6266 65.9434 93.427 62.628 93.427 62.628L94.9018 59.9853Z" fill="black"/>
<path fill-rule="evenodd" clip-rule="evenodd" d="M121.088 79.8347L115.815 56.3659C115.815 56.3659 110.805 56.0678 107.832 55.5319C107.832 55.5319 100.537 53.16 95.417 54.8476C94.5844 55.122 92.0134 56.5289 90.2623 59.909C89.531 61.3201 91.9412 62.2364 94.7202 59.909C95.2883 59.4332 96.3795 58.8812 97.5145 58.7865C97.5145 58.7865 93.969 61.5608 97.5145 63.8889C97.5145 63.8889 96.7871 66.3597 99.8601 66.8744C99.8601 66.8744 99.4029 70.5685 105.042 74.131C106.657 75.1522 119.198 80.2448 121.088 79.8347Z" fill="#FFC3BB"/>
<path fill-rule="evenodd" clip-rule="evenodd" d="M98.8423 66.5958C99.3108 65.2443 100.342 64.4368 101.337 63.9644C102.487 63.4179 103.576 63.3311 103.576 63.3311C103.898 63.3047 104.179 63.5441 104.206 63.8654C104.232 64.1868 103.992 64.4691 103.671 64.4955C103.671 64.4955 102.787 64.5857 101.838 65.0197C100.358 65.6965 99.843 66.8795 99.843 66.8795C99.4505 66.8137 99.12 66.7162 98.8423 66.5958ZM96.652 63.2024C97.2869 62.1001 98.2734 61.3874 99.2728 60.9351C100.912 60.1931 102.568 60.1619 102.568 60.1619C102.891 60.1555 103.157 60.4119 103.164 60.7343C103.17 61.0567 102.914 61.3236 102.592 61.3301C102.592 61.3301 101.166 61.3605 99.7546 61.9995C98.8577 62.4053 97.4975 63.894 97.4975 63.894C97.1515 63.6667 96.873 63.4352 96.652 63.2024ZM95.4883 59.4004C95.4988 59.3014 95.5347 59.2037 95.5978 59.1177C97.4097 56.642 101.385 56.4822 101.385 56.4822C101.707 56.4719 101.977 56.7248 101.988 57.0472C101.998 57.3693 101.745 57.6395 101.423 57.65C101.423 57.65 100.192 57.6922 98.8703 58.1831C98.1161 58.4634 97.4975 58.7915 97.4975 58.7915C96.7671 58.8524 96.0548 59.1028 95.4883 59.4004Z" fill="#F27F71"/>
<path fill-rule="evenodd" clip-rule="evenodd" d="M59.1523 46.7407C59.1523 46.7407 64.9345 47.0801 73.2254 51.9163C75.8056 53.4213 82.1144 57.607 89.7727 59.9575C92.6813 60.8502 94.092 60.188 95.0739 60.4826L93.9813 63.087C93.9813 63.087 89.0905 62.5797 87.2503 61.9153C87.2503 61.9153 64.1084 47.347 59.1523 46.7407Z" fill="black"/>
<path d="M81.402 167.532H26.6172V206.637H81.402V167.532Z" fill="#FFD798"/>
<path fill-rule="evenodd" clip-rule="evenodd" d="M37.3145 206.639H36.1462V167.532H37.3145V206.639ZM62.9659 167.532V187.81L59.5854 185.401L56.2451 187.81V167.532H62.9659ZM34.1499 167.532V181.078L31.4738 177.001L29.6367 178.725V167.532H34.1499Z" fill="#F8BB61"/>
<path fill-rule="evenodd" clip-rule="evenodd" d="M223.493 88.9101H185.691V27.8428H277.46V88.9101H237.738V104.634H242.876V108.822H218.397V104.634H223.493V88.9101Z" fill="#A3A8AE"/>
<path fill-rule="evenodd" clip-rule="evenodd" d="M275.038 27.8428V88.9101H235.317V104.634H240.455V108.822H218.397V104.634H223.493V88.9101H185.691V27.8428H275.038Z" fill="#E4E4E6"/>
<path d="M270.819 32.5186H190.27V82.7656H270.819V32.5186Z" fill="white"/>
<path fill-rule="evenodd" clip-rule="evenodd" d="M235.311 104.508H237.289C237.185 104.599 237.049 104.655 236.902 104.655L223.487 104.508V103.486H235.311V104.508ZM235.311 90.0885H223.487V88.9202H235.311V90.0885Z" fill="#A3A8AE"/>
<path fill-rule="evenodd" clip-rule="evenodd" d="M226.319 38.6962H230.97C238.973 38.6962 245.471 46.2407 245.471 55.5333C245.471 64.1074 239.948 71.326 232.807 72.3705C232.208 72.4584 226.35 72.3705 226.35 72.3705C218.347 72.3705 211.85 64.8259 211.85 55.5333C211.85 46.2528 218.33 38.7155 226.319 38.6962Z" fill="#FDA425"/>
<path d="M226.35 72.3706C234.358 72.3706 240.85 64.8323 240.85 55.5334C240.85 46.2344 234.358 38.6962 226.35 38.6962C218.342 38.6962 211.85 46.2344 211.85 55.5334C211.85 64.8323 218.342 72.3706 226.35 72.3706Z" fill="#FFCD80"/>
<path fill-rule="evenodd" clip-rule="evenodd" d="M226.385 45.5357L225.885 45.5078L225.896 44.7608L226.77 44.8094C226.977 44.8209 227.141 44.9975 227.138 45.2037L227.118 46.4672C227.882 46.5441 228.614 46.7079 229.312 46.9576C230.205 47.2765 231.044 47.7362 231.829 48.3359C231.918 48.4032 231.973 48.5053 231.982 48.6145C231.991 48.7236 231.952 48.8293 231.875 48.9041L230.165 50.5616C230.036 50.6862 229.833 50.6957 229.684 50.5835C228.909 50.0028 228.039 49.6268 227.072 49.4548L227.007 53.6652C230.602 54.6306 232.309 56.4551 232.22 59.0384C232.177 60.442 231.637 61.5767 230.604 62.4387C229.66 63.2569 228.41 63.7482 226.85 63.9001L226.816 66.0712C226.813 66.2771 226.644 66.4346 226.437 66.4231L225.579 66.3754L225.591 65.6291L226.076 65.6561L226.108 63.5321C226.111 63.343 226.255 63.192 226.443 63.1801C227.978 63.0802 229.2 62.6473 230.108 61.8607C230.983 61.1297 231.437 60.1708 231.474 58.9841C231.553 56.6599 229.879 55.1383 226.553 54.3133C226.378 54.2692 226.253 54.1081 226.256 53.9293L226.332 49.003C226.334 48.9 226.378 48.8042 226.454 48.7374C226.53 48.6713 226.632 48.6402 226.734 48.6531C227.89 48.7901 228.929 49.1739 229.852 49.8028L231.029 48.6613C230.416 48.2389 229.769 47.9049 229.086 47.6616C228.341 47.3949 227.557 47.2362 226.73 47.183C226.525 47.17 226.363 46.994 226.366 46.7888L226.385 45.5357ZM226.896 60.8791C227.441 60.7448 227.842 60.5354 228.086 60.2335C228.238 60.0382 228.35 59.8152 228.423 59.5652L229.14 59.8041C229.04 60.142 228.887 60.4434 228.677 60.713C228.278 61.2076 227.587 61.5526 226.587 61.7087C226.477 61.7257 226.363 61.6922 226.276 61.6162C226.19 61.5403 226.141 61.4306 226.142 61.318L226.183 58.6777L226.93 58.7192L226.896 60.8791ZM222.973 50.0878C223.11 49.7575 223.285 49.4861 223.495 49.2717C223.5 49.2664 223.506 49.2611 223.511 49.2558C223.985 48.8308 224.544 48.6015 225.185 48.5677C225.291 48.5624 225.396 48.6026 225.474 48.6772C225.552 48.7526 225.595 48.8565 225.593 48.9619L225.56 51.1241L224.814 51.0826L224.84 49.3777C224.541 49.4553 224.271 49.6009 224.031 49.8144C223.881 49.969 223.76 50.166 223.663 50.4026C223.661 50.4089 223.658 50.4151 223.654 50.4213C223.538 50.6657 223.481 50.9669 223.476 51.3205L222.729 51.2789C222.736 50.8104 222.82 50.414 222.973 50.0878Z" fill="#FDA31F"/>
<path fill-rule="evenodd" clip-rule="evenodd" d="M223.263 52.8757C222.902 52.4354 222.721 51.9045 222.731 51.2795L223.477 51.321C223.471 51.7497 223.586 52.1156 223.834 52.417L223.843 52.4279C224.037 52.6815 224.353 52.8908 224.784 53.0714L224.815 51.0832L225.562 51.1247L225.523 53.6174C225.521 53.7331 225.466 53.8395 225.373 53.9054C225.281 53.9706 225.16 53.9887 225.049 53.9529C224.187 53.6764 223.598 53.3073 223.263 52.8757Z" fill="#FDA31F"/>
<path fill-rule="evenodd" clip-rule="evenodd" d="M226.98 56.9248L226.952 58.7119L226.206 58.6703L226.24 56.4298C226.242 56.3205 226.292 56.2194 226.376 56.153C226.461 56.0866 226.571 56.0616 226.679 56.0852C227.719 56.3132 228.409 56.6879 228.774 57.158L228.782 57.1696C229.136 57.6623 229.311 58.2184 229.301 58.8394C229.296 59.1866 229.249 59.5059 229.163 59.7967L228.446 59.5579C228.514 59.3268 228.55 59.0732 228.554 58.7978C228.561 58.3517 228.439 57.9518 228.187 57.5975C227.957 57.3051 227.552 57.0892 226.98 56.9248Z" fill="#FDA31F"/>
<path fill-rule="evenodd" clip-rule="evenodd" d="M224.757 56.3655C221.301 55.4007 219.68 53.6264 219.797 51.1429C219.85 49.6448 220.349 48.4991 221.27 47.6956C222.114 46.9604 223.324 46.5109 224.911 46.3692L224.931 45.0705C224.934 44.8643 225.103 44.7063 225.309 44.7177L225.921 44.7518L225.909 45.4989L225.671 45.4856L225.652 46.7388C225.649 46.9287 225.505 47.0805 225.316 47.0915C223.759 47.1862 222.575 47.5692 221.773 48.2683C220.992 48.9495 220.589 49.9296 220.543 51.2044C220.438 53.429 222.03 54.8996 225.214 55.7223C225.387 55.7671 225.511 55.9274 225.508 56.1046L225.428 61.2679C225.427 61.3733 225.38 61.4706 225.302 61.5373C225.223 61.604 225.119 61.6326 225.014 61.6171C224.081 61.4773 223.292 61.2241 222.65 60.8633C222.084 60.5761 221.579 60.2309 221.134 59.8267L219.686 60.9523C220.369 61.4808 221.128 61.9369 221.96 62.3211C222.932 62.7587 223.955 63.0137 225.031 63.088C225.236 63.1026 225.397 63.2777 225.394 63.4821L225.362 65.606L225.615 65.6201L225.604 66.3664L224.976 66.3315C224.77 66.32 224.606 66.1439 224.609 65.938L224.642 63.8021C223.608 63.6934 222.619 63.4259 221.675 63.0002C220.619 62.5133 219.679 61.9193 218.85 61.219C218.764 61.1454 218.712 61.0363 218.712 60.9237C218.711 60.811 218.761 60.7059 218.848 60.6381L220.913 59.0346C221.058 58.9205 221.272 58.938 221.408 59.0758C221.852 59.5247 222.375 59.8997 222.972 60.2022L222.988 60.2102C223.464 60.4788 224.031 60.6765 224.688 60.8065L224.757 56.3655Z" fill="#FDA31F"/>
<path fill-rule="evenodd" clip-rule="evenodd" d="M225.635 42.0452C231.483 42.0452 236.181 48.128 236.181 55.5714C236.181 63.0143 231.483 69.0971 225.635 69.0971C225.421 69.0971 225.248 69.2701 225.248 69.4834C225.248 69.6966 225.421 69.87 225.635 69.87C231.854 69.87 236.953 63.4851 236.953 55.5714C236.953 47.6572 231.854 41.2727 225.635 41.2727C225.421 41.2727 225.248 41.4457 225.248 41.6589C225.248 41.8721 225.421 42.0452 225.635 42.0452Z" fill="#FDA425"/>
<path fill-rule="evenodd" clip-rule="evenodd" d="M225.648 69.0971C219.799 69.0971 215.102 63.0143 215.102 55.5714C215.102 48.128 219.799 42.0452 225.648 42.0452C225.862 42.0452 226.034 41.8721 226.034 41.6589C226.034 41.4457 225.862 41.2727 225.648 41.2727C219.429 41.2727 214.329 47.6572 214.329 55.5714C214.329 63.4851 219.429 69.87 225.648 69.87C225.862 69.87 226.034 69.6966 226.034 69.4834C226.034 69.2701 225.862 69.0971 225.648 69.0971Z" fill="#FDA425"/>
<path fill-rule="evenodd" clip-rule="evenodd" d="M236.964 71.0058H231.431C231.218 71.0058 231.045 70.8325 231.045 70.6195C231.045 70.4061 231.218 70.2332 231.431 70.2332H238.077C238.122 70.2332 238.165 70.241 238.205 70.255C237.803 70.5278 237.39 70.7784 236.964 71.0058ZM243.276 64.5009C243.136 64.7631 242.991 65.021 242.839 65.2736H237.526C237.313 65.2736 237.14 65.1007 237.14 64.8872C237.14 64.6738 237.313 64.5009 237.526 64.5009H243.276ZM244.325 62.1425C244.23 62.4038 244.13 62.6612 244.025 62.9152H238.077C237.864 62.9152 237.691 62.7423 237.691 62.5288C237.691 62.3159 237.864 62.1425 238.077 62.1425H244.325ZM245.43 54.301C245.446 54.5574 245.458 54.8148 245.464 55.0736H240.158C239.945 55.0736 239.772 54.9007 239.772 54.6873C239.772 54.4744 239.945 54.301 240.158 54.301H245.43ZM244.586 49.7532C244.666 50.0082 244.742 50.266 244.812 50.5258H239.032C238.819 50.5258 238.645 50.353 238.645 50.1395C238.645 49.9266 238.819 49.7532 239.032 49.7532H244.586ZM243.793 47.6889C243.908 47.9429 244.019 48.2003 244.123 48.4615H238.824C238.611 48.4615 238.437 48.2886 238.437 48.0752C238.437 47.8622 238.611 47.6889 238.824 47.6889H243.793ZM238.654 41.2728C238.987 41.5152 239.311 41.7726 239.626 42.0454H233.512C233.299 42.0454 233.126 41.8721 233.126 41.6591C233.126 41.4457 233.299 41.2728 233.512 41.2728H238.654Z" fill="#FFCD80"/>
<defs>
<linearGradient id="paint0_linear_323_4418" x1="79.7685" y1="127.683" x2="206.916" y2="172.599" gradientUnits="userSpaceOnUse">
<stop stop-color="#FFC3BB"/>
<stop offset="1" stop-color="#F27F71"/>
</linearGradient>
<linearGradient id="paint1_linear_323_4418" x1="59.3022" y1="54.792" x2="-15.1899" y2="98.4941" gradientUnits="userSpaceOnUse">
<stop stop-color="#F27F71"/>
<stop offset="0.58" stop-color="#EC6E5F"/>
<stop offset="0.8" stop-color="#E04B39"/>
<stop offset="1" stop-color="#D52914"/>
</linearGradient>
</defs>
</svg>