<svg width="15" height="15" viewBox="0 0 15 15" fill="none" xmlns="http://www.w3.org/2000/svg">
<path d="M6.95927 1.08133C7.10895 0.620676 7.76065 0.620676 7.91033 1.08133L8.9799 4.37313C9.18071 4.99116 9.75664 5.4096 10.4065 5.4096H13.8677C14.352 5.4096 14.5534 6.02941 14.1616 6.31411L11.3614 8.34855C10.8357 8.73052 10.6157 9.40757 10.8165 10.0256L11.8861 13.3174C12.0357 13.7781 11.5085 14.1611 11.1166 13.8764L8.31648 11.842C7.79075 11.46 7.07885 11.46 6.55312 11.842L3.75295 13.8764C3.36109 14.1611 2.83385 13.7781 2.98353 13.3174L4.0531 10.0256C4.25391 9.40757 4.03392 8.73052 3.50819 8.34855L0.708024 6.31411C0.316168 6.02941 0.517555 5.4096 1.00192 5.4096H4.46312C5.11296 5.4096 5.68889 4.99116 5.8897 4.37313L6.95927 1.08133Z" stroke="#2B313B"/>
</svg>
