<svg width="268" height="210" viewBox="0 0 268 210" fill="none" xmlns="http://www.w3.org/2000/svg">
<path fill-rule="evenodd" clip-rule="evenodd" d="M73.9253 93.6879C73.9253 93.6879 47.9925 90.7752 37.9504 109.518C34.5712 115.824 9.52444 174.306 6.86931 197.353C6.86931 197.353 0.837725 199.261 0 202.357H35.5312C35.9077 202.357 36.2474 202.13 36.3925 201.783C38.9852 195.58 61.7362 141.146 61.7362 141.146C61.7362 141.146 64.6615 190.489 65.2589 200.571C65.3187 201.574 66.1497 202.357 67.1545 202.357C73.8902 202.357 97.3512 202.357 97.3512 202.357C97.3512 202.357 96.5187 199.104 90.4256 197.353C90.4256 197.353 93.7205 120.595 84.5736 101.377L73.9253 93.6879Z" fill="url(#paint0_linear_323_4739)"/>
<path fill-rule="evenodd" clip-rule="evenodd" d="M56.6934 153.157L59.9005 120.799C59.9224 120.574 60.1138 120.404 60.3401 120.41C60.5651 120.416 60.7476 120.596 60.7578 120.822L61.6721 141.245L56.6934 153.157Z" fill="#13524E"/>
<path fill-rule="evenodd" clip-rule="evenodd" d="M90.9562 167.752C90.9562 168.243 90.9547 168.729 90.9532 169.213H63.3548L63.2686 167.752H90.9562ZM14.6151 167.752H50.5584L49.9481 169.213H14.125L14.1327 169.189C14.2877 168.725 14.4435 168.262 14.6001 167.797L14.6151 167.752Z" fill="#82B5B2"/>
<path d="M53.9638 48.7096C59.2347 48.7096 63.5077 44.4366 63.5077 39.1657C63.5077 33.8948 59.2347 29.6218 53.9638 29.6218C48.6929 29.6218 44.4199 33.8948 44.4199 39.1657C44.4199 44.4366 48.6929 48.7096 53.9638 48.7096Z" fill="#A8CFCC"/>
<path fill-rule="evenodd" clip-rule="evenodd" d="M53.2588 29.6218C53.7408 31.567 54.4374 36.4724 50.8114 40.8068C50.427 40.1844 49.7314 39.7681 48.9379 39.7681C47.7285 39.7681 46.7467 40.7347 46.7467 41.925C46.7467 43.1154 47.7285 44.0819 48.9379 44.0819C49.147 44.0819 49.3494 44.0529 49.5412 43.9988C49.5685 44.7505 49.3741 45.8015 48.4523 46.9304C46.0133 45.2012 44.4199 42.3552 44.4199 39.14C44.4199 34.1096 48.3201 29.983 53.2588 29.6218Z" fill="black"/>
<path fill-rule="evenodd" clip-rule="evenodd" d="M46.1544 44.0388C45.8831 44.198 45.1997 44.1741 44.8889 44.2364C43.8695 44.4407 42.856 44.6778 41.8468 44.9272C38.7256 45.6985 35.6489 46.6266 32.7371 48.0053C30.6187 49.0084 28.4007 50.2781 27.3984 52.5009C25.9414 55.7321 28.5308 58.6321 31.8972 58.3286C35.1438 58.0359 37.6919 55.6837 39.8551 53.4717C42.3861 50.8836 45.2761 48.094 47.2166 45.0052" fill="black"/>
<path fill-rule="evenodd" clip-rule="evenodd" d="M35.0767 65.4139C33.4615 67.1349 19.2511 82.6706 8.5739 94.6562C4.99167 98.7102 4.66715 104.695 7.79007 109.113C7.78963 109.115 7.78978 109.115 7.78978 109.115C10.5327 112.995 15.4973 114.615 20.0009 113.099C24.8808 111.454 31.5453 107.657 39.3011 99.1498C43.2409 94.8281 46.3729 90.8821 48.9573 88.4663C48.9573 88.4663 60.2955 92.1139 66.1272 85.8619C66.1272 85.8619 80.3638 104.053 94.1419 111.304C99.5909 114.137 106.305 112.236 109.458 106.965C110.926 104.532 111.542 101.602 109.89 98.421C102.658 84.4886 91.3013 73.9467 73.9436 57.2574C70.5743 54.017 64.6828 49.3886 53.2721 52.0298C48.9729 53.025 43.7325 56.1914 35.0767 65.4139Z" fill="#A8CFCC"/>
<path fill-rule="evenodd" clip-rule="evenodd" d="M60.0823 76.8345C60.0823 76.8345 60.4562 76.7381 60.8973 76.778C61.2711 76.8117 61.7137 76.9439 61.9415 77.4144C62.2467 78.0473 61.7852 78.5697 61.0813 79.1035C59.6544 80.1863 57.1409 81.1332 54.9152 82.0395C54.6158 82.161 54.4727 82.5021 54.5939 82.8008C54.7151 83.0993 55.0568 83.2432 55.3548 83.1215C57.6813 82.175 60.297 81.1655 61.7881 80.0342C63.0325 79.0903 63.5334 78.0262 62.993 76.9066C62.552 75.9931 61.7283 75.68 61.0024 75.6143C60.3437 75.5548 59.7844 75.705 59.7844 75.705C59.4718 75.7873 59.2864 76.1073 59.3681 76.419C59.4514 76.7308 59.7712 76.917 60.0823 76.8345Z" fill="#82B5B2"/>
<path fill-rule="evenodd" clip-rule="evenodd" d="M64.6036 74.5134C64.6036 74.5134 65.2988 73.8394 66.2451 73.3015C66.8366 72.9657 67.5289 72.6739 68.208 72.6774C68.4855 72.6779 68.7469 72.7984 68.9266 73.0075C69.1062 73.2165 69.1851 73.4934 69.1427 73.7656C69.0288 74.4215 68.7163 75.312 67.9101 76.1617C66.8016 77.3308 63.996 80.8606 55.0609 81.992C54.741 82.0325 54.5147 82.3252 54.5556 82.645C54.5964 82.9648 54.8885 83.1917 55.2084 83.1512C64.6386 81.9567 67.5873 78.2001 68.7586 76.9658C69.7663 75.9041 70.1504 74.789 70.2965 73.9548C70.3914 73.3341 70.2147 72.7148 69.8145 72.2472C69.4129 71.7795 68.8287 71.51 68.2124 71.5091C67.3361 71.5047 66.4321 71.8517 65.6683 72.2855C64.5831 72.9018 63.7886 73.6757 63.7886 73.6757C63.5579 73.9004 63.552 74.2707 63.7769 74.5019C64.0019 74.7329 64.3714 74.7382 64.6036 74.5134Z" fill="#82B5B2"/>
<path fill-rule="evenodd" clip-rule="evenodd" d="M66.0746 78.3073C66.0746 78.3073 64.5776 82.1281 63.0996 83.6048C62.8718 83.8328 62.8718 84.203 63.0996 84.431C63.3274 84.6591 63.6984 84.6591 63.9262 84.4312C65.5181 82.8397 67.1611 78.7378 67.1611 78.7378C67.2794 78.4381 67.1334 78.0983 66.8325 77.9794C66.5331 77.8607 66.1929 78.0076 66.0746 78.3073Z" fill="#82B5B2"/>
<path fill-rule="evenodd" clip-rule="evenodd" d="M61.5645 80.8603V82.2353C61.5645 82.5578 61.8259 82.8195 62.1486 82.8195C62.4699 82.8195 62.7328 82.5578 62.7328 82.2353V80.8603C62.7328 80.538 62.4699 80.2761 62.1486 80.2761C61.8259 80.2761 61.5645 80.538 61.5645 80.8603Z" fill="#82B5B2"/>
<path fill-rule="evenodd" clip-rule="evenodd" d="M65.792 58.7952C65.792 58.7952 64.8573 59.1825 64.4177 60.2479C64.1475 60.9019 64.0482 61.8313 64.5594 63.1081C65.1494 64.5792 66.6668 68.9337 64.6046 72.2857C64.4352 72.5602 64.5214 72.9202 64.7945 73.0894C65.0705 73.2583 65.4298 73.1726 65.5992 72.898C67.898 69.1638 66.3003 64.3125 65.643 62.6733C65.2896 61.7884 65.3101 61.1471 65.497 60.6939C65.7438 60.0988 66.2506 59.8695 66.2506 59.8695C66.5471 59.7427 66.6858 59.3991 66.5587 59.1026C66.4317 58.8063 66.0885 58.6684 65.792 58.7952Z" fill="#82B5B2"/>
<path fill-rule="evenodd" clip-rule="evenodd" d="M43.4752 94.4281C42.1917 95.9047 40.8053 97.4995 39.3011 99.1498C31.5453 107.657 24.8808 111.454 20.0009 113.099C15.4973 114.615 10.5327 112.995 7.78978 109.115C7.78978 109.115 7.78963 109.115 7.79007 109.113C4.66715 104.695 4.99167 98.7102 8.5739 94.6562C19.2511 82.6706 33.4615 67.1349 35.0767 65.4139C43.7325 56.1914 48.9729 53.025 53.2721 52.0298C64.6828 49.3886 70.5743 54.017 73.9436 57.2574C91.3013 73.9467 102.658 84.4886 109.89 98.421C111.542 101.602 110.926 104.532 109.458 106.965C106.911 111.222 102.04 113.281 97.39 112.423L93.4394 110.926C88.6812 108.297 83.8967 104.425 79.6891 100.505C77.2939 98.0165 75.6524 96.1208 75.6524 96.1208L82.6319 78.8851L71.3907 70.9141C70.9175 67.6532 70.7306 65.5691 69.7214 63.4082C69.4468 62.817 69.1094 62.2201 68.6874 61.5918C66.726 58.6667 65.4904 60.4078 65.4904 60.4078C64.5791 59.2828 63.7335 58.7646 63.1697 58.5267C62.8718 58.4083 62.5373 58.4292 62.2569 58.5837C61.978 58.7382 61.7823 59.0101 61.7238 59.3246C61.588 60.0978 62.0612 60.9695 62.3168 61.3697C62.3957 61.4909 62.4862 61.6044 62.587 61.7084C68.1265 67.4352 65.064 73.8634 65.064 73.8634C62.327 77.2323 57.4403 77.1524 57.4403 77.1524C53.8665 77.4399 51.6189 76.3382 50.3442 75.3335C48.4488 73.844 45.9419 73.3819 43.6399 74.098C38.0215 75.8885 31.9591 81.2223 31.9591 81.2223L43.4752 94.4281Z" fill="url(#paint1_linear_323_4739)"/>
<path fill-rule="evenodd" clip-rule="evenodd" d="M48.998 88.4344L54.725 82.0295C54.725 82.0295 61.6257 85.1801 63.812 82.7152L66.5855 86.3686C66.3007 86.0168 66.1517 85.8249 66.1517 85.8249C60.4485 91.9398 49.4759 88.5844 48.998 88.4344Z" fill="#82B5B2"/>
<path fill-rule="evenodd" clip-rule="evenodd" d="M33.276 80.1374C32.4672 80.7797 31.9912 81.1984 31.9912 81.1984L32.9335 82.279L15.8085 96.4752C15.4982 96.7323 15.0375 96.6885 14.7802 96.3788C14.523 96.0678 14.5661 95.6077 14.8765 95.3505L33.0961 80.2471C33.1519 80.2009 33.2126 80.1643 33.276 80.1374ZM81.8229 78.2646C81.9762 78.2743 82.1296 78.3326 82.2552 78.4414L98.9323 92.893C99.236 93.157 99.2696 93.6186 99.0053 93.9231C98.7409 94.2277 98.2794 94.2607 97.9756 93.9968L82.1047 80.2437L82.6641 78.8613L81.8229 78.2646ZM34.9372 78.8721C35.0232 77.4658 35.2669 74.7145 35.9285 72.3074C35.9998 72.0854 36.2088 71.9369 36.4419 71.9426C36.675 71.9483 36.8765 72.1067 36.9368 72.3319C37.2958 73.664 37.788 75.4976 38.1195 76.7335C36.9444 77.4516 35.8584 78.1988 34.9372 78.8721ZM75.1894 73.5616L75.9722 69.835C76.0014 69.6955 76.1139 69.5884 76.2541 69.5654C76.3943 69.5423 76.5345 69.6079 76.6061 69.7305C77.0486 70.708 77.7146 72.5907 78.0373 75.5812L75.1894 73.5616Z" fill="#13524E"/>
<path d="M56.911 77.4355C62.0341 77.4355 66.1872 73.3394 66.1872 68.2866C66.1872 63.2338 62.0341 59.1377 56.911 59.1377C51.7879 59.1377 47.6348 63.2338 47.6348 68.2866C47.6348 73.3394 51.7879 77.4355 56.911 77.4355Z" fill="#FFCD80"/>
<path d="M56.8689 75.9319C61.1619 75.9319 64.642 72.4994 64.642 68.2654C64.642 64.0313 61.1619 60.5989 56.8689 60.5989C52.5759 60.5989 49.0957 64.0313 49.0957 68.2654C49.0957 72.4994 52.5759 75.9319 56.8689 75.9319Z" fill="#FFB000"/>
<path d="M54.318 71.2088C55.1787 71.835 56.1605 72.1132 57.2798 72.071C58.6123 71.9896 59.2414 71.4877 59.21 70.5633C59.1611 69.8107 58.6871 69.3787 57.788 69.2673C57.3685 69.2314 56.9203 69.197 56.4282 69.1506C55.5444 69.0527 54.8493 68.76 54.3582 68.2862C53.8518 67.7988 53.5818 67.1856 53.5337 66.4472C53.4765 65.5668 53.7171 64.8423 54.2842 64.2723C54.8226 63.7038 55.6223 63.3928 56.6681 63.3259C57.946 63.29 59.0731 63.5893 60.0484 64.2098L59.2703 65.5169C58.4781 65.0582 57.6146 64.8311 56.6961 64.8631C56.2229 64.887 55.8289 65.0208 55.5291 65.2781C55.2151 65.5361 55.067 65.914 55.0841 66.3975C55.1035 66.6957 55.2348 66.9455 55.4799 67.1754C55.725 67.4052 56.1079 67.5426 56.6162 67.6167C56.8914 67.6456 57.2822 67.6829 57.7734 67.7151C58.7423 67.7945 59.467 68.0999 59.9618 68.6306C60.4414 69.1478 60.7114 69.761 60.7585 70.4853C60.8411 72.4186 59.7004 73.4591 57.3652 73.6053C55.8597 73.6812 54.5245 73.2784 53.3748 72.4103L54.318 71.2088Z" fill="#FFCD80"/>
<path fill-rule="evenodd" clip-rule="evenodd" d="M56.3753 62.0854L56.1081 74.7986L57.8794 74.7986L57.8792 62.0854L56.3753 62.0854Z" fill="#FFCD80"/>
<path fill-rule="evenodd" clip-rule="evenodd" d="M20.6441 180.249C19.7622 180.09 19.0928 179.317 19.0928 178.39V174.61C19.0928 173.567 19.9395 172.72 20.9825 172.72H42.2097C43.2527 172.72 44.0995 173.567 44.0995 174.61V178.39C44.0995 179.317 43.43 180.09 42.5482 180.249C43.43 180.41 44.0995 181.182 44.0995 182.11V185.889C44.0995 186.817 43.43 187.588 42.5482 187.748C43.43 187.908 44.0995 188.68 44.0995 189.608V193.387C44.0995 194.315 43.43 195.087 42.5482 195.246C43.43 195.407 44.0995 196.178 44.0995 197.106V200.885C44.0995 201.928 43.2527 202.775 42.2097 202.775H20.9825C19.9395 202.775 19.0928 201.928 19.0928 200.885V197.106C19.0928 196.178 19.7622 195.407 20.6441 195.246C19.7622 195.087 19.0928 194.315 19.0928 193.387V189.608C19.0928 188.68 19.7622 187.908 20.6441 187.748C19.7622 187.588 19.0928 186.817 19.0928 185.889V182.11C19.0928 181.182 19.7622 180.41 20.6441 180.249Z" fill="#FFCD80"/>
<path fill-rule="evenodd" clip-rule="evenodd" d="M39.0515 172.72V178.768H43.9537C43.9774 178.768 44.0008 178.769 44.0237 178.771C43.8766 179.489 43.3221 180.059 42.6127 180.228H42.5751V180.237C42.5539 180.242 42.5326 180.246 42.5109 180.249C42.5326 180.253 42.5539 180.258 42.5751 180.262V186.265H43.9537C43.9774 186.265 44.0009 186.266 44.024 186.268C43.8776 186.985 43.3256 187.554 42.6186 187.725H41.0568V193.763H43.9537C43.9775 193.763 44.0011 193.763 44.0243 193.766C43.8788 194.48 43.3291 195.049 42.6244 195.223H38.7508V202.775H37.2903V195.223H35.9083V202.775H34.4478V195.223H24.7483V202.775H23.2878V195.223H20.4934C19.7877 195.049 19.2372 194.478 19.0928 193.763H28.2696V187.725H20.4992C19.791 187.554 19.2382 186.983 19.0931 186.265H21.1969V180.228H20.505C19.7947 180.059 19.2395 179.487 19.0934 178.768H25.227V172.72H26.6875V178.768H34.6251V172.72H36.0856V178.768H37.5911V172.72H39.0515ZM29.7301 187.725V193.763H30.8341V187.725H29.7301ZM32.2945 187.725V193.763H39.5963V187.725H32.2945ZM22.6573 180.228V186.265H33.5459V180.228H22.6573ZM35.0063 180.228V186.265H41.1146V180.228H35.0063Z" fill="#FDA425"/>
<path fill-rule="evenodd" clip-rule="evenodd" d="M216.87 79.6835C215.871 79.1903 215.184 78.1607 215.184 76.9717V70.9271C215.184 69.2589 216.537 67.9048 218.205 67.9048H264.102C265.77 67.9048 267.124 69.2589 267.124 70.9271V76.9717C267.124 78.1607 266.436 79.1903 265.435 79.6835C266.436 80.1768 267.124 81.2065 267.124 82.3954V88.44C267.124 89.4854 266.592 90.4076 265.784 90.9503C266.592 91.4932 267.124 92.4152 267.124 93.4606V99.5055C267.124 100.551 266.592 101.473 265.784 102.016C266.592 102.558 267.124 103.481 267.124 104.525V110.57C267.124 111.616 266.592 112.537 265.784 113.081C266.592 113.624 267.124 114.545 267.124 115.591V121.636C267.124 122.68 266.592 123.603 265.784 124.147C266.592 124.688 267.124 125.611 267.124 126.656V132.701C267.124 133.746 266.592 134.668 265.784 135.211C266.592 135.754 267.124 136.676 267.124 137.722V143.767C267.124 144.811 266.592 145.734 265.784 146.276C266.592 146.819 267.124 147.74 267.124 148.786V154.831C267.124 155.877 266.592 156.798 265.784 157.342C266.592 157.885 267.124 158.806 267.124 159.852V165.897C267.124 166.941 266.592 167.864 265.784 168.406C266.592 168.949 267.124 169.871 267.124 170.917V176.962C267.124 178.007 266.592 178.929 265.784 179.472C266.592 180.014 267.124 180.937 267.124 181.983V188.026C267.124 189.072 266.592 189.995 265.784 190.537C266.592 191.08 267.124 192.002 267.124 193.047V199.092C267.124 200.76 265.77 202.114 264.102 202.114H218.205C216.537 202.114 215.184 200.76 215.184 199.092V193.047C215.184 192.002 215.715 191.08 216.523 190.537C215.715 189.995 215.184 189.072 215.184 188.026V181.983C215.184 180.937 215.715 180.014 216.523 179.472C215.715 178.929 215.184 178.007 215.184 176.962V170.917C215.184 169.871 215.715 168.949 216.523 168.406C215.715 167.864 215.184 166.941 215.184 165.897V159.852C215.184 158.806 215.715 157.885 216.523 157.342C215.715 156.798 215.184 155.877 215.184 154.831V148.786C215.184 147.74 215.715 146.819 216.523 146.276C215.715 145.734 215.184 144.811 215.184 143.767V137.722C215.184 136.676 215.715 135.754 216.523 135.211C215.715 134.668 215.184 133.746 215.184 132.701V126.656C215.184 125.611 215.715 124.688 216.523 124.147C215.715 123.603 215.184 122.68 215.184 121.636V115.591C215.184 114.545 215.715 113.624 216.523 113.081C215.715 112.537 215.184 111.616 215.184 110.57V104.525C215.184 103.481 215.715 102.558 216.523 102.016C215.715 101.473 215.184 100.551 215.184 99.5055V93.4606C215.184 92.4152 215.715 91.4932 216.523 90.9503C215.715 90.4076 215.184 89.4854 215.184 88.44V82.3954C215.184 81.2065 215.871 80.1768 216.87 79.6835Z" fill="#FFCD80"/>
<path fill-rule="evenodd" clip-rule="evenodd" d="M253.046 67.9048V78.15H258.639C258.714 77.8262 259.005 77.5844 259.351 77.5844C259.697 77.5844 259.987 77.8262 260.062 78.15H266.917C266.655 78.7698 266.192 79.2839 265.609 79.6105H260.081V89.5288H266.954C266.729 90.1113 266.329 90.6068 265.818 90.9503C265.837 90.963 265.854 90.976 265.873 90.9893H264.592V100.837C264.592 100.861 264.591 100.884 264.589 100.908H266.812C266.577 101.354 266.234 101.736 265.818 102.016C265.972 102.12 266.117 102.238 266.25 102.368H258.543V111.735H266.923C266.694 112.285 266.305 112.752 265.818 113.081C265.872 113.117 265.926 113.156 265.977 113.196H262.93V122.79H266.928C266.698 123.345 266.308 123.815 265.818 124.147C265.867 124.179 265.916 124.214 265.964 124.25H257.746V133.859H266.928C266.697 134.411 266.308 134.881 265.818 135.211C265.869 135.246 265.918 135.281 265.967 135.319H262.628V145.017H266.885C266.653 145.529 266.281 145.965 265.818 146.276C265.91 146.338 265.999 146.406 266.083 146.477H256.311V155.951H266.942C266.714 156.519 266.32 157.004 265.818 157.342C265.851 157.364 265.883 157.387 265.916 157.412H260.559V166.877H266.993C266.79 167.469 266.411 167.977 265.916 168.337H255.849V178.099H266.935C266.707 178.66 266.314 179.138 265.818 179.472C265.859 179.5 265.899 179.529 265.94 179.56H261.464V189.022H266.989C266.782 189.615 266.396 190.123 265.895 190.483H251.122V202.114H249.662V190.483H246.712V202.114H245.251V190.483H226.068V202.114H224.608V190.483H216.479C215.978 190.123 215.592 189.615 215.385 189.022H217.98V179.56H216.433C216.473 179.529 216.514 179.5 216.556 179.472C216.059 179.138 215.667 178.66 215.437 178.099H224.819V168.337H216.458C215.963 167.977 215.582 167.469 215.379 166.877H219.03V157.412H216.457C216.489 157.387 216.522 157.364 216.556 157.342C216.054 157.004 215.658 156.519 215.431 155.951H223.363V146.477H216.289C216.375 146.406 216.463 146.338 216.556 146.276C216.093 145.965 215.721 145.529 215.487 145.017H218.662V135.319H216.406C216.455 135.281 216.505 135.246 216.556 135.211C216.065 134.881 215.675 134.411 215.446 133.859H223.889V124.25H216.41C216.458 124.214 216.506 124.179 216.556 124.147C216.064 123.815 215.674 123.345 215.445 122.79H217.644V113.196H216.395C216.448 113.156 216.502 113.117 216.556 113.081C216.067 112.752 215.68 112.285 215.449 111.735H220.22V102.368H216.124C216.257 102.238 216.401 102.12 216.556 102.016C216.14 101.736 215.797 101.354 215.561 100.908H228.812V90.9893H221.333C221.238 91.0341 221.133 91.0591 221.022 91.0591C220.91 91.0591 220.805 91.0341 220.71 90.9893H216.499C216.518 90.976 216.537 90.963 216.556 90.9503C216.045 90.6068 215.645 90.1113 215.418 89.5288H220.292V79.6105H216.765C216.182 79.2839 215.718 78.7697 215.455 78.15H220.309C220.385 77.8262 220.675 77.5844 221.022 77.5844C221.368 77.5844 221.659 77.8262 221.733 78.15H230.911V67.9048H232.371V78.15H233.956V67.9048H235.417V78.15H239.614C239.688 77.8262 239.979 77.5844 240.327 77.5844C240.673 77.5844 240.963 77.8262 241.038 78.15H243.252C243.328 77.8262 243.617 77.5844 243.965 77.5844C244.311 77.5844 244.601 77.8262 244.676 78.15H251.585V67.9048H253.046ZM219.44 179.56V189.022H232.503V179.56H219.44ZM233.963 179.56V189.022H236.195V179.56H233.963ZM237.655 179.56V189.022H260.004V179.56H237.655ZM226.28 168.337V178.099H239.846V168.337H226.28ZM251.601 168.337H241.307V178.099H251.597V168.415L251.601 168.337ZM253.058 178.099H254.388V168.337H253.053C253.056 168.362 253.058 168.389 253.058 168.415V178.099ZM249.928 157.412V166.877H259.098V157.412H249.928ZM234.004 166.877H248.467V157.412H233.991C234 157.456 234.004 157.501 234.004 157.546V166.877ZM232.555 157.412H220.491V166.877H232.544V157.546C232.544 157.502 232.547 157.457 232.555 157.413V157.412ZM244.485 146.477V155.951H254.851V146.477H244.485ZM241.185 146.477V155.951H243.024V146.477H241.185ZM224.824 146.477V155.951H239.725V146.477H224.824ZM231.219 135.319V145.017H249.095V135.319H231.219ZM220.123 135.319V145.017H229.759V135.319H220.123ZM250.556 135.319V145.017H261.168V135.319H250.556ZM237.997 124.25V133.859H239.446V124.25H237.997ZM230.616 133.859H236.537V124.25H225.35V133.859H230.362C230.403 133.851 230.445 133.847 230.489 133.847C230.533 133.847 230.575 133.851 230.616 133.859ZM240.906 124.25V133.859H256.285V124.25H240.906ZM257.233 122.79H261.47V113.196H249.514V122.79H256.798C256.866 122.768 256.939 122.756 257.015 122.756C257.091 122.756 257.164 122.768 257.233 122.79ZM245.996 113.196V122.79H248.054V113.196H245.996ZM219.105 113.196V122.79H233.414V113.196H219.105ZM234.875 113.196V122.79H244.536V113.196H234.875ZM221.681 102.368V111.735H223.464V102.368H221.681ZM241.735 102.368V111.735H257.083V102.368H241.735ZM224.925 102.368V111.735H240.274V102.368H224.925ZM232.858 90.9893H230.273V100.908H232.862C232.859 100.884 232.858 100.861 232.858 100.837V90.9893ZM250.515 90.9893H244.276C244.182 91.0341 244.076 91.0591 243.965 91.0591C243.852 91.0591 243.747 91.0341 243.652 90.9893H240.638C240.543 91.0341 240.438 91.0591 240.327 91.0591C240.214 91.0591 240.109 91.0341 240.014 90.9893H234.318V100.837C234.318 100.861 234.318 100.884 234.315 100.908H250.518C250.515 100.884 250.515 100.861 250.515 100.837V90.9893ZM263.132 90.9893H259.663C259.568 91.0341 259.463 91.0591 259.351 91.0591C259.24 91.0591 259.133 91.0341 259.04 90.9893H251.975V100.837C251.975 100.861 251.974 100.884 251.971 100.908H263.135C263.133 100.884 263.132 100.861 263.132 100.837V90.9893ZM221.752 79.6105V89.5288H239.596V79.6105H221.752ZM241.057 79.6105V89.5288H243.234V79.6105H241.057ZM244.695 79.6105V89.5288H258.62V79.6105H244.695Z" fill="#FDA425"/>
<path fill-rule="evenodd" clip-rule="evenodd" d="M139.275 146.599C138.467 146.057 137.936 145.134 137.936 144.09V138.045C137.936 136.377 139.289 135.022 140.957 135.022H186.852C188.522 135.022 189.876 136.377 189.876 138.045V144.09C189.876 145.134 189.344 146.057 188.536 146.599C189.344 147.142 189.876 148.064 189.876 149.109V155.154C189.876 156.2 189.344 157.122 188.536 157.665C189.344 158.207 189.876 159.13 189.876 160.175V166.219C189.876 167.265 189.344 168.188 188.536 168.729C189.344 169.273 189.876 170.194 189.876 171.24V177.285C189.876 178.331 189.344 179.252 188.536 179.795C189.344 180.337 189.876 181.26 189.876 182.305V188.349C189.876 189.395 189.344 190.317 188.536 190.86C189.344 191.403 189.876 192.325 189.876 193.37V199.415C189.876 201.083 188.522 202.437 186.852 202.437H140.957C139.289 202.437 137.936 201.083 137.936 199.415V193.37C137.936 192.325 138.467 191.403 139.275 190.86C138.467 190.317 137.936 189.395 137.936 188.349V182.305C137.936 181.26 138.467 180.337 139.275 179.795C138.467 179.252 137.936 178.331 137.936 177.285V171.24C137.936 170.194 138.467 169.273 139.275 168.729C138.467 168.188 137.936 167.265 137.936 166.219V160.175C137.936 159.13 138.467 158.207 139.275 157.665C138.467 157.122 137.936 156.2 137.936 155.154V149.109C137.936 148.064 138.467 147.142 139.275 146.599Z" fill="#FFCD80"/>
<path fill-rule="evenodd" clip-rule="evenodd" d="M179.115 145.357H189.621C189.387 145.863 189.018 146.292 188.561 146.599C188.66 146.666 188.755 146.739 188.847 146.818H184.514V156.275V156.276H189.684C189.458 156.844 189.062 157.328 188.561 157.665C188.594 157.688 188.629 157.712 188.663 157.736H180.014V167.13C180.014 167.173 180.011 167.213 180.004 167.253H189.718C189.5 167.85 189.1 168.36 188.584 168.713H185.919V178.17C185.919 178.211 185.914 178.252 185.909 178.291H189.728C189.517 178.886 189.127 179.394 188.622 179.752H180.664V189.375H189.72C189.506 189.972 189.109 190.48 188.596 190.835H185.561V202.437H184.101V190.835H174.679C174.679 190.848 174.681 190.86 174.681 190.872V202.437H173.22V190.872C173.22 190.86 173.22 190.848 173.22 190.835H166.017C165.924 190.879 165.821 190.902 165.713 190.902C165.604 190.902 165.502 190.879 165.408 190.835H156.051V202.437H154.59V190.835H152.037V202.437H150.577V190.835H139.263C138.75 190.48 138.353 189.972 138.138 189.375H148.215V179.752H139.236C138.733 179.394 138.341 178.886 138.131 178.291H141.84V168.713H139.276C138.759 168.36 138.359 167.85 138.141 167.253H147.107V157.736H139.196C139.231 157.712 139.264 157.688 139.299 157.665C138.797 157.328 138.403 156.844 138.175 156.276H141.369V146.818H139.013C139.104 146.739 139.198 146.666 139.299 146.599C138.841 146.292 138.473 145.863 138.237 145.357H144.951V135.022H146.412V145.357H147.907V135.022H149.368V145.357H162.781V135.022H164.241V145.357H177.654V135.022H179.115V145.357ZM149.676 179.752V189.375H164.983V179.752H149.676ZM166.444 179.752V189.375H176.312V179.752H166.444ZM177.772 179.752V189.375H179.204V179.752H177.772ZM143.301 168.713V178.291H155.116V168.713H143.301ZM170.904 168.713H156.577V178.291H170.943C170.918 178.217 170.904 178.136 170.904 178.053V168.713ZM184.458 168.713H172.364V178.053C172.364 178.136 172.351 178.217 172.325 178.291H184.467C184.461 178.252 184.458 178.211 184.458 178.17V168.713ZM148.567 157.736V167.253H159.79V157.736H148.567ZM161.25 157.736V167.253H162.976V157.736H161.25ZM178.554 157.736H164.437V167.253H171.409C171.479 167.23 171.555 167.218 171.634 167.218C171.713 167.218 171.789 167.23 171.86 167.253H178.565C178.558 167.213 178.554 167.173 178.554 167.13V157.736ZM142.829 146.818V156.276H155.69V146.818H142.829ZM157.151 146.818V156.276H168.779V146.818H157.151ZM170.239 146.818V156.276H172.193V146.818H170.239ZM183.053 146.818H173.654V156.276H183.053V156.275V146.818Z" fill="#FDA425"/>
<path fill-rule="evenodd" clip-rule="evenodd" d="M189.879 103.363H203.947C228.152 103.363 247.804 126.181 247.804 154.287C247.804 180.219 231.1 202.051 209.502 205.21C207.691 205.476 189.974 205.21 189.974 205.21C165.769 205.21 146.117 182.392 146.117 154.287C146.117 126.218 165.718 103.421 189.879 103.363Z" fill="#FDA425"/>
<path d="M189.973 205.211C214.193 205.211 233.828 182.411 233.828 154.287C233.828 126.162 214.193 103.363 189.973 103.363C165.752 103.363 146.117 126.162 146.117 154.287C146.117 182.411 165.752 205.211 189.973 205.211Z" fill="#FFCD80"/>
<path fill-rule="evenodd" clip-rule="evenodd" d="M190.083 124.049L188.569 123.965L188.603 121.705L191.245 121.852C191.871 121.887 192.368 122.421 192.358 123.045L192.299 126.866C194.61 127.099 196.823 127.594 198.935 128.35C201.634 129.314 204.172 130.704 206.546 132.518C206.815 132.722 206.983 133.031 207.011 133.361C207.036 133.691 206.919 134.01 206.686 134.237L201.514 139.25C201.124 139.627 200.51 139.655 200.058 139.316C197.716 137.56 195.084 136.423 192.16 135.902L191.964 148.636C202.837 151.556 207.998 157.074 207.73 164.888C207.601 169.133 205.966 172.565 202.843 175.172C199.988 177.647 196.208 179.132 191.487 179.592L191.386 186.158C191.377 186.781 190.864 187.257 190.239 187.223L187.645 187.078L187.68 184.821L189.146 184.903L189.245 178.479C189.254 177.907 189.687 177.45 190.256 177.414C194.899 177.112 198.595 175.803 201.342 173.424C203.99 171.213 205.363 168.313 205.472 164.723C205.714 157.694 200.651 153.092 190.591 150.597C190.06 150.463 189.684 149.976 189.692 149.435L189.921 134.536C189.926 134.224 190.061 133.935 190.291 133.732C190.521 133.533 190.828 133.439 191.139 133.478C194.633 133.892 197.776 135.053 200.566 136.955L204.129 133.502C202.273 132.225 200.316 131.215 198.252 130.479C195.998 129.672 193.625 129.192 191.126 129.031C190.506 128.992 190.015 128.46 190.025 127.839L190.083 124.049ZM191.628 170.455C193.277 170.049 194.488 169.415 195.225 168.502C195.685 167.912 196.025 167.237 196.245 166.481L198.415 167.203C198.112 168.226 197.648 169.137 197.015 169.952C195.806 171.448 193.718 172.492 190.694 172.964C190.361 173.015 190.014 172.914 189.751 172.684C189.492 172.455 189.343 172.123 189.348 171.782L189.471 163.797L191.729 163.922L191.628 170.455ZM179.764 137.817C180.175 136.818 180.705 135.997 181.341 135.348C181.357 135.332 181.375 135.317 181.391 135.3C182.823 134.015 184.513 133.321 186.454 133.219C186.772 133.203 187.09 133.325 187.326 133.551C187.561 133.779 187.693 134.093 187.688 134.411L187.587 140.951L185.329 140.825L185.409 135.669C184.503 135.904 183.689 136.344 182.962 136.99C182.51 137.458 182.144 138.053 181.848 138.769C181.842 138.788 181.833 138.807 181.823 138.826C181.47 139.565 181.299 140.476 181.282 141.545L179.024 141.419C179.046 140.002 179.301 138.804 179.764 137.817Z" fill="#FDA31F"/>
<path fill-rule="evenodd" clip-rule="evenodd" d="M180.639 146.249C179.546 144.917 178.999 143.311 179.028 141.421L181.286 141.547C181.266 142.843 181.615 143.95 182.367 144.861L182.393 144.894C182.981 145.661 183.936 146.294 185.241 146.841L185.333 140.827L187.591 140.953L187.475 148.492C187.47 148.842 187.301 149.164 187.02 149.363C186.742 149.56 186.378 149.615 186.041 149.507C183.434 148.67 181.651 147.554 180.639 146.249Z" fill="#FDA31F"/>
<path fill-rule="evenodd" clip-rule="evenodd" d="M191.881 158.495L191.797 163.9L189.539 163.774L189.644 156.998C189.649 156.667 189.799 156.361 190.053 156.16C190.31 155.96 190.644 155.884 190.97 155.955C194.114 156.645 196.203 157.778 197.306 159.2L197.33 159.235C198.402 160.725 198.93 162.407 198.901 164.285C198.885 165.335 198.743 166.301 198.484 167.181L196.314 166.458C196.521 165.76 196.63 164.993 196.643 164.16C196.664 162.81 196.295 161.601 195.531 160.529C194.837 159.645 193.609 158.992 191.881 158.495Z" fill="#FDA31F"/>
<path fill-rule="evenodd" clip-rule="evenodd" d="M185.158 156.804C174.705 153.885 169.802 148.519 170.157 141.008C170.317 136.477 171.826 133.012 174.613 130.582C177.164 128.358 180.825 126.999 185.623 126.57L185.684 122.642C185.693 122.018 186.206 121.541 186.829 121.575L188.679 121.678L188.644 123.938L187.924 123.898L187.866 127.688C187.857 128.262 187.42 128.721 186.848 128.755C182.14 129.041 178.558 130.2 176.132 132.314C173.771 134.374 172.552 137.338 172.414 141.194C172.095 147.922 176.91 152.37 186.54 154.858C187.064 154.994 187.438 155.478 187.43 156.014L187.189 171.631C187.184 171.95 187.044 172.244 186.808 172.446C186.569 172.647 186.253 172.734 185.936 172.687C183.114 172.264 180.729 171.498 178.786 170.407C177.075 169.539 175.548 168.494 174.202 167.272L169.821 170.676C171.887 172.275 174.183 173.654 176.7 174.816C179.638 176.14 182.733 176.911 185.988 177.136C186.608 177.18 187.096 177.71 187.086 178.328L186.987 184.751L187.755 184.794L187.72 187.051L185.822 186.946C185.199 186.911 184.702 186.378 184.712 185.755L184.811 179.295C181.682 178.967 178.694 178.158 175.836 176.87C172.643 175.397 169.8 173.601 167.294 171.483C167.032 171.26 166.876 170.93 166.876 170.59C166.872 170.249 167.025 169.931 167.288 169.726L173.531 164.876C173.972 164.531 174.619 164.584 175.03 165.001C176.373 166.359 177.953 167.493 179.76 168.407L179.809 168.432C181.248 169.244 182.963 169.842 184.951 170.235L185.158 156.804Z" fill="#FDA31F"/>
<path fill-rule="evenodd" clip-rule="evenodd" d="M187.81 113.492C205.499 113.492 219.708 131.89 219.708 154.402C219.708 176.913 205.499 195.31 187.81 195.31C187.165 195.31 186.641 195.834 186.641 196.479C186.641 197.123 187.165 197.648 187.81 197.648C206.619 197.648 222.043 178.337 222.043 154.402C222.043 130.466 206.619 111.156 187.81 111.156C187.165 111.156 186.641 111.679 186.641 112.324C186.641 112.969 187.165 113.492 187.81 113.492Z" fill="#FDA425"/>
<path fill-rule="evenodd" clip-rule="evenodd" d="M187.854 195.31C170.163 195.31 155.956 176.913 155.956 154.402C155.956 131.89 170.163 113.492 187.854 113.492C188.499 113.492 189.022 112.969 189.022 112.324C189.022 111.679 188.499 111.156 187.854 111.156C169.045 111.156 153.619 130.466 153.619 154.402C153.619 178.337 169.045 197.648 187.854 197.648C188.499 197.648 189.022 197.123 189.022 196.479C189.022 195.834 188.499 195.31 187.854 195.31Z" fill="#FDA425"/>
<path fill-rule="evenodd" clip-rule="evenodd" d="M222.078 201.083H205.344C204.7 201.083 204.176 200.559 204.176 199.915C204.176 199.269 204.7 198.746 205.344 198.746H225.445C225.58 198.746 225.71 198.77 225.832 198.812C224.616 199.637 223.365 200.395 222.078 201.083ZM241.169 181.409C240.746 182.202 240.306 182.982 239.848 183.746H223.778C223.133 183.746 222.61 183.223 222.61 182.577C222.61 181.932 223.133 181.409 223.778 181.409H241.169ZM244.34 174.276C244.054 175.066 243.75 175.845 243.433 176.613H225.445C224.799 176.613 224.276 176.09 224.276 175.444C224.276 174.8 224.799 174.276 225.445 174.276H244.34ZM247.683 150.559C247.733 151.335 247.766 152.113 247.785 152.896H231.739C231.094 152.896 230.571 152.373 230.571 151.728C230.571 151.084 231.094 150.559 231.739 150.559H247.683ZM245.13 136.805C245.373 137.576 245.602 138.356 245.814 139.142H228.332C227.688 139.142 227.164 138.619 227.164 137.973C227.164 137.329 227.688 136.805 228.332 136.805H245.13ZM242.732 130.561C243.081 131.329 243.416 132.108 243.731 132.898H227.702C227.058 132.898 226.534 132.375 226.534 131.73C226.534 131.086 227.058 130.561 227.702 130.561H242.732ZM227.188 111.156C228.196 111.889 229.176 112.668 230.128 113.493H211.639C210.995 113.493 210.47 112.968 210.47 112.324C210.47 111.679 210.995 111.156 211.639 111.156H227.188Z" fill="#FFCD80"/>
<path fill-rule="evenodd" clip-rule="evenodd" d="M151.175 19.001C152.209 15.4357 155.155 5.2445 157.28 0.690466L169.516 7.32834C169.516 7.32834 164.244 26.3742 163.108 31.8359L148.877 28.4518C149.309 25.4758 150.135 22.588 151.175 19.001Z" fill="#82B5B2"/>
<path d="M157.665 22.9142C160.008 22.9142 161.907 20.9267 161.907 18.475C161.907 16.0234 160.008 14.0359 157.665 14.0359C155.323 14.0359 153.424 16.0234 153.424 18.475C153.424 20.9267 155.323 22.9142 157.665 22.9142Z" fill="#A8CFCC" fill-opacity="0.63"/>
<path fill-rule="evenodd" clip-rule="evenodd" d="M154.609 23.9832C155.3 22.0576 159.154 12.0696 161.531 9.06787L172.606 15.2921C172.606 15.2921 166.637 31.1522 165.276 35.7189L152.158 32.15C152.725 29.6524 153.528 26.9948 154.609 23.9832Z" fill="#A8CFCC"/>
<path d="M162.341 27.4925C164.684 27.4925 166.583 25.5051 166.583 23.0534C166.583 20.6017 164.684 18.6143 162.341 18.6143C159.999 18.6143 158.1 20.6017 158.1 23.0534C158.1 25.5051 159.999 27.4925 162.341 27.4925Z" fill="#82B5B2"/>
<path d="M189.664 24.7591C194.831 24.7591 199.02 20.5705 199.02 15.4036C199.02 10.2367 194.831 6.0481 189.664 6.0481C184.497 6.0481 180.309 10.2367 180.309 15.4036C180.309 20.5705 184.497 24.7591 189.664 24.7591Z" fill="#E86135"/>
<path fill-rule="evenodd" clip-rule="evenodd" d="M183.523 8.42048C185.178 6.94526 187.359 6.0481 189.746 6.0481C194.911 6.0481 199.102 10.2402 199.102 15.4036C199.102 17.1751 198.609 18.8325 197.753 20.2449C190.805 17.1237 191.823 9.59338 191.823 9.59338C188.004 10.8411 185.152 9.57747 183.523 8.42048Z" fill="black"/>
<path fill-rule="evenodd" clip-rule="evenodd" d="M149.617 134.318C149.617 134.318 146.882 129.026 149.617 125.06L144.761 116.528C144.761 116.528 142.401 115.017 139.721 113.299C133.662 109.416 130.186 102.553 130.64 95.3718C130.675 94.8246 130.738 94.3228 130.833 93.8839C128.046 91.2548 125.744 85.3536 126.591 79.7073C126.591 79.7071 126.591 79.7071 126.591 79.7071C127.77 71.8429 134.303 65.8838 142.242 65.4315C155.018 64.7068 176.944 64.2116 190.424 68.0773L187.392 60.5293C187.392 60.5293 165.821 68.2427 160.357 50.5295C147.974 55.5298 134.184 59.1851 120.549 61.163C114.849 61.9925 109.225 59.2289 106.399 54.2091C106.393 54.2126 106.393 54.2126 106.393 54.2126C104.002 49.9667 104.766 44.6441 108.254 41.2412C111.76 37.858 117.741 33.4815 127.954 28.4464C127.954 28.4464 138.185 23.0366 144.175 19.8687C146.852 18.4535 150.026 18.3302 152.804 19.5338C158.706 22.0899 168.456 26.314 168.456 26.314L169.595 23.4388C176.366 24.5663 183.018 26.6173 189.541 29.1556C196.468 31.86 201.835 37.5006 204.19 44.5522C209.991 61.9172 220.945 95.2583 222.382 103.61H226.489C228.796 103.61 230.796 105.211 231.3 107.463C231.693 109.223 232.072 110.922 232.072 110.922C232.072 110.922 234.688 113.847 235.453 116.528C235.764 117.621 234.022 118.894 232.072 116.848C231.495 116.242 225.893 111.821 223.377 111.545C221.452 111.333 219.749 111.113 218.161 110.919C213.288 110.321 208.962 107.508 206.437 103.295C204.748 100.479 203.196 97.8884 203.196 97.8884C203.196 97.8884 197.932 106.33 183.484 104.807L185.729 133.987C185.729 133.987 182.846 133.305 181.882 128.593C181.882 128.593 165.599 126.424 156.325 122.497C156.325 122.497 152.667 126.129 149.617 134.318Z" fill="url(#paint2_linear_323_4739)"/>
<path fill-rule="evenodd" clip-rule="evenodd" d="M222.308 103.168C222.336 103.314 222.361 103.453 222.384 103.586H224.328C225.269 104.246 226.699 105.283 228.248 106.518L228.746 105.957C228.961 105.716 229.33 105.695 229.571 105.909C229.812 106.122 229.834 106.492 229.62 106.733L229.157 107.254C230.036 107.98 230.93 108.757 231.775 109.555L232.075 110.897L222.557 103.784C222.348 103.647 222.256 103.397 222.308 103.168Z" fill="#D7441E"/>
<path fill-rule="evenodd" clip-rule="evenodd" d="M166.794 125.76L174.883 102.792C175.018 102.411 175.435 102.211 175.815 102.345C176.195 102.48 176.395 102.896 176.262 103.277L168.224 126.096C167.749 125.988 167.273 125.875 166.794 125.76ZM144.795 116.54C144.795 116.54 147.926 118.224 150.621 119.617C154.035 121.386 157.612 123.039 156.359 122.509C156.359 122.509 156.01 122.856 155.437 123.576C152.366 122.201 148.83 120.346 146.119 118.868L144.795 116.54ZM129.752 92.6343C132.096 81.3908 140.859 75.0026 151.053 71.4493C165.462 66.4264 182.714 67.1072 188.111 67.4783C188.904 67.6649 190.056 67.912 190.798 68.1241C190.84 68.2291 191.166 68.4306 191.154 68.5505C191.112 68.9514 191.669 69.245 191.267 69.2037C191.267 69.2037 168.86 67.7879 151.533 72.8284C140.776 75.9576 133.339 83.7534 130.866 93.8954C130.484 93.5339 130.11 93.1105 129.752 92.6343Z" fill="#D7441E"/>
<path fill-rule="evenodd" clip-rule="evenodd" d="M183.631 106.229C180.939 105.816 177.525 104.696 173.923 103.231C163.37 98.9431 151.153 91.7668 151.153 91.7668C150.805 91.5627 150.69 91.1147 150.893 90.7673C151.098 90.4198 151.546 90.3034 151.893 90.5076C151.893 90.5076 164.007 97.6258 174.472 101.879C178.249 103.414 183.828 104.819 183.501 104.785L183.631 106.229Z" fill="#8A2208"/>
<path fill-rule="evenodd" clip-rule="evenodd" d="M189.592 66.0024L187.392 60.5293C187.392 60.5293 165.821 68.2427 160.357 50.5295C147.974 55.5298 134.184 59.1851 120.549 61.163C114.849 61.9925 109.225 59.2289 106.399 54.2091C106.393 54.2126 106.393 54.2126 106.393 54.2126C104.002 49.9667 104.766 44.6441 108.254 41.2412C111.76 37.858 117.741 33.4815 127.954 28.4464C127.954 28.4464 138.185 23.0366 144.175 19.8687C146.852 18.4535 150.026 18.3302 152.804 19.5338C158.706 22.0899 168.456 26.314 168.456 26.314L169.595 23.4388C176.366 24.5663 183.018 26.6173 189.541 29.1556C196.468 31.86 201.835 37.5006 204.19 44.5522C207.675 54.9815 213.018 71.1739 217.04 84.2533L200.227 89.3804C196.58 81.7324 192.882 74.1465 189.65 66.012L189.592 66.0024Z" fill="#D7441E"/>
<path fill-rule="evenodd" clip-rule="evenodd" d="M184.263 61.36C183.728 58.6896 183.603 55.887 183.652 53.028C183.654 52.8707 183.768 52.7371 183.923 52.7082C184.077 52.6791 184.231 52.7626 184.291 52.9081C185.716 56.3827 189.207 64.8864 189.207 64.8864H189.153L187.391 60.5027C187.391 60.5027 186.18 60.9353 184.263 61.36ZM138.039 44.0817L120.091 54.1921C119.739 54.3899 119.615 54.8356 119.812 55.1867C120.011 55.5378 120.456 55.6624 120.808 55.4645L138.756 45.3543C139.108 45.1565 139.232 44.7108 139.034 44.3597C138.836 44.0084 138.391 43.884 138.039 44.0817ZM156.577 51.9711C157.256 47.0591 158.871 43.6147 159.996 41.7146C160.067 41.6098 160.206 41.5737 160.321 41.6299C160.435 41.686 160.492 41.8174 160.453 41.9391C159.292 46.113 160.289 50.2373 160.354 50.4906L160.356 50.5028C159.111 51.006 157.85 51.4954 156.577 51.9711Z" fill="#8A2208"/>
<path fill-rule="evenodd" clip-rule="evenodd" d="M128.778 28.0318L144.215 19.8687C146.893 18.4535 150.066 18.3302 152.844 19.5338L168.071 26.1301C168.173 26.1982 168.266 26.2595 168.35 26.314C170.888 27.9773 168.883 29.6218 168.173 29.3871C169.907 30.211 169.848 31.58 169.439 32.1733C168.766 33.1519 166.356 32.7948 166.356 32.7948C167.027 33.0339 167.641 34.3421 167.121 35.3124C166.286 36.8723 164 35.9246 164 35.9246C164.415 38.1 162.166 38.1071 159.422 37.526C157.297 37.0761 156.323 36.5999 154.515 36.1489C151.592 43.9417 142.866 43.0416 142.866 43.0416L137.116 46.3014L128.778 28.0318Z" fill="url(#paint3_linear_323_4739)"/>
<path fill-rule="evenodd" clip-rule="evenodd" d="M164.055 35.9574L154.283 32.1641C153.982 32.0474 153.833 31.7086 153.95 31.408C154.067 31.1075 154.406 30.9582 154.706 31.0749L166.799 35.7694C165.803 36.6404 164.046 35.9121 164.046 35.9121C164.049 35.9275 164.052 35.9425 164.055 35.9574ZM166.549 32.8529L155.44 28.5398C155.139 28.4231 154.99 28.0844 155.107 27.7839C155.223 27.4833 155.562 27.3341 155.863 27.4506L168.597 32.3943C168.714 32.4396 168.807 32.5183 168.872 32.6154C167.908 33.0055 166.402 32.7823 166.402 32.7823C166.452 32.8001 166.501 32.8238 166.549 32.8529ZM168.337 29.3959L156.772 24.906C156.471 24.7893 156.32 24.4505 156.437 24.1499C156.554 23.8494 156.893 23.7001 157.194 23.8168L169.503 28.5953C169.247 29.0989 168.696 29.4173 168.337 29.3959Z" fill="#D7441E"/>
<path fill-rule="evenodd" clip-rule="evenodd" d="M133.268 197.538C132.442 196.982 131.896 196.037 131.896 194.966V188.772C131.896 187.063 133.283 185.676 134.993 185.676H182.022C183.73 185.676 185.118 187.063 185.118 188.772V194.966C185.118 196.037 184.573 196.982 183.745 197.538C184.573 198.094 185.118 199.039 185.118 200.11V206.304C185.118 208.014 183.73 209.401 182.022 209.401H134.993C133.283 209.401 131.896 208.014 131.896 206.304V200.11C131.896 199.039 132.442 198.094 133.268 197.538Z" fill="#FFDBA3"/>
<path fill-rule="evenodd" clip-rule="evenodd" d="M171.059 196.283H184.821C184.582 196.793 184.206 197.227 183.742 197.538C183.837 197.602 183.927 197.671 184.015 197.744H179.556V209.401H178.096V197.744H165.888V209.401H164.427V197.744H162.564V209.401H161.103V197.744H142.246V209.401H140.785V197.744H132.994C133.08 197.671 133.17 197.602 133.265 197.538C132.802 197.227 132.427 196.793 132.188 196.283H149.282V185.676H150.743V196.283H152.606V185.676H154.067V196.283H169.599V185.676H171.059V196.283Z" fill="#FDA425"/>
<defs>
<linearGradient id="paint0_linear_323_4739" x1="48.6755" y1="147.94" x2="48.3792" y2="231.418" gradientUnits="userSpaceOnUse">
<stop stop-color="#A8CFCC"/>
<stop offset="1" stop-color="#59A09B"/>
</linearGradient>
<linearGradient id="paint1_linear_323_4739" x1="58.2626" y1="82.4543" x2="62.1199" y2="156.565" gradientUnits="userSpaceOnUse">
<stop stop-color="#82B5B2"/>
<stop offset="0.45" stop-color="#A7C6C1"/>
<stop offset="1" stop-color="#FFF0E6"/>
</linearGradient>
<linearGradient id="paint2_linear_323_4739" x1="195.014" y1="97.6926" x2="112.631" y2="24.6908" gradientUnits="userSpaceOnUse">
<stop stop-color="#E86135"/>
<stop offset="0.48" stop-color="#EE734F"/>
<stop offset="1" stop-color="#FFA396"/>
</linearGradient>
<linearGradient id="paint3_linear_323_4739" x1="149.234" y1="34.928" x2="155.144" y2="-3.87768" gradientUnits="userSpaceOnUse">
<stop stop-color="#E86135"/>
<stop offset="1" stop-color="#FFA396"/>
</linearGradient>
</defs>
</svg>