<svg width="258" height="61" viewBox="0 0 258 61" fill="none" xmlns="http://www.w3.org/2000/svg">
<rect width="258" height="61" rx="2" fill="#14234E"/>
<path d="M57.992 38H54.584V21.992H65.912V24.992H57.992V28.376H65.744V31.376H57.992V38ZM69.7349 25.16C68.7509 25.16 67.9109 24.344 67.9109 23.336C67.9109 22.328 68.7509 21.536 69.7349 21.536C70.7429 21.536 71.5589 22.328 71.5589 23.336C71.5589 24.344 70.7429 25.16 69.7349 25.16ZM71.2709 38H68.2229V26.408H71.2709V38ZM85.1653 38H82.1173V30.992C82.1173 29.384 81.2773 28.832 79.9813 28.832C78.7812 28.832 77.8453 29.504 77.3413 30.2V38H74.2933V26.408H77.3413V27.92C78.0853 27.032 79.5013 26.12 81.3973 26.12C83.9413 26.12 85.1653 27.56 85.1653 29.816V38ZM98.1997 38H95.1517V36.8C94.3597 37.736 92.9917 38.288 91.4797 38.288C89.6317 38.288 87.4477 37.04 87.4477 34.448C87.4477 31.736 89.6317 30.704 91.4797 30.704C93.0157 30.704 94.3837 31.208 95.1517 32.12V30.56C95.1517 29.384 94.1437 28.616 92.6077 28.616C91.3597 28.616 90.2077 29.072 89.2237 29.984L88.0717 27.944C89.4877 26.696 91.3117 26.12 93.1357 26.12C95.7757 26.12 98.1997 27.176 98.1997 30.512V38ZM92.7037 36.224C93.6877 36.224 94.6477 35.888 95.1517 35.216V33.776C94.6477 33.104 93.6877 32.768 92.7037 32.768C91.5037 32.768 90.5197 33.392 90.5197 34.52C90.5197 35.6 91.5037 36.224 92.7037 36.224ZM112.095 38H109.047V30.992C109.047 29.384 108.207 28.832 106.911 28.832C105.711 28.832 104.775 29.504 104.271 30.2V38H101.223V26.408H104.271V27.92C105.015 27.032 106.431 26.12 108.327 26.12C110.871 26.12 112.095 27.56 112.095 29.816V38ZM120.521 38.288C116.945 38.288 114.377 35.768 114.377 32.192C114.377 28.64 116.945 26.12 120.521 26.12C122.897 26.12 124.337 27.152 125.105 28.208L123.113 30.08C122.561 29.264 121.721 28.832 120.665 28.832C118.817 28.832 117.521 30.176 117.521 32.192C117.521 34.208 118.817 35.576 120.665 35.576C121.721 35.576 122.561 35.096 123.113 34.328L125.105 36.176C124.337 37.256 122.897 38.288 120.521 38.288ZM132.546 38.288C129.018 38.288 126.354 35.912 126.354 32.192C126.354 28.832 128.826 26.12 132.354 26.12C135.81 26.12 138.162 28.712 138.162 32.504V33.176H129.546C129.738 34.64 130.914 35.864 132.882 35.864C133.866 35.864 135.234 35.432 135.978 34.712L137.322 36.68C136.17 37.736 134.346 38.288 132.546 38.288ZM135.21 31.112C135.138 30.008 134.37 28.544 132.354 28.544C130.458 28.544 129.642 29.96 129.498 31.112H135.21ZM157.376 38H154.328V30.992C154.328 29.384 153.488 28.832 152.192 28.832C150.992 28.832 150.056 29.504 149.552 30.2V38H146.504V26.408H149.552V27.92C150.296 27.032 151.712 26.12 153.608 26.12C156.152 26.12 157.376 27.56 157.376 29.816V38ZM165.851 38.288C162.323 38.288 159.659 35.912 159.659 32.192C159.659 28.832 162.131 26.12 165.659 26.12C169.115 26.12 171.467 28.712 171.467 32.504V33.176H162.851C163.043 34.64 164.219 35.864 166.187 35.864C167.171 35.864 168.539 35.432 169.283 34.712L170.627 36.68C169.475 37.736 167.651 38.288 165.851 38.288ZM168.515 31.112C168.443 30.008 167.675 28.544 165.659 28.544C163.763 28.544 162.947 29.96 162.803 31.112H168.515ZM177.556 38.288C175.42 38.288 174.268 37.184 174.268 35.12V29.072H172.348V26.408H174.268V23.24H177.34V26.408H179.692V29.072H177.34V34.304C177.34 35.024 177.724 35.576 178.396 35.576C178.852 35.576 179.284 35.408 179.452 35.24L180.1 37.544C179.644 37.952 178.828 38.288 177.556 38.288ZM195.194 38H191.954L189.506 30.104L187.058 38H183.794L180.266 26.408H183.434L185.594 34.208L188.138 26.408H190.85L193.394 34.208L195.554 26.408H198.722L195.194 38ZM205.599 38.288C201.783 38.288 199.479 35.504 199.479 32.192C199.479 28.904 201.783 26.12 205.599 26.12C209.439 26.12 211.743 28.904 211.743 32.192C211.743 35.504 209.439 38.288 205.599 38.288ZM205.599 35.576C207.495 35.576 208.575 34.016 208.575 32.192C208.575 30.392 207.495 28.832 205.599 28.832C203.703 28.832 202.647 30.392 202.647 32.192C202.647 34.016 203.703 35.576 205.599 35.576ZM217.052 38H214.004V26.408H217.052V27.992C217.868 26.96 219.308 26.12 220.748 26.12V29.096C220.532 29.048 220.244 29.024 219.908 29.024C218.9 29.024 217.556 29.6 217.052 30.344V38ZM233.981 38H230.165L227.093 33.536L225.701 35.024V38H222.653V21.992H225.701V31.568L230.093 26.408H233.837L229.253 31.664L233.981 38ZM237.056 38.264C236 38.264 235.112 37.376 235.112 36.32C235.112 35.264 236 34.376 237.056 34.376C238.112 34.376 239 35.264 239 36.32C239 37.376 238.112 38.264 237.056 38.264Z" fill="white"/>
<path d="M21.9299 20.8968C22.4404 20.3125 22.9973 19.7702 23.5948 19.2756M18.7436 27.1305C19.104 25.5634 19.7193 24.0942 20.5432 22.7695M23.5052 41.4134C20.3701 38.7752 18.3763 34.8125 18.3763 30.3819C18.3763 30.2136 18.3792 30.046 18.3849 29.8791M39.6233 42.9655C37.5689 44.1113 35.2043 44.7638 32.6881 44.7638C30.1805 44.7638 27.8235 44.1157 25.774 42.9771M44.8238 22.7546C46.2027 24.9655 47 27.5801 47 30.3819C47 34.8061 45.0121 38.7637 41.8848 41.4019M41.6547 19.1718C42.1843 19.6001 42.683 20.0656 43.1467 20.5643M25.8634 17.7373C27.892 16.6294 30.217 16 32.6882 16C35.096 16 37.3649 16.5975 39.3562 17.653M33.8867 21.0276C35.4987 20.0244 37.2744 19.236 39.1827 18.7097M28.0223 26.5732C29.0534 25.1098 30.2767 23.7814 31.6647 22.6298M24.4432 40.8135C23.928 36.6014 24.7425 32.4901 26.5824 28.9422M31.4896 21.0276C29.8231 19.9905 27.9817 19.1829 25.9996 18.6572M39.3208 30.0366C38.0477 27.1786 36.1295 24.6361 33.7118 22.6299M40.8666 35.3501C40.7307 34.4311 40.5316 33.5216 40.2717 32.6297M40.9246 40.882C41.0443 39.9284 41.0976 38.9668 41.0826 38.0058M25.9557 27.4695C23.894 27.459 21.8011 27.6802 19.7096 28.1522M38.6485 30.6389C35.5791 29.0297 32.2068 27.991 28.6986 27.6209M45.8448 36.0514C44.3876 34.5297 42.7678 33.1843 41.022 32.0366M40.5368 30.116C41.8868 27.9428 42.9513 25.5613 43.6722 23.0193M25.9557 41.7665C31.1299 39.9821 35.6577 36.6966 38.9718 32.3781M32.6882 23.0893C31.9292 23.0893 31.3118 22.4689 31.3118 21.7063C31.3118 20.9436 31.9292 20.3232 32.6882 20.3232C33.4471 20.3232 34.0645 20.9436 34.0645 21.7063C34.0645 22.4689 33.4471 23.0893 32.6882 23.0893ZM27.332 29.1662C26.5731 29.1662 25.9557 28.5457 25.9557 27.7831C25.9557 27.0205 26.5731 26.4 27.332 26.4C28.091 26.4 28.7084 27.0205 28.7084 27.7831C28.7084 28.5457 28.091 29.1662 27.332 29.1662ZM39.8494 32.6966C39.0904 32.6966 38.473 32.0761 38.473 31.3135C38.473 30.5509 39.0904 29.9304 39.8494 29.9304C40.6083 29.9304 41.2257 30.5509 41.2257 31.3135C41.2257 32.0761 40.6083 32.6966 39.8494 32.6966ZM24.6495 43.564C23.8906 43.564 23.2732 42.9436 23.2732 42.1809C23.2732 41.4183 23.8906 40.7979 24.6495 40.7979C25.4085 40.7979 26.0259 41.4183 26.0259 42.1809C26.0259 42.9436 25.4085 43.564 24.6495 43.564ZM40.8063 43.6427C40.0474 43.6427 39.43 43.0222 39.43 42.2596C39.43 41.497 40.0474 40.8765 40.8063 40.8765C41.5652 40.8765 42.1827 41.497 42.1827 42.2596C42.1827 43.0222 41.5652 43.6427 40.8063 43.6427ZM44.0153 23.0193C43.2563 23.0193 42.6389 22.3988 42.6389 21.6362C42.6389 20.8736 43.2563 20.2531 44.0153 20.2531C44.7742 20.2531 45.3916 20.8736 45.3916 21.6362C45.3916 22.3988 44.7742 23.0193 44.0153 23.0193ZM40.5212 19.7714C39.7623 19.7714 39.1449 19.151 39.1449 18.3884C39.1449 17.6257 39.7623 17.0053 40.5212 17.0053C41.2801 17.0053 41.8976 17.6257 41.8976 18.3884C41.8976 19.151 41.2801 19.7714 40.5212 19.7714ZM24.6495 19.7714C23.8906 19.7714 23.2732 19.151 23.2732 18.3884C23.2732 17.6257 23.8906 17.0053 24.6495 17.0053C25.4085 17.0053 26.0259 17.6257 26.0259 18.3884C26.0259 19.151 25.4085 19.7714 24.6495 19.7714ZM18.3763 29.8788C17.6174 29.8788 17 29.2584 17 28.4957C17 27.7331 17.6174 27.1127 18.3763 27.1127C19.1353 27.1127 19.7526 27.7331 19.7526 28.4957C19.7526 29.2584 19.1353 29.8788 18.3763 29.8788Z" stroke="white" stroke-width="0.91" stroke-miterlimit="10" stroke-linecap="round" stroke-linejoin="round"/>
</svg>