<svg width="12" height="12" viewBox="0 0 12 12" fill="none" xmlns="http://www.w3.org/2000/svg">
<path d="M5.42931 2.356C5.60892 1.80321 6.39096 1.80321 6.57058 2.356L7.21232 4.33107C7.29264 4.57829 7.52302 4.74566 7.78295 4.74566H9.85967C10.4409 4.74566 10.6826 5.48943 10.2123 5.83107L8.53224 7.05174C8.32195 7.20453 8.23395 7.47535 8.31428 7.72256L8.95602 9.69764C9.13563 10.2504 8.50294 10.7101 8.03272 10.3685L6.35261 9.14779C6.14232 8.99501 5.85756 8.99501 5.64727 9.14779L3.96717 10.3685C3.49694 10.7101 2.86425 10.2504 3.04386 9.69764L3.68561 7.72256C3.76593 7.47535 3.67794 7.20453 3.46764 7.05174L1.78754 5.83107C1.31731 5.48943 1.55898 4.74566 2.14021 4.74566H4.21693C4.47687 4.74566 4.70724 4.57829 4.78757 4.33107L5.42931 2.356Z" fill="#EFBC21"/>
</svg>
