<svg width="12" height="12" viewBox="0 0 12 12" fill="none" xmlns="http://www.w3.org/2000/svg">
<path fill-rule="evenodd" clip-rule="evenodd" d="M1.7998 2.9999C1.7998 2.66853 2.06843 2.3999 2.3998 2.3999H9.5998C9.93118 2.3999 10.1998 2.66853 10.1998 2.9999C10.1998 3.33127 9.93118 3.5999 9.5998 3.5999H2.3998C2.06843 3.5999 1.7998 3.33127 1.7998 2.9999Z" fill="#2B313B"/>
<path fill-rule="evenodd" clip-rule="evenodd" d="M1.7998 5.9999C1.7998 5.66853 2.06843 5.3999 2.3998 5.3999H9.5998C9.93118 5.3999 10.1998 5.66853 10.1998 5.9999C10.1998 6.33127 9.93118 6.5999 9.5998 6.5999H2.3998C2.06843 6.5999 1.7998 6.33127 1.7998 5.9999Z" fill="#2B313B"/>
<path fill-rule="evenodd" clip-rule="evenodd" d="M1.7998 8.9999C1.7998 8.66853 2.06843 8.3999 2.3998 8.3999H5.9998C6.33118 8.3999 6.5998 8.66853 6.5998 8.9999C6.5998 9.33127 6.33118 9.5999 5.9998 9.5999H2.3998C2.06843 9.5999 1.7998 9.33127 1.7998 8.9999Z" fill="#2B313B"/>
</svg>
