<svg width="583" height="343" viewBox="0 0 583 343" fill="none" xmlns="http://www.w3.org/2000/svg">
<g clip-path="url(#clip0_36_4497)">
<path d="M214.819 297.605L257.019 281.905C258.619 281.305 259.719 279.705 259.719 278.005L175.919 272.005L188.819 295.205L210.619 298.105C212.019 298.305 213.519 298.105 214.819 297.605Z" fill="#2B313B"/>
<path d="M108.619 282.305L101.019 223.005C100.819 221.305 102.219 219.905 103.819 220.005L205.219 227.205C206.719 227.305 207.919 228.505 208.019 230.005L214.019 295.305C214.219 297.005 212.719 298.405 211.019 298.205L111.219 285.005C109.819 284.705 108.719 283.605 108.619 282.305Z" fill="#6C7A93"/>
<path d="M259.719 278.105C259.719 279.905 258.619 281.405 257.019 282.005L214.819 297.705C213.819 298.105 212.619 298.305 211.519 298.205C209.919 297.005 208.919 295.105 208.919 295.105L259.719 278.105Z" fill="#6C7A93"/>
<path d="M157.064 262.62C159.729 260.651 160.029 256.535 157.732 253.425C155.436 250.315 151.413 249.39 148.748 251.358C146.082 253.326 145.783 257.443 148.079 260.553C150.376 263.663 154.398 264.588 157.064 262.62Z" fill="#F5F8FF"/>
<path d="M423 39H392.4L389.3 41C388.3 41.7 387 40.9 387 39.7V18C387 15.8 388.8 14 391 14H423.1C425.3 14 427.1 15.8 427.1 18V34.9C427 37.2 425.2 39 423 39Z" fill="#F4C2C9"/>
<path d="M406.6 24H417.3" stroke="#2B313B" stroke-width="1.8" stroke-miterlimit="10" stroke-linecap="round" stroke-linejoin="round"/>
<path d="M406.6 29.5H413.1" stroke="#2B313B" stroke-width="1.8" stroke-miterlimit="10" stroke-linecap="round" stroke-linejoin="round"/>
<path d="M401.1 24H395.6V29.5H401.1V24Z" stroke="#2B313B" stroke-width="1.8" stroke-miterlimit="10" stroke-linecap="round" stroke-linejoin="round"/>
<path d="M231.618 179.917L62.618 205.517C58.818 206.117 55.418 203.317 55.118 199.517L45.018 47.3174C44.718 43.1174 48.218 39.6174 52.418 39.9174L221.718 50.7174C224.918 50.9174 227.518 53.4174 227.818 56.6174L237.518 172.517C237.818 176.017 235.218 179.317 231.618 179.917Z" fill="#0052FE"/>
<path d="M236.218 179.717L66.4179 205.417C62.6179 206.018 59.2179 203.217 58.9179 199.417L48.7179 46.5175C48.4179 42.3175 51.9179 38.7175 56.2179 39.0175L226.218 49.8175C229.418 50.0175 232.018 52.5175 232.318 55.8175L242.118 172.217C242.518 175.917 239.918 179.217 236.218 179.717Z" fill="#C0D4FE"/>
<path d="M125.518 127.317L77.7179 129.917C76.2179 130.017 74.9179 128.817 74.8179 127.317L72.0179 86.9175C71.9179 85.3175 73.2179 83.9175 74.8179 83.9175L122.618 84.2175C124.118 84.2175 125.318 85.3175 125.418 86.8175L128.218 124.317C128.318 125.917 127.118 127.217 125.518 127.317Z" fill="#FEF6CB"/>
<path d="M176.918 111.718L136.918 113.118C135.418 113.218 134.118 112.018 134.018 110.518L132.318 87.2175C132.218 85.6175 133.518 84.2175 135.118 84.2175L175.118 84.5175C176.518 84.5175 177.718 85.6175 177.918 87.1175L179.618 108.718C179.718 110.318 178.518 111.718 176.918 111.718Z" fill="#5D91FD"/>
<path d="M222.218 110.218L188.518 111.418C187.018 111.518 185.718 110.318 185.618 108.818L183.918 87.7175C183.818 86.1175 185.118 84.7175 186.718 84.7175L220.418 84.9175C221.818 84.9175 223.018 86.0175 223.218 87.5175L224.818 107.218C225.018 108.718 223.818 110.118 222.218 110.218Z" fill="#F4C2C9"/>
<path d="M128.518 166.518L80.7181 171.718C79.1181 171.918 77.7181 170.718 77.6181 169.118L75.8181 143.018C75.7181 141.518 76.9181 140.118 78.4181 140.018L126.318 136.818C127.818 136.718 129.218 137.818 129.318 139.418L131.118 163.518C131.118 165.018 130.018 166.318 128.518 166.518Z" stroke="#2B313B" stroke-width="1.8" stroke-miterlimit="10" stroke-linecap="round" stroke-linejoin="round"/>
<path d="M181.418 165.517L141.518 170.217C139.918 170.417 138.518 169.217 138.418 167.617L135.218 124.517C135.118 122.917 136.318 121.617 137.818 121.517L177.818 119.617C179.318 119.517 180.618 120.717 180.718 122.217L183.918 162.517C184.018 164.017 182.918 165.317 181.418 165.517Z" fill="#F4C2C9"/>
<path d="M173.118 127.117L144.418 128.817C143.718 128.817 143.218 129.417 143.318 130.117L144.618 147.917C144.718 148.617 145.218 149.117 145.918 149.017L174.618 146.517C175.318 146.417 175.818 145.917 175.718 145.217L174.418 128.217C174.318 127.617 173.718 127.117 173.118 127.117Z" fill="#FEF6CB"/>
<path d="M226.218 155.617L192.518 159.317C190.918 159.517 189.518 158.317 189.418 156.717L186.718 122.017C186.618 120.417 187.818 119.117 189.318 119.017L223.018 117.417C224.518 117.317 225.818 118.517 225.918 120.017L228.618 152.617C228.818 154.117 227.718 155.417 226.218 155.617Z" fill="#5D91FD"/>
<path d="M104.118 150.018L104.718 157.418" stroke="#2B313B" stroke-width="1.8" stroke-miterlimit="10" stroke-linecap="round" stroke-linejoin="round"/>
<path d="M100.918 154.017L107.918 153.417" stroke="#2B313B" stroke-width="1.8" stroke-miterlimit="10" stroke-linecap="round" stroke-linejoin="round"/>
<path d="M152.018 158.217C151.818 156.217 150.318 154.617 148.518 154.817C146.718 155.017 145.318 156.817 145.518 158.917C145.718 161.017 147.318 162.517 149.118 162.317C150.818 162.017 152.118 160.217 152.018 158.217Z" fill="#2B313B"/>
<path d="M157.818 157.618L176.518 155.718" stroke="#2B313B" stroke-width="1.8" stroke-miterlimit="10" stroke-linecap="round" stroke-linejoin="round"/>
<path d="M199.418 128.417C199.218 126.517 197.918 125.117 196.318 125.117C194.718 125.217 193.618 126.817 193.718 128.717C193.918 130.617 195.218 132.117 196.818 132.017C198.518 131.917 199.618 130.317 199.418 128.417Z" fill="#FEF6CB"/>
<path d="M204.518 128.117L220.618 127.117" stroke="#2B313B" stroke-width="1.8" stroke-miterlimit="10" stroke-linecap="round" stroke-linejoin="round"/>
<path d="M200.318 139.117C200.118 137.217 198.818 135.817 197.218 135.917C195.618 136.017 194.518 137.717 194.618 139.617C194.818 141.517 196.218 143.017 197.718 142.817C199.318 142.617 200.518 141.017 200.318 139.117Z" fill="#FEF6CB"/>
<path d="M205.318 138.717L221.518 137.417" stroke="#2B313B" stroke-width="1.8" stroke-miterlimit="10" stroke-linecap="round" stroke-linejoin="round"/>
<path d="M201.218 149.818C201.018 147.918 199.718 146.518 198.118 146.618C196.518 146.718 195.418 148.418 195.518 150.318C195.718 152.218 197.118 153.618 198.618 153.518C200.218 153.318 201.318 151.718 201.218 149.818Z" fill="#FEF6CB"/>
<path d="M206.218 149.318L222.318 147.718" stroke="#2B313B" stroke-width="1.8" stroke-miterlimit="10" stroke-linecap="round" stroke-linejoin="round"/>
<path d="M88.7181 100.118L82.2181 100.218C81.6181 100.218 81.1181 99.7177 81.0181 99.1177L80.5181 92.3177C80.5181 91.6177 81.0181 91.1177 81.7181 91.1177H88.2181C88.8181 91.1177 89.3181 91.6177 89.4181 92.2177L89.9181 98.9177C89.8181 99.5177 89.3181 100.118 88.7181 100.118Z" fill="#5D91FD"/>
<path d="M95.718 91.1176L118.218 91.0176" stroke="#2B313B" stroke-width="1.8" stroke-miterlimit="10" stroke-linecap="round" stroke-linejoin="round"/>
<path d="M96.1182 96.9175L118.618 96.7175" stroke="#2B313B" stroke-width="1.8" stroke-miterlimit="10" stroke-linecap="round" stroke-linejoin="round"/>
<path d="M196.618 98.5176L191.518 98.6176C191.218 98.6176 190.918 98.3176 190.818 98.0176L190.318 91.5176C190.318 91.1176 190.618 90.8176 191.018 90.8176H196.118C196.418 90.8176 196.718 91.1176 196.818 91.4176L197.318 97.8176C197.318 98.1176 197.018 98.5176 196.618 98.5176Z" fill="#2B313B"/>
<path d="M201.418 90.7175H218.118" stroke="#2B313B" stroke-width="1.8" stroke-miterlimit="10" stroke-linecap="round" stroke-linejoin="round"/>
<path d="M201.918 95.8174L218.518 95.6174" stroke="#2B313B" stroke-width="1.8" stroke-miterlimit="10" stroke-linecap="round" stroke-linejoin="round"/>
<path d="M191.318 104.117L219.118 103.417" stroke="#2B313B" stroke-width="1.8" stroke-miterlimit="10" stroke-linecap="round" stroke-linejoin="round"/>
<path d="M89.8179 115.617L83.3179 115.817C82.7179 115.817 82.1179 115.317 82.1179 114.717L81.6179 107.917C81.6179 107.217 82.1179 106.717 82.7179 106.717L89.2179 106.517C89.8179 106.517 90.3179 107.017 90.4179 107.617L90.9179 114.317C90.9179 115.017 90.4179 115.617 89.8179 115.617Z" fill="#5D91FD"/>
<path d="M96.8179 106.417L119.318 105.817" stroke="#2B313B" stroke-width="1.8" stroke-miterlimit="10" stroke-linecap="round" stroke-linejoin="round"/>
<path d="M97.218 112.317L119.718 111.617" stroke="#2B313B" stroke-width="1.8" stroke-miterlimit="10" stroke-linecap="round" stroke-linejoin="round"/>
<path d="M106.218 67.2174L72.5181 66.2174C71.4181 66.2174 70.518 65.3174 70.418 64.2174L70.0181 58.9174C69.9181 57.6174 71.0181 56.5174 72.2181 56.6174L105.918 58.0174C107.018 58.0174 107.918 58.9174 108.018 60.0174L108.418 64.9174C108.518 66.1174 107.518 67.2174 106.218 67.2174Z" fill="#FEF6CB"/>
<path d="M140.318 90.9174L172.118 90.8174" stroke="#2B313B" stroke-width="1.8" stroke-miterlimit="10" stroke-linecap="round" stroke-linejoin="round"/>
<path d="M140.718 96.5174L172.518 96.1174" stroke="#2B313B" stroke-width="1.8" stroke-miterlimit="10" stroke-linecap="round" stroke-linejoin="round"/>
<path d="M141.318 105.317L158.418 104.917" stroke="#2B313B" stroke-width="1.8" stroke-miterlimit="10" stroke-linecap="round" stroke-linejoin="round"/>
<path d="M221.218 66.7174C221.118 65.2174 220.018 63.9174 218.718 63.8174C217.518 63.7174 216.518 65.0174 216.718 66.5174C216.818 68.1174 217.918 69.4174 219.218 69.4174C220.418 69.5174 221.318 68.2174 221.218 66.7174Z" fill="#63737A"/>
<path d="M212.318 66.4176C212.218 64.8176 211.018 63.5176 209.818 63.5176C208.518 63.4176 207.618 64.7176 207.718 66.3176C207.818 67.9176 209.018 69.2176 210.318 69.2176C211.518 69.2176 212.418 67.9176 212.318 66.4176Z" fill="#2B313B"/>
<path d="M203.118 66.0176C203.018 64.4176 201.818 63.1176 200.518 63.0176C199.218 62.9176 198.218 64.2176 198.318 65.8176C198.418 67.4176 199.618 68.7176 200.918 68.8176C202.318 68.9176 203.218 67.6176 203.118 66.0176Z" fill="#2B313B"/>
<path d="M268.918 157.1C268.918 157.1 262.718 170 262.218 178.2C261.718 186.4 270.418 219.3 284.618 244.4C284.618 244.4 298.018 240 298.018 235.9C298.018 231.8 290.118 183.3 290.618 181.9C291.118 180.5 296.618 170.2 296.618 165.8C296.618 161.5 271.018 152.3 268.918 157.1Z" fill="#F4C2C9"/>
<path d="M296.618 165.8C296.618 161.4 271.118 152.3 269.018 157.1C269.018 157.1 268.218 158.9 267.118 161.5C275.218 167.8 283.918 173.2 293.818 175C295.218 171.8 296.618 168 296.618 165.8Z" fill="#E26E85"/>
<path d="M295.518 102.3C295.518 102.3 285.518 105.7 277.918 122.9C270.218 140.2 262.218 154.5 262.218 154.5C262.218 154.5 274.718 166.9 290.718 173.2C306.718 179.7 307.318 103.9 295.518 102.3Z" fill="#3B5A9A"/>
<path d="M265.018 149.4C265.018 149.4 282.118 163.4 298.018 169.5" stroke="#2B313B" stroke-width="1.8" stroke-miterlimit="10" stroke-linecap="round" stroke-linejoin="round"/>
<path d="M281.518 218.7C281.518 218.7 279.118 229.6 277.918 244.3C276.718 259 280.918 350.1 281.518 357.2C282.118 364.3 284.418 404.8 287.018 424.5C289.118 440.7 287.618 473.4 292.518 478C297.418 482.6 312.418 485.1 321.718 482.6C331.018 480.1 335.318 475.5 336.418 471.7C337.518 467.9 333.118 439 333.418 424.3C333.718 409.6 333.418 366.2 332.918 355.9C332.918 355.9 337.018 303.3 341.918 291.3C346.818 279.3 353.918 235.1 340.318 222.3C326.518 209.5 282.718 216.6 281.518 218.7Z" fill="#2B313B"/>
<path d="M303.418 224.5C303.418 224.5 303.318 244.3 304.118 259.1C304.418 264.7 304.918 269.6 305.618 272.5C308.118 282.9 313.518 283.7 317.618 286.1C321.718 288.6 336.418 347.4 342.418 362.7C342.418 362.7 347.018 397.9 350.618 418.9C354.118 439.9 353.618 465.3 356.318 474C359.018 482.7 374.818 484.4 382.518 483.7C390.218 483 400.518 480 400.218 471C399.918 462 398.418 436.4 397.118 414.6C395.718 392.8 393.318 360.3 392.718 352.7C392.718 352.7 389.718 316.7 388.118 298.2C386.518 279.7 387.418 260.8 385.018 228.9C382.418 196.9 303.318 206.7 303.418 224.5Z" fill="#2B313B"/>
<path d="M304.118 259.1C304.418 264.7 304.918 269.6 305.618 272.5C308.118 282.9 313.518 283.7 317.618 286.1C321.718 288.6 336.418 347.4 342.418 362.7" stroke="#63737A" stroke-width="1.8" stroke-miterlimit="10" stroke-linecap="round" stroke-linejoin="round"/>
<path d="M317.618 286.1C317.618 286.1 305.918 280.1 300.718 282.3" stroke="#63737A" stroke-width="1.8" stroke-miterlimit="10" stroke-linecap="round" stroke-linejoin="round"/>
<path d="M299.718 371.8C307.008 371.8 312.918 365.308 312.918 357.3C312.918 349.292 307.008 342.8 299.718 342.8C292.428 342.8 286.518 349.292 286.518 357.3C286.518 365.308 292.428 371.8 299.718 371.8Z" stroke="#63737A" stroke-width="1.8" stroke-miterlimit="10" stroke-linecap="round" stroke-linejoin="round"/>
<path d="M368.718 370.9C376.229 370.9 382.318 364.408 382.318 356.4C382.318 348.392 376.229 341.9 368.718 341.9C361.207 341.9 355.118 348.392 355.118 356.4C355.118 364.408 361.207 370.9 368.718 370.9Z" stroke="#63737A" stroke-width="1.8" stroke-miterlimit="10" stroke-linecap="round" stroke-linejoin="round"/>
<path d="M343.918 98.8001C343.918 98.8001 348.918 100.3 359.518 100.5C370.118 100.7 382.218 103.8 386.918 109.7C391.618 115.6 393.118 159.1 392.418 178.8C391.718 198.4 377.618 227.8 377.618 227.8C377.618 227.8 343.918 231.6 316.318 230.3C288.718 228.9 282.118 222.9 280.218 221C278.318 219.1 277.218 214.5 278.318 212.5C279.418 210.6 284.818 195 286.818 180.1C288.718 165.1 284.618 144.4 286.518 126.1C288.418 107.8 295.518 102.4 295.518 102.4C295.518 102.4 304.418 99.4001 319.818 98.9001C335.118 98.2001 343.918 98.8001 343.918 98.8001Z" fill="#5D91FD"/>
<path d="M342.418 151.5C346.008 151.5 348.918 148.59 348.918 145C348.918 141.41 346.008 138.5 342.418 138.5C338.828 138.5 335.918 141.41 335.918 145C335.918 148.59 338.828 151.5 342.418 151.5Z" fill="#FEF6CB"/>
<path d="M320.618 95C317.918 95.1 315.818 96.7 313.918 98.6C312.718 99.8 311.618 101.4 311.118 103.5C307.318 121.9 313.118 144.1 320.518 143.9C329.818 143.6 342.318 126.7 352.118 107.5C356.118 99.6 348.418 94.1 343.918 94.1C340.418 94 326.218 94.7 320.618 95Z" fill="#3B5A9A"/>
<path d="M363.318 56.1C363.318 56.1 363.318 64.2 358.618 72.2C353.918 80.2 348.218 84.4 346.318 88C344.418 91.6 344.918 82.2 346.318 77.7C347.718 73.3 356.018 49.2 363.318 56.1Z" fill="#2B313B"/>
<path d="M318.518 86.5001C318.518 86.5001 317.418 96.2001 316.718 99.9001C316.018 103.6 314.418 113.3 326.818 113.9C337.918 114.5 343.918 105.9 346.118 101.7C346.818 100.4 347.118 99.0001 347.018 97.6001C346.718 93.2001 346.118 82.4001 346.418 73.6001C346.818 62.4001 318.518 78.6001 318.518 86.5001Z" fill="#F4C2C9"/>
<path d="M340.518 87.2C334.618 91.9 325.918 94.0999 317.718 92.8999C317.418 95.4999 317.018 98.2999 316.718 99.8999C316.618 100.4 316.518 101 316.418 101.7C326.518 102.2 338.018 97.2 340.518 87.2Z" fill="#E26E85"/>
<path d="M306.718 50.5002C306.718 50.5002 304.018 54.4002 304.418 57.4002C304.818 60.4002 310.518 70.5002 313.418 70.2002C316.318 69.9002 319.318 57.5002 315.918 53.4002C312.418 49.3002 307.818 48.6002 306.718 50.5002Z" fill="#2B313B"/>
<path d="M309.018 56.2C309.018 56.2 309.318 63.2 308.018 71.2C306.718 79.2 305.818 91.2 317.718 94.5C329.618 97.8 343.618 93.3 348.018 76.9C352.418 60.5 355.618 43.9 340.418 39.1C325.218 34.3 307.218 40.5 309.018 56.2Z" fill="#F4C2C9"/>
<path d="M314.118 64.2C314.418 65.3 314.318 66.5999 313.918 67.7999C313.718 68.3999 313.418 68.8999 313.018 69.3999C312.818 69.6999 312.618 69.8999 312.418 70.0999C312.318 70.1999 312.218 70.4 312.118 70.5C312.018 70.8 312.018 71.0999 312.118 71.3999C312.218 71.7999 312.518 72.1999 312.818 72.5999C313.418 73.3999 314.318 74.1 315.218 74.7C314.018 74.8 312.818 74.3999 311.818 73.5999C311.318 73.1999 310.818 72.7 310.518 72C310.218 71.3 310.118 70.4 310.518 69.7C310.718 69.3 310.918 68.9999 311.218 68.7999C311.418 68.5999 311.618 68.4999 311.718 68.2999C312.018 67.8999 312.418 67.4999 312.618 67.0999C313.218 66.1999 313.718 65.3 314.118 64.2Z" fill="#2B313B"/>
<path d="M347.418 68.8001C347.418 68.8001 345.918 66.5001 345.218 61.9001C344.618 57.3001 339.718 57.6001 337.418 49.1001C335.118 40.6001 329.518 51.1001 320.618 54.9001C311.718 58.7001 304.718 52.6001 301.118 45.8001C297.618 39.1001 303.618 33.0001 307.718 30.2001C311.818 27.4001 316.118 31.9001 324.118 29.9001C332.118 27.9001 345.018 25.4001 351.218 34.4001C357.418 43.4001 363.818 45.6001 363.418 55.4001C362.918 65.2001 351.518 76.1001 350.818 76.2001C350.018 76.4001 347.418 68.8001 347.418 68.8001Z" fill="#2B313B"/>
<path d="M326.318 59.4001C326.018 58.6001 325.718 57.1001 326.818 56.3001C327.918 55.5001 330.418 55.8001 332.818 57.3001C334.918 58.6001 335.518 60.7001 334.118 60.5001C332.718 60.3001 331.618 59.7001 329.918 59.6001C328.118 59.5001 326.618 60.1001 326.318 59.4001Z" fill="#2B313B"/>
<path d="M314.318 58.3001C314.518 57.6001 314.718 56.3001 314.018 55.4001C313.418 54.6001 311.818 54.7001 310.318 55.8001C309.018 56.8001 308.618 58.7001 309.518 58.6001C310.418 58.5001 311.018 58.1001 312.118 58.2001C313.218 58.3001 314.118 58.9001 314.318 58.3001Z" fill="#2B313B"/>
<path d="M307.418 76.3C307.418 76.3 307.318 77.5 309.018 77.8C310.718 78 310.918 75.5 313.818 75.1C315.618 74.9 321.918 75.4 324.518 77.8C327.118 80.2 330.718 83 335.918 81.4C341.118 79.8 344.218 72.5 345.218 61.9C346.118 52.2 349.718 61.6 349.718 63.9C349.718 65.5 348.218 63.2 346.418 69.7C345.618 72.6 346.418 80.8 343.318 86.8C340.918 91.4 334.218 96.1 325.718 96.7C317.218 97.3 310.218 93.8 308.118 88.2C306.018 82.8 306.818 76.7 307.418 76.3Z" fill="#2B313B"/>
<path d="M311.518 65.8C312.318 65.9 313.018 65.3 313.118 64.5L313.218 63.7C313.318 62.9 312.718 62.2 311.918 62.1C311.118 62 310.418 62.6 310.318 63.4L310.218 64.2C310.118 65 310.718 65.7 311.518 65.8Z" fill="#2B313B"/>
<path d="M327.418 66.8C328.218 66.9 328.918 66.3 329.018 65.5L329.118 64.7C329.218 63.9 328.618 63.2 327.818 63.1C327.018 63 326.318 63.6 326.218 64.4L326.118 65.2C326.018 66.1 326.618 66.8 327.418 66.8Z" fill="#2B313B"/>
<path d="M346.318 69.7001C346.318 69.7001 349.018 63.7001 353.718 64.4001C358.518 65.2001 356.118 77.8001 347.418 77.7001" fill="#F4C2C9"/>
<path d="M353.418 68.9C353.118 68.6 352.818 68.3 352.618 68.2C352.318 68.1 352.418 68.3 352.218 68.4C352.218 68.5 352.018 69.3 351.918 70C351.818 70.7 351.618 71.5 351.218 72.2C351.018 72.6 350.818 73 350.418 73.3C350.018 73.6 349.518 73.7 349.118 73.5C349.518 73.3 349.618 73 349.718 72.7C349.818 72.4 349.818 72.1 349.918 71.8C350.018 71.1 350.018 70.4 350.218 69.6C350.318 69.2 350.418 68.8 350.518 68.4C350.618 68.2 350.718 68 350.818 67.8C350.918 67.7 350.918 67.6 351.118 67.5C351.218 67.4 351.418 67.3 351.518 67.2C351.718 67.1 352.018 67 352.418 67C352.818 67.1 353.018 67.3 353.218 67.5C353.518 68 353.518 68.5 353.418 68.9Z" fill="#2B313B"/>
<path d="M318.518 81.9001C318.518 81.9001 321.218 83.1001 323.918 82.6001" stroke="#F4C2C9" stroke-width="1.8" stroke-miterlimit="10" stroke-linecap="round" stroke-linejoin="round"/>
<path d="M313.691 62.9246C314.169 57.9214 311.882 53.6102 308.583 53.2953C305.284 52.9804 302.223 56.7811 301.745 61.7842C301.268 66.7874 303.555 71.0985 306.853 71.4134C310.152 71.7284 313.214 67.9278 313.691 62.9246Z" stroke="#2B313B" stroke-width="1.8" stroke-miterlimit="10" stroke-linecap="round" stroke-linejoin="round"/>
<path d="M335.929 64.8722C336.406 59.8691 333.362 55.4855 329.128 55.0814C324.895 54.6773 321.076 58.4056 320.598 63.4087C320.121 68.4119 323.165 72.7954 327.399 73.1995C331.632 73.6036 335.451 69.8754 335.929 64.8722Z" stroke="#2B313B" stroke-width="1.8" stroke-miterlimit="10" stroke-linecap="round" stroke-linejoin="round"/>
<path d="M313.418 64.4C313.418 64.4 315.118 61.2 320.518 65" stroke="#2B313B" stroke-width="1.8" stroke-miterlimit="10" stroke-linecap="round" stroke-linejoin="round"/>
<path d="M335.818 64.9001L347.118 67.3001" stroke="#2B313B" stroke-width="1.8" stroke-miterlimit="10" stroke-linecap="round" stroke-linejoin="round"/>
<path d="M379.118 175.3L384.418 186C384.418 186 378.818 193.6 372.818 208C366.818 222.4 362.418 240.2 358.318 245.3C358.318 245.3 362.318 254.9 372.118 259.1C372.118 259.1 391.218 231.1 399.918 218.9C408.618 206.7 416.918 191.1 416.318 183.3C415.418 171.8 406.718 154.8 405.918 150.2C405.118 145.6 379.318 162 379.118 175.3Z" fill="#F4C2C9"/>
<path d="M405.818 150.2C405.118 145.7 379.318 162 379.118 175.3L379.918 176.8C389.018 169.9 399.218 165.2 410.118 161.9C408.018 156.7 406.118 152.2 405.818 150.2Z" fill="#E26E85"/>
<path d="M363.318 234.9C364.718 237.3 369.518 243.7 380.718 246.3C381.118 246.4 381.218 246.8 381.018 247.1L375.918 254C375.818 254.2 375.518 254.2 375.318 254.2C362.818 250.4 359.518 244.1 359.018 242.9C358.918 242.8 358.918 242.6 359.018 242.5L362.418 235C362.618 234.5 363.118 234.5 363.318 234.9Z" fill="#2B313B"/>
<path d="M370.392 247.039C371.77 244.774 371.127 241.867 368.956 240.547C366.785 239.227 363.909 239.993 362.532 242.258C361.154 244.523 361.797 247.429 363.968 248.75C366.138 250.07 369.015 249.304 370.392 247.039Z" fill="white"/>
<path d="M382.018 108.9C384.418 108.5 386.818 109.4 388.318 111.3C390.618 114.2 394.418 119.8 399.118 129.4C407.018 145.5 412.518 156.1 412.518 156.1C412.518 156.1 385.118 170.9 379.118 175.3C379.118 175.3 368.018 156.6 364.418 148.8C360.918 141.4 361.918 112.6 382.018 108.9Z" fill="#3B5A9A"/>
<path d="M375.718 169.5C375.718 169.5 390.718 158.3 409.418 150.1" stroke="#2B313B" stroke-width="1.8" stroke-miterlimit="10" stroke-linecap="round" stroke-linejoin="round"/>
<path d="M354.418 238.7C354.418 238.7 359.118 256.2 378.418 262.3" stroke="#63737A" stroke-width="1.8" stroke-miterlimit="10" stroke-linecap="round" stroke-linejoin="round"/>
<path d="M384.418 186C384.418 186 387.018 182.6 392.618 181.3" stroke="#E26E85" stroke-width="1.8" stroke-miterlimit="10" stroke-linecap="round" stroke-linejoin="round"/>
<path d="M532.618 211L444.118 200.1C441.218 199.7 439.218 197.2 439.518 194.3L448.918 106.5C449.318 103.1 451.918 100.4 455.318 99.8999L546.918 87.4999C550.318 86.9999 553.318 89.8999 552.918 93.3999L539.318 205.9C538.918 209.1 535.918 211.4 532.618 211Z" fill="#0052FE"/>
<path d="M529.618 210.7L441.118 199.7C438.218 199.3 436.218 196.8 436.518 193.9L445.918 106.1C446.318 102.7 448.918 100 452.318 99.5L543.918 87.1C547.318 86.6 550.318 89.5 549.918 93L536.318 205.5C535.918 208.7 532.918 211.1 529.618 210.7Z" fill="#C0D4FE"/>
<path d="M526.318 129.1L457.018 132.6C455.818 132.7 454.818 131.6 455.018 130.5L456.718 115C456.818 114.1 457.518 113.4 458.418 113.3L528.318 106.4C529.518 106.3 530.618 107.3 530.418 108.6L528.118 127.6C528.118 128.3 527.318 129 526.318 129.1Z" fill="#FEF6CB"/>
<path d="M474.718 118.7L520.618 115" stroke="#2B313B" stroke-width="1.8" stroke-miterlimit="10" stroke-linecap="round" stroke-linejoin="round"/>
<path d="M474.118 124.6L498.818 122.9" stroke="#2B313B" stroke-width="1.8" stroke-miterlimit="10" stroke-linecap="round" stroke-linejoin="round"/>
<path d="M466.756 123.575C467.647 121.923 467.267 119.988 465.906 119.254C464.545 118.52 462.719 119.264 461.827 120.917C460.936 122.569 461.317 124.504 462.678 125.238C464.039 125.972 465.865 125.228 466.756 123.575Z" fill="#2B313B"/>
<path d="M522.418 160.8L453.918 159.6C452.818 159.6 451.918 158.6 452.018 157.5L453.718 142.1C453.818 141.1 454.618 140.4 455.618 140.4L524.618 138.2C525.818 138.2 526.718 139.2 526.618 140.4L524.418 159.2C524.318 160 523.418 160.8 522.418 160.8Z" fill="#F4C2C9"/>
<path d="M471.618 146.9L517.018 146.3" stroke="#2B313B" stroke-width="1.8" stroke-miterlimit="10" stroke-linecap="round" stroke-linejoin="round"/>
<path d="M470.918 152.7H495.418" stroke="#2B313B" stroke-width="1.8" stroke-miterlimit="10" stroke-linecap="round" stroke-linejoin="round"/>
<path d="M463.769 151.175C464.586 149.484 464.16 147.587 462.817 146.939C461.475 146.29 459.724 147.135 458.907 148.826C458.09 150.516 458.517 152.413 459.859 153.061C461.202 153.71 462.953 152.865 463.769 151.175Z" fill="#2B313B"/>
<path d="M518.618 192.2L450.918 186.4C449.818 186.3 449.018 185.3 449.118 184.3L450.818 169C450.918 168 451.818 167.2 452.818 167.3L521.018 169.8C522.118 169.8 523.018 170.8 522.918 172L520.718 190.6C520.618 191.5 519.618 192.2 518.618 192.2Z" fill="#5D91FD"/>
<path d="M468.518 174.9L513.318 177.3" stroke="#2B313B" stroke-width="1.8" stroke-miterlimit="10" stroke-linecap="round" stroke-linejoin="round"/>
<path d="M467.818 180.6L492.018 182.3" stroke="#2B313B" stroke-width="1.8" stroke-miterlimit="10" stroke-linecap="round" stroke-linejoin="round"/>
<path d="M460.933 177.945C461.672 176.219 461.161 174.344 459.79 173.756C458.419 173.169 456.709 174.092 455.969 175.818C455.23 177.544 455.742 179.42 457.112 180.007C458.483 180.594 460.193 179.671 460.933 177.945Z" fill="#2B313B"/>
</g>
<defs>
<clipPath id="clip0_36_4497">
<rect width="583" height="343" fill="white"/>
</clipPath>
</defs>
</svg>