<svg width="162" height="20" viewBox="0 0 162 20" fill="none" xmlns="http://www.w3.org/2000/svg">
<path d="M9.37 11.7147L8.02 7.72469C7.92 7.47135 7.81333 7.17469 7.7 6.83469C7.58667 6.48802 7.47333 6.11469 7.36 5.71469C7.26 6.12135 7.15333 6.49802 7.04 6.84469C6.92667 7.19135 6.82 7.49135 6.72 7.74469L5.38 11.7147H9.37ZM14.74 17.2847H12.12C11.8267 17.2847 11.59 17.218 11.41 17.0847C11.23 16.9447 11.0933 16.768 11 16.5547L10.14 14.0147H4.6L3.74 16.5547C3.66667 16.7414 3.53333 16.9114 3.34 17.0647C3.15333 17.2114 2.92 17.2847 2.64 17.2847H0L5.64 2.71469H9.1L14.74 17.2847Z" fill="#2B313B"/>
<path d="M23.5888 11.7147L22.2388 7.72469C22.1388 7.47135 22.0321 7.17469 21.9188 6.83469C21.8054 6.48802 21.6921 6.11469 21.5788 5.71469C21.4788 6.12135 21.3721 6.49802 21.2588 6.84469C21.1454 7.19135 21.0388 7.49135 20.9388 7.74469L19.5988 11.7147H23.5888ZM28.9588 17.2847H26.3388C26.0454 17.2847 25.8088 17.218 25.6287 17.0847C25.4487 16.9447 25.3121 16.768 25.2188 16.5547L24.3588 14.0147H18.8188L17.9587 16.5547C17.8854 16.7414 17.7521 16.9114 17.5588 17.0647C17.3721 17.2114 17.1388 17.2847 16.8587 17.2847H14.2188L19.8588 2.71469H23.3188L28.9588 17.2847Z" fill="#2B313B"/>
<path d="M42.8275 2.71469V17.2847H41.0675C40.8075 17.2847 40.5875 17.2447 40.4075 17.1647C40.2342 17.078 40.0608 16.9314 39.8875 16.7247L33.0175 8.03469C33.0442 8.29469 33.0608 8.54802 33.0675 8.79469C33.0808 9.03469 33.0875 9.26135 33.0875 9.47469V17.2847H30.1075V2.71469H31.8875C32.0342 2.71469 32.1575 2.72135 32.2575 2.73469C32.3575 2.74802 32.4475 2.77469 32.5275 2.81469C32.6075 2.84802 32.6842 2.89802 32.7575 2.96469C32.8308 3.03135 32.9142 3.12135 33.0075 3.23469L39.9375 11.9847C39.9042 11.7047 39.8808 11.4347 39.8675 11.1747C39.8542 10.908 39.8475 10.658 39.8475 10.4247V2.71469H42.8275Z" fill="#2B313B"/>
<path d="M51.4144 14.7347C51.861 14.7347 52.2244 14.678 52.5044 14.5647C52.791 14.4514 53.0144 14.3047 53.1744 14.1247C53.3344 13.9447 53.4444 13.7414 53.5044 13.5147C53.5644 13.288 53.5944 13.058 53.5944 12.8247C53.5944 12.558 53.5577 12.318 53.4844 12.1047C53.4177 11.8914 53.2977 11.7114 53.1244 11.5647C52.9577 11.418 52.7344 11.3047 52.4544 11.2247C52.1744 11.1447 51.821 11.1047 51.3944 11.1047H49.0344V14.7347H51.4144ZM49.0344 5.24469V8.84469H50.7944C51.1677 8.84469 51.5044 8.81802 51.8044 8.76469C52.1044 8.71135 52.3577 8.61802 52.5644 8.48469C52.7777 8.35135 52.9377 8.16802 53.0444 7.93469C53.1577 7.70135 53.2144 7.40802 53.2144 7.05469C53.2144 6.70802 53.171 6.42135 53.0844 6.19469C52.9977 5.96135 52.8644 5.77469 52.6844 5.63469C52.5044 5.49469 52.2744 5.39469 51.9944 5.33469C51.721 5.27469 51.3944 5.24469 51.0144 5.24469H49.0344ZM51.0144 2.71469C52.021 2.71469 52.8777 2.80802 53.5844 2.99469C54.291 3.18135 54.8677 3.44469 55.3144 3.78469C55.761 4.12469 56.0844 4.53802 56.2844 5.02469C56.491 5.51135 56.5944 6.05469 56.5944 6.65469C56.5944 6.98135 56.5477 7.29802 56.4544 7.60469C56.361 7.90469 56.2144 8.18802 56.0144 8.45469C55.8144 8.71469 55.5577 8.95469 55.2444 9.17469C54.931 9.39469 54.5544 9.58469 54.1144 9.74469C55.0744 9.97802 55.7844 10.3547 56.2444 10.8747C56.7044 11.3947 56.9344 12.068 56.9344 12.8947C56.9344 13.5147 56.8144 14.0914 56.5744 14.6247C56.3344 15.158 55.981 15.6247 55.5144 16.0247C55.0544 16.418 54.4844 16.728 53.8044 16.9547C53.1244 17.1747 52.3477 17.2847 51.4744 17.2847H45.6544V2.71469H51.0144Z" fill="#2B313B"/>
<path d="M62.4528 17.2847H59.0528V2.71469H62.4528V17.2847Z" fill="#2B313B"/>
<path d="M68.6637 5.31469V8.71469H73.2438V11.2147H68.6637V14.6847H74.6438V17.2847H65.2637V2.71469H74.6438V5.31469H68.6637Z" fill="#2B313B"/>
<path d="M89.9486 9.99469C89.9486 11.048 89.7653 12.0214 89.3986 12.9147C89.0386 13.8014 88.5286 14.5714 87.8686 15.2247C87.2086 15.8714 86.4119 16.378 85.4786 16.7447C84.5519 17.1047 83.5219 17.2847 82.3886 17.2847H76.7286V2.71469H82.3886C83.5219 2.71469 84.5519 2.89802 85.4786 3.26469C86.4119 3.63135 87.2086 4.13802 87.8686 4.78469C88.5286 5.43135 89.0386 6.20135 89.3986 7.09469C89.7653 7.98135 89.9486 8.94802 89.9486 9.99469ZM86.4886 9.99469C86.4886 9.27469 86.3953 8.62469 86.2086 8.04469C86.0219 7.46469 85.7519 6.97469 85.3986 6.57469C85.0519 6.16802 84.6253 5.85802 84.1186 5.64469C83.6119 5.42469 83.0353 5.31469 82.3886 5.31469H80.1286V14.6847H82.3886C83.0353 14.6847 83.6119 14.578 84.1186 14.3647C84.6253 14.1447 85.0519 13.8347 85.3986 13.4347C85.7519 13.028 86.0219 12.5347 86.2086 11.9547C86.3953 11.3747 86.4886 10.7214 86.4886 9.99469Z" fill="#2B313B"/>
<path d="M95.3434 17.2847H91.9434V2.71469H95.3434V17.2847Z" fill="#2B313B"/>
<path d="M110.874 2.71469V17.2847H109.114C108.854 17.2847 108.634 17.2447 108.454 17.1647C108.281 17.078 108.108 16.9314 107.934 16.7247L101.064 8.03469C101.091 8.29469 101.108 8.54802 101.114 8.79469C101.128 9.03469 101.134 9.26135 101.134 9.47469V17.2847H98.1544V2.71469H99.9344C100.081 2.71469 100.204 2.72135 100.304 2.73469C100.404 2.74802 100.494 2.77469 100.574 2.81469C100.654 2.84802 100.731 2.89802 100.804 2.96469C100.878 3.03135 100.961 3.12135 101.054 3.23469L107.984 11.9847C107.951 11.7047 107.928 11.4347 107.914 11.1747C107.901 10.908 107.894 10.658 107.894 10.4247V2.71469H110.874Z" fill="#2B313B"/>
<path d="M120.701 9.73469H125.881V15.8847C125.135 16.4314 124.338 16.828 123.491 17.0747C122.651 17.3214 121.771 17.4447 120.851 17.4447C119.651 17.4447 118.558 17.258 117.571 16.8847C116.591 16.5047 115.751 15.9847 115.051 15.3247C114.351 14.658 113.811 13.8714 113.431 12.9647C113.051 12.0514 112.861 11.0614 112.861 9.99469C112.861 8.90802 113.041 7.91136 113.401 7.00469C113.761 6.09135 114.275 5.30469 114.941 4.64469C115.615 3.98469 116.425 3.47135 117.371 3.10469C118.325 2.73802 119.388 2.55469 120.561 2.55469C121.168 2.55469 121.738 2.60469 122.271 2.70469C122.805 2.80469 123.295 2.94135 123.741 3.11469C124.195 3.28802 124.608 3.49469 124.981 3.73469C125.355 3.97469 125.688 4.23469 125.981 4.51469L125.001 6.00469C124.848 6.23802 124.648 6.38135 124.401 6.43469C124.161 6.48802 123.901 6.42802 123.621 6.25469C123.355 6.09469 123.101 5.95802 122.861 5.84469C122.628 5.72469 122.388 5.62802 122.141 5.55469C121.895 5.48135 121.635 5.42802 121.361 5.39469C121.088 5.36135 120.781 5.34469 120.441 5.34469C119.808 5.34469 119.238 5.45802 118.731 5.68469C118.225 5.90469 117.791 6.21802 117.431 6.62469C117.078 7.03135 116.805 7.52135 116.611 8.09469C116.418 8.66135 116.321 9.29469 116.321 9.99469C116.321 10.768 116.428 11.4547 116.641 12.0547C116.855 12.6547 117.155 13.1614 117.541 13.5747C117.935 13.988 118.401 14.3047 118.941 14.5247C119.488 14.738 120.091 14.8447 120.751 14.8447C121.158 14.8447 121.525 14.8047 121.851 14.7247C122.185 14.6447 122.508 14.538 122.821 14.4047V12.1947H121.381C121.168 12.1947 121.001 12.138 120.881 12.0247C120.761 11.9114 120.701 11.768 120.701 11.5947V9.73469Z" fill="#2B313B"/>
<path d="M161.324 3V17C160.529 17 159.766 17.3161 159.203 17.8787C158.64 18.4413 158.324 19.2044 158.324 20H135.324C135.324 19.2044 135.008 18.4413 134.446 17.8787C133.883 17.3161 133.12 17 132.324 17V3C133.12 3 133.883 2.68393 134.446 2.12132C135.008 1.55871 135.324 0.795649 135.324 0H158.324C158.324 0.795649 158.64 1.55871 159.203 2.12132C159.766 2.68393 160.529 3 161.324 3Z" fill="#0052FE"/>
<path d="M145.482 12.7348C145.716 12.7348 145.9 12.8001 146.035 12.9308C146.171 13.0568 146.238 13.2248 146.238 13.4348V14.6948H139.07V13.9948C139.07 13.8595 139.098 13.7148 139.154 13.5608C139.21 13.4068 139.308 13.2668 139.448 13.1408L142.388 10.1798C142.64 9.92779 142.86 9.68746 143.046 9.45879C143.233 9.23012 143.387 9.00612 143.508 8.78679C143.63 8.56279 143.721 8.34112 143.781 8.12179C143.842 7.89779 143.872 7.66212 143.872 7.41479C143.872 7.00879 143.774 6.69846 143.578 6.48379C143.387 6.26446 143.093 6.15479 142.696 6.15479C142.374 6.15479 142.101 6.24112 141.877 6.41379C141.658 6.58179 141.506 6.79179 141.422 7.04379C141.324 7.30046 141.196 7.47079 141.037 7.55479C140.879 7.63879 140.652 7.65746 140.358 7.61079L139.21 7.40779C139.285 6.89912 139.427 6.45579 139.637 6.07779C139.852 5.69979 140.116 5.38479 140.428 5.13279C140.746 4.88079 141.107 4.69412 141.513 4.57279C141.919 4.44679 142.356 4.38379 142.822 4.38379C143.326 4.38379 143.779 4.45846 144.18 4.60779C144.586 4.75246 144.932 4.95546 145.216 5.21679C145.501 5.47812 145.718 5.79079 145.867 6.15479C146.021 6.51412 146.098 6.91079 146.098 7.34479C146.098 7.71812 146.045 8.06346 145.937 8.38079C145.835 8.69812 145.692 9.00146 145.51 9.29079C145.328 9.57546 145.116 9.85312 144.873 10.1238C144.635 10.3898 144.381 10.6605 144.11 10.9358L142.115 12.9798C142.372 12.9005 142.626 12.8398 142.878 12.7978C143.13 12.7558 143.364 12.7348 143.578 12.7348H145.482Z" fill="white"/>
<path d="M151.636 10.7328V8.07279C151.636 7.90946 151.641 7.73446 151.65 7.54779C151.664 7.35646 151.683 7.15812 151.706 6.95279L149.011 10.7328H151.636ZM154.576 10.7328V11.9508C154.576 12.0581 154.539 12.1515 154.464 12.2308C154.394 12.3101 154.292 12.3498 154.156 12.3498H153.526V14.6948H151.636V12.3498H147.534C147.399 12.3498 147.275 12.3078 147.163 12.2238C147.056 12.1398 146.988 12.0348 146.96 11.9088L146.736 10.8378L151.454 4.49579H153.526V10.7328H154.576Z" fill="white"/>
</svg>
