<svg width="234" height="126" viewBox="0 0 234 126" fill="none" xmlns="http://www.w3.org/2000/svg">
<mask id="mask0_165_703" style="mask-type:alpha" maskUnits="userSpaceOnUse" x="41" y="0" width="125" height="126">
<rect x="41.4023" width="124.202" height="126" rx="6.08832" fill="#0052FE"/>
</mask>
<g mask="url(#mask0_165_703)">
<path d="M69.9136 121.184C69.9136 121.184 51.3442 144.442 50.7962 152.174C50.2483 159.906 81.2987 159.602 81.3596 158.019C81.4814 156.436 86.5956 147.425 89.0309 147.242C90.6138 147.12 93.0492 146.999 93.4754 148.947C94.0842 151.687 93.4754 157.41 93.4754 157.41L120.203 169.952L122.821 158.81C122.821 158.81 127.326 151.565 127.326 139.632C127.326 127.699 123.856 110.103 123.856 110.103C123.856 110.103 72.9577 115.461 69.9136 121.184Z" fill="#22272E"/>
<path d="M127.94 30.4073C127.94 30.4073 131.532 29.2506 132.689 26.6326C133.907 24.0146 133.724 16.0998 131.593 13.6036C129.462 11.1074 123.495 12.2033 119.721 11.1074C115.946 10.0115 113.328 7.57614 106.326 8.91557C99.3249 10.255 92.8712 16.526 92.5668 19.9354C92.2624 23.3449 94.2716 24.7452 93.541 26.937C92.7495 29.0679 91.8362 31.2597 95.2457 34.6083C98.6551 37.9569 97.3157 40.1487 99.8728 40.1487C102.43 40.1487 97.8028 32.3556 101.09 25.6585C104.439 19.0222 126.113 22.8578 127.94 30.4073Z" fill="#22272E"/>
<path d="M57.1934 70.712C57.1934 70.712 49.1568 81.3057 47.7565 89.2814C46.3562 97.2571 50.6789 102.432 56.0366 103.285C61.3944 104.137 79.3549 80.6969 80.2073 75.948C80.9987 71.1991 59.7505 66.9982 57.1934 70.712Z" fill="#F4C2C9"/>
<path d="M82.8241 50.0117C82.8241 50.0117 78.7449 48.855 68.9427 57.3177C60.7235 64.3802 54.209 71.1382 54.209 71.1382C54.209 71.1382 71.4998 86.8461 73.8743 90.9253C73.8743 90.9253 84.5288 78.6269 85.4421 66.2067C86.3553 53.7256 84.3462 49.5247 82.8241 50.0117Z" fill="#012777"/>
<path d="M57.1934 68.3376C57.1934 68.3376 69.6744 78.3833 76.4325 87.6376" stroke="#FB9245" stroke-width="1.0959" stroke-miterlimit="10" stroke-linecap="round" stroke-linejoin="round"/>
<path d="M78.0154 55.1868C79.5375 51.7774 82.5816 49.2812 86.3564 49.1594C90.0094 49.0376 95.5498 49.0985 103.586 49.6465C120.877 50.8641 134.211 55.7957 137.742 58.3528C141.273 60.9099 136.95 76.7395 133.297 85.5067C129.644 94.2739 125.687 102.25 125.017 105.294C124.408 108.338 126.783 122.706 125.504 125.629C124.226 128.551 110.649 133.604 93.358 132.63C76.0671 131.595 68.8829 126.055 68.335 123.985C67.8479 121.976 69.9788 103.954 71.0138 97.8051C72.0489 91.6559 72.7794 78.1398 72.9012 76.1915C73.9971 63.6496 76.4324 58.7181 78.0154 55.1868Z" fill="#E4F2FF"/>
<path d="M153.513 83.4975C149.19 76.0698 134.213 90.8644 134.578 94.1521C134.578 94.1521 137.257 99.7533 137.257 100.362C137.257 100.971 134.578 116.374 132.752 125.02C132.204 127.699 130.56 130.682 128.551 133.544C133.3 135.309 138.109 136.77 143.041 137.744C149.495 126.481 156.922 109.251 158.079 104.989C160.21 97.0136 157.836 90.9253 153.513 83.4975Z" fill="#F4C2C9"/>
<path d="M137.258 100.362C137.258 100.362 138.354 97.7442 141.154 96.5874" stroke="#E26E85" stroke-width="1.0959" stroke-miterlimit="10" stroke-linecap="round" stroke-linejoin="round"/>
<path d="M137.747 58.2919C137.747 58.2919 142.679 61.0316 147.549 69.2509C152.359 77.4701 156.195 84.9587 156.195 84.9587L134.764 96.1612C134.764 96.1612 128.554 85.9938 125.997 81.4275C123.44 76.8613 123.196 67.4853 126.788 62.2493C130.259 57.0742 136.043 57.1351 137.747 58.2919Z" fill="#012777"/>
<path d="M132.754 92.9345C132.754 92.9345 145.235 84.7152 154.428 81.6711" stroke="#FB9245" stroke-width="1.0959" stroke-miterlimit="10" stroke-linecap="round" stroke-linejoin="round"/>
<path d="M95.4261 48.7941C95.4261 48.7941 92.5037 49.0985 91.8948 49.6465C91.286 50.1944 89.4595 54.9433 91.8948 59.8749C94.3302 64.7455 101.393 67.2417 108.577 64.9891C115.761 62.7973 118.805 55.8566 118.562 53.7257C118.318 51.5948 117.04 50.925 114.422 50.2553C111.804 49.5856 95.4261 48.7941 95.4261 48.7941Z" fill="#FB9245"/>
<path d="M98.8989 33.5125C98.8989 33.5125 99.0816 39.1137 97.6813 43.68C97.0725 45.75 96.0983 47.6374 95.4895 48.7333C95.0024 49.6465 94.6371 50.6206 94.5153 51.5948C94.15 54.091 94.3327 58.4137 98.8989 60.4837C106.205 63.7714 113.876 57.744 114.911 52.9342C114.911 52.9342 115.337 47.9418 116.433 45.9326C117.529 43.9844 102.43 31.6251 98.8989 33.5125Z" fill="#F4C2C9"/>
<path d="M114.425 54.3344C114.668 53.8474 114.79 53.3603 114.912 52.9341C114.912 52.9341 114.972 51.96 115.216 50.6814C110.163 49.8291 105.718 46.9067 102.979 42.9493C103.344 48.9158 108.458 53.4821 114.425 54.3344Z" fill="#E26E85"/>
<path d="M53.0517 102.31C53.0517 102.31 56.035 105.659 69.3075 102.31C82.5192 98.9618 99.6882 89.7075 102.245 88.7943C104.802 87.8202 105.777 88.3072 108.516 88.3072C115.031 88.429 117.71 87.8202 118.562 87.394C120.267 86.5416 121.058 85.2631 120.754 84.1672C120.449 83.0713 121.363 82.7669 121.545 81.7927C121.85 79.9662 121.18 79.7227 121.363 79.6009C121.545 79.4792 123.372 78.9312 123.737 78.4441C124.65 77.0438 123.92 76.1306 123.92 76.1306C123.92 76.1306 126.233 75.5217 128.973 75.2782C131.713 75.0347 133.357 74.0605 132.565 73.0864C131.774 72.1123 126.416 72.4167 122.946 72.4167C119.475 72.4167 118.258 72.4776 118.014 72.3558C116.675 71.9296 114.057 71.1381 112.778 71.2599C111.5 71.3817 110.038 72.4167 107.542 73.7561C105.046 75.0956 102.245 76.1915 98.5923 77.1047C95.7917 77.8353 76.9788 79.2965 65.3501 81.4883C63.7063 81.7927 62.1842 82.0971 60.9056 82.4624C59.3227 82.8886 58.0441 83.3148 57.1918 83.741C50.8599 87.1504 45.3195 96.1003 53.0517 102.31Z" fill="#F4C2C9"/>
<path d="M123.86 76.1306C123.86 76.1306 122.277 75.887 121.729 75.7653C121.12 75.6435 120.268 75.6435 120.268 75.6435" stroke="#E26E85" stroke-width="1.0959" stroke-miterlimit="10" stroke-linecap="round" stroke-linejoin="round"/>
<path d="M121.364 79.6009C121.364 79.6009 120.268 79.9053 119.842 80.088" stroke="#E26E85" stroke-width="1.0959" stroke-miterlimit="10" stroke-linecap="round" stroke-linejoin="round"/>
<path d="M120.755 83.4974C120.755 83.4974 119.598 84.1671 119.111 84.3498" stroke="#E26E85" stroke-width="1.0959" stroke-miterlimit="10" stroke-linecap="round" stroke-linejoin="round"/>
<path d="M102.244 88.7943C97.556 83.254 99.9304 76.7395 99.9304 76.7395L94.6945 77.7136C91.7112 85.0805 97.008 91.2905 97.008 91.2905L102.244 88.7943Z" fill="#22272E"/>
<path d="M117.953 72.3559C117.953 72.3559 114.665 72.4168 114.117 72.6603" stroke="#E26E85" stroke-width="1.0959" stroke-miterlimit="10" stroke-linecap="round" stroke-linejoin="round"/>
<path d="M65.3478 81.4884C63.704 81.7928 62.1819 82.0972 60.9033 82.4625C59.3204 82.8887 58.0418 83.3149 57.1895 83.741" stroke="#E26E85" stroke-width="1.0959" stroke-miterlimit="10" stroke-linecap="round" stroke-linejoin="round"/>
<path d="M99.8084 83.4974C99.8084 81.7318 98.4081 80.3315 96.6425 80.3315C94.8769 80.3315 93.4766 81.7318 93.4766 83.4974C93.4766 85.263 94.8769 86.6634 96.6425 86.6634C98.3472 86.6025 99.8084 85.2022 99.8084 83.4974Z" fill="white"/>
<path d="M128.673 20.0572C128.673 20.0572 130.012 24.0755 128.125 30.0421C126.237 36.0695 124.959 38.2613 123.376 43.0102C121.732 47.7591 117.957 51.8991 111.443 51.2294C104.624 50.4988 99.2662 44.2887 98.9618 36.5566C98.6574 28.8244 97.9877 16.7695 107.181 14.6386C116.253 12.5686 127.09 17.9872 128.673 20.0572Z" fill="#F4C2C9"/>
<path d="M122.645 32.9645C122.645 33.6951 122.645 34.3648 122.767 35.0345C122.828 35.3389 122.889 35.7042 122.949 36.0086C123.01 36.1913 123.01 36.3131 123.071 36.4957L123.132 36.7393L123.193 37.0437C123.315 37.4699 123.315 37.896 123.193 38.3831C123.01 38.8093 122.706 39.2355 122.341 39.4181C121.61 39.8443 120.818 39.9052 120.088 39.7225C120.758 39.4181 121.427 39.1137 121.793 38.7484C122.219 38.3222 122.28 37.896 122.097 37.3481L122.036 37.1654L121.975 36.861C121.914 36.6784 121.914 36.4957 121.854 36.3131C121.793 35.9478 121.793 35.5216 121.793 35.1563C121.975 34.3039 122.219 33.5124 122.645 32.9645Z" fill="#22272E"/>
<path d="M100.545 29.6768C100.545 29.6768 102.554 29.1898 103.832 23.8929C103.832 23.8929 104.259 22.6753 106.39 24.3191C108.46 25.9629 112.052 28.6418 118.262 25.7194C124.472 22.797 125.263 21.8229 126.116 22.8579C126.116 22.8579 127.029 27.485 130.195 26.0238C133.361 24.6235 131.656 16.3434 121.184 13.6645C110.712 10.9857 103.284 11.8989 99.9359 17.7437C96.5264 23.6494 97.8659 29.3115 100.545 29.6768Z" fill="#22272E"/>
<path d="M119.662 27.7286C120.027 27.3024 120.392 26.3283 119.905 25.6586C119.236 24.6236 114.669 23.893 113.573 24.8062C112.478 25.7195 115.217 25.8412 116.496 26.4501C117.774 27.1198 119.296 28.1548 119.662 27.7286Z" fill="#22272E"/>
<path d="M125.324 30.3465C125.445 29.9812 125.811 29.5551 126.237 29.3724C126.907 29.068 128.307 30.4683 128.063 31.3816C127.82 32.2948 127.15 31.2598 126.541 31.138C125.932 30.8945 125.141 30.7118 125.324 30.3465Z" fill="#22272E"/>
<path d="M116.2 31.2598C116.383 30.7727 116.139 30.2248 115.591 30.0421C115.104 29.8595 114.556 30.103 114.374 30.651L114.252 30.9554L116.018 31.6251L116.2 31.2598Z" fill="#22272E"/>
<path d="M125.333 34.6693C125.516 34.1822 125.272 33.6343 124.724 33.4516C124.237 33.269 123.689 33.5125 123.507 34.0605L123.385 34.3649L125.15 35.0346L125.333 34.6693Z" fill="#22272E"/>
<path d="M101.641 30.7118C101.641 30.7118 100.606 26.5718 97.5618 26.6327C94.5176 26.6935 93.1173 34.9737 100.119 36.2522" fill="#F4C2C9"/>
<path d="M97.0781 30.4074C97.0781 30.103 97.139 29.8594 97.3825 29.555C97.5043 29.4333 97.687 29.3115 97.9305 29.3115C98.1131 29.3115 98.3567 29.3724 98.4784 29.4333C98.5393 29.4333 98.6611 29.555 98.722 29.6159C98.8437 29.6768 98.8437 29.7986 98.9046 29.8594C98.9655 29.9812 98.9655 30.0421 99.0264 30.103C99.0264 30.1639 99.0873 30.2856 99.0873 30.3465C99.1481 30.6509 99.1482 30.8945 99.1482 31.138C99.1482 31.6251 99.1482 32.1121 99.1482 32.5383C99.1482 32.721 99.209 32.9036 99.3308 33.0863C99.4526 33.2689 99.6352 33.3907 99.8788 33.5124C99.6352 33.6342 99.3308 33.6342 99.0264 33.5124C98.722 33.3907 98.4784 33.0863 98.3567 32.7819C98.1131 32.2339 98.0523 31.6859 98.0523 31.138C98.0523 30.6509 97.9914 30.103 97.9914 30.103C97.8696 29.9812 97.8087 29.9203 97.6261 29.9203C97.5043 30.0421 97.3217 30.2247 97.0781 30.4074Z" fill="#22272E"/>
<path d="M116.011 43.68C116.254 43.3147 116.498 42.9494 116.62 42.645C116.863 42.097 116.62 41.4882 116.072 41.3055C115.463 41.062 114.672 40.6358 113.758 39.9052C111.871 38.3831 111.019 39.7226 111.14 41.4273C112.967 41.6099 114.611 42.7667 116.011 43.68Z" fill="#22272E"/>
<path d="M111.141 41.3664C111.262 42.8276 112.054 44.5932 113.637 44.8367C114.672 45.0194 115.463 44.4106 116.011 43.68C114.611 42.7667 112.967 41.6099 111.141 41.3664Z" fill="#E26E85"/>
</g>
<path d="M224.062 65.5786L159.167 62.9268C157.769 62.8786 156.804 61.5768 156.997 59.9858L162.301 20.981C162.494 19.4382 163.844 18.1846 165.242 18.0882L230.137 15.4364C231.921 15.34 233.175 16.69 232.982 18.4257L227.678 62.4447C227.485 64.2768 225.846 65.675 224.062 65.5786Z" fill="#B8D8C7"/>
<path d="M222.953 64.759L158.057 62.1072C156.659 62.059 155.695 60.7572 155.888 59.1662L161.191 20.1614C161.384 18.6186 162.734 17.365 164.132 17.2686L229.028 14.6168C230.812 14.5204 232.065 15.8704 231.872 17.6061L226.569 61.6251C226.376 63.4572 224.737 64.8072 222.953 64.759Z" fill="#6DAFA7"/>
<path d="M171.41 39.5914H188.574" stroke="black" stroke-width="0.867845" stroke-miterlimit="10" stroke-linecap="round" stroke-linejoin="round"/>
<path d="M186.736 53.7179L177.479 53.4769C176.032 53.4286 175.068 52.1751 175.261 50.6805L178.202 28.5504C178.395 27.0558 179.696 25.8023 181.143 25.7541L190.4 25.513" stroke="black" stroke-width="0.867845" stroke-miterlimit="10" stroke-linecap="round" stroke-linejoin="round"/>
<path d="M200.529 28.0683L189.777 28.2612C189.15 28.2612 188.764 27.7791 188.813 27.1523L189.247 23.922C189.343 23.2952 189.873 22.7648 190.5 22.7648L201.252 22.4274C201.879 22.4274 202.312 22.9095 202.264 23.5363L201.83 26.8148C201.734 27.538 201.155 28.0683 200.529 28.0683Z" fill="#FFE779"/>
<path d="M219.038 42.4842L207.515 42.436C206.888 42.436 206.406 41.9057 206.503 41.2307L206.936 37.8557C207.033 37.1807 207.611 36.6504 208.238 36.6504L219.761 36.6022C220.436 36.6022 220.918 37.1325 220.822 37.8075L220.388 41.2307C220.34 41.9539 219.713 42.4842 219.038 42.4842Z" fill="#FFE779"/>
<path d="M196.909 56.8036L186.158 56.5143C185.531 56.5143 185.145 55.984 185.194 55.3572L185.627 52.0787C185.724 51.4519 186.254 50.9215 186.881 50.9698L197.633 51.1626C198.259 51.1626 198.693 51.693 198.645 52.3679L198.211 55.6947C198.115 56.3215 197.536 56.8036 196.909 56.8036Z" fill="#FFE779"/>
<path d="M200.238 39.5432H206.747" stroke="black" stroke-width="0.867845" stroke-miterlimit="10" stroke-linecap="round" stroke-linejoin="round"/>
<path d="M198.741 42.3877L187.99 42.3395C187.363 42.3395 186.977 41.8092 187.026 41.1824L187.459 37.9521C187.556 37.3253 188.086 36.795 188.713 36.795L199.465 36.7468C200.091 36.7468 200.525 37.2771 200.477 37.9039L200.043 41.2306C199.947 41.8574 199.368 42.3877 198.741 42.3877Z" fill="#FFE779"/>
<path d="M171.407 39.5914C171.648 37.8075 170.49 36.4093 168.851 36.4093C167.212 36.4093 165.717 37.8557 165.476 39.5914C165.235 41.3271 166.344 42.7735 167.983 42.7735C169.623 42.7735 171.165 41.3753 171.407 39.5914Z" fill="#FFE779"/>
<path d="M45.9618 52.7249H24.531L22.3392 54.1252C21.6695 54.5514 20.6953 54.0643 20.6953 53.2728V38.1129C20.6953 36.5908 21.913 35.3123 23.4959 35.3123H45.901C47.4231 35.3123 48.7016 36.5299 48.7016 38.1129V49.9242C48.7016 51.5072 47.4839 52.7249 45.9618 52.7249Z" fill="#F4C2C9"/>
<path d="M27.084 47.1236L29.2149 44.9927C30.3717 43.8359 32.1982 43.8359 33.355 44.9927C34.5117 46.1495 36.3382 46.1495 37.495 44.9927L41.5742 40.9135" stroke="#22272E" stroke-width="1.0959" stroke-linecap="round" stroke-linejoin="round"/>
<path d="M42.2448 42.1312L42.9754 39.5132L40.3574 40.2438L42.2448 42.1312Z" fill="#22272E"/>
<path d="M6.97094 119.277L0.683821 89.5557C0.551923 88.8962 1.03555 88.2807 1.739 88.2807H31.328C32.1634 88.2807 32.9108 88.8962 33.0427 89.7315L37.9669 119.76C38.0548 120.42 37.5712 120.991 36.9117 120.991L8.68561 120.64C7.80629 120.64 7.1468 120.068 6.97094 119.277Z" fill="#B8D8C7"/>
<path d="M6.30883 119.98L0.0217116 90.2592C-0.110186 89.5997 0.373436 88.9842 1.07689 88.9842H30.6659C31.5013 88.9842 32.2487 89.5997 32.3806 90.4351L37.3048 120.464C37.3927 121.123 36.9091 121.695 36.2496 121.695L8.0235 121.343C7.18815 121.343 6.48469 120.772 6.30883 119.98Z" fill="#6DAFA7"/>
<path d="M9.69289 117.606L4.46094 92.8092H28.906L32.9948 117.87L9.69289 117.606Z" stroke="#22272E" stroke-width="0.791386" stroke-miterlimit="10" stroke-linecap="round" stroke-linejoin="round"/>
<path d="M11.6738 92.8092L16.9497 117.694" stroke="#22272E" stroke-width="0.791386" stroke-miterlimit="10" stroke-linecap="round" stroke-linejoin="round"/>
<path d="M5.7793 99.0963H29.7847" stroke="#22272E" stroke-width="0.791386" stroke-miterlimit="10" stroke-linecap="round" stroke-linejoin="round"/>
<path d="M7.05664 105.164H30.8422" stroke="#22272E" stroke-width="0.791386" stroke-miterlimit="10" stroke-linecap="round" stroke-linejoin="round"/>
<path d="M8.50586 111.319L31.9836 111.627" stroke="#22272E" stroke-width="0.791386" stroke-miterlimit="10" stroke-linecap="round" stroke-linejoin="round"/>
<path d="M15.8906 95.8868H25.2554" stroke="#22272E" stroke-width="0.791386" stroke-miterlimit="10" stroke-linecap="round" stroke-linejoin="round"/>
<path d="M17.125 102.13H26.4897" stroke="#22272E" stroke-width="0.791386" stroke-miterlimit="10" stroke-linecap="round" stroke-linejoin="round"/>
<path d="M18.5312 108.241L27.896 108.373" stroke="#22272E" stroke-width="0.791386" stroke-miterlimit="10" stroke-linecap="round" stroke-linejoin="round"/>
<path d="M19.8477 114.265L28.8607 114.484" stroke="#22272E" stroke-width="0.791386" stroke-miterlimit="10" stroke-linecap="round" stroke-linejoin="round"/>
<path d="M7.00977 94.3919L10.8788 97.3376" stroke="#F4C2C9" stroke-width="0.791386" stroke-miterlimit="10" stroke-linecap="round" stroke-linejoin="round"/>
<path d="M9.82807 94.3919L7.84961 97.3376" stroke="#F4C2C9" stroke-width="0.791386" stroke-miterlimit="10" stroke-linecap="round" stroke-linejoin="round"/>
<path d="M9.47266 106.79L13.3416 109.692" stroke="#F4C2C9" stroke-width="0.791386" stroke-miterlimit="10" stroke-linecap="round" stroke-linejoin="round"/>
<path d="M12.2861 106.79L10.2637 109.692" stroke="#F4C2C9" stroke-width="0.791386" stroke-miterlimit="10" stroke-linecap="round" stroke-linejoin="round"/>
<path d="M10.8828 112.902L14.7518 115.847" stroke="#F4C2C9" stroke-width="0.791386" stroke-miterlimit="10" stroke-linecap="round" stroke-linejoin="round"/>
<path d="M13.6953 112.902L11.7168 115.847" stroke="#F4C2C9" stroke-width="0.791386" stroke-miterlimit="10" stroke-linecap="round" stroke-linejoin="round"/>
<path d="M8.50586 101.778L9.82484 103.141L11.7154 100.679" stroke="#FFE779" stroke-width="0.791386" stroke-miterlimit="10" stroke-linecap="round" stroke-linejoin="round"/>
<path d="M74.7971 17.366C73.1751 20.818 69.4319 23.1055 66.8117 22.3985C64.5242 21.7746 64.1083 19.0712 65.564 16.3678C66.9781 13.7892 69.8062 11.7097 72.2601 11.6681C74.9635 11.5849 76.2943 14.0803 74.7971 17.366Z" fill="#F8AB5D"/>
<path d="M74.008 16.6589C72.386 20.1109 68.6428 22.3984 66.0226 21.6914C63.7352 21.0675 63.3193 18.3641 64.7749 15.6607C66.189 13.0821 69.0171 11.0026 71.471 10.961C74.1744 10.8778 75.5053 13.3733 74.008 16.6589Z" fill="#FFE779"/>
<path d="M72.6802 16.4925C71.4741 19.0711 68.6459 20.8179 66.6496 20.3604C64.8612 19.9445 64.4453 17.865 65.5682 15.7439C66.6496 13.7059 68.9371 12.0839 70.8086 12.0839C72.9298 12.1255 73.8448 14.0387 72.6802 16.4925Z" fill="#F8AB5D"/>
<path d="M67.2702 18.6969L67.4366 18.4058C67.4782 18.281 67.4782 18.1978 67.395 18.1563C67.187 18.1147 67.0207 17.9899 66.9375 17.8651C66.8959 17.8235 66.8959 17.6988 66.9791 17.574L67.0207 17.5324C67.1038 17.4076 67.2702 17.366 67.3118 17.4492C67.4366 17.574 67.6029 17.6988 67.8525 17.7403C68.2684 17.8235 68.6843 17.574 68.8922 17.1581C69.1002 16.7838 68.9754 16.4926 68.6427 16.2431C68.1852 15.9104 68.0188 15.5776 68.31 14.9954C68.5595 14.4963 69.017 14.122 69.5577 14.0388C69.6409 14.0388 69.724 13.9556 69.8072 13.8308L69.9736 13.5397C70.0152 13.4149 70.1399 13.3317 70.2647 13.3317C70.3479 13.3317 70.3895 13.4149 70.3479 13.5397L70.2231 13.7892C70.1815 13.914 70.1815 13.9972 70.3063 13.9972C70.4727 14.0388 70.5974 14.0804 70.6806 14.1636C70.7638 14.2051 70.7222 14.3299 70.639 14.4547L70.5975 14.4963C70.5143 14.6211 70.3479 14.6626 70.3063 14.5795C70.1815 14.4963 70.0568 14.4131 69.8072 14.4131C69.3497 14.3715 69.0586 14.6626 68.8922 14.9538C68.7259 15.2865 68.8506 15.4945 69.2249 15.7856C69.6824 16.1183 69.8488 16.5342 69.5161 17.1581C69.2665 17.6988 68.7259 18.1147 68.102 18.1978C68.0188 18.1978 67.8941 18.281 67.8525 18.4058L67.6861 18.7385C67.6445 18.8633 67.4782 18.9465 67.395 18.9465C67.2286 18.9465 67.187 18.8217 67.2702 18.6969Z" fill="#FFE779"/>
<path d="M202.812 83.9399C200.437 81.5655 197.089 80.1652 192.949 79.6781C189.905 79.3128 187.226 79.6781 184.851 80.774C181.929 82.0526 179.737 84.3052 178.093 87.5929L175.354 88.7497L176.936 90.3936L184.06 91.6721C184.486 90.2109 185.338 88.8715 186.556 87.5929C187.774 86.3753 189.418 85.8882 191.488 86.1926C193.618 86.497 194.958 87.2885 195.506 88.5671C196.054 89.8456 196.115 91.2459 195.689 92.6462C195.323 93.8639 194.653 94.9598 193.618 95.8731C193.01 96.421 192.34 96.8472 191.548 97.2125L189.113 98.4302C186.739 99.5869 185.156 100.683 184.364 101.779C183.816 102.57 183.147 103.849 182.477 105.675L180.042 106.467L181.624 108.111L188.93 110.12C189.357 108.537 189.844 107.441 190.27 106.771C190.94 105.675 191.975 104.823 193.314 104.214L195.81 103.057C198.367 101.901 200.194 100.805 201.29 99.8914C203.116 98.3693 204.334 96.3601 205.004 93.7421C206.039 89.7239 205.308 86.4362 202.812 83.9399Z" fill="#F8AB5D"/>
<path d="M184.174 112.494L183.93 112.433C181.799 111.824 179.547 113.164 178.938 115.477C178.268 117.791 179.425 120.226 181.556 120.957L181.799 121.079C183.991 121.809 186.305 120.47 186.974 118.035C187.644 115.599 186.366 113.103 184.174 112.494Z" fill="#F8AB5D"/>
<path d="M183.331 79.1302C185.706 78.0952 188.384 77.7299 191.429 78.0343C195.569 78.5213 198.856 79.9216 201.292 82.2961C203.788 84.7314 204.519 88.08 203.423 92.2201C202.753 94.7772 201.535 96.8472 199.709 98.3693C198.674 99.2825 196.847 100.318 194.229 101.535L191.733 102.692C190.394 103.301 189.359 104.153 188.689 105.249C188.263 105.919 187.837 107.076 187.349 108.598L180.043 106.588C181.078 103.423 181.931 101.353 182.783 100.257C183.575 99.1607 185.158 98.0648 187.532 96.9081L189.967 95.6904C190.759 95.3251 191.49 94.838 192.037 94.351C193.073 93.4377 193.803 92.4027 194.107 91.1242C194.473 89.663 194.412 88.3235 193.925 87.045C193.438 85.7664 192.037 84.975 189.907 84.6705C187.837 84.3661 186.193 84.8532 184.975 86.0708C183.757 87.2885 182.905 88.628 182.479 90.15L175.355 88.8715C177.06 83.9399 179.617 80.774 183.331 79.1302ZM182.54 111.52L182.783 111.581C184.975 112.251 186.254 114.686 185.584 117.06C184.914 119.496 182.54 120.835 180.409 120.105L180.165 119.983C178.034 119.252 176.878 116.817 177.547 114.503C178.217 112.251 180.409 110.911 182.54 111.52Z" fill="#FFE779"/>
</svg>