<svg width="463" height="350" viewBox="0 0 463 350" fill="none" xmlns="http://www.w3.org/2000/svg">
<path d="M404.897 281.801L50.9073 271.657C28 271.657 19.2525 271.657 19.2525 242.181L2.16568 73.3552C-0.999567 43 -4.9998 37.2756 34.297 37.2756L428.315 31.8296C468.501 31.8295 463.501 38.5 461.331 68.6581L438.39 253.073C435 274.5 434.5 281.801 404.897 281.801Z" fill="#F5F8FF"/>
<mask id="mask0_116_1864" style="mask-type:alpha" maskUnits="userSpaceOnUse" x="2" y="31" width="460" height="251">
<path d="M404.896 281.801L50.9067 271.657C34.4326 271.181 20.8857 258.587 19.2519 242.181L2.16507 73.3552C0.258977 54.2262 15.0993 37.5478 34.2964 37.2755L428.314 31.8295C448.192 31.5572 463.781 48.9163 461.33 68.6581L438.389 253.073C436.279 269.819 421.779 282.277 404.896 281.801Z" fill="#0052FE"/>
</mask>
<g mask="url(#mask0_116_1864)">
<path d="M328.905 289.833L330.131 317.404C330.131 323.054 325.57 327.615 319.92 327.615H37.0003C31.3501 327.615 26.7891 323.054 26.7891 317.404V156.951C26.7891 151.301 31.3501 146.74 37.0003 146.74H319.852C325.502 146.74 330.063 151.301 330.063 156.951V265.463" stroke="#C8DAFF" stroke-width="1.22535" stroke-miterlimit="10" stroke-linecap="round" stroke-linejoin="round"/>
<path d="M392.283 266.143V108.142C392.283 102.491 396.844 97.9303 402.494 97.9303H486.907C492.558 97.9303 497.119 102.491 497.119 108.142V342.523C497.119 348.174 492.558 352.735 486.907 352.735H402.494C396.844 352.735 392.283 348.174 392.283 342.523V291.535" stroke="#C8DAFF" stroke-width="1.22535" stroke-miterlimit="10" stroke-linecap="round" stroke-linejoin="round"/>
<path d="M90.1661 98.8833H28.9668V92.8247H90.1661C90.8469 92.8247 91.3915 93.3693 91.3915 94.05V97.5899C91.4596 98.2707 90.915 98.8833 90.1661 98.8833Z" stroke="#C8DAFF" stroke-width="1.22535" stroke-miterlimit="10" stroke-linecap="round" stroke-linejoin="round"/>
<path d="M80.8403 146.74H67.0211C65.5235 146.74 64.2981 145.651 64.0939 144.153L63.0047 134.35C62.8005 132.648 64.162 131.083 65.9319 131.083H81.9295C83.6995 131.083 84.9929 132.58 84.8567 134.35L83.7675 144.153C83.6314 145.651 82.338 146.74 80.8403 146.74Z" stroke="#C8DAFF" stroke-width="1.22535" stroke-miterlimit="10" stroke-linecap="round" stroke-linejoin="round"/>
<path d="M72.3301 131.151C72.3301 131.151 66.8841 130.606 65.7949 123.254C65.7949 123.254 70.6963 124.684 72.262 128.156C72.262 128.156 72.9428 120.395 76.6188 119.646C76.6188 119.646 78.2526 125.433 75.6658 128.292C75.6658 128.292 77.6399 125.024 82.6775 125.092C82.6775 125.092 81.3841 129.721 76.4146 131.083" fill="#C8DAFF"/>
<path d="M452.598 97.9303H438.779C437.281 97.9303 436.056 96.8411 435.852 95.3434L434.762 85.5406C434.558 83.8388 435.92 82.273 437.69 82.273H453.687C455.457 82.273 456.751 83.7707 456.615 85.5406L455.525 95.3434C455.321 96.8411 454.096 97.9303 452.598 97.9303Z" stroke="#C8DAFF" stroke-width="1.22535" stroke-miterlimit="10" stroke-linecap="round" stroke-linejoin="round"/>
<path d="M444.02 82.3411C444.02 82.3411 438.574 81.7965 437.484 74.4444C437.484 74.4444 442.386 75.874 443.951 79.3458C443.951 79.3458 444.632 71.5853 448.308 70.8365C448.308 70.8365 449.942 76.6228 447.355 79.482C447.355 79.482 449.329 76.2144 454.367 76.2824C454.367 76.2824 453.074 80.9115 448.104 82.273" fill="#C8DAFF"/>
<path d="M317.743 180.573H256.34C254.774 180.573 253.48 179.28 253.48 177.714V159.062C253.48 157.496 254.774 156.202 256.34 156.202H317.743C319.309 156.202 320.602 157.496 320.602 159.062V177.714C320.602 179.28 319.309 180.573 317.743 180.573Z" stroke="#C8DAFF" stroke-width="1.22535" stroke-miterlimit="10" stroke-linecap="round" stroke-linejoin="round"/>
<path d="M294.054 162.806H279.894C279.35 162.806 278.873 162.329 278.873 161.785C278.873 161.24 279.35 160.763 279.894 160.763H294.054C294.598 160.763 295.075 161.24 295.075 161.785C295.075 162.329 294.666 162.806 294.054 162.806Z" fill="#C8DAFF"/>
<path d="M317.743 211.82H256.34C254.774 211.82 253.48 210.526 253.48 208.96V190.308C253.48 188.742 254.774 187.449 256.34 187.449H317.743C319.309 187.449 320.602 188.742 320.602 190.308V208.96C320.602 210.526 319.309 211.82 317.743 211.82Z" stroke="#C8DAFF" stroke-width="1.22535" stroke-miterlimit="10" stroke-linecap="round" stroke-linejoin="round"/>
<path d="M294.054 193.984H279.894C279.35 193.984 278.873 193.507 278.873 192.963C278.873 192.418 279.35 191.942 279.894 191.942H294.054C294.598 191.942 295.075 192.418 295.075 192.963C295.075 193.507 294.666 193.984 294.054 193.984Z" fill="#C8DAFF"/>
<path d="M239.454 180.573H178.051C176.485 180.573 175.191 179.28 175.191 177.714V159.062C175.191 157.496 176.485 156.202 178.051 156.202H239.454C241.02 156.202 242.313 157.496 242.313 159.062V177.714C242.313 179.28 241.02 180.573 239.454 180.573Z" stroke="#C8DAFF" stroke-width="1.22535" stroke-miterlimit="10" stroke-linecap="round" stroke-linejoin="round"/>
<path d="M215.833 162.806H201.673C201.129 162.806 200.652 162.329 200.652 161.785C200.652 161.24 201.129 160.763 201.673 160.763H215.833C216.378 160.763 216.854 161.24 216.854 161.785C216.854 162.329 216.378 162.806 215.833 162.806Z" fill="#C8DAFF"/>
<path d="M239.454 211.82H178.051C176.485 211.82 175.191 210.526 175.191 208.96V190.308C175.191 188.742 176.485 187.449 178.051 187.449H239.454C241.02 187.449 242.313 188.742 242.313 190.308V208.96C242.313 210.526 241.02 211.82 239.454 211.82Z" stroke="#C8DAFF" stroke-width="1.22535" stroke-miterlimit="10" stroke-linecap="round" stroke-linejoin="round"/>
<path d="M215.833 193.984H201.673C201.129 193.984 200.652 193.507 200.652 192.963C200.652 192.418 201.129 191.942 201.673 191.942H215.833C216.378 191.942 216.854 192.418 216.854 192.963C216.854 193.507 216.378 193.984 215.833 193.984Z" fill="#C8DAFF"/>
<path d="M317.743 242.317H256.34C254.774 242.317 253.48 241.024 253.48 239.458V220.805C253.48 219.24 254.774 217.946 256.34 217.946H317.743C319.309 217.946 320.602 219.24 320.602 220.805V239.458C320.602 241.024 319.309 242.317 317.743 242.317Z" stroke="#C8DAFF" stroke-width="1.22535" stroke-miterlimit="10" stroke-linecap="round" stroke-linejoin="round"/>
<path d="M294.054 224.55H279.894C279.35 224.55 278.873 224.073 278.873 223.528C278.873 222.984 279.35 222.507 279.894 222.507H294.054C294.598 222.507 295.075 222.984 295.075 223.528C295.075 224.073 294.666 224.55 294.054 224.55Z" fill="#C8DAFF"/>
<path d="M239.454 242.317H178.051C176.485 242.317 175.191 241.024 175.191 239.458V220.805C175.191 219.24 176.485 217.946 178.051 217.946H239.454C241.02 217.946 242.313 219.24 242.313 220.805V239.458C242.313 241.024 241.02 242.317 239.454 242.317Z" stroke="#C8DAFF" stroke-width="1.22535" stroke-miterlimit="10" stroke-linecap="round" stroke-linejoin="round"/>
<path d="M215.833 224.55H201.673C201.129 224.55 200.652 224.073 200.652 223.528C200.652 222.984 201.129 222.507 201.673 222.507H215.833C216.378 222.507 216.854 222.984 216.854 223.528C216.854 224.073 216.378 224.55 215.833 224.55Z" fill="#C8DAFF"/>
<path d="M515.636 169.273H406.784C405.082 169.273 403.652 167.843 403.652 166.141V111.886C403.652 110.184 405.082 108.754 406.784 108.754H515.636C517.337 108.754 518.767 110.184 518.767 111.886V166.141C518.767 167.911 517.406 169.273 515.636 169.273Z" stroke="#C8DAFF" stroke-width="1.22535" stroke-miterlimit="10" stroke-linecap="round" stroke-linejoin="round"/>
<path d="M515.636 236.667H406.784C405.082 236.667 403.652 235.237 403.652 233.535V179.28C403.652 177.578 405.082 176.148 406.784 176.148H515.636C517.337 176.148 518.767 177.578 518.767 179.28V233.535C518.767 235.237 517.406 236.667 515.636 236.667Z" stroke="#C8DAFF" stroke-width="1.22535" stroke-miterlimit="10" stroke-linecap="round" stroke-linejoin="round"/>
<path d="M431.29 135.031H424.551V169.273H431.29V135.031Z" stroke="#C8DAFF" stroke-width="1.22535" stroke-miterlimit="10" stroke-linecap="round" stroke-linejoin="round"/>
<path d="M438.234 144.425H431.223V169.341H438.234V144.425Z" stroke="#C8DAFF" stroke-width="1.22535" stroke-miterlimit="10" stroke-linecap="round" stroke-linejoin="round"/>
<path d="M65.5246 58.583H58.7852V92.8247H65.5246V58.583Z" stroke="#C8DAFF" stroke-width="1.22535" stroke-miterlimit="10" stroke-linecap="round" stroke-linejoin="round"/>
<path d="M72.4668 67.9092H65.4551V92.8247H72.4668V67.9092Z" stroke="#C8DAFF" stroke-width="1.22535" stroke-miterlimit="10" stroke-linecap="round" stroke-linejoin="round"/>
<path d="M51.7726 72.8106H45.0332V92.8247H51.7726V72.8106Z" stroke="#C8DAFF" stroke-width="1.22535" stroke-miterlimit="10" stroke-linecap="round" stroke-linejoin="round"/>
<path d="M58.7852 52.7285H51.7734V92.7566H58.7852V52.7285Z" stroke="#C8DAFF" stroke-width="1.22535" stroke-miterlimit="10" stroke-linecap="round" stroke-linejoin="round"/>
<path d="M427.069 206.918L427.818 196.775C427.886 196.094 427.341 195.55 426.66 195.55H423.801H420.874C420.193 195.55 419.717 196.094 419.717 196.775L420.465 206.918C420.465 206.918 414.339 210.867 414.407 214.134C414.475 216.653 415.973 228.702 416.653 234.012C416.858 235.51 418.083 236.599 419.58 236.599H423.801H428.022C429.519 236.599 430.745 235.51 430.949 234.012C431.63 228.702 433.127 216.653 433.195 214.134C433.195 210.867 427.069 206.918 427.069 206.918Z" fill="#C8DAFF"/>
<path d="M459.881 139.592L460.63 129.449C460.698 128.768 460.153 128.224 459.473 128.224H456.545H453.618C452.937 128.224 452.461 128.768 452.461 129.449L453.21 139.592C453.21 139.592 447.083 143.54 447.151 146.808C447.219 149.327 448.717 161.376 449.397 166.686C449.602 168.184 450.827 169.273 452.325 169.273H456.545H460.766C462.264 169.273 463.489 168.184 463.693 166.686C464.374 161.376 465.872 149.327 465.94 146.808C466.008 143.54 459.881 139.592 459.881 139.592Z" fill="#C8DAFF"/>
<path d="M36.0469 262.263L514.613 267.505" stroke="#C8DAFF" stroke-width="1.22535" stroke-miterlimit="10" stroke-linecap="round" stroke-linejoin="round"/>
</g>
<path d="M221.996 27.2409C217.378 37.069 206.721 43.5815 199.261 41.5685C192.748 39.7924 191.564 32.0957 195.709 24.3991C199.734 17.0577 207.786 11.1372 214.773 11.0188C222.469 10.7819 226.258 17.8865 221.996 27.2409Z" fill="#F8AB5D"/>
<path d="M219.747 25.2279C215.129 35.056 204.473 41.5685 197.013 39.5555C190.5 37.7794 189.316 30.0827 193.461 22.3861C197.486 15.0447 205.538 9.12416 212.524 9.00575C220.221 8.76893 224.01 15.8735 219.747 25.2279Z" fill="#FFE779"/>
<path d="M215.959 24.7543C212.525 32.0957 204.473 37.0689 198.79 35.7664C193.698 34.5823 192.514 28.6618 195.711 22.6229C198.79 16.8208 205.302 12.2028 210.631 12.2028C216.67 12.3212 219.275 17.7681 215.959 24.7543Z" fill="#F8AB5D"/>
<path d="M200.564 31.03L201.038 30.2011C201.156 29.8459 201.156 29.609 200.919 29.4906C200.327 29.3722 199.854 29.017 199.617 28.6618C199.498 28.5433 199.498 28.1881 199.735 27.8329L199.854 27.7145C200.09 27.3593 200.564 27.2408 200.683 27.4777C201.038 27.8329 201.511 28.1881 202.222 28.3065C203.406 28.5434 204.59 27.8329 205.182 26.6488C205.774 25.5831 205.419 24.7542 204.472 24.0438C203.169 23.0965 202.696 22.1492 203.524 20.4915C204.235 19.0705 205.537 18.0049 207.077 17.768C207.314 17.768 207.55 17.5312 207.787 17.176L208.261 16.3471C208.379 15.9919 208.734 15.7551 209.09 15.7551C209.326 15.7551 209.445 15.9919 209.326 16.3471L208.971 17.0576C208.853 17.4128 208.853 17.6496 209.208 17.6496C209.682 17.768 210.037 17.8864 210.274 18.1233C210.511 18.2417 210.392 18.5969 210.155 18.9521L210.037 19.0705C209.8 19.4258 209.326 19.5442 209.208 19.3074C208.853 19.0705 208.498 18.8337 207.787 18.8337C206.485 18.7153 205.656 19.5442 205.182 20.373C204.708 21.3203 205.064 21.9124 206.129 22.7412C207.432 23.6885 207.906 24.8726 206.958 26.6488C206.248 28.1881 204.709 29.3722 202.932 29.609C202.696 29.609 202.34 29.8459 202.222 30.2011L201.748 31.1484C201.63 31.5036 201.156 31.7404 200.919 31.7404C200.446 31.7404 200.327 31.3852 200.564 31.03Z" fill="#FFE779"/>
<path d="M390.324 181.475L363.911 179.841C362.073 179.705 360.711 178.139 360.847 176.301L364.864 122.113C365 120.275 366.497 118.778 368.404 118.641L395.429 117.008C397.403 116.871 399.037 118.573 398.901 120.548L394.408 178.003C394.136 180.113 392.366 181.611 390.324 181.475Z" fill="#959DDD"/>
<path d="M388.486 181.475L362.073 179.841C360.235 179.705 358.873 178.139 359.009 176.301L363.026 122.113C363.162 120.275 364.66 118.778 366.566 118.641L393.591 117.008C395.566 116.871 397.199 118.573 397.063 120.548L392.57 178.003C392.298 180.113 390.528 181.611 388.486 181.475Z" fill="#060E47"/>
<path d="M380.384 123.339L375.347 123.611C374.938 123.611 374.666 123.339 374.666 122.93C374.666 122.522 375.006 122.181 375.415 122.181L380.452 121.909C380.861 121.909 381.133 122.181 381.133 122.59C381.133 122.998 380.793 123.339 380.384 123.339Z" fill="#63737A"/>
<path d="M383.311 123.202H383.175C382.766 123.202 382.494 122.93 382.494 122.522C382.494 122.113 382.903 121.773 383.311 121.705H383.447C383.856 121.705 384.128 121.977 384.128 122.386C384.06 122.794 383.719 123.202 383.311 123.202Z" fill="#63737A"/>
<path d="M375.416 132.393L368.677 132.597C367.996 132.597 367.451 132.052 367.519 131.303C367.588 130.555 368.2 130.01 368.881 129.942L375.62 129.67C376.301 129.67 376.846 130.214 376.778 130.963C376.778 131.712 376.165 132.324 375.416 132.393Z" fill="#63737A"/>
<path d="M373.645 155.81L366.974 155.742C366.293 155.742 365.816 155.13 365.816 154.449C365.884 153.768 366.497 153.155 367.178 153.155L373.849 153.223C374.53 153.223 375.075 153.836 375.007 154.517C374.938 155.266 374.326 155.81 373.645 155.81Z" fill="#63737A"/>
<path d="M372.215 174.735L365.544 174.395C364.863 174.395 364.387 173.782 364.387 173.033C364.455 172.353 364.999 171.74 365.68 171.808L372.351 172.08C373.032 172.08 373.577 172.693 373.509 173.442C373.509 174.191 372.896 174.735 372.215 174.735Z" fill="#63737A"/>
<path d="M387.738 147.437L367.86 147.505C367.043 147.505 366.362 146.824 366.43 145.939L367.043 137.294C367.111 136.545 367.724 136.001 368.405 136.001L388.351 135.456C389.168 135.456 389.848 136.137 389.78 137.022L389.099 146.076C389.099 146.824 388.487 147.437 387.738 147.437Z" fill="#B8D8C7"/>
<path d="M373.17 167.451L366.363 167.179C365.546 167.179 364.933 166.43 365.001 165.613L365.41 160.439C365.478 159.691 366.09 159.078 366.839 159.146L373.715 159.282C374.532 159.282 375.144 160.031 375.144 160.848L374.736 166.158C374.6 166.907 373.987 167.451 373.17 167.451Z" fill="#FFE779"/>
<path d="M386.106 167.86L378.822 167.587C378.005 167.587 377.392 166.838 377.46 166.022L377.869 160.644C377.937 159.895 378.549 159.282 379.298 159.35L386.65 159.486C387.467 159.486 388.08 160.235 388.08 161.052L387.671 166.566C387.535 167.315 386.855 167.928 386.106 167.86Z" fill="#F4C2C9"/>
<path d="M236.343 57.4257L342.949 46.3976C344.923 46.1933 346.557 47.8271 346.42 49.8013L337.298 153.547C337.094 156.134 334.848 158.04 332.329 157.904L228.787 152.322C227.017 152.254 225.724 150.688 225.792 148.986L232.055 61.9186C232.259 59.536 234.029 57.698 236.343 57.4257Z" fill="#102D6A"/>
<path d="M232.463 56.2684L340.293 45.1042C342.268 44.8999 343.969 46.5337 343.765 48.576L334.575 153.479C334.371 156.066 332.124 158.04 329.538 157.836L224.77 152.186C223 152.118 221.639 150.552 221.775 148.782L228.106 60.6933C228.378 58.3788 230.148 56.5407 232.463 56.2684Z" fill="#0051FF"/>
<path d="M243.627 78.8693L238.726 79.1416L238.113 88.2636L242.947 88.1275L243.627 78.8693Z" fill="#FFE779"/>
<path d="M238.114 88.2636L237.773 92.7565L242.607 92.6204L242.947 88.1274L238.114 88.2636Z" fill="#FED412"/>
<path d="M254.179 66.4796L249.278 66.82L248.461 78.597L253.294 78.3928L254.179 66.4796Z" fill="#FFE779"/>
<path d="M248.461 78.597L247.439 92.4843L252.273 92.3481L253.294 78.3928L248.461 78.597Z" fill="#FED412"/>
<path d="M258.673 70.7684L258.129 78.1204L262.962 77.8481L263.507 70.428L258.673 70.7684Z" fill="#FFE779"/>
<path d="M258.129 78.1205L257.107 92.2801L261.941 92.1439L262.962 77.8482L258.129 78.1205Z" fill="#FED412"/>
<path d="M272.627 77.3036L267.793 77.5759L267.453 82.7496L272.286 82.4773L272.627 77.3036Z" fill="#FFE779"/>
<path d="M267.454 82.7495L266.773 92.0077L271.607 91.8716L272.287 82.4772L267.454 82.7495Z" fill="#FED412"/>
<path d="M282.907 69.0665L282.295 76.827L281.954 81.9326L277.121 82.205L277.461 77.0313L278.074 69.4069L282.907 69.0665Z" fill="#FFE779"/>
<path d="M277.12 82.205L276.371 91.7354L281.204 91.6674L281.953 81.9326L277.12 82.205Z" fill="#FED412"/>
<path d="M321.778 63.4844L313.132 77.1674L305.576 66.8881C308.571 64.4374 312.179 62.8717 315.924 62.5994C318.102 62.4633 320.076 62.8036 321.778 63.4844Z" fill="#22272E"/>
<path d="M328.516 76.0782L313.131 77.1674L321.776 63.4844C326.542 65.3905 329.333 70.1557 328.516 76.0782Z" fill="#F4C2C9"/>
<path d="M328.517 76.0782C328.517 76.2825 328.449 76.4867 328.449 76.6909C327.019 84.7918 319.463 91.5313 311.498 92.1439L313.132 77.1674L328.517 76.0782Z" fill="#B8D8C7"/>
<path d="M313.131 77.1674L311.497 92.1439C311.089 92.212 310.612 92.212 310.204 92.212C302.103 92.212 297.133 85.6087 298.835 77.644C299.72 73.4914 302.239 69.6792 305.575 66.9562L313.131 77.1674Z" fill="white"/>
<path d="M326.338 103.785L322.798 138.299L233.824 136.665L233.96 134.01L253.226 120.735C254.111 120.123 255.268 120.123 256.153 120.803L263.369 126.113C264.458 126.93 266.092 126.726 266.909 125.569L274.056 116.038C275.078 114.677 277.12 114.677 278.141 116.106L284.472 124.888C285.289 126.045 286.923 126.318 288.08 125.433C288.965 124.752 290.19 124.752 291.075 125.364L295.568 128.564C296.725 129.381 298.359 129.109 299.176 127.883L309.251 112.362C310.068 111.137 311.702 110.864 312.859 111.681L315.786 113.792C316.944 114.609 318.509 114.404 319.326 113.247L326.338 103.785Z" fill="white"/>
<path d="M261.599 114.745H257.718C257.514 114.745 257.378 114.813 257.242 114.949L256.357 115.834C256.084 116.106 255.608 116.106 255.404 115.834L254.723 114.949C254.587 114.813 254.451 114.745 254.246 114.745H250.502C250.162 114.745 249.89 114.472 249.958 114.132L250.502 106.78C250.502 106.44 250.843 106.099 251.183 106.099L262.279 105.691C262.62 105.691 262.892 105.963 262.892 106.303L262.279 113.996C262.279 114.404 262.007 114.745 261.599 114.745Z" fill="white"/>
<path d="M297.952 118.421L294.071 118.353C293.867 118.353 293.731 118.421 293.595 118.557L292.71 119.442C292.438 119.714 292.029 119.714 291.757 119.374L291.076 118.489C290.94 118.353 290.804 118.285 290.6 118.285L286.923 118.217C286.583 118.217 286.379 117.944 286.379 117.536L286.923 110.116C286.923 109.775 287.264 109.435 287.536 109.435L298.632 109.163C298.973 109.163 299.245 109.435 299.245 109.843L298.632 117.74C298.632 118.149 298.292 118.489 297.952 118.421Z" fill="#F4C2C9"/>
<path d="M101.054 316.077C100.782 316.962 100.169 320.501 99.693 323.769C91.5921 325.131 84.6484 321.931 84.6484 321.931C84.9888 318.527 85.3292 314.987 85.3292 314.987C85.3292 313.081 101.599 314.443 101.054 316.077Z" fill="#22272E"/>
<path d="M99.6936 323.701C99.2851 326.56 98.8767 329.079 98.8767 329.079C98.8767 329.079 97.0387 333.368 92.4096 333.368C87.7124 333.368 84.0364 329.487 84.1044 327.854C84.1725 327.105 84.3768 324.518 84.6491 321.863C84.6491 321.863 91.5246 325.063 99.6936 323.701Z" fill="#F4C2C9"/>
<path d="M84.1718 326.56C84.1718 326.56 85.4652 327.99 86.2821 328.67C87.031 329.351 89.3455 327.241 92.6131 327.649C95.8807 328.058 96.9018 329.351 96.9018 329.351C96.9018 329.351 98.2633 329.079 99.0121 328.466C99.0121 328.466 99.0121 330.781 100.033 333.436C101.054 336.091 106.228 343.851 106.228 345.349C106.228 346.846 105.888 348.004 104.798 348.48C103.709 348.957 96.4934 349.025 90.4347 349.161C84.376 349.297 79.6789 349.638 78.9981 347.255C78.3174 344.872 81.1084 337.452 82.2657 332.891C83.423 328.262 83.2188 326.628 84.1718 326.56Z" fill="#22272E"/>
<path d="M85.1934 339.154C85.1934 339.154 92.4774 335.274 99.421 339.154" stroke="white" stroke-width="1.22535" stroke-miterlimit="10" stroke-linecap="round" stroke-linejoin="round"/>
<path d="M86.5547 335.342C86.5547 335.342 92.2049 333.504 98.1274 335.342" stroke="white" stroke-width="1.22535" stroke-miterlimit="10" stroke-linecap="round" stroke-linejoin="round"/>
<path d="M171.717 320.774C163.956 323.429 155.924 321.795 155.992 321.863C155.719 318.051 155.379 314.034 155.379 314.034C156.4 311.652 171.036 310.563 171.172 311.584C171.172 312.128 171.445 316.621 171.717 320.774Z" fill="#22272E"/>
<path d="M172.126 327.99C172.126 327.99 171.105 331.189 166.68 332.823C162.255 334.457 156.605 330.032 156.537 328.739C156.469 328.194 156.264 325.063 155.992 321.863C155.992 321.795 163.957 323.429 171.717 320.774C171.922 324.518 172.126 327.99 172.126 327.99Z" fill="#F4C2C9"/>
<path d="M156.399 327.786C155.923 327.786 155.582 328.466 155.31 332.755C155.038 337.044 153.676 346.506 155.31 347.936C156.944 349.365 189.552 348.957 193.296 348.685C197.04 348.412 199.082 345.962 197.925 344.328C196.768 342.694 188.735 339.699 181.655 334.933C174.575 330.168 172.873 329.147 172.056 327.99C172.056 327.99 172.465 324.109 170.355 324.722C168.244 325.335 166.815 330.372 164.092 331.053C161.437 331.666 161.028 327.513 156.399 327.786Z" fill="#22272E"/>
<path d="M183.221 335.07C183.221 335.07 181.383 334.525 177.23 338.95" stroke="white" stroke-width="1.22535" stroke-miterlimit="10" stroke-linecap="round" stroke-linejoin="round"/>
<path d="M178.729 332.142C178.729 332.142 175.461 332.006 171.717 336.839" stroke="white" stroke-width="1.22535" stroke-miterlimit="10" stroke-linecap="round" stroke-linejoin="round"/>
<path d="M87.2363 322.816L87.6448 320.093" stroke="#63737A" stroke-width="1.22535" stroke-miterlimit="10" stroke-linecap="round" stroke-linejoin="round"/>
<path d="M91.9316 323.837L92.3401 321.114" stroke="#63737A" stroke-width="1.22535" stroke-miterlimit="10" stroke-linecap="round" stroke-linejoin="round"/>
<path d="M97.1074 324.041L97.584 321.591" stroke="#63737A" stroke-width="1.22535" stroke-miterlimit="10" stroke-linecap="round" stroke-linejoin="round"/>
<path d="M159.056 322.203L158.852 319.344" stroke="#63737A" stroke-width="1.22535" stroke-miterlimit="10" stroke-linecap="round" stroke-linejoin="round"/>
<path d="M164.706 322.135L164.502 319.004" stroke="#63737A" stroke-width="1.22535" stroke-miterlimit="10" stroke-linecap="round" stroke-linejoin="round"/>
<path d="M169.812 321.318L169.607 318.391" stroke="#63737A" stroke-width="1.22535" stroke-miterlimit="10" stroke-linecap="round" stroke-linejoin="round"/>
<path d="M82.6761 163.657C82.6761 163.657 80.9742 170.669 80.77 179.995C80.5658 189.321 87.8498 218.525 90.5047 228.396C93.1596 238.335 92.615 239.833 92.2066 241.739C91.7981 243.645 87.7136 258.758 86.3521 274.415C84.9907 290.072 80.0892 302.666 80.6338 307.499C81.3827 314.034 84.1738 315.94 85.331 316.689C86.4883 317.438 96.0188 320.501 102.486 319.004C102.486 319.004 109.361 314.647 110.655 308.52C112.016 302.394 111.199 294.973 115.624 274.959C119.981 254.945 122.091 246.708 122.704 238.744C123.045 233.978 123.113 220.363 123.181 209.948C123.249 202.868 123.249 197.218 123.317 196.673C123.521 195.312 126.857 196.877 128.627 192.521C129.375 190.547 129.784 186.802 129.852 182.786C129.988 177.68 129.648 172.098 128.967 169.035C127.878 163.385 83.7653 157.666 82.6761 163.657Z" fill="#22272E"/>
<path d="M176.074 308.725C174.917 311.584 172.806 314.851 170.9 315.6C168.994 316.349 160.417 317.506 156.06 317.098C156.06 317.098 148.776 314.987 148.027 309.473C147.278 303.959 148.572 297.833 146.121 285.443C143.67 273.053 141.56 251.133 140.947 244.666C140.403 238.199 126.992 218.934 120.729 207.293C114.466 195.652 107.727 174.345 113.309 169.375C118.891 164.338 138.837 162.159 144.759 166.176C144.759 166.176 151.635 182.922 158.511 202.936C164.842 221.316 166.135 227.511 167.02 232.821C167.088 233.298 167.156 233.774 167.292 234.251C167.565 235.884 167.905 240.105 168.381 245.551C169.471 259.37 170.764 280.814 171.309 285.715C172.057 292.523 177.231 305.865 176.074 308.725Z" fill="#22272E"/>
<path d="M84.2402 195.856C84.2402 195.856 91.7965 189.73 91.8646 178.429C91.8646 178.429 87.0994 178.157 84.2402 177.476" stroke="#63737A" stroke-width="1.22535" stroke-miterlimit="10" stroke-linecap="round" stroke-linejoin="round"/>
<path d="M143.262 85.7112C143.262 85.7112 148.844 85.9835 157.83 103.955C166.816 121.859 170.015 128.394 170.015 128.394C170.015 128.394 175.938 126.965 185.605 125.399C195.271 123.833 208.886 121.859 208.886 121.859C208.886 121.859 212.562 121.927 214.128 127.169C215.217 130.981 213.515 133.704 212.494 134.929C212.154 135.338 211.745 135.678 211.201 135.882C207.048 137.652 182.813 147.864 174.576 149.634C165.522 151.54 161.098 151.267 153.065 140.239C145.032 129.211 138.701 120.634 135.774 116.209C132.846 111.58 130.736 86.3919 143.262 85.7112Z" fill="#E2A952"/>
<path d="M170.015 128.326C170.015 128.326 167.087 129.688 166.475 131.73" stroke="#22272E" stroke-width="1.22535" stroke-miterlimit="10" stroke-linecap="round" stroke-linejoin="round"/>
<path d="M209.225 122.404C209.225 122.404 212.22 121.314 212.969 120.906C213.718 120.497 215.352 117.638 216.713 115.868C218.075 114.098 221.955 113.077 223.044 113.282C224.134 113.486 224.542 114.166 224.542 114.166C224.542 114.166 227.946 112.941 230.26 111.988C232.575 111.035 236.864 108.925 237.476 110.627C237.817 111.648 235.162 113.145 233.324 114.166C231.077 115.46 229.58 116.413 229.58 116.413C229.58 116.413 230.669 116.958 230.941 118.387C231.213 119.817 231.962 121.382 230.601 123.561C230.192 124.173 231.758 125.875 230.533 127.441C228.422 129.96 223.317 131.253 220.594 132.07C217.803 132.887 211.472 133.296 211.472 133.296C211.472 133.296 209.429 132.819 208.544 128.394C207.659 123.969 209.225 122.404 209.225 122.404Z" fill="#F4C2C9"/>
<path d="M224.543 114.166C224.543 114.166 225.02 115.392 225.564 117.23C226.109 119.068 226.517 120.497 225.088 120.566C223.658 120.634 222.365 118.455 221.82 117.366" stroke="#E26E85" stroke-width="1.22535" stroke-miterlimit="10" stroke-linecap="round" stroke-linejoin="round"/>
<path d="M222.773 118.932C222.773 118.932 224.338 122.063 220.73 124.786" stroke="#E26E85" stroke-width="1.22535" stroke-miterlimit="10" stroke-linecap="round" stroke-linejoin="round"/>
<path d="M229.648 116.413L225.836 118.183" stroke="#E26E85" stroke-width="1.22535" stroke-miterlimit="10" stroke-linecap="round" stroke-linejoin="round"/>
<path d="M223.93 120.157C223.93 120.157 223.249 121.246 223.93 121.859C224.61 122.472 228.354 121.11 231.077 119.544" stroke="#E26E85" stroke-width="1.22535" stroke-miterlimit="10" stroke-linecap="round" stroke-linejoin="round"/>
<path d="M224.544 121.995C224.544 121.995 223.386 122.608 223.931 123.833C224.475 125.058 227.403 124.582 230.602 123.561" stroke="#E26E85" stroke-width="1.22535" stroke-miterlimit="10" stroke-linecap="round" stroke-linejoin="round"/>
<path d="M225.156 124.582C225.156 124.582 223.454 124.786 224.339 126.488C224.884 127.509 228.151 127.169 228.832 127.441" stroke="#E26E85" stroke-width="1.22535" stroke-miterlimit="10" stroke-linecap="round" stroke-linejoin="round"/>
<path d="M205.279 123.016C204.734 123.969 204.054 125.807 204.53 129.075C205.075 133.227 207.457 135.27 208.751 136.087" stroke="#22272E" stroke-width="1.22535" stroke-miterlimit="10" stroke-linecap="round" stroke-linejoin="round"/>
<path d="M121.207 60.7958C121.207 60.7958 119.028 71.7558 117.803 74.7511C116.577 77.7464 123.249 82.4436 129.92 82.7159C136.591 82.9882 135.911 79.1079 135.911 79.1079L137.885 68.2159C137.885 68.284 123.589 58.277 121.207 60.7958Z" fill="#F4C2C9"/>
<path d="M124.202 64.0634C123.249 72.3685 129.239 76.3849 135.911 79.5164C135.911 79.3121 135.911 79.1079 135.911 79.1079L137 73.3215C132.03 71.6877 127.674 68.1478 124.202 64.0634Z" fill="#E26E85"/>
<path d="M92.615 82.784C94.1127 78.3591 99.831 75.7042 104.46 76.1126C109.225 76.5211 118.347 76.6572 127.129 79.3802C142.106 84.0093 145.713 86.7323 146.598 87.5492C151.568 92.3144 151.091 99.3942 148.232 118.932C146.394 131.798 144.829 135.065 145.237 141.396C145.645 147.659 146.803 158.96 147.551 161.274C148.3 163.589 146.394 167.605 144.76 169.035C143.127 170.464 129.92 173.46 117.667 173.187C105.481 172.915 86.1479 169.579 83.0846 167.537C80.0212 165.495 77.8428 161.955 78.5236 158.892C79.1362 155.828 79.885 151.472 81.7911 145.004C83.6972 138.537 83.8334 130.096 86.8287 116.549C89.1432 106.542 89.4836 92.0421 92.615 82.784Z" fill="#FFE779"/>
<path d="M111.336 132.683C115.148 133.5 123.862 135.134 134.346 135.338C135.367 135.338 136.252 136.155 136.388 137.176C136.592 138.946 137.409 141.805 139.86 144.528C140.2 144.868 140.404 145.345 140.404 145.889C140.472 148.749 140.608 158.415 138.702 159.913C136.524 161.547 113.378 163.044 99.0147 159.028C98.0616 158.756 97.3809 157.939 97.3809 156.986C97.4489 154.195 97.5851 148.34 98.0616 144.664C98.1978 143.915 98.6743 143.303 99.355 142.962C101.601 141.941 106.775 139.218 108.613 134.112C109.158 133.023 110.247 132.411 111.336 132.683Z" stroke="#F8AB5D" stroke-width="1.22535" stroke-miterlimit="10" stroke-linecap="round" stroke-linejoin="round"/>
<path d="M116.917 73.1173C117.189 72.4365 118.074 72.3004 118.619 72.7769C119.912 74.1384 122.703 76.1807 127.741 77.1337C135.433 78.5633 136.182 77.406 136.182 77.406C136.182 77.406 137.408 77.8145 137.544 78.8356C137.68 79.8567 137.34 82.4436 136.999 83.737C136.591 85.0304 130.872 85.1666 126.311 84.2135C122.091 83.3285 118.347 81.4905 115.624 78.6994C115.147 78.2229 115.011 77.5422 115.283 76.9295C115.692 75.9084 116.373 74.4107 116.917 73.1173Z" fill="#E2A952"/>
<path d="M150.479 47.8616C150.479 49.2231 150.479 52.8991 149.117 56.439C147.756 59.9789 145.509 69.8498 141.084 73.0493C136.659 76.2488 126.993 75.6361 122.772 67.3991C118.551 59.2301 119.913 50.5165 122.091 43.5728C124.27 36.6292 133.256 34.1104 141.084 36.9696C148.981 39.8287 150.479 44.7982 150.479 47.8616Z" fill="#F4C2C9"/>
<path d="M121.887 52.6268C121.887 52.6268 122.364 53.1714 123.045 54.6009C123.657 56.0305 124.951 55.2136 125.427 52.6268C125.904 50.0399 126.993 48.2019 127.81 48.338C128.627 48.5423 131.486 48.8826 133.188 45.8193C134.89 42.6878 135.639 43.1643 135.639 43.1643C135.639 43.1643 137 39.8968 140.54 44.5939C144.08 49.2911 146.326 52.9671 150.547 52.2183C154.768 51.4695 158.512 44.5939 155.312 37.9907C152.045 31.3874 142.038 29.8217 134.549 31.7958C127.061 33.77 123.181 32.1362 118.688 35.9484C114.195 39.7606 115.284 43.777 115.012 48.27C114.739 52.7629 112.425 55.1455 115.488 59.1619C118.552 63.1784 117.735 66.9225 119.437 69.169C119.437 69.169 121.275 63.2464 121.07 58.9577C120.866 54.669 121.887 52.6268 121.887 52.6268Z" fill="#22272E"/>
<path d="M142.108 56.3709C141.971 59.9789 139.044 62.838 135.572 62.838C132.032 62.838 129.173 59.9108 129.241 56.2347C129.241 52.4906 132.305 49.4272 135.913 49.4953C139.521 49.5634 142.244 52.6948 142.108 56.3709Z" stroke="#22272E" stroke-width="1.22535" stroke-miterlimit="10" stroke-linecap="round" stroke-linejoin="round"/>
<path d="M152.595 60.3938C153.541 57.1451 152.464 53.9747 150.19 53.3124C147.916 52.6501 145.306 54.7469 144.36 57.9956C143.413 61.2442 144.49 64.4147 146.764 65.077C149.038 65.7392 151.649 63.6425 152.595 60.3938Z" stroke="#22272E" stroke-width="1.22535" stroke-miterlimit="10" stroke-linecap="round" stroke-linejoin="round"/>
<path d="M144.49 57.8004C144.49 57.8004 144.422 56.4389 142.039 57.1878" stroke="#22272E" stroke-width="1.22535" stroke-miterlimit="10" stroke-linecap="round" stroke-linejoin="round"/>
<path d="M129.785 53.4436L121.889 52.0141" stroke="#22272E" stroke-width="1.22535" stroke-miterlimit="10" stroke-linecap="round" stroke-linejoin="round"/>
<path d="M122.568 53.8521C122.568 53.8521 121.956 50.2442 119.028 50.1761C116.101 50.1761 114.331 59.0939 121.615 60.3193" fill="#F4C2C9"/>
<path d="M118.553 52.9671C119.165 52.831 119.914 52.9671 120.391 53.6479C120.595 53.9882 120.663 54.3967 120.663 54.8051C120.663 55.0094 120.595 55.1455 120.595 55.3497C120.595 55.4859 120.527 55.622 120.527 55.7582C120.459 56.0305 120.459 56.2347 120.459 56.4389C120.459 56.6432 120.459 56.7793 120.595 56.9155C120.799 57.2558 121.344 57.5281 121.888 57.8685C121.276 58.0047 120.595 58.1408 119.914 57.6643C119.574 57.4601 119.37 56.9835 119.302 56.6432C119.233 56.2347 119.302 55.8943 119.37 55.554C119.438 55.4178 119.438 55.2136 119.506 55.0774C119.506 54.9413 119.574 54.8732 119.574 54.7371C119.642 54.5328 119.642 54.3286 119.574 54.1925C119.506 53.7159 119.097 53.3075 118.553 52.9671Z" fill="#22272E"/>
<path d="M143.536 56.7112C143.604 57.5281 143.74 58.277 144.013 58.9577C144.149 59.2981 144.285 59.5704 144.489 59.8427C144.625 60.0469 145.034 60.5234 145.102 61C145.374 62.0211 145.034 62.9741 144.557 63.6549C144.285 63.9953 144.013 64.3356 143.604 64.5399C143.264 64.7441 142.787 64.9483 142.379 64.8802C143.06 64.4037 143.4 63.791 143.672 63.1103C143.945 62.4976 144.013 61.8169 143.877 61.2723C143.808 61 143.672 60.8638 143.4 60.3873C143.196 59.9788 143.06 59.5704 142.992 59.0939C142.992 58.277 143.128 57.392 143.536 56.7112Z" fill="#22272E"/>
<path d="M136.727 67.5351C136.727 67.5351 133.732 67.6032 132.234 64.5399" stroke="#22272E" stroke-width="1.22535" stroke-miterlimit="10" stroke-linecap="round" stroke-linejoin="round"/>
<path d="M133.937 57.6643C133.392 57.5281 133.052 56.9835 133.188 56.4389L133.461 55.4178C133.597 54.8732 134.141 54.5328 134.686 54.669C135.23 54.8051 135.571 55.3498 135.435 55.8943L135.162 56.9155C135.026 57.4601 134.482 57.8004 133.937 57.6643Z" fill="#22272E"/>
<path d="M144.761 60.4553C144.217 60.3192 143.876 59.7746 144.012 59.23L144.285 58.2089C144.421 57.6643 144.966 57.3239 145.51 57.46C146.055 57.5962 146.395 58.1408 146.259 58.6854L145.987 59.7065C145.85 60.2511 145.306 60.5915 144.761 60.4553Z" fill="#22272E"/>
<path d="M136.66 52.9671C135.911 53.1033 135.57 52.0822 134.481 52.1502C132.779 52.2183 131.826 52.5587 131.69 51.8099C131.622 51.2653 132.915 50.2441 134.549 50.1761C136.932 50.1761 138.021 52.7629 136.66 52.9671Z" fill="#22272E"/>
<path d="M144.761 55.0094C145.237 55.4178 145.918 54.669 146.599 55.1455C147.62 55.7582 147.96 56.3028 148.301 55.8263C148.573 55.4178 148.301 54.1925 147.348 53.5798C145.782 52.4906 143.74 54.2605 144.761 55.0094Z" fill="#22272E"/>
<path d="M58.9864 168.831C58.9864 168.831 58.1014 170.737 58.1014 171.894C58.1014 173.051 59.0544 183.739 58.7821 185.849C58.4418 187.96 57.8291 192.112 57.4206 192.725C57.0122 193.338 54.5615 191.432 54.4934 185.032C54.4253 178.633 52.2469 169.852 54.085 168.831C55.923 167.81 58.4418 168.014 58.9864 168.831Z" fill="#F4C2C9"/>
<path d="M14.398 200.417L30.7359 174.685C31.4848 173.528 33.0505 173.119 34.2758 173.936L72.7381 198.375C73.8954 199.124 74.3039 200.69 73.487 201.915L57.149 227.647C56.4002 228.805 54.8344 229.213 53.6091 228.396L15.1468 203.957C13.9895 203.208 13.6491 201.643 14.398 200.417Z" fill="#22272E"/>
<path d="M59.532 220.091L67.701 207.293C68.0413 206.68 68.9263 206.68 69.3348 207.225L70.6282 208.927C70.9005 209.267 70.9005 209.676 70.6963 210.084L63.3442 221.657C63.1399 221.997 62.7315 222.201 62.323 222.065L60.2127 221.657C59.532 221.453 59.1916 220.704 59.532 220.091Z" fill="#6DAFA7"/>
<path d="M57.1481 168.15C57.1481 168.15 56.7397 179.995 56.6716 182.514C56.6036 184.964 56.7397 190.002 56.127 192.385C55.5144 194.767 54.4932 200.758 52.6552 201.166C50.8172 201.575 52.7914 193.814 52.7914 192.316C52.7914 190.819 51.9745 187.211 51.9745 187.211C51.9745 187.211 51.2937 190.955 50.8172 192.589C50.3407 194.223 47.2092 199.328 45.9839 199.124C44.6904 198.92 46.2562 195.108 47.2092 192.793C48.0942 190.683 48.4346 186.258 48.4346 186.258C48.4346 186.258 47.4134 188.845 46.5965 190.206C45.7796 191.568 42.9886 195.788 41.8313 195.584C40.606 195.38 42.5801 191.091 43.7374 189.117C44.8947 187.143 44.9627 185.713 44.9627 185.713C44.9627 185.713 43.1247 187.551 41.9675 188.436C40.8102 189.321 36.7257 191.295 36.3853 190.274C36.113 189.253 37.883 188.164 39.5848 186.598C41.2867 185.101 43.1247 181.901 43.5332 181.356C43.9416 180.88 42.7843 176.047 44.6224 172.847C46.4604 169.648 47.5496 168.354 48.0261 166.176C48.4346 164.065 56.9439 166.584 57.1481 168.15Z" fill="#F4C2C9"/>
<path d="M99.6959 76.1126C99.6959 76.1126 91.9353 75.3638 82.6091 87.0727C73.2828 98.7816 64.0927 108.584 61.5059 113.213C58.919 117.911 53.2007 135.202 50.3416 148.885C47.4824 162.568 47.2101 165.018 47.2782 166.516C47.3463 167.878 54.2218 169.784 58.7148 169.716C59.5317 169.716 60.2805 169.239 60.5528 168.49C62.3227 164.338 68.5176 150.178 70.9683 145.004C73.8274 138.946 77.1631 129.96 77.5715 129.347C77.98 128.735 96.5644 109.81 100.036 104.84C103.508 99.9388 106.844 91.8379 106.095 84.7581C105.278 77.0657 101.33 76.0446 99.6959 76.1126Z" fill="#E2A952"/>
<path d="M48.2305 163.248C50.0685 164.133 55.5825 166.584 60.9605 165.903" stroke="#22272E" stroke-width="1.22535" stroke-miterlimit="10" stroke-linecap="round" stroke-linejoin="round"/>
<path d="M242.959 228.143L254.395 190.702C254.736 189.681 255.689 189 256.778 189L324.445 190.906C325.602 190.906 326.351 191.995 326.078 193.084L312.804 238.763C312.463 239.92 311.306 240.669 310.149 240.465L244.457 230.321C243.299 230.185 242.619 229.164 242.959 228.143Z" fill="#060E47"/>
<path d="M242.347 230.049L203 233.725L270.462 250.335C272.096 250.744 273.798 250.744 275.432 250.335L312.056 240.873L242.347 230.049Z" fill="#959DDD"/>
<path d="M270.531 250.335L203.068 233.725C203.068 235.019 203.953 236.108 205.179 236.448L268.761 253.331C271.416 254.012 274.275 254.012 276.93 253.195L310.286 243.392C311.444 243.051 312.192 242.03 312.192 240.805L275.568 250.267C273.798 250.744 272.096 250.744 270.531 250.335Z" fill="#22272E"/>
<path d="M287.412 197.305L282.647 213.507C282.511 213.915 282.102 214.188 281.694 214.188L254.94 211.873C254.328 211.805 253.987 211.26 254.124 210.716L258.616 195.876C258.753 195.467 259.093 195.195 259.501 195.195L286.527 196.148C287.14 196.148 287.548 196.761 287.412 197.305Z" fill="white"/>
<path d="M282.307 200.232L279.311 209.967L258.48 208.469L259.229 206.291L266.922 202.887L271.279 206.291L282.307 200.232Z" fill="#F4C2C9"/>
<path d="M266.718 220.11L264.744 226.237C264.608 226.645 264.2 226.918 263.723 226.85L250.857 225.148C250.312 225.08 249.904 224.535 250.108 223.991L251.81 218.272C251.946 217.864 252.355 217.591 252.763 217.591L265.902 218.953C266.514 218.953 266.923 219.498 266.718 220.11Z" fill="#FFE779"/>
<path d="M286.869 222.152L284.69 228.892C284.554 229.3 284.146 229.573 283.669 229.505L271.416 227.871C270.871 227.803 270.463 227.258 270.667 226.645L272.709 220.314C272.845 219.906 273.254 219.634 273.662 219.702L286.052 220.927C286.664 220.995 287.073 221.54 286.869 222.152Z" fill="#6DAFA7"/>
<path d="M310.014 224.467L307.699 231.955C307.563 232.364 307.155 232.636 306.678 232.568L291.906 230.594C291.361 230.526 290.953 229.981 291.157 229.368L293.403 222.357C293.54 221.948 293.948 221.676 294.357 221.744L309.129 223.242C309.81 223.31 310.218 223.922 310.014 224.467Z" fill="#F4C2C9"/>
<path d="M302.049 200.573C301.573 202.615 299.463 204.181 297.42 204.045C295.446 203.908 294.425 202.207 294.97 200.3C295.514 198.462 297.42 197.101 299.258 197.101C301.164 197.101 302.458 198.667 302.049 200.573Z" fill="#FFE779"/>
<path d="M306.883 198.326L316.822 198.667" stroke="#63737A" stroke-width="1.22535" stroke-miterlimit="10" stroke-linecap="round" stroke-linejoin="round"/>
<path d="M291.361 211.26L312.669 212.758" stroke="#63737A" stroke-width="1.22535" stroke-miterlimit="10" stroke-linecap="round" stroke-linejoin="round"/>
<path d="M305.725 202.343L315.664 202.751" stroke="#63737A" stroke-width="1.22535" stroke-miterlimit="10" stroke-linecap="round" stroke-linejoin="round"/>
<path d="M281.702 6.71934C279.047 4.06442 275.303 2.4987 270.674 1.9541C267.27 1.54565 264.275 1.9541 261.62 3.17945C258.352 4.60902 255.901 7.12779 254.063 10.8038L251 12.0973L252.77 13.9353L260.735 15.3649C261.211 13.7311 262.164 12.2334 263.526 10.8038C264.887 9.44234 266.725 8.89775 269.04 9.23812C271.422 9.5785 272.92 10.4635 273.533 11.893C274.145 13.3226 274.214 14.8883 273.737 16.4541C273.329 17.8156 272.58 19.0409 271.422 20.062C270.742 20.6747 269.993 21.1512 269.108 21.5597L266.385 22.9212C263.73 24.2146 261.96 25.4399 261.075 26.6653C260.462 27.5503 259.714 28.9798 258.965 31.0221L256.242 31.9071L258.012 33.7451L266.181 35.9916C266.657 34.2216 267.202 32.9963 267.678 32.2474C268.427 31.0221 269.584 30.069 271.082 29.3883L273.873 28.0949C276.732 26.8014 278.775 25.5761 280 24.555C282.042 22.8531 283.404 20.6066 284.152 17.6794C285.31 13.1865 284.493 9.51041 281.702 6.71934Z" fill="#F8AB5D"/>
<path d="M260.871 38.6464L260.599 38.5784C258.216 37.8976 255.698 39.3953 255.017 41.9821C254.268 44.569 255.561 47.292 257.944 48.1089L258.216 48.245C260.667 49.0619 263.254 47.5643 264.003 44.8413C264.752 42.1183 263.322 39.3272 260.871 38.6464Z" fill="#F8AB5D"/>
<path d="M259.918 1.34139C262.573 0.184113 265.568 -0.224338 268.972 0.116036C273.601 0.660636 277.277 2.22636 280 4.88128C282.791 7.60428 283.608 11.3484 282.383 15.9775C281.634 18.8366 280.272 21.1512 278.23 22.8531C277.073 23.8742 275.03 25.0315 272.103 26.393L269.312 27.6864C267.815 28.3671 266.657 29.3202 265.908 30.5455C265.432 31.2943 264.955 32.5878 264.411 34.2896L256.242 32.0432C257.399 28.5033 258.352 26.1887 259.305 24.9634C260.19 23.738 261.96 22.5127 264.615 21.2193L267.338 19.8578C268.223 19.4493 269.04 18.9047 269.653 18.3601C270.81 17.339 271.627 16.1817 271.967 14.7521C272.376 13.1183 272.307 11.6207 271.763 10.1911C271.218 8.76155 269.653 7.87658 267.27 7.53621C264.955 7.19583 263.117 7.74042 261.756 9.10192C260.394 10.4634 259.441 11.9611 258.965 13.6629L251 12.2334C252.906 6.7193 255.765 3.17941 259.918 1.34139ZM259.033 37.5572L259.305 37.6253C261.756 38.3741 263.185 41.0971 262.437 43.7521C261.688 46.475 259.033 47.9727 256.65 47.1558L256.378 47.0196C253.995 46.2028 252.702 43.4798 253.451 40.8929C254.2 38.3741 256.65 36.8765 259.033 37.5572Z" fill="#FFE779"/>
</svg>