<svg width="383" height="250" viewBox="0 0 383 250" fill="none" xmlns="http://www.w3.org/2000/svg">
<mask id="mask0_0_1" style="mask-type:alpha" maskUnits="userSpaceOnUse" x="68" y="0" width="204" height="250">
<rect x="68" width="204" height="250" rx="10" fill="#0052FE"/>
</mask>
<g mask="url(#mask0_0_1)">
<path d="M114.838 199.044C114.838 199.044 84.3376 237.244 83.4376 249.944C82.5376 262.644 133.538 262.144 133.638 259.544C133.838 256.944 142.238 242.144 146.238 241.844C148.838 241.644 152.838 241.444 153.538 244.644C154.538 249.144 153.538 258.544 153.538 258.544L197.438 279.144L201.738 260.844C201.738 260.844 209.138 248.944 209.138 229.344C209.138 209.744 203.438 180.844 203.438 180.844C203.438 180.844 119.838 189.644 114.838 199.044Z" fill="#22272E"/>
<path d="M165.338 238.844C165.338 238.844 153.238 240.544 152.438 270.744C151.638 300.944 149.138 349.444 145.738 356.244C142.438 363.044 143.538 371.044 149.838 374.244C156.138 377.444 163.438 381.144 172.638 380.144C181.838 379.244 186.238 373.844 186.238 363.144C186.238 352.344 190.138 322.444 196.138 298.044C202.038 273.644 206.138 249.544 193.938 240.844C181.738 232.144 165.338 238.844 165.338 238.844Z" fill="#22272E"/>
<path d="M93.6372 236.444C93.6372 236.444 75.4372 238.744 85.7372 283.844C96.0372 328.844 102.937 352.644 101.337 359.544C99.7372 366.444 104.737 370.144 110.437 371.444C116.037 372.744 127.037 372.544 133.237 369.044C139.537 365.544 140.137 359.944 137.637 349.244C135.137 338.544 134.537 295.744 134.237 281.044C133.937 266.344 137.637 241.344 119.837 234.144C101.937 226.844 93.6372 236.444 93.6372 236.444Z" fill="#22272E"/>
<path d="M105.037 266.244C113.045 266.244 119.537 259.841 119.537 251.944C119.537 244.046 113.045 237.644 105.037 237.644C97.029 237.644 90.5371 244.046 90.5371 251.944C90.5371 259.841 97.029 266.244 105.037 266.244Z" stroke="#63737A" stroke-width="1.8" stroke-miterlimit="10" stroke-linecap="round" stroke-linejoin="round"/>
<path d="M176.736 277.244C184.744 277.244 191.236 270.841 191.236 262.944C191.236 255.046 184.744 248.644 176.736 248.644C168.728 248.644 162.236 255.046 162.236 262.944C162.236 270.841 168.728 277.244 176.736 277.244Z" stroke="#63737A" stroke-width="1.8" stroke-miterlimit="10" stroke-linecap="round" stroke-linejoin="round"/>
<path d="M210.136 49.9437C210.136 49.9437 216.036 48.0437 217.936 43.7437C219.936 39.4437 219.636 26.4437 216.136 22.3437C212.636 18.2437 202.836 20.0437 196.636 18.2437C190.436 16.4437 186.136 12.4437 174.636 14.6437C163.136 16.8437 152.536 27.1437 152.036 32.7437C151.536 38.3437 154.836 40.6437 153.636 44.2437C152.336 47.7437 150.836 51.3437 156.436 56.8437C162.036 62.3437 159.836 65.9437 164.036 65.9437C168.236 65.9437 160.636 53.1437 166.036 42.1437C171.536 31.2437 207.136 37.5437 210.136 49.9437Z" fill="#22272E"/>
<path d="M93.9374 116.144C93.9374 116.144 80.7374 133.544 78.4374 146.644C76.1374 159.744 83.2374 168.244 92.0374 169.644C100.837 171.044 130.337 132.544 131.737 124.744C133.037 116.944 98.1374 110.044 93.9374 116.144Z" fill="#F4C2C9"/>
<path d="M136.037 82.1437C136.037 82.1437 129.337 80.2437 113.237 94.1437C99.7371 105.744 89.0371 116.844 89.0371 116.844C89.0371 116.844 117.437 142.644 121.337 149.344C121.337 149.344 138.837 129.144 140.337 108.744C141.837 88.2437 138.537 81.3437 136.037 82.1437Z" fill="#012777"/>
<path d="M93.9375 112.244C93.9375 112.244 114.438 128.744 125.538 143.944" stroke="#FB9245" stroke-width="1.8" stroke-miterlimit="10" stroke-linecap="round" stroke-linejoin="round"/>
<path d="M128.138 90.6438C130.638 85.0438 135.638 80.9438 141.838 80.7438C147.838 80.5438 156.938 80.6438 170.138 81.5438C198.538 83.5438 220.438 91.6438 226.238 95.8438C232.038 100.044 224.938 126.044 218.938 140.444C212.938 154.844 206.438 167.944 205.338 172.944C204.338 177.944 208.238 201.544 206.138 206.344C204.038 211.144 181.738 219.444 153.338 217.844C124.938 216.144 113.138 207.044 112.238 203.644C111.438 200.344 114.938 170.744 116.638 160.644C118.338 150.544 119.538 128.344 119.738 125.144C121.538 104.544 125.538 96.4438 128.138 90.6438Z" fill="#E4F2FF"/>
<path d="M252.139 137.144C245.039 124.944 220.439 149.244 221.039 154.644C221.039 154.644 225.439 163.844 225.439 164.844C225.439 165.844 221.039 191.144 218.039 205.344C217.139 209.744 214.439 214.644 211.139 219.344C218.939 222.244 226.839 224.644 234.939 226.244C245.539 207.744 257.739 179.444 259.639 172.444C263.139 159.344 259.239 149.344 252.139 137.144Z" fill="#F4C2C9"/>
<path d="M225.438 164.844C225.438 164.844 227.237 160.544 231.837 158.644" stroke="#E26E85" stroke-width="1.8" stroke-miterlimit="10" stroke-linecap="round" stroke-linejoin="round"/>
<path d="M226.238 95.7438C226.238 95.7438 234.338 100.244 242.338 113.744C250.238 127.244 256.538 139.544 256.538 139.544L221.338 157.944C221.338 157.944 211.138 141.244 206.938 133.744C202.738 126.244 202.338 110.844 208.238 102.244C213.938 93.7438 223.438 93.8438 226.238 95.7438Z" fill="#012777"/>
<path d="M218.039 152.644C218.039 152.644 238.539 139.144 253.639 134.144" stroke="#FB9245" stroke-width="1.8" stroke-miterlimit="10" stroke-linecap="round" stroke-linejoin="round"/>
<path d="M216.038 210.944C216.038 210.944 201.938 212.344 198.738 214.144C195.638 215.944 190.738 226.844 191.138 227.844C191.438 228.844 194.538 227.844 194.538 227.844C194.538 227.844 194.138 229.944 196.538 229.944C198.938 229.944 199.338 228.944 199.338 228.944C199.338 228.944 198.938 231.544 201.738 231.444C204.538 231.244 210.338 226.244 210.338 226.244C210.338 226.244 207.238 231.744 209.138 233.044C210.938 234.344 215.138 229.744 215.738 228.844C216.338 227.944 232.238 237.544 238.338 219.844C238.338 219.844 226.838 207.344 216.038 210.944Z" fill="#F4C2C9"/>
<path d="M156.738 80.1438C156.738 80.1438 151.938 80.6438 150.938 81.5438C149.938 82.4438 146.938 90.2438 150.938 98.3438C154.938 106.344 166.538 110.444 178.338 106.744C190.138 103.144 195.138 91.7438 194.738 88.2438C194.338 84.7438 192.238 83.6438 187.938 82.5438C183.638 81.4438 156.738 80.1438 156.738 80.1438Z" fill="#FB9245"/>
<path d="M162.437 55.0438C162.437 55.0438 162.737 64.2438 160.437 71.7438C159.437 75.1438 157.837 78.2438 156.837 80.0438C156.037 81.5438 155.437 83.1438 155.237 84.7438C154.637 88.8438 154.937 95.9438 162.437 99.3438C174.437 104.744 187.037 94.8438 188.737 86.9438C188.737 86.9438 189.437 78.7438 191.237 75.4438C193.037 72.2438 168.237 51.9438 162.437 55.0438Z" fill="#F4C2C9"/>
<path d="M187.937 89.2437C188.337 88.4437 188.537 87.6437 188.737 86.9437C188.737 86.9437 188.837 85.3437 189.237 83.2437C180.937 81.8437 173.637 77.0437 169.137 70.5437C169.737 80.3437 178.137 87.8437 187.937 89.2437Z" fill="#E26E85"/>
<path d="M87.1381 168.044C87.1381 168.044 92.0381 173.544 113.838 168.044C135.538 162.544 163.738 147.344 167.938 145.844C172.138 144.244 173.738 145.044 178.238 145.044C188.938 145.244 193.338 144.244 194.738 143.544C197.538 142.144 198.838 140.044 198.338 138.244C197.838 136.444 199.338 135.944 199.638 134.344C200.138 131.344 199.038 130.944 199.338 130.744C199.638 130.544 202.638 129.644 203.238 128.844C204.738 126.544 203.538 125.044 203.538 125.044C203.538 125.044 207.338 124.044 211.838 123.644C216.338 123.244 219.038 121.644 217.738 120.044C216.438 118.444 207.638 118.944 201.938 118.944C196.238 118.944 194.238 119.044 193.838 118.844C191.638 118.144 187.338 116.844 185.238 117.044C183.138 117.244 180.738 118.944 176.638 121.144C172.538 123.344 167.938 125.144 161.938 126.644C157.338 127.844 126.438 130.244 107.338 133.844C104.638 134.344 102.138 134.844 100.038 135.444C97.4381 136.144 95.3381 136.844 93.9381 137.544C83.5381 143.144 74.4381 157.844 87.1381 168.044Z" fill="#F4C2C9"/>
<path d="M203.439 125.044C203.439 125.044 200.839 124.644 199.939 124.444C198.939 124.244 197.539 124.244 197.539 124.244" stroke="#E26E85" stroke-width="1.8" stroke-miterlimit="10" stroke-linecap="round" stroke-linejoin="round"/>
<path d="M199.338 130.744C199.338 130.744 197.538 131.244 196.838 131.544" stroke="#E26E85" stroke-width="1.8" stroke-miterlimit="10" stroke-linecap="round" stroke-linejoin="round"/>
<path d="M198.339 137.144C198.339 137.144 196.439 138.244 195.639 138.544" stroke="#E26E85" stroke-width="1.8" stroke-miterlimit="10" stroke-linecap="round" stroke-linejoin="round"/>
<path d="M167.938 145.844C160.238 136.744 164.138 126.044 164.138 126.044L155.538 127.644C150.638 139.744 159.338 149.944 159.338 149.944L167.938 145.844Z" fill="#22272E"/>
<path d="M193.737 118.844C193.737 118.844 188.337 118.944 187.438 119.344" stroke="#E26E85" stroke-width="1.8" stroke-miterlimit="10" stroke-linecap="round" stroke-linejoin="round"/>
<path d="M107.337 133.844C104.637 134.344 102.138 134.844 100.038 135.444C97.4375 136.144 95.3375 136.844 93.9375 137.544" stroke="#E26E85" stroke-width="1.8" stroke-miterlimit="10" stroke-linecap="round" stroke-linejoin="round"/>
<path d="M163.939 137.144C163.939 134.244 161.639 131.944 158.739 131.944C155.839 131.944 153.539 134.244 153.539 137.144C153.539 140.044 155.839 142.344 158.739 142.344C161.539 142.244 163.939 139.944 163.939 137.144Z" fill="white"/>
<path d="M211.338 32.9437C211.338 32.9437 213.538 39.5438 210.438 49.3438C207.338 59.2438 205.238 62.8437 202.638 70.6437C199.938 78.4437 193.738 85.2437 183.038 84.1437C171.838 82.9437 163.038 72.7437 162.538 60.0437C162.038 47.3437 160.938 27.5437 176.038 24.0437C190.938 20.6437 208.738 29.5437 211.338 32.9437Z" fill="#F4C2C9"/>
<path d="M201.436 54.1438C201.436 55.3438 201.436 56.4438 201.636 57.5438C201.736 58.0438 201.836 58.6438 201.936 59.1438C202.036 59.4438 202.036 59.6438 202.136 59.9438L202.236 60.3438L202.336 60.8438C202.536 61.5438 202.536 62.2438 202.336 63.0438C202.036 63.7438 201.536 64.4438 200.936 64.7438C199.736 65.4438 198.436 65.5438 197.236 65.2438C198.336 64.7438 199.436 64.2438 200.036 63.6438C200.736 62.9438 200.836 62.2438 200.536 61.3438L200.436 61.0438L200.336 60.5438C200.236 60.2438 200.236 59.9438 200.136 59.6438C200.036 59.0438 200.036 58.3438 200.036 57.7438C200.336 56.3438 200.736 55.0438 201.436 54.1438Z" fill="#22272E"/>
<path d="M165.136 48.7439C165.136 48.7439 168.436 47.9439 170.536 39.2439C170.536 39.2439 171.236 37.2438 174.736 39.9438C178.136 42.6438 184.036 47.0439 194.236 42.2439C204.436 37.4439 205.736 35.8438 207.136 37.5438C207.136 37.5438 208.636 45.1439 213.836 42.7439C219.036 40.4439 216.236 26.8439 199.036 22.4439C181.836 18.0439 169.636 19.5438 164.136 29.1438C158.536 38.8438 160.736 48.1439 165.136 48.7439Z" fill="#22272E"/>
<path d="M196.537 45.5439C197.137 44.8439 197.737 43.2439 196.937 42.1439C195.837 40.4439 188.337 39.2439 186.537 40.7439C184.737 42.2439 189.237 42.4439 191.337 43.4439C193.437 44.5439 195.937 46.2439 196.537 45.5439Z" fill="#22272E"/>
<path d="M205.837 49.8439C206.037 49.2439 206.637 48.5438 207.337 48.2438C208.437 47.7438 210.737 50.0438 210.337 51.5438C209.937 53.0438 208.837 51.3438 207.837 51.1438C206.837 50.7438 205.537 50.4439 205.837 49.8439Z" fill="#22272E"/>
<path d="M190.837 51.3439C191.137 50.5439 190.737 49.6439 189.837 49.3439C189.037 49.0439 188.137 49.4439 187.837 50.3439L187.637 50.8439L190.537 51.9438L190.837 51.3439Z" fill="#22272E"/>
<path d="M205.837 56.944C206.137 56.144 205.737 55.244 204.837 54.944C204.037 54.644 203.137 55.044 202.837 55.944L202.637 56.444L205.537 57.544L205.837 56.944Z" fill="#22272E"/>
<path d="M166.937 50.4437C166.937 50.4437 165.237 43.6438 160.237 43.7438C155.237 43.8438 152.937 57.4438 164.437 59.5438" fill="#F4C2C9"/>
<path d="M159.438 49.9438C159.438 49.4438 159.537 49.0438 159.938 48.5438C160.137 48.3438 160.437 48.1438 160.837 48.1438C161.137 48.1438 161.537 48.2438 161.737 48.3438C161.837 48.3438 162.038 48.5438 162.138 48.6438C162.338 48.7438 162.338 48.9438 162.438 49.0438C162.537 49.2438 162.538 49.3438 162.638 49.4438C162.638 49.5438 162.737 49.7438 162.737 49.8438C162.837 50.3438 162.837 50.7438 162.837 51.1438C162.837 51.9438 162.837 52.7438 162.837 53.4438C162.837 53.7438 162.938 54.0438 163.138 54.3438C163.338 54.6438 163.638 54.8438 164.038 55.0438C163.638 55.2438 163.138 55.2438 162.638 55.0438C162.138 54.8438 161.738 54.3438 161.538 53.8438C161.138 52.9438 161.038 52.0438 161.038 51.1438C161.038 50.3438 160.938 49.4438 160.938 49.4438C160.737 49.2438 160.637 49.1438 160.337 49.1438C160.137 49.3438 159.838 49.6438 159.438 49.9438Z" fill="#22272E"/>
<path d="M190.536 71.7439C190.936 71.1439 191.336 70.5439 191.536 70.0439C191.936 69.1439 191.536 68.1439 190.636 67.8439C189.636 67.4439 188.336 66.7439 186.836 65.5439C183.736 63.0439 182.336 65.2439 182.536 68.0439C185.536 68.3439 188.236 70.2439 190.536 71.7439Z" fill="#22272E"/>
<path d="M182.537 67.9438C182.737 70.3438 184.037 73.2439 186.637 73.6439C188.337 73.9439 189.637 72.9439 190.537 71.7439C188.237 70.2439 185.537 68.3438 182.537 67.9438Z" fill="#E26E85"/>
</g>
<path d="M368.016 107.712L261.426 103.357C259.13 103.277 257.546 101.139 257.863 98.526L266.574 34.4611C266.89 31.927 269.108 29.868 271.404 29.7096L377.994 25.3542C380.924 25.1958 382.983 27.4131 382.666 30.264L373.956 102.565C373.639 105.574 370.946 107.87 368.016 107.712Z" fill="#B8D8C7"/>
<path d="M366.194 106.366L259.604 102.01C257.307 101.931 255.724 99.7931 256.04 97.1798L264.751 33.1149C265.068 30.5808 267.285 28.5218 269.582 28.3635L376.172 24.008C379.102 23.8496 381.161 26.0669 380.844 28.9178L372.133 101.219C371.816 104.228 369.124 106.445 366.194 106.366Z" fill="#6DAFA7"/>
<path d="M281.539 65.0286H309.731" stroke="black" stroke-width="1.42543" stroke-miterlimit="10" stroke-linecap="round" stroke-linejoin="round"/>
<path d="M306.72 88.2311L291.515 87.8351C289.139 87.756 287.556 85.697 287.872 83.2421L292.703 46.8938C293.02 44.4389 295.158 42.3799 297.534 42.3007L312.738 41.9048" stroke="black" stroke-width="1.42543" stroke-miterlimit="10" stroke-linecap="round" stroke-linejoin="round"/>
<path d="M329.369 46.1019L311.71 46.4187C310.68 46.4187 310.047 45.6268 310.126 44.5973L310.838 39.2916C310.997 38.2621 311.868 37.391 312.897 37.391L330.557 36.8367C331.586 36.8367 332.299 37.6286 332.22 38.658L331.507 44.043C331.349 45.2308 330.398 46.1019 329.369 46.1019Z" fill="#FFE779"/>
<path d="M359.778 69.7799L340.851 69.7007C339.822 69.7007 339.03 68.8296 339.188 67.7209L339.901 62.1776C340.059 61.0689 341.01 60.1978 342.039 60.1978L360.966 60.1187C362.074 60.1187 362.866 60.9897 362.708 62.0984L361.995 67.7209C361.916 68.9088 360.886 69.7799 359.778 69.7799Z" fill="#FFE779"/>
<path d="M323.43 93.2992L305.77 92.824C304.741 92.824 304.107 91.953 304.186 90.9235L304.899 85.5385C305.057 84.5091 305.929 83.638 306.958 83.7172L324.617 84.0339C325.647 84.0339 326.36 84.905 326.28 86.0137L325.568 91.4778C325.409 92.5073 324.459 93.2992 323.43 93.2992Z" fill="#FFE779"/>
<path d="M328.895 64.9492H339.585" stroke="black" stroke-width="1.42543" stroke-miterlimit="10" stroke-linecap="round" stroke-linejoin="round"/>
<path d="M326.439 69.6215L308.78 69.5423C307.75 69.5423 307.117 68.6712 307.196 67.6417L307.909 62.336C308.067 61.3065 308.938 60.4354 309.968 60.4354L327.627 60.3562C328.657 60.3562 329.369 61.2273 329.29 62.2568L328.577 67.7209C328.419 68.7504 327.469 69.6215 326.439 69.6215Z" fill="#FFE779"/>
<path d="M281.539 65.0283C281.935 62.0983 280.034 59.8018 277.341 59.8018C274.649 59.8018 272.194 62.1775 271.798 65.0283C271.402 67.8792 273.224 70.2549 275.916 70.2549C278.609 70.2549 281.143 67.9583 281.539 65.0283Z" fill="#FFE779"/>
<path d="M75.5 86.6H40.3L36.7 88.9C35.6 89.6 34 88.8 34 87.5V62.6C34 60.1 36 58 38.6 58H75.4C77.9 58 80 60 80 62.6V82C80 84.6 78 86.6 75.5 86.6Z" fill="#F4C2C9"/>
<path d="M44.5 77.3999L48 73.8999C49.9 71.9999 52.9 71.9999 54.8 73.8999C56.7 75.7999 59.7 75.7999 61.6 73.8999L68.3 67.2" stroke="#22272E" stroke-width="1.8" stroke-linecap="round" stroke-linejoin="round"/>
<path d="M69.4008 69.1999L70.6008 64.8999L66.3008 66.0999L69.4008 69.1999Z" fill="#22272E"/>
<path d="M11.4462 195.911L1.11965 147.094C0.903005 146.011 1.69735 145 2.85276 145H51.4524C52.8245 145 54.0521 146.011 54.2688 147.383L62.3567 196.705C62.5011 197.788 61.7068 198.727 60.6236 198.727L14.2625 198.149C12.8182 198.149 11.735 197.21 11.4462 195.911Z" fill="#B8D8C7"/>
<path d="M10.3622 197.066L0.0356611 148.25C-0.180979 147.167 0.613365 146.156 1.76878 146.156H50.3685C51.7405 146.156 52.9681 147.167 53.1848 148.539L61.2727 197.86C61.4171 198.944 60.6228 199.882 59.5396 199.882L13.1785 199.305C11.8064 199.305 10.651 198.366 10.3622 197.066Z" fill="#6DAFA7"/>
<path d="M15.9215 193.166L7.32812 152.438H47.4788L54.1947 193.6L15.9215 193.166Z" stroke="#22272E" stroke-width="1.29984" stroke-miterlimit="10" stroke-linecap="round" stroke-linejoin="round"/>
<path d="M19.1719 152.438L27.8375 193.311" stroke="#22272E" stroke-width="1.29984" stroke-miterlimit="10" stroke-linecap="round" stroke-linejoin="round"/>
<path d="M9.49414 162.765H48.9227" stroke="#22272E" stroke-width="1.29984" stroke-miterlimit="10" stroke-linecap="round" stroke-linejoin="round"/>
<path d="M11.5898 172.73H50.6573" stroke="#22272E" stroke-width="1.29984" stroke-miterlimit="10" stroke-linecap="round" stroke-linejoin="round"/>
<path d="M13.9727 182.84L52.5347 183.345" stroke="#22272E" stroke-width="1.29984" stroke-miterlimit="10" stroke-linecap="round" stroke-linejoin="round"/>
<path d="M26.1035 157.493H41.485" stroke="#22272E" stroke-width="1.29984" stroke-miterlimit="10" stroke-linecap="round" stroke-linejoin="round"/>
<path d="M28.127 167.747H43.5084" stroke="#22272E" stroke-width="1.29984" stroke-miterlimit="10" stroke-linecap="round" stroke-linejoin="round"/>
<path d="M30.4375 177.785L45.819 178.002" stroke="#22272E" stroke-width="1.29984" stroke-miterlimit="10" stroke-linecap="round" stroke-linejoin="round"/>
<path d="M32.6035 187.678L47.4073 188.039" stroke="#22272E" stroke-width="1.29984" stroke-miterlimit="10" stroke-linecap="round" stroke-linejoin="round"/>
<path d="M11.5176 155.038L17.8724 159.876" stroke="#F4C2C9" stroke-width="1.29984" stroke-miterlimit="10" stroke-linecap="round" stroke-linejoin="round"/>
<path d="M16.1402 155.038L12.8906 159.876" stroke="#F4C2C9" stroke-width="1.29984" stroke-miterlimit="10" stroke-linecap="round" stroke-linejoin="round"/>
<path d="M15.5625 175.402L21.9173 180.168" stroke="#F4C2C9" stroke-width="1.29984" stroke-miterlimit="10" stroke-linecap="round" stroke-linejoin="round"/>
<path d="M20.1851 175.402L16.8633 180.168" stroke="#F4C2C9" stroke-width="1.29984" stroke-miterlimit="10" stroke-linecap="round" stroke-linejoin="round"/>
<path d="M17.873 185.44L24.2278 190.278" stroke="#F4C2C9" stroke-width="1.29984" stroke-miterlimit="10" stroke-linecap="round" stroke-linejoin="round"/>
<path d="M22.4957 185.44L19.2461 190.278" stroke="#F4C2C9" stroke-width="1.29984" stroke-miterlimit="10" stroke-linecap="round" stroke-linejoin="round"/>
<path d="M13.9727 167.17L16.1391 169.408L19.2442 165.364" stroke="#FFE779" stroke-width="1.29984" stroke-miterlimit="10" stroke-linecap="round" stroke-linejoin="round"/>
<path d="M122.859 28.5234C120.195 34.1933 114.047 37.9505 109.743 36.7892C105.986 35.7645 105.303 31.3242 107.694 26.884C110.016 22.6486 114.661 19.233 118.692 19.1647C123.132 19.0281 125.318 23.1268 122.859 28.5234Z" fill="#F8AB5D"/>
<path d="M121.56 27.3621C118.896 33.032 112.748 36.7891 108.444 35.6278C104.687 34.6031 104.004 30.1629 106.395 25.7226C108.717 21.4872 113.363 18.0716 117.393 18.0033C121.833 17.8667 124.019 21.9654 121.56 27.3621Z" fill="#FFE779"/>
<path d="M119.374 27.0887C117.393 31.3241 112.748 34.1932 109.469 33.4417C106.532 32.7586 105.849 29.343 107.693 25.8591C109.469 22.5118 113.226 19.8477 116.3 19.8477C119.784 19.916 121.287 23.0583 119.374 27.0887Z" fill="#F8AB5D"/>
<path d="M110.494 30.7095L110.767 30.2313C110.835 30.0263 110.835 29.8897 110.699 29.8214C110.357 29.7531 110.084 29.5482 109.947 29.3432C109.879 29.2749 109.879 29.07 110.016 28.865L110.084 28.7967C110.22 28.5918 110.494 28.5235 110.562 28.6601C110.767 28.865 111.04 29.07 111.45 29.1383C112.133 29.2749 112.816 28.865 113.158 28.1819C113.499 27.5671 113.295 27.0889 112.748 26.6791C111.997 26.1326 111.723 25.5861 112.202 24.6297C112.611 23.81 113.363 23.1951 114.251 23.0585C114.388 23.0585 114.524 22.9219 114.661 22.717L114.934 22.2388C115.002 22.0338 115.207 21.8972 115.412 21.8972C115.549 21.8972 115.617 22.0338 115.549 22.2388L115.344 22.6487C115.276 22.8536 115.276 22.9902 115.481 22.9902C115.754 23.0585 115.959 23.1268 116.095 23.2635C116.232 23.3318 116.164 23.5367 116.027 23.7416L115.959 23.81C115.822 24.0149 115.549 24.0832 115.481 23.9466C115.276 23.81 115.071 23.6733 114.661 23.6733C113.909 23.605 113.431 24.0832 113.158 24.5614C112.885 25.1079 113.09 25.4494 113.704 25.9276C114.456 26.4741 114.729 27.1572 114.183 28.1819C113.773 29.07 112.885 29.7531 111.86 29.8897C111.723 29.8897 111.518 30.0263 111.45 30.2313L111.177 30.7778C111.109 30.9827 110.835 31.1193 110.699 31.1193C110.425 31.1193 110.357 30.9144 110.494 30.7095Z" fill="#FFE779"/>
<path d="M333.1 137.871C329.2 133.971 323.7 131.671 316.9 130.871C311.9 130.271 307.5 130.871 303.6 132.671C298.8 134.771 295.2 138.471 292.5 143.871L288 145.771L290.6 148.471L302.3 150.571C303 148.171 304.4 145.971 306.4 143.871C308.4 141.871 311.1 141.071 314.5 141.571C318 142.071 320.2 143.371 321.1 145.471C322 147.571 322.1 149.871 321.4 152.171C320.8 154.171 319.7 155.971 318 157.471C317 158.371 315.9 159.071 314.6 159.671L310.6 161.671C306.7 163.571 304.1 165.371 302.8 167.171C301.9 168.471 300.8 170.571 299.7 173.571L295.7 174.871L298.3 177.571L310.3 180.871C311 178.271 311.8 176.471 312.5 175.371C313.6 173.571 315.3 172.171 317.5 171.171L321.6 169.271C325.8 167.371 328.8 165.571 330.6 164.071C333.6 161.571 335.6 158.271 336.7 153.971C338.4 147.371 337.2 141.971 333.1 137.871Z" fill="#F8AB5D"/>
<path d="M302.5 184.771L302.1 184.671C298.6 183.671 294.9 185.871 293.9 189.671C292.8 193.471 294.7 197.471 298.2 198.671L298.6 198.871C302.2 200.071 306 197.871 307.1 193.871C308.2 189.871 306.1 185.771 302.5 184.771Z" fill="#F8AB5D"/>
<path d="M301.1 129.97C305 128.27 309.4 127.67 314.4 128.17C321.2 128.97 326.6 131.27 330.6 135.17C334.7 139.17 335.9 144.67 334.1 151.47C333 155.67 331 159.07 328 161.57C326.3 163.07 323.3 164.77 319 166.77L314.9 168.67C312.7 169.67 311 171.07 309.9 172.87C309.2 173.97 308.5 175.87 307.7 178.37L295.7 175.07C297.4 169.87 298.8 166.47 300.2 164.67C301.5 162.87 304.1 161.07 308 159.17L312 157.17C313.3 156.57 314.5 155.77 315.4 154.97C317.1 153.47 318.3 151.77 318.8 149.67C319.4 147.27 319.3 145.07 318.5 142.97C317.7 140.87 315.4 139.57 311.9 139.07C308.5 138.57 305.8 139.37 303.8 141.37C301.8 143.37 300.4 145.57 299.7 148.07L288 145.97C290.8 137.87 295 132.67 301.1 129.97ZM299.8 183.17L300.2 183.27C303.8 184.37 305.9 188.37 304.8 192.27C303.7 196.27 299.8 198.47 296.3 197.27L295.9 197.07C292.4 195.87 290.5 191.87 291.6 188.07C292.7 184.37 296.3 182.17 299.8 183.17Z" fill="#FFE779"/>
</svg>