<svg width="119" height="104" viewBox="0 0 119 104" fill="none" xmlns="http://www.w3.org/2000/svg">
<path d="M88.3678 101.331L8.42398 97.9211C6.49675 97.8538 5.13103 95.7625 5.69253 93.7386L26.1806 15.1742C26.7421 13.1503 28.3294 11.6613 30.2489 11.3937L113.362 2.77634C115.484 2.50403 117.055 4.70225 116.498 6.94947L93.0439 97.5364C92.4901 99.8953 90.5002 101.505 88.3678 101.331Z" fill="#0052FE"/>
<path d="M85.4242 98.8903L85.4145 98.8895L85.4047 98.8891L5.46097 95.4793L5.45712 95.4792C3.90999 95.4252 2.69901 93.6997 3.18996 91.9301L3.19001 91.9301L3.19197 91.9226L23.678 13.3656C23.6783 13.3644 23.6787 13.3632 23.679 13.362C24.194 11.5109 25.6314 10.1878 27.3252 9.94788L110.429 1.33148L110.429 1.33163L110.441 1.33008C111.299 1.21999 112.052 1.60245 112.548 2.27302C113.047 2.94793 113.271 3.90502 113.029 4.88463C113.029 4.88546 113.029 4.8863 113.029 4.88713L89.5756 95.4689L89.5754 95.4688L89.5728 95.4799C89.0649 97.6437 87.2658 99.0409 85.4242 98.8903Z" fill="white" stroke="#0052FE"/>
<path d="M42.7012 24.1784L28.6388 25.2843C28.1323 25.296 27.8181 24.8563 27.9065 24.2957L28.8372 20.6992C29.0269 20.1362 29.4244 19.7919 29.9309 19.7802L44.0921 18.5603C44.5985 18.5486 44.9127 18.9883 44.8243 19.549L43.7949 23.2594C43.6026 23.7107 43.2051 24.055 42.7012 24.1784Z" fill="#FFE779"/>
<path d="M14.7244 85.4869C13.3036 85.4079 12.2572 83.9797 12.6264 82.4071L18.7772 59.0276C19.058 58.0156 19.8529 57.327 20.7646 57.306C22.1828 57.2733 23.3331 58.8109 22.8626 60.3858L16.7117 83.7654C16.6336 84.7727 15.7399 85.5753 14.7244 85.4869Z" fill="#FFE779"/>
<path d="M24.7631 85.7026C23.2411 85.6259 22.1921 84.086 22.6626 82.5111L32.5335 44.6339C32.8143 43.622 33.6093 42.9333 34.6197 42.7984C36.1391 42.7634 37.2894 44.301 36.9228 45.9852L27.0518 83.8624C26.6749 85.1 25.7787 85.7909 24.7631 85.7026Z" fill="#0052FE"/>
<path d="M35.1068 86.023C33.5847 85.9463 32.5357 84.4064 32.9023 82.7221L37.002 67.0986C37.2802 65.975 38.1765 65.284 39.1895 65.2607C40.7089 65.2257 41.8617 66.8749 41.4951 68.5592L37.3955 84.1827C37.1173 85.3064 36.1198 85.9997 35.1068 86.023Z" fill="#FFE779"/>
<path d="M45.8535 86.2224C44.2302 86.148 43.1786 84.4964 43.5452 82.8122L55.184 38.0794C55.4622 36.9558 56.3584 36.2648 57.3689 36.1298C58.9896 36.0925 60.2438 37.7394 59.7784 39.5377L48.1397 84.2705C47.864 85.5058 46.8691 86.3107 45.8535 86.2224Z" fill="#6DAFA7"/>
<path d="M56.9106 86.5263C55.2872 86.452 54.1317 84.6911 54.4984 83.0068L62.1311 53.5603C62.4092 52.4367 63.4042 51.6317 64.4172 51.6084C66.1392 51.5687 67.396 53.3273 66.9307 55.1255L59.298 84.5721C59.0198 85.6957 58.0248 86.5007 56.9106 86.5263Z" fill="#0052FE"/>
<path d="M68.4701 86.8187C66.7454 86.7467 65.59 84.9858 66.0554 83.1875L67.6334 76.8948C67.9091 75.6596 69.0053 74.8523 70.1196 74.8266C71.8417 74.787 73.1009 76.6572 72.6356 78.4555L71.0576 84.7481C70.6807 85.9858 69.5844 86.793 68.4701 86.8187Z" fill="#F4C2C9"/>
<path d="M80.3348 87.1041C78.6101 87.0321 77.3508 85.1619 77.8162 83.3636L85.7322 53.0168C86.0078 51.7815 87.1015 50.8625 88.2157 50.8369C90.0391 50.7949 91.3997 52.6628 90.937 54.5727L83.021 84.9196C82.6466 86.2688 81.5503 87.0761 80.3348 87.1041Z" fill="#FFE779"/>
<path d="M90.0855 17.501C90.2701 16.7147 89.9507 16.0517 89.4443 16.0634C88.8365 16.0774 88.2441 16.7614 87.9608 17.6616C87.7762 18.4479 88.0956 19.1109 88.602 19.0993C89.2073 18.9736 89.9009 18.2873 90.0855 17.501Z" fill="#0052FE"/>
<path d="M95.346 17.0447C95.5306 16.2584 95.2112 15.5955 94.6035 15.6095C93.9957 15.6235 93.3046 16.4214 93.12 17.2077C92.9354 17.994 93.2547 18.657 93.8625 18.643C94.4677 18.5173 95.1614 17.831 95.346 17.0447Z" fill="#0052FE"/>
<path d="M100.707 16.5861C100.892 15.7998 100.573 15.1369 99.9648 15.1509C99.357 15.1649 98.6659 15.9628 98.4813 16.7491C98.2967 17.5354 98.6161 18.1984 99.2238 18.1844C99.8316 18.1704 100.523 17.3724 100.707 16.5861Z" fill="#0052FE"/>
</svg>