<svg width="110" height="102" viewBox="0 0 110 102" fill="none" xmlns="http://www.w3.org/2000/svg">
<path d="M4.50023 95.6548L12.2561 20.0034C12.5169 17.7511 14.0318 15.8885 15.9224 15.6275L105.808 2.6179C107.856 2.35859 109.563 4.44468 109.301 6.88491L99.4967 97.0785C99.2328 99.6127 97.4033 101.472 95.2799 101.448L7.67796 99.9183C5.71188 99.8967 4.23944 97.9071 4.50023 95.6548Z" fill="#0052FE"/>
<path d="M11.9949 15.1385L11.9917 15.139C10.3857 15.3607 8.99843 16.8921 8.75422 19.0728C8.75414 19.0736 8.75406 19.0743 8.75397 19.0751L0.99337 95.275C0.993229 95.2767 0.993088 95.2785 0.992955 95.2802C0.827024 97.3613 2.11052 98.981 3.59959 98.9974L3.60278 98.9975L91.9094 100.535C91.91 100.535 91.9106 100.535 91.9113 100.535C93.7131 100.554 95.3792 98.9575 95.6233 96.6136L95.6235 96.6113L105.513 5.7614C105.513 5.76132 105.513 5.76124 105.513 5.76116C105.753 3.53952 104.136 1.83952 102.506 2.0426C102.505 2.04277 102.504 2.04294 102.502 2.04312L11.9949 15.1385Z" fill="white" stroke="#0052FE"/>
<path d="M11.9795 87.8441L83.8591 88.6369L84.1261 85.8208L69.2299 60.0977C67.4553 56.9772 64.0872 55.7185 61.0822 57.1888L54.1243 60.4949C50.962 61.9634 47.4386 60.5151 45.7458 57.1136L42.745 51.0667C41.0522 47.6652 37.6074 46.2177 34.5248 47.5932C33.7342 47.9604 32.8671 48.1387 32.0807 48.13C29.9573 48.1066 28.0037 46.9575 26.6895 44.8757L17.4151 30.0207L11.9795 87.8441Z" fill="#6DAFA7"/>
<path d="M84.1278 85.8209L90.1738 29.6956" stroke="#0052FE" stroke-width="1.43064" stroke-miterlimit="10" stroke-linecap="round" stroke-linejoin="round"/>
<path d="M84.3923 83.2867L72.4703 44.629C71.2565 40.5751 67.5034 38.5604 64.1042 40.1203L57.701 43.0566C55.0923 44.2494 52.1142 43.2769 50.3334 40.7201L46.1551 34.4723C43.8331 31.0639 39.6702 30.5481 36.8845 33.5243C34.7353 35.8498 31.5078 36.0961 29.0906 34.1901L17.7051 25.3256" stroke="#0052FE" stroke-width="1.43064" stroke-miterlimit="10" stroke-linecap="round" stroke-linejoin="round"/>
<path d="M90.8039 22.2793L91.3255 17.7747C91.4114 17.1179 90.9468 16.455 90.3166 16.542L73.2273 18.5147C72.6757 18.6026 72.2773 19.0681 72.1925 19.6309L71.5964 23.7589C71.5115 24.3217 71.8996 24.7958 72.3725 24.7071L89.7691 23.3955C90.3186 23.4955 90.718 22.9361 90.8039 22.2793Z" fill="#FFE779"/>
</svg>