<svg width="149" height="121" viewBox="0 0 149 121" fill="none" xmlns="http://www.w3.org/2000/svg">
<path d="M24.4105 103.945L136.511 120.926C139.032 121.324 141.287 119.467 141.486 116.946L148.185 15.9895C148.384 13.2035 146.063 10.8819 143.277 11.0809L30.9773 18.2447C28.8547 18.3774 27.1301 20.0357 26.9311 22.1583L20.4969 99.0367C20.2979 101.358 22.0225 103.547 24.4105 103.945Z" fill="#0052FE"/>
<path d="M21.4234 103.317L21.4234 103.317L21.4313 103.318L134.062 120.365L134.066 120.366C136.286 120.717 138.285 119.083 138.464 116.844C138.464 116.843 138.464 116.842 138.464 116.841L145.229 15.4255L145.23 15.4232C145.407 12.9368 143.333 10.8051 140.788 10.9827L140.785 10.9829L28.0213 18.1467L28.0208 18.1468C26.1471 18.2639 24.619 19.7267 24.4415 21.6714C24.4414 21.6719 24.4414 21.6724 24.4413 21.6729L17.9411 98.8796L17.9413 98.8796L17.94 98.8914C17.704 101.074 19.2355 103.021 21.4234 103.317Z" fill="white" stroke="#0052FE"/>
<path d="M94.7902 69.0548L126.497 70.7794C127.492 70.8457 128.354 70.0497 128.42 69.0548L130.278 42.2568C130.344 41.1955 129.482 40.2668 128.42 40.2668L96.7138 40.4658C95.7189 40.4658 94.9229 41.1955 94.8566 42.1904L92.9993 67.0648C92.9329 68.1261 93.7289 68.9884 94.7902 69.0548Z" fill="#6DAFA7"/>
<path d="M60.6918 58.7071L87.2245 59.6357C88.2194 59.702 89.0818 58.9061 89.1481 57.9111L90.2757 42.4558C90.342 41.3945 89.4797 40.4659 88.4184 40.4659L61.8858 40.6648C60.9571 40.6648 60.1611 41.3945 60.0285 42.3895L58.9008 56.7171C58.8345 57.7784 59.6305 58.7071 60.6918 58.7071Z" fill="#FFE779"/>
<path d="M30.6441 57.7121L52.9979 58.5081C53.9929 58.5744 54.8552 57.7784 54.9215 56.7834L56.0491 42.7875C56.1155 41.7262 55.2532 40.7975 54.1918 40.7975L31.8381 40.9302C30.9094 40.9302 30.1135 41.6598 29.9808 42.6548L28.9195 55.7221C28.7868 56.7171 29.5828 57.6458 30.6441 57.7121Z" fill="#F4C2C9"/>
<path d="M92.7952 95.0568L124.502 98.506C125.563 98.6387 126.492 97.8427 126.558 96.7814L127.752 79.4688C127.818 78.4739 127.022 77.5452 126.027 77.4789L94.2545 75.3563C93.2595 75.2899 92.3309 76.0196 92.2645 77.0809L91.0706 93.0668C91.0706 94.0618 91.8002 94.9241 92.7952 95.0568Z" stroke="#63737A" stroke-width="0.523414" stroke-miterlimit="10" stroke-linecap="round" stroke-linejoin="round"/>
<path d="M57.7083 94.3935L84.1747 97.5111C85.236 97.6438 86.1646 96.8478 86.231 95.7865L88.3536 67.1975C88.4199 66.1362 87.6239 65.2739 86.6289 65.2076L60.0963 63.9473C59.1013 63.8809 58.239 64.6769 58.1726 65.6719L56.05 92.4036C55.9837 93.3985 56.7134 94.2608 57.7083 94.3935Z" fill="#F4C2C9"/>
<path d="M63.213 68.9221L82.2502 70.0497C82.7145 70.0497 83.0462 70.4477 82.9798 70.912L82.1175 82.7191C82.0512 83.1834 81.7195 83.5151 81.2552 83.4487L62.218 81.7904C61.7537 81.7241 61.422 81.3924 61.4884 80.9281L62.3507 69.6517C62.417 69.2538 62.815 68.9221 63.213 68.9221Z" fill="#6DAFA7"/>
<path d="M27.9943 87.8266L50.3481 90.2809C51.4094 90.4136 52.3381 89.6176 52.4044 88.5563L54.1954 65.5392C54.2617 64.4779 53.4657 63.6156 52.4707 63.5492L30.117 62.4879C29.122 62.4216 28.2597 63.2176 28.1933 64.2126L26.4024 85.8367C26.2697 86.8317 26.9994 87.694 27.9943 87.8266Z" fill="#FFE779"/>
<path d="M108.982 84.112L108.584 89.0206" stroke="#63737A" stroke-width="0.523414" stroke-miterlimit="10" stroke-linecap="round" stroke-linejoin="round"/>
<path d="M111.104 86.7653L106.46 86.3673" stroke="#63737A" stroke-width="0.523414" stroke-miterlimit="10" stroke-linecap="round" stroke-linejoin="round"/>
<path d="M77.211 89.5512C77.3436 88.2246 78.3386 87.1633 79.5326 87.2959C80.7265 87.4286 81.6552 88.6226 81.5225 90.0155C81.3899 91.4085 80.3285 92.4035 79.1346 92.2708C78.0069 92.0718 77.1446 90.8778 77.211 89.5512Z" fill="#22272E"/>
<path d="M73.3672 89.1533L60.9632 87.893" stroke="#22272E" stroke-width="0.523414" stroke-miterlimit="10" stroke-linecap="round" stroke-linejoin="round"/>
<path d="M45.7716 69.7844C45.9042 68.5241 46.7665 67.5954 47.8278 67.5954C48.8891 67.6618 49.6188 68.7231 49.5525 69.9834C49.4198 71.2437 48.5575 72.2387 47.4962 72.1723C46.3685 72.106 45.6389 71.0447 45.7716 69.7844Z" fill="#6DAFA7"/>
<path d="M42.3867 69.5853L31.7073 68.922" stroke="#22272E" stroke-width="0.523414" stroke-miterlimit="10" stroke-linecap="round" stroke-linejoin="round"/>
<path d="M45.1719 76.8819C45.3046 75.6216 46.1669 74.693 47.2282 74.7593C48.2895 74.8257 49.0192 75.9533 48.9529 77.2136C48.8202 78.4739 47.8915 79.4689 46.8966 79.3362C45.8353 79.2035 45.0393 78.1422 45.1719 76.8819Z" fill="#6DAFA7"/>
<path d="M41.8555 76.6166L31.1098 75.7543" stroke="#22272E" stroke-width="0.523414" stroke-miterlimit="10" stroke-linecap="round" stroke-linejoin="round"/>
<path d="M44.5704 83.9794C44.703 82.7191 45.5654 81.7904 46.6267 81.8568C47.688 81.9231 48.4176 83.0507 48.3513 84.311C48.2186 85.5713 47.29 86.5 46.295 86.4336C45.2337 86.301 44.504 85.2397 44.5704 83.9794Z" fill="#6DAFA7"/>
<path d="M41.2539 83.6477L30.5745 82.5864" stroke="#22272E" stroke-width="0.523414" stroke-miterlimit="10" stroke-linecap="round" stroke-linejoin="round"/>
<path d="M119.196 51.0125L123.507 51.0788C123.905 51.0788 124.237 50.7472 124.303 50.3492L124.635 45.8386C124.635 45.3743 124.303 45.0426 123.839 45.0426H119.527C119.129 45.0426 118.798 45.3743 118.731 45.7723L118.4 50.2165C118.466 50.6145 118.798 51.0125 119.196 51.0125Z" fill="#FFE779"/>
<path d="M114.555 45.0427L99.6301 44.9763" stroke="#22272E" stroke-width="0.523414" stroke-miterlimit="10" stroke-linecap="round" stroke-linejoin="round"/>
<path d="M114.287 48.8899L99.3625 48.7572" stroke="#22272E" stroke-width="0.523414" stroke-miterlimit="10" stroke-linecap="round" stroke-linejoin="round"/>
<path d="M47.6278 49.9513L51.0107 50.0176C51.2097 50.0176 51.4087 49.8186 51.475 49.6196L51.8066 45.308C51.8066 45.0427 51.6077 44.8437 51.3423 44.8437H47.9594C47.7604 44.8437 47.5614 45.0427 47.4951 45.2417L47.1634 49.4869C47.1634 49.6859 47.3624 49.9513 47.6278 49.9513Z" fill="#22272E"/>
<path d="M44.4434 44.7774H33.366" stroke="#22272E" stroke-width="0.523414" stroke-miterlimit="10" stroke-linecap="round" stroke-linejoin="round"/>
<path d="M44.1094 48.1604L33.0983 48.0277" stroke="#22272E" stroke-width="0.523414" stroke-miterlimit="10" stroke-linecap="round" stroke-linejoin="round"/>
<path d="M51.1445 53.6658L32.7043 53.2015" stroke="#22272E" stroke-width="0.523414" stroke-miterlimit="10" stroke-linecap="round" stroke-linejoin="round"/>
<path d="M118.471 61.294L122.783 61.4267C123.18 61.4267 123.578 61.095 123.578 60.697L123.91 56.1865C123.91 55.7222 123.578 55.3905 123.181 55.3905L118.869 55.2578C118.471 55.2578 118.139 55.5895 118.073 55.9875L117.741 60.4317C117.741 60.896 118.073 61.294 118.471 61.294Z" fill="#FFE779"/>
<path d="M113.83 55.1915L98.9055 54.7935" stroke="#22272E" stroke-width="0.523414" stroke-miterlimit="10" stroke-linecap="round" stroke-linejoin="round"/>
<path d="M113.562 59.1051L98.6379 58.6407" stroke="#22272E" stroke-width="0.523414" stroke-miterlimit="10" stroke-linecap="round" stroke-linejoin="round"/>
<path d="M107.589 29.1895L129.943 28.5262C130.673 28.5262 131.27 27.9292 131.336 27.1995L131.601 23.684C131.668 22.8216 130.938 22.092 130.142 22.1583L107.788 23.087C107.059 23.087 106.462 23.684 106.395 24.4136L106.13 27.6639C106.064 28.4598 106.727 29.1895 107.589 29.1895Z" fill="#6DAFA7"/>
<path d="M84.9746 44.9101L63.8811 44.8438" stroke="#22272E" stroke-width="0.523414" stroke-miterlimit="10" stroke-linecap="round" stroke-linejoin="round"/>
<path d="M84.709 48.6246L63.6155 48.3592" stroke="#22272E" stroke-width="0.523414" stroke-miterlimit="10" stroke-linecap="round" stroke-linejoin="round"/>
<path d="M84.3066 54.4618L72.9639 54.1965" stroke="#22272E" stroke-width="0.523414" stroke-miterlimit="10" stroke-linecap="round" stroke-linejoin="round"/>
<path d="M31.3106 28.8577C31.3769 27.8628 32.1066 27.0004 32.9689 26.9341C33.7649 26.8678 34.4282 27.7301 34.2955 28.7251C34.2292 29.7864 33.4995 30.6487 32.6372 30.6487C31.8412 30.715 31.2443 29.8527 31.3106 28.8577Z" fill="#63737A"/>
<path d="M37.2132 28.6588C37.2796 27.5975 38.0756 26.7352 38.8715 26.7352C39.7338 26.6688 40.3308 27.5311 40.2645 28.5924C40.1982 29.6538 39.4022 30.5161 38.5399 30.5161C37.7439 30.5161 37.1469 29.6538 37.2132 28.6588Z" fill="#63737A"/>
<path d="M43.3135 28.3935C43.3798 27.3322 44.1758 26.4699 45.0381 26.4035C45.9004 26.3372 46.5637 27.1995 46.4974 28.2608C46.431 29.3221 45.6351 30.1844 44.7728 30.2507C43.8441 30.3171 43.2471 29.4548 43.3135 28.3935Z" fill="#63737A"/>
<path d="M4.38293 37.5473L33.8342 37.0167C35.0282 37.0167 36.0231 36.0881 36.0895 34.8941L38.7427 2.4579C38.8091 1.33026 37.8804 0.467953 36.8191 0.534285L7.23521 3.65187C6.10757 3.78453 5.24525 4.64684 5.17892 5.77448L2.59199 35.5574C2.52566 36.685 3.32163 37.5473 4.38293 37.5473Z" fill="#F8AB5D"/>
<path d="M2.79308 37.0167L32.2443 36.486C33.4383 36.486 34.4333 35.5574 34.4996 34.3634L37.1529 1.9272C37.2192 0.79956 36.2906 -0.0627474 35.2293 0.00358431L5.64536 3.12117C4.51772 3.25383 3.6554 4.11614 3.58907 5.24378L1.00214 35.0267C0.93581 36.1543 1.79811 37.0167 2.79308 37.0167Z" fill="#FFE779"/>
<path d="M24.2871 6.03976L8.69917 7.49907" stroke="#63737A" stroke-width="0.523414" stroke-miterlimit="10" stroke-linecap="round" stroke-linejoin="round"/>
<path d="M24.0195 9.22374L8.43159 10.5504" stroke="#63737A" stroke-width="0.523414" stroke-miterlimit="10" stroke-linecap="round" stroke-linejoin="round"/>
<path d="M23.4199 16.5202L7.76565 17.5815" stroke="#63737A" stroke-width="0.523414" stroke-miterlimit="10" stroke-linecap="round" stroke-linejoin="round"/>
<path d="M23.1523 19.6377L7.5644 20.5664" stroke="#63737A" stroke-width="0.523414" stroke-miterlimit="10" stroke-linecap="round" stroke-linejoin="round"/>
<path d="M22.4922 27.0006L6.90425 27.6639" stroke="#63737A" stroke-width="0.523414" stroke-miterlimit="10" stroke-linecap="round" stroke-linejoin="round"/>
<path d="M22.2266 30.1182L6.63862 30.6488" stroke="#63737A" stroke-width="0.523414" stroke-miterlimit="10" stroke-linecap="round" stroke-linejoin="round"/>
<path d="M29.6523 7.83067L28.8564 8.82565L27.7287 7.30002" stroke="#6DAFA7" stroke-width="0.523414" stroke-miterlimit="10" stroke-linecap="round" stroke-linejoin="round"/>
<path d="M28.791 18.4438L27.995 19.3724L26.8011 17.8468" stroke="#6DAFA7" stroke-width="0.523414" stroke-miterlimit="10" stroke-linecap="round" stroke-linejoin="round"/>
<path d="M27.9336 28.8579L27.0713 29.7865L25.9436 28.1945" stroke="#6DAFA7" stroke-width="0.523414" stroke-miterlimit="10" stroke-linecap="round" stroke-linejoin="round"/>
</svg>