<svg width="114" height="124" viewBox="0 0 114 124" fill="none" xmlns="http://www.w3.org/2000/svg">
<path d="M20.9028 107.81L88.3409 113.5C91.2832 113.75 93.8815 111.591 94.1322 108.648L101.201 25.8103C101.451 22.868 99.2919 20.2697 96.3496 20.019L28.9114 14.3297C25.9691 14.079 23.3709 16.2385 23.1201 19.1808L16.1614 102.003C15.8011 104.961 17.9605 107.56 20.9028 107.81Z" fill="#0052FE"/>
<path d="M85.1144 109.732L85.1148 109.732C87.786 109.959 90.1385 107.999 90.3655 105.336L90.8637 105.379L90.3655 105.336L97.4338 22.4981C97.6615 19.8269 95.7017 17.4744 93.0386 17.2474L25.6009 11.5583L25.6004 11.5582C22.9292 11.3306 20.5767 13.2904 20.3498 15.9535L13.3911 98.7755L13.3903 98.7848L13.3892 98.7941C13.0637 101.466 15.0117 103.815 17.6767 104.042L85.1144 109.732Z" fill="white" stroke="#0052FE"/>
<path d="M35.4977 33.1289L79.3974 36.8121C80.8685 36.9374 82.0582 35.8733 82.1835 34.4022C82.3089 32.931 81.2448 31.7415 79.7736 31.6161L35.8739 27.9329C34.4028 27.8076 33.2132 28.8717 33.0878 30.3428C33.0564 31.6888 34.1361 32.9879 35.4977 33.1289Z" fill="#FFE779"/>
<path d="M81.1175 48.0807L32.0061 43.9118" stroke="#0052FE" stroke-width="1.8" stroke-miterlimit="10" stroke-linecap="round" stroke-linejoin="round"/>
<path d="M80.3968 56.3442L31.2854 52.1753" stroke="#0052FE" stroke-width="1.8" stroke-miterlimit="10" stroke-linecap="round" stroke-linejoin="round"/>
<path d="M56.5266 91.9466L74.6343 93.4981C76.1054 93.6235 77.295 92.5594 77.4204 91.0882L78.9719 72.9806C79.0973 71.5095 78.0332 70.3199 76.5621 70.1945L58.4544 68.6429C56.9833 68.5175 55.7937 69.5817 55.6683 71.0528L54.1168 89.1605C54.0853 90.5064 55.165 91.8055 56.5266 91.9466Z" fill="#FFE779"/>
<path d="M48.5933 67.7029L30.1413 66.0887" stroke="#0052FE" stroke-width="1.8" stroke-miterlimit="10" stroke-linecap="round" stroke-linejoin="round"/>
<path d="M47.8579 76.6391L29.3121 75.1501" stroke="#0052FE" stroke-width="1.8" stroke-miterlimit="10" stroke-linecap="round" stroke-linejoin="round"/>
<path d="M47.136 85.6853L35.9302 84.7136" stroke="#0052FE" stroke-width="1.8" stroke-miterlimit="10" stroke-linecap="round" stroke-linejoin="round"/>
<path d="M47.0535 15.382L71.0457 17.4351C72.736 17.5292 73.9569 15.9017 73.3937 14.3052L73.0182 13.2409C72.674 12.3958 71.9228 11.8323 71.0151 11.7382L48.0401 9.7635C47.1324 9.66949 46.3029 10.1233 45.8489 10.8588L45.3167 11.8291C44.4244 13.4097 45.3632 15.2879 47.0535 15.382Z" fill="#6DAFA7"/>
</svg>