<svg width="301" height="193" viewBox="0 0 301 193" fill="none" xmlns="http://www.w3.org/2000/svg">
<path fill-rule="evenodd" clip-rule="evenodd" d="M45.2767 152.158H97.1921V156.789H46.9644L59.5709 192.282H54.8334L22.2021 102.366L26.5529 100.78L45.2767 152.158Z" fill="black"/>
<path fill-rule="evenodd" clip-rule="evenodd" d="M7.27447 187.035C7.27447 187.035 7.91444 156.98 8.40443 133.971C8.71799 119.234 20.3261 107.225 35.0431 106.411C67.5629 104.596 99.6672 104.135 131.11 105.824C146.382 106.648 158.993 118.051 161.343 133.164C161.352 133.163 161.352 133.163 161.352 133.163C162.638 141.429 160.392 149.855 155.161 156.383C148.523 164.636 137.315 176.134 119.962 187.102C119.962 187.102 126.379 188.957 127.035 191.824C127.035 191.824 78.2077 191.767 65.764 191.754C65.3056 191.753 64.8946 191.471 64.729 191.043C64.5634 190.616 64.6772 190.13 65.0154 189.822C73.7568 181.832 106.676 151.743 106.676 151.743L51.1488 152.307C51.1488 152.307 50.2569 183.349 50.0474 190.641C50.0231 191.485 49.3281 192.157 48.4828 192.151C40.1375 192.093 0.285538 191.82 0.285538 191.82C0.285538 191.82 0.0108243 188.906 7.27447 187.035Z" fill="url(#paint0_linear_323_7732)"/>
<path fill-rule="evenodd" clip-rule="evenodd" d="M132.952 177.965L90.4457 166.553L91.7245 165.383L134.382 176.836C133.911 177.211 133.435 177.588 132.952 177.965ZM50.7518 164.781L7.6875 165.821L7.71861 164.359L50.7938 163.319L50.7518 164.781Z" fill="#82B5B2"/>
<path fill-rule="evenodd" clip-rule="evenodd" d="M106.62 151.762L121.729 151.727C121.873 151.727 121.996 151.832 122.018 151.975C122.04 152.118 121.955 152.256 121.816 152.3L97.8229 159.803L106.62 151.762ZM51.1632 152.305L50.9676 159.114L38.2236 153.377C37.9767 153.266 37.8412 152.998 37.8982 152.733C37.9553 152.467 38.1895 152.279 38.4602 152.281L51.1632 152.305Z" fill="#346864"/>
<path fill-rule="evenodd" clip-rule="evenodd" d="M125.006 43.1292C125.006 43.1292 110.333 23.3172 77.3243 31.9699C72.8792 33.1352 37.6714 44.3094 23.7825 75.7042C22.4244 78.7741 15.1019 92.7317 25.7175 100.193C33.1241 105.401 41.0661 104.436 68.8949 95.1225C71.2498 94.3338 85.7554 91.2698 83.133 87.9197C83.133 87.9197 84.3034 88.1566 84.8654 87.3778C84.8654 87.3778 84.9297 87.7791 84.9773 88.0757C85.0097 88.2784 85.1055 88.4657 85.251 88.6105C85.9162 89.2737 87.9143 91.2654 89.1712 92.5185C89.3873 92.7331 89.7031 92.8149 89.9964 92.7302C90.2896 92.647 90.5142 92.4104 90.5832 92.1124C90.9543 90.5147 91.4948 88.1871 91.4948 88.1871C91.4948 88.1871 104.697 91.0521 112.653 78.1875C112.653 78.1875 112.985 90.8944 122.821 96.0236C125.694 97.522 141.645 100.704 145.831 84.2535C148.757 72.7468 150.896 52.1863 152.766 37.4137C152.766 37.4137 162.541 31.2775 163.28 28.3385C163.546 27.2828 162.474 25.549 160.085 27.3024C160.085 27.3024 163.653 24.2686 162.462 22.8389C161.799 22.0437 160.443 22.0021 157.755 24.303C157.755 24.303 161.103 20.8747 159.574 19.5028C157.929 18.0293 156.02 21.0599 154.271 22.6913C154.271 22.6913 158.164 16.7127 155.962 15.6803C155.029 15.2429 154.021 15.1878 150.622 19.4676C147.475 23.4308 143.012 23.8398 139.777 23.451C139.777 23.451 141.051 15.9838 139.592 15.2603C137.944 14.4427 136.459 15.9043 132.879 23.2473C129.345 30.4938 127.582 37.6738 125.006 43.1292Z" fill="url(#paint1_linear_323_7732)"/>
<path fill-rule="evenodd" clip-rule="evenodd" d="M86.1409 30.2261C111.666 27.0182 123.801 41.6098 124.899 43.0065C123.234 48.9456 120.379 61.6334 120.379 61.6334L117.375 61.5914C117.423 69.0052 112.643 77.8658 112.643 77.8658L112.624 78.1776C105.059 90.4021 92.5874 88.3748 91.4097 88.1997L91.7945 86.2664L90.7947 83.4616L90.4838 82.667C90.4838 82.667 91.8632 80.8182 93.0853 79.1801C94.1164 77.7979 93.8756 75.8486 92.5389 74.759C89.866 72.58 85.9074 69.3529 85.9074 69.3529C85.8843 69.3352 85.8614 69.3176 85.8386 69.3002C82.6586 66.8672 78.6402 65.8015 74.6726 66.3389C66.2641 67.4777 49.3581 69.7677 49.3581 69.7677L39.1514 53.9867C51.0592 42.4988 65.0268 36.2388 72.4649 33.5228L86.1409 30.2261Z" fill="#82B5B2"/>
<path fill-rule="evenodd" clip-rule="evenodd" d="M84.9166 87.3736C85.2014 87.0273 86.1427 85.7202 85.2985 84.4585L84.1105 83.022C84.1105 83.022 85.777 83.2624 86.4542 83.198C86.4542 83.198 86.3612 84.8664 87.7391 85.1565C88.1161 85.2346 88.505 85.0935 88.7442 84.7918C89.409 83.9565 90.8981 82.079 90.8981 82.079C90.8981 82.079 91.7284 85.6622 91.8785 86.3102C91.8937 86.376 91.8942 86.4443 91.8796 86.5102C91.7427 87.129 91.0177 90.4083 91.0177 90.4083L90.6297 92.0791C90.5608 92.377 90.3362 92.6136 90.0429 92.6969C89.7496 92.7816 89.4339 92.6998 89.2177 92.4851C87.9608 91.232 85.9628 89.2404 85.2975 88.5772C85.1521 88.4323 85.0563 88.2451 85.0238 88.0424L84.9166 87.3736ZM79.0321 66.3214C79.0321 66.3214 84.3208 67.096 87.7145 70.8588L85.3764 59.5752L77.6289 59.62L79.0321 66.3214Z" fill="#FFBF2F"/>
<path fill-rule="evenodd" clip-rule="evenodd" d="M91.0932 90.2101L91.0528 90.3927L90.6647 92.0635C90.5958 92.3614 90.3712 92.598 90.0779 92.6812C89.7846 92.7659 89.4689 92.6842 89.2527 92.4695L87.4745 90.6965L91.0932 90.2101ZM85.843 83.1824C86.0923 83.1955 86.3211 83.1984 86.4892 83.1824C86.4892 83.1824 86.3962 84.8508 87.7742 85.1408C87.9239 85.1718 88.0753 85.1683 88.2187 85.1338L88.4331 86.1309L91.6583 85.1925L91.9136 86.2946C91.9215 86.3286 91.9253 86.3632 91.9253 86.3979L85.1919 88.3842C85.1247 88.2757 85.0793 88.1542 85.0589 88.0267L84.9517 87.358C85.0028 87.2959 85.0749 87.203 85.1541 87.0849L86.5954 86.6656L85.843 83.1824ZM82.4053 67.2685L80.7461 59.5866L82.7223 59.5752L84.6058 68.3338C83.8503 67.8949 83.0994 67.5451 82.4053 67.2685Z" fill="black"/>
<path fill-rule="evenodd" clip-rule="evenodd" d="M83.416 88.9659L78.9734 88.6107C78.6519 88.585 78.4118 88.3032 78.4375 87.9818C78.4632 87.6605 78.7449 87.4204 79.0664 87.4461L84.0707 87.846C83.5905 87.9669 83.1331 87.8743 83.1331 87.8743C83.4214 88.2425 83.5027 88.6073 83.416 88.9659ZM85.4283 83.4568C85.4692 83.4261 85.5151 83.4004 85.565 83.3809C85.565 83.3809 86.1247 83.1614 86.721 82.9274C87.4233 82.652 87.9449 82.0482 88.1152 81.3133C88.1152 81.3131 88.1152 81.3131 88.1152 81.313C88.4626 79.8141 87.8371 78.2577 86.5488 77.4163C85.0856 76.4604 83.5195 75.4374 83.5195 75.4374C83.2496 75.2611 83.1735 74.8988 83.3499 74.6289C83.5262 74.359 83.8886 74.2829 84.1585 74.4593L87.0721 76.3624L87.1501 75.7001C87.1878 75.3798 87.4784 75.1506 87.7985 75.1882C88.1188 75.2259 88.3481 75.5165 88.3104 75.8367L88.1431 77.2574C89.1777 78.4109 89.6149 80.0174 89.2534 81.5768C89.2534 81.5769 89.2534 81.5769 89.2533 81.577C88.9961 82.687 88.2085 83.5991 87.1476 84.0152C86.5513 84.249 85.9916 84.4685 85.9916 84.4685C85.7835 84.5501 85.5567 84.504 85.3978 84.368C85.2502 84.4783 85.0528 84.5171 84.8647 84.455L79.8802 82.8106C79.5739 82.7095 79.4074 82.379 79.5085 82.0727C79.6094 81.7666 79.94 81.6 80.2461 81.701L85.2309 83.3455C85.3057 83.3702 85.3721 83.4085 85.4283 83.4568ZM120.61 55.2051C120.61 55.2051 116.354 73.0503 115.421 81.0202C115.383 81.3403 115.612 81.6308 115.933 81.6683C116.253 81.7059 116.544 81.4763 116.58 81.1561C117.511 73.2278 121.748 55.4763 121.748 55.4763C121.822 55.1627 121.628 54.8473 121.314 54.7725C121.001 54.6977 120.686 54.8915 120.61 55.2051ZM52.5254 67.4003C42.3937 69.6713 36.2032 71.6004 33.1944 73.2755C32.8423 73.4714 32.7155 73.9165 32.9116 74.2686C33.1076 74.6208 33.5526 74.7475 33.9047 74.5515C36.8514 72.9112 42.9224 71.0496 52.845 68.8254C53.2381 68.7373 53.486 68.3464 53.3978 67.9532C53.3096 67.5599 52.9187 67.3122 52.5254 67.4003ZM152.948 37.2524C152.829 37.3281 152.766 37.3682 152.766 37.3682C152.631 38.4377 152.493 39.5376 152.356 40.6619L149.359 39.8737C149.245 39.8436 149.161 39.7473 149.146 39.6301C149.13 39.5129 149.187 39.398 149.289 39.3394L152.948 37.2524ZM162.652 23.1355C163.145 24.6556 160.085 27.257 160.085 27.257C160.172 27.1926 160.259 27.133 160.342 27.0779C158.208 29.0341 155.327 31.355 152.544 32.5796C152.249 32.7096 151.905 32.5756 151.775 32.2804C151.645 31.9854 151.779 31.6403 152.074 31.5104C156.758 29.4486 161.725 24.1527 162.652 23.1355ZM159.972 20.4303C159.946 22.0137 157.755 24.2576 157.755 24.2576C157.916 24.1189 158.074 23.9886 158.227 23.8666C156.077 25.9338 152.964 28.6657 150.228 30.0548C149.94 30.2008 149.588 30.0859 149.442 29.7985C149.296 29.5109 149.412 29.1591 149.699 29.013C154.112 26.7724 159.528 20.9161 159.972 20.4303ZM156.404 18.2725C155.81 20.2834 154.271 22.6458 154.271 22.6458C154.319 22.6014 154.367 22.556 154.414 22.5099C152.632 24.3746 150.227 26.416 147.52 27.4426C147.218 27.5568 146.881 27.4049 146.767 27.1035C146.653 26.802 146.805 26.4644 147.106 26.35C151.778 24.5783 155.484 19.5929 156.404 18.2725Z" fill="#82B5B2"/>
<path fill-rule="evenodd" clip-rule="evenodd" d="M67.3037 67.3218L71.8205 62.5266C72.0238 62.3109 72.339 62.2426 72.6133 62.355C72.8877 62.4673 73.0644 62.7371 73.0578 63.0336L72.9804 66.553L67.3037 67.3218ZM117.397 62.2941C117.383 61.6574 117.293 57.8889 116.904 55.303C116.875 55.1808 116.942 55.056 117.061 55.0122C117.178 54.9684 117.31 55.0194 117.367 55.1311C118.212 56.7389 119.494 59.346 120.228 61.6114L117.407 61.5719C117.408 61.8113 117.404 62.0523 117.397 62.2941Z" fill="#346864"/>
<path d="M85.0349 25.9507C91.3304 25.9507 96.434 20.8301 96.434 14.5134C96.434 8.19681 91.3304 3.07617 85.0349 3.07617C78.7393 3.07617 73.6357 8.19681 73.6357 14.5134C73.6357 20.8301 78.7393 25.9507 85.0349 25.9507Z" fill="#99C3C0"/>
<path fill-rule="evenodd" clip-rule="evenodd" d="M77.4566 23.0542C75.1126 20.9583 73.6357 17.9075 73.6357 14.5134C73.6357 8.20096 78.7436 3.07617 85.0348 3.07617C88.8883 3.07617 92.2978 4.99873 94.3617 7.93968L85.0262 16.2864C84.9144 15.9575 84.7435 15.6368 84.5127 15.3418C83.5374 14.095 81.8592 13.776 80.7675 14.6299C79.6758 15.4839 79.5813 17.1894 80.5566 18.4362C80.8597 18.8237 81.2305 19.1215 81.6306 19.3224L77.4566 23.0542Z" fill="black"/>
<path d="M211.904 34.248H203.193L206.866 46.8999H215.577L211.904 34.248Z" fill="white"/>
<path fill-rule="evenodd" clip-rule="evenodd" d="M207.077 46.6074H209.826C209.985 46.6074 210.115 46.7367 210.115 46.896C210.115 47.0553 209.985 47.1846 209.826 47.1846H206.86C206.732 47.1846 206.619 47.0998 206.584 46.9765L202.911 34.3246C202.886 34.2374 202.902 34.1434 202.957 34.0709C203.012 33.9983 203.097 33.9556 203.188 33.9556H209.298C209.458 33.9556 209.587 34.0848 209.587 34.2441C209.586 34.4034 209.458 34.5327 209.298 34.5327H203.572L207.077 46.6074Z" fill="black"/>
<path fill-rule="evenodd" clip-rule="evenodd" d="M211.639 34.5327H209.256C209.096 34.5327 208.967 34.4034 208.967 34.2441C208.967 34.0848 209.096 33.9556 209.256 33.9556H211.856C211.984 33.9556 212.097 34.0404 212.132 34.1637L215.805 46.8155C215.83 46.9028 215.814 46.9967 215.759 47.0694C215.704 47.1418 215.619 47.1846 215.529 47.1846H209.783C209.624 47.1846 209.494 47.0553 209.495 46.896C209.495 46.7367 209.625 46.6074 209.784 46.6074H215.144L211.639 34.5327Z" fill="black"/>
<path d="M211.574 35.417H204.362L204.846 36.8163H212.057L211.574 35.417Z" fill="black"/>
<path d="M212.256 37.6572H205.044L205.527 39.0566H212.739L212.256 37.6572Z" fill="black"/>
<path d="M212.938 39.9951H205.726L206.21 41.3945H213.421L212.938 39.9951Z" fill="black"/>
<path d="M213.62 42.2354H206.408L206.892 43.6347H214.103L213.62 42.2354Z" fill="black"/>
<path d="M214.399 44.5732H207.188L207.671 45.9726H214.883L214.399 44.5732Z" fill="black"/>
<path fill-rule="evenodd" clip-rule="evenodd" d="M213.871 41.5137C213.586 40.7108 211.886 35.6859 213.199 33.5523C213.288 33.4134 213.43 33.317 213.59 33.2862C214.058 33.2105 215.054 33.4075 216.463 35.6797C216.463 35.6797 229.26 54.8988 233.879 57.7702C233.879 57.7702 234.002 43.0948 251.281 40.6954C253.679 40.3623 270.535 37.0859 279.983 60.4745C283.109 68.2125 283.074 74.3995 283.018 81.0128C282.982 86.2552 280.261 91.113 275.808 93.8806C269.973 97.5084 262.738 98.075 256.41 95.398C252.164 93.6089 246.684 91.7906 240.464 90.8749L226.809 89.5547C226.809 89.5547 227.491 93.2862 221.838 92.5676C221.838 92.5676 217.386 91.9805 218.275 88.9949C218.275 88.9949 215.276 88.5097 215.895 85.6101C215.895 85.6101 213.051 83.3913 215.577 80.6828C215.577 80.6828 207.367 80.584 205.698 76.6745C205.558 76.3363 205.549 75.957 205.676 75.613C205.829 75.1879 206.227 74.7351 207.195 74.702C207.195 74.702 218.551 74.5275 221.54 73.6718L215.048 62.6276C215.048 62.6276 209.992 59.8484 208.826 55.4058C207.626 55.4114 206.606 54.4855 206.514 53.2693C206.435 52.229 207.061 51.2967 207.986 50.9396L207.455 50.9797C206.199 51.0744 205.103 50.1321 205.009 48.8768C204.933 47.8637 205.531 46.9544 206.425 46.5915C205.213 46.6474 204.169 45.7282 204.077 44.5109C203.983 43.2714 204.914 42.1892 206.152 42.0957L213.871 41.5137Z" fill="url(#paint2_linear_323_7732)"/>
<path fill-rule="evenodd" clip-rule="evenodd" d="M226.589 90.9549C223.917 90.8015 221.771 91.4427 221.771 91.4427C221.384 91.5595 220.977 91.339 220.861 90.9534C220.746 90.5678 220.965 90.1604 221.352 90.0435C221.352 90.0435 224.473 89.1077 228.015 89.6361L226.776 89.5163C226.776 89.5163 226.905 90.2188 226.589 90.9549ZM216.868 88.385C217.379 86.835 219.119 83.4161 224.645 82.5728C225.043 82.512 225.416 82.7862 225.476 83.1846C225.538 83.583 225.263 83.9559 224.864 84.0166C219.991 84.7603 218.583 87.8229 218.224 88.9533C218.11 88.9321 217.466 88.7985 216.868 88.385ZM214.808 84.2342C215.522 82.7109 217.469 80.2357 222.7 79.2613C223.096 79.1876 223.478 79.4493 223.551 79.8455C223.626 80.2417 223.363 80.6234 222.967 80.6971C216.44 81.9128 215.842 85.6639 215.862 85.5717C215.862 85.5717 215.209 85.0625 214.808 84.2342ZM213.731 80.5181C214.586 79.4106 217.29 76.3287 221.282 75.7568C221.681 75.6995 222.052 75.977 222.108 76.376C222.165 76.775 221.888 77.1452 221.489 77.2025C218.679 77.605 216.62 79.4467 215.533 80.6504C215.398 80.6477 214.694 80.6231 213.731 80.5181ZM256.206 73.1266L265.122 76.2609C265.502 76.3946 265.92 76.1945 266.054 75.8142C266.187 75.434 265.987 75.0168 265.607 74.8831L256.691 71.7487C256.31 71.615 255.893 71.8153 255.759 72.1954C255.626 72.5757 255.826 72.9928 256.206 73.1266ZM220.746 72.3372C221.682 72.1522 231.986 70.1515 239.501 70.2323C239.904 70.2366 240.228 70.5673 240.224 70.9704C240.22 71.3733 239.888 71.697 239.485 71.6927C231.733 71.6093 221.307 73.6909 221.507 73.6334L220.746 72.3372ZM215.015 62.5892L217.274 63.6055C217.568 63.7415 217.693 64.0892 217.559 64.3816C217.422 64.674 217.074 64.8011 216.782 64.6651L216.03 64.315L215.015 62.5892ZM213.455 40.2871C214.777 40.5024 215.717 41.2082 216.059 41.7664C216.823 43.0123 216.521 44.2352 215.79 45.1062C215.837 45.3383 215.918 45.6924 216.039 46.1239C216.215 46.2482 216.364 46.3776 216.489 46.5067C217.165 47.2091 217.209 47.9546 217.222 48.1846C217.236 48.4618 217.212 48.7196 217.153 48.9588C217.79 50.1572 218.687 51.3392 219.953 52.0193C220.236 52.1718 220.343 52.5263 220.191 52.8103C220.039 53.0944 219.684 53.2012 219.399 53.0487C218.863 52.7604 218.381 52.3969 217.948 51.9837C217.949 51.9893 217.951 51.9947 217.952 52.0002C218.427 53.4836 217.666 55.085 216.211 55.6518C213.997 56.5207 210.895 56.5783 209.199 56.5319C209.036 56.1579 208.899 55.7695 208.793 55.3675C208.644 55.3682 213.23 55.5664 215.785 54.5636C216.676 54.2166 217.136 53.2305 216.83 52.3249C216.826 52.3148 216.823 52.3046 216.82 52.2943C216.601 51.6919 216.002 51.3113 215.363 51.3718L214.159 51.4855C213.928 51.554 213.782 51.584 213.782 51.584C213.665 51.6079 213.549 51.5949 213.446 51.5529L206.641 52.1961C206.879 51.6073 207.352 51.1331 207.954 50.9012L213.944 50.3324C214.299 50.22 214.835 50.0111 215.292 49.6681C215.722 49.3455 216.091 48.8941 216.055 48.249C216.048 48.1214 216.023 47.7076 215.647 47.3174C215.183 46.8364 214.272 46.4313 212.529 46.391C212.483 46.39 212.437 46.3834 212.395 46.372C210.355 46.4395 208.263 46.4709 206.184 46.553C205.42 46.5178 204.743 46.0971 204.362 45.47C207.384 45.2984 210.469 45.2863 213.416 45.1652C213.832 45.1481 214.286 44.9334 214.65 44.6082C214.699 44.52 214.773 44.4452 214.862 44.3931C215.314 43.8704 215.507 43.1431 215.063 42.3766C214.651 41.6665 213.838 41.4753 213.838 41.4753C213.771 41.2849 213.623 40.8571 213.455 40.2871ZM217.149 51.6024C216.952 51.6856 216.921 51.7725 216.906 51.8007C216.937 51.7565 216.975 51.7162 217.017 51.6817C217.057 51.6503 217.101 51.6236 217.149 51.6025L217.159 51.5984L217.149 51.6024ZM216.493 50.1553C216.437 50.2162 216.378 50.2751 216.318 50.3318C216.456 50.3787 216.591 50.4371 216.719 50.5063C216.64 50.3903 216.566 50.2732 216.493 50.1553Z" fill="#FD9500"/>
<path fill-rule="evenodd" clip-rule="evenodd" d="M233.878 57.7689L233.927 57.799C233.927 57.799 234.049 43.1236 251.328 40.7242C253.726 40.3911 270.583 37.1147 280.031 60.5033C280.064 60.5847 280.096 60.6657 280.129 60.7465C274.529 66.6402 268.373 62.1979 268.373 62.1979C265.363 71.3996 255.739 67.4461 255.739 67.4461L258.852 74.0942C251.581 71.4235 237.436 71.8112 237.436 71.8112C234.503 68.1156 233.947 61.4601 233.878 57.7689Z" fill="#FD9500"/>
<path fill-rule="evenodd" clip-rule="evenodd" d="M255.44 73.0406C255.44 73.0406 253.562 66.9785 252.209 62.6185C252.149 62.4231 252.249 62.2138 252.437 62.1366C252.627 62.0595 252.845 62.1401 252.938 62.3222C255.332 67.0027 258.941 74.0557 258.941 74.0557L255.44 73.0406Z" fill="#E86135"/>
<path fill-rule="evenodd" clip-rule="evenodd" d="M202.055 112.377C215.613 95.9324 243.688 102.033 249.868 102.848C289.869 108.121 280.997 138.848 279.551 142.773C276.376 151.385 268.732 154.716 257.324 155.874V189.3C257.324 189.3 253.842 186.191 253.042 182.659C253.042 182.659 251.669 182.575 249.294 182.337C249.294 182.337 251.101 187.239 252.052 189.822C252.183 190.175 252.132 190.569 251.916 190.877C251.701 191.187 251.349 191.371 250.972 191.371H205.549C208.023 186.855 212.894 186.893 212.894 186.893C210.991 182.126 209.028 177.491 207.095 172.759C194.655 167.789 183.686 160.411 180.34 149.517C179.041 145.29 178.275 126.694 202.055 112.377Z" fill="url(#paint3_linear_323_7732)"/>
<path fill-rule="evenodd" clip-rule="evenodd" d="M208.454 176.012C212.977 178.295 220.806 180.412 225.995 171.704C226.105 171.518 226.29 171.393 226.502 171.356C226.714 171.321 226.93 171.381 227.095 171.52C227.095 171.52 230.34 174.264 234.332 175.619C236.633 176.4 239.192 176.731 241.491 175.694C243.013 175.006 244.409 173.716 245.55 171.594C245.739 171.239 246.182 171.105 246.538 171.296C246.893 171.487 247.026 171.93 246.835 172.285C245.51 174.752 243.861 176.225 242.091 177.024C239.449 178.217 236.506 177.9 233.861 177.002C230.72 175.935 228.012 174.061 226.812 173.154C221.593 181.179 214.203 180.044 209.258 177.959L208.914 177.128C208.792 176.834 208.671 176.541 208.55 176.247L208.454 176.012Z" fill="#FD9500"/>
<path fill-rule="evenodd" clip-rule="evenodd" d="M241.287 156.189C241.287 156.189 228.888 156.138 222.065 156.11C221.786 156.109 221.548 156.316 221.511 156.594C221.476 156.871 221.651 157.133 221.922 157.203C229.072 159.078 242.768 162.671 242.768 162.671L241.287 156.189Z" fill="#FD9500"/>
<path fill-rule="evenodd" clip-rule="evenodd" d="M258.218 155.824C257.921 155.857 257.625 155.89 257.324 155.92V157.346C251.879 157.687 246.835 157.772 241.916 157.705L250.854 182.53C250.398 182.489 249.875 182.441 249.294 182.383L250.597 185.92C250.522 185.845 250.461 185.753 250.423 185.647L240.355 157.68C239.435 157.661 238.519 157.638 237.603 157.61C237.202 157.598 236.885 157.261 236.896 156.859C236.908 156.456 237.245 156.139 237.647 156.151C244.199 156.348 250.828 156.325 258.218 155.824ZM205.724 108.768C197.401 116.19 194.118 124.289 196.414 138.4C197.976 148.01 202.098 160.36 208.941 177.081C208.987 177.191 209.003 177.306 208.994 177.417C208.36 175.885 207.726 174.35 207.095 172.805C206.513 172.573 205.934 172.334 205.359 172.091C199.787 158 196.37 147.229 194.972 138.636C193.262 128.129 194.537 120.819 198.555 114.68C199.657 113.917 200.823 113.165 202.055 112.423C203.184 111.053 204.414 109.84 205.724 108.768Z" fill="#FD9500"/>
<path d="M238.066 39.9564C243.983 39.9564 248.78 35.124 248.78 29.163C248.78 23.202 243.983 18.3696 238.066 18.3696C232.148 18.3696 227.352 23.202 227.352 29.163C227.352 35.124 232.148 39.9564 238.066 39.9564Z" fill="#FFBF2F"/>
<path fill-rule="evenodd" clip-rule="evenodd" d="M229.791 22.3199C231.757 19.8842 234.754 18.3266 238.11 18.3266C244.024 18.3266 248.824 23.1628 248.824 29.1199C248.824 30.3375 248.624 31.5082 248.255 32.5997C246.365 32.4343 245.291 31.027 244.922 30.4385C245.613 30.0828 246.093 29.2985 246.093 28.3892C246.093 27.1458 245.195 26.1362 244.088 26.1362C242.981 26.1362 242.083 27.1458 242.083 28.3892C242.083 28.6831 242.132 28.9641 242.224 29.2217C235.436 29.9529 231.119 24.3487 229.791 22.3199ZM234.658 16.6086C234.935 16.7021 235.24 16.5952 235.4 16.3491C235.557 16.1032 235.53 15.7808 235.329 15.5666C235.272 15.4963 235.208 15.428 235.141 15.3576C233.453 13.597 231.551 11.9992 229.526 10.6477C223.295 6.48963 215.872 3.37941 208.574 1.72909C201.035 0.0244263 191.625 -0.0715234 184.964 4.34011C180.581 7.24221 177.304 13.3829 181.082 18.1782C182.437 19.8982 184.384 21.0936 186.396 21.8986C194.543 25.1572 203.037 23.1014 210.776 19.8385C215.182 17.9806 219.564 15.5178 224.363 14.7535C227.376 14.2738 232.024 15.6761 234.658 16.6086Z" fill="black"/>
<path fill-rule="evenodd" clip-rule="evenodd" d="M276.015 156.211L296.402 101.17L300.752 102.756L268.38 191.585H262.913L274.3 160.84H241.866V156.211H276.015Z" fill="black"/>
<path d="M197.752 43.8916H136.466L143.717 86.9336H205.003L197.752 43.8916Z" fill="black"/>
<path d="M182.003 84.8047H168.32L170.311 96.62H183.994L182.003 84.8047Z" fill="black"/>
<path d="M194.36 47.2036H140.752L146.747 82.7861H200.354L194.36 47.2036Z" fill="#EAEAEB"/>
<path d="M192.672 50.2236H174.457L177.12 66.029H195.335L192.672 50.2236Z" fill="white"/>
<path fill-rule="evenodd" clip-rule="evenodd" d="M175.006 50.7102L175.927 56.1775C175.967 56.4159 175.806 56.6421 175.568 56.6823C175.329 56.7225 175.103 56.5615 175.063 56.323L174.056 50.3449C174.034 50.2177 174.07 50.0876 174.153 49.9892C174.237 49.8907 174.359 49.834 174.488 49.834H192.703C192.917 49.834 193.099 49.9884 193.135 50.1993L194.142 56.1775C194.182 56.4159 194.021 56.6421 193.783 56.6823C193.544 56.7225 193.318 56.5615 193.278 56.323L192.333 50.7102H175.006Z" fill="black"/>
<path fill-rule="evenodd" clip-rule="evenodd" d="M194.815 65.6037L193.245 56.2874C193.205 56.0489 193.366 55.8227 193.604 55.7825C193.843 55.7423 194.069 55.9033 194.109 56.1418L195.765 65.9691C195.786 66.0962 195.75 66.2263 195.667 66.3247C195.584 66.4232 195.462 66.4798 195.333 66.4798H177.117C176.904 66.4798 176.721 66.3255 176.685 66.1146L175.03 56.2874C174.99 56.0489 175.151 55.8227 175.389 55.7825C175.628 55.7423 175.854 55.9033 175.894 56.1418L177.488 65.6037H194.815Z" fill="black"/>
<path fill-rule="evenodd" clip-rule="evenodd" d="M183.772 66.0291H182.884L180.204 50.2236H181.094L183.772 66.0291ZM190.252 66.0291H189.363L186.684 50.2236H187.572L190.252 66.0291Z" fill="black"/>
<path fill-rule="evenodd" clip-rule="evenodd" d="M194.766 62.4001H176.551L176.404 61.5238H194.619L194.766 62.4001ZM194.11 58.5043H175.895L175.748 57.628H193.963L194.11 58.5043ZM193.405 54.3148H175.19L175.041 53.4385H193.257L193.405 54.3148Z" fill="black"/>
<path fill-rule="evenodd" clip-rule="evenodd" d="M169.826 79.5584H184.363L180.324 55.5811H169.826" fill="white"/>
<path fill-rule="evenodd" clip-rule="evenodd" d="M179.985 56.0677H169.857C169.615 56.0677 169.419 55.8714 169.419 55.6295C169.419 55.3877 169.616 55.1914 169.857 55.1914H180.355C180.569 55.1914 180.752 55.3458 180.787 55.5567L184.827 79.5341C184.848 79.6612 184.812 79.7913 184.729 79.8898C184.646 79.9882 184.523 80.045 184.395 80.045H169.857C169.615 80.045 169.419 79.8487 169.419 79.6069C169.419 79.365 169.615 79.1687 169.857 79.1687H183.877L179.985 56.0677Z" fill="black"/>
<path fill-rule="evenodd" clip-rule="evenodd" d="M169.804 55.5811H148.74L152.78 79.5584H169.804" fill="white"/>
<path fill-rule="evenodd" clip-rule="evenodd" d="M153.181 79.1687H169.835C170.076 79.1687 170.273 79.365 170.273 79.6069C170.273 79.8487 170.077 80.045 169.835 80.045H152.81C152.597 80.045 152.414 79.8905 152.378 79.6796L148.339 55.7024C148.318 55.5752 148.353 55.4451 148.436 55.3466C148.52 55.2482 148.642 55.1914 148.771 55.1914H169.835C170.077 55.1914 170.273 55.3877 170.273 55.6295C170.273 55.8714 170.077 56.0677 169.835 56.0677H149.289L153.181 79.1687Z" fill="black"/>
<path d="M180.302 55.5811H148.74L149.225 58.4604H180.787L180.302 55.5811Z" fill="black"/>
<path fill-rule="evenodd" clip-rule="evenodd" d="M183.212 72.8493H151.65L151.502 71.9731H183.065L183.212 72.8493ZM181.911 65.1273H150.35L150.201 64.251H181.763L181.911 65.1273Z" fill="black"/>
<path fill-rule="evenodd" clip-rule="evenodd" d="M160.901 79.5583H160.013L155.948 55.5811H156.836L160.901 79.5583ZM169.501 79.5583H168.612L164.547 55.5811H165.437L169.501 79.5583ZM177.994 79.5583H177.106L173.042 55.5811H173.93L177.994 79.5583Z" fill="black"/>
<path d="M180.952 69.4794C180.971 69.7186 180.925 69.9404 180.814 70.1449C180.697 70.3443 180.526 70.5088 180.289 70.6392C180.052 70.7641 179.765 70.8426 179.427 70.869C179.022 70.9007 178.685 70.8543 178.41 70.7248C178.219 70.6334 178.053 70.5009 177.925 70.3318C177.791 70.1632 177.72 69.9953 177.707 69.8284C177.699 69.7283 177.727 69.6422 177.796 69.5696C177.859 69.492 177.942 69.4519 178.051 69.4434C178.137 69.4367 178.213 69.4587 178.28 69.5038C178.347 69.5545 178.405 69.6339 178.453 69.7365C178.515 69.8604 178.58 69.9616 178.65 70.0401C178.713 70.119 178.805 70.1846 178.918 70.2317C179.036 70.2784 179.181 70.2951 179.358 70.2812C179.604 70.262 179.8 70.1907 179.946 70.0674C180.091 69.9441 180.155 69.7992 180.142 69.6323C180.131 69.4989 180.083 69.3963 179.991 69.3196C179.904 69.2424 179.791 69.1897 179.656 69.1555C179.521 69.1213 179.34 69.0907 179.119 69.0576C178.822 69.0137 178.57 68.9551 178.363 68.8817C178.156 68.8084 177.993 68.6981 177.86 68.5518C177.734 68.405 177.662 68.2203 177.644 67.9867C177.627 67.7698 177.674 67.5702 177.781 67.3884C177.893 67.2117 178.06 67.0644 178.282 66.9575C178.509 66.8446 178.78 66.7786 179.094 66.754C179.345 66.7344 179.565 66.7452 179.752 66.7921C179.94 66.8389 180.101 66.9103 180.229 67.001C180.357 67.0917 180.451 67.1907 180.517 67.2975C180.582 67.4042 180.619 67.5077 180.628 67.6133C180.635 67.7079 180.608 67.7996 180.545 67.8772C180.476 67.9609 180.394 68.0066 180.291 68.0146C180.194 68.0222 180.123 68.0053 180.069 67.9649C180.013 67.9188 179.956 67.8505 179.891 67.7493C179.805 67.605 179.704 67.4953 179.595 67.42C179.485 67.3446 179.316 67.3131 179.082 67.3314C178.87 67.3479 178.702 67.4059 178.578 67.5107C178.454 67.61 178.394 67.7266 178.404 67.8545C178.41 67.9324 178.438 68.0029 178.488 68.0549C178.539 68.1125 178.6 68.1525 178.683 68.1908C178.766 68.2235 178.849 68.2506 178.931 68.2721C179.013 68.2881 179.147 68.3112 179.333 68.3414C179.566 68.3791 179.782 68.4182 179.975 68.4646C180.163 68.517 180.33 68.5824 180.468 68.6611C180.606 68.7398 180.718 68.8485 180.804 68.9818C180.889 69.115 180.936 69.2792 180.952 69.4794Z" fill="black"/>
<path fill-rule="evenodd" clip-rule="evenodd" d="M178.559 66.5911L179.183 71.1344C179.216 71.374 179.437 71.5418 179.676 71.509C179.916 71.4762 180.083 71.255 180.051 71.0154L179.428 66.4721C179.396 66.2325 179.174 66.0647 178.935 66.0975C178.694 66.1304 178.527 66.3516 178.559 66.5911Z" fill="black"/>
<path fill-rule="evenodd" clip-rule="evenodd" d="M152.837 59.8923L153.338 62.8047C153.379 63.043 153.607 63.2031 153.845 63.1622C154.083 63.1211 154.244 62.8943 154.202 62.656L153.701 59.7438C153.66 59.5055 153.433 59.3453 153.195 59.3863C152.957 59.4273 152.797 59.654 152.837 59.8923Z" fill="black"/>
<path fill-rule="evenodd" clip-rule="evenodd" d="M155.565 74.7966L156.066 77.709C156.107 77.9473 156.335 78.1074 156.573 78.0665C156.811 78.0254 156.971 77.7986 156.929 77.5603L156.428 74.6481C156.387 74.4098 156.161 74.2496 155.923 74.2906C155.685 74.3316 155.524 74.5583 155.565 74.7966Z" fill="black"/>
<path fill-rule="evenodd" clip-rule="evenodd" d="M162.936 67.3927C163.07 67.3733 163.182 67.4834 163.29 67.6192C163.47 67.8419 163.602 68.168 163.655 68.5394C163.709 68.911 163.676 69.2609 163.567 69.5256C163.502 69.6863 163.426 69.8239 163.292 69.8433C163.052 69.878 162.887 70.1005 162.922 70.3398C162.957 70.579 163.178 70.7453 163.418 70.7105C163.755 70.6615 164.055 70.4478 164.262 70.095C164.5 69.6889 164.619 69.0758 164.523 68.4135C164.427 67.7513 164.138 67.1975 163.795 66.8756C163.496 66.5964 163.148 66.4766 162.811 66.5255C162.571 66.5603 162.406 66.7826 162.44 67.022C162.475 67.2613 162.697 67.4274 162.936 67.3927Z" fill="black"/>
<path fill-rule="evenodd" clip-rule="evenodd" d="M163.292 69.799C163.16 69.8183 163.046 69.7083 162.938 69.5727C162.76 69.3496 162.628 69.0237 162.574 68.6521C162.52 68.2807 162.554 67.9306 162.662 67.6662C162.727 67.5054 162.804 67.3677 162.937 67.3484C163.176 67.3137 163.343 67.0912 163.308 66.8519C163.273 66.6125 163.05 66.4465 162.811 66.4813C162.473 66.5303 162.175 66.7438 161.968 67.0966C161.729 67.5029 161.611 68.1158 161.707 68.778C161.803 69.4402 162.09 69.9944 162.435 70.316C162.734 70.5952 163.081 70.7153 163.418 70.6663C163.658 70.6315 163.824 70.4089 163.79 70.1696C163.755 69.9304 163.532 69.7643 163.292 69.799Z" fill="black"/>
<path fill-rule="evenodd" clip-rule="evenodd" d="M164.105 75.0885C164.239 75.0691 164.351 75.1792 164.459 75.315C164.639 75.5377 164.771 75.8638 164.824 76.2352C164.878 76.6068 164.845 76.9567 164.736 77.2214C164.671 77.3821 164.595 77.5197 164.461 77.5391C164.221 77.5738 164.056 77.7963 164.091 78.0356C164.125 78.2748 164.347 78.4411 164.587 78.4063C164.924 78.3573 165.224 78.1436 165.431 77.7908C165.669 77.3847 165.788 76.7716 165.692 76.1093C165.596 75.4471 165.307 74.8933 164.964 74.5714C164.665 74.2922 164.317 74.1724 163.979 74.2213C163.74 74.2561 163.575 74.4784 163.609 74.7178C163.644 74.9571 163.866 75.1232 164.105 75.0885Z" fill="black"/>
<path fill-rule="evenodd" clip-rule="evenodd" d="M164.461 77.4953C164.329 77.5146 164.215 77.4046 164.107 77.2689C163.929 77.0459 163.797 76.72 163.743 76.3484C163.689 75.977 163.723 75.6269 163.83 75.3625C163.896 75.2017 163.973 75.0639 164.106 75.0447C164.345 75.01 164.512 74.7875 164.477 74.5482C164.442 74.3088 164.219 74.1428 163.98 74.1776C163.642 74.2266 163.344 74.4401 163.137 74.7929C162.898 75.1992 162.78 75.812 162.876 76.4743C162.972 77.1365 163.259 77.6907 163.604 78.0123C163.903 78.2915 164.25 78.4116 164.587 78.3626C164.827 78.3278 164.993 78.1052 164.958 77.8659C164.924 77.6267 164.701 77.4606 164.461 77.4953Z" fill="black"/>
<path fill-rule="evenodd" clip-rule="evenodd" d="M172.678 75.0885C172.811 75.0691 172.924 75.1792 173.032 75.315C173.211 75.5377 173.343 75.8638 173.397 76.2352C173.451 76.6068 173.417 76.9567 173.308 77.2214C173.243 77.3821 173.167 77.5197 173.033 77.5391C172.794 77.5738 172.628 77.7963 172.663 78.0356C172.698 78.2748 172.92 78.4411 173.159 78.4063C173.497 78.3573 173.796 78.1436 174.004 77.7908C174.241 77.3847 174.36 76.7716 174.264 76.1093C174.168 75.4471 173.88 74.8933 173.536 74.5714C173.237 74.2922 172.889 74.1724 172.552 74.2213C172.312 74.2561 172.147 74.4784 172.182 74.7178C172.216 74.9571 172.438 75.1232 172.678 75.0885Z" fill="black"/>
<path fill-rule="evenodd" clip-rule="evenodd" d="M173.033 77.4953C172.901 77.5146 172.788 77.4046 172.679 77.2689C172.501 77.0459 172.37 76.72 172.316 76.3484C172.262 75.977 172.295 75.6269 172.403 75.3625C172.468 75.2017 172.545 75.0639 172.678 75.0447C172.917 75.01 173.084 74.7875 173.049 74.5482C173.015 74.3088 172.791 74.1428 172.552 74.1776C172.214 74.2266 171.916 74.4401 171.709 74.7929C171.47 75.1992 171.352 75.812 171.448 76.4743C171.544 77.1365 171.831 77.6907 172.176 78.0123C172.475 78.2915 172.822 78.4116 173.159 78.3626C173.399 78.3278 173.565 78.1052 173.531 77.8659C173.496 77.6267 173.273 77.4606 173.033 77.4953Z" fill="black"/>
<path d="M163.037 17.5201L146.013 10.4795L136.237 31.8993L153.261 38.9399L163.037 17.5201Z" fill="#DD6140"/>
<path d="M160.56 19.1195L146.5 13.3047L145.229 16.089L159.289 21.9039L160.56 19.1195Z" fill="white"/>
<path fill-rule="evenodd" clip-rule="evenodd" d="M146.033 18.5768C146.626 18.8333 146.911 19.5026 146.664 20.0735C146.416 20.6445 145.734 20.8949 145.141 20.6384L144.967 21.0404C145.785 21.3945 146.724 21.0361 147.065 20.2474C147.407 19.4587 147.025 18.5288 146.208 18.1748L146.033 18.5768Z" fill="white"/>
<path fill-rule="evenodd" clip-rule="evenodd" d="M145.159 20.5971C144.566 20.3406 144.282 19.6714 144.529 19.1004C144.776 18.5294 145.459 18.2791 146.051 18.5356L146.225 18.1335C145.406 17.7789 144.467 18.1372 144.126 18.926C143.784 19.7147 144.166 20.6445 144.985 20.9991L145.159 20.5971Z" fill="white"/>
<path fill-rule="evenodd" clip-rule="evenodd" d="M144.573 21.986C145.165 22.2425 145.45 22.9117 145.203 23.4827C144.956 24.0537 144.273 24.3041 143.68 24.0476L143.506 24.4496C144.324 24.8036 145.263 24.4453 145.604 23.6566C145.946 22.8678 145.564 21.938 144.747 21.584L144.573 21.986Z" fill="white"/>
<path fill-rule="evenodd" clip-rule="evenodd" d="M143.698 24.0063C143.106 23.7498 142.821 23.0806 143.068 22.5096C143.315 21.9386 143.998 21.6883 144.59 21.9447L144.764 21.5427C143.945 21.1881 143.006 21.5464 142.665 22.3351C142.324 23.1239 142.705 24.0537 143.524 24.4083L143.698 24.0063Z" fill="white"/>
<path fill-rule="evenodd" clip-rule="evenodd" d="M143.014 25.4929C143.606 25.7493 143.891 26.4186 143.644 26.9896C143.397 27.5605 142.714 27.8109 142.122 27.5544L141.948 27.9564C142.765 28.3105 143.704 27.9522 144.046 27.1634C144.387 26.3747 144.006 25.4449 143.188 25.0908L143.014 25.4929Z" fill="white"/>
<path fill-rule="evenodd" clip-rule="evenodd" d="M142.139 27.5131C141.547 27.2566 141.262 26.5874 141.509 26.0164C141.756 25.4454 142.439 25.1951 143.032 25.4516L143.206 25.0495C142.387 24.6949 141.448 25.0533 141.106 25.842C140.765 26.6307 141.146 27.5606 141.965 27.9152L142.139 27.5131Z" fill="white"/>
<path fill-rule="evenodd" clip-rule="evenodd" d="M141.553 28.903C142.145 29.1595 142.43 29.8287 142.183 30.3997C141.936 30.9707 141.253 31.221 140.66 30.9646L140.486 31.3666C141.304 31.7206 142.243 31.3623 142.584 30.5736C142.926 29.7848 142.544 28.855 141.727 28.501L141.553 28.903Z" fill="white"/>
<path fill-rule="evenodd" clip-rule="evenodd" d="M140.678 30.9228C140.086 30.6663 139.801 29.9971 140.048 29.4261C140.295 28.8551 140.978 28.6048 141.57 28.8612L141.744 28.4592C140.925 28.1046 139.986 28.4629 139.645 29.2517C139.303 30.0404 139.685 30.9702 140.504 31.3248L140.678 30.9228Z" fill="white"/>
<path fill-rule="evenodd" clip-rule="evenodd" d="M149.54 20.1354C150.133 20.3919 150.418 21.0612 150.17 21.6321C149.923 22.2031 149.24 22.4535 148.648 22.197L148.474 22.599C149.292 22.9531 150.231 22.5947 150.572 21.806C150.914 21.0173 150.532 20.0874 149.714 19.7334L149.54 20.1354Z" fill="white"/>
<path fill-rule="evenodd" clip-rule="evenodd" d="M148.666 22.1557C148.073 21.8992 147.789 21.23 148.036 20.659C148.283 20.088 148.966 19.8377 149.558 20.0942L149.732 19.6921C148.913 19.3375 147.974 19.6958 147.633 20.4846C147.291 21.2733 147.673 22.2031 148.492 22.5577L148.666 22.1557Z" fill="white"/>
<path fill-rule="evenodd" clip-rule="evenodd" d="M148.079 23.5446C148.672 23.8011 148.957 24.4703 148.71 25.0413C148.462 25.6123 147.78 25.8626 147.187 25.6062L147.013 26.0082C147.831 26.3622 148.77 26.0039 149.111 25.2152C149.453 24.4264 149.071 23.4966 148.253 23.1426L148.079 23.5446Z" fill="white"/>
<path fill-rule="evenodd" clip-rule="evenodd" d="M147.205 25.5649C146.612 25.3084 146.328 24.6392 146.575 24.0682C146.822 23.4972 147.505 23.2468 148.097 23.5033L148.271 23.1013C147.452 22.7467 146.513 23.105 146.172 23.8937C145.83 24.6825 146.212 25.6123 147.031 25.9669L147.205 25.5649Z" fill="white"/>
<path fill-rule="evenodd" clip-rule="evenodd" d="M146.521 26.9548C147.113 27.2113 147.398 27.8805 147.151 28.4515C146.904 29.0224 146.221 29.2728 145.628 29.0163L145.454 29.4184C146.272 29.7724 147.211 29.4141 147.553 28.6253C147.894 27.8366 147.513 26.9068 146.695 26.5527L146.521 26.9548Z" fill="white"/>
<path fill-rule="evenodd" clip-rule="evenodd" d="M145.646 28.9745C145.054 28.7181 144.769 28.0488 145.016 27.4778C145.263 26.9069 145.946 26.6565 146.539 26.913L146.713 26.511C145.894 26.1564 144.955 26.5147 144.613 27.3034C144.272 28.0921 144.653 29.022 145.472 29.3766L145.646 28.9745Z" fill="white"/>
<path fill-rule="evenodd" clip-rule="evenodd" d="M145.059 30.4616C145.652 30.7181 145.937 31.3873 145.69 31.9583C145.442 32.5293 144.76 32.7796 144.167 32.5231L143.993 32.9252C144.811 33.2792 145.75 32.9209 146.091 32.1322C146.433 31.3434 146.051 30.4136 145.233 30.0596L145.059 30.4616Z" fill="white"/>
<path fill-rule="evenodd" clip-rule="evenodd" d="M144.185 32.4814C143.592 32.2249 143.308 31.5557 143.555 30.9847C143.802 30.4137 144.485 30.1634 145.077 30.4198L145.251 30.0178C144.432 29.6632 143.493 30.0215 143.152 30.8102C142.81 31.599 143.192 32.5288 144.011 32.8834L144.185 32.4814Z" fill="white"/>
<path fill-rule="evenodd" clip-rule="evenodd" d="M153.047 21.5964C153.64 21.8529 153.924 22.5221 153.677 23.0931C153.43 23.664 152.747 23.9144 152.155 23.6579L151.981 24.06C152.799 24.414 153.738 24.0557 154.079 23.2669C154.42 22.4782 154.039 21.5484 153.221 21.1943L153.047 21.5964Z" fill="white"/>
<path fill-rule="evenodd" clip-rule="evenodd" d="M152.173 23.6166C151.58 23.3601 151.295 22.6909 151.543 22.1199C151.79 21.549 152.473 21.2986 153.065 21.5551L153.239 21.1531C152.42 20.7985 151.481 21.1568 151.14 21.9455C150.798 22.7342 151.179 23.6641 151.999 24.0187L152.173 23.6166Z" fill="white"/>
<path fill-rule="evenodd" clip-rule="evenodd" d="M151.489 25.0065C152.081 25.263 152.366 25.9322 152.119 26.5032C151.872 27.0742 151.189 27.3246 150.596 27.0681L150.422 27.4701C151.24 27.8241 152.179 27.4658 152.52 26.6771C152.862 25.8884 152.48 24.9585 151.663 24.6045L151.489 25.0065Z" fill="white"/>
<path fill-rule="evenodd" clip-rule="evenodd" d="M150.614 27.0263C150.022 26.7698 149.737 26.1006 149.984 25.5296C150.231 24.9586 150.914 24.7083 151.506 24.9648L151.681 24.5627C150.861 24.2081 149.922 24.5664 149.581 25.3552C149.24 26.1439 149.621 27.0737 150.44 27.4283L150.614 27.0263Z" fill="white"/>
<path fill-rule="evenodd" clip-rule="evenodd" d="M150.028 28.5134C150.62 28.7699 150.905 29.4391 150.658 30.0101C150.411 30.581 149.728 30.8314 149.135 30.5749L148.961 30.9769C149.779 31.331 150.718 30.9727 151.059 30.1839C151.401 29.3952 151.02 28.4654 150.202 28.1113L150.028 28.5134Z" fill="white"/>
<path fill-rule="evenodd" clip-rule="evenodd" d="M149.153 30.5331C148.561 30.2767 148.276 29.6074 148.523 29.0364C148.77 28.4655 149.453 28.2151 150.046 28.4716L150.22 28.0696C149.4 27.715 148.461 28.0733 148.12 28.862C147.779 29.6507 148.16 30.5806 148.979 30.9352L149.153 30.5331Z" fill="white"/>
<path fill-rule="evenodd" clip-rule="evenodd" d="M148.566 31.9225C149.159 32.179 149.444 32.8483 149.196 33.4192C148.949 33.9902 148.266 34.2406 147.674 33.9841L147.5 34.3861C148.318 34.7402 149.257 34.3818 149.598 33.5931C149.939 32.8044 149.558 31.8745 148.74 31.5205L148.566 31.9225Z" fill="white"/>
<path fill-rule="evenodd" clip-rule="evenodd" d="M147.692 33.9428C147.099 33.6863 146.814 33.0171 147.062 32.4461C147.309 31.8751 147.992 31.6248 148.584 31.8813L148.758 31.4792C147.939 31.1246 147 31.4829 146.659 32.2717C146.317 33.0604 146.698 33.9902 147.518 34.3449L147.692 33.9428Z" fill="white"/>
<path fill-rule="evenodd" clip-rule="evenodd" d="M156.554 23.155C157.147 23.4115 157.431 24.0807 157.184 24.6517C156.937 25.2226 156.254 25.473 155.662 25.2165L155.488 25.6185C156.305 25.9726 157.244 25.6143 157.586 24.8255C157.927 24.0368 157.546 23.107 156.728 22.7529L156.554 23.155Z" fill="white"/>
<path fill-rule="evenodd" clip-rule="evenodd" d="M155.68 25.1752C155.087 24.9187 154.802 24.2495 155.049 23.6785C155.297 23.1076 155.979 22.8572 156.572 23.1137L156.746 22.7117C155.927 22.357 154.988 22.7154 154.646 23.5041C154.305 24.2928 154.686 25.2227 155.505 25.5773L155.68 25.1752Z" fill="white"/>
<path fill-rule="evenodd" clip-rule="evenodd" d="M154.995 26.5651C155.588 26.8216 155.873 27.4908 155.626 28.0618C155.378 28.6328 154.696 28.8832 154.103 28.6267L153.929 29.0287C154.747 29.3827 155.686 29.0244 156.027 28.2357C156.369 27.4469 155.987 26.5171 155.169 26.1631L154.995 26.5651Z" fill="white"/>
<path fill-rule="evenodd" clip-rule="evenodd" d="M154.121 28.5849C153.528 28.3284 153.244 27.6592 153.491 27.0882C153.738 26.5172 154.421 26.2669 155.013 26.5234L155.187 26.1213C154.368 25.7667 153.429 26.125 153.088 26.9138C152.746 27.7025 153.128 28.6323 153.947 28.9869L154.121 28.5849Z" fill="white"/>
<path fill-rule="evenodd" clip-rule="evenodd" d="M153.534 29.9743C154.127 30.2308 154.412 30.9 154.165 31.471C153.917 32.042 153.235 32.2923 152.642 32.0358L152.468 32.4379C153.286 32.7919 154.225 32.4336 154.566 31.6449C154.908 30.8561 154.526 29.9263 153.708 29.5723L153.534 29.9743Z" fill="white"/>
<path fill-rule="evenodd" clip-rule="evenodd" d="M152.66 31.9946C152.067 31.7381 151.783 31.0688 152.03 30.4979C152.277 29.9269 152.96 29.6765 153.552 29.933L153.726 29.531C152.907 29.1764 151.968 29.5347 151.627 30.3234C151.285 31.1122 151.667 32.042 152.486 32.3966L152.66 31.9946Z" fill="white"/>
<path fill-rule="evenodd" clip-rule="evenodd" d="M152.073 33.4811C152.666 33.7376 152.95 34.4069 152.703 34.9778C152.456 35.5488 151.773 35.7992 151.181 35.5427L151.007 35.9447C151.824 36.2988 152.763 35.9404 153.105 35.1517C153.446 34.363 153.065 33.4331 152.247 33.0791L152.073 33.4811Z" fill="white"/>
<path fill-rule="evenodd" clip-rule="evenodd" d="M151.199 35.5014C150.606 35.2449 150.321 34.5757 150.568 34.0047C150.816 33.4337 151.498 33.1834 152.091 33.4399L152.265 33.0378C151.446 32.6832 150.507 33.0415 150.165 33.8303C149.824 34.619 150.205 35.5488 151.025 35.9034L151.199 35.5014Z" fill="white"/>
<path d="M254.595 96.1045H58.8291V101.647H254.595V96.1045Z" fill="black"/>
<path fill-rule="evenodd" clip-rule="evenodd" d="M199.037 93.1561H201.533V92.1104H205.429V93.1561H208.086V92.1104H211.982V93.1561H214.64V92.1104H218.537V93.1561H219.367C219.748 93.1561 220.113 93.3079 220.383 93.5781C220.652 93.8469 220.804 94.212 220.804 94.5931V96.0507H192.576C192.576 96.0507 192.576 95.3205 192.576 94.5931C192.576 94.212 192.728 93.8469 192.996 93.5781C193.266 93.3079 193.632 93.1561 194.013 93.1561H195.14V92.1104H199.037V93.1561Z" fill="#D2D3D5"/>
<path d="M102.45 92.5977H68.1807V96.5081H102.45V92.5977Z" fill="white"/>
<path fill-rule="evenodd" clip-rule="evenodd" d="M86.7199 92.0132V93.1816H68.9594V95.695H86.7199V96.8634H68.3752C68.0526 96.8634 67.791 96.602 67.791 96.2792V92.5974C67.791 92.2746 68.0526 92.0132 68.3752 92.0132H86.7199Z" fill="black"/>
<path fill-rule="evenodd" clip-rule="evenodd" d="M86.7307 92.0132H102.959C103.281 92.0132 103.543 92.2746 103.543 92.5974V96.2792C103.543 96.602 103.281 96.8634 102.959 96.8634H86.7307C86.1871 96.2909 86.395 95.9711 86.7307 95.695H102.374V93.1816H86.7307C86.5093 92.7507 86.455 92.3506 86.7307 92.0132Z" fill="black"/>
<path fill-rule="evenodd" clip-rule="evenodd" d="M88.8322 92.7475L88.9278 96.4162C88.9362 96.739 89.2047 96.9931 89.527 96.9858C89.8493 96.977 90.1042 96.7083 90.0958 96.3856L90.0002 92.7169C89.9917 92.3956 89.7233 92.14 89.4009 92.1487C89.0786 92.1575 88.8238 92.4262 88.8322 92.7475ZM96.1674 91.0388V96.1913C96.1674 96.5141 96.4292 96.7755 96.7516 96.7755C97.074 96.7755 97.3358 96.5141 97.3358 96.1913V91.0388C97.3358 90.716 97.074 90.4546 96.7516 90.4546C96.4292 90.4546 96.1674 90.716 96.1674 91.0388ZM92.5675 91.1235V95.8598C92.5675 96.1825 92.8293 96.444 93.1517 96.444C93.4742 96.444 93.7359 96.1825 93.7359 95.8598V91.1235C93.7359 90.8007 93.4742 90.5393 93.1517 90.5393C92.8293 90.5393 92.5675 90.8007 92.5675 91.1235ZM99.601 91.0899V95.7356C99.601 96.0569 99.8624 96.3198 100.185 96.3198C100.508 96.3198 100.769 96.0569 100.769 95.7356V91.0899C100.769 90.7686 100.508 90.5057 100.185 90.5057C99.8624 90.5057 99.601 90.7686 99.601 91.0899Z" fill="black"/>
<path fill-rule="evenodd" clip-rule="evenodd" d="M110.919 64.8751H109.885C109.31 64.8751 108.842 64.4078 108.842 63.8323C108.842 63.2568 109.31 62.7896 109.885 62.7896H135.82C136.397 62.7896 136.863 63.2568 136.863 63.8323C136.863 64.4078 136.397 64.8751 135.82 64.8751H135.338C135.863 65.0594 136.346 65.3601 136.746 65.7613C137.45 66.4642 137.844 67.4176 137.844 68.4116V96.1106H108.412C108.412 96.1106 108.412 76.7512 108.412 68.4116C108.412 67.4176 108.807 66.4642 109.51 65.7613C109.912 65.3601 110.393 65.0594 110.919 64.8751Z" fill="#FFF4E5"/>
<path fill-rule="evenodd" clip-rule="evenodd" d="M135.352 64.835C135.725 64.9661 136.077 65.1565 136.394 65.4L109.094 66.2354C109.221 66.0527 109.364 65.8805 109.523 65.7212C109.925 65.32 110.407 65.0193 110.932 64.835H135.352Z" fill="#F4978B"/>
<path d="M118.776 69.7524L109.288 72.6283L114.273 89.0759L123.761 86.2L118.776 69.7524Z" fill="#F4978B"/>
<path fill-rule="evenodd" clip-rule="evenodd" d="M116.643 77.596C117.756 77.596 118.66 78.5 118.66 79.6135C118.66 80.727 117.756 81.6308 116.643 81.6308C116.4 81.6308 116.205 81.8271 116.205 82.069C116.205 82.3108 116.4 82.5071 116.643 82.5071C118.239 82.5071 119.536 81.2105 119.536 79.6135C119.536 78.0165 118.239 76.7197 116.643 76.7197C116.4 76.7197 116.205 76.9162 116.205 77.1579C116.205 77.3997 116.4 77.596 116.643 77.596Z" fill="#DE6647"/>
<path fill-rule="evenodd" clip-rule="evenodd" d="M116.663 81.6308C115.548 81.6308 114.646 80.727 114.646 79.6135C114.646 78.5 115.548 77.596 116.663 77.596C116.904 77.596 117.101 77.3997 117.101 77.1579C117.101 76.9162 116.904 76.7197 116.663 76.7197C115.065 76.7197 113.77 78.0165 113.77 79.6135C113.77 81.2105 115.065 82.5071 116.663 82.5071C116.904 82.5071 117.101 82.3108 117.101 82.069C117.101 81.8271 116.904 81.6308 116.663 81.6308Z" fill="#DE6647"/>
<path fill-rule="evenodd" clip-rule="evenodd" d="M117.591 87.9902L116.835 85.6747C116.735 85.3683 116.903 85.0382 117.209 84.9381C117.515 84.8381 117.845 85.0056 117.946 85.3122L118.71 87.6513L117.591 87.9902ZM119.164 87.5134L118.654 85.8655C118.559 85.5575 118.732 85.2301 119.04 85.1347C119.348 85.0395 119.675 85.2121 119.77 85.5201L120.283 87.1744L119.164 87.5134ZM115.452 70.6802L116.277 73.3476C116.372 73.6556 116.199 73.983 115.891 74.0782C115.583 74.1736 115.256 74.0008 115.161 73.6928L114.333 71.0191L115.452 70.6802ZM113.622 71.2347L114.315 73.257C114.421 73.562 114.257 73.8945 113.952 73.9991C113.646 74.1037 113.315 73.941 113.21 73.6359L112.503 71.5738L113.622 71.2347Z" fill="#DE6647"/>
<path d="M137.374 79.2811L127.796 76.7195L123.356 93.3224L132.934 95.884L137.374 79.2811Z" fill="#F4978B"/>
<path fill-rule="evenodd" clip-rule="evenodd" d="M131.506 84.9035C132.451 85.4906 132.742 86.7355 132.155 87.6814C131.568 88.6274 130.323 88.9184 129.377 88.3314C129.171 88.2035 128.902 88.267 128.774 88.4725C128.646 88.678 128.709 88.948 128.915 89.0759C130.271 89.9179 132.057 89.5004 132.899 88.1436C133.742 86.7869 133.324 85.0011 131.968 84.1591C131.762 84.0312 131.492 84.0949 131.365 84.3002C131.237 84.5057 131.3 84.7757 131.506 84.9035Z" fill="#DE6647"/>
<path fill-rule="evenodd" clip-rule="evenodd" d="M129.32 88.2626C128.373 87.6748 128.083 86.4308 128.671 85.4849C129.258 84.5389 130.502 84.247 131.448 84.8348C131.653 84.9619 131.924 84.8991 132.052 84.6937C132.179 84.4883 132.115 84.2174 131.911 84.0903C130.553 83.2475 128.769 83.6659 127.926 85.0227C127.084 86.3794 127.5 88.1643 128.858 89.0071C129.063 89.1342 129.334 89.0714 129.461 88.866C129.589 88.6605 129.525 88.3897 129.32 88.2626Z" fill="#DE6647"/>
<path fill-rule="evenodd" clip-rule="evenodd" d="M126.788 94.2069L127.366 91.8406C127.444 91.5279 127.76 91.3361 128.073 91.4121C128.386 91.4889 128.578 91.8053 128.502 92.1189L127.917 94.509L126.788 94.2069ZM128.376 94.6315L128.812 92.9627C128.894 92.6509 129.213 92.4636 129.525 92.5451C129.837 92.6268 130.024 92.946 129.942 93.2578L129.505 94.9336L128.376 94.6315ZM134.101 78.3723L133.395 81.0737C133.313 81.3854 132.994 81.5727 132.682 81.491C132.37 81.4095 132.183 81.0902 132.265 80.7784L132.972 78.0701L134.101 78.3723ZM132.254 77.8781L131.776 79.9621C131.705 80.2767 131.39 80.4729 131.076 80.4007C130.761 80.3286 130.566 80.0155 130.637 79.7008L131.124 77.5761L132.254 77.8781Z" fill="#DE6647"/>
<path d="M128.12 75.0274C130.073 75.0274 131.657 73.4435 131.657 71.4897C131.657 69.536 130.073 67.9521 128.12 67.9521C126.166 67.9521 124.582 69.536 124.582 71.4897C124.582 73.4435 126.166 75.0274 128.12 75.0274Z" fill="#FFCF84"/>
<path fill-rule="evenodd" clip-rule="evenodd" d="M128.118 69.2744C129.397 69.2744 130.435 70.313 130.435 71.5924C130.435 72.8719 129.397 73.9106 128.118 73.9106C127.995 73.9106 127.894 74.0104 127.894 74.1332C127.894 74.2561 127.995 74.3559 128.118 74.3559C129.643 74.3559 130.88 73.1176 130.88 71.5924C130.88 70.0674 129.643 68.8291 128.118 68.8291C127.995 68.8291 127.894 68.9289 127.894 69.0517C127.894 69.1746 127.995 69.2744 128.118 69.2744Z" fill="#FDA92F"/>
<path fill-rule="evenodd" clip-rule="evenodd" d="M128.125 73.9106C126.845 73.9106 125.807 72.8719 125.807 71.5924C125.807 70.313 126.845 69.2744 128.125 69.2744C128.246 69.2744 128.346 69.1746 128.346 69.0517C128.346 68.9289 128.246 68.8291 128.125 68.8291C126.599 68.8291 125.361 70.0674 125.361 71.5924C125.361 73.1176 126.599 74.3559 128.125 74.3559C128.246 74.3559 128.346 74.2561 128.346 74.1332C128.346 74.0104 128.246 73.9106 128.125 73.9106Z" fill="#FDA92F"/>
<path fill-rule="evenodd" clip-rule="evenodd" d="M127.545 74.9751L127.577 74.1292C127.582 74.0064 127.685 73.9106 127.808 73.9154C127.932 73.9201 128.027 74.0236 128.023 74.1464L127.989 75.0132C127.839 75.0097 127.69 74.9969 127.545 74.9751ZM128.841 74.9301L128.623 74.066C128.594 73.9468 128.665 73.8257 128.785 73.7958C128.903 73.7658 129.025 73.8383 129.055 73.9573L129.268 74.8061C129.13 74.8562 128.987 74.8977 128.841 74.9301ZM125.13 73.4404L125.795 72.9145C125.892 72.8383 126.032 72.8548 126.108 72.9512C126.184 73.0476 126.168 73.1876 126.072 73.2639L125.4 73.7943C125.303 73.6823 125.213 73.5641 125.13 73.4404ZM124.68 72.4843L125.512 72.0331C125.62 71.9746 125.756 72.0147 125.814 72.1228C125.873 72.2307 125.832 72.366 125.724 72.4245L124.836 72.9063C124.775 72.7699 124.724 72.629 124.68 72.4843ZM131.57 71.999L130.767 71.9617C130.644 71.956 130.549 71.8517 130.555 71.7291C130.561 71.6062 130.665 71.5113 130.787 71.5168L131.608 71.555C131.605 71.7054 131.592 71.8535 131.57 71.999ZM130.546 68.9499C130.653 69.0541 130.752 69.1648 130.846 69.2816L130.193 69.952C130.107 70.04 129.967 70.0421 129.879 69.9563C129.79 69.8706 129.788 69.7295 129.875 69.6415L130.546 68.9499ZM126.31 68.4093L126.888 69.273C126.957 69.3751 126.929 69.5134 126.827 69.5819C126.724 69.6502 126.586 69.6229 126.518 69.5208L125.939 68.6554C126.055 68.5658 126.18 68.4836 126.31 68.4093ZM128.379 67.9521C128.528 67.965 128.676 67.9872 128.82 68.0183L128.732 68.9022C128.719 69.0246 128.61 69.1139 128.489 69.1017C128.366 69.0896 128.277 68.9805 128.288 68.8582L128.379 67.9521Z" fill="#FDA92F"/>
<path d="M118.614 78.9443C118.392 80.8854 119.786 82.6388 121.727 82.8604C123.668 83.0821 125.421 81.6882 125.643 79.7471C125.865 77.8059 124.471 76.0526 122.53 75.8309C120.589 75.6092 118.835 77.0031 118.614 78.9443Z" fill="#FFCF84"/>
<path fill-rule="evenodd" clip-rule="evenodd" d="M124.408 79.6191C124.263 80.8891 123.113 81.8031 121.842 81.6579C120.57 81.5127 119.656 80.3631 119.801 79.0931C119.815 78.9709 119.728 78.859 119.606 78.8451C119.484 78.8311 119.373 78.9204 119.359 79.0426C119.186 80.557 120.276 81.9273 121.791 82.1004C123.306 82.2734 124.677 81.1841 124.85 79.6696C124.864 79.5474 124.776 79.4356 124.654 79.4216C124.532 79.4077 124.422 79.4969 124.408 79.6191Z" fill="#FDA92F"/>
<path fill-rule="evenodd" clip-rule="evenodd" d="M119.708 79.0834C119.853 77.8118 121.003 76.8979 122.274 77.0431C123.545 77.1882 124.46 78.3379 124.314 79.6094C124.301 79.7301 124.388 79.8404 124.51 79.8544C124.632 79.8683 124.743 79.7806 124.757 79.66C124.93 78.144 123.84 76.7737 122.325 76.6006C120.809 76.4276 119.439 77.5169 119.266 79.0329C119.252 79.1535 119.34 79.2639 119.462 79.2778C119.584 79.2917 119.694 79.2041 119.708 79.0834Z" fill="#FDA92F"/>
<path fill-rule="evenodd" clip-rule="evenodd" d="M118.742 78.3798L119.579 78.5077C119.7 78.526 119.783 78.6399 119.765 78.7612C119.746 78.884 119.632 78.9666 119.511 78.9483L118.653 78.8166C118.674 78.6675 118.704 78.521 118.742 78.3798ZM118.639 79.672L119.523 79.5538C119.644 79.5383 119.757 79.6231 119.773 79.7455C119.789 79.8665 119.703 79.9787 119.582 79.9956L118.714 80.1112C118.68 79.9677 118.655 79.8207 118.639 79.672ZM120.541 76.1539L120.988 76.8753C121.052 76.9797 121.02 77.1171 120.916 77.1816C120.811 77.2461 120.674 77.2143 120.609 77.1099L120.158 76.3822C120.281 76.2991 120.408 76.2226 120.541 76.1539ZM121.542 75.8155L121.895 76.6938C121.941 76.8078 121.886 76.9382 121.772 76.9839C121.658 77.0297 121.528 76.9738 121.482 76.8598L121.104 75.9228C121.247 75.8774 121.393 75.8426 121.542 75.8155ZM121.242 82.7165L121.37 81.9227C121.39 81.8014 121.504 81.7189 121.625 81.7387C121.747 81.7584 121.829 81.8722 121.81 81.9935L121.679 82.8046C121.53 82.7846 121.384 82.7548 121.242 82.7165ZM124.387 82.0453C124.272 82.1394 124.151 82.2255 124.024 82.3051L123.432 81.5805C123.354 81.4849 123.368 81.3453 123.463 81.268C123.559 81.1892 123.699 81.2037 123.777 81.2994L124.387 82.0453ZM125.405 77.8972L124.482 78.3738C124.372 78.4304 124.238 78.3872 124.182 78.2778C124.125 78.1685 124.168 78.0337 124.277 77.9786L125.203 77.5007C125.279 77.627 125.346 77.7596 125.405 77.8972ZM125.625 80.0052C125.595 80.1517 125.556 80.2958 125.509 80.4359L124.641 80.2485C124.521 80.2216 124.444 80.1026 124.47 79.9836C124.496 79.8631 124.615 79.7869 124.735 79.8124L125.625 80.0052Z" fill="#FDA92F"/>
<path d="M111.937 94.7345C113.369 96.0639 115.607 95.9809 116.937 94.5491C118.266 93.1173 118.183 90.879 116.751 89.5496C115.319 88.2202 113.081 88.3033 111.752 89.735C110.422 91.1668 110.505 93.4052 111.937 94.7345Z" fill="#FFCF84"/>
<path fill-rule="evenodd" clip-rule="evenodd" d="M115.871 90.5438C116.808 91.4136 116.862 92.8813 115.992 93.8189C115.121 94.7566 113.653 94.8111 112.717 93.9414C112.626 93.8577 112.484 93.862 112.401 93.952C112.317 94.042 112.323 94.184 112.414 94.2677C113.531 95.3048 115.28 95.2396 116.318 94.1219C117.356 93.0043 117.291 91.2546 116.174 90.2175C116.084 90.1338 115.942 90.1381 115.858 90.2281C115.775 90.3181 115.781 90.4601 115.871 90.5438Z" fill="#FDA92F"/>
<path fill-rule="evenodd" clip-rule="evenodd" d="M112.726 93.9158C111.789 93.045 111.734 91.5772 112.605 90.6396C113.475 89.702 114.943 89.6474 115.881 90.5183C115.97 90.6009 116.111 90.5955 116.195 90.5055C116.278 90.4155 116.273 90.2746 116.184 90.1919C115.066 89.1537 113.316 89.219 112.278 90.3366C111.241 91.4543 111.305 93.2039 112.423 94.2421C112.512 94.3248 112.653 94.3194 112.737 94.2294C112.821 94.1394 112.815 93.9984 112.726 93.9158Z" fill="#FDA92F"/>
<path fill-rule="evenodd" clip-rule="evenodd" d="M111.577 94.3365L112.176 93.7385C112.263 93.6515 112.404 93.6518 112.491 93.7388C112.579 93.8267 112.578 93.9672 112.491 94.0542L111.877 94.6666C111.769 94.5617 111.668 94.4509 111.577 94.3365ZM112.557 95.185L112.986 94.4037C113.045 94.2965 113.18 94.2564 113.288 94.316C113.395 94.3745 113.435 94.5101 113.376 94.6182L112.955 95.3853C112.819 95.3276 112.686 95.2606 112.557 95.185ZM110.851 91.5683L111.697 91.636C111.82 91.6457 111.911 91.7532 111.901 91.8755C111.891 91.9979 111.784 92.0896 111.662 92.0798L110.808 92.0115C110.814 91.8638 110.828 91.7156 110.851 91.5683ZM111.172 90.5615L112.089 90.7973C112.208 90.8279 112.28 90.9498 112.25 91.0687C112.219 91.1876 112.097 91.2589 111.978 91.2283L110.999 90.9771C111.047 90.8354 111.106 90.6974 111.172 90.5615ZM116.552 94.8942L115.989 94.3204C115.903 94.2327 115.904 94.0917 115.992 94.0058C116.08 93.9198 116.22 93.9207 116.306 94.0083L116.882 94.5947C116.777 94.7029 116.667 94.8025 116.552 94.8942ZM117.876 91.9632C117.884 92.1121 117.881 92.2608 117.87 92.41L116.935 92.4571C116.812 92.463 116.708 92.3691 116.702 92.2466C116.695 92.1232 116.79 92.0188 116.913 92.0129L117.876 91.9632ZM115.139 88.6842L114.975 89.7107C114.956 89.8322 114.842 89.9147 114.72 89.8953C114.599 89.8758 114.516 89.7614 114.536 89.6409L114.7 88.6122C114.846 88.626 114.993 88.6503 115.139 88.6842ZM116.967 89.7573C117.067 89.8681 117.16 89.9847 117.245 90.1059L116.579 90.694C116.487 90.7748 116.345 90.7657 116.265 90.6743C116.183 90.5819 116.192 90.4413 116.284 90.3597L116.967 89.7573Z" fill="#FDA92F"/>
<path d="M134.152 95.8677C136.071 95.5028 137.331 93.6511 136.966 91.7317C136.602 89.8123 134.75 88.5521 132.83 88.917C130.911 89.2818 129.651 91.1336 130.016 93.053C130.381 94.9724 132.232 96.2326 134.152 95.8677Z" fill="#FFCF84"/>
<path fill-rule="evenodd" clip-rule="evenodd" d="M133.068 90.1681C134.324 89.9293 135.538 90.7558 135.777 92.0126C136.016 93.2696 135.19 94.484 133.934 94.7227C133.813 94.7457 133.732 94.8626 133.755 94.9833C133.778 95.104 133.896 95.1831 134.017 95.1601C135.515 94.8755 136.499 93.4278 136.214 91.9295C135.93 90.4312 134.482 89.4459 132.985 89.7306C132.864 89.7536 132.783 89.8705 132.806 89.9912C132.829 90.1119 132.947 90.191 133.068 90.1681Z" fill="#FDA92F"/>
<path fill-rule="evenodd" clip-rule="evenodd" d="M133.993 94.7355C132.736 94.9745 131.522 94.1481 131.283 92.8911C131.044 91.6342 131.87 90.4199 133.127 90.1809C133.247 90.1582 133.326 90.0415 133.303 89.9208C133.28 89.8002 133.163 89.7207 133.044 89.7434C131.545 90.0284 130.56 91.476 130.845 92.9742C131.13 94.4726 132.577 95.4579 134.076 95.173C134.196 95.1503 134.275 95.0336 134.252 94.9129C134.229 94.7923 134.112 94.7128 133.993 94.7355Z" fill="#FDA92F"/>
<path fill-rule="evenodd" clip-rule="evenodd" d="M133.579 95.9419L133.452 95.1049C133.434 94.9834 133.518 94.8699 133.639 94.8517C133.762 94.8331 133.875 94.9171 133.893 95.0386L134.022 95.8964C133.874 95.9211 133.725 95.9363 133.579 95.9419ZM134.843 95.6558L134.468 94.8475C134.417 94.7358 134.465 94.6035 134.577 94.5518C134.687 94.5003 134.82 94.5488 134.872 94.66L135.24 95.4541C135.113 95.5292 134.98 95.5967 134.843 95.6558ZM130.919 94.8854L131.475 94.2443C131.556 94.1514 131.696 94.1415 131.789 94.222C131.882 94.3025 131.892 94.4431 131.811 94.536L131.251 95.1826C131.135 95.0905 131.024 94.9913 130.919 94.8854ZM130.299 94.03L131.032 93.4314C131.127 93.3536 131.268 93.3677 131.346 93.463C131.423 93.5581 131.408 93.6986 131.313 93.7763L130.531 94.4155C130.445 94.2929 130.369 94.164 130.299 94.03ZM136.977 92.2664L136.181 92.3799C136.06 92.3972 135.947 92.3125 135.93 92.1908C135.912 92.0691 135.997 91.9565 136.118 91.939L136.932 91.8232C136.957 91.9715 136.972 92.1194 136.977 92.2664ZM135.402 89.4622C135.526 89.5446 135.644 89.6348 135.758 89.7322L135.242 90.5127C135.174 90.6153 135.036 90.6434 134.934 90.5756C134.831 90.508 134.803 90.3697 134.871 90.2671L135.402 89.4622ZM131.139 89.7223L131.868 90.4629C131.955 90.5503 131.953 90.6914 131.866 90.7778C131.778 90.864 131.637 90.8631 131.551 90.7753L130.82 90.0334C130.918 89.9236 131.025 89.8196 131.139 89.7223ZM133.086 88.8868C133.235 88.8716 133.384 88.8658 133.532 88.8694L133.611 89.7541C133.621 89.8768 133.53 89.985 133.409 89.9956C133.286 90.0066 133.178 89.9161 133.167 89.7938L133.086 88.8868Z" fill="#FDA92F"/>
<path fill-rule="evenodd" clip-rule="evenodd" d="M124.726 95.6172L107.589 125.459H100.54C100.54 125.459 98.3747 130.086 101.656 131.78H133.984C134.017 131.78 134.049 131.783 134.083 131.787C134.727 131.834 138.406 131.729 141.317 124.187C146.046 111.936 150.839 104.869 155.68 95.6172H124.726Z" fill="#E9E9EB"/>
<path d="M117.735 123.128C120.541 123.527 123.546 121.627 124.446 118.884C125.346 116.14 123.801 113.592 120.994 113.193C118.187 112.793 115.183 114.694 114.283 117.437C113.383 120.181 114.928 122.729 117.735 123.128Z" fill="white"/>
<path d="M151.873 97.1661L125.264 96.8838L124.125 98.9618L150.734 99.2442L151.873 97.1661Z" fill="#BABDC2"/>
<path d="M150.05 101.02L123.315 100.78L122.18 102.86L148.914 103.1L150.05 101.02Z" fill="#BABDC2"/>
<path d="M147.994 105.179L121.173 104.481L120.003 106.541L146.824 107.239L147.994 105.179Z" fill="#BABDC2"/>
<path d="M145.905 109.34L119.225 108.184L118.022 110.223L144.703 111.379L145.905 109.34Z" fill="#BABDC2"/>
<path d="M143.013 113.577L128.771 112.859L127.772 114.848L142.014 115.566L143.013 113.577Z" fill="#BABDC2"/>
<path d="M140.629 117.821L131.011 117.243L130.178 119.241L139.796 119.819L140.629 117.821Z" fill="#BABDC2"/>
<path d="M138.706 122.09L125.946 121.139L125.249 123.147L138.009 124.098L138.706 122.09Z" fill="#BABDC2"/>
<path fill-rule="evenodd" clip-rule="evenodd" d="M108.273 124.354H131.365C131.391 124.354 131.418 124.356 131.444 124.359C131.692 124.393 131.901 124.529 131.997 124.844C132.044 124.996 132.048 125.298 131.989 125.707C131.777 127.172 130.832 130.869 134.614 131.784C134.391 131.809 134.223 131.805 134.127 131.799C134.093 131.795 134.061 131.792 134.027 131.792H132.051C131.923 131.678 131.805 131.558 131.695 131.434C130.363 129.921 130.506 127.73 130.722 126.262C130.759 126.01 130.795 125.737 130.823 125.522L107.632 125.471L108.273 124.354Z" fill="black"/>
<path d="M116.999 119.131C117.397 119.648 117.962 119.973 118.697 120.125C119.58 120.287 120.114 120.083 120.327 119.517C120.486 119.052 120.288 118.714 119.735 118.504C119.472 118.416 119.191 118.324 118.884 118.217C118.337 118.018 117.962 117.73 117.764 117.364C117.559 116.988 117.54 116.573 117.695 116.117C117.881 115.573 118.22 115.172 118.731 114.916C119.223 114.657 119.819 114.595 120.513 114.72C121.349 114.901 122.002 115.262 122.476 115.793L121.642 116.463C121.246 116.059 120.744 115.784 120.142 115.658C119.83 115.597 119.541 115.616 119.282 115.724C119.014 115.831 118.822 116.037 118.711 116.333C118.648 116.517 118.67 116.689 118.77 116.868C118.871 117.046 119.084 117.191 119.394 117.316C119.565 117.377 119.808 117.462 120.118 117.56C120.725 117.762 121.116 118.062 121.302 118.463C121.482 118.853 121.501 119.268 121.349 119.715C120.913 120.902 119.912 121.352 118.364 121.07C117.371 120.877 116.609 120.42 116.084 119.711L116.999 119.131Z" fill="black"/>
<path fill-rule="evenodd" clip-rule="evenodd" d="M120.711 113.853L117.323 121.526L118.108 121.765L121.524 114.024L120.711 113.853Z" fill="black"/>
<path fill-rule="evenodd" clip-rule="evenodd" d="M192.87 112.088C192.489 111.67 191.981 111.438 191.567 111.71C190.116 112.664 189.125 113.681 187.701 114.673C183.3 117.74 177.125 118.594 174.395 123.626C171.627 128.723 171.487 134.969 169.025 140.266C165.708 147.405 160.96 153.739 157.443 160.773C153.088 169.479 146.306 188.57 146.306 188.57C144.115 188.538 133.312 189.947 126.744 190.961C126.495 190.999 126.318 191.224 126.337 191.475C126.356 191.727 126.566 191.922 126.819 191.922C142.303 191.922 187.704 191.922 198.266 191.922C198.805 191.922 199.303 191.634 199.574 191.168C199.844 190.702 199.847 190.127 199.578 189.659C198.225 187.295 195.884 185.909 193.277 185.263C191.272 184.767 189.337 185.011 187.317 185.182C187.241 185.187 187.145 185.201 187.086 185.141C187.072 185.126 187.051 185.1 187.043 185.082C186.507 183.969 186.793 177.651 186.81 176.23C186.885 170.31 187.149 164.371 187.658 158.471C187.821 156.577 188.16 151.131 188.16 151.131C188.16 151.131 192.714 150.504 194.021 150.208C197.24 149.48 199.869 147.396 201.709 144.686C204.438 140.665 204.615 135.204 205.851 130.63C206.883 126.801 208.815 123.817 210.467 120.305C211.324 118.482 211.022 115.789 209.04 114.809C207.102 113.849 205.071 115.855 203.851 117.137C199.971 121.223 199.772 126.846 196.457 130.899C194.106 133.772 189.362 134.299 189.362 134.299C189.362 134.299 189.216 130.795 189.362 129.823C190.094 124.955 192.838 121.86 193.955 117.381C194.278 116.084 194.095 113.426 192.87 112.088Z" fill="#DD6140"/>
<path fill-rule="evenodd" clip-rule="evenodd" d="M181.91 153.162C184.022 152.083 188.131 151.142 188.131 151.142C188.131 151.142 188.023 152.886 187.899 154.742C186.315 154.168 184.328 153.999 182.135 154.035C181.922 154.038 181.733 153.894 181.681 153.688C181.627 153.48 181.721 153.263 181.91 153.162Z" fill="black"/>
<path fill-rule="evenodd" clip-rule="evenodd" d="M184.046 118.59L184.983 119.28C185.243 119.472 185.61 119.416 185.801 119.156C185.992 118.898 185.937 118.531 185.677 118.34L184.739 117.649C184.479 117.458 184.114 117.513 183.923 117.772C183.732 118.032 183.786 118.398 184.046 118.59Z" fill="black"/>
<path fill-rule="evenodd" clip-rule="evenodd" d="M186.994 184.856C186.954 184.795 186.927 184.726 186.911 184.65C185.696 178.472 184.069 174.244 182.227 171.439C180.461 168.748 178.511 167.4 176.56 166.921C172.624 165.953 168.753 168.462 166.598 170.216C165.617 171.014 164.875 171.793 164.875 171.793C164.763 171.932 164.587 172.017 164.395 172.008C164.073 171.992 163.824 171.718 163.84 171.396C163.84 171.387 163.826 171.211 164.01 171.008C164.135 170.872 164.806 170.168 165.861 169.309C168.227 167.381 172.513 164.723 176.839 165.787C179.02 166.323 181.229 167.789 183.204 170.797C184.517 172.797 185.732 175.491 186.772 179.068C186.73 181.222 186.725 183.869 186.994 184.856ZM176.849 121.542C176.849 121.542 174.957 126.297 173.79 129.233C173.09 130.988 173.82 132.989 175.484 133.884C176.242 134.294 177.01 134.598 177.787 134.79C178.842 135.052 179.959 134.813 180.815 134.144C181.672 133.474 182.171 132.447 182.171 131.359C182.171 127.677 182.171 121.756 182.171 121.756C182.171 121.435 181.91 121.172 181.587 121.172C181.266 121.172 181.003 121.435 181.003 121.756C181.003 121.756 181.003 127.677 181.003 131.359C181.003 132.088 180.669 132.774 180.095 133.223C179.522 133.672 178.774 133.832 178.067 133.656C177.383 133.487 176.708 133.218 176.039 132.856C174.895 132.241 174.396 130.868 174.875 129.665C176.043 126.729 177.936 121.973 177.936 121.973C178.054 121.673 177.908 121.333 177.609 121.215C177.308 121.095 176.969 121.241 176.849 121.542ZM189.355 133.132C189.373 133.802 189.393 134.299 189.393 134.299C189.393 134.299 189.487 134.289 189.655 134.264C188.933 134.411 188.266 134.474 187.639 134.468C187.317 134.465 187.058 134.201 187.061 133.88C187.064 133.557 187.327 133.297 187.65 133.3C188.181 133.304 188.746 133.252 189.355 133.132ZM210.301 115.898C210.519 116.227 210.68 116.595 210.786 116.982C208.568 118.589 206.909 121.035 206.83 121.179C206.677 121.463 206.322 121.568 206.038 121.415C205.755 121.261 205.65 120.906 205.803 120.623C205.891 120.459 207.788 117.66 210.301 115.898ZM208.139 114.561C208.45 114.578 208.762 114.656 209.072 114.809C209.2 114.872 209.322 114.943 209.437 115.021C208.493 115.739 206.576 117.375 204.609 120.086C204.42 120.346 204.054 120.404 203.794 120.214C203.532 120.026 203.474 119.659 203.664 119.399C205.367 117.052 207.039 115.472 208.139 114.561ZM189.659 113.175C190.265 112.678 190.874 112.186 191.599 111.71C192.012 111.438 192.52 111.67 192.901 112.088C193.191 112.404 193.421 112.792 193.602 113.22C191.943 114.942 190.111 113.563 189.659 113.175Z" fill="black"/>
<defs>
<linearGradient id="paint0_linear_323_7732" x1="81.7144" y1="148.469" x2="225.855" y2="63.4744" gradientUnits="userSpaceOnUse">
<stop stop-color="#B8D8D5"/>
<stop offset="0.42" stop-color="#CEE0DA"/>
<stop offset="1" stop-color="#FFF0E6"/>
</linearGradient>
<linearGradient id="paint1_linear_323_7732" x1="34.3788" y1="46.3951" x2="-36.7522" y2="135.526" gradientUnits="userSpaceOnUse">
<stop stop-color="#B8D8D5"/>
<stop offset="0.47" stop-color="#CCDFDA"/>
<stop offset="1" stop-color="#FFF0E6"/>
</linearGradient>
<linearGradient id="paint2_linear_323_7732" x1="243.55" y1="65.1708" x2="287.479" y2="107.949" gradientUnits="userSpaceOnUse">
<stop stop-color="#FFBF2F"/>
<stop offset="1" stop-color="#FD9500"/>
</linearGradient>
<linearGradient id="paint3_linear_323_7732" x1="273.655" y1="145.188" x2="202.007" y2="96.8953" gradientUnits="userSpaceOnUse">
<stop stop-color="#FFBF2F"/>
<stop offset="0.48" stop-color="#FEB422"/>
<stop offset="1" stop-color="#FD9500"/>
</linearGradient>
</defs>
</svg>