<svg width="136" height="33" viewBox="0 0 136 33" fill="none" xmlns="http://www.w3.org/2000/svg">
<path d="M47.8669 24.8657H42.9845L39.0539 19.1542L37.2729 21.058V24.8657H33.373V4.38391H37.2729V16.6362L42.8923 10.0341H47.6827L41.8176 16.759L47.8669 24.8657Z" fill="#223255"/>
<path d="M55.5836 25.2342C50.7011 25.2342 47.7532 21.6722 47.7532 17.4346C47.7532 13.2276 50.7011 9.66558 55.5836 9.66558C60.4968 9.66558 63.4447 13.2276 63.4447 17.4346C63.4447 21.6722 60.4968 25.2342 55.5836 25.2342ZM55.5836 21.7643C58.0095 21.7643 59.3913 19.7683 59.3913 17.4346C59.3913 15.1315 58.0095 13.1355 55.5836 13.1355C53.1577 13.1355 51.8066 15.1315 51.8066 17.4346C51.8066 19.7683 53.1577 21.7643 55.5836 21.7643Z" fill="#223255"/>
<path d="M72.3873 25.2342C67.8733 25.2342 64.4648 22.1942 64.4648 17.4346C64.4648 13.1355 67.6276 9.66558 72.1416 9.66558C76.5635 9.66558 79.5728 12.982 79.5728 17.8337V18.6936H68.5488C68.7945 20.5667 70.2992 22.1328 72.8172 22.1328C74.0762 22.1328 75.8265 21.58 76.7784 20.6588L78.498 23.1768C77.0241 24.528 74.6903 25.2342 72.3873 25.2342ZM75.7958 16.0527C75.7037 14.6402 74.721 12.767 72.1416 12.767C69.7157 12.767 68.6717 14.5788 68.4874 16.0527H75.7958Z" fill="#223255"/>
<path d="M85.3683 24.8657H81.4685V10.0341H85.3683V12.0608C86.4124 10.7403 88.2548 9.66558 90.0973 9.66558V13.4733C89.8209 13.4119 89.4524 13.3812 89.0225 13.3812C87.7328 13.3812 86.0132 14.1182 85.3683 15.0701V24.8657Z" fill="#223255"/>
<path d="M96.9558 25.2342C94.3764 25.2342 91.8891 24.3744 90.323 22.9312L92.0119 20.1982C93.0867 21.2116 95.2976 22.2249 97.1401 22.2249C98.829 22.2249 99.6274 21.5493 99.6274 20.6281C99.6274 18.1715 90.8143 20.1675 90.8143 14.3331C90.8143 11.8458 92.9946 9.66558 96.8944 9.66558C99.4124 9.66558 101.408 10.5254 102.882 11.6923L101.316 14.3638C100.426 13.4119 98.7368 12.6442 96.9251 12.6442C95.5126 12.6442 94.5913 13.2891 94.5913 14.1182C94.5913 16.3291 103.374 14.4866 103.374 20.4746C103.374 23.1768 101.071 25.2342 96.9558 25.2342Z" fill="#223255"/>
<path d="M112.296 25.2342C107.782 25.2342 104.374 22.1942 104.374 17.4346C104.374 13.1355 107.536 9.66558 112.05 9.66558C116.472 9.66558 119.482 12.982 119.482 17.8337V18.6936H108.458C108.703 20.5667 110.208 22.1328 112.726 22.1328C113.985 22.1328 115.735 21.58 116.687 20.6588L118.407 23.1768C116.933 24.528 114.599 25.2342 112.296 25.2342ZM115.705 16.0527C115.612 14.6402 114.63 12.767 112.05 12.767C109.625 12.767 108.58 14.5788 108.396 16.0527H115.705Z" fill="#223255"/>
<path d="M135.288 24.8657H131.388V15.8992C131.388 13.8418 130.313 13.1355 128.655 13.1355C127.12 13.1355 125.922 13.9953 125.277 14.8858V24.8657H121.377V10.0341H125.277V11.9686C126.229 10.8325 128.041 9.66558 130.467 9.66558C133.722 9.66558 135.288 11.508 135.288 14.3945V24.8657Z" fill="#223255"/>
<path d="M1.57538 5.86548H8.29538L12.3815 13.0532C12.4062 13.1024 12.4062 13.1762 12.3815 13.2255L6.96615 22.2593H0.172307C0.0738459 22.2593 0 22.1855 0 22.087C0 22.0624 9.35335e-08 22.0378 0.0246155 22.0132L5.26769 13.2255C5.29231 13.1762 5.29231 13.1024 5.26769 13.0532L1.45231 6.11163C1.40308 6.03779 1.42769 5.93933 1.52615 5.89009C1.52615 5.86548 1.55077 5.86548 1.57538 5.86548Z" fill="#0051FF"/>
<path d="M25.3048 32.0071H18.5848L11.5448 19.4778C11.5202 19.4286 11.5202 19.3548 11.5448 19.3055L22.5233 0.00708008H29.3171C29.4156 0.00708008 29.4894 0.0809262 29.4894 0.179388C29.4894 0.204003 29.4894 0.228619 29.4648 0.253234L18.6341 19.3055C18.6094 19.3548 18.6094 19.4286 18.6341 19.4778L25.4525 31.7609C25.5018 31.8348 25.4771 31.9332 25.3787 31.9825C25.3787 32.0071 25.3541 32.0071 25.3048 32.0071Z" fill="#0051FF"/>
</svg>