<svg width="108" height="100" viewBox="0 0 108 100" fill="none" xmlns="http://www.w3.org/2000/svg">
<path d="M100.664 76.6017L100.662 76.6022L16.7846 98.833C16.7845 98.833 16.7843 98.8331 16.7841 98.8331C14.0063 99.5603 11.3033 97.713 10.9727 94.8715C10.9727 94.8714 10.9727 94.8713 10.9726 94.8712L0.516073 4.4188C0.515949 4.41757 0.515827 4.41633 0.515705 4.4151C0.327342 2.50972 1.84697 0.905101 3.69838 1.09024L3.70592 1.091L3.71348 1.09152L88.9817 7.01498L88.9861 7.01525C91.1594 7.14696 92.9444 8.7941 93.2754 10.9788L93.2755 10.9793L102.782 73.2851L102.785 73.3006L102.788 73.3159C103.092 74.7134 102.109 76.2246 100.664 76.6017Z" fill="#0052FE" stroke="#0052FE"/>
<path d="M92.8579 6.4302L92.8619 6.43044C95.0444 6.56271 96.8947 8.21838 97.2243 10.394L97.2245 10.3949L106.875 73.3396C106.996 75.0152 106.032 76.456 104.532 76.8966L19.7829 99.3451C17.0082 100.072 14.2289 98.1555 13.8979 95.3105C13.8978 95.3104 13.8978 95.3103 13.8978 95.3102L3.36811 3.90713C3.36799 3.90593 3.36787 3.90473 3.36775 3.90352C3.18057 2.0105 4.69116 0.381674 6.6401 0.506815C6.64044 0.506836 6.64077 0.506858 6.64111 0.50688L92.8579 6.4302Z" fill="white" stroke="#0052FE"/>
<path d="M17.6496 16.547L17.6496 16.547H17.6426C17.5407 16.547 17.4825 16.5159 17.4444 16.4804C17.4029 16.4417 17.3555 16.3685 17.3329 16.2423L17.0418 13.9136L17.0418 13.9136L17.0406 13.9049C17.0277 13.8147 17.0575 13.721 17.1285 13.6417C17.2019 13.5596 17.289 13.5267 17.3455 13.525L38.1046 14.1097L38.1046 14.1099H38.1186C38.2205 14.1099 38.2787 14.141 38.3168 14.1766C38.3586 14.2155 38.4064 14.2894 38.4288 14.4174L38.7145 16.4884C38.6999 16.6681 38.539 16.8379 38.3408 16.8395L17.6496 16.547Z" fill="#6DAFA7" stroke="#0052FE"/>
<path d="M17.8618 25.091L57.9364 24.5791" stroke="#0052FE" stroke-width="1.8" stroke-miterlimit="10" stroke-linecap="round" stroke-linejoin="round"/>
<path d="M18.8854 33.2081L44.2611 32.1843" stroke="#0052FE" stroke-width="1.8" stroke-miterlimit="10" stroke-linecap="round" stroke-linejoin="round"/>
<path d="M28.3103 82.7353L28.2995 82.7371L28.2887 82.7394L25.8755 83.2513L25.8585 83.2549L25.8418 83.2596C25.6683 83.3092 25.4199 83.2012 25.3786 82.8752C25.3785 82.8748 25.3785 82.8744 25.3784 82.8739L22.9655 62.6201L22.9657 62.6201L22.964 62.6086C22.934 62.3987 23.076 62.1888 23.3442 62.1505L23.3442 62.1505L23.3484 62.1498L25.7591 61.7846C25.9673 61.7557 26.1753 61.8961 26.2149 62.161L28.6918 82.1948C28.6224 82.5625 28.4312 82.7151 28.3103 82.7353Z" fill="#FFE779" stroke="#0052FE"/>
<path d="M33.4228 48.1375L33.4229 48.1375L33.4217 48.1288C33.3919 47.9209 33.5311 47.7129 33.7944 47.6718L35.832 47.4535L35.8407 47.4526L35.8494 47.4513C36.0749 47.4191 36.2294 47.5679 36.2294 47.7607V47.7922L36.2333 47.8233L40.2554 79.7075L40.2566 79.7173L40.2583 79.7271C40.2824 79.8722 40.1948 80.092 39.8985 80.1833L37.7982 80.6179L37.7548 80.6268L37.7235 80.6394C37.7146 80.6392 37.6776 80.636 37.6144 80.5887C37.5285 80.5242 37.4612 80.4204 37.4442 80.3089L33.4228 48.1375Z" fill="#6DAFA7" stroke="#0052FE"/>
<path d="M48.6375 77.931V77.9633C48.6375 78.0419 48.6746 78.1218 48.7604 78.1872C48.8462 78.2525 48.9628 78.2872 49.0779 78.2743L50.7944 77.9167C51.0909 77.8255 51.1786 77.6055 51.1545 77.4605L51.153 77.4517L51.1519 77.4429L49.6166 65.6727C49.5776 65.4081 49.3711 65.2673 49.1635 65.2944L47.4153 65.5858L48.6375 77.931ZM48.6375 77.931L48.6333 77.899M48.6375 77.931L48.6333 77.899M48.6333 77.899L47.0976 66.0521L47.0977 66.0521M48.6333 77.899L47.0977 66.0521M47.0977 66.0521L47.0967 66.0457M47.0977 66.0521L47.0967 66.0457M47.0967 66.0457C47.0636 65.8133 47.2336 65.6161 47.4153 65.5858L47.0967 66.0457Z" fill="#FFE779" stroke="#0052FE"/>
<path d="M60.9255 75.715L60.9255 75.7148L60.9141 75.717L59.3785 76.0095L59.3563 76.0137L59.3347 76.0199C59.1368 76.0764 58.9043 75.9343 58.8702 75.6996C58.8701 75.6993 58.8701 75.699 58.8701 75.6987L57.9928 69.3389L57.9928 69.3389L57.9925 69.3365C57.9593 69.1041 58.1294 68.9068 58.311 68.8766L58.311 68.8767L58.3224 68.8745L59.8445 68.5846C59.9606 68.5706 60.0787 68.6054 60.1654 68.6714C60.2512 68.7368 60.2883 68.8167 60.2883 68.8953V68.9296L60.293 68.9636L61.1706 75.3258L61.1704 75.3258L61.1727 75.3397C61.2036 75.525 61.0733 75.6903 60.9255 75.715Z" fill="#F4C2C9" stroke="#0052FE"/>
<path d="M94.5181 51.855C95.2644 57.7755 93.811 63.3566 91.0005 66.4809L85.1016 53.2428L90.1155 41.6566C92.2601 44.1877 93.8505 47.792 94.5181 51.855Z" fill="#6DAFA7" stroke="#0052FE"/>
<path d="M82.1716 37.7296L82.1716 37.7297L82.1816 37.7289C84.681 37.5316 87.2263 38.6658 89.3051 40.8422L84.2835 52.4463L74.4723 44.5973C76.0025 40.5708 78.8133 37.9271 82.1716 37.7296Z" fill="#F4C2C9" stroke="#0052FE"/>
<path d="M86.7976 68.9901L86.7976 68.99L86.7909 68.9915C83.9406 69.6022 80.9814 68.3944 78.5379 65.8181C76.0964 63.2439 74.2155 59.3411 73.5696 54.7129C73.1084 51.3525 73.3752 48.1826 74.1387 45.538L84.0757 53.4876L90.2397 67.2326C89.196 68.1422 88.049 68.7398 86.7976 68.9901Z" fill="#FFE779" stroke="#0052FE"/>
</svg>