<svg width="122" height="100" viewBox="0 0 122 100" fill="none" xmlns="http://www.w3.org/2000/svg">
<path d="M115.129 83.9247L19.4852 99.9187C16.0465 100.478 12.7677 98.0794 12.2879 94.6407L0.0524777 7.15347C-0.427342 3.71476 2.45158 0.755867 5.89029 1.15572L100.415 12.3515C103.134 12.6714 105.293 14.6707 105.853 17.3896L118.008 79.8462C118.328 81.7655 117.049 83.6048 115.129 83.9247Z" fill="#0052FE"/>
<path d="M119.046 82.3121L119.045 82.3121L23.4033 98.3058C20.2387 98.821 17.2222 96.6102 16.7815 93.4522L16.7814 93.4516L4.46614 5.96498C4.46612 5.96488 4.46611 5.96478 4.46609 5.96468C4.03141 2.84807 6.63943 0.171525 9.75045 0.532923C9.75063 0.532944 9.75082 0.532965 9.751 0.532986L104.274 11.7287L104.275 11.7287C106.775 12.0229 108.763 13.8582 109.281 16.3687C109.281 16.3695 109.281 16.3703 109.282 16.3711L121.436 78.8223L121.437 78.8288C121.778 80.4669 120.688 82.0384 119.046 82.3121Z" fill="white" stroke="#0052FE"/>
<path d="M58.0308 78.407L34.4397 81.126C32.6803 81.3659 31.0809 80.0864 30.841 78.407L22.2043 20.6687C21.9644 19.0693 23.2439 17.6298 24.9233 17.7898L48.5144 19.5491C50.0338 19.6291 51.2334 20.7487 51.4733 22.2681L60.27 75.5281C60.4299 76.8876 59.3903 78.2471 58.0308 78.407Z" fill="#0052FE"/>
<path d="M59.95 77.3673L36.3589 80.0862C34.5996 80.3261 33.0002 79.0466 32.7602 77.3673L24.1235 19.6289C23.8836 18.0295 25.1631 16.59 26.8424 16.75L50.4336 18.5093C51.953 18.5893 53.1526 19.7089 53.3925 21.2283L62.1892 74.4883C62.3491 75.8478 61.3895 77.2073 59.95 77.3673Z" fill="#FFE779"/>
<path d="M36.6787 21.2283L40.3573 21.4682" stroke="#0052FE" stroke-width="1.8" stroke-miterlimit="10" stroke-linecap="round" stroke-linejoin="round"/>
<path d="M42.2766 21.6282H42.5165" stroke="#0052FE" stroke-width="1.8" stroke-miterlimit="10" stroke-linecap="round" stroke-linejoin="round"/>
<path d="M24.843 24.1873L54.112 25.7067" stroke="#0052FE" stroke-width="1.8" stroke-miterlimit="10" stroke-linecap="round" stroke-linejoin="round"/>
<path d="M32.1204 72.8889L61.3894 70.1699" stroke="#0052FE" stroke-width="1.8" stroke-miterlimit="10" stroke-linecap="round" stroke-linejoin="round"/>
<path d="M91.6985 28.4258C92.0983 30.6649 91.0587 32.4243 89.3794 32.3443C87.62 32.2643 85.8607 30.345 85.4608 28.1059C85.061 25.7868 86.1006 24.0274 87.8599 24.1873C89.5393 24.2673 91.2187 26.1866 91.6985 28.4258Z" fill="#6DAFA7"/>
<path d="M94.8172 42.7404H87.6199C86.3403 42.7404 85.3007 41.8607 85.0608 40.5812L84.8209 39.3017C84.1012 35.0633 86.1004 31.7845 89.2193 31.8645C92.3381 31.9444 95.3769 35.3032 96.0967 39.3816L96.3366 40.8211C96.5765 41.8607 95.8568 42.7404 94.8172 42.7404Z" fill="#6DAFA7"/>
<path d="M86.4209 55.3756C86.8208 57.7747 85.7012 59.774 83.8619 59.9339C82.0226 60.0139 80.1033 58.1746 79.7034 55.6955C79.3036 53.2164 80.4232 51.2172 82.3425 51.1372C84.1818 51.1372 85.9411 52.9765 86.4209 55.3756Z" fill="#6DAFA7"/>
<path d="M89.6198 70.6498L82.0226 71.4495C80.6631 71.6094 79.3836 70.6498 79.1437 69.2903L78.9038 68.0108C78.1041 63.5325 80.2633 59.6939 83.702 59.454C86.9808 59.2141 90.2596 62.5728 91.0593 66.8912L91.2992 68.3307C91.5391 69.4502 90.8193 70.4898 89.6198 70.6498Z" fill="#6DAFA7"/>
<path d="M105.933 54.4161C106.333 56.6552 105.453 58.4946 103.854 58.6545C102.254 58.7345 100.575 56.9751 100.175 54.736C99.7753 52.4968 100.735 50.5775 102.334 50.4976C103.934 50.4976 105.533 52.2569 105.933 54.4161Z" fill="#6DAFA7"/>
<path d="M108.812 68.6507L102.894 69.2904C101.535 69.4504 100.335 68.4907 100.095 67.1312L99.9353 66.0916C99.1356 61.9332 100.975 58.4145 103.854 58.1746C106.733 58.0146 109.612 61.1335 110.331 65.132L110.571 66.3315C110.731 67.4511 109.932 68.4907 108.812 68.6507Z" fill="#6DAFA7"/>
<path d="M64.1885 44.2597L71.5457 44.1797" stroke="#0052FE" stroke-width="1.8" stroke-linecap="round" stroke-linejoin="round"/>
<path d="M71.3857 47.5384L75.5441 44.8194C76.0239 44.4995 76.0239 43.7798 75.4641 43.5399L70.3461 40.9009C69.7863 40.581 69.1465 41.0608 69.3064 41.7006L70.2661 47.0586C70.3461 47.6184 70.9059 47.8583 71.3857 47.5384Z" fill="#0052FE"/>
</svg>