<svg width="172" height="89" viewBox="0 0 172 89" fill="none" xmlns="http://www.w3.org/2000/svg">
<path d="M115.297 54.6411L115.297 54.6411L115.293 54.629L99.3765 2.52119C98.9709 1.31267 97.8426 0.502815 96.5432 0.500007L2.36597 3.15287L2.36598 3.15307H2.3519C1.10447 3.15307 0.258041 4.32293 0.560776 5.55522L19.0344 69.1233C19.4404 70.5039 20.8173 71.3783 22.1631 71.1408L22.1631 71.1407L22.1737 71.1391L113.61 57.0209L113.619 57.0195L113.628 57.0185C114.958 56.862 115.66 55.7302 115.297 54.6411Z" fill="white" stroke="#0052FE"/>
<path d="M116.623 57.1357L171.391 62.2524L77.4904 85.3721C75.2163 85.9406 72.8475 85.9406 70.5734 85.3721L19.5964 72.2015L116.623 57.1357Z" fill="white"/>
<path d="M77.3952 83.3722L171.295 60.2524C171.295 62.0527 170.064 63.5688 168.358 64.0426L79.8588 87.5413C76.1634 88.4888 72.1838 88.4888 68.4884 87.3518L22.0595 73.7074C20.4487 73.2336 19.4064 71.8123 19.4064 70.1067L70.3835 83.2774C72.847 83.9407 75.2159 83.9407 77.3952 83.3722Z" fill="#0052FE"/>
<path d="M53.8957 11.5606L60.5284 34.1119C60.7179 34.6804 61.2864 35.0594 61.8549 35.0594L99.0929 31.8378C99.9457 31.743 100.419 30.985 100.23 30.227L93.9762 9.57082C93.7867 9.0023 93.3129 8.62329 92.7444 8.62329L55.1275 9.94986C54.2747 9.94986 53.7062 10.8026 53.8957 11.5606Z" fill="#0052FE"/>
<path d="M61.0032 15.6338L65.1723 29.1835L94.1667 27.0989L93.1244 24.0668L82.4174 19.3291L76.3532 24.0668L61.0032 15.6338Z" fill="#F4C2C9"/>
<path d="M82.7023 43.3017L85.4501 51.8295C85.6396 52.398 86.2081 52.777 86.8714 52.6823L104.78 50.3135C105.538 50.2187 106.106 49.4607 105.822 48.7027L103.453 40.7434C103.264 40.1749 102.695 39.7959 102.127 39.7959L83.8393 41.691C82.9865 41.691 82.418 42.449 82.7023 43.3017Z" fill="#FFE779"/>
<path d="M54.6541 46.1451L57.6862 55.5256C57.8757 56.0942 58.4442 56.4732 59.1075 56.3784L76.163 54.1044C76.9211 54.0096 77.4896 53.2516 77.2053 52.3988L74.3627 43.5868C74.1732 43.0183 73.6047 42.6392 73.0362 42.734L55.7912 44.4396C54.9384 44.5343 54.3698 45.2923 54.6541 46.1451Z" fill="#6DAFA7"/>
<path d="M22.4375 49.3666L25.6591 59.7895C25.8486 60.358 26.4171 60.737 27.0804 60.6423L47.6418 57.8944C48.3998 57.7997 48.9683 57.0416 48.6841 56.1889L45.5572 46.4293C45.3677 45.8608 44.7992 45.4818 44.2307 45.5765L23.6693 47.6611C22.7217 47.7559 22.1532 48.6086 22.4375 49.3666Z" fill="#F4C2C9"/>
<path d="M33.5245 16.108C34.1878 18.9506 37.1251 21.1299 39.9677 20.9404C42.7156 20.7509 44.1368 18.3821 43.3788 15.729C42.6208 13.1707 39.9677 11.2756 37.4094 11.2756C34.7563 11.2756 32.956 13.455 33.5245 16.108Z" fill="#FFE779"/>
<path d="M26.7969 12.9817L12.963 13.4555" stroke="#0052FE" stroke-width="1.8" stroke-miterlimit="10" stroke-linecap="round" stroke-linejoin="round"/>
<path d="M48.4006 30.9841L18.7429 33.0687" stroke="#0052FE" stroke-width="1.8" stroke-miterlimit="10" stroke-linecap="round" stroke-linejoin="round"/>
<path d="M28.407 18.5718L14.5731 19.1403" stroke="#0052FE" stroke-width="1.8" stroke-miterlimit="10" stroke-linecap="round" stroke-linejoin="round"/>
</svg>