<svg width="349" height="132" viewBox="0 0 349 132" fill="none" xmlns="http://www.w3.org/2000/svg">
<g clip-path="url(#clip0_106_954)">
<path d="M277.216 29.4553H247.282L244.25 31.4118C243.272 32.0965 242 31.3139 242 30.1401V8.91285C242 6.76078 243.761 5 245.913 5H277.314C279.466 5 281.226 6.76078 281.226 8.91285V25.4447C281.129 27.6946 279.368 29.4553 277.216 29.4553Z" fill="#F4C2C9"/>
<path d="M261.176 14.7821H271.643" stroke="#2B313B" stroke-width="1.76078" stroke-miterlimit="10" stroke-linecap="round" stroke-linejoin="round"/>
<path d="M261.176 20.1623H267.534" stroke="#2B313B" stroke-width="1.76078" stroke-miterlimit="10" stroke-linecap="round" stroke-linejoin="round"/>
<path d="M255.794 14.7821H250.414V20.1623H255.794V14.7821Z" stroke="#2B313B" stroke-width="1.76078" stroke-miterlimit="10" stroke-linecap="round" stroke-linejoin="round"/>
<path d="M126.075 87.8737L25.4862 103.111C23.2244 103.468 21.2007 101.801 21.0222 99.5396L15.0107 8.95055C14.8321 6.45072 16.9153 4.36753 19.4152 4.54609L120.182 10.9742C122.087 11.0933 123.634 12.5813 123.813 14.4859L129.586 83.4693C129.765 85.5524 128.217 87.5166 126.075 87.8737Z" fill="#0052FE"/>
<path d="M128.813 87.7547L27.7488 103.051C25.487 103.408 23.4634 101.742 23.2848 99.4801L17.2138 8.4744C17.0353 5.97457 19.1184 3.83186 21.6778 4.01042L122.861 10.4385C124.766 10.5576 126.313 12.0456 126.492 14.0097L132.325 83.2907C132.563 85.4929 131.016 87.4571 128.813 87.7547Z" fill="#C0D4FE"/>
<path d="M62.9244 56.5663L34.474 58.1138C33.5812 58.1733 32.8074 57.4591 32.7479 56.5663L31.0813 32.5203C31.0218 31.568 31.7956 30.7347 32.7479 30.7347L61.1983 30.9133C62.0911 30.9133 62.8054 31.568 62.8649 32.4608L64.5314 54.7807C64.591 55.733 63.8767 56.5068 62.9244 56.5663Z" fill="#FEF6CB"/>
<path d="M93.5177 47.2813L69.7099 48.1145C68.8171 48.174 68.0433 47.4598 67.9838 46.567L66.972 32.6989C66.9124 31.7466 67.6862 30.9133 68.6385 30.9133L92.4464 31.0919C93.2797 31.0919 93.9939 31.7466 94.1129 32.6394L95.1248 45.4957C95.1843 46.448 94.4701 47.2813 93.5177 47.2813Z" fill="#5D91FD"/>
<path d="M120.48 46.3885L100.422 47.1027C99.529 47.1622 98.7552 46.448 98.6957 45.5552L97.6839 32.9965C97.6244 32.0442 98.3981 31.2109 99.3504 31.2109L119.409 31.33C120.242 31.33 120.956 31.9847 121.075 32.8775L122.027 44.6029C122.147 45.4957 121.432 46.3289 120.48 46.3885Z" fill="#F4C2C9"/>
<path d="M64.7102 79.8981L36.2598 82.9931C35.3075 83.1122 34.4742 82.3979 34.4147 81.4456L33.3433 65.911C33.2838 65.0182 33.998 64.1849 34.8908 64.1254L63.4008 62.2207C64.2936 62.1612 65.1268 62.8159 65.1864 63.7682L66.2577 78.1125C66.2577 79.0053 65.603 79.7791 64.7102 79.8981Z" stroke="#2B313B" stroke-width="1.07135" stroke-miterlimit="10" stroke-linecap="round" stroke-linejoin="round"/>
<path d="M96.1979 79.3029L72.4495 82.1003C71.4972 82.2193 70.6639 81.5051 70.6044 80.5528L68.6998 54.8998C68.6402 53.9475 69.3545 53.1737 70.2473 53.1142L94.0552 51.9833C94.948 51.9238 95.7217 52.638 95.7812 53.5308L97.6859 77.5173C97.7454 78.4101 97.0907 79.1838 96.1979 79.3029Z" fill="#F4C2C9"/>
<path d="M91.2562 56.4473L74.174 57.4591C73.7574 57.4591 73.4598 57.8162 73.5193 58.2329L74.2931 68.8274C74.3526 69.244 74.6502 69.5416 75.0668 69.4821L92.149 67.9941C92.5656 67.9346 92.8632 67.637 92.8037 67.2203L92.0299 57.102C91.9704 56.7449 91.6133 56.4473 91.2562 56.4473Z" fill="#FEF6CB"/>
<path d="M122.86 73.4104L102.802 75.6126C101.85 75.7316 101.017 75.0174 100.957 74.0651L99.3501 53.4118C99.2906 52.4594 100.005 51.6857 100.898 51.6262L120.956 50.6738C121.849 50.6143 122.622 51.3286 122.682 52.2214L124.289 71.6248C124.408 72.5176 123.753 73.2914 122.86 73.4104Z" fill="#5D91FD"/>
<path d="M50.1895 70.0773L50.5466 74.4818" stroke="#2B313B" stroke-width="1.07135" stroke-miterlimit="10" stroke-linecap="round" stroke-linejoin="round"/>
<path d="M48.2842 72.4581L52.4506 72.101" stroke="#2B313B" stroke-width="1.07135" stroke-miterlimit="10" stroke-linecap="round" stroke-linejoin="round"/>
<path d="M78.6975 74.9579C78.5785 73.7675 77.6857 72.8152 76.6143 72.9342C75.543 73.0533 74.7097 74.1246 74.8287 75.3746C74.9478 76.6245 75.9001 77.5173 76.9714 77.3982C77.9833 77.2197 78.757 76.1483 78.6975 74.9579Z" fill="#2B313B"/>
<path d="M82.1504 74.6008L93.2806 73.4699" stroke="#2B313B" stroke-width="1.07135" stroke-miterlimit="10" stroke-linecap="round" stroke-linejoin="round"/>
<path d="M106.909 57.221C106.79 56.0902 106.016 55.2569 105.064 55.2569C104.112 55.3164 103.457 56.2687 103.516 57.3996C103.635 58.5305 104.409 59.4233 105.362 59.3638C106.373 59.3042 107.028 58.3519 106.909 57.221Z" fill="#FEF6CB"/>
<path d="M109.944 57.0425L119.527 56.4473" stroke="#2B313B" stroke-width="1.07135" stroke-miterlimit="10" stroke-linecap="round" stroke-linejoin="round"/>
<path d="M107.446 63.5897C107.327 62.4588 106.553 61.6255 105.601 61.6851C104.649 61.7446 103.994 62.7564 104.054 63.8873C104.173 65.0182 105.006 65.9109 105.899 65.7919C106.851 65.6729 107.565 64.7206 107.446 63.5897Z" fill="#FEF6CB"/>
<path d="M110.423 63.3516L120.065 62.5779" stroke="#2B313B" stroke-width="1.07135" stroke-miterlimit="10" stroke-linecap="round" stroke-linejoin="round"/>
<path d="M107.983 69.9583C107.864 68.8274 107.09 67.9941 106.138 68.0536C105.186 68.1132 104.531 69.125 104.591 70.2559C104.71 71.3867 105.543 72.22 106.436 72.1605C107.388 72.0415 108.043 71.0891 107.983 69.9583Z" fill="#FEF6CB"/>
<path d="M110.96 69.6606L120.543 68.7083" stroke="#2B313B" stroke-width="1.07135" stroke-miterlimit="10" stroke-linecap="round" stroke-linejoin="round"/>
<path d="M41.0203 40.377L37.1515 40.4365C36.7944 40.4365 36.4968 40.1389 36.4372 39.7818L36.1396 35.7344C36.1396 35.3178 36.4373 35.0202 36.8539 35.0202H40.7227C41.0798 35.0202 41.3774 35.3178 41.4369 35.6749L41.7345 39.6627C41.675 40.0199 41.3774 40.377 41.0203 40.377Z" fill="#5D91FD"/>
<path d="M45.1875 35.0202L58.5794 34.9607" stroke="#2B313B" stroke-width="1.07135" stroke-miterlimit="10" stroke-linecap="round" stroke-linejoin="round"/>
<path d="M45.4248 38.4724L58.8167 38.3533" stroke="#2B313B" stroke-width="1.07135" stroke-miterlimit="10" stroke-linecap="round" stroke-linejoin="round"/>
<path d="M105.244 39.4247L102.208 39.4842C102.03 39.4842 101.851 39.3056 101.792 39.1271L101.494 35.2583C101.494 35.0202 101.673 34.8416 101.911 34.8416H104.946C105.125 34.8416 105.303 35.0202 105.363 35.1988L105.661 39.008C105.661 39.1866 105.482 39.4247 105.244 39.4247Z" fill="#2B313B"/>
<path d="M108.101 34.7821H118.04" stroke="#2B313B" stroke-width="1.07135" stroke-miterlimit="10" stroke-linecap="round" stroke-linejoin="round"/>
<path d="M108.397 37.8176L118.278 37.6985" stroke="#2B313B" stroke-width="1.07135" stroke-miterlimit="10" stroke-linecap="round" stroke-linejoin="round"/>
<path d="M102.089 42.7577L118.635 42.3411" stroke="#2B313B" stroke-width="1.07135" stroke-miterlimit="10" stroke-linecap="round" stroke-linejoin="round"/>
<path d="M41.6755 49.6025L37.8068 49.7216C37.4496 49.7216 37.0925 49.424 37.0925 49.0669L36.7949 45.0195C36.7949 44.6029 37.0925 44.3053 37.4496 44.3053L41.3184 44.1862C41.6755 44.1862 41.9731 44.4838 42.0327 44.841L42.3302 48.8288C42.3302 49.2454 42.0327 49.6025 41.6755 49.6025Z" fill="#5D91FD"/>
<path d="M45.8408 44.1267L59.2328 43.7696" stroke="#2B313B" stroke-width="1.07135" stroke-miterlimit="10" stroke-linecap="round" stroke-linejoin="round"/>
<path d="M46.0781 47.6384L59.4701 47.2217" stroke="#2B313B" stroke-width="1.07135" stroke-miterlimit="10" stroke-linecap="round" stroke-linejoin="round"/>
<path d="M51.4366 20.795L31.3785 20.1998C30.7238 20.1998 30.1881 19.6641 30.1286 19.0094L29.8905 15.8548C29.831 15.0811 30.4857 14.4264 31.1999 14.4859L51.2581 15.3192C51.9128 15.3192 52.4485 15.8548 52.508 16.5096L52.7461 19.426C52.8056 20.1403 52.2104 20.795 51.4366 20.795Z" fill="#FEF6CB"/>
<path d="M71.7354 34.9012L90.6626 34.8416" stroke="#2B313B" stroke-width="1.07135" stroke-miterlimit="10" stroke-linecap="round" stroke-linejoin="round"/>
<path d="M71.9707 38.2343L90.898 37.9962" stroke="#2B313B" stroke-width="1.07135" stroke-miterlimit="10" stroke-linecap="round" stroke-linejoin="round"/>
<path d="M72.3291 43.472L82.507 43.2339" stroke="#2B313B" stroke-width="1.07135" stroke-miterlimit="10" stroke-linecap="round" stroke-linejoin="round"/>
<path d="M119.884 20.4974C119.825 19.6046 119.17 18.8308 118.396 18.7713C117.682 18.7118 117.087 19.4855 117.206 20.3783C117.265 21.3306 117.92 22.1044 118.694 22.1044C119.408 22.1639 119.944 21.3902 119.884 20.4974Z" fill="#63737A"/>
<path d="M114.586 20.3188C114.527 19.3665 113.812 18.5927 113.098 18.5927C112.324 18.5332 111.789 19.307 111.848 20.2593C111.908 21.2116 112.622 21.9854 113.396 21.9854C114.11 21.9854 114.646 21.2116 114.586 20.3188Z" fill="#2B313B"/>
<path d="M109.113 20.0807C109.053 19.1284 108.339 18.3547 107.565 18.2952C106.792 18.2356 106.197 19.0094 106.256 19.9617C106.316 20.914 107.03 21.6878 107.804 21.7473C108.637 21.8068 109.173 21.0331 109.113 20.0807Z" fill="#2B313B"/>
<path d="M163 90.8461C163 90.8461 159.31 98.5241 159.012 103.405C158.715 108.285 163.893 127.867 172.345 142.807C172.345 142.807 180.32 140.188 180.32 137.748C180.32 135.307 175.618 106.44 175.916 105.607C176.213 104.774 179.487 98.6432 179.487 96.0243C179.487 93.4649 164.25 87.9891 163 90.8461Z" fill="#F4C2C9"/>
<path d="M179.486 96.0243C179.486 93.4054 164.309 87.9891 163.059 90.8461C163.059 90.8461 162.582 91.9174 161.928 93.465C166.749 97.2147 171.927 100.429 177.82 101.5C178.653 99.5955 179.486 97.3337 179.486 96.0243Z" fill="#E26E85"/>
<path d="M178.832 58.2293C178.832 58.2293 172.88 60.2529 168.356 70.4903C163.773 80.7872 159.012 89.2986 159.012 89.2986C159.012 89.2986 166.452 96.679 175.975 100.429C185.498 104.298 185.855 59.1816 178.832 58.2293Z" fill="#3B5A9A"/>
<path d="M160.68 86.2631C160.68 86.2631 170.858 94.5958 180.321 98.2265" stroke="#2B313B" stroke-width="1.07135" stroke-miterlimit="10" stroke-linecap="round" stroke-linejoin="round"/>
<path d="M170.501 127.51C170.501 127.51 169.072 133.998 168.358 142.747C167.644 151.497 170.144 205.719 170.501 209.945C170.858 214.171 172.227 238.276 173.774 250.002C175.024 259.644 174.132 279.107 177.048 281.845C179.964 284.583 188.892 286.071 194.428 284.583C199.963 283.095 202.522 280.357 203.177 278.095C203.832 275.833 201.213 258.632 201.392 249.883C201.57 241.133 201.392 215.302 201.094 209.171C201.094 209.171 203.534 177.864 206.451 170.722C209.367 163.579 213.593 137.271 205.498 129.653C197.285 122.034 171.215 126.26 170.501 127.51Z" fill="#2B313B"/>
<path d="M183.534 130.962C183.534 130.962 183.474 142.747 183.95 151.556C184.129 154.889 184.426 157.806 184.843 159.532C186.331 165.722 189.545 166.198 191.985 167.627C194.426 169.115 203.175 204.112 206.746 213.219C206.746 213.219 209.484 234.17 211.627 246.669C213.71 259.168 213.413 274.286 215.02 279.464C216.627 284.642 226.031 285.654 230.614 285.237C235.197 284.821 241.327 283.035 241.149 277.678C240.97 272.322 240.077 257.085 239.304 244.109C238.47 231.134 237.042 211.79 236.685 207.267C236.685 207.267 234.899 185.84 233.947 174.828C232.995 163.817 233.53 152.568 232.102 133.581C230.554 114.535 183.474 120.368 183.534 130.962Z" fill="#2B313B"/>
<path d="M207.639 56.1461C207.639 56.1461 210.615 57.0389 216.924 57.158C223.233 57.277 230.435 59.1221 233.233 62.6338C236.03 66.1454 236.923 92.0365 236.506 103.762C236.09 115.428 227.697 132.927 227.697 132.927C227.697 132.927 207.639 135.188 191.212 134.415C174.784 133.581 170.856 130.01 169.725 128.879C168.594 127.748 167.94 125.01 168.594 123.82C169.249 122.689 172.463 113.404 173.654 104.536C174.784 95.6077 172.344 83.2871 173.475 72.395C174.606 61.5029 178.832 58.2888 178.832 58.2888C178.832 58.2888 184.129 56.5032 193.295 56.2056C202.402 55.789 207.639 56.1461 207.639 56.1461Z" fill="#5D91FD"/>
<path d="M206.748 87.513C208.884 87.513 210.616 85.7809 210.616 83.6442C210.616 81.5075 208.884 79.7754 206.748 79.7754C204.611 79.7754 202.879 81.5075 202.879 83.6442C202.879 85.7809 204.611 87.513 206.748 87.513Z" fill="#FEF6CB"/>
<path d="M193.773 53.8843C192.166 53.9439 190.916 54.8962 189.785 56.027C189.07 56.7413 188.416 57.6936 188.118 58.9435C185.856 69.8951 189.309 83.1085 193.713 82.9895C199.248 82.8109 206.688 72.7521 212.521 61.3243C214.902 56.6222 210.319 53.3486 207.641 53.3486C205.557 53.2891 197.106 53.7058 193.773 53.8843Z" fill="#3B5A9A"/>
<path d="M219.188 30.7312C219.188 30.7312 219.188 35.5523 216.391 40.3138C213.593 45.0754 210.201 47.5753 209.07 49.718C207.939 51.8607 208.237 46.2658 209.07 43.5874C209.903 40.9686 214.843 26.6243 219.188 30.7312Z" fill="#2B313B"/>
<path d="M192.525 48.8252C192.525 48.8252 191.87 54.5986 191.453 56.8008C191.037 59.003 190.084 64.7765 197.465 65.1336C204.072 65.4907 207.643 60.372 208.952 57.8722C209.369 57.0984 209.547 56.2651 209.488 55.4319C209.309 52.813 208.952 46.3849 209.131 41.1471C209.369 34.4809 192.525 44.1231 192.525 48.8252Z" fill="#F4C2C9"/>
<path d="M205.617 49.2418C202.105 52.0393 196.927 53.3487 192.046 52.6345C191.868 54.182 191.63 55.8485 191.451 56.8008C191.391 57.0984 191.332 57.4556 191.272 57.8722C197.284 58.1698 204.129 55.1938 205.617 49.2418Z" fill="#E26E85"/>
<path d="M185.5 27.3981C185.5 27.3981 183.893 29.7194 184.131 31.5049C184.37 33.2905 187.762 39.302 189.488 39.1235C191.214 38.9449 193 31.5645 190.976 29.1242C188.893 26.6838 186.155 26.2672 185.5 27.3981Z" fill="#2B313B"/>
<path d="M186.869 30.7907C186.869 30.7907 187.048 34.9571 186.274 39.7187C185.5 44.4802 184.965 51.6226 192.047 53.5868C199.13 55.5509 207.463 52.8725 210.082 43.1113C212.701 33.35 214.605 23.4698 205.558 20.6128C196.511 17.7559 185.798 21.4461 186.869 30.7907Z" fill="#F4C2C9"/>
<path d="M189.906 35.5523C190.085 36.207 190.025 36.9807 189.787 37.695C189.668 38.0521 189.49 38.3497 189.251 38.6473C189.132 38.8259 189.013 38.9449 188.894 39.0639C188.835 39.1235 188.775 39.2425 188.716 39.302C188.656 39.4806 188.656 39.6591 188.716 39.8377C188.775 40.0758 188.954 40.3139 189.132 40.5519C189.49 41.0281 190.025 41.4447 190.561 41.8018C189.847 41.8614 189.132 41.6233 188.537 41.1471C188.24 40.909 187.942 40.6115 187.763 40.1948C187.585 39.7782 187.525 39.2425 187.763 38.8259C187.883 38.5878 188.002 38.4092 188.18 38.2902C188.299 38.1711 188.418 38.1116 188.478 37.9926C188.656 37.7545 188.894 37.5164 189.013 37.2783C189.37 36.7427 189.668 36.207 189.906 35.5523Z" fill="#2B313B"/>
<path d="M209.725 38.2902C209.725 38.2902 208.832 36.9212 208.415 34.1833C208.058 31.4454 205.142 31.624 203.773 26.5648C202.404 21.5056 199.071 27.7552 193.774 30.0169C188.476 32.2787 184.31 28.648 182.167 24.6006C180.084 20.6128 183.655 16.9821 186.096 15.3156C188.536 13.649 191.095 16.3274 195.857 15.137C200.618 13.9466 208.296 12.4586 211.987 17.8154C215.677 23.1722 219.486 24.4816 219.248 30.3145C218.95 36.1475 212.165 42.6351 211.749 42.6946C211.272 42.8137 209.725 38.2902 209.725 38.2902Z" fill="#2B313B"/>
<path d="M197.166 32.6953C196.988 32.2192 196.809 31.3264 197.464 30.8502C198.119 30.374 199.607 30.5526 201.035 31.4454C202.285 32.2192 202.642 33.4691 201.809 33.35C200.976 33.231 200.321 32.8739 199.309 32.8144C198.238 32.7548 197.345 33.112 197.166 32.6953Z" fill="#2B313B"/>
<path d="M190.024 32.0406C190.143 31.624 190.262 30.8502 189.845 30.3145C189.488 29.8384 188.536 29.8979 187.643 30.5526C186.869 31.1478 186.631 32.2787 187.167 32.2192C187.703 32.1596 188.06 31.9216 188.714 31.9811C189.369 32.0406 189.905 32.3977 190.024 32.0406Z" fill="#2B313B"/>
<path d="M185.917 42.7542C185.917 42.7542 185.857 43.4684 186.869 43.647C187.881 43.766 188 42.278 189.726 42.0399C190.798 41.9209 194.547 42.2185 196.095 43.647C197.642 45.0754 199.785 46.742 202.88 45.7897C205.975 44.8374 207.82 40.4924 208.415 34.1833C208.951 28.4099 211.094 34.0048 211.094 35.3737C211.094 36.326 210.201 34.9571 209.13 38.8259C208.654 40.5519 209.13 45.4326 207.285 49.0037C205.856 51.7416 201.868 54.5391 196.809 54.8962C191.75 55.2533 187.584 53.1701 186.334 49.837C185.084 46.623 185.56 42.9922 185.917 42.7542Z" fill="#2B313B"/>
<path d="M188.357 36.5046C188.834 36.5641 189.25 36.207 189.31 35.7308L189.369 35.2546C189.429 34.7785 189.072 34.3618 188.595 34.3023C188.119 34.2428 187.703 34.5999 187.643 35.0761L187.584 35.5522C187.524 36.0284 187.881 36.445 188.357 36.5046Z" fill="#2B313B"/>
<path d="M197.821 37.0998C198.297 37.1594 198.714 36.8022 198.774 36.3261L198.833 35.8499C198.893 35.3738 198.536 34.9571 198.059 34.8976C197.583 34.8381 197.167 35.1952 197.107 35.6714L197.048 36.1475C196.988 36.6832 197.345 37.0998 197.821 37.0998Z" fill="#2B313B"/>
<path d="M209.07 38.8259C209.07 38.8259 210.677 35.2547 213.475 35.6713C216.332 36.1475 214.903 43.647 209.725 43.5874" fill="#F4C2C9"/>
<path d="M213.298 38.3497C213.119 38.1711 212.941 37.9926 212.821 37.9331C212.643 37.8735 212.702 37.9926 212.583 38.0521C212.583 38.1116 212.464 38.5878 212.405 39.0044C212.345 39.4211 212.226 39.8972 211.988 40.3139C211.869 40.5519 211.75 40.79 211.512 40.9686C211.274 41.1471 210.976 41.2066 210.738 41.0876C210.976 40.9686 211.036 40.79 211.095 40.6114C211.155 40.4329 211.155 40.2543 211.214 40.0758C211.274 39.6591 211.274 39.2425 211.393 38.7663C211.453 38.5283 211.512 38.2902 211.572 38.0521C211.631 37.9331 211.691 37.814 211.75 37.695C211.81 37.6355 211.81 37.5759 211.929 37.5164C211.988 37.4569 212.107 37.3974 212.167 37.3379C212.286 37.2783 212.464 37.2188 212.702 37.2188C212.941 37.2783 213.06 37.3974 213.179 37.5164C213.357 37.814 213.357 38.1116 213.298 38.3497Z" fill="#2B313B"/>
<path d="M192.524 46.0872C192.524 46.0872 194.131 46.8015 195.738 46.5039" stroke="#F4C2C9" stroke-width="1.07135" stroke-miterlimit="10" stroke-linecap="round" stroke-linejoin="round"/>
<path d="M189.652 34.7932C189.937 31.8153 188.575 29.2493 186.612 29.0619C184.648 28.8745 182.826 31.1366 182.542 34.1145C182.258 37.0923 183.619 39.6583 185.582 39.8458C187.546 40.0332 189.368 37.7711 189.652 34.7932Z" stroke="#2B313B" stroke-width="1.07135" stroke-miterlimit="10" stroke-linecap="round" stroke-linejoin="round"/>
<path d="M202.887 35.9524C203.171 32.9746 201.359 30.3655 198.839 30.125C196.319 29.8844 194.046 32.1035 193.762 35.0814C193.478 38.0593 195.29 40.6683 197.809 40.9088C200.329 41.1493 202.602 38.9303 202.887 35.9524Z" stroke="#2B313B" stroke-width="1.07135" stroke-miterlimit="10" stroke-linecap="round" stroke-linejoin="round"/>
<path d="M189.487 35.6713C189.487 35.6713 190.499 33.7667 193.713 36.0284" stroke="#2B313B" stroke-width="1.07135" stroke-miterlimit="10" stroke-linecap="round" stroke-linejoin="round"/>
<path d="M202.82 35.9689L209.546 37.3974" stroke="#2B313B" stroke-width="1.07135" stroke-miterlimit="10" stroke-linecap="round" stroke-linejoin="round"/>
<path d="M228.591 101.679L231.746 108.047C231.746 108.047 228.412 112.571 224.841 121.142C221.27 129.712 218.651 140.307 216.211 143.342C216.211 143.342 218.592 149.056 224.425 151.556C224.425 151.556 235.793 134.891 240.971 127.629C246.149 120.368 251.089 111.083 250.732 106.44C250.197 99.5955 245.018 89.4771 244.542 86.7392C244.066 84.0013 228.71 93.7625 228.591 101.679Z" fill="#F4C2C9"/>
<path d="M244.483 86.7392C244.066 84.0608 228.71 93.7626 228.591 101.679L229.067 102.571C234.483 98.4646 240.554 95.6672 247.042 93.7031C245.792 90.608 244.661 87.9296 244.483 86.7392Z" fill="#E26E85"/>
<path d="M230.318 62.1576C231.747 61.9195 233.175 62.4552 234.068 63.5861C235.437 65.3121 237.699 68.6452 240.496 74.3591C245.198 83.9418 248.472 90.2509 248.472 90.2509C248.472 90.2509 232.163 99.0598 228.592 101.679C228.592 101.679 221.985 90.5485 219.843 85.906C217.759 81.5015 218.355 64.3598 230.318 62.1576Z" fill="#3B5A9A"/>
<path d="M226.567 98.2265C226.567 98.2265 235.495 91.5603 246.626 86.6797" stroke="#2B313B" stroke-width="1.07135" stroke-miterlimit="10" stroke-linecap="round" stroke-linejoin="round"/>
<path d="M231.744 108.047C231.744 108.047 233.292 106.024 236.625 105.25" stroke="#E26E85" stroke-width="1.07135" stroke-miterlimit="10" stroke-linecap="round" stroke-linejoin="round"/>
<path d="M321.217 121.778L268.542 115.291C266.816 115.053 265.625 113.565 265.804 111.839L271.399 59.5803C271.637 57.5567 273.184 55.9496 275.208 55.652L329.728 48.2716C331.752 47.974 333.537 49.7001 333.299 51.7832L325.205 118.743C324.966 120.648 323.181 122.017 321.217 121.778Z" fill="#0052FE"/>
<path d="M319.431 121.6L266.756 115.053C265.03 114.815 263.839 113.327 264.018 111.601L269.613 59.3423C269.851 57.3186 271.398 55.7116 273.422 55.414L327.942 48.0335C329.966 47.7359 331.751 49.462 331.513 51.5452L323.418 118.505C323.18 120.41 321.395 121.838 319.431 121.6Z" fill="#C0D4FE"/>
<path d="M317.467 73.0318L276.22 75.115C275.506 75.1745 274.911 74.5198 275.03 73.8651L276.042 64.6395C276.101 64.1038 276.518 63.6872 277.054 63.6277L318.658 59.5208C319.372 59.4613 320.027 60.0565 319.908 60.8302L318.539 72.139C318.539 72.5556 318.063 72.9723 317.467 73.0318Z" fill="#FEF6CB"/>
<path d="M286.759 66.8417L314.078 64.6395" stroke="#2B313B" stroke-width="1.07135" stroke-miterlimit="10" stroke-linecap="round" stroke-linejoin="round"/>
<path d="M286.401 70.3534L301.103 69.3416" stroke="#2B313B" stroke-width="1.07135" stroke-miterlimit="10" stroke-linecap="round" stroke-linejoin="round"/>
<path d="M282.017 69.7434C282.548 68.7598 282.321 67.6082 281.511 67.1713C280.701 66.7344 279.614 67.1775 279.084 68.1612C278.553 69.1448 278.78 70.2964 279.59 70.7333C280.4 71.1703 281.487 70.727 282.017 69.7434Z" fill="#2B313B"/>
<path d="M315.143 91.8995L274.372 91.1853C273.717 91.1853 273.181 90.5901 273.241 89.9354L274.253 80.7693C274.312 80.1742 274.788 79.7575 275.384 79.7575L316.452 78.4481C317.166 78.4481 317.702 79.0433 317.643 79.7575L316.333 90.9472C316.274 91.4234 315.738 91.8995 315.143 91.8995Z" fill="#F4C2C9"/>
<path d="M284.905 83.6263L311.927 83.2691" stroke="#2B313B" stroke-width="1.07135" stroke-miterlimit="10" stroke-linecap="round" stroke-linejoin="round"/>
<path d="M284.489 87.0784H299.072" stroke="#2B313B" stroke-width="1.07135" stroke-miterlimit="10" stroke-linecap="round" stroke-linejoin="round"/>
<path d="M280.235 86.1705C280.721 85.1642 280.468 84.0354 279.669 83.6493C278.869 83.2632 277.827 83.766 277.341 84.7724C276.855 85.7787 277.109 86.9074 277.908 87.2935C278.707 87.6796 279.749 87.1768 280.235 86.1705Z" fill="#2B313B"/>
<path d="M312.884 110.589L272.589 107.137C271.934 107.077 271.458 106.482 271.518 105.887L272.53 96.7801C272.589 96.1849 273.125 95.7088 273.72 95.7683L314.312 97.2563C314.967 97.2563 315.503 97.8515 315.443 98.5657L314.134 109.636C314.074 110.172 313.479 110.589 312.884 110.589Z" fill="#5D91FD"/>
<path d="M283.065 100.292L309.73 101.72" stroke="#2B313B" stroke-width="1.07135" stroke-miterlimit="10" stroke-linecap="round" stroke-linejoin="round"/>
<path d="M282.647 103.684L297.051 104.696" stroke="#2B313B" stroke-width="1.07135" stroke-miterlimit="10" stroke-linecap="round" stroke-linejoin="round"/>
<path d="M278.549 102.104C278.989 101.077 278.685 99.9606 277.869 99.6111C277.053 99.2616 276.035 99.8111 275.595 100.838C275.155 101.866 275.459 102.982 276.275 103.331C277.091 103.681 278.109 103.131 278.549 102.104Z" fill="#2B313B"/>
<path d="M131.744 128.19L156.861 118.846C157.814 118.489 158.468 117.536 158.468 116.524L108.591 112.953L116.269 126.762L129.244 128.488C130.077 128.607 130.97 128.488 131.744 128.19Z" fill="#2B313B"/>
<path d="M68.5349 119.084L64.0114 83.7886C63.8923 82.7768 64.7256 81.9435 65.6779 82.003L126.031 86.2884C126.924 86.3479 127.638 87.0622 127.697 87.955L131.269 126.821C131.388 127.833 130.495 128.666 129.483 128.547L70.0824 120.691C69.2491 120.512 68.5944 119.858 68.5349 119.084Z" fill="#6C7A93"/>
<path d="M158.469 116.584C158.469 117.655 157.815 118.548 156.862 118.905L131.745 128.25C131.15 128.488 130.436 128.607 129.781 128.547C128.829 127.833 128.233 126.702 128.233 126.702L158.469 116.584Z" fill="#6C7A93"/>
<path d="M97.3692 107.367C98.9557 106.196 99.1338 103.745 97.767 101.894C96.4002 100.043 94.0061 99.4927 92.4195 100.664C90.833 101.836 90.6549 104.286 92.0217 106.137C93.3885 107.988 95.7827 108.539 97.3692 107.367Z" fill="#F5F8FF"/>
</g>
<defs>
<clipPath id="clip0_106_954">
<rect width="349" height="132" fill="white"/>
</clipPath>
</defs>
</svg>