<svg width="277" height="215" viewBox="0 0 277 215" fill="none" xmlns="http://www.w3.org/2000/svg">
<path d="M231.857 94.1975H32.3408V214.665H231.857V94.1975Z" fill="#FFF0E6"/>
<path fill-rule="evenodd" clip-rule="evenodd" d="M225.297 175.353H194.492V204.905H225.297V175.353ZM186.975 152.093H156.171V204.905H186.975V152.093ZM148.654 142.069H117.849V204.905H148.654V142.069ZM110.332 130.143H79.5269V204.905H110.332V130.143ZM72.0099 183.794H41.2051V204.905H72.0099V183.794Z" fill="#FFA396"/>
<path fill-rule="evenodd" clip-rule="evenodd" d="M217.849 136.03L219.363 132.142L229.568 145.315L213.319 147.661L214.917 143.557L126.406 106.616L118.21 121.294L103.256 113.599L72.9282 192.018L52.448 181.732C48.0968 189.077 44.4837 195.459 41.6316 199.619L35.166 194.957C38.3526 190.311 42.4966 182.825 47.5883 174.345L49.4695 171.213L68.7308 180.887L99.0886 102.388L115.068 110.61L122.981 96.438L217.849 136.03Z" fill="#CD0000"/>
<path fill-rule="evenodd" clip-rule="evenodd" d="M212.121 131.923L210.527 52.4083L146.704 38.5L77.6501 23.029C65.3287 20.2684 52.4912 20.8756 40.4854 24.7869L26.8113 29.2416L7.94998 53.4041C7.58705 53.8689 6.91495 53.9517 6.44993 53.5888C5.98507 53.2259 5.90226 52.5538 6.26518 52.0889L25.5285 27.4117L39.8234 22.7547C52.194 18.7247 65.4215 18.099 78.1173 20.9434C104.044 26.752 147.169 36.4137 147.161 36.4124L212.63 50.6791L214.267 132.325L215.682 130.489C215.878 130.233 216.246 130.185 216.501 130.382C216.755 130.58 216.804 130.946 216.607 131.202L214.305 134.19L214.493 143.591C214.505 144.181 214.036 144.669 213.446 144.682C212.857 144.694 212.368 144.223 212.357 143.635L212.161 133.857L210.068 131.208C209.868 130.955 209.912 130.587 210.164 130.387C210.417 130.187 210.785 130.231 210.984 130.483L212.121 131.923Z" fill="black"/>
<path fill-rule="evenodd" clip-rule="evenodd" d="M63.0316 46.7783C63.0316 46.7783 44.357 52.5033 29.7479 56.9818C25.805 58.1904 22.6887 61.2289 21.3804 65.1401C20.0721 69.0511 20.7332 73.3531 23.1552 76.691C28.5399 84.1115 33.98 91.6084 33.98 91.6084C33.98 91.6084 31.544 92.3278 31.7998 93.9222L60.3552 94.3477L49.0921 77.8136C49.0921 77.8136 73.3503 76.0407 79.5713 72.8014L116.616 91.8705C116.616 91.8705 112.325 92.5662 112.099 94.5156L133.249 94.2802C133.249 94.2802 138.917 89.6988 141.254 87.8079C141.491 87.6162 141.626 87.325 141.619 87.0202C141.61 86.7154 141.461 86.4316 141.214 86.2524C134.053 81.0324 91.7907 50.4063 83.6285 48.6959C83.6285 48.6959 75.5285 43.4533 63.0316 46.7783Z" fill="url(#paint0_linear_383_9573)"/>
<path fill-rule="evenodd" clip-rule="evenodd" d="M83.2774 48.5815C83.4896 48.7009 83.5985 48.7715 83.5985 48.7715C84.3282 48.9244 85.3305 49.3085 86.5548 49.8844C87.7688 51.1947 88.9199 52.909 89.5903 55.0835C90.2384 57.186 90.4416 59.7219 89.8039 62.7426L125.577 84.0497L131.813 79.5683L132.171 79.8237C132.32 79.9303 132.468 80.0368 132.616 80.1432L132.816 80.2859L116.257 92.1855C116.043 92.3399 115.758 92.3275 115.559 92.1734C116.155 92.016 116.586 91.946 116.586 91.946L115.449 91.3608C115.484 91.3145 115.526 91.2725 115.576 91.2368L124.542 84.7934L89.5158 63.9309C89.4048 64.3364 89.279 64.7503 89.1375 65.1726C88.2712 67.7576 86.0298 71.0727 80.853 73.5521L79.5414 72.877C78.7539 73.2871 77.6772 73.6737 76.3984 74.0357C76.4436 74.0059 76.4938 73.982 76.5481 73.9652C84.0633 71.6534 87.0398 67.7547 88.0298 64.8013C89.3113 60.9772 89.231 57.8845 88.4737 55.4277C87.4026 51.9531 84.9915 49.7612 83.2774 48.5815ZM77.1396 46.3693C77.5891 46.466 78.0177 46.5701 78.4245 46.6792C78.498 47.0232 78.549 47.3702 78.6046 47.6862C78.8779 49.2362 79.0568 50.7828 78.9687 52.3594C78.693 57.2945 76.7475 62.0606 72.0163 64.1635C69.1722 65.4275 65.7757 65.9359 62.6741 65.8769C60.1022 65.8279 56.9937 65.5317 54.4413 65.343C48.6108 64.912 43.7828 64.1933 36.8676 65.0212C34.4193 65.3145 32.5858 66.1693 31.5277 67.6472C30.4662 69.1297 30.2048 71.2112 30.7993 73.8835C31.2094 75.7261 32.0153 77.431 32.9084 79.0819C34.2871 81.6303 35.7023 84.2529 37.3449 86.646L54.4981 85.869L55.271 87.0035L37.64 87.8021C37.6067 87.8437 37.5672 87.8814 37.5215 87.9137C37.2825 88.0828 36.9598 88.0469 36.7629 87.842L31.3403 88.0875L30.5186 86.9552L35.9779 86.7079C34.4816 84.4465 33.1646 82.011 31.8807 79.6378C30.9363 77.8921 30.0925 76.0858 29.6589 74.1372C28.9743 71.0604 29.3557 68.6737 30.5776 66.967C31.803 65.2556 33.8936 64.2006 36.7287 63.8612C43.7324 63.0226 48.6223 63.7413 54.5273 64.1778C57.0601 64.3651 60.1444 64.6601 62.6964 64.7087C65.6324 64.7646 68.8494 64.2925 71.5418 63.0958C75.8535 61.1795 77.5509 56.7916 77.8022 52.2941C77.8852 50.8078 77.7115 49.3503 77.4541 47.8889C77.3702 47.4137 77.3293 46.8428 77.1396 46.3693Z" fill="#D7441E"/>
<path fill-rule="evenodd" clip-rule="evenodd" d="M50.0658 79.2779L50.2969 79.6175L50.2714 79.6251C50.2051 79.5088 50.1364 79.393 50.0658 79.2779ZM49.324 78.1891C46.3318 74.1869 40.998 70.9334 38.1726 69.387C37.9541 69.2684 37.8464 69.0146 37.9132 68.7749C37.9798 68.5354 38.2031 68.3737 38.4515 68.385C45.1129 68.941 52.1715 75.2293 54.4356 77.4107C51.2559 77.7165 49.109 77.8734 49.109 77.8734L49.324 78.1891Z" fill="#711801"/>
<path d="M48.9365 16.3298C52.3542 16.415 55.1938 13.7135 55.279 10.2958C55.3641 6.87807 52.6626 4.03844 49.2449 3.95328C45.8272 3.86811 42.9876 6.56966 42.9024 9.98735C42.8173 13.405 45.5188 16.2447 48.9365 16.3298Z" fill="#E86135"/>
<path fill-rule="evenodd" clip-rule="evenodd" d="M46.2705 4.65789C47.1534 4.21084 48.1564 3.96943 49.2145 3.99586C52.63 4.08101 55.3337 6.92294 55.2486 10.3384C55.1836 12.9443 53.5137 15.1359 51.2086 15.9906L49.6849 12.4939C49.9332 12.5189 50.1971 12.4812 50.4537 12.3719C51.2364 12.0385 51.6557 11.1636 51.3895 10.4193C51.1232 9.6749 50.2716 9.34133 49.4889 9.67475C49.169 9.81101 48.9097 10.038 48.7332 10.3095L46.2705 4.65789Z" fill="black"/>
<path fill-rule="evenodd" clip-rule="evenodd" d="M62.9609 19.2803C55.8058 18.4716 40.1397 19.2056 27.5766 20.1734C25.209 20.3572 23.0144 21.4843 21.4856 23.3017C19.9568 25.119 19.2221 27.4742 19.4465 29.8385C19.6204 31.6121 20.0587 33.4063 20.9526 34.9708C20.9526 34.9708 19.6851 38.5613 23.5882 41.1194C24.7698 41.8917 26.1178 42.3723 27.5215 42.5218C30.5261 42.8145 38.6258 43.375 49.521 42.292C49.521 42.292 59.2965 50.1546 70.031 43.9078C78.5492 38.9507 79.7586 21.1789 62.9609 19.2803Z" fill="url(#paint1_linear_383_9573)"/>
<path fill-rule="evenodd" clip-rule="evenodd" d="M20.9974 34.9709C22.8588 36.3249 26.1058 38.0357 29.8975 38.2129C37.5209 38.5698 58.2366 39.5377 58.2366 39.5377C58.5586 39.5527 58.8079 39.8264 58.7929 40.1486C58.7778 40.4706 58.5042 40.7198 58.1821 40.7047C58.1821 40.7047 37.4662 39.7369 29.8429 39.38C26.4604 39.2219 23.2917 37.8822 20.8467 35.6669C20.9048 35.2332 20.9974 34.9709 20.9974 34.9709Z" fill="#D7441E"/>
<path fill-rule="evenodd" clip-rule="evenodd" d="M43.7437 19.1603C51.5503 18.8279 58.7845 18.7651 63.0269 19.2446C79.8246 21.1432 78.9168 38.9488 70.2829 43.7016C60.707 48.973 51.8129 45.4593 49.1663 42.3219C48.4216 41.4392 47.9637 38.9928 47.9637 38.9928L42.2198 38.6683L35.458 29.9335L43.7437 19.1603Z" fill="#D7441E"/>
<path fill-rule="evenodd" clip-rule="evenodd" d="M47.9268 38.993C47.9268 38.993 54.093 38.9266 57.481 38.9977C57.6342 39.0009 57.7624 39.1143 57.7845 39.2659C57.8065 39.4175 57.7158 39.5626 57.5699 39.6094L49.1222 42.3137C48.3817 41.4238 47.9268 38.993 47.9268 38.993Z" fill="#711801"/>
<path fill-rule="evenodd" clip-rule="evenodd" d="M161.199 42.1462C161.32 42.2596 155.42 50.1344 144.531 45.9373C142.546 45.1725 133.382 38.5734 139.787 26.3154C141.5 23.0379 148.931 13.3848 165.477 19.3326C167.449 20.0412 170.989 21.6372 177.302 26.3154C179.652 28.0567 197.774 43.9398 208.064 48.0335C210.113 48.8492 210.452 49.0917 212.278 49.9666C212.793 50.214 213.29 51.1658 211.32 51.5872C211.32 51.5872 213.265 51.4902 212.438 52.9315C212.438 52.9315 211.179 54.6579 210.405 55.7195C210.002 56.2726 209.351 56.5912 208.667 56.5709C208.073 56.5526 207.408 56.4721 207.093 56.2148C207.093 56.2148 205.726 58.201 202.758 56.6598C202.758 56.6598 201.495 59.6784 195.603 56.2148C193.141 54.7676 191.196 53.8595 189.239 53.1053V56.2148L241.448 78.4623C241.448 78.4623 243.304 78.0343 246.226 78.4623L229.321 94.3491L187.794 83.5961V91.2796C187.794 91.2796 191.267 92.395 191.676 94.3491H164.301V81.6731C164.301 81.6731 138.241 84.0926 143.043 63.2792C143.5 61.2977 149.867 46.8167 164.301 43.6886L161.199 42.1462Z" fill="url(#paint2_linear_383_9573)"/>
<path fill-rule="evenodd" clip-rule="evenodd" d="M189.656 71.0294V71.0289L219.45 82.0926L225.672 71.682L226.757 72.1442L220.351 82.861C220.35 82.9199 220.336 82.9791 220.316 83.0373C220.268 83.1667 220.179 83.2691 220.069 83.3349L215.641 90.7428L214.462 90.4376L218.839 83.1126L189.586 72.2492V72.2491L189.621 71.6456L189.656 71.0294ZM142.527 66.0073C142.951 67.7333 144.056 69.3281 145.905 69.6719C148.16 70.0914 150.7 68.6934 152.556 67.5661C154.967 66.1011 156.714 64.1236 158.348 62.0385C160.04 59.8799 161.61 57.6061 163.615 55.6217C164.573 54.6734 165.883 53.6585 167.279 53.2123C168.288 52.8903 169.34 52.857 170.356 53.3005C171.659 53.8697 172.716 55.0433 173.511 56.4532C174.649 58.4747 175.247 60.9735 175.344 62.6691C175.791 70.6195 175.592 77.9321 175.437 85.8482L187.759 85.8836V87.052L164.266 86.9846V85.8162L174.269 85.8449C174.422 77.9521 174.624 70.6617 174.177 62.7349C174.089 61.1776 173.537 58.8829 172.493 57.0262C171.831 55.8506 170.976 54.8459 169.889 54.3712C168.947 53.9599 167.963 54.1364 167.053 54.5517C166.054 55.008 165.141 55.7548 164.437 56.4519C162.467 58.4014 160.929 60.6387 159.268 62.7591C157.548 64.9532 155.699 67.0229 153.162 68.5646C151.087 69.8256 148.214 71.2898 145.69 70.8206C144.277 70.5574 143.186 69.7222 142.429 68.6222C142.397 67.8021 142.428 66.9315 142.527 66.0073ZM189.204 56.1417L190.276 56.5987L189.598 71.9698L188.872 83.8112L187.759 83.523V85.0086C187.683 84.9026 187.642 84.7707 187.651 84.6306C187.651 84.6306 189.185 61.4517 189.189 54.7483L189.191 54.7016C189.195 54.639 189.199 54.5768 189.204 54.5158V56.1417ZM162.625 42.7999C163.058 42.7172 163.764 42.589 164.665 42.4471L160.57 38.92C160.326 38.7097 160.298 38.3405 160.508 38.0962C160.719 37.8518 161.088 37.8244 161.332 38.0347L166.009 42.0619C166.065 42.1104 166.109 42.1674 166.143 42.2292C168.393 41.92 171.341 41.6175 174.311 41.6076C178.501 41.5936 182.725 42.1861 185.199 44.0717C186.443 45.0203 190.276 48.005 190.394 53.5116C189.995 53.3433 189.599 53.1847 189.204 53.0322V53.0606C188.89 48.379 185.58 45.8321 184.491 45.0007C182.183 43.2414 178.224 42.763 174.314 42.7759C169.531 42.792 164.807 43.5817 163.073 43.9043C163.464 43.7997 163.862 43.7032 164.266 43.6156L162.625 42.7999ZM189.586 72.2491L189.598 71.9698L189.656 71.0294L189.621 71.6456L189.586 72.2491Z" fill="#FD9500"/>
<path fill-rule="evenodd" clip-rule="evenodd" d="M201.987 57.468L198.983 55.4809C198.713 55.3032 198.64 54.9404 198.818 54.6713C198.995 54.4025 199.358 54.3284 199.627 54.5063L203.202 56.8705C203.058 56.8089 202.909 56.7388 202.755 56.6592C202.755 56.6592 202.566 57.1141 201.987 57.468ZM206.237 56.9186L201.923 53.9683C201.656 53.7865 201.589 53.4225 201.77 53.1564C201.952 52.8902 202.316 52.8218 202.582 53.0038L207.619 56.448C207.404 56.3941 207.217 56.3188 207.09 56.2142C207.09 56.2142 206.813 56.6166 206.237 56.9186ZM212.63 52.189C211.629 51.9523 210.994 51.9705 210.595 52.0894C210.508 52.1157 210.433 52.1506 210.376 52.1843L210.738 52.5243C210.974 52.7448 210.987 53.1148 210.766 53.3501C210.546 53.5853 210.175 53.5973 209.94 53.3768L207.594 51.1775C207.359 50.9571 207.346 50.587 207.566 50.3517C207.787 50.1166 208.158 50.1046 208.393 50.325L209.498 51.3612C209.91 51.0018 210.79 50.6191 212.598 50.986C212.412 51.2165 212.022 51.4355 211.317 51.5866C211.317 51.5866 212.504 51.5274 212.63 52.189Z" fill="#FD9500"/>
<path fill-rule="evenodd" clip-rule="evenodd" d="M161.282 42.1879L161.199 42.1462C161.32 42.2596 155.42 50.1344 144.531 45.9373C142.546 45.1725 133.382 38.5734 139.787 26.3154C141.5 23.0379 148.931 13.3848 165.477 19.3326C167.005 19.8814 169.471 20.9622 173.438 23.5944C173.939 25.6154 173.87 29.0531 168.588 30.8616C168.588 30.8616 171.431 38.1085 162.911 39.255C162.911 39.255 162.403 40.6196 161.282 42.1879Z" fill="#FD9500"/>
<path fill-rule="evenodd" clip-rule="evenodd" d="M159.836 81.6247L164.223 64.1312C164.269 63.9501 164.442 63.8327 164.628 63.8591C164.813 63.8855 164.948 64.0474 164.94 64.2339L164.271 81.5934C164.159 81.6035 162.36 81.7588 159.836 81.6247ZM161.172 42.0882C161.064 42.2056 160.952 42.3084 160.839 42.391C160.839 42.391 155.713 36.099 153.113 32.9086C153.004 32.7742 153.01 32.5797 153.128 32.4525C153.245 32.3251 153.439 32.3041 153.581 32.403C156.267 34.2281 160.985 37.515 162.767 39.2637C162.767 39.2637 162.056 41.1263 161.187 42.0724L161.175 42.0661C161.178 42.0689 161.177 42.0764 161.172 42.0882Z" fill="#D7441E"/>
<path fill-rule="evenodd" clip-rule="evenodd" d="M136.613 10.139C136.502 10.1904 136.652 9.89731 136.657 9.77521C136.666 9.54752 136.669 9.31969 136.674 9.092C136.69 8.43085 136.664 7.76984 136.669 7.10869C136.679 5.75644 136.382 1.91015 137.965 1.24812C138.754 0.918346 138.966 2.38217 138.978 2.87216C139.023 4.7661 137.708 6.21211 137.437 7.97957C137.424 8.06749 137.498 7.81234 137.532 7.73012C137.602 7.56012 137.669 7.38895 137.742 7.21997C137.949 6.74152 138.158 6.26424 138.374 5.78974C139.056 4.2913 139.719 2.68084 140.73 1.36598C140.97 1.05329 141.672 0.209871 142.155 0.578639C142.874 1.12748 141.898 2.68113 141.58 3.20602C140.881 4.35687 139.975 5.36606 139.22 6.47806C138.453 7.60452 137.835 8.85657 137.053 9.962" fill="#FFB000"/>
<path d="M142.569 18.6168C146.042 18.6168 148.858 15.8013 148.858 12.3282C148.858 8.85506 146.042 6.03955 142.569 6.03955C139.096 6.03955 136.28 8.85506 136.28 12.3282C136.28 15.8013 139.096 18.6168 142.569 18.6168Z" fill="#FFB000"/>
<path d="M129.005 16.0372C133.434 16.0372 137.024 12.4472 137.024 8.01862C137.024 3.59006 133.434 0 129.005 0C124.576 0 120.986 3.59006 120.986 8.01862C120.986 12.4472 124.576 16.0372 129.005 16.0372Z" fill="black"/>
<path fill-rule="evenodd" clip-rule="evenodd" d="M137.671 16.2704C136.8 15.1916 136.28 13.8202 136.28 12.328C136.28 8.85738 139.098 6.03955 142.568 6.03955C143.482 6.03955 144.349 6.23467 145.134 6.58576C144.969 8.73265 143.8 12.9457 137.671 16.2704Z" fill="black"/>
<path fill-rule="evenodd" clip-rule="evenodd" d="M139.602 103.752C139.602 103.752 136.873 103.334 138.786 100.651C139.337 99.88 141.637 98.8299 143 102.018C143 102.018 145.533 100.816 146.17 104.003C146.17 104.003 148.536 102.859 149.348 106.072C149.348 106.072 151.749 105.767 152.066 109.063C152.539 113.981 152.932 117.514 153.221 121.431C153.221 121.431 153.944 128.948 159.3 133.596C159.3 133.596 162.53 122.849 174.268 126.36L185.203 130.683C185.203 130.683 191.389 128.581 194.358 132.903C196.441 131.328 199.802 128.53 200.714 127.686C201.164 127.27 202.081 126.928 202.568 127.189C202.975 127.408 203.25 128.2 202.771 128.73C202.771 128.73 203.784 127.882 204.617 128.591C204.939 128.866 205.205 129.43 204.777 130.414C204.777 130.414 205.825 129.456 206.593 130.106C206.894 130.358 207.428 130.995 206.721 132.075C206.721 132.075 207.853 131.166 208.589 131.883C208.916 132.202 209.189 132.859 207.253 135.276C206.727 135.93 206.191 136.579 205.645 137.221C200.63 143.195 192.359 145.296 185.102 142.438C180.443 140.612 176.152 138.923 176.152 138.923C176.152 138.923 182.095 149.716 182.054 155.963C182.019 161.529 179.602 167.311 172.692 168.992C171.092 169.384 169.425 169.429 167.806 169.124C163.28 168.274 153.223 165.071 154.372 153.453C154.372 153.453 145.771 147.827 140.098 138.682C135.725 131.645 134.621 123.059 137.07 115.146C138.325 111.082 139.772 105.838 139.602 103.752Z" fill="#A8CFCC"/>
<path fill-rule="evenodd" clip-rule="evenodd" d="M201.909 137.301C201.909 137.301 206.787 131.966 206.727 132.058C206.727 132.058 207.516 131.424 208.205 131.632C208.2 131.639 208.195 131.645 208.189 131.651L202.559 137.888C202.397 138.068 202.12 138.081 201.94 137.919C201.76 137.758 201.747 137.481 201.909 137.301ZM199.704 135.848C199.704 135.848 204.791 130.38 204.784 130.398C204.784 130.398 205.639 129.615 206.372 129.945L200.347 136.444C200.183 136.621 199.906 136.632 199.727 136.467C199.551 136.302 199.54 136.025 199.704 135.848ZM202.796 128.699C202.917 128.604 203.614 128.099 204.293 128.372L198.311 134.826C198.146 135.004 197.868 135.014 197.691 134.849C197.513 134.685 197.503 134.408 197.668 134.23L202.796 128.699Z" fill="#82B5B2"/>
<path fill-rule="evenodd" clip-rule="evenodd" d="M149.074 108.881C149.276 107.884 149.331 106.023 149.34 106.058C149.34 106.058 149.714 106.01 150.186 106.156C150.177 106.883 150.129 108.093 149.933 109.055C149.885 109.293 149.654 109.446 149.417 109.398C149.179 109.35 149.026 109.118 149.074 108.881ZM147.035 103.792C147.119 104.539 147.183 105.826 146.951 107.47C146.917 107.709 146.695 107.876 146.456 107.842C146.216 107.809 146.05 107.587 146.083 107.347C146.294 105.857 146.247 104.682 146.175 103.983C146.244 103.952 146.59 103.807 147.035 103.792ZM143.133 106.139C143.397 103.79 142.942 101.886 142.991 102.003C142.991 102.003 143.327 101.844 143.784 101.796C143.993 102.618 144.24 104.139 144.003 106.237C143.976 106.477 143.76 106.65 143.519 106.623C143.279 106.596 143.105 106.379 143.133 106.139ZM138.812 103.453C138.852 102.796 138.866 102.363 138.866 102.363C138.874 102.122 139.076 101.932 139.318 101.939C139.559 101.947 139.749 102.149 139.742 102.391C139.742 102.391 139.625 104.114 139.594 103.738C139.594 103.738 139.197 103.677 138.812 103.453Z" fill="#82B5B2"/>
<path fill-rule="evenodd" clip-rule="evenodd" d="M153.204 121.181L153.221 121.425C153.221 121.425 153.944 128.942 159.3 133.59C159.3 133.59 162.53 122.843 174.268 126.354L182.707 129.691L184.835 142.327C180.281 140.542 176.152 138.917 176.152 138.917C176.152 138.917 182.095 149.709 182.054 155.957C182.019 161.523 179.602 167.305 172.692 168.986C171.092 169.378 169.425 169.423 167.806 169.118C163.28 168.268 153.223 165.065 154.372 153.447C154.372 153.447 145.772 147.821 140.098 138.676C136.883 133.501 135.434 127.49 135.867 121.524L153.204 121.181Z" fill="#82B5B2"/>
<path fill-rule="evenodd" clip-rule="evenodd" d="M154.392 153.426C154.392 153.426 159.423 156.447 163.555 158.377C163.747 158.453 163.856 158.659 163.809 158.861C163.762 159.064 163.572 159.2 163.366 159.182C160.895 159.013 157.045 158.577 154.46 157.448C154.281 156.235 154.246 154.899 154.392 153.426ZM173.43 144.729C162.372 137.274 158.795 133.116 159.319 133.57C159.319 133.57 159.487 133.01 159.887 132.188C161.568 133.859 166.029 137.976 174.247 143.517C175.271 144.206 178.738 146.431 181.072 150.308C181.676 152.313 182.085 154.285 182.073 155.937C182.069 156.82 182.003 157.708 181.869 158.585C181.844 158.512 181.832 158.433 181.832 158.351C181.903 150.089 174.898 145.717 173.43 144.729ZM178.267 143.11C177.19 141.848 175.233 139.517 174.086 138.15C174.013 138.064 174.013 137.937 174.086 137.85C174.159 137.764 174.285 137.744 174.381 137.804L176.173 138.899C176.217 138.978 177.153 140.688 178.267 143.11Z" fill="#044743"/>
<path d="M191.607 161.31C195.264 161.31 198.229 158.345 198.229 154.688C198.229 151.031 195.264 148.066 191.607 148.066C187.95 148.066 184.985 151.031 184.985 154.688C184.985 158.345 187.95 161.31 191.607 161.31Z" fill="#A8CFCC"/>
<path fill-rule="evenodd" clip-rule="evenodd" d="M193.656 148.359C196.315 149.217 198.242 151.716 198.242 154.661C198.242 158.315 195.275 161.282 191.62 161.282C189.223 161.282 187.122 160.006 185.959 158.096L190.191 155.978C190.113 156.321 190.139 156.704 190.291 157.066C190.649 157.92 191.564 158.353 192.334 158.03C193.105 157.707 193.441 156.752 193.083 155.898C192.904 155.467 192.579 155.144 192.205 154.97L194.592 153.776L193.656 148.359Z" fill="black"/>
<path fill-rule="evenodd" clip-rule="evenodd" d="M162.395 173.131C162.395 173.131 163.795 172.779 165.743 172.288C172.726 170.528 180.027 173.62 183.625 179.856C186.295 184.487 185.749 190.299 182.263 194.35C180.85 195.991 179.739 197.284 179.739 197.284C179.739 197.284 181.956 197.239 184.537 197.185C188.866 197.096 192.673 200.033 193.687 204.243C193.773 204.629 193.868 205.014 193.968 205.397C194.729 208.256 196.441 210.771 198.822 212.527C199.711 213.186 200.536 214.011 200.72 214.888C200.72 214.888 159.805 214.837 140.562 214.812C136.702 214.808 133.178 212.622 131.457 209.168C129.738 205.712 130.118 201.584 132.44 198.5C132.44 198.5 117.661 183.363 118.277 165.735C118.611 156.16 127.321 150.654 133.742 153.486C144.654 158.297 153.56 165.631 162.395 173.131Z" fill="url(#paint3_linear_383_9573)"/>
<path fill-rule="evenodd" clip-rule="evenodd" d="M142.084 185.887C142.084 185.887 134.836 179.048 129.627 174.131C129.413 173.931 129.082 173.926 128.864 174.123C128.648 174.321 128.619 174.651 128.797 174.881C133.243 180.634 139.476 188.7 139.476 188.7L142.084 185.887Z" fill="#044743"/>
<path fill-rule="evenodd" clip-rule="evenodd" d="M179.75 197.261L181.761 197.22C180.784 198.069 179.436 199.184 177.753 200.44L177.805 214.836L176.344 214.835L176.297 201.502C172.077 204.503 166.184 208.058 159.035 210.731C158.656 210.873 158.236 210.681 158.094 210.303C157.954 209.926 158.145 209.504 158.523 209.364C169.21 205.368 177.028 199.364 180.53 196.353L179.75 197.261ZM161.478 172.322C161.788 172.583 162.096 172.846 162.405 173.108L164.411 172.604C161.241 173.929 139.829 183.423 130.824 201.702C131.165 200.557 131.708 199.463 132.451 198.478C132.451 198.478 132.101 198.118 131.511 197.446C140.046 183.559 155.239 175.279 161.478 172.322Z" fill="#82B5B2"/>
<path fill-rule="evenodd" clip-rule="evenodd" d="M0.295464 208.194C-1.20298 207.151 3.14542 198.311 9.99998 188.466C16.8545 178.623 23.6362 171.477 25.1347 172.521C25.1424 172.525 25.1499 172.531 25.1572 172.537L32.5686 178.014C34.0672 179.056 29.7188 187.897 22.8642 197.742C16.0097 207.585 9.22798 214.731 7.72939 213.687C7.7218 213.683 7.71435 213.677 7.7069 213.671L0.295464 208.194Z" fill="#FFCD80"/>
<path fill-rule="evenodd" clip-rule="evenodd" d="M24.2036 172.551L24.2371 172.538L24.2702 172.526L24.3029 172.514L24.3053 172.513L24.3352 172.503H24.3383L24.367 172.492L24.3708 172.491L24.3984 172.482H24.403L24.4294 172.473L24.4345 172.472L24.4601 172.466L24.4658 172.465L24.4902 172.457L24.4964 172.456L24.52 172.452L24.5267 172.45L24.5492 172.444L24.5565 172.443L24.5781 172.438L24.5857 172.437L24.6064 172.434L24.6146 172.433L24.6345 172.43H24.6429L24.6619 172.427L24.6708 172.425L24.6891 172.424H24.6981L24.7157 172.422L24.7251 172.421H24.7418H24.7516L24.7676 172.419H24.7776H24.7929L24.803 172.421H24.8177H24.828L24.8421 172.422L24.8525 172.424L24.8661 172.425L24.8766 172.427L24.8896 172.428L24.9001 172.43L24.9125 172.431L24.9232 172.434L24.9352 172.435L24.9458 172.438L24.9572 172.441L24.9679 172.444L24.9788 172.447L25 172.454L25.0206 172.462L25.0409 172.469L25.0606 172.478L25.0703 172.482L25.0799 172.488L25.0892 172.492L25.0986 172.498L25.1078 172.504L25.1168 172.509L25.1259 172.514L25.1347 172.522L25.7792 172.998L25.7799 173.005C25.8377 173.583 25.7137 174.413 25.4005 175.444C25.1316 176.331 24.7221 177.381 24.1877 178.564L31.3641 183.497C31.2058 183.84 31.0361 184.197 30.8552 184.565L23.6857 179.636C23.5279 179.963 23.3618 180.299 23.1877 180.642L30.16 185.932C29.9818 186.272 29.7959 186.62 29.6021 186.976L22.6418 181.693C21.4603 183.924 19.983 186.427 18.276 189.061L24.98 194.616C24.7666 194.94 24.5502 195.267 24.3304 195.596L17.6321 190.046C17.0794 190.881 16.5045 191.728 15.9098 192.583C13.908 195.457 11.9005 198.096 10.0178 200.365L16.7967 205.781L16.8041 205.787C16.5525 206.093 16.3034 206.393 16.057 206.685L9.2788 201.271C9.27456 201.268 9.27032 201.264 9.26624 201.261C8.85935 201.738 8.45947 202.197 8.06807 202.635L14.7246 208.201C14.7296 208.205 14.7344 208.208 14.739 208.213C14.4734 208.513 14.2124 208.803 13.9567 209.082L7.28219 203.501C5.70444 205.21 4.28691 206.552 3.12964 207.43C2.27088 208.083 1.53583 208.486 0.972673 208.633C0.951204 208.639 0.92988 208.643 0.908704 208.649L0.295454 208.195L0.286837 208.189L0.278219 208.183L0.269749 208.176L0.261425 208.17L0.253247 208.163L0.245213 208.156L0.237326 208.148L0.229439 208.141L0.214252 208.125L0.199647 208.109L0.185625 208.093L0.171897 208.075L0.165326 208.065L0.158899 208.056L0.152474 208.048L0.146339 208.037L0.140059 208.027L0.134363 208.018L0.12823 208.008L0.122826 207.998L0.116838 207.986L0.111873 207.977L0.10603 207.964L0.101504 207.956L0.0956605 207.942L0.0915712 207.934L0.0860223 207.919L0.0820778 207.91L0.0766759 207.896L0.0733154 207.887L0.0680583 207.871L0.0648448 207.862L0.0598797 207.846L0.0569582 207.837L0.0521402 207.82L0.0496554 207.811L0.0451293 207.793L0.0427916 207.785L0.0384104 207.766L0.0365117 207.758L0.0324224 207.738L0.0306708 207.731L0.0268735 207.71L0.0254116 207.701L0.0217613 207.681L0.0205936 207.672L0.017233 207.65L0.0163572 207.643L0.0132908 207.62L0.0125598 207.614L0.00978533 207.588L0.00920147 207.582L0.00686377 207.555L0.00642699 207.551L0.00452831 207.523L0.00408929 207.519L0.00262963 207.49L0.00233769 207.485L0.00116996 207.455L0.00102288 207.452L0.000291933 207.421V207.418L0 207.383L0.000147081 207.348L0.0008758 207.311C0.0207382 206.536 0.241562 206.526 0.236742 206.984C0.235282 207.127 0.245214 207.255 0.272086 207.361C0.288736 207.428 0.301148 207.488 0.345546 207.519C0.389945 207.55 0.449972 207.541 0.518614 207.533C0.628733 207.52 0.750682 207.487 0.884899 207.436C1.31238 207.272 1.82865 206.951 2.4235 206.499C5.42579 204.221 10.1977 198.741 14.9508 191.915C19.7041 185.089 23.1877 178.711 24.2825 175.105C24.4995 174.391 24.6212 173.795 24.626 173.338C24.6274 173.195 24.6175 173.068 24.5906 172.96C24.574 172.893 24.5616 172.834 24.5172 172.804C24.4728 172.771 24.4128 172.782 24.3441 172.789C24.2338 172.801 24.112 172.836 23.9778 172.887C23.5503 173.05 23.4836 172.839 24.2036 172.551Z" fill="#FEA424"/>
<path fill-rule="evenodd" clip-rule="evenodd" d="M211.487 196.046C210.407 195.865 209.581 194.924 209.581 193.792V189.221C209.581 187.959 210.605 186.934 211.867 186.934H244.533C245.795 186.934 246.82 187.959 246.82 189.221V193.792C246.82 194.924 245.995 195.865 244.915 196.046C245.995 196.228 246.82 197.169 246.82 198.301V202.872C246.82 203.937 246.09 204.833 245.103 205.086C246.065 205.356 246.771 206.24 246.771 207.287V211.86C246.771 213.12 245.747 214.145 244.485 214.145H211.819C210.557 214.145 209.533 213.12 209.533 211.86V207.287C209.533 206.222 210.262 205.327 211.249 205.073C210.287 204.803 209.581 203.919 209.581 202.872V198.301C209.581 197.169 210.407 196.228 211.487 196.046Z" fill="#FFC367"/>
<path fill-rule="evenodd" clip-rule="evenodd" d="M241.56 194.923H246.506C246.172 195.508 245.588 195.93 244.9 196.046C244.97 196.057 245.04 196.073 245.109 196.091H244.39V203.928H246.547C246.251 204.495 245.722 204.924 245.088 205.086C245.1 205.089 245.11 205.092 245.12 205.096H241.31V214.145H240.142V205.096H229.052V214.145H227.884V205.096H218.43V214.145H217.262V205.096H216.072V214.145H214.903V205.096H211.153C211.181 205.087 211.207 205.08 211.235 205.073C210.623 204.901 210.113 204.481 209.825 203.928H212.181V196.091H211.264C211.331 196.073 211.401 196.057 211.473 196.046C210.785 195.93 210.201 195.508 209.866 194.923H216.248V186.934H217.417V194.923H219.917V186.934H221.085V194.923H226.967V186.934H228.135V194.923H240.391V186.934H241.56V194.923ZM213.349 196.091V203.928H223.868V196.091H213.349ZM225.036 196.091V203.928H231.742V196.091H225.036ZM232.911 196.091V203.928H234.64V196.091H232.911ZM235.808 196.091V203.928H243.222V196.091H235.808Z" fill="#FEA424"/>
<path fill-rule="evenodd" clip-rule="evenodd" d="M251.94 175.019C258.144 172.938 266.381 178.134 270.842 187.191C275.379 196.399 274.374 206.269 268.699 209.773L268.726 209.831L262.692 212.965C262.513 213.07 262.331 213.17 262.144 213.262C262.065 213.3 261.985 213.338 261.906 213.374L261.663 213.5L261.655 213.484C255.395 216.091 246.789 210.856 242.19 201.522C237.471 191.943 238.749 181.65 245.042 178.549C245.042 178.549 250.491 175.649 250.888 175.453C251.196 175.301 251.51 175.17 251.83 175.057L251.932 175.005L251.94 175.019Z" fill="#FFCD80"/>
<path d="M266.79 206.824C272.011 204.473 273.327 196.092 269.73 188.105C266.132 180.119 258.984 175.551 253.763 177.903C248.542 180.254 247.226 188.635 250.823 196.621C254.421 204.608 261.569 209.176 266.79 206.824Z" fill="#FEA424"/>
<path fill-rule="evenodd" clip-rule="evenodd" d="M254.693 174.564L254.782 174.562C253.944 174.729 253.127 175.001 252.346 175.386C249.701 176.689 247.848 179.084 246.852 182.063C245.322 186.639 245.804 192.574 248.56 198.168C251.316 203.763 255.728 207.763 260.289 209.338C263.257 210.363 266.286 210.354 268.931 209.051C269.714 208.664 270.426 208.184 271.069 207.62L271.047 207.646L271.027 207.674L271.006 207.7L270.971 207.744L270.952 207.769L270.927 207.798L270.91 207.82L270.905 207.826L270.872 207.865L270.853 207.889L270.824 207.924L270.813 207.937L270.802 207.949L270.771 207.987L270.754 208.007L270.714 208.052L270.7 208.068L270.667 208.105L270.651 208.124L270.61 208.169L270.596 208.185L270.562 208.222L270.548 208.238L270.505 208.285L270.491 208.301L270.454 208.339L270.442 208.35L270.399 208.397L270.384 208.412L270.342 208.456L270.337 208.461L270.333 208.464L270.289 208.508L270.275 208.523L270.229 208.569L270.219 208.578L270.178 208.618L270.165 208.631L270.118 208.676L270.107 208.688L270.064 208.726L270.054 208.737L270.004 208.783L269.993 208.793L269.949 208.834L269.94 208.841L269.89 208.885L269.877 208.897L269.828 208.942L269.825 208.943L269.774 208.987L269.76 208.999L269.709 209.043L269.702 209.048L269.655 209.088L269.642 209.097L269.591 209.14L269.579 209.148L269.534 209.186L269.524 209.195L269.47 209.235L269.458 209.246L269.408 209.284L269.403 209.288L269.347 209.33L269.335 209.339L269.28 209.38L269.223 209.421L269.21 209.431L269.154 209.471L269.148 209.475L269.097 209.511L269.084 209.52L269.029 209.558L269.019 209.565L268.967 209.599L268.957 209.606L268.9 209.644L268.889 209.653L268.836 209.687L268.829 209.691L268.77 209.728L268.757 209.736L268.699 209.773L268.726 209.831L266.289 211.097C265.297 211.254 264.279 211.28 263.251 211.182C263.247 211.185 263.241 211.188 263.235 211.191L257.897 214.147C257.25 214.125 256.593 214.042 255.931 213.9L261.395 210.874C260.898 210.757 260.402 210.613 259.907 210.442C258.183 209.846 256.477 208.926 254.864 207.718L249.806 210.966C249.482 210.724 249.159 210.468 248.839 210.199L253.897 206.951C253.521 206.636 253.152 206.304 252.79 205.958L247.61 209.084C247.326 208.807 247.046 208.521 246.771 208.226L251.943 205.104C250.238 203.299 248.722 201.14 247.513 198.685C247.227 198.104 246.964 197.52 246.724 196.932L241.357 199.678C241.208 199.313 241.067 198.948 240.934 198.583L246.304 195.836C245.483 193.543 245.011 191.238 244.873 189.025L239.383 191.324C239.356 190.904 239.343 190.487 239.342 190.076L244.829 187.777C244.816 185.985 245.026 184.267 245.448 182.683L240.017 185.021C240.17 184.499 240.35 183.997 240.555 183.517L245.794 181.262L245.848 181.389C246.494 179.582 247.437 177.984 248.66 176.689C248.66 176.689 250.358 175.725 250.839 175.478L250.888 175.453C251.196 175.301 251.51 175.17 251.83 175.058L251.932 175.005L251.94 175.02L252.006 174.998L252.016 174.995L252.08 174.974L252.092 174.97L252.156 174.951L252.163 174.948L252.226 174.929L252.235 174.926L252.299 174.909L252.311 174.904L252.375 174.887L252.385 174.884L252.45 174.866L252.454 174.865L252.52 174.847L252.531 174.844L252.597 174.828L252.607 174.825L252.674 174.809H252.676L252.745 174.793L252.753 174.79L252.819 174.776L252.831 174.774L252.898 174.76L252.904 174.758L252.971 174.744H252.975L253.044 174.729L253.054 174.727L253.123 174.714L253.13 174.713L253.2 174.7L253.272 174.688L253.279 174.687L253.349 174.676L253.356 174.675L253.428 174.663L253.501 174.653H253.505L253.576 174.643L253.584 174.641L253.654 174.633H253.66L253.732 174.624H253.733L253.805 174.616L253.814 174.615L253.882 174.608L253.892 174.606L253.964 174.6L254.033 174.595L254.044 174.593L254.112 174.589L254.126 174.587L254.192 174.583L254.205 174.581L254.247 174.58L254.31 174.576L254.334 174.574L254.409 174.571H254.418L254.507 174.567L254.598 174.565H254.599L254.688 174.564H254.693Z" fill="#FEA424"/>
<path d="M258.043 198.375C260.124 199.145 262.136 199.168 264.13 198.49C266.478 197.621 267.2 196.303 266.374 194.506C265.66 193.057 264.441 192.462 262.718 192.722C261.928 192.874 261.087 193.045 260.156 193.216C258.472 193.494 256.969 193.29 255.684 192.622C254.36 191.936 253.361 190.877 252.659 189.455C251.823 187.759 251.656 186.21 252.21 184.791C252.713 183.39 253.904 182.354 255.744 181.667C258.031 180.916 260.323 180.904 262.608 181.602L262.285 184.579C260.467 184.101 258.713 184.115 257.074 184.666C256.236 184.965 255.633 185.437 255.304 186.101C254.949 186.774 254.995 187.594 255.428 188.533C255.712 189.107 256.158 189.527 256.793 189.847C257.429 190.168 258.237 190.233 259.22 190.108C259.743 190.019 260.483 189.884 261.4 189.686C263.223 189.326 264.791 189.539 266.129 190.317C267.429 191.076 268.429 192.135 269.117 193.53C270.875 197.277 269.673 199.924 265.561 201.453C262.895 202.403 260.139 202.323 257.333 201.233L258.043 198.375Z" fill="#FFCD80"/>
<path fill-rule="evenodd" clip-rule="evenodd" d="M254.27 179.242L264.363 204.314L267.574 203.371L256.996 178.441L254.27 179.242Z" fill="#FFCD80"/>
<defs>
<linearGradient id="paint0_linear_383_9573" x1="86.9933" y1="102.862" x2="60.6484" y2="26.4682" gradientUnits="userSpaceOnUse">
<stop stop-color="#E86135"/>
<stop offset="0.59" stop-color="#EC6D47"/>
<stop offset="0.8" stop-color="#F6886F"/>
<stop offset="1" stop-color="#FFA396"/>
</linearGradient>
<linearGradient id="paint1_linear_383_9573" x1="47.6885" y1="32.3522" x2="-3.6437" y2="-1.98895" gradientUnits="userSpaceOnUse">
<stop stop-color="#E86135"/>
<stop offset="1" stop-color="#FFA396"/>
</linearGradient>
<linearGradient id="paint2_linear_383_9573" x1="191.887" y1="55.8929" x2="203.487" y2="119.753" gradientUnits="userSpaceOnUse">
<stop stop-color="#FFB000"/>
<stop offset="1" stop-color="#FD9500"/>
</linearGradient>
<linearGradient id="paint3_linear_383_9573" x1="147.13" y1="196.84" x2="111.028" y2="136.5" gradientUnits="userSpaceOnUse">
<stop stop-color="#A8CFCC"/>
<stop offset="0.58" stop-color="#B9D5D1"/>
<stop offset="0.8" stop-color="#DDE3DC"/>
<stop offset="1" stop-color="#FFF0E6"/>
</linearGradient>
</defs>
</svg>