<svg width="16" height="16" viewBox="0 0 16 16" fill="none" xmlns="http://www.w3.org/2000/svg">
<path fill-rule="evenodd" clip-rule="evenodd" d="M6.60116 2.20039C4.17068 2.20039 2.20039 4.17068 2.20039 6.60116C2.20039 9.03164 4.17068 11.0019 6.60116 11.0019C9.03164 11.0019 11.0019 9.03164 11.0019 6.60116C11.0019 4.17068 9.03164 2.20039 6.60116 2.20039ZM0 6.60116C0 2.95544 2.95544 0 6.60116 0C10.2469 0 13.2023 2.95544 13.2023 6.60116C13.2023 8.02683 12.7504 9.34693 11.9819 10.426L15.6779 14.1219C16.1075 14.5515 16.1075 15.2481 15.6779 15.6778C15.2482 16.1074 14.5516 16.1074 14.1219 15.6778L10.426 11.9819C9.34693 12.7504 8.02683 13.2023 6.60116 13.2023C2.95544 13.2023 0 10.2469 0 6.60116Z" fill="black"/>
</svg>