<svg width="16" height="16" viewBox="0 0 16 16" fill="none" xmlns="http://www.w3.org/2000/svg">
<path d="M8 1.44578C10.1205 1.44578 10.4096 1.44578 11.2771 1.44578C11.9289 1.44578 12.3052 1.58352 12.5807 1.68436C12.6311 1.70281 12.6782 1.72003 12.7229 1.73494C12.8034 1.77517 12.8796 1.81121 12.9526 1.84567C13.2291 1.97634 13.4579 2.08445 13.6867 2.31325C13.9759 2.60241 14.1687 2.89157 14.2651 3.27711C14.3614 3.56627 14.4578 3.95181 14.5542 4.72289C14.5542 5.59036 14.5542 5.78313 14.5542 8C14.5542 10.2169 14.5542 10.4096 14.5542 11.2771C14.5542 11.9289 14.4165 12.3052 14.3156 12.5807C14.2972 12.6311 14.28 12.6782 14.2651 12.7229C14.2248 12.8034 14.1888 12.8796 14.1543 12.9526C14.0237 13.2291 13.9156 13.4579 13.6867 13.6867C13.3976 13.9759 13.1084 14.1687 12.7229 14.2651C12.4337 14.3614 12.0482 14.4578 11.2771 14.5542C10.4096 14.5542 10.2169 14.5542 8 14.5542C5.78313 14.5542 5.59036 14.5542 4.72289 14.5542C4.07109 14.5542 3.69478 14.4165 3.41929 14.3156C3.36888 14.2972 3.32184 14.28 3.27711 14.2651C3.19664 14.2248 3.12038 14.1888 3.04743 14.1543C2.77087 14.0237 2.54206 13.9156 2.31325 13.6867C2.0241 13.3976 1.83133 13.1084 1.73494 12.7229C1.63855 12.4337 1.54217 12.0482 1.44578 11.2771C1.44578 10.4096 1.44578 10.2169 1.44578 8C1.44578 5.78313 1.44578 5.59036 1.44578 4.72289C1.44578 4.0711 1.58352 3.69478 1.68436 3.4193C1.70281 3.36888 1.72003 3.32184 1.73494 3.27711C1.77517 3.19664 1.81121 3.12037 1.84567 3.04743C1.97634 2.77087 2.08445 2.54206 2.31325 2.31325C2.60241 2.0241 2.89157 1.83133 3.27711 1.73494C3.56627 1.63855 3.95181 1.54217 4.72289 1.44578C5.59036 1.44578 5.87952 1.44578 8 1.44578ZM8 0C5.78313 0 5.59036 0 4.72289 0C3.85542 0 3.27711 0.192771 2.79518 0.385543C2.31325 0.578314 1.83133 0.86747 1.3494 1.3494C0.86747 1.83133 0.674699 2.21687 0.385543 2.79518C0.192771 3.27711 0.0963856 3.85542 0 4.72289C0 5.59036 0 5.87952 0 8C0 10.2169 0 10.4096 0 11.2771C0 12.1446 0.192771 12.7229 0.385543 13.2048C0.578314 13.6867 0.86747 14.1687 1.3494 14.6506C1.83133 15.1325 2.21687 15.3253 2.79518 15.6145C3.27711 15.8072 3.85542 15.9036 4.72289 16C5.59036 16 5.87952 16 8 16C10.1205 16 10.4096 16 11.2771 16C12.1446 16 12.7229 15.8072 13.2048 15.6145C13.6867 15.4217 14.1687 15.1325 14.6506 14.6506C15.1325 14.1687 15.3253 13.7831 15.6145 13.2048C15.8072 12.7229 15.9036 12.1446 16 11.2771C16 10.4096 16 10.1205 16 8C16 5.87952 16 5.59036 16 4.72289C16 3.85542 15.8072 3.27711 15.6145 2.79518C15.4217 2.31325 15.1325 1.83133 14.6506 1.3494C14.1687 0.86747 13.7831 0.674699 13.2048 0.385543C12.7229 0.192771 12.1446 0.0963856 11.2771 0C10.4096 0 10.2169 0 8 0Z" fill="#0052FE"/>
<path fill-rule="evenodd" clip-rule="evenodd" d="M8 1.44578H11.2771C11.9289 1.44578 12.3052 1.58352 12.5807 1.68436C12.6311 1.70281 12.6782 1.72003 12.7229 1.73494C12.8034 1.77517 12.8796 1.81121 12.9526 1.84567C13.2291 1.97634 13.4579 2.08445 13.6867 2.31325C13.9759 2.60241 14.1687 2.89157 14.2651 3.27711C14.3614 3.56627 14.4578 3.95181 14.5542 4.72289V8V11.2771C14.5542 11.9289 14.4165 12.3052 14.3156 12.5807C14.2972 12.6311 14.28 12.6782 14.2651 12.7229C14.2248 12.8034 14.1888 12.8796 14.1543 12.9526C14.0237 13.2291 13.9156 13.4579 13.6867 13.6867C13.3976 13.9759 13.1084 14.1687 12.7229 14.2651C12.4337 14.3614 12.0482 14.4578 11.2771 14.5542H8H4.72289C4.07109 14.5542 3.69478 14.4165 3.41929 14.3156C3.36888 14.2972 3.32184 14.28 3.27711 14.2651C3.19664 14.2248 3.12038 14.1888 3.04743 14.1543C2.77087 14.0237 2.54206 13.9156 2.31325 13.6867C2.0241 13.3976 1.83133 13.1084 1.73494 12.7229C1.63855 12.4337 1.54217 12.0482 1.44578 11.2771V8V4.72289C1.44578 4.0711 1.58352 3.69478 1.68436 3.4193C1.70281 3.36888 1.72003 3.32184 1.73494 3.27711C1.77517 3.19664 1.81121 3.12037 1.84567 3.04743C1.97634 2.77087 2.08445 2.54206 2.31325 2.31325C2.60241 2.0241 2.89157 1.83133 3.27711 1.73494C3.56627 1.63855 3.95181 1.54217 4.72289 1.44578H8ZM3.85542 8C3.85542 5.68675 5.68675 3.85542 8 3.85542C10.3133 3.85542 12.1446 5.68675 12.1446 8C12.1446 10.3133 10.3133 12.1446 8 12.1446C5.68675 12.1446 3.85542 10.3133 3.85542 8ZM13.2048 3.75904C13.2048 4.29136 12.7733 4.72289 12.241 4.72289C11.7086 4.72289 11.2771 4.29136 11.2771 3.75904C11.2771 3.22671 11.7086 2.79518 12.241 2.79518C12.7733 2.79518 13.2048 3.22671 13.2048 3.75904Z" fill="#0052FE"/>
<path fill-rule="evenodd" clip-rule="evenodd" d="M8 1.44578H11.2771C11.9289 1.44578 12.3052 1.58352 12.5807 1.68436C12.6311 1.70281 12.6782 1.72003 12.7229 1.73494C12.8034 1.77517 12.8796 1.81121 12.9526 1.84567C13.2291 1.97634 13.4579 2.08445 13.6867 2.31325C13.9759 2.60241 14.1687 2.89157 14.2651 3.27711C14.3614 3.56627 14.4578 3.95181 14.5542 4.72289V8V11.2771C14.5542 11.9289 14.4165 12.3052 14.3156 12.5807C14.2972 12.6311 14.28 12.6782 14.2651 12.7229C14.2248 12.8034 14.1888 12.8796 14.1543 12.9526C14.0237 13.2291 13.9156 13.4579 13.6867 13.6867C13.3976 13.9759 13.1084 14.1687 12.7229 14.2651C12.4337 14.3614 12.0482 14.4578 11.2771 14.5542H8H4.72289C4.07109 14.5542 3.69478 14.4165 3.41929 14.3156C3.36888 14.2972 3.32184 14.28 3.27711 14.2651C3.19664 14.2248 3.12038 14.1888 3.04743 14.1543C2.77087 14.0237 2.54206 13.9156 2.31325 13.6867C2.0241 13.3976 1.83133 13.1084 1.73494 12.7229C1.63855 12.4337 1.54217 12.0482 1.44578 11.2771V8V4.72289C1.44578 4.0711 1.58352 3.69478 1.68436 3.4193C1.70281 3.36888 1.72003 3.32184 1.73494 3.27711C1.77517 3.19664 1.81121 3.12037 1.84567 3.04743C1.97634 2.77087 2.08445 2.54206 2.31325 2.31325C2.60241 2.0241 2.89157 1.83133 3.27711 1.73494C3.56627 1.63855 3.95181 1.54217 4.72289 1.44578H8ZM8 0H4.72289C3.85542 0 3.27711 0.192771 2.79518 0.385543C2.31325 0.578314 1.83133 0.86747 1.3494 1.3494C0.86747 1.83133 0.674699 2.21687 0.385543 2.79518C0.192771 3.27711 0.0963856 3.85542 0 4.72289V8V11.2771C0 12.1446 0.192771 12.7229 0.385543 13.2048C0.578314 13.6867 0.86747 14.1687 1.3494 14.6506C1.83133 15.1325 2.21687 15.3253 2.79518 15.6145C3.27711 15.8072 3.85542 15.9036 4.72289 16H8H11.2771C12.1446 16 12.7229 15.8072 13.2048 15.6145C13.6867 15.4217 14.1687 15.1325 14.6506 14.6506C15.1325 14.1687 15.3253 13.7831 15.6145 13.2048C15.8072 12.7229 15.9036 12.1446 16 11.2771V8V4.72289C16 3.85542 15.8072 3.27711 15.6145 2.79518C15.4217 2.31325 15.1325 1.83133 14.6506 1.3494C14.1687 0.86747 13.7831 0.674699 13.2048 0.385543C12.7229 0.192771 12.1446 0.0963856 11.2771 0H8ZM5.3012 8C5.3012 9.54217 6.55422 10.6988 8 10.6988C9.44578 10.6988 10.6988 9.44578 10.6988 8C10.6988 6.45783 9.44578 5.3012 8 5.3012C6.45783 5.3012 5.3012 6.55422 5.3012 8Z" fill="#0052FE"/>
</svg>
