<svg width="31" height="17" viewBox="0 0 31 17" fill="none" xmlns="http://www.w3.org/2000/svg">
<path d="M0.546 12.082C0.863333 11.83 1.008 11.7133 0.98 11.732C1.89467 10.976 2.61333 10.3553 3.136 9.87C3.668 9.38467 4.116 8.876 4.48 8.344C4.844 7.812 5.026 7.294 5.026 6.79C5.026 6.40733 4.93733 6.10867 4.76 5.894C4.58267 5.67933 4.31667 5.572 3.962 5.572C3.60733 5.572 3.32733 5.70733 3.122 5.978C2.926 6.23933 2.828 6.61267 2.828 7.098H0.518C0.536667 6.30467 0.704667 5.642 1.022 5.11C1.34867 4.578 1.77333 4.186 2.296 3.934C2.828 3.682 3.416 3.556 4.06 3.556C5.17067 3.556 6.006 3.84067 6.566 4.41C7.13533 4.97933 7.42 5.72133 7.42 6.636C7.42 7.63467 7.07933 8.56333 6.398 9.422C5.71667 10.2713 4.84867 11.102 3.794 11.914H7.574V13.86H0.546V12.082ZM8.68405 12.18V10.248L13.108 3.92H15.782V10.108H16.93V12.18H15.782V14H13.388V12.18H8.68405ZM13.556 6.552L11.204 10.108H13.556V6.552ZM23.6747 0.699999L19.9227 16.618H17.6127L21.3647 0.699999H23.6747ZM30.9704 5.572L27.4564 14H25.0064L28.5624 5.838H24.2084V3.794H30.9704V5.572Z" fill="black"/>
</svg>
