<svg width="30" height="20" viewBox="0 0 30 20" fill="none" xmlns="http://www.w3.org/2000/svg">
<rect x="0.25" y="0.25" width="28.6667" height="19.5" rx="3.75" fill="white" stroke="#D9D9D9" stroke-width="0.5"/>
<path fill-rule="evenodd" clip-rule="evenodd" d="M17.5868 14.0374C17.7509 13.6205 18.1164 12.6862 17.9426 12.4598H17.9439C17.7709 12.2329 16.7997 12.352 16.3629 12.4056L16.362 12.4057C16.2291 12.422 16.2087 12.3039 16.3281 12.2184C17.1038 11.6619 18.3745 11.8211 18.5221 12.009C18.6697 12.1969 18.4818 13.4979 17.7554 14.119C17.6436 14.2142 17.5369 14.1634 17.5868 14.0374ZM12.3677 14.6807C14.0569 14.6807 16.024 14.1359 17.3791 13.1149V13.1168C17.6033 12.9446 17.411 12.6914 17.1823 12.7906C15.7032 13.4277 14.1154 13.7603 12.5102 13.7693C10.283 13.7693 8.12868 13.1455 6.3858 12.1101C6.23311 12.0194 6.11939 12.1793 6.24716 12.296C7.92507 13.842 10.1078 14.6925 12.3677 14.6807Z" fill="#FF9900"/>
<path fill-rule="evenodd" clip-rule="evenodd" d="M23.4134 11.6234H24.1328H24.1335C24.2087 11.6249 24.2712 11.5645 24.274 11.4877V9.45144C24.274 9.19569 24.2874 8.96473 24.3884 8.73376C24.4577 8.55807 24.6209 8.43978 24.8062 8.43103C25.2664 8.43103 25.2619 8.94597 25.2585 9.35051C25.2582 9.38463 25.2579 9.41797 25.2579 9.45014V11.5047C25.2668 11.5706 25.3206 11.6206 25.3857 11.6234H26.1114C26.1803 11.6249 26.2395 11.5741 26.2501 11.5047V9.12392C26.2501 8.7579 26.2501 8.24835 26.0616 7.94562C25.8578 7.6194 25.5422 7.5 25.2189 7.5C24.7206 7.5 24.4376 7.74662 24.2357 8.26401H24.2216V7.68529C24.207 7.62479 24.1548 7.5816 24.0938 7.5796H23.4243C23.3535 7.57782 23.2933 7.63171 23.2857 7.70356V11.4877C23.2866 11.5603 23.3425 11.6196 23.4134 11.6234ZM22.7362 9.63873C22.7362 8.44477 22.1568 7.50525 21.0854 7.50525C20.0414 7.50525 19.4619 8.42911 19.4619 9.59893C19.4619 10.7688 20.0344 11.7083 21.0854 11.7083C22.0973 11.7083 22.7362 10.7929 22.7362 9.63873ZM20.5263 9.47951C20.5263 9.01759 20.5602 8.27772 21.0924 8.27772C21.3211 8.27772 21.4827 8.38276 21.5639 8.64374C21.6584 8.94582 21.6718 9.32815 21.6718 9.64654C21.6718 10.132 21.6508 10.9279 21.0853 10.9279C20.5261 10.9279 20.5262 9.96286 20.5263 9.49482V9.47951ZM7.0267 11.6312H7.748H7.74864C7.78484 11.6321 7.81989 11.6182 7.84603 11.5926C7.87217 11.567 7.88724 11.5318 7.88791 11.4948V9.48991L7.8879 9.45852C7.8876 9.02258 7.88721 8.446 8.38624 8.446C8.84759 8.446 8.84045 8.9526 8.83469 9.36169C8.83407 9.40582 8.83346 9.44881 8.83346 9.48991V11.4955C8.83469 11.5679 8.89042 11.6271 8.96124 11.6312H9.68446C9.72055 11.6319 9.75544 11.6179 9.78144 11.5924C9.80744 11.5668 9.82242 11.5317 9.8231 11.4948V9.48991L9.82303 9.44224C9.82259 9.22981 9.82201 8.94315 9.89082 8.76505C9.96098 8.58299 10.1306 8.46111 10.3221 8.45514C10.531 8.45514 10.6926 8.52691 10.7463 8.78136C10.7737 8.90382 10.7701 9.18772 10.7678 9.37598C10.7672 9.42041 10.7667 9.45951 10.7667 9.48991V11.4955C10.7676 11.5681 10.8235 11.6274 10.8945 11.6312H11.6158C11.652 11.6321 11.6871 11.6182 11.7132 11.5926C11.7393 11.567 11.7544 11.5318 11.7551 11.4948V9.10758C11.7551 9.04945 11.7561 8.99006 11.7571 8.93V8.92994V8.92988V8.92982V8.92976C11.763 8.5733 11.7693 8.19387 11.573 7.92144C11.3351 7.61242 10.9525 7.45843 10.5721 7.5186C10.1917 7.57877 9.87269 7.84374 9.73749 8.21178C9.53496 7.73354 9.24554 7.51106 8.80088 7.51106C8.35622 7.51106 8.02591 7.73354 7.85086 8.21178H7.83744V7.71788C7.83364 7.64749 7.7786 7.59128 7.70966 7.5874H7.03692C6.96263 7.58665 6.90135 7.64662 6.89892 7.72245V11.5066C6.90547 11.5747 6.95978 11.6277 7.0267 11.6312ZM5.77129 11.66C5.72378 11.7021 5.6555 11.7091 5.6007 11.6776C5.39629 11.5039 5.33466 11.41 5.24001 11.2659C5.22373 11.2411 5.20648 11.2148 5.18735 11.1863C4.7906 11.5987 4.51013 11.722 3.9971 11.722C3.38952 11.722 2.91675 11.339 2.91675 10.573C2.91675 9.97474 3.23619 9.56827 3.68341 9.36863C4.01364 9.22064 4.45426 9.1747 4.8352 9.13499L4.83522 9.13499L4.83525 9.13499L4.8353 9.13498L4.83537 9.13497L4.83543 9.13497C4.90618 9.12759 4.97487 9.12043 5.0404 9.11287V9.01761L5.04069 8.96213C5.04195 8.79971 5.04336 8.61888 4.95288 8.48261C4.86471 8.34691 4.69732 8.29145 4.54782 8.29145C4.27246 8.29145 4.02713 8.43564 3.96708 8.7338C3.95946 8.80336 3.90706 8.85902 3.8393 8.86951L3.14547 8.79187C3.11085 8.78681 3.07977 8.76747 3.05949 8.73837C3.0392 8.70928 3.03149 8.67296 3.03814 8.6379C3.1985 7.77146 3.96516 7.50983 4.65196 7.50983C5.00335 7.50983 5.46207 7.60508 5.73807 7.8765C6.06206 8.18628 6.06006 8.59181 6.05787 9.03499L6.05787 9.03509C6.05769 9.07165 6.05751 9.10846 6.05751 9.14549V10.2931C6.05751 10.6022 6.1698 10.756 6.28809 10.9179C6.30214 10.9371 6.31627 10.9565 6.33031 10.9762C6.37631 11.0415 6.38653 11.123 6.33031 11.172C6.18273 11.2979 5.92079 11.5302 5.77704 11.6613L5.77129 11.66ZM5.04357 9.86314L5.0436 9.89886C5.04385 10.1702 5.04406 10.4004 4.90877 10.6461C4.79377 10.8535 4.61169 10.9814 4.40852 10.9814C4.13188 10.9814 3.97025 10.7661 3.97025 10.4464C3.97025 9.81877 4.5216 9.70459 5.04357 9.70459V9.86314ZM15.7474 10.9152L15.7475 10.9153C15.7615 10.9345 15.7756 10.9538 15.7897 10.9735C15.8382 11.0414 15.8484 11.121 15.7865 11.166C15.6389 11.2919 15.3769 11.5249 15.2332 11.6553C15.1854 11.6968 15.1174 11.7036 15.0626 11.6723C14.8573 11.4979 14.7965 11.4054 14.7005 11.2593L14.7005 11.2592C14.6844 11.2349 14.6674 11.209 14.6486 11.181C14.2525 11.5934 13.9701 11.7167 13.459 11.7167C12.8514 11.7167 12.3787 11.3337 12.3787 10.5684C12.3787 9.96944 12.6962 9.56297 13.1485 9.36332C13.4795 9.21477 13.9225 9.16905 14.3046 9.12963C14.3739 9.12248 14.4412 9.11554 14.5055 9.10822V9.01492L14.5058 8.95972C14.507 8.79723 14.5084 8.61634 14.4173 8.48058C14.3317 8.34487 14.1611 8.28876 14.0123 8.28876C13.7369 8.28876 13.4929 8.43295 13.4322 8.73111C13.4244 8.80056 13.372 8.85611 13.3044 8.86682L12.6048 8.78983C12.5699 8.78494 12.5386 8.76558 12.5182 8.73631C12.4977 8.70705 12.49 8.67047 12.4968 8.6352C12.6578 7.76811 13.4245 7.50714 14.1113 7.50714C14.4621 7.50714 14.9208 7.60239 15.1974 7.87381C15.5221 8.18198 15.5198 8.58438 15.5173 9.02529L15.5173 9.02589V9.02601V9.02613C15.5171 9.06474 15.5169 9.10364 15.5169 9.1428V10.2911C15.5169 10.5995 15.6291 10.7532 15.7474 10.9151L15.7474 10.9152ZM13.8717 10.9775C14.0743 10.9775 14.257 10.8496 14.3713 10.6428C14.5071 10.3957 14.507 10.1645 14.5068 9.88976L14.5068 9.8605V9.70131C13.9848 9.70131 13.4335 9.81483 13.4335 10.4431C13.4335 10.7622 13.5951 10.9775 13.8717 10.9775ZM16.4004 7.70945V8.24836C16.4 8.28533 16.4145 8.32084 16.4405 8.34661C16.4664 8.37238 16.5016 8.38615 16.5378 8.38472H17.7798L16.3557 10.4725C16.2907 10.5845 16.26 10.7138 16.2675 10.8438V11.3951C16.2675 11.4747 16.3538 11.5654 16.4362 11.5203C17.2216 11.1044 18.1556 11.1027 18.9425 11.5158C19.0326 11.5634 19.1176 11.4714 19.1176 11.3918V10.8124C19.1152 10.7239 19.0664 10.6434 18.9898 10.6017C18.5752 10.3636 18.0928 10.2938 17.6366 10.3048L18.8659 8.51325C18.9802 8.35275 19.0441 8.25097 19.0441 8.17333V7.70945C19.0445 7.6726 19.0301 7.63719 19.0043 7.61144C18.9785 7.5857 18.9435 7.57184 18.9074 7.57309H16.5352C16.4991 7.57102 16.4638 7.58467 16.4381 7.61066C16.4124 7.63665 16.3987 7.67255 16.4004 7.70945Z" fill="black"/>
</svg>