<svg width="30" height="20" viewBox="0 0 30 20" fill="none" xmlns="http://www.w3.org/2000/svg">
<rect x="0.25" y="0.25" width="28.6667" height="19.5" rx="3.75" fill="white" stroke="#D9D9D9" stroke-width="0.5"/>
<path fill-rule="evenodd" clip-rule="evenodd" d="M6.95525 7.44414C7.34695 7.47718 7.73865 7.24589 7.98346 6.95264C8.2242 6.65113 8.38332 6.24637 8.34252 5.83334C7.9957 5.84986 7.56728 6.06464 7.32247 6.36615C7.09806 6.62635 6.90629 7.04764 6.95525 7.44414ZM11.6149 12.7639V6.32485H14.0018C15.234 6.32485 16.0949 7.18395 16.0949 8.43954C16.0949 9.69514 15.2177 10.5625 13.9692 10.5625H12.6023V12.7639H11.6149ZM8.33842 7.52262C7.99333 7.50252 7.67846 7.62767 7.42413 7.72877C7.26046 7.79382 7.12187 7.84891 7.01643 7.84891C6.8981 7.84891 6.75378 7.79088 6.59174 7.72572C6.37942 7.64033 6.13668 7.54272 5.88213 7.5474C5.29866 7.55566 4.75599 7.89021 4.45813 8.42302C3.8461 9.48862 4.299 11.0664 4.89063 11.9337C5.18033 12.3633 5.52715 12.8341 5.98413 12.8176C6.18518 12.8099 6.3298 12.7478 6.47947 12.6835C6.65178 12.6095 6.83078 12.5326 7.11027 12.5326C7.38008 12.5326 7.55125 12.6075 7.71556 12.6794C7.8718 12.7477 8.02184 12.8134 8.24457 12.8093C8.71788 12.8011 9.01573 12.3798 9.30543 11.9502C9.61805 11.4892 9.75543 11.0393 9.77629 10.971L9.77629 10.971L9.77873 10.9631C9.77823 10.9626 9.77437 10.9608 9.76756 10.9577C9.66304 10.9092 8.86426 10.5391 8.8566 9.54644C8.84891 8.71328 9.49018 8.29115 9.59112 8.2247L9.59113 8.22469C9.59727 8.22065 9.60141 8.21793 9.60328 8.2165C9.19526 7.60523 8.55875 7.53914 8.33842 7.52262ZM17.8984 12.8134C18.5186 12.8134 19.0939 12.4954 19.3551 11.9915H19.3755V12.7639H20.2894V9.5588C20.2894 8.6295 19.555 8.03061 18.4248 8.03061C17.3762 8.03061 16.6009 8.63776 16.5724 9.47207H17.4619C17.5353 9.07557 17.8984 8.81536 18.3962 8.81536C19.0001 8.81536 19.3388 9.10035 19.3388 9.62489V9.98009L18.1065 10.0544C16.96 10.1246 16.3398 10.5996 16.3398 11.4257C16.3398 12.26 16.9804 12.8134 17.8984 12.8134ZM18.1636 12.0494C17.6373 12.0494 17.3027 11.7933 17.3027 11.4009C17.3027 10.9962 17.625 10.7607 18.2411 10.7236L19.3387 10.6534V11.0168C19.3387 11.6198 18.8328 12.0494 18.1636 12.0494ZM23.321 13.0158C22.9252 14.1434 22.4723 14.5151 21.5094 14.5151C21.436 14.5151 21.1911 14.5069 21.134 14.4903V13.718C21.1952 13.7262 21.3462 13.7345 21.4237 13.7345C21.8603 13.7345 22.1051 13.5486 22.2561 13.0654L22.3458 12.7804L20.673 8.09258H21.7053L22.8681 11.8965H22.8885L24.0514 8.09258H25.0551L23.321 13.0158ZM12.6022 7.16741H13.7406C14.5974 7.16741 15.087 7.62999 15.087 8.44365C15.087 9.25731 14.5974 9.72403 13.7365 9.72403H12.6022V7.16741Z" fill="black"/>
</svg>