<svg width="30" height="20" viewBox="0 0 30 20" fill="none" xmlns="http://www.w3.org/2000/svg">
<rect x="0.25" y="0.25" width="28.6667" height="19.5" rx="3.75" fill="white" stroke="#D9D9D9" stroke-width="0.5"/>
<path fill-rule="evenodd" clip-rule="evenodd" d="M14.7918 14.2975C13.7988 15.1544 12.5107 15.6717 11.1032 15.6717C7.96267 15.6717 5.41675 13.0962 5.41675 9.91918C5.41675 6.74216 7.96267 4.16669 11.1032 4.16669C12.5107 4.16669 13.7988 4.68398 14.7918 5.54088C15.7847 4.68398 17.0728 4.16669 18.4803 4.16669C21.6208 4.16669 24.1668 6.74216 24.1668 9.91918C24.1668 13.0962 21.6208 15.6717 18.4803 15.6717C17.0728 15.6717 15.7847 15.1544 14.7918 14.2975Z" fill="#ED0006"/>
<path fill-rule="evenodd" clip-rule="evenodd" d="M14.7917 14.2975C16.0144 13.2424 16.7897 11.6724 16.7897 9.91918C16.7897 8.166 16.0144 6.59599 14.7917 5.54088C15.7847 4.68398 17.0728 4.16669 18.4803 4.16669C21.6208 4.16669 24.1668 6.74216 24.1668 9.91918C24.1668 13.0962 21.6208 15.6717 18.4803 15.6717C17.0728 15.6717 15.7847 15.1544 14.7917 14.2975Z" fill="#F9A000"/>
<path fill-rule="evenodd" clip-rule="evenodd" d="M14.7919 5.54089C16.0145 6.59601 16.7898 8.166 16.7898 9.91917C16.7898 11.6723 16.0145 13.2423 14.7919 14.2974C13.5692 13.2423 12.7939 11.6723 12.7939 9.91917C12.7939 8.166 13.5692 6.59601 14.7919 5.54089Z" fill="#FF5E00"/>
</svg>