<svg width="30" height="20" viewBox="0 0 30 20" fill="none" xmlns="http://www.w3.org/2000/svg">
<rect x="0.25" y="0.25" width="28.6667" height="19.5" rx="3.75" fill="white" stroke="#D9D9D9" stroke-width="0.5"/>
<path fill-rule="evenodd" clip-rule="evenodd" d="M3.37618 11.8108L3.37618 11.8108L3.37618 11.8108C3.39736 11.6905 3.41787 11.5739 3.44145 11.4573C3.54132 10.9301 3.64188 10.4035 3.74244 9.87687L3.74247 9.87674L3.74248 9.87669L3.7425 9.87658C3.84307 9.34997 3.94363 8.82336 4.0435 8.29605C4.05737 8.22927 4.0768 8.18474 4.14338 8.17361C4.6622 8.09569 5.18379 8.04003 5.7026 8.17083C6.15483 8.28214 6.47112 8.60216 6.52383 8.97785C6.63203 9.72643 6.19645 10.3247 5.55001 10.539C5.20876 10.6503 4.86196 10.6782 4.5096 10.6448C4.42637 10.6364 4.4014 10.6587 4.38753 10.7394C4.31262 11.1485 4.23494 11.5547 4.15448 11.961C4.14893 11.9944 4.11841 12.0473 4.09899 12.0473C3.91044 12.0515 3.72498 12.051 3.53221 12.0504C3.46687 12.0503 3.40068 12.0501 3.33325 12.0501C3.34851 11.9681 3.36248 11.8887 3.37618 11.8108ZM4.68422 9.98532H4.68422H4.68422C4.79274 9.98827 4.89522 9.99106 4.99514 9.97972C5.28367 9.94911 5.51395 9.81831 5.64435 9.54281C5.79139 9.23114 5.68596 8.89998 5.40852 8.80258C5.21154 8.73301 5.00901 8.74692 4.80647 8.77475C4.7815 8.77754 4.74821 8.81649 4.74266 8.84154C4.70387 9.04542 4.66508 9.25018 4.62483 9.46262L4.62479 9.46282L4.62478 9.46287L4.52626 9.9825C4.5805 9.9825 4.63303 9.98393 4.68421 9.98532H4.68421H4.68421H4.68421H4.68422ZM8.12711 11.6526L8.12709 11.6526C8.04028 11.7498 7.95782 11.8422 7.8611 11.9164C7.56979 12.1418 7.23686 12.1919 6.90116 12.0361C6.56823 11.883 6.43228 11.5853 6.41841 11.2346C6.38789 10.4972 6.64591 9.88773 7.26461 9.46474C7.65302 9.19759 8.0997 9.11689 8.56303 9.14193C8.71629 9.15097 8.86838 9.17765 9.02083 9.20438C9.10295 9.21878 9.18517 9.23321 9.26773 9.2449C9.36206 9.25881 9.37594 9.31168 9.35929 9.39239C9.33702 9.50877 9.3145 9.62503 9.292 9.74122L9.292 9.74123L9.292 9.74123L9.292 9.74124L9.292 9.74125L9.292 9.74126C9.20797 10.1751 9.12413 10.608 9.0541 11.0426C9.01394 11.2914 8.99792 11.5463 8.98206 11.7986L8.97365 11.9303C8.9681 12.0194 8.9459 12.0556 8.85435 12.0528C8.68233 12.0472 8.51032 12.0472 8.3383 12.0528C8.24952 12.0556 8.219 12.0222 8.22733 11.9359C8.23525 11.8405 8.24034 11.7424 8.24564 11.6403C8.24776 11.5994 8.24992 11.5579 8.2523 11.5157C8.20841 11.5615 8.16729 11.6075 8.12711 11.6526ZM8.44651 9.79592C8.17739 9.72079 7.95266 9.77366 7.764 9.93228C7.40888 10.2328 7.24796 10.6224 7.27848 11.0872C7.2868 11.2291 7.34229 11.3654 7.49211 11.4267C7.64193 11.4879 7.77787 11.4434 7.8944 11.3432C7.96376 11.282 8.03035 11.2124 8.08029 11.1345C8.27598 10.8349 8.32943 10.4969 8.38373 10.1537C8.40256 10.0346 8.4215 9.91489 8.44651 9.79592ZM12.3778 11.3544C12.5304 11.8442 12.9494 12.1169 13.6846 12.1169C14.1895 12.103 14.6917 11.8164 15.0052 11.2264C15.1717 10.9092 15.2327 10.5697 15.2105 10.2135C15.1911 9.87117 15.0552 9.58176 14.7777 9.37583C14.4864 9.15877 14.1535 9.11424 13.7983 9.1532C12.6109 9.28678 12.1254 10.5474 12.3778 11.3544ZM13.1679 10.9457C13.1682 10.9315 13.1685 10.9174 13.1685 10.9036C13.1769 10.5835 13.2546 10.2858 13.446 10.0214C13.532 9.90452 13.6402 9.81547 13.7845 9.78208C14.0786 9.71529 14.3199 9.88504 14.3477 10.2051C14.381 10.5974 14.2866 10.9592 14.0397 11.2737C13.9454 11.3906 13.8261 11.4713 13.6735 11.4852C13.3988 11.5102 13.1907 11.3238 13.1685 11.0316C13.1667 11.0037 13.1673 10.9745 13.1679 10.9458V10.9458V10.9457V10.9457V10.9457ZM15.8709 9.21152H16.5756C16.5645 9.36179 16.5534 9.5065 16.5395 9.65399C16.5652 9.63 16.59 9.60629 16.6144 9.58304L16.6144 9.58303L16.6144 9.58301C16.6663 9.53347 16.716 9.48605 16.767 9.44249C17.0417 9.20317 17.3552 9.09742 17.7186 9.15586C18.0183 9.20595 18.2263 9.4258 18.2596 9.73469C18.2958 10.0561 18.2357 10.3679 18.1757 10.679L18.1625 10.7476C18.1382 10.874 18.1141 11.0004 18.0901 11.1267L18.0901 11.1268L18.0901 11.1269C18.0374 11.4038 17.9847 11.6802 17.9295 11.9554C17.9212 11.9916 17.8795 12.0444 17.8518 12.0472C17.6132 12.0528 17.3746 12.05 17.136 12.0472C17.128 12.0472 17.12 12.0429 17.1078 12.0363C17.1031 12.0337 17.0978 12.0309 17.0916 12.0277C17.136 11.7968 17.1804 11.563 17.222 11.3293C17.2858 10.9703 17.3469 10.6141 17.4023 10.2551C17.4134 10.1939 17.4079 10.1299 17.3996 10.0686C17.3774 9.85435 17.2192 9.75695 17.0139 9.82096C16.8142 9.88496 16.6949 10.0408 16.5978 10.2133C16.4535 10.4666 16.4036 10.7476 16.3536 11.0287V11.0287L16.3536 11.0287L16.3164 11.2372L16.3164 11.2374L16.3163 11.2375L16.3163 11.2375C16.2739 11.476 16.2316 11.7134 16.1844 11.9526C16.176 11.9888 16.1344 12.0444 16.1067 12.0472C15.9121 12.0539 15.7158 12.0535 15.5065 12.053L15.3437 12.0528C15.5268 11.0955 15.6988 10.1577 15.8709 9.21152ZM19.8715 11.4685C19.5775 11.4323 19.3805 11.2264 19.3999 10.937C19.4612 10.937 19.5222 10.9379 19.583 10.9389L19.583 10.9389C19.7035 10.9407 19.8228 10.9426 19.9409 10.937C20.2267 10.9203 20.5069 10.873 20.7677 10.7422C21.1006 10.5752 21.256 10.2997 21.231 9.94075C21.206 9.5762 21.009 9.31183 20.6567 9.20608C20.1296 9.04746 19.644 9.15878 19.2306 9.5122C18.7285 9.94075 18.5398 10.5084 18.612 11.1568C18.6619 11.616 18.9116 11.9444 19.3666 12.0613C19.8549 12.1865 20.3349 12.1197 20.7982 11.9305C20.8315 11.9166 20.8703 11.8637 20.8676 11.8303C20.8609 11.6945 20.8471 11.5587 20.8334 11.4229L20.8232 11.321C20.814 11.321 20.8073 11.3206 20.8021 11.3202C20.7946 11.3197 20.7904 11.3194 20.7871 11.321C20.7566 11.3322 20.7261 11.3433 20.6983 11.3544C20.432 11.4574 20.1573 11.5019 19.8715 11.4685ZM20.3015 10.2357C20.1323 10.3248 19.694 10.3776 19.4803 10.3331C19.5247 9.963 19.9159 9.67358 20.2461 9.75429C20.357 9.78211 20.4375 9.84055 20.4569 9.96021C20.4763 10.0771 20.4181 10.1745 20.3015 10.2357ZM22.1716 10.9482C22.1466 11.2209 22.3408 11.4296 22.6377 11.4686C22.9151 11.502 23.1814 11.4602 23.4422 11.3656C23.4662 11.3566 23.4894 11.3475 23.5148 11.3376L23.515 11.3376C23.5366 11.3292 23.5598 11.3202 23.5865 11.3099C23.5919 11.3689 23.598 11.4267 23.6039 11.4837C23.6162 11.6015 23.6281 11.7159 23.6337 11.8303C23.6364 11.8637 23.5976 11.9166 23.5671 11.9305C23.0954 12.1253 22.6099 12.1921 22.1133 12.0557C21.6666 11.9333 21.4336 11.6077 21.3781 11.1624C21.3087 10.592 21.4558 10.0771 21.8525 9.65415C22.2798 9.20055 22.8041 9.03915 23.4089 9.20612C23.7779 9.30908 23.9749 9.57623 23.9971 9.95192C24.0193 10.3192 23.8529 10.5947 23.5061 10.7562C23.1565 10.9176 22.7847 10.9426 22.4074 10.951C22.3325 10.9482 22.2548 10.9482 22.1716 10.9482ZM22.252 10.3555C22.3025 10.3523 22.3521 10.3498 22.4009 10.3473C22.524 10.3412 22.6426 10.3352 22.7598 10.3193C22.8707 10.3054 22.9817 10.272 23.0816 10.2247C23.1898 10.1774 23.2425 10.0772 23.2259 9.95472C23.2092 9.83785 23.1315 9.78219 23.0233 9.75436C22.6959 9.66531 22.2881 9.96586 22.252 10.3555ZM24.1497 11.4685C24.1136 11.6577 24.0803 11.8442 24.0442 12.0501C24.0998 12.0501 24.1546 12.0502 24.2087 12.0504C24.4222 12.0508 24.6258 12.0512 24.8294 12.0446C24.8488 12.0446 24.8793 11.9917 24.8849 11.9583C24.9132 11.8193 24.9394 11.6796 24.9657 11.54C25.014 11.2826 25.0623 11.0254 25.1235 10.7728C25.2594 10.2107 25.4897 10.0159 26.0363 9.94353C26.0585 9.94074 26.0945 9.9157 26.1001 9.89622C26.1349 9.73627 26.1661 9.57511 26.1985 9.40793C26.2151 9.32204 26.232 9.23457 26.2499 9.14485C25.7228 9.0892 25.4287 9.39531 25.1734 9.77099L25.1775 9.71696C25.19 9.55071 25.2028 9.38153 25.2178 9.20329C25.1601 9.20329 25.1035 9.20312 25.0477 9.20294C24.8834 9.20242 24.726 9.20192 24.5686 9.20608C24.5464 9.20886 24.5048 9.25895 24.502 9.28956C24.4428 10.0048 24.3027 10.7043 24.1627 11.4033L24.1497 11.4685Z" fill="black"/>
<path fill-rule="evenodd" clip-rule="evenodd" d="M16.804 5.85448C16.7759 5.84704 16.7478 5.8396 16.7197 5.83334C16.6337 5.83334 16.5477 5.83334 16.4562 5.83613C16.4249 5.8424 16.3936 5.84924 16.3621 5.85613C16.3237 5.86453 16.2849 5.87301 16.2453 5.88065C15.8208 5.96135 15.4213 6.10884 15.0357 6.30364C14.2006 6.72663 13.4515 7.27485 12.7801 7.92325C12.3334 8.3518 11.9006 8.79984 11.4816 9.25901C10.7464 10.066 10.1166 10.9537 9.61446 11.9277C9.35644 12.4314 9.12339 12.9463 9.01796 13.5056C8.99854 13.6086 9.03183 13.7282 9.06512 13.8312C9.079 13.8729 9.15668 13.9035 9.20939 13.9202C9.22327 13.9258 9.26488 13.8562 9.2843 13.8173C9.2912 13.8022 9.29826 13.7867 9.30547 13.7709C9.42596 13.507 9.58889 13.15 9.73025 12.9137C10.0299 12.4128 10.2664 12.0251 10.6022 11.5493C11.1404 10.784 11.7693 10.0331 12.4296 9.37083C13.0538 8.74469 13.679 8.18483 14.4641 7.76184C14.8248 7.56983 15.1938 7.3806 15.5711 7.22476C16.2231 6.95482 16.9028 6.77116 17.602 6.66819C17.6769 6.65706 17.7768 6.59862 17.8018 6.5374C17.824 6.48174 17.7712 6.376 17.7185 6.32312C17.5049 6.10328 17.2552 5.93631 16.9445 5.88622C16.8976 5.87926 16.8508 5.86687 16.804 5.85448ZM10.4523 9.65146C10.5855 9.2897 10.6521 8.91401 10.6604 8.52442C10.6567 8.48268 10.6536 8.44093 10.6506 8.39919C10.6444 8.31571 10.6382 8.23222 10.6271 8.14874C10.5522 7.50312 10.2748 6.9549 9.83365 6.4846C9.78094 6.43173 9.7088 6.38999 9.63667 6.36494C9.56453 6.33711 9.51737 6.37886 9.52292 6.46234C9.52305 6.46411 9.52319 6.46587 9.52332 6.46764C9.52874 6.53836 9.53435 6.6116 9.54789 6.68219C9.56738 6.79339 9.58674 6.90473 9.60611 7.01614C9.67497 7.41216 9.74399 7.80912 9.81978 8.20439C9.89469 8.60234 9.97792 8.9975 10.0667 9.38988C10.0972 9.51511 10.1472 9.64033 10.2082 9.75721C10.2554 9.84626 10.3219 9.83791 10.383 9.75721L10.383 9.75721C10.4107 9.72382 10.4385 9.69042 10.4523 9.65146Z" fill="#FC461E"/>
</svg>