<svg width="30" height="20" viewBox="0 0 30 20" fill="none" xmlns="http://www.w3.org/2000/svg">
<rect x="0.25" y="0.25" width="28.6667" height="19.5" rx="3.75" fill="white" stroke="#D9D9D9" stroke-width="0.5"/>
<path fill-rule="evenodd" clip-rule="evenodd" d="M8.25001 12.7008H6.95366C6.86495 12.7008 6.7895 12.7653 6.77567 12.8528L6.25136 16.177C6.24094 16.2427 6.29174 16.3018 6.35827 16.3018H6.97716C7.06587 16.3018 7.14132 16.2373 7.15515 16.1496L7.29656 15.253C7.3102 15.1652 7.38584 15.1008 7.47436 15.1008H7.88474C8.73869 15.1008 9.2315 14.6876 9.36027 13.8687C9.41825 13.5105 9.36273 13.229 9.19492 13.0318C9.01071 12.8154 8.68387 12.7008 8.25001 12.7008ZM8.39957 13.9149C8.32869 14.3801 7.97327 14.3801 7.62961 14.3801H7.43399L7.57122 13.5113C7.57937 13.4589 7.62486 13.4202 7.67794 13.4202H7.7676C8.0017 13.4202 8.22255 13.4202 8.33667 13.5536C8.40465 13.6333 8.42553 13.7515 8.39957 13.9149ZM12.1251 13.9H11.5043C11.4514 13.9 11.4057 13.9387 11.3976 13.9912L11.3701 14.1648L11.3267 14.1019C11.1923 13.9069 10.8926 13.8417 10.5935 13.8417C9.90747 13.8417 9.32159 14.3612 9.20746 15.0901C9.14817 15.4536 9.23246 15.8013 9.43869 16.0437C9.6279 16.2666 9.89861 16.3595 10.2206 16.3595C10.7733 16.3595 11.0799 16.0041 11.0799 16.0041L11.0522 16.1766C11.0418 16.2426 11.0926 16.3017 11.1587 16.3017H11.7179C11.8069 16.3017 11.8819 16.2372 11.8959 16.1495L12.2314 14.0248C12.242 13.9594 12.1914 13.9 12.1251 13.9ZM11.2597 15.1083C11.1998 15.4629 10.9183 15.701 10.5594 15.701C10.3791 15.701 10.235 15.6432 10.1426 15.5336C10.0508 15.4248 10.0159 15.2699 10.0451 15.0975C10.1011 14.7458 10.3873 14.5 10.7408 14.5C10.917 14.5 11.0604 14.5585 11.1547 14.6691C11.2493 14.7807 11.2869 14.9365 11.2597 15.1083ZM14.8075 13.8999H15.4313C15.5187 13.8999 15.5697 13.9979 15.52 14.0696L13.4452 17.0645C13.4116 17.113 13.3562 17.1419 13.2971 17.1419H12.6741C12.5863 17.1419 12.5351 17.0431 12.5859 16.9713L13.2319 16.0593L12.5448 14.0428C12.5211 13.9727 12.5728 13.8999 12.6474 13.8999H13.2604C13.34 13.8999 13.4103 13.9522 13.4333 14.0284L13.7979 15.2463L14.6584 13.979C14.692 13.9295 14.748 13.8999 14.8075 13.8999Z" fill="#253B80"/>
<path fill-rule="evenodd" clip-rule="evenodd" d="M21.5711 16.177L22.1031 12.792C22.1113 12.7395 22.1568 12.7008 22.2097 12.7006H22.8087C22.8748 12.7006 22.9256 12.7599 22.9152 12.8255L22.3905 16.1495C22.3768 16.2373 22.3014 16.3017 22.2125 16.3017H21.6776C21.6115 16.3017 21.5607 16.2426 21.5711 16.177ZM17.4966 12.7008H16.2001C16.1115 12.7008 16.0361 12.7652 16.0222 12.8528L15.4979 16.177C15.4875 16.2426 15.5383 16.3017 15.6045 16.3017H16.2698C16.3316 16.3017 16.3845 16.2567 16.3942 16.1952L16.5429 15.253C16.5566 15.1652 16.6322 15.1008 16.7208 15.1008H17.1309C17.9851 15.1008 18.4778 14.6875 18.6066 13.8687C18.6648 13.5104 18.6089 13.2289 18.4412 13.0317C18.2571 12.8153 17.9305 12.7008 17.4966 12.7008ZM17.6462 13.9149C17.5755 14.3801 17.2201 14.3801 16.8762 14.3801H16.6808L16.8182 13.5113C16.8264 13.4588 16.8715 13.4202 16.9247 13.4202H17.0144C17.2483 13.4202 17.4694 13.4202 17.5834 13.5536C17.6515 13.6332 17.6722 13.7515 17.6462 13.9149ZM21.3714 13.9H20.751C20.6977 13.9 20.6524 13.9387 20.6445 13.9912L20.617 14.1648L20.5734 14.1019C20.439 13.9068 20.1395 13.8416 19.8404 13.8416C19.1544 13.8416 18.5687 14.3612 18.4545 15.0901C18.3954 15.4536 18.4794 15.8012 18.6856 16.0437C18.8751 16.2666 19.1455 16.3595 19.4675 16.3595C20.0202 16.3595 20.3267 16.004 20.3267 16.004L20.2991 16.1766C20.2887 16.2425 20.3395 16.3017 20.406 16.3017H20.965C21.0535 16.3017 21.1289 16.2372 21.1428 16.1495L21.4785 14.0247C21.4888 13.9594 21.438 13.9 21.3714 13.9ZM20.5061 15.1082C20.4466 15.4629 20.1647 15.7009 19.8057 15.7009C19.6258 15.7009 19.4814 15.6431 19.3888 15.5336C19.2971 15.4248 19.2626 15.2699 19.2915 15.0974C19.3477 14.7458 19.6336 14.5 19.9871 14.5C20.1634 14.5 20.3066 14.5585 20.4011 14.669C20.496 14.7807 20.5336 14.9365 20.5061 15.1082Z" fill="#179BD7"/>
<path d="M13.0475 11.5116L13.2069 10.4993L12.8519 10.491H11.1567L12.3348 3.02118C12.3384 2.99863 12.3503 2.9776 12.3677 2.96267C12.3851 2.94774 12.4074 2.93951 12.4305 2.93951H15.2889C16.2378 2.93951 16.8926 3.13698 17.2346 3.52673C17.3948 3.70957 17.4969 3.90063 17.5463 4.11089C17.5981 4.33153 17.599 4.59511 17.5484 4.91661L17.5447 4.94007V5.14606L17.7051 5.23688C17.8401 5.30849 17.9473 5.39046 18.0296 5.48432C18.1668 5.64064 18.2554 5.83933 18.2929 6.07488C18.3316 6.31715 18.3188 6.60542 18.2554 6.93179C18.1823 7.30722 18.064 7.63419 17.9044 7.90175C17.7575 8.14827 17.5704 8.3527 17.3482 8.51121C17.1361 8.66174 16.8841 8.77604 16.5992 8.8492C16.3231 8.92104 16.0083 8.95735 15.6631 8.95735H15.4406C15.2816 8.95735 15.127 9.01463 15.0058 9.11735C14.8842 9.22218 14.8037 9.36534 14.779 9.522L14.7623 9.61314L14.4807 11.3973L14.4679 11.4628C14.4646 11.4836 14.4588 11.4939 14.4503 11.501C14.4426 11.5073 14.4317 11.5116 14.421 11.5116H13.0475Z" fill="#253B80"/>
<path d="M17.8569 4.96393C17.8484 5.01847 17.8387 5.07424 17.8277 5.13153C17.4507 7.06687 16.1611 7.73545 14.514 7.73545H13.6754C13.474 7.73545 13.3043 7.88172 13.2728 8.0804L12.8435 10.8035L12.7219 11.5753C12.7014 11.7058 12.8021 11.8234 12.9336 11.8234H14.4211C14.5972 11.8234 14.7468 11.6954 14.7745 11.5217L14.7892 11.4461L15.0693 9.66894L15.0872 9.57148C15.1146 9.39718 15.2645 9.2692 15.4407 9.2692H15.6631C17.1042 9.2692 18.2323 8.68411 18.5621 6.99099C18.6998 6.28371 18.6285 5.69315 18.264 5.2778C18.1537 5.15255 18.0169 5.04864 17.8569 4.96393Z" fill="#179BD7"/>
<path d="M17.4625 4.80684C17.4049 4.79007 17.3454 4.77484 17.2845 4.76113C17.2232 4.74772 17.1604 4.73584 17.0959 4.72548C16.8697 4.68891 16.622 4.67154 16.3566 4.67154H14.1162C14.061 4.67154 14.0087 4.68403 13.9617 4.70658C13.8584 4.75625 13.7817 4.85407 13.7631 4.97383L13.2864 7.99249L13.2727 8.08056C13.3041 7.88187 13.4738 7.7356 13.6753 7.7356H14.5138C16.161 7.7356 17.4506 7.06672 17.8275 5.13168C17.8388 5.07439 17.8482 5.01863 17.8567 4.96408C17.7614 4.9135 17.6581 4.87022 17.5468 4.83335C17.5195 4.82421 17.4911 4.81537 17.4625 4.80684Z" fill="#222D65"/>
<path d="M13.7629 4.97374C13.7815 4.85398 13.8583 4.75616 13.9616 4.7068C14.0089 4.68424 14.061 4.67175 14.116 4.67175H16.3565C16.6219 4.67175 16.8697 4.68912 17.0957 4.72569C17.1604 4.73605 17.2232 4.74794 17.2844 4.76134C17.3454 4.77506 17.4047 4.7903 17.4624 4.80705C17.491 4.81559 17.5193 4.82442 17.547 4.83326C17.6583 4.87013 17.7616 4.91371 17.8569 4.96399C17.9691 4.24879 17.8561 3.76183 17.4694 3.32088C17.0431 2.83545 16.2736 2.62762 15.289 2.62762H12.4306C12.2295 2.62762 12.058 2.77389 12.0268 2.97288L10.8363 10.5195C10.8128 10.6688 10.928 10.8036 11.0785 10.8036H12.8432L13.2863 7.9924L13.7629 4.97374Z" fill="#253B80"/>
</svg>