<svg width="30" height="20" viewBox="0 0 30 20" fill="none" xmlns="http://www.w3.org/2000/svg">
<rect x="0.25" y="0.25" width="28.6667" height="19.5" rx="3.75" fill="white" stroke="#D9D9D9" stroke-width="0.5"/>
<path fill-rule="evenodd" clip-rule="evenodd" d="M8.85438 13.5485H7.08745L5.76246 8.49362C5.69957 8.2611 5.56604 8.05553 5.36962 7.95865C4.87943 7.71517 4.33927 7.5214 3.75 7.42367V7.22906H6.59639C6.98924 7.22906 7.28387 7.5214 7.33297 7.86092L8.02045 11.5072L9.78652 7.22906H11.5044L8.85438 13.5485ZM12.4865 13.5485H10.8177L12.1918 7.22906H13.8606L12.4865 13.5485ZM16.0195 8.97974C16.0686 8.63938 16.3632 8.44476 16.707 8.44476C17.2471 8.3959 17.8355 8.49363 18.3266 8.73626L18.6212 7.37565C18.1301 7.18104 17.59 7.08331 17.0998 7.08331C15.4802 7.08331 14.3016 7.95865 14.3016 9.17351C14.3016 10.0977 15.1364 10.583 15.7257 10.8753C16.3632 11.1668 16.6087 11.3614 16.5596 11.6529C16.5596 12.0902 16.0686 12.2848 15.5784 12.2848C14.9891 12.2848 14.3999 12.1391 13.8606 11.8956L13.5659 13.257C14.1552 13.4997 14.7927 13.5974 15.382 13.5974C17.198 13.6454 18.3266 12.7709 18.3266 11.4583C18.3266 9.80537 16.0195 9.70849 16.0195 8.97974ZM24.1667 13.5485L22.8417 7.22906H21.4185C21.1239 7.22906 20.8292 7.42367 20.731 7.71517L18.2775 13.5485H19.9953L20.3382 12.6252H22.4488L22.6453 13.5485H24.1667ZM21.664 8.93088L22.1542 11.3126H20.7801L21.664 8.93088Z" fill="#172B85"/>
</svg>